<svg width="1081" height="1032" viewBox="0 0 1081 1032" fill="none" xmlns="http://www.w3.org/2000/svg">
<path d="M0.710938 0.0429688H1080.71V1032H0.710938V0.0429688Z" fill="#0C0D0D"/>
<path d="M478.417 452.745C474.045 450.757 474.779 435.533 460.613 432.295H453.799M478.417 452.745C483.882 455.23 500.281 458.211 505.747 459.702M478.417 452.745C476.803 474.099 474.271 517.85 477.052 522.022C480.529 527.237 511.819 534.625 514.427 542.882C516.513 549.488 533.839 601.841 542.241 627.192C539.153 624.56 532.885 621.613 524.51 619.219M505.747 459.702C511.214 461.193 517.177 466.659 521.153 466.659C524.333 466.659 535.067 466.659 540.037 466.659M505.747 459.702L515.069 501.039M540.037 466.659L544.588 459.657C545.855 457.708 547.35 455.853 548.169 453.678C549.669 449.692 551.405 441.645 551.963 427.401C552.957 402.056 534.434 347.065 528.914 337.603M540.037 466.659L515.069 501.039M528.914 337.603C530.055 333.521 531.334 328.249 532.55 322.215M528.914 337.603C519.478 335.253 499.39 329.136 494.525 323.462C493.707 322.506 492.704 321.233 491.588 319.729M532.55 322.215C525.955 322.63 512.226 322.043 510.064 316.368C509.366 314.538 508.369 311.416 507.263 307.748M532.55 322.215C534.616 311.96 536.497 299.507 537.196 286.961M562.506 281.225L533.371 246.445C537.235 257.922 538 272.502 537.196 286.961M562.506 281.225C562.124 298.687 561.705 334.928 563.079 340.195C563.913 343.392 567.851 357.523 571.781 371.937M562.506 281.225C593.082 280.091 656.61 279.743 666.115 287.42C674.333 294.058 682.915 300.945 687.551 304.659C688.798 305.658 689.949 306.767 690.993 307.978L710.367 330.441C716.849 337.956 718.554 348.526 714.165 357.426C701.196 383.728 679.307 419.61 659.995 424.185M659.995 424.185C633.634 431.03 601.322 438.026 596.571 433.803V433.803C590.102 428.053 581.612 420.336 581.052 411.699C580.907 409.468 580.737 407.477 580.541 406.036C580.099 402.796 575.945 387.208 571.781 371.937M659.995 424.185C665.351 422.795 670.461 421.41 675.044 420.128C679.16 418.976 683.532 419.051 687.783 418.611C698.044 417.552 709.176 410.373 714.209 406.205C718.847 402.41 730.864 393.766 758.694 398.193C780.814 400.642 842.821 374.126 872.718 359.793C873.867 359.242 875.03 358.782 876.246 358.402L942.942 337.509C949.849 335.345 957.213 339.134 959.468 346.012V346.012C962.273 354.567 955.898 363.364 946.895 363.364C945.764 363.364 944.686 363.364 943.692 363.364C935.399 363.364 802.22 418.977 791.976 422.392C782.913 425.413 708.194 440.267 688.194 445.129C684.984 445.909 681.752 446.618 678.469 446.99C658.959 449.2 625.102 454.958 605.639 464.716C602.274 466.403 601.923 470.833 604.679 473.397L606.011 474.636C607.37 475.9 607.604 477.966 606.561 479.502V479.502C605.363 481.268 602.938 481.684 601.219 480.42L597.48 477.668C594.871 475.748 591.375 475.529 588.584 477.172C577.15 483.902 560.939 494.401 562.412 497.494C564.52 501.921 565.574 509.511 569.58 509.722C573.586 509.933 600.15 519.42 617.86 520.264C632.028 520.938 683.779 522.512 707.884 523.215C718.215 524.269 741.49 525.028 751.947 519.631C763.194 514.184 785.98 503.114 787.155 502.409C787.969 501.921 790.145 492.479 792.024 483.532C793.471 476.642 797.535 470.566 803.431 466.72L821.234 455.11L834.16 457.46C826.62 462.259 809.894 472.267 803.313 473.912V473.912C789.649 477.328 810.197 494.9 823.395 489.982L844.443 482.138L850.319 493.889L806.281 507.46C804.676 507.955 803.554 509.402 803.474 511.08V511.08C803.381 513.027 801.894 514.621 799.958 514.849L790.635 515.946C789.108 516.125 787.617 516.538 786.214 517.169L748.753 534.027C747.724 534.49 746.769 535.103 745.92 535.846V535.846C742.43 538.9 737.44 539.54 733.293 537.466L731.765 536.702C729.935 535.787 727.926 535.285 725.88 535.233L629.679 532.752C627.545 532.697 625.416 532.991 623.377 533.624V533.624C619.823 534.727 616.029 534.794 612.44 533.816L570.171 522.309C564.752 520.833 559.001 521.152 553.778 523.218L522.457 535.606M448.52 527.563C443.129 522.952 434.77 515.738 427.771 509.556M448.52 527.563L447.681 550.468M448.52 527.563L453.799 432.295M310.802 366.799L324.515 382.877C330.729 390.162 334.853 401.213 343.043 406.173C346.167 408.065 349.534 409.949 352.087 412.071C356.112 415.416 357.916 420.936 361.359 424.879C364.485 428.458 367.797 431.843 369.193 432.043C370.586 432.242 375.502 441.151 380.477 450.925M310.802 366.799C311.234 363.486 310.542 356.34 304.319 354.265C298.095 352.191 289.913 341.299 286.599 336.113C283.286 330.206 274.845 318.392 267.584 318.392C260.323 318.392 236.033 317.24 224.796 316.663C217.016 316.663 200.937 317.528 198.862 320.986C196.987 324.111 196.383 330.766 196.285 334.571C196.266 335.287 196.009 335.978 195.538 336.517V336.517C193.724 338.59 195.482 341.798 198.206 341.386L216.436 338.624C217.953 338.394 219.502 338.524 220.954 339.021C228.284 341.531 239.851 345.79 240.787 347.35C241.669 348.821 250.163 353.297 257.269 356.004M310.802 366.799C306.997 371.294 299.709 372.13 296.541 371.986M265.423 358.155C266.94 358.155 268.763 358.155 270.628 358.155C276.757 358.155 282.688 360.32 287.376 364.268L296.541 371.986M265.423 358.155L276.406 372.405C279.666 376.633 284.402 379.456 288.647 382.693C289.828 383.593 290.929 384.637 291.787 385.817C294.553 389.62 309.94 390.859 317.287 391.003L296.541 371.986M265.423 358.155C263.629 358.155 260.601 357.274 257.269 356.004M257.269 356.004C264.741 367.671 280.463 391.262 283.575 392.3C286.342 393.222 308.447 401.501 322.733 406.87C325.99 408.094 328.959 409.952 331.467 412.364C343.67 424.097 362.064 442.367 360.508 443.3V443.3C357.476 445.119 353.45 447.233 355.126 450.346L355.409 450.872C355.637 451.295 355.942 451.671 356.31 451.98L361.656 456.483C362.971 457.59 363.245 459.509 362.291 460.939V460.939C361.292 462.437 361.644 464.455 363.091 465.527L369.424 470.218C371.199 471.533 372.433 473.449 372.896 475.608L373.866 480.139C374.368 482.479 376.657 483.983 379.004 483.513V483.513C380.413 483.231 381.871 483.659 382.904 484.658L394.22 495.597M394.22 495.597C396.525 522.826 401.827 579.705 404.593 589.386C408.051 601.488 447.382 714.726 449.975 716.887C451.118 717.84 453.801 718.749 456.534 719.469C459.282 720.194 460.62 723.453 458.981 725.775V725.775C457.996 727.17 456.214 727.755 454.594 727.215L454.355 727.135C451.854 726.302 449.211 727.945 448.853 730.557L446.517 747.574M394.22 495.597L428.378 532.452M446.517 747.574C439.026 743.828 423.956 734.521 423.61 727.26C423.178 718.184 414.966 725.963 415.398 730.718C415.831 735.472 429.229 786.472 433.551 791.659C436.253 794.902 438.28 799.665 438.68 804.682M446.517 747.574C454.787 750.473 471.65 757.079 472.94 760.304C474.553 764.335 474.956 838.112 470.521 839.724V839.724C459.203 843.84 447.481 834.851 444.108 823.289L438.68 804.682M414.534 929.101C418.28 919.16 426.031 898.5 427.068 895.388C428.365 891.499 427.5 878.965 427.932 873.778C428.365 868.592 434.415 821.481 437.441 813.701C438.575 810.786 438.919 807.689 438.68 804.682M414.534 929.101C434.451 940.409 445.617 946.75 465.534 958.058M414.534 929.101C408.607 938.132 408.612 949.697 409.755 956.934C410.193 959.713 411.46 962.264 413.04 964.592C421.377 976.878 434.415 996.846 434.415 999.983C434.415 1004.3 439.257 1024.56 437.528 1027.59M465.534 958.058C473.89 977.796 490.257 1019.6 488.874 1028.94M465.534 958.058C464.38 955.472 462.9 951.986 461.478 948.352M456.89 930.397C455.716 932.277 458.465 940.648 461.478 948.352M456.89 930.397C457.638 929.201 459.976 923.595 462.785 916.581M456.89 930.397C459.999 936.659 472.564 946.464 497.95 935.584M498.382 891.066L490.17 895.821C490.89 887.609 491.467 871.012 488.009 870.32C484.551 869.629 477.06 882.134 473.746 888.473C470.967 895.749 466.47 907.378 462.785 916.581M498.382 891.066C507.314 865.998 525.179 814.22 525.179 807.65M498.382 891.066C505.862 887.06 525.245 879.797 554.071 875.136M498.382 891.066C490.251 898.361 471.749 913.676 462.785 916.581M525.179 807.65C547.183 821.308 591.03 853.157 590.382 871.297M525.179 807.65C523.133 802.77 518.931 791.69 518.491 786.412C517.941 779.815 535.534 691.851 538.833 691.301M497.95 935.584L505.73 958.058M497.95 935.584C505.765 928.204 534.08 919.903 560.224 914.397M505.73 958.058L481.063 948.597C476.562 946.871 471.67 946.43 466.933 947.323L461.478 948.352M505.73 958.058C507.747 959.067 512.04 962.035 513.077 965.838C513.967 969.1 521.066 992.307 525.978 1008.3C527.432 1013.03 527.505 1018.08 526.187 1022.85L524.747 1028.08M590.382 871.297C594.191 875.909 600.471 889.844 595.121 908.688M590.382 871.297C584.175 871.626 578.228 872.101 572.553 872.691M595.121 908.688C592.556 927.044 588.438 973.008 593.621 989.528C594.538 989.527 615.009 991.135 637.954 992.962C663.226 994.974 682.257 974.139 683.523 948.818V948.818C683.814 943.002 689.63 893.276 689.63 876.7C689.63 860.125 679.452 848.493 670.728 847.039M595.121 908.688C608.206 892.016 635.425 858.148 639.613 856.054M595.121 908.688C589.57 909.222 582.762 910.189 575.337 911.482M639.613 856.054C644.847 853.437 662.004 845.585 670.728 847.039M639.613 856.054C635.981 833.904 570.913 736.99 538.833 691.301M670.728 847.039C661.398 834.71 642.08 809.063 639.441 805.104C636.143 800.156 569.62 684.154 566.871 682.505M538.833 691.301C539.671 691.162 541.716 690.419 544.345 689.415M566.871 682.505C568.518 675.648 571.107 660.641 568.287 655.47C565.594 650.534 548.049 590.042 538.455 556.367C537.709 553.748 535.097 552.149 532.421 552.65V552.65C529.765 553.148 527.163 551.556 526.398 548.964L522.457 535.606M566.871 682.505C564.821 681.275 552.064 686.468 544.345 689.415M522.457 535.606L515.069 501.039M428.378 532.452C429.446 564.48 442.705 590.874 453.724 606.324C458.841 613.5 467.902 615.895 476.676 615.06C494.934 613.321 512.053 615.659 524.51 619.219M428.378 532.452L436.492 540.025M436.492 540.025L440.547 556.789L447.935 550.705L447.681 550.468M436.492 540.025L447.681 550.468M427.771 509.556C421.459 503.981 416.254 499.245 415.332 498.016C413.765 495.927 405.795 489.793 399.576 483.964M427.771 509.556L426.309 432.004M407.26 437.658L399.576 483.964M399.576 483.964C396.157 480.76 393.268 477.648 392.263 475.351C391.333 473.226 388.836 467.877 385.798 461.635M380.477 450.925L401.771 430.03C406.207 425.676 408.896 419.872 409.651 413.702C410.976 402.875 413.214 389.822 416.006 387.263C419.107 384.42 431.231 370.236 439.737 360.141C442.653 356.68 446.812 354.506 451.321 354.108V354.108C455.28 353.759 458.992 352.036 461.815 349.238L491.588 319.729M380.477 450.925C382.3 454.508 384.13 458.206 385.798 461.635M491.588 319.729C484.414 310.063 472.565 290.862 474.934 285.291C477.123 280.142 476.241 275.959 475.525 274.512C480.505 284.796 488.257 299.065 492.837 307.248V302.817C492.837 295.921 495.576 289.308 500.452 284.432L500.606 284.278C502.131 289.923 504.938 300.043 507.263 307.748M385.798 461.635L404.434 440.754C410.84 433.578 420.684 430.524 430.026 432.816L431.041 433.065C433.907 433.768 436.871 433.978 439.807 433.686L453.799 432.295M417.942 420.571C418.474 419.827 426.852 416.662 438.875 412.492M532.971 384.552C531.084 384.133 521.936 386.38 509.557 389.935M509.557 389.935C510.317 383.46 517.995 360.41 521.739 349.695M509.557 389.935C499.174 392.916 486.518 396.817 473.967 400.836M509.557 389.935L537.619 407.79M473.967 400.836C475.004 398.343 490.755 368.543 498.501 353.955M473.967 400.836C461.362 404.873 448.862 409.029 438.875 412.492M473.967 400.836L534.133 441.098M438.875 412.492L459.771 372.546M438.875 412.492L450.088 422.895M507.263 307.748L537.196 286.961M571.781 371.937L584.846 369.141M697.65 345.005L668.809 351.176M584.846 369.141C584.417 367.016 607.465 331.446 619.043 313.927M584.846 369.141L627.265 360.065M584.846 369.141L639.152 401.217M627.265 360.065L663.373 314.841M627.265 360.065L668.809 351.176M627.265 360.065L662.002 378.367M668.809 351.176L687.138 325.81M668.809 351.176L688.052 363.285M481.521 638.08L477.45 638.169C472.73 638.271 468.129 639.668 464.149 642.206V642.206C457.32 646.561 452.935 653.871 452.307 661.946L451.899 667.205C451.534 671.91 452.455 676.625 454.566 680.846L457.713 687.141C461.14 693.995 467.418 698.989 474.868 700.787L481.284 702.336M481.521 638.08L486.557 637.971C490.664 637.882 494.732 638.783 498.417 640.6V640.6C505.829 644.254 511.018 651.265 512.346 659.422L514.085 670.102C514.93 675.295 514.18 680.623 511.933 685.382L509.946 689.588C505.687 698.608 496.29 704.05 486.346 703.254V703.254C485.095 703.154 483.852 702.956 482.632 702.661L481.284 702.336M481.521 638.08L487.888 642.2C494.42 646.427 498.717 653.357 499.597 661.088L500.343 667.646C501.17 674.915 498.897 682.196 494.081 687.703L481.284 702.336M524.51 619.219C531.896 629.909 546.204 658.914 544.345 689.415M554.071 875.136C552.021 882.421 550.381 900.472 560.224 914.397M554.071 875.136C559.858 874.2 566.025 873.369 572.553 872.691M560.224 914.397C565.406 913.306 570.503 912.325 575.337 911.482M572.553 872.691C570.328 877.963 567.77 893.103 575.337 911.482M482.735 656.358L481.938 654.823C479.653 650.423 474.747 648.049 469.878 648.988V648.988C466.261 649.687 463.218 652.12 461.741 655.495L460.851 657.528C459.611 660.365 459.252 663.509 459.823 666.551L461.334 674.611C462.451 680.569 468.221 684.466 474.165 683.277V683.277C478.715 682.367 482.187 678.673 482.814 674.075L484.132 664.412C484.509 661.648 484.021 658.834 482.735 656.358ZM535.926 749.59L535.729 749.256C533.789 745.962 534.721 741.728 537.867 739.554V739.554C541.463 737.068 546.424 738.283 548.465 742.15L548.646 742.492C550.307 745.641 549.45 749.53 546.618 751.687V751.687C543.145 754.333 538.142 753.352 535.926 749.59ZM542.829 798.054V798.054C540.133 800.424 539.649 804.442 541.705 807.385L542.48 808.495C545.012 812.119 550.212 812.553 553.311 809.4V809.4C555.735 806.932 556.016 803.071 553.973 800.279L553.174 799.186C550.729 795.842 545.94 795.318 542.829 798.054Z" stroke="#849FC6" stroke-width="3" stroke-linecap="round" stroke-linejoin="round"/>
</svg>
