<svg width="1082" height="1033" viewBox="0 0 1082 1033" fill="none" xmlns="http://www.w3.org/2000/svg">
<path d="M486.387 439.379L533.545 441.093C533.79 441.102 534.018 441.195 534.194 441.366C541.167 448.163 553.67 464.711 549.915 478.705C545.162 496.423 527.875 490.373 523.986 505.499C520.096 520.624 519.232 544.393 527.875 546.554M486.387 439.379C475.923 437.857 456.999 426.756 464.661 394.537C464.72 394.29 464.874 394.068 465.085 393.925C468.353 391.718 474.362 386.671 474.646 382.423C474.796 380.173 475.272 370.721 475.8 359.967M486.387 439.379C490.445 437.93 496.83 435.795 502.745 434.119M699.01 429.438C688.638 417.338 635.05 425.548 632.89 425.116C630.729 424.684 576.277 434.191 572.82 435.055C569.362 435.92 521.825 432.464 516.206 431.6C513.973 431.257 508.588 432.464 502.745 434.119M699.01 429.438C707.285 439.093 686.446 454.421 674.902 460.934C674.839 460.97 674.782 461.011 674.727 461.06L616.22 513.544C616.099 513.653 615.953 513.73 615.795 513.77L591.835 519.76M699.01 429.438C656.485 436.352 609.841 492.534 591.835 519.76M591.835 519.76C589.242 524.081 581.895 534.54 573.252 541.8C562.448 550.875 536.518 548.714 527.875 546.554M527.875 546.554C536.829 562.225 563.128 592.649 596.694 588.977C630.769 585.25 641.926 573.74 664.582 544.964M536.906 212.124C518.96 234.099 516.397 261.932 513.467 261.932C511.139 261.932 506.933 279.512 505.081 288.482C505.056 288.607 505.007 288.722 504.937 288.828L477.361 330.555C477.262 330.705 477.205 330.879 477.196 331.059C477.042 334.305 476.852 338.256 476.647 342.513M536.906 212.124C537.272 205.898 537.272 192.347 534.342 187.952C533.097 186.085 532.318 183.795 532.134 181.067M536.906 212.124C542.1 203.947 549.113 193.406 556.973 182.307M601.73 80.2792L599.939 96.3937C599.913 96.6302 599.811 96.8426 599.637 97.0055C581.714 113.835 544.86 149.622 538.737 160.118C533.66 168.822 531.775 175.769 532.134 181.067M601.73 80.2792L617.151 86.7351C617.363 86.8237 617.598 86.8368 617.819 86.7722L650.883 77.0686C651.071 77.0132 651.24 76.9034 651.366 76.7529L670.091 54.4943C670.381 54.1495 670.866 54.0413 671.276 54.2301L684.557 60.3603C684.757 60.4529 684.983 60.4764 685.198 60.4273L705.255 55.8529C705.561 55.783 705.817 55.5735 705.945 55.287L710.027 46.1816C710.277 45.6234 710.966 45.4187 711.48 45.7495L715.195 48.1368C715.468 48.3121 715.639 48.6088 715.653 48.9326L715.949 55.4384C715.975 56.004 716.464 56.4355 717.029 56.3898L742.796 54.3005C742.993 54.2846 743.19 54.3272 743.362 54.4231L765.762 66.8674C766.021 67.0113 766.33 67.0329 766.607 66.9266L779.594 61.9317C780.08 61.7447 780.628 61.962 780.854 62.4312L784.857 70.7465C785.065 71.1778 785.549 71.4015 786.012 71.2799L813.917 63.9551C814.283 63.8589 814.672 63.9778 814.922 64.2622L824.761 75.4586C824.993 75.7226 825.069 76.0889 824.962 76.4235L822.503 84.1095C822.337 84.6269 822.615 85.1818 823.128 85.3594L870.665 101.801C870.828 101.857 871.004 101.87 871.174 101.839L885.259 99.2183C885.941 99.0913 886.542 99.6811 886.428 100.366L884.907 109.49C884.859 109.778 884.939 110.073 885.127 110.297L897.736 125.358C897.915 125.571 898.164 125.7 898.441 125.715C912.901 126.525 943.15 131.62 951.853 145.835C962.84 163.781 966.136 189.051 963.939 194.545M601.73 80.2792L594.743 67.1633C594.255 66.2488 592.87 66.5878 592.86 67.6239L592.639 90.6406C592.633 91.1891 592.191 91.631 591.643 91.631C585.202 91.631 573.775 91.631 572.756 91.631C571.76 91.631 569.611 104.087 568.447 111.683C568.33 112.442 567.439 112.793 566.835 112.318L557.435 104.918C556.739 104.37 555.727 104.929 555.82 105.809C556.48 112.014 557.448 121.383 557.448 122.516C557.448 123.775 541.051 141.704 532.28 151.129C531.929 151.506 531.354 151.55 530.945 151.236L509.896 135.099C509.131 134.513 508.061 135.241 508.326 136.167L511.428 147.023C511.61 147.662 511.131 148.294 510.468 148.259C508.708 148.166 506.198 147.886 504.541 147.223C502.392 146.364 519.426 170.225 528.212 182.262M963.939 194.545C972.24 198.94 988.77 211.905 988.477 228.605C988.11 249.481 982.617 271.821 973.095 276.582M963.939 194.545C951.487 196.742 907.904 151.329 902.045 142.906C896.185 134.482 881.169 135.947 864.688 137.778C855.891 138.756 852.257 150.875 851.067 162.712M973.095 276.582C963.573 281.343 935.739 279.512 932.442 274.751C931.414 273.265 928.642 270.468 925.246 267.268M973.095 276.582C976.34 280.781 985.635 290.115 996.852 293.854C1010.87 298.528 1019.05 302.033 1023.14 307.876C1026.41 312.55 1062.61 297.73 1080.52 289.94M909.003 252.777L889.632 266.031C888.98 266.477 888.093 266.035 888.062 265.246C887.599 253.528 886.057 231.613 883 224.943C879.777 217.911 860.171 191.249 850.771 178.797M909.003 252.777C913.098 256.276 919.936 262.264 925.246 267.268M909.003 252.777C914.39 299.321 921.979 398.564 909.245 423.183C896.525 447.776 843.915 473.711 819.124 483.638C819.072 483.658 819.025 483.682 818.977 483.711L782.877 505.719C759.741 521.143 689.989 521.447 682.923 522.071C682.67 522.093 682.485 522.22 682.326 522.419C675.537 530.911 669.759 538.388 664.582 544.964M850.771 178.797C850.487 174.45 850.473 168.616 851.067 162.712M850.771 178.797C838.125 164.929 805.336 144.691 775.346 174.681M850.771 178.797L846.697 184.27M925.246 267.268C934.431 275.555 949.64 269.838 956.71 265.618C957.091 265.391 957.265 264.936 957.146 264.51L937.271 193.324C937.227 193.164 937.143 193.018 937.028 192.898L917.225 172.375C917.117 172.263 916.984 172.178 916.837 172.126L903.91 167.584C903.654 167.494 903.448 167.309 903.332 167.064C900.387 160.848 892.789 149.132 884.465 149.132C876.193 149.132 881.598 162.092 885.608 169.086C885.803 169.426 885.785 169.847 885.56 170.168L876.72 182.747C876.526 183.024 876.205 183.186 875.867 183.162C869.605 182.703 856.702 178.099 851.067 162.712M775.346 174.681L784.792 174.376C785.316 174.359 785.764 174.75 785.819 175.272L786.559 182.379M775.346 174.681L774.721 187.507C774.696 188.017 775.059 188.464 775.564 188.544L787.396 190.412M775.346 174.681L751.917 202.461M787.396 190.412C798.106 199.337 824.146 211.699 842.622 189.742L846.697 184.27M787.396 190.412L786.559 182.379M786.559 182.379C793.013 175.718 814.076 166.771 846.697 184.27M751.917 202.461L754.445 221.736C754.524 222.339 754.051 222.872 753.443 222.866L724.403 222.554C723.876 222.548 723.444 222.135 723.415 221.609L721.557 188.16C721.514 187.383 722.334 186.857 723.022 187.22L751.917 202.461ZM857.478 214.029C853.366 232.392 840.211 269.2 820.478 269.529C800.744 269.858 795.537 255.962 795.4 248.974M664.582 544.964L737.966 541.79C738.181 541.781 738.394 541.841 738.572 541.963L754.543 552.823C754.638 552.888 754.744 552.936 754.855 552.964L771.96 557.399C772.232 557.47 772.462 557.652 772.593 557.9L784.843 581.11M784.843 581.11L812.749 598.633C812.933 598.748 813.071 598.912 813.148 599.115C837.894 664.127 891.73 796.682 910.058 809.25C928.414 821.837 1009.32 966.101 1042.32 1030.35M784.843 581.11C782.403 632.689 779.792 743.602 788.87 774.621C800.219 813.394 805.893 873.917 834.263 907.962C856.96 935.198 857.306 1001.29 854.784 1031.55M809.498 552.642C826.83 560.424 862.555 578.746 866.8 589.782C872.106 603.577 907.123 692.712 916.673 700.14C926.224 707.568 960.18 746.831 961.241 756.381C962.09 764.021 980.696 789.984 989.892 802.01M522.292 377.105C525.73 372.601 537.014 363.45 554.651 362.881C556.538 362.82 557.907 362.935 558.828 363.198M522.292 377.105C519.207 384.116 525.084 385.021 528.545 384.592C528.644 384.579 528.736 384.552 528.827 384.509C543.13 377.825 566.494 365.386 558.828 363.198M522.292 377.105C515.717 379.226 500.76 383.47 493.527 383.47C486.295 383.47 478.695 367.801 475.8 359.967M558.828 363.198L572.075 351.502M572.075 351.502V331.327C572.075 330.61 572.809 330.125 573.469 330.408L583.792 334.833C584.219 335.015 584.464 335.468 584.383 335.925L581.497 352.28C581.4 352.83 580.872 353.194 580.323 353.088L572.075 351.502ZM475.8 359.967C476.082 354.221 476.378 348.103 476.647 342.513M502.745 434.119C500.577 427.281 498.108 411.435 505.581 402.756M532.134 181.067C530.929 181.438 529.615 181.839 528.212 182.262M476.647 342.513C461.653 341.501 429.736 340.492 422.018 344.554C412.371 349.631 343.827 329.83 333.164 328.814C322.502 327.799 315.395 312.059 310.317 303.935C305.24 295.811 371.248 238.437 376.325 236.913C381.403 235.39 419.992 210.003 422.023 204.418C424.054 198.833 461.627 196.294 473.812 195.787C482.798 195.412 511.699 187.248 528.212 182.262M618.842 116.004C604.118 120.137 577.623 153.148 556.973 182.307M554.203 157.907C556.347 161.098 559.902 170.444 556.973 182.307M900.023 205.047C896.81 201.406 902.494 194.535 906.039 191.255C906.257 191.054 906.554 190.965 906.848 191.008L916.93 192.484C917.395 192.552 917.749 192.93 917.782 193.398C918.165 198.808 918.832 208.751 918.832 210.856C918.832 213.622 904.172 209.749 900.023 205.047Z" stroke="#849FC6" stroke-width="3"/>
</svg>
