<svg width="1081" height="1081" viewBox="0 0 1081 1081" fill="none" xmlns="http://www.w3.org/2000/svg">
<path d="M179.621 973.336C185.187 926.147 198.721 830.032 208.336 823.088C220.355 814.406 213.678 776.343 222.359 753.639C227.873 739.218 238.804 717.386 246.527 702.653C249.93 696.162 254.632 690.462 260.262 685.771L283.794 666.161M319.103 706.059L310.929 712.003M356.735 738.01L324.493 770.252C322.323 772.422 320.334 774.76 318.516 777.233C313.736 783.737 306.458 793.434 300.685 800.521M437.804 973.716C437.804 970.645 436.269 951.703 445.995 942.489M445.995 942.489C427.566 937.984 417.97 910.047 415.476 896.642M445.995 942.489C452.358 936.461 477.563 914.001 496.527 895.748M567.834 813.995C553.841 829.694 524.218 863.55 517.665 873.379C514.833 877.627 506.552 886.1 496.527 895.748M520.737 807.852C510.157 819.456 488.178 843.584 484.902 847.27C480.806 851.878 454.186 866.212 442.412 873.379C434.05 878.469 422.11 889.853 415.476 896.642M486.949 802.221C473.298 815.701 445.279 843.38 442.412 846.246C440.998 847.66 438.615 850.707 436.193 853.965C431.745 859.95 426.409 865.243 420.175 869.334L405.527 878.947M396.85 884.641C399.747 888.227 405.721 894.846 410.284 897.685C411.998 898.751 414.065 898.086 415.476 896.642V896.642M396.85 884.641L405.527 878.947M396.85 884.641L382.38 900.749C374.206 909.848 369.537 921.559 369.206 933.786V933.786M405.527 878.947C412.703 865.487 427.463 836.417 429.102 827.817C429.712 824.613 430.504 817.136 431.153 808.068M281.666 893.344C278.083 898.975 270.097 910.237 266.82 910.237C263.544 910.237 253.169 913.309 248.391 914.845M281.666 893.344L300.352 882.337M281.666 893.344L252.487 874.914M300.685 800.521C299.535 801.932 298.445 803.24 297.446 804.399C296.081 805.983 294.703 806.664 293.347 806.667C277.705 806.702 284.307 779.612 291.839 765.903V765.903C295.769 758.75 298.132 750.844 298.772 742.708L299.667 731.337C300.071 726.201 302.007 721.304 305.226 717.28V717.28C306.66 715.487 308.328 713.895 310.185 712.544L310.929 712.003M300.685 800.521C312.434 810.985 338.286 832.22 347.705 833.448M300.352 882.337L309.957 876.679C315.961 873.143 321.267 868.548 325.69 863.163C333.892 853.178 344.172 840.962 346.681 839.079C346.743 839.033 346.805 838.987 346.869 838.939C354.887 832.978 361.882 825.707 366.673 816.938C367.71 815.039 368.748 813.159 369.718 811.435C371.331 808.567 372.611 800.494 373.583 790.977M300.352 882.337C292.758 878.668 275.626 867.543 267.844 852.39M369.206 933.786C371.936 938.052 377.806 948.734 379.445 957.335C381.083 965.935 397.533 972.863 405.553 975.252M369.206 933.786C364.087 940.441 350.879 954.058 339.002 955.287M496.527 895.748C495.894 889.486 491.966 876.245 481.318 873.379M431.153 808.068C432.681 786.706 433.414 756.517 429.102 752.564C422.959 746.932 415.28 735.158 401.458 737.718C398.71 738.226 395.991 739.251 393.394 740.58M431.153 808.068L450.092 789.168M336.989 765.488L325.893 784.386C320.969 792.772 323.615 803.554 331.861 808.709V808.709C341.14 814.508 353.404 810.733 357.815 800.72L369.081 775.147M393.394 740.58C392.282 741.149 391.193 741.774 390.134 742.438C379.583 749.052 375.726 761.849 374.933 774.276C374.576 779.855 374.128 785.643 373.583 790.977M393.394 740.58C401.623 740.132 419.031 742.828 422.833 757.192V757.192C428.938 780.256 397.851 783.497 375.011 790.39C374.471 790.553 373.993 790.748 373.583 790.977M414.677 837.951C404.213 831.086 380.924 817.759 371.481 819.366M405.887 848.247C400.362 842.555 386.047 831.019 372.988 830.416M310.929 712.003C302.458 709.802 282.62 706.531 271.036 711.052C271.514 710.872 277.393 760.497 257.615 794.049M712.207 738.639L702.392 744.92C695.142 749.561 686.714 752.027 678.106 752.027V752.027C670.294 752.027 662.617 754.058 655.827 757.921L624.7 775.631C620.15 778.22 614.833 779.126 609.682 778.189L603.549 777.074C600.828 776.579 598.474 774.885 597.14 772.462V772.462M712.207 738.639L703.038 715.984C700.368 709.388 704.149 701.954 711.053 700.228V700.228C716.922 698.761 720.708 693.065 719.788 687.086L719.738 686.761M712.207 738.639L713.596 739.564C722.389 745.426 733.063 747.774 743.504 746.143V746.143C750.422 745.062 756.962 742.276 762.534 738.036L787.754 718.847C790.927 716.433 793.764 713.608 796.192 710.446L815.519 685.276C822.322 676.416 819.543 663.568 809.687 658.312V658.312M719.738 686.761L631.044 620.659M719.738 686.761L725.887 665.239C728.301 656.791 734.977 650.232 743.467 647.968L749.046 646.48C752.74 645.495 755.798 642.907 757.38 639.427V639.427C760.516 632.526 756.985 624.428 749.794 622.031L747.749 621.35C741.966 619.422 737.971 614.126 737.707 608.035L737.572 604.952C737.401 601.015 736.023 597.227 733.624 594.101L709.697 562.924M631.044 620.659L621.84 574.638M631.044 620.659L618.988 620.791M621.84 574.638L632.82 565.675M621.84 574.638L648.727 571.053M709.697 562.924L648.727 571.053M709.697 562.924L701.227 571.352C698.552 574.015 695.462 576.226 692.079 577.899V577.899C681.801 582.981 669.682 582.692 659.658 577.125L648.727 571.053M686.03 478.313V478.313C686.222 475.228 690.358 474.362 691.772 477.11L697.952 489.115C698.49 490.162 699.293 491.049 700.279 491.691L704.36 494.343C709.628 497.768 713.42 503.043 714.986 509.128L716.391 514.586C717.499 518.889 719.323 522.975 721.788 526.673L744.767 561.14C749.492 568.228 758.951 570.355 766.256 565.973L771.692 562.711C778.837 558.424 788.047 562.759 789.295 570.998V570.998C790.187 576.885 795.356 581.166 801.307 580.945V580.945C807.94 580.699 813.453 586.011 813.453 592.649V593.517C813.453 596.956 814.864 600.245 817.358 602.614L818.114 603.332C824.565 609.46 824.281 619.828 817.505 625.595L807.109 634.442C799.309 641.081 800.649 653.492 809.687 658.312V658.312M686.03 478.313L697.799 496.972C699.349 499.429 700.356 502.19 700.751 505.069V505.069C701.851 513.086 698.101 520.995 691.197 525.217L670.419 537.921C658.492 545.215 642.887 541.028 636.213 528.743L633.432 523.623C628.6 514.73 617.523 511.365 608.561 516.066V516.066M686.03 478.313L655.613 422.373M714.87 287.839L709.208 294.633C708.08 295.987 707.525 297.727 707.66 299.484V299.484C707.951 303.273 705.067 306.558 701.273 306.761L695.012 307.095C691.574 307.278 688.351 308.83 686.064 311.403L684.302 313.385C682.661 315.231 680.31 316.287 677.84 316.287L677.029 316.287C673.902 316.287 671.106 318.232 670.017 321.163V321.163C669.14 323.523 667.134 325.284 664.68 325.848L654.34 328.224C651.667 328.838 648.916 329.043 646.18 328.833L641.229 328.452C634.612 327.943 628.016 329.681 622.508 333.384L621.555 334.025C618.34 336.187 614.661 337.562 610.816 338.038L598.88 339.517C593.103 340.232 588.803 345.2 588.923 351.02L589.033 356.358C589.123 360.722 593.167 363.923 597.435 363.008L598.332 362.816C601.075 362.228 603.012 359.774 602.947 356.97V356.97C602.872 353.759 605.404 351.09 608.615 350.997L630.164 350.367C634.426 350.243 638.555 348.855 642.027 346.38L645.391 343.981C654.713 337.335 667.786 340.885 672.465 351.335L676.833 361.091C677.671 362.963 679.676 364.022 681.694 363.66V363.66C684.726 363.116 687.384 365.734 686.886 368.774L686.064 373.784C685.666 376.215 686.403 378.696 688.064 380.515L701.591 395.33C704.449 398.461 705.412 402.882 704.115 406.917V406.917C702.683 411.372 698.759 414.562 694.106 415.055L684.791 416.041C682.401 416.294 680.482 418.129 680.122 420.505V420.505C679.755 422.926 677.775 424.777 675.335 424.981L666.922 425.682C663.521 425.965 660.118 425.151 657.213 423.36L655.613 422.373M714.87 287.839L706.331 287.6M714.87 287.839L734.533 275.826L742.179 272.524C760.483 264.62 781.564 266.672 798.001 277.956L799.805 279.195L832.23 304.04M592.917 228.718L594.754 244.145C595.155 247.515 593.948 250.877 591.496 253.223L587.351 257.187C585.485 258.972 585.358 261.911 587.064 263.85V263.85C588.48 265.459 588.662 267.809 587.512 269.618L586.865 270.634C585.381 272.966 585.887 276.04 588.039 277.773V277.773C590.696 279.914 590.742 283.946 588.134 286.147L587.13 286.994C585.918 288.017 585.12 289.447 584.888 291.016L584.361 294.573C583.696 299.061 585.709 303.525 589.514 305.998V305.998C591.867 307.528 594.696 308.152 597.475 307.755L608.873 306.127C610.964 305.828 612.776 304.523 613.72 302.633V302.633C614.9 300.273 617.401 298.872 620.03 299.099L627.459 299.739C628.814 299.856 629.959 298.749 629.887 297.391V297.391C629.825 296.198 630.709 295.166 631.898 295.046L648.208 293.396C650.439 293.171 652.399 291.819 653.402 289.813V289.813C655.08 286.456 659.232 285.197 662.493 287.055L674.23 293.746C678.177 295.995 683.191 294.823 685.732 291.057V291.057C687.394 288.591 690.203 287.148 693.175 287.231L706.331 287.6M592.917 228.718L675.044 184.191L679.282 182.446C681.208 181.653 683.298 183.153 683.164 185.231V185.231C683.055 186.915 684.442 188.315 686.127 188.223L698.613 187.539C700.145 187.455 701.573 186.733 702.549 185.548V185.548C703.751 184.088 705.619 183.35 707.494 183.595L715.86 184.686M592.917 228.718L591.967 227.934C588.854 225.366 588.392 220.77 590.931 217.633V217.633C592.185 216.085 592.757 214.094 592.515 212.116L592.115 208.831C591.413 203.075 594.055 197.423 598.922 194.27L602.992 191.634C606.047 189.655 607.853 186.23 607.76 182.591V182.591C607.626 177.349 611.396 172.818 616.575 171.997L617.248 171.891M715.86 184.686L715.553 179.018C715.447 177.044 716.861 175.313 718.817 175.026L719.432 174.935C721.619 174.614 723.513 176.46 723.247 178.655V178.655C723.003 180.669 724.59 182.436 726.619 182.409L736.321 182.282C739.673 182.238 742.849 180.775 745.06 178.256L746.589 176.515C749.117 173.636 752.541 171.693 756.309 170.999L769.291 168.607M715.86 184.686L706.331 287.6M769.291 168.607L767.964 164.216C766.907 160.719 763.29 158.667 759.745 159.553L758.35 159.902C754.735 160.806 751.234 158.072 751.234 154.346V154.346C751.234 150.891 748.197 148.222 744.77 148.666L741.764 149.056C739.3 149.376 736.82 148.586 734.994 146.901L726.738 139.279C723.899 136.659 719.568 136.513 716.56 138.937L715.48 139.806C713.888 141.089 711.717 141.383 709.841 140.57L702.645 137.452C700.915 136.702 699.129 138.39 699.781 140.16V140.16M769.291 168.607L775.681 172.861C780.436 176.027 784.192 180.48 786.512 185.7L786.694 186.11C789.705 192.883 795.195 198.246 802.037 201.097V201.097C808.218 203.673 813.317 208.308 816.468 214.216L817.417 215.995C820.226 221.262 824.348 225.714 829.384 228.918L844.863 238.768M699.781 140.16C690.875 134.388 670.888 122.498 662.181 121.113C653.473 119.727 641.566 118.722 636.702 118.392M699.781 140.16L705.91 151.59C707.551 154.65 706.28 158.461 703.13 159.923V159.923C702.389 160.267 701.586 160.457 700.769 160.482L695.4 160.645C694.367 160.676 693.335 160.571 692.33 160.332L690.906 159.993C686.524 158.949 681.993 161.015 679.906 165.007L678.628 167.452C678.081 168.498 677.097 169.246 675.944 169.493L675.454 169.598C673.134 170.095 670.981 168.243 671.124 165.876V165.876C671.241 163.949 669.812 162.276 667.891 162.091L667.164 162.02C665.124 161.823 663.499 160.225 663.268 158.189L662.55 151.876C662.469 151.158 662.451 150.435 662.498 149.714L662.689 146.745C663.121 140.049 659.106 133.863 652.813 131.533V131.533C650.994 130.859 649.321 129.843 647.885 128.54L636.702 118.392M636.702 118.392L620.695 110.468C615.579 107.935 609.376 109.641 606.275 114.434V114.434M606.275 114.434L604.134 130.491C603.584 134.617 602.592 138.671 601.174 142.584L598.622 149.627C597.625 152.379 596.9 155.223 596.458 158.118L596.28 159.282C595.055 167.297 591.476 174.767 585.998 180.744L581.126 186.058C579.132 188.234 577.789 190.925 577.251 193.826L575.988 200.623C575.334 204.147 572.259 206.703 568.675 206.703V206.703M606.275 114.434L595.477 111.912C586.336 109.777 576.774 110.328 567.939 113.497V113.497C564.742 114.643 561.437 115.458 558.068 115.891C550.465 116.868 540.698 117.998 539.802 117.614C538.686 117.136 533.232 117.66 530.645 117.981M568.675 206.703L567.679 188.91C567.195 180.268 564.782 171.843 560.618 164.254L551.606 147.829L530.645 117.981M568.675 206.703L563.233 204.971M523.901 116.908L525.855 116.322C527.642 115.785 529.572 116.454 530.645 117.981V117.981M523.901 116.908L538.991 139.913L547.837 154.494C550.828 159.423 553.067 164.771 554.481 170.361L563.233 204.971M523.901 116.908L520.279 125.573C519.032 128.556 516.155 130.534 512.924 130.629V130.629C509.893 130.718 507.156 132.465 505.8 135.177L505.427 135.924C502.615 141.548 495.295 142.966 490.458 138.949C490.08 138.636 489.8 138.408 489.649 138.295C488.8 137.659 459.665 149.918 440.067 158.326C435.228 160.402 430.71 163.14 426.617 166.451L377.728 205.99M563.233 204.971L536.283 204.485M633.709 153.408L623.863 153.003C621.29 152.898 618.883 154.274 617.668 156.545L616.928 157.927C615.925 159.802 616.312 162.118 617.871 163.565V163.565C619.476 165.055 619.832 167.46 618.729 169.353L617.248 171.891M633.709 153.408L644.879 165.464C645.472 166.105 645.678 167.014 645.417 167.848V167.848M633.709 153.408V153.408C639.475 151.563 645.781 153.56 649.402 158.412C654.332 165.018 659.489 172.024 659.701 172.661V172.661C661.351 177.61 669.695 176.408 671.959 181.108C672.365 181.949 672.669 182.643 672.793 183.058C673.14 184.215 670.319 183.633 667.779 182.863C666.395 182.444 664.874 182.87 663.986 184.011V184.011C662.677 185.694 660.146 185.73 658.79 184.084L645.417 167.848M645.417 167.848V167.848C644.447 170.952 642.39 173.601 639.623 175.309L631.798 180.14C629.59 181.503 626.896 181.832 624.424 181.041L620.247 179.705C616.979 178.659 615.519 174.855 617.248 171.891V171.891M536.283 204.485L522.414 192.791C521.439 191.97 520.622 190.977 520.003 189.862L519.32 188.633C516.331 183.253 509.068 182.141 504.606 186.38V186.38C502.566 188.319 499.764 189.243 496.97 188.898L480.015 186.808C465.81 185.057 451.607 190.078 441.66 200.369L435.277 206.971C432.633 209.706 429.536 211.963 426.123 213.642V213.642C417.726 217.771 407.969 218.138 399.285 214.65L377.728 205.99M536.283 204.485L536.024 207.634C535.375 215.497 529 221.661 521.121 222.046V222.046M377.728 205.99V205.99C375.51 209.684 371.155 211.517 366.963 210.519L366.531 210.416C364.425 209.914 362.216 210.077 360.206 210.881L353.489 213.567C350.055 214.941 347.527 217.931 346.744 221.546L346.189 224.104C345.326 228.089 341.648 230.82 337.585 230.495L337.351 230.476C334.095 230.216 331.021 232.011 329.648 234.974L328.831 236.737C327.807 238.947 328.417 241.571 330.311 243.102V243.102M533.106 265.484V265.484C541.173 265.762 547.388 272.699 546.78 280.749L546.349 286.462M533.106 265.484L532.562 272.692M533.106 265.484L521.121 222.046M523.927 273.388L525.688 288.278C526.199 292.602 522.304 296.145 518.047 295.227V295.227C515.451 294.667 513.478 292.55 513.103 289.921L511.279 277.152C511.085 275.796 512.062 274.551 513.426 274.417V274.417M523.927 273.388L513.426 274.417M523.927 273.388L532.562 272.692M321.881 347.795L351.833 346.084M321.881 347.795V347.795C321.451 349.949 323.188 351.922 325.378 351.767L349.771 350.05C350.859 349.973 351.952 349.978 353.04 350.063L378.576 352.074L411.867 350.372C414.772 350.223 417.661 349.856 420.511 349.274L435.912 346.129M321.881 347.795L322.217 337.882C322.275 336.168 321.556 334.52 320.26 333.397V333.397C317.86 331.316 317.632 327.671 319.754 325.308L321.414 323.46C323.74 320.869 324.156 317.085 322.45 314.051L319.477 308.766C318.314 306.699 318.323 304.174 319.499 302.115L321.001 299.487C321.969 297.793 321.418 295.637 319.757 294.615V294.615C318.263 293.696 317.645 291.837 318.291 290.206L320.588 284.403C321.019 283.312 321.622 282.297 322.374 281.395L325.565 277.566C327.434 275.323 327.577 272.109 325.916 269.709V269.709C325.236 268.727 324.84 267.578 324.771 266.386L324.549 262.538C324.385 259.685 321.694 257.666 318.909 258.304V258.304M351.833 346.084L380.074 345.656C382.211 345.785 384.798 345.933 387.585 346.082M351.833 346.084L346.274 248.311M507.584 318.913L494.106 327.684L493.441 328.114C485.177 333.445 475.693 336.588 465.881 337.246L453.711 338.063C450.552 338.275 447.417 338.744 444.335 339.472C433.024 342.141 416.306 346.13 414.519 346.725C412.878 347.272 398.657 346.672 387.585 346.082M507.584 318.913L509.609 318.417C515.216 317.044 520.998 316.515 526.762 316.849L542.578 317.766C545.912 317.96 549.257 317.819 552.563 317.347L555.562 316.918C556.238 316.822 556.92 316.78 557.602 316.793V316.793M507.584 318.913C510.6 314.336 517.012 305.068 518.53 304.613V304.613C529.127 301.434 540.606 303.538 549.33 310.342L557.602 316.793M260.48 397.216L257.298 394.186C253.973 391.02 253.501 385.884 256.191 382.165V382.165C257.82 379.913 258.341 377.044 257.606 374.363L256.804 371.433C255.367 366.19 256.779 360.578 260.526 356.639L262.833 354.213L263.426 353.533C266.806 349.651 268.966 344.859 269.636 339.756L270.01 336.9C270.215 335.336 270.73 333.829 271.525 332.467L273.416 329.224C274.286 327.733 274.332 325.9 273.537 324.367V324.367C272.516 322.398 272.903 319.993 274.489 318.443L278.637 314.392C280.07 312.993 280.487 310.852 279.684 309.017V309.017C278.729 306.835 279.514 304.282 281.53 303.012L284.771 300.972C287.72 299.115 289.077 295.718 289.65 292.282C289.824 291.235 290.133 290.437 290.646 290.244C291.58 289.894 294.495 287.663 297.091 285.578C298.561 284.398 298.224 282.092 296.491 281.349V281.349C295.253 280.819 294.648 279.412 295.114 278.149L298.508 268.953C300.01 264.884 303.463 261.847 307.69 260.878L318.909 258.304M260.48 397.216L258.341 398.861C252.718 403.187 249.594 410.01 249.995 417.093L250.517 426.304C250.593 427.647 249.998 428.941 248.929 429.758V429.758C247.742 430.667 247.15 432.154 247.388 433.63L262.833 529.433M260.48 397.216L271.055 402.883C275.289 405.152 277.792 409.734 277.449 414.525V414.525C277.15 418.714 279.049 422.788 282.467 425.229V425.229C285.202 427.183 288.628 427.906 291.92 427.225L297.235 426.125M262.833 529.433L268.816 531.849C272.065 533.161 274.538 535.884 275.533 539.243L276.022 540.891C276.865 543.738 279.139 545.934 282.014 546.677L284.457 547.309C287.446 548.082 289.306 551.06 288.688 554.085V554.085C288.097 556.981 289.778 559.858 292.591 560.765L294.964 561.531C298.511 562.675 300.915 565.976 300.915 569.703V573.444C300.915 576.65 302.658 579.602 305.464 581.15V581.15C306.555 581.752 307.506 582.579 308.253 583.575L313.159 590.117C314.649 592.103 316.781 593.512 319.192 594.104V594.104C324.126 595.316 327.537 599.818 327.367 604.896L327.23 609.02L327.186 609.758C326.92 614.184 331.546 617.238 335.512 615.255V615.255C335.838 615.093 336.147 614.899 336.437 614.678L350.113 604.211C354.625 600.758 358.302 596.333 360.871 591.265V591.265C363.51 586.057 367.319 581.53 371.999 578.039L378.362 573.292M262.833 529.433L260.554 538.145C258.792 544.884 259.227 552.009 261.798 558.482L265.361 567.455C266.211 569.597 267.861 571.323 269.962 572.268V572.268M378.362 573.292V573.292C380.177 566.034 384.079 559.469 389.587 554.407L393.249 551.043C395.728 548.765 397.992 546.263 400.012 543.569L406.603 534.782M378.362 573.292C339.881 493.642 308.244 441.993 297.235 426.125M406.603 534.782L409.921 544.735C410.838 547.487 412.283 550.033 414.174 552.232L417.893 556.557C419.562 558.497 420.349 561.043 420.066 563.586V563.586C419.802 565.969 418.619 568.154 416.771 569.68L402.538 581.421L392.822 589.033C390.948 590.5 390.191 592.983 390.927 595.246L391.509 597.039C392.065 598.748 391.254 600.601 389.623 601.354V601.354C386.689 602.709 386.937 607.049 389.81 608.53C391.495 609.399 392.697 610.263 392.697 610.946C392.697 612.529 391.72 616.675 391.122 618.981C391.032 619.328 390.884 619.655 390.685 619.954V619.954C389.291 622.044 390.672 624.86 393.178 625.039L393.479 625.061C395.228 625.185 396.605 626.602 396.681 628.354L396.976 635.121L395.692 648.172M406.603 534.782L419.867 523.015M395.692 648.172L402.653 647.7C406.212 647.459 409.444 645.537 411.355 642.525L413.161 639.678C414.501 637.568 416.981 636.474 419.442 636.909V636.909C421.449 637.263 423.501 636.603 424.925 635.146L429.477 630.491C430.986 628.947 433.367 628.663 435.198 629.807V629.807C437.276 631.106 440.008 630.546 441.407 628.534L444.555 624.01C447.273 620.102 452.299 618.543 456.751 620.225L458.805 621.001M395.692 648.172L394.71 654.951C394.276 657.947 396.199 660.779 399.144 661.48V661.48M458.805 621.001V621.001C462.621 617.694 463.837 612.286 461.803 607.664L460.804 605.394C460.613 604.96 460.457 604.51 460.34 604.05L459.64 601.32C458.924 598.528 456.177 596.74 453.328 597.183V597.183C450.69 597.593 448.109 596.065 447.227 593.545L446.155 590.482C445.921 589.814 446.184 589.073 446.787 588.702V588.702C448.08 587.906 447.516 585.914 445.998 585.914H440.517C440.16 585.914 439.807 585.853 439.474 585.726C437.014 584.786 432.918 582.913 432.918 581.635C432.918 580.551 433.812 577.25 434.538 574.79C434.84 573.768 435.783 573.078 436.848 573.078V573.078C438.924 573.078 440.048 570.646 438.702 569.064L436.452 566.421C434.904 564.601 435.264 561.842 437.229 560.482L440.947 557.908C441.577 557.472 442.099 556.899 442.474 556.232V556.232C444.119 553.308 442.509 549.623 439.247 548.843L439.09 548.806C437.149 548.342 435.649 546.803 435.234 544.852L434.498 541.395C434.031 539.2 432.785 537.249 430.989 535.902L429.052 534.45C427.728 533.457 427.002 531.858 427.124 530.208V530.208C427.265 528.304 426.277 526.494 424.599 525.583L419.867 523.015M458.805 621.001L462.195 626.699M419.867 523.015L426.216 511.213M502.259 535.226V535.226C502.682 538.332 505.747 540.352 508.769 539.517L510.56 539.021C513.277 538.269 516.059 539.992 516.597 542.76V542.76C517.086 545.272 515.533 547.73 513.054 548.367L508.128 549.634M502.259 535.226C498.024 539.777 490.108 540.076 482.385 538.784C473.099 537.231 463.038 540.865 459.175 549.45V549.45M502.259 535.226V535.226C500.732 530.856 500.64 526.113 501.996 521.687L504.435 513.727M502.259 535.226L508.145 526.706M508.128 549.634L502.122 551.031C498.486 551.876 494.94 553.071 491.534 554.598L484.787 557.622M508.128 549.634L517.377 552.51M508.145 526.706V526.706C510.886 522.739 514.978 519.906 519.655 518.737L519.938 518.666C525.351 517.313 531.081 518.212 535.82 521.157L537.151 521.985C537.9 522.45 538.701 522.827 539.538 523.105L545.346 525.041C548.442 526.073 551.762 524.251 552.553 521.085V521.085M508.145 526.706L509.59 515.939C509.672 515.326 509.549 514.702 509.241 514.166L508.712 513.245C507.689 511.467 505.036 511.766 504.435 513.727V513.727M459.175 549.45V549.45C458.105 551.828 458.305 554.585 459.709 556.783L463.663 562.978C464.836 564.816 467.178 565.516 469.167 564.624V564.624M459.175 549.45C458.771 548.905 455.274 544.853 451.918 540.985C449.76 538.498 450.7 534.622 453.761 533.408V533.408C455.974 532.529 457.202 530.155 456.638 527.842L456.121 525.721C455.238 522.093 457.241 518.384 460.76 517.135L476.755 511.456L479.245 510.693C487.694 508.107 496.842 509.209 504.435 513.727V513.727M426.216 511.213L429.941 510.709C433.189 510.27 435.3 507.061 434.416 503.905V503.905C433.41 500.313 436.264 496.808 439.985 497.064L442.385 497.23C445.594 497.451 448.551 495.486 449.589 492.441L449.729 492.031C450.94 488.476 454.551 486.325 458.254 486.951L464.177 487.952C468.369 488.66 472.663 487.522 475.953 484.83L476.644 484.264M426.216 511.213C423.366 500.904 412.56 486.292 402.404 474.394C393.612 464.095 387.562 451.58 386.333 438.094L382.227 393.057M495.39 332.177L499.684 329.019C501.665 327.563 503.791 326.314 506.028 325.294V325.294C511.81 322.656 518.191 321.607 524.513 322.254L537.692 323.603C540.579 323.899 543.485 323.977 546.384 323.838L546.991 323.809M495.39 332.177V332.177C490.574 335.718 485.201 338.429 479.491 340.198L479.195 340.29C475.03 341.581 470.727 342.376 466.376 342.659L446.61 343.944L435.912 346.129M495.39 332.177L499.038 333.725C503.079 335.439 506.073 338.962 507.113 343.227V343.227C507.775 345.938 507.604 348.786 506.624 351.4L504.584 356.84C503.25 360.399 503.137 364.3 504.263 367.93L506.054 373.7C506.837 376.225 506.158 378.976 504.288 380.845V380.845C501.535 383.598 501.504 388.052 504.218 390.844L504.888 391.533C507.172 393.883 507.815 397.377 506.516 400.386L504.399 405.287C503.864 406.527 503.487 407.83 503.277 409.165L501.862 418.17C501.068 423.218 501.379 428.378 502.771 433.294V433.294C506.661 447.032 501.908 461.762 490.721 470.634L488.453 472.433C486.815 473.732 485.383 475.269 484.203 476.994V476.994C483.083 478.631 481.735 480.099 480.2 481.355L476.644 484.264M546.991 323.809L564.279 322.978L568.671 322.162M546.991 323.809L546.304 360.303C546.263 362.487 547.927 364.326 550.103 364.502V364.502C551.962 364.653 553.691 363.541 554.325 361.789L568.671 322.162M568.671 322.162L575.044 320.979C577.223 320.574 578.488 318.277 577.664 316.219V316.219C576.906 314.323 574.697 313.471 572.862 314.366L569.095 316.204C568.039 316.719 566.876 316.975 565.702 316.952L557.602 316.793M507.351 222.717V222.717C499.555 223.098 493.635 229.877 494.308 237.653L495.525 251.7C495.749 254.28 497.165 256.607 499.355 257.99V257.99C502.9 260.229 504.214 264.764 502.413 268.552L500.674 272.211C499.085 275.552 499.014 279.416 500.477 282.813L502.681 287.928C504.406 291.934 505.06 296.32 504.579 300.655L503.274 312.399L502.989 315.533C502.555 320.312 498.99 324.217 494.27 325.084L493.684 325.191C491.178 325.652 488.971 327.119 487.578 329.251V329.251C486.202 331.354 484.034 332.812 481.567 333.292L478.71 333.847C471.779 335.195 464.774 331.895 461.4 325.693L459.669 322.514C458.326 320.045 456.504 317.868 454.309 316.113L449.853 312.548C444.905 308.59 440.911 303.569 438.167 297.857L436.183 293.727C432.155 285.341 424.693 279.11 415.723 276.641L409.308 274.876C404.684 273.603 400.809 270.445 398.629 266.173V266.173C396.727 262.444 393.521 259.545 389.622 258.024L383.887 255.789M507.351 222.717L513.426 274.417M507.351 222.717L521.121 222.046M532.562 272.692L531.645 284.832C531.329 289.021 534.563 292.631 538.762 292.776L539.281 292.794C542.954 292.921 546.073 290.127 546.349 286.462V286.462M832.23 304.04L830.672 295.585C829.799 290.844 831.25 285.972 834.575 282.481V282.481C836.616 280.338 837.979 277.641 838.495 274.726L844.863 238.768M832.23 304.04L844.021 320.884M844.863 238.768L856.955 255.697C859.984 259.937 861.096 265.253 860.023 270.351V270.351M844.021 320.884L846.033 317.866C850.265 311.518 853.203 304.399 854.678 296.914L858.339 278.353L860.023 270.351M844.021 320.884L896.659 426.582M896.659 426.582L899.227 411.177C900.572 403.108 899.44 394.821 895.981 387.409L893.756 382.642C891.014 376.766 890.515 370.09 892.352 363.872V363.872C894.05 358.123 893.755 351.968 891.515 346.408L885.505 331.496C884.241 328.358 883.253 325.115 882.554 321.805L879.524 307.464C878.046 300.469 875.288 293.808 871.389 287.816L860.023 270.351M896.659 426.582L884.014 439.551C864.354 459.714 862.018 491.085 878.475 513.937L894.425 536.085M896.659 426.582C907.379 442.924 899.637 506.393 894.425 536.085M894.425 536.085L862.602 619.371C855.932 636.828 841.259 650.002 823.186 654.759L809.687 658.312M655.613 422.373L653.456 421.043C650.881 419.455 647.97 418.493 644.956 418.233L640.874 417.881C636.648 417.517 632.921 414.967 631.05 411.16V411.16C628.353 405.674 621.989 403.059 616.214 405.065L611.28 406.779C605.411 408.818 602.005 414.934 603.362 420.997V420.997C604.358 425.444 602.797 430.076 599.313 433.013L593.448 437.958C592.095 439.099 590.439 439.821 588.682 440.036L586.661 440.284C582.242 440.825 579.319 445.145 580.461 449.448V449.448C581.247 452.413 580.106 455.555 577.6 457.324L574.356 459.614C570.837 462.098 566.009 461.519 563.177 458.273V458.273C559.963 454.588 554.295 454.415 550.861 457.896L543.164 465.7C539.945 468.964 538.568 473.619 539.494 478.109L540.442 482.7C541.063 485.709 543.531 487.989 546.58 488.37V488.37C550.734 488.89 553.564 492.841 552.718 496.941L551.528 502.706C551.064 504.955 551.223 507.288 551.987 509.453L552.42 510.679M552.88 583.399L573.22 573.313M552.88 583.399L557.915 594.121M552.88 583.399L542.71 582.391M599.775 621.411L579.948 575.771C578.822 573.178 575.753 572.057 573.22 573.313V573.313M599.775 621.411V621.411C585.928 626.764 570.299 620.495 563.989 607.057L557.915 594.121M599.775 621.411L611.344 623.89M611.344 623.89L612.237 622.629C613.759 620.481 616.588 619.711 618.988 620.791V620.791M611.344 623.89V623.89C614.21 625.733 618.041 624.262 618.938 620.974L618.988 620.791M513.081 648.023L529.816 634.241C530.199 633.926 530.557 633.58 530.884 633.207L532.195 631.718C535.199 628.304 540.519 628.304 543.523 631.718V631.718C544.688 633.042 546.281 633.916 548.023 634.188L548.406 634.248C552.813 634.937 555.966 638.873 555.675 643.324L555.414 647.325C555.259 649.71 556.139 652.047 557.829 653.737L559.452 655.36C562.992 658.9 561.657 664.919 556.952 666.629V666.629C554.087 667.671 552.257 670.482 552.463 673.523L553.022 681.761C553.287 685.679 556.166 688.924 560.025 689.654V689.654C563.624 690.335 566.4 693.213 566.951 696.833L567.642 701.378C568.139 704.639 569.688 707.648 572.054 709.946L577.211 714.956C579.143 716.833 580.057 719.523 579.668 722.189L578.797 728.16C578.369 731.094 581.011 733.548 583.906 732.905V732.905C585.776 732.489 587.692 733.381 588.578 735.079L592.667 742.917C594.321 746.087 594.848 749.725 594.161 753.234L593.721 755.483C592.717 760.615 593.549 765.937 596.07 770.519L597.14 772.462M513.081 648.023L493.609 643.804C493.021 643.676 492.467 643.421 491.988 643.056V643.056C489.32 641.023 485.47 642.87 485.387 646.224L485.278 650.556C485.258 651.349 485.09 652.132 484.78 652.863L475.685 674.361C474.627 676.862 474.478 679.655 475.263 682.254V682.254C477.054 688.179 473.889 694.468 468.064 696.559L451.985 702.331L445.646 705.586C441.712 707.606 437.076 707.741 433.031 705.954V705.954C427.998 703.73 424.635 698.874 424.324 693.38L424.218 691.508C423.958 686.912 421.919 682.597 418.532 679.478L413.095 674.47C411.667 673.154 410.613 671.484 410.042 669.628V669.628C408.9 665.915 405.879 663.084 402.1 662.184L399.144 661.48M513.081 648.023L500.781 622.255M614.298 525.981V525.981C612.121 526.914 609.588 526.254 608.144 524.376L607.05 522.954C605.306 520.687 606.028 517.395 608.561 516.066V516.066M614.298 525.981V525.981C619.061 523.94 624.597 525.792 627.173 530.287L637.898 549.004C639.388 551.603 639.814 554.678 639.087 557.584V557.584C638.481 560.01 637.107 562.176 635.169 563.757L632.82 565.675M614.298 525.981L632.82 565.675M608.561 516.066L600.387 505.69C598.698 503.545 596.079 502.347 593.352 502.471L592.873 502.493C590.545 502.598 588.301 501.616 586.8 499.833V499.833C584.565 497.179 580.8 496.406 577.7 497.965L552.42 510.679M552.42 510.679V510.679C553.464 513.637 553.615 516.838 552.854 519.881L552.553 521.085M552.553 521.085L573.22 573.313M517.377 552.51L529.341 546.95C535.611 544.035 543.069 546.417 546.49 552.426L548.404 555.788C550.701 559.825 549.56 564.947 545.765 567.625V567.625C543.079 569.521 541.637 572.728 542 575.995L542.71 582.391M517.377 552.51L533.129 585.314M542.71 582.391L533.129 585.314M533.129 585.314V585.314C534.22 587.313 533.545 589.816 531.598 590.996L512.379 602.644C510.176 603.979 507.302 603.142 506.16 600.833V600.833M484.787 557.622L469.167 564.624M484.787 557.622L506.16 600.833M469.167 564.624L470.159 568.583C470.548 570.139 469.566 571.706 467.996 572.033V572.033C465.362 572.582 464.945 576.17 467.365 577.349V577.349C468.262 577.786 468.869 578.666 468.954 579.661L469.481 585.849C469.611 587.383 468.325 588.662 466.792 588.523V588.523C464.825 588.344 463.452 590.428 464.392 592.164L478.638 618.478M478.638 618.478L506.16 600.833M478.638 618.478L462.195 626.699M462.195 626.699V626.699C466.679 632.899 474.98 634.961 481.844 631.58L500.781 622.255M462.195 626.699L457.273 630.347C456.315 631.057 455.105 631.339 453.932 631.126L453.108 630.976C450.941 630.582 448.933 632.211 448.87 634.412V634.412C448.82 636.153 447.53 637.608 445.808 637.866L439.224 638.854C437.403 639.127 435.674 639.831 434.18 640.908L430.066 643.874C428.462 645.03 426.576 645.732 424.607 645.906V645.906C422.037 646.133 419.628 647.257 417.804 649.081L417.715 649.17C415.752 651.133 413.118 652.308 410.347 652.471V652.471C406.517 652.697 403.025 654.825 401.092 658.139L399.144 661.48M557.915 594.121L500.781 622.255M597.14 772.462L596.633 772.982C591.994 777.747 585.029 779.42 578.732 777.282L576.625 776.566C573.467 775.494 570.007 775.773 567.063 777.337V777.337C563.408 779.279 559.014 779.216 555.416 777.172L546.78 772.265M546.78 772.265L546.854 770.893C547.18 764.866 542.733 759.638 536.732 758.991L530.814 758.354C528.186 758.071 526.231 755.796 526.346 753.156V753.156C526.422 751.395 525.567 749.723 524.094 748.754L516.617 743.835C514.896 742.702 513.352 741.32 512.037 739.733L506.697 733.288C505.274 731.57 504.353 729.492 504.038 727.283L503.785 725.512C503.079 720.571 498.848 716.902 493.857 716.902V716.902C491.638 716.902 489.481 717.638 487.725 718.995L484.966 721.126C483.846 721.992 483.084 723.24 482.826 724.632V724.632C482.178 728.13 478.544 730.209 475.201 728.993L469.767 727.017C466.032 725.659 461.846 726.735 459.229 729.726V729.726C457.6 731.588 455.317 732.751 452.853 732.975L445.372 733.655C443.492 733.826 441.891 735.094 441.294 736.885V736.885C440.543 739.137 438.245 740.49 435.911 740.052L433.154 739.535M546.78 772.265L515.327 770.384C509.146 770.015 503.065 768.658 497.313 766.365L493.175 764.716C490.099 763.49 486.923 762.529 483.682 761.845L469.132 758.773C461.737 757.211 454.719 754.219 448.471 749.965L433.154 739.535M435.912 346.129L446.854 347.102C449.512 347.338 452.125 347.941 454.617 348.895L465.514 353.066C470.289 354.893 473.415 359.509 473.339 364.622V364.622C473.251 370.517 468.953 375.503 463.136 376.459L455.726 377.677C453.794 377.995 451.827 378.042 449.882 377.819L444.302 377.179M318.909 258.304L318.882 257.886C318.42 250.781 323.319 244.444 330.311 243.102V243.102M330.311 243.102L333.286 245.507C336.925 248.449 341.745 249.49 346.274 248.311V248.311M346.274 248.311V248.311C353.687 246.382 361.522 246.876 368.633 249.72L380.633 254.52L383.887 255.789M383.887 255.789L387.585 346.082M348.837 367.753L343.526 370.151C340.53 371.504 337.101 371.527 334.087 370.215V370.215C330.758 368.765 326.592 368.876 325.063 372.169C322.753 377.142 323.102 384.683 324.119 390.764C324.724 394.38 327.777 396.972 331.414 397.437L334.333 397.809C337.776 398.249 340.912 395.782 341.295 392.333V392.333C341.636 389.26 344.185 386.906 347.276 386.809L362.588 386.331C365.502 386.239 367.862 383.936 368.024 381.025V381.025M348.837 367.753L356.4 368.122C363.184 368.453 368.4 374.244 368.024 381.025V381.025M348.837 367.753V367.753C347.855 359.899 354.971 353.41 362.836 354.298C367.847 354.863 371.941 355.314 372.261 355.314V355.314C377.908 355.313 381.774 361.127 380.793 366.688L377.452 385.619C377.064 387.816 375.176 389.432 372.945 389.474V389.474C370.409 389.523 368.299 387.538 368.192 385.004L368.024 381.025M382.227 393.057L378.025 394.374L369.172 397.718C364.602 399.445 360.268 401.742 356.274 404.555L347.31 410.867C340.813 415.442 333.446 418.633 325.666 420.243L297.235 426.125M382.227 393.057L402.033 386.853C405.336 385.819 408.827 385.532 412.254 386.015L425.27 387.848C429.079 388.385 432.716 386.081 433.859 382.408V382.408C434.98 378.808 438.502 376.513 442.248 376.943L444.302 377.179M269.962 572.268V572.268C272.087 573.225 273.84 574.852 274.952 576.9L285.687 596.674L317.021 643.125C320.655 648.513 327.193 651.158 333.55 649.813L337.382 649.002C339.1 648.639 340.602 647.603 341.552 646.125L342.742 644.274C344.398 641.697 348.012 641.309 350.178 643.475V643.475C351.418 644.715 353.235 645.181 354.918 644.69L355.314 644.574C358.009 643.788 360.863 645.159 361.935 647.753L371.386 670.635C372.127 672.429 373.024 674.154 374.068 675.791L400.154 716.706C402.447 720.302 405.357 723.466 408.75 726.051V726.051M269.962 572.268L275.509 588.683C276.99 593.066 278.991 597.256 281.467 601.164L305.573 639.197C307.396 642.073 309.468 644.783 311.767 647.295L352.583 691.916C354.657 694.183 356.955 696.234 359.443 698.037L401.105 728.235C403.758 730.158 407.513 729.086 408.75 726.051V726.051M408.75 726.051L417.061 732.383C421.794 735.99 427.305 738.439 433.154 739.535V739.535M546.349 286.462L552.512 284.9C559.421 283.149 563.045 275.555 560.06 269.082V269.082M560.06 269.082V269.082C562.543 270.097 565.314 268.485 565.657 265.825L567.017 255.285L569.237 235.705C569.618 232.346 568.992 228.95 567.437 225.949L564.312 219.915C563.163 217.695 560.829 216.346 558.332 216.458L556.506 216.54C551.942 216.744 549.595 222.094 552.535 225.591V225.591C553.905 227.22 554.214 229.492 553.329 231.428L552.216 233.863C551.238 236.003 551.067 238.425 551.735 240.681L554.295 249.32C554.608 250.376 554.559 251.506 554.138 252.524C554.095 252.627 554.052 252.732 554.008 252.838C552.31 256.926 555.964 267.406 560.06 269.082V269.082ZM444.302 377.179L471.45 457.574L476.644 484.264M613.364 451.231V451.231C607.266 456.067 608.78 467.968 601.84 471.489L599.783 472.533C594.492 475.217 588.026 473.367 584.956 468.29V468.29C582.526 464.272 582.826 459.173 585.708 455.467L585.796 455.354C586.789 454.078 588.038 453.024 589.464 452.262L618.033 436.984C619.983 435.941 622.397 436.415 623.808 438.117V438.117C625.73 440.434 624.983 443.953 622.358 445.428C619.325 447.132 615.86 449.252 613.364 451.231ZM573.336 391.62L568.419 396.633C564.569 400.559 563.543 406.454 565.841 411.449V411.449C567.326 414.676 567.452 418.364 566.192 421.685L562.524 431.356C560.475 436.757 556.628 441.288 551.63 444.184L540.367 450.712C537.688 452.264 534.316 451.92 532.007 449.858V449.858C529.831 447.915 529.051 444.846 530.035 442.1L550.938 383.792C552.648 379.021 557.022 375.717 562.079 375.376L565.749 375.129C571.841 374.718 576.797 379.965 576.039 386.024V386.024C575.775 388.135 574.826 390.101 573.336 391.62ZM500.636 157.623L499.975 158.463C498.769 159.996 496.58 160.327 494.974 159.221V159.221C492.944 157.821 492.828 154.863 494.743 153.309L495.573 152.636C496.663 151.751 498.169 151.586 499.425 152.214V152.214C501.45 153.226 502.036 155.843 500.636 157.623ZM537.743 169.977V169.977C536.374 171.767 533.793 172.065 532.051 170.634L531.946 170.548C530.078 169.012 529.999 166.18 531.778 164.542V164.542C533.229 163.207 535.439 163.134 536.974 164.372L537.08 164.458C538.761 165.813 539.055 168.261 537.743 169.977ZM579.873 525.196L592.338 548.004C594.578 552.101 593.015 557.239 588.872 559.395V559.395C584.713 561.559 579.587 559.868 577.532 555.653L566.145 532.288C564.529 528.973 565.48 524.978 568.417 522.748V522.748C572.181 519.889 577.606 521.049 579.873 525.196ZM561.134 481.127V481.127C560.166 483.655 557.324 484.91 554.805 483.922L554.656 483.863C552.064 482.847 550.859 479.863 552.018 477.332V477.332C552.861 475.489 554.762 474.366 556.783 474.516L556.943 474.527C560.198 474.769 562.3 478.079 561.134 481.127ZM579.805 468.139V468.139C580.168 471.405 576.947 473.896 573.878 472.725L573.632 472.631C570.966 471.613 569.95 468.373 571.557 466.016V466.016C572.91 464.031 575.601 463.492 577.614 464.8L577.835 464.944C578.937 465.66 579.66 466.833 579.805 468.139ZM624.323 466.341L624.682 466.018C632.864 458.679 645.48 459.498 652.645 467.833V467.833C659.812 476.17 658.73 488.778 650.19 495.704C648.015 497.469 645.882 499.191 643.911 500.774C637.576 505.859 630.789 504.891 625.752 498.518L621.977 493.743C615.4 485.422 616.428 473.422 624.323 466.341Z" stroke="#7481A1" stroke-width="1.5"/>
<path d="M378.41 752.482C277.656 687.058 211.016 573.543 211.016 444.462C211.016 241.776 375.325 77.4668 578.011 77.4668C780.697 77.4668 945.007 241.776 945.007 444.462C945.007 647.148 780.697 811.457 578.011 811.457C522.302 811.457 479.683 803.638 432.387 781.428" stroke="#7481A1" stroke-width="1.5"/>
<path d="M389.833 742.737C290.396 680.729 224.336 571.144 224.336 446.301C224.336 252.895 382.881 96.1074 578.456 96.1074C774.031 96.1074 932.576 252.895 932.576 446.301C932.576 639.708 774.031 796.496 578.456 796.496C526.326 796.496 476.828 785.357 432.262 765.354" stroke="#7481A1" stroke-width="1.5"/>
</svg>
