<svg width="1081" height="1081" viewBox="0 0 1081 1081" fill="none" xmlns="http://www.w3.org/2000/svg">
<path d="M406.301 753.168C408.125 753.534 410.225 753.955 412.319 754.375C419.798 755.876 427.567 756.092 434.825 753.743C440.113 752.031 445.17 749.805 446.726 747.373C449.487 743.059 441.04 736.44 436.471 733.67M406.301 753.168C408.548 752.768 410.356 752.459 411.863 752.17M406.301 753.168C405.832 753.553 405.465 757.622 405.42 760.811M544.678 723.341C541.744 724.319 520.23 718.451 517.296 717.718C514.362 716.984 503.605 720.163 499.693 721.385C495.782 722.607 462.532 718.94 456.175 718.451C455.436 718.394 454.634 718.536 453.776 718.847M544.678 723.341L541.108 725.928C533.751 731.259 525.121 734.654 516.124 733.387V733.387C506.804 732.074 465.452 767.518 462.039 767.124C459.308 766.809 449.399 771.8 444.785 774.334M544.678 723.341C545.797 722.968 547.271 722.488 548.816 722.092M578.906 732.876C572.06 729.453 557.831 722.412 555.68 721.63C554.016 721.025 551.323 721.449 548.816 722.092M578.906 732.876C584.284 724.482 595.161 715.152 604.276 711.114M578.906 732.876C578.906 732.876 576.845 753.56 575.013 778.277M604.276 711.114C605.812 675.032 608.208 618.72 608.208 618.72M604.276 711.114C610.361 711.791 617.082 712.002 623.198 711.707M601.4 754.709C601.761 741.696 605.554 750.723 605.799 743.877C605.942 739.861 614.158 738.054 621.518 737.376M601.4 754.709L605.807 766.048M601.4 754.709C601.333 757.103 601.103 763.518 600.768 772.489M444.785 774.334C444.785 774.334 406.436 765.318 405.746 764.628C405.485 764.367 405.393 762.752 405.42 760.811M444.785 774.334C444.785 774.334 441.709 781.221 439.777 786.287M438.141 791.996C438.327 791.062 439.06 788.165 439.777 786.287M438.141 791.996L393.8 791.957C390.664 791.955 388.101 789.453 388.023 786.318V786.318M438.141 791.996C437.577 794.816 470.939 791.902 483.1 791.206M487.491 790.942V790.942C487.972 782.534 495.052 776.032 503.471 776.268L531.683 777.061M487.491 790.942L574.011 792.651M487.491 790.942C487.491 790.942 485.823 791.05 483.1 791.206M575.013 778.277L531.683 777.061M575.013 778.277C571.859 773.619 563.476 761.919 555.174 752.386C546.872 742.854 536.054 764.864 531.683 777.061M575.013 778.277C574.666 782.961 574.327 787.79 574.011 792.651M436.471 733.67C433.45 736.755 430.293 739.956 427.082 742.899C419.377 749.963 418.767 750.847 411.863 752.17M436.471 733.67C437.21 732.915 437.941 732.168 438.662 731.432M608.208 618.72V608.834M608.208 618.72C608.208 618.72 572.53 623.179 556.836 625.187M608.208 608.834V602.599C608.208 600.683 609.772 599.136 611.688 599.156V599.156M608.208 608.834C608.208 608.834 568.053 614.17 553.131 615.935M623.198 711.707C625.236 711.609 627.074 711.484 628.536 711.361C629.486 711.281 629.304 722.149 629.06 729.768C628.93 733.837 625.572 737.002 621.518 737.376V737.376M623.198 711.707L623.836 615.061M623.896 606.019V606.019C623.92 602.296 620.93 599.254 617.207 599.214L611.688 599.156M623.896 606.019L628.48 605.683C628.937 605.649 629.388 605.558 629.823 605.41L629.904 605.383C632.553 604.484 635.446 605.791 636.522 608.374V608.374C637.155 609.893 637.038 611.64 636.224 613.07V613.07C634.911 615.377 632.106 616.436 629.611 615.528L628.831 615.245C627.965 614.93 627.041 614.805 626.123 614.878L623.836 615.061M623.896 606.019L623.836 615.061M621.518 737.376L620.405 762.067M615.594 766.922L618.539 765.176C619.646 764.521 620.347 763.352 620.405 762.067V762.067M615.594 766.922L605.807 766.048M615.594 766.922L615.876 769.553C616.029 770.986 616.811 772.277 618.011 773.077L618.754 773.573C620.266 774.58 620.847 776.521 620.137 778.194V778.194M605.807 766.048V766.048C606.104 769.112 604.006 771.893 600.979 772.45L600.768 772.489M600.768 772.489C600.578 777.588 600.354 783.512 600.106 789.992M600.106 789.992L617.829 789.76C621.325 789.714 623.1 785.536 620.707 782.987V782.987C619.617 781.826 619.315 780.131 619.937 778.665L620.137 778.194M600.106 789.992C600.063 791.108 600.02 792.241 599.976 793.389M620.137 778.194L644.775 778.465C653.159 778.557 659.962 785.277 660.157 793.66V793.66M660.157 793.66L662.953 816.378M660.157 793.66L599.976 793.389M660.157 793.66L749.536 793.67M662.953 816.378L599.111 815.845M662.953 816.378L750.499 817.039M599.111 815.845C599.415 808.003 599.707 800.413 599.976 793.389M599.111 815.845C598.977 819.322 598.84 822.847 598.702 826.395M574.011 792.651C573.481 800.836 573.017 809.11 572.696 816.933M439.777 786.287L432.278 781.916C427.085 778.889 421.216 777.21 415.208 777.032V777.032C408.753 776.841 402.366 778.388 396.715 781.512L389.712 785.384M388.023 786.318V786.318C384.35 786.652 381.339 789.37 380.632 792.989L379.146 800.595M388.023 786.318L389.712 785.384M378.303 804.912L477.013 806.371C480.361 806.421 483.102 803.72 483.101 800.371L483.1 791.206M378.303 804.912V804.912C378.354 811.173 383.432 816.228 389.693 816.251L572.696 816.933M378.303 804.912L379.146 800.595M572.696 816.933C572.56 820.253 572.449 823.492 572.369 826.608M749.536 793.67C750.058 790.918 750.487 787.731 750.729 784.313M749.536 793.67L750.499 817.039M727.935 712.885V712.885C724.542 713.369 722.106 716.402 722.363 719.82L722.911 727.097M727.935 712.885L725.437 600.361M727.935 712.885C730.68 715.812 738.043 719.912 746.312 714.047M762.655 920.451C773.816 922.931 777.076 914.238 777.469 907.58M762.655 920.451C756.752 919.139 751.698 913.186 747.682 905.905M762.655 920.451C764.204 919.582 767.303 916.801 767.303 912.62C767.303 908.439 764.575 808.92 763.211 759.683M738 879.523L755.933 894.25C756.693 894.874 757.802 894.143 757.528 893.199L752.994 877.582M738 879.523V879.523C731.005 873.777 726.632 888.705 726.722 897.757L726.802 905.761M738 879.523C739.488 886.353 742.826 897.1 747.682 905.905M738 879.523L752.994 877.582M752.994 877.582L750.948 827.917M728.455 740.846V740.846C725.906 740.425 723.767 738.477 723.573 735.901L722.911 727.097M728.455 740.846L728.947 762.723C728.987 764.525 729.721 766.242 730.995 767.516L734.092 770.613M728.455 740.846C743.581 743.345 749.262 757.115 750.608 771.1M734.092 770.613L750.608 771.1M734.092 770.613L731.314 775.073M750.729 784.313L729.264 784.119C727.703 784.105 726.759 782.387 727.584 781.062L731.314 775.073M750.729 784.313C751.024 780.133 751.041 775.605 750.608 771.1M731.314 775.073L678.112 774.845C673.422 774.825 668.751 774.236 664.202 773.091L651.606 769.92M620.405 762.067L651.606 769.92M773.523 771.744C772.711 759.65 771.777 751.858 770.718 751.36C767.789 749.982 765.647 740.337 764.435 732.208C763.749 727.603 761.39 723.37 757.633 720.619L748.626 714.025C747.939 713.522 747.005 713.555 746.312 714.047V714.047M773.523 771.744C777.117 778.416 784.305 793.983 784.305 802.876M773.523 771.744C774.087 780.157 774.592 790.652 775.039 802.223M784.305 802.876L775.039 802.223M784.305 802.876L794.31 823.996M784.305 802.876C792.508 805.749 806.551 809.787 821.813 812.476M775.039 802.223C775.367 810.736 775.664 819.83 775.929 829.107M794.31 823.996L775.929 829.107M794.31 823.996L794.709 863.608C794.772 869.867 789.608 874.917 783.352 874.713L776.982 874.506M775.929 829.107C776.365 844.342 776.715 860.066 776.982 874.506M776.982 874.506C777.186 885.492 777.34 895.734 777.447 904.451C777.52 905.394 777.535 906.458 777.469 907.58M750.499 817.039L750.948 827.917M453.776 718.847C451.507 719.67 448.842 721.68 445.894 724.351M453.776 718.847C450.988 716.217 443.187 711.642 432.603 712.219M411.863 752.17C412.603 753.285 412.994 753.857 410.478 750.005M438.662 731.432C428.858 728.964 409.494 729.223 410.478 750.005M438.662 731.432C441.205 728.841 443.633 726.401 445.894 724.351M410.478 750.005C409.605 748.668 408.382 746.799 406.702 744.235C406.257 743.556 405.88 742.865 405.568 742.164M445.894 724.351C433.886 721.304 409.009 720.601 405.568 742.164M405.568 742.164C404.463 739.683 404.167 737.085 404.522 734.499M432.603 712.219C431.393 712.285 430.147 712.419 428.868 712.63C417.142 714.566 405.902 724.433 404.522 734.499M432.603 712.219C433.916 710.854 435.785 708.478 437.208 705.715C439.997 700.297 442.517 693.006 445.753 687.842V687.842C448.073 684.141 448.672 680.44 450.205 676.349C451.773 672.163 453.324 667.131 453.608 663.292C453.635 662.932 453.671 662.607 453.716 662.316C454.554 656.866 458.013 667.262 456.435 672.545V672.545M521.68 671.301L505.246 690.279C501.543 694.555 499.766 700.125 497.949 705.482V705.482M521.68 671.301C521.441 673.589 520.107 680.024 516.675 687.46C512.384 696.756 506.396 705.771 497.949 705.482M521.68 671.301C522.633 664.15 522.767 648.762 515.674 644.415C506.807 638.981 478.778 616.672 472.771 617.387C470.034 617.712 467.013 617.342 464.505 616.805C461.481 616.157 458.711 614.731 455.988 613.265C451.002 610.582 444.745 607.566 443.169 608.091C440.594 608.949 427.867 607.948 426.151 609.664C424.435 611.38 418.285 617.387 417.141 618.96C416.38 620.006 396.949 627.318 383.688 632.475M497.949 705.482C496.106 710.919 492.383 716.628 485.499 718.636C471.77 722.64 457.183 698.043 453.894 696.47C451.263 695.211 453.942 681.835 455.61 675.305L456.435 672.545M356.505 683.027C357.092 682.074 357.358 676.994 357.46 672.001M356.505 683.027C348.004 686.635 326.786 693.621 309.929 692.701C288.857 691.552 277.176 692.481 264.722 677.266M356.505 683.027C355.857 684.081 353.415 688.72 351.449 693.062M368.947 730.792C357.935 727.217 348.925 703.62 348.782 700.76C348.75 700.111 349.071 698.939 349.6 697.493M368.947 730.792C370.234 736.417 373.866 747.753 378.099 748.096C382.332 748.439 393.833 757.103 399.054 761.393M368.947 730.792C371.338 714.63 376.332 679.713 377.182 669.34C378.032 658.968 371.932 648.211 368.775 644.129M368.947 730.792L397.991 724.234M399.054 761.393L405.42 760.811M399.054 761.393C396.873 763.602 393.608 767.831 391.497 772.85M389.712 785.384C388.916 781.113 389.86 776.744 391.497 772.85M456.435 672.545C461.069 668.247 470.906 658.175 473.178 652.266C475.451 646.358 480.312 635.411 482.458 630.676M414.089 649.047C412.132 653.529 407.877 664.501 406.514 672.531C404.809 682.568 408.786 683.326 407.082 685.788C405.378 688.25 399.128 698.666 399.317 702.265C399.385 703.548 399.229 706.834 398.991 710.625M397.991 724.234C399.043 727.527 401.821 734.19 404.522 734.499M397.991 724.234C402.032 722.719 411.249 717.946 415.794 710.977C416.253 710.272 416.59 709.615 416.82 709.005C419.797 701.097 405.12 704.808 398.991 710.625V710.625M397.991 724.234C398.271 720.839 398.695 715.341 398.991 710.625M469.322 669.084C479.402 669.195 499.029 672.726 496.89 685.959M418.696 660.897C423.486 659.616 434.067 658.691 438.077 665.241M459.13 630.154C461.135 634.999 464.476 647.597 461.803 659.226M418.696 637.004L415.856 643.854M368.775 644.129C370.153 640.628 371.143 637.977 371.522 637.551C371.905 637.12 377.015 635.07 383.688 632.475M368.775 644.129C367.049 648.515 364.715 654.235 362.21 658.589C359.859 662.674 357.557 667.289 357.46 672.001V672.001M379.146 800.595L374.46 800.566C366.471 800.516 359.054 804.706 354.973 811.573V811.573C352.84 815.162 351.747 819.273 351.817 823.448L351.867 826.446M351.867 826.446L572.369 826.608M351.867 826.446L352.784 867.818M572.369 826.608C572.345 827.566 572.323 828.513 572.305 829.446C572.047 842.529 572.294 858.558 572.681 873.055M598.702 826.395L750.948 827.917M598.702 826.395C598.078 842.449 597.432 858.951 596.866 873.359M311.625 933.889L400.398 935.133C406.551 935.219 412.49 932.875 416.925 928.61V928.61C421.645 924.072 424.245 917.763 424.092 911.218L423.78 897.784M311.625 933.889L317.912 916.36C319.6 911.654 324.029 908.488 329.028 908.413L377.125 907.693M311.625 933.889L311.191 999.111M423.78 897.784L423.619 890.847C423.544 887.66 422.454 884.58 420.507 882.055V882.055C417.702 878.419 413.383 876.273 408.791 876.233L384.512 876.02M423.78 897.784V897.784C416.654 903.845 407.641 907.236 398.288 907.376L377.125 907.693M349.6 697.493C335.363 694.843 306.954 714.454 300.736 742.068M349.6 697.493C350.081 696.179 350.734 694.64 351.449 693.062M352.784 867.818L352.852 870.898C352.912 873.599 355.106 875.764 357.807 875.787L384.512 876.02M352.784 867.818C325.459 861.483 314.384 842.424 307.667 826.046M836.228 1003.73C826.123 1006.48 805.117 1010.59 801.932 1004.95C799.806 1001.19 793.464 999.586 787.722 999.026C783.234 998.589 779.065 996.015 777.391 991.828V991.828C776.08 988.551 777.079 984.84 777.078 981.31C777.078 978.9 775.983 976.746 774.539 975.005C772.09 972.052 768.081 971.213 764.247 971.104L726.104 970.014C719.915 969.837 714.004 967.403 709.485 963.171L698.738 953.107C697.81 952.238 696.452 952.008 695.291 952.525V952.525C693.444 953.345 692.829 955.663 694.027 957.291L696.217 960.267C699.241 964.376 696.221 970.166 691.121 970.038L605.956 967.902L513.173 970.046L403.591 970.934C401.118 970.954 398.653 971.202 396.226 971.674L370.065 976.76C368.129 977.137 366.669 978.738 366.473 980.701V980.701C366.301 982.421 367.33 984.033 368.034 985.612C369.162 988.142 368.426 992.5 360.985 998.523C348.124 1008.93 347.206 1005.87 339.856 1005.87C332.507 1005.87 333.12 1022.41 330.058 1018.12C328.126 1015.42 320.74 1015.58 315.099 1016.27C313.005 1016.53 311.085 1014.93 311.1 1012.82V1012.82M836.228 1003.73L848.87 1005.5C850.616 1005.74 851.884 1005.69 853.543 1005.09V1005.09C859.195 1003.06 865.324 997.615 865.331 991.61L865.34 982.327M836.228 1003.73L835.952 982.31M777.469 907.58L805.275 908.171C821.855 908.523 835.173 921.953 835.387 938.535V938.535M835.387 938.535C835.387 938.525 775.497 937.11 740.365 936.282C736.44 936.189 732.754 934.421 730.218 931.425V931.425C728.151 928.981 727.002 925.893 726.97 922.693L726.802 905.761M835.387 938.535L835.952 982.31M726.802 905.761L747.682 905.905M763.211 759.683C760.682 748.362 754.611 725.863 750.565 726.441C748.318 726.762 744.558 726.355 740.976 725.765C737.28 725.156 733.819 728.064 734.053 731.804V731.804C734.203 734.208 735.888 736.22 738.153 737.042C746.779 740.173 759.737 747.522 763.211 759.683ZM596.866 873.359C596.766 875.913 596.668 878.401 596.574 880.809C596.423 884.643 601.33 886.354 603.595 883.256V883.256C605.61 880.501 609.945 881.496 610.555 884.855L610.721 885.765C610.923 886.879 610.677 888.028 610.034 888.96L600.476 902.84M596.866 873.359L622.987 874.916C625.552 875.069 628.123 875.781 629.921 877.618V877.618M572.681 873.055L526.878 873.546C524.026 873.576 521.259 874.523 518.986 876.245V876.245C515.709 878.727 513.764 882.584 513.716 886.695L513.663 891.246M572.681 873.055C572.987 884.503 573.381 894.996 573.684 902.328M629.921 877.618C631.937 879.677 633.912 882.665 633.97 886.155C634.043 890.506 633.828 905.826 633.644 917.068C633.569 921.623 631.532 925.919 628.06 928.868V928.868C625.215 931.284 621.61 932.619 617.878 932.638L527.878 933.107C524.401 933.125 521.033 931.889 518.393 929.626V929.626C515.143 926.841 513.294 922.758 513.344 918.479L513.663 891.246M629.921 877.618L630.398 887.649C630.629 892.516 628.367 897.167 624.394 899.99V899.99C622.026 901.672 619.202 902.594 616.297 902.632L600.476 902.84M600.476 902.84L596.213 909.03C593.552 912.893 588.936 914.922 584.29 914.268V914.268C578.405 913.439 573.942 908.549 573.696 902.611C573.692 902.517 573.688 902.423 573.684 902.328M573.684 902.328L534.172 902.707C525.788 902.788 517.988 898.428 513.663 891.246V891.246M311.191 999.111L295.814 1012.92M311.191 999.111L311.1 1012.82M295.814 1012.92C281.055 1013.3 250.175 1013.19 244.726 1009.71C239.276 1006.23 223.534 1005.1 216.344 1004.98M295.814 1012.92C297.122 1014.66 300.514 1018.25 303.616 1018.71C306.719 1019.17 309.898 1014.97 311.1 1012.82M725.437 600.361L743.686 600.734M725.437 600.361V600.361C725.852 596.83 728.992 594.264 732.534 594.56L738.849 595.086C741.736 595.326 743.892 597.844 743.686 600.734V600.734M743.686 600.734L746.203 709.346M746.312 714.047L746.203 709.346M865.517 814.187C852.628 816.429 836.645 815.089 821.813 812.476M865.517 814.187L857.937 748.33M865.517 814.187L865.34 982.327M821.813 812.476C821.574 809.819 812.814 793.272 809.439 777.497M839.933 696.688C840.407 708.059 818.139 739.329 810.084 756.385C809.188 758.283 808.632 760.404 808.352 762.681M839.933 696.688C839.554 687.591 837.564 674.893 836.616 669.682M839.933 696.688L857.937 748.33M836.616 669.682L811.893 688.997M836.616 669.682L863.149 596.718M808.352 762.681L806.505 700.473C806.372 696.008 808.373 691.747 811.893 688.997V688.997M808.352 762.681C807.798 767.186 808.326 772.3 809.439 777.497M811.893 688.997L811.341 673.275C811.141 667.584 812.932 662.001 816.404 657.486V657.486M863.149 596.718L816.404 657.486M863.149 596.718L860.78 560.711M816.404 657.486C813.981 647.496 811.979 623.724 823.35 608.563C834.721 593.402 853.041 570.344 860.78 560.711M860.78 560.711L863.428 467.006M818.612 759.701C828.088 759.07 849.219 755.911 857.937 748.33M671.254 286.867C676.102 288.9 687.955 292.872 696.586 292.497C707.376 292.027 710.66 286.867 720.98 290.62C731.3 294.373 729.424 299.533 741.621 299.533C753.817 299.533 773.52 293.435 789 297.657C804.481 301.879 842.009 307.977 847.639 313.137V313.137C856.553 321.308 864.024 331.523 863.971 343.616L863.428 467.006M671.254 286.867C677.197 291.246 691.145 308.352 695.648 321.112C701.277 337.062 718.165 357.702 714.412 388.663C713.69 394.623 713.489 399.748 713.625 404.336M671.254 286.867C672.033 278.835 673.063 261.955 670.953 258.693C668.315 254.617 665.677 244.785 666.157 240.948C666.636 237.111 663.279 226.799 661.6 222.243M671.254 286.867C670.435 293.783 668.171 308.429 665.677 311.69M641.701 506.409C670.638 512.743 693.659 530.786 713.608 546.079C716.558 548.34 720.827 546.654 721.387 542.981C728.244 498.034 718.241 481.927 719.573 455.746C720.709 433.396 714.198 423.588 713.625 404.336M641.701 506.409C641.141 510.962 639.066 519.822 634.701 528.49C630.588 536.656 621.259 539.728 612.115 539.797V539.797M641.701 506.409C643.724 490.867 647.637 460.47 649.646 444.843M665.677 311.69C674.83 327.479 655.475 415.057 651.573 432.156C651.128 434.108 650.777 436.046 650.522 438.031C650.306 439.713 650.007 442.04 649.646 444.843M665.677 311.69V311.69C663.33 315.124 661.893 319.08 661.104 323.164C660.268 327.487 659.025 332.35 657.478 334.825C655.063 338.688 650.993 342.572 649.26 344.031M558.175 561.706C558.175 561.706 586.46 555.448 595.514 552.693C604.567 549.937 600.237 542.065 604.961 540.49C606.398 540.011 609.059 539.821 612.115 539.797M558.175 561.706L553.131 615.935M558.175 561.706C558.175 561.706 571.831 548.493 586.195 535.095M649.646 444.843L637.4 479.756C636.507 482.301 635.272 484.714 633.73 486.927V486.927C630.249 491.922 627.647 497.977 623.417 502.356C621.485 504.356 618.869 506.677 615.372 509.277C611.802 511.933 605.882 517.08 599.172 523.151M553.131 615.935C550.481 616.249 548.627 616.449 547.934 616.488C547.544 616.51 547.172 616.559 546.819 616.632C540.826 617.882 544.102 626.893 550.167 626.055V626.055C551.216 625.91 553.602 625.601 556.836 625.187M556.836 625.187C554.636 633.495 549.712 651.941 547.621 659.257C545.009 668.401 552.169 692.001 550.756 701.047C549.625 708.284 548.992 718.093 548.816 722.092M599.172 523.151C594.458 518.589 583.584 509.511 577.805 509.692C573.373 509.831 567.922 511.329 563.224 512.205M599.172 523.151C595.939 526.076 592.523 529.216 589.098 532.395M429.039 366.339C431.085 367.462 432.703 369.336 433.974 371.644M429.039 366.339C416.284 367.492 396.413 369.52 379.927 371.718M429.039 366.339C430.907 374.558 431.294 392.464 417.898 398.337C404.502 404.209 387.002 383.037 379.927 371.718M351.434 377.425C352.578 376.51 356.487 375.497 362.082 374.458M351.434 377.425L347.698 365.846M351.434 377.425C349.692 378.819 349.304 380.856 349.654 383.045M354.62 392.844C357.059 396.325 361.582 401.978 365.798 405.359C369.445 408.283 374.428 408.389 379.091 408.701C379.362 408.719 379.636 408.737 379.912 408.755M354.62 392.844L348.779 393.349M354.62 392.844C352.775 390.604 350.227 386.622 349.654 383.045M384.883 409.025C391.012 409.296 397.453 409.338 401.38 408.724C418.937 406.266 438.63 401.953 438.176 396.044C438.506 390.01 437.894 378.764 433.974 371.644M384.883 409.025L444.405 491.635C454.563 504.049 463.366 498.406 464.946 504.952C465.323 506.513 466.538 508.14 468.196 509.716M384.883 409.025C383.182 408.949 381.505 408.856 379.912 408.755M433.974 371.644C435.448 371.008 438.342 370.328 441.77 369.675M463.722 366.401C460.054 355.471 546.871 342.998 550.964 344.511M463.722 366.401C463.722 366.401 450.868 367.941 441.77 369.675M463.722 366.401C463.722 366.401 465.948 369.999 468.99 374.379M550.964 344.511C552.634 345.128 554.058 346.977 555.244 349.489M550.964 344.511L545.175 340.263M555.244 349.489L572.313 349.104M555.244 349.489C556.174 351.457 556.957 353.832 557.599 356.339M572.313 349.104V349.104C569.053 341.769 574.552 333.36 578.831 326.569L580.809 323.43M572.313 349.104L571.943 351.783M557.599 356.339V356.339C560.239 366.655 555.587 377.458 545.848 381.763C537.823 385.309 528.684 387.473 519.897 388.753M557.599 356.339L568.894 354.821C570.478 354.608 571.725 353.365 571.943 351.783V351.783M557.599 356.339C550.889 364.626 535.309 381.392 526.667 382.154C520.731 382.678 508.71 373.54 498.984 365.156C491.704 358.882 487.472 349.842 486.694 340.263V340.263M580.809 323.43L583.395 330.079M580.809 323.43L577.669 305.697M583.395 330.079L571.943 351.783M583.395 330.079L588.6 345.062C589.165 346.69 590.459 348.023 592.173 347.847V347.847M577.669 305.697V305.697C578.643 303.1 581.277 301.515 584.027 301.87L585.058 302.003M577.669 305.697L577.799 305.721C580.779 306.253 583.748 304.732 585.058 302.003V302.003M585.058 302.003C585.704 302.933 586.388 304.033 587.094 305.263M587.094 305.263C588.755 297.485 593.169 280.995 597.533 277.254C598.372 276.535 599.065 276.348 599.634 276.558M587.094 305.263C587.918 306.698 588.774 308.31 589.639 310.035M589.639 310.035C595.447 321.618 601.682 338.288 601.682 340.608C601.682 342.182 600.843 343.562 599.588 344.686M589.639 310.035L596.795 298.376C600.179 292.865 602.787 286.508 601.532 280.164V280.164M599.634 276.558C599.932 275.809 609.327 249.158 614.46 234.585C614.803 233.61 615.329 232.389 616.361 232.456V232.456M599.634 276.558C600.564 276.9 601.164 278.303 601.532 280.164M599.634 276.558C609.479 231.886 579.567 227.772 587.842 209.763C594.461 195.355 583.785 169.687 577.62 158.654L562.26 134.182C554.078 121.147 553.994 104.6 562.044 91.482V91.482M618.306 239.202C618.405 234.021 617.391 232.523 616.361 232.456M618.306 239.202V239.202C622.613 235.408 628.421 233.8 634.066 234.837L634.884 234.987M618.306 239.202L602.645 277.446M601.532 280.164L602.645 277.446M616.361 232.456V232.456C620.734 228.837 626.367 227.078 631.988 227.87L637.274 228.614M637.274 228.614L634.884 234.987M637.274 228.614C638.508 224.892 642.464 217.495 648.411 217.687C655.845 217.927 659.922 217.687 661.6 222.243M634.884 234.987L636.902 245.824M598.788 345.329C600.729 357.604 607.325 382.885 618.188 385.809C623.648 387.279 628.15 386.567 631.553 385.087C636.823 382.794 639.149 377.01 640.834 371.515L645.771 355.411M598.788 345.329C599.069 345.125 599.337 344.911 599.588 344.686M598.788 345.329C596.846 346.737 594.27 347.631 592.173 347.847M649.26 344.031L640.643 345.337M649.26 344.031L645.771 355.411M640.643 345.337C639.86 353.78 637.196 371.918 632.81 376.931V376.931C625.322 385.489 613.34 373.719 608.473 363.443L599.588 344.686M640.643 345.337C638.259 346.612 632.946 347.49 630.763 340.806C629.799 337.853 628.91 335.058 628.164 332.676M592.173 347.847L603.304 377.454C605.045 381.109 610.668 388.838 619.232 390.509C621.153 390.884 622.935 391.021 624.564 390.987M645.771 355.411C645.454 361.801 644.56 375.521 643.515 379.281C643.255 380.219 642.762 381.122 642.133 381.967C638.694 386.587 633.218 389.833 627.528 390.728C626.606 390.873 625.617 390.966 624.564 390.987M628.035 300.05L630.949 318.553C631.257 320.51 630.517 322.485 628.999 323.758V323.758C627.275 325.205 626.574 327.536 627.236 329.687C627.511 330.58 627.823 331.584 628.164 332.676M628.035 300.05L638.778 298.345C641.575 298.264 646.524 297.795 649.577 296.593M628.035 300.05C626.085 281.345 625.436 245.814 638.437 253.327M638.437 253.327C639.914 252.986 643.689 252.338 646.963 252.474C651.055 252.645 656.683 267.31 658.729 271.914C660.775 276.518 653.613 291.524 652.079 294.764C651.726 295.507 650.805 296.109 649.577 296.593M638.437 253.327L636.902 245.824M638.437 253.327C639.517 254.784 641.873 269.807 640.695 276.877C640.061 280.682 642.502 284.879 645.095 287.995C647.193 290.517 648.977 293.369 649.577 296.593V296.593M636.902 245.824C640.938 241.219 649.828 232.113 653.102 232.523C657.194 233.034 659.582 230.817 660.264 234.228C660.333 234.574 660.381 234.952 660.411 235.354C660.821 240.817 660.994 246.435 663.564 251.273V251.273C664.766 253.536 665.581 255.983 665.977 258.514L666.453 261.559C666.873 264.249 667.026 266.975 666.911 269.695L666.214 286.077C666.115 288.403 665.314 290.645 663.917 292.508L656.577 302.294C655.456 303.79 653.198 303.745 652.136 302.206V302.206C651.406 301.147 651.512 299.722 652.392 298.782L658.325 292.446C660.039 290.617 661.209 288.347 661.706 285.891L662.933 279.831C663.538 276.839 663.753 273.782 663.572 270.735L663.399 267.814C663.017 261.384 661.562 255.064 659.095 249.114L657.024 244.118M657.024 244.118L651.757 242.455C650.989 242.213 650.153 242.328 649.479 242.769L645.742 245.215C644.48 246.041 642.937 244.667 643.611 243.318V243.318C643.685 243.171 643.783 243.036 643.901 242.921L649.652 237.31C650.344 236.635 651.224 236.184 652.176 236.016L652.837 235.9C654.917 235.533 656.933 236.815 657.482 238.855V238.855C657.63 239.402 657.661 239.974 657.575 240.534L657.024 244.118ZM661.6 222.243L653.553 203.922L649.963 196.741C648.386 193.587 650.392 189.821 653.889 189.37V189.37C657.596 188.892 659.559 184.732 657.571 181.566L656.405 179.709C653.412 174.942 657.452 168.876 663.004 169.802L663.949 169.959C668.19 170.666 672.05 167.396 672.05 163.097V161.708C672.05 157.11 668.241 153.426 663.645 153.58L654.422 153.887C647.433 154.12 641.01 150.064 638.216 143.654L637.058 140.999C635.433 137.271 632.79 134.09 629.404 131.837C606.41 116.537 567.454 91.482 562.044 91.482M602.645 277.446C603.578 279.528 611.237 293.962 610.354 305.156C609.887 311.064 609.139 321.998 608.514 331.376C607.983 339.349 611.809 343.607 619.485 341.389V341.389C630.09 338.325 629.69 334.304 628.164 332.676M533.733 464.436C525.761 469.385 508.085 479.611 501.158 480.93C494.757 482.149 483.85 483.969 472.712 479.729M533.733 464.436L545.278 465.261M533.733 464.436L542.558 461.47C544.837 460.704 546.734 463.348 545.278 465.261V465.261M472.712 479.729C470.344 478.827 467.965 477.651 465.617 476.138C462.819 474.334 459.137 474.205 456.546 476.296V476.296C453.371 478.858 448.675 478.105 446.459 474.679L437.339 460.573C435.133 457.161 434.661 452.91 436.066 449.097V449.097C437.6 444.934 441.163 441.849 445.504 440.929L445.909 440.843M472.712 479.729V479.729C474.341 484.777 478.372 488.685 483.468 490.158L486.49 491.032C490.675 492.242 495.126 492.175 499.272 490.839L511.812 486.8C518.222 484.735 524.222 481.57 529.546 477.447L545.278 465.261M545.278 465.261L553.511 468.905C554.935 469.535 556.501 468.368 556.305 466.823L554.035 449.018M445.909 440.843C446.282 438.309 446.133 432.57 442.555 429.887C438.977 427.203 442.756 416.135 445.092 410.936C447.272 406.37 450.696 395.556 446.96 388.831C443.224 382.106 441.943 373.258 441.77 369.675M445.909 440.843C447.623 447.281 454.349 460.206 467.538 460.4C480.726 460.594 487.579 448.198 489.357 441.975C489.603 441.389 489.918 440.732 490.298 440.045M441.77 369.675C444.226 363.711 446.649 351.035 436.686 348.047C436.401 347.961 436.118 347.878 435.837 347.798C424.149 344.467 413.816 352.057 403.794 358.931C399.755 361.702 395.52 363.616 391.854 363.302M391.854 363.302C380.958 362.368 359.476 346.49 359.476 346.49M391.854 363.302L385.989 362.533C379.273 361.654 373.046 366.192 371.827 372.855V372.855M359.476 346.49C359.476 346.49 366.244 367.16 362.082 374.458M359.476 346.49C356.813 343.392 352.943 337.057 352.085 329.97M362.082 374.458C362.587 374.364 363.104 374.27 363.635 374.176M371.827 372.855C368.869 373.295 366.112 373.737 363.635 374.176M371.827 372.855C374.393 372.473 377.111 372.093 379.927 371.718M468.99 374.379C473.584 380.995 480.038 389.395 483.486 389.871C487.337 390.402 502.965 391.219 519.897 388.753M468.99 374.379L472.354 371.502M472.354 371.502V371.502C471.151 370.358 472.171 368.35 473.804 368.646L476.85 369.197C477.942 369.394 478.788 370.263 478.956 371.36L479.914 377.616C480.148 379.149 478.998 380.545 477.449 380.608V380.608C476.301 380.655 475.258 379.943 474.884 378.856L472.354 371.502ZM486.694 340.263L507.206 343.475C513.225 344.418 519.356 344.407 525.372 343.441L545.175 340.263M486.694 340.263C495.134 317.922 537.127 314.301 564.884 315.539C570.117 315.772 572.944 321.548 570.157 325.984V325.984C569.017 327.797 567.117 328.997 564.989 329.248L561.079 329.708C557.924 330.079 554.963 331.422 552.606 333.551L545.175 340.263M330.837 259.411C330.35 215.604 328.89 199.541 350.307 152.813C353.448 145.958 357.093 138.979 361.227 132.089M330.837 259.411L322.589 231.824C321.606 228.535 317.372 227.637 315.138 230.244V230.244C312.662 233.132 307.932 231.662 307.529 227.879L305.581 209.571C305.42 208.057 305.542 206.526 305.941 205.057L310.842 186.982C314.036 175.207 320.861 164.739 330.346 157.066L361.227 132.089M330.837 259.411C331.119 284.85 340.922 296.173 347.853 303.865M562.044 91.482C556.365 85.6409 532.157 71.9144 480.756 63.7369C425.93 55.0145 385.28 92.0134 361.227 132.089M347.853 303.865C352.859 309.419 356.367 313.08 353.714 318.795C351.997 322.494 351.644 326.331 352.085 329.97M347.853 303.865L345.616 329.47M345.616 329.47L348.85 329.72M345.616 329.47L342.46 357.587C342.354 358.53 343.499 359.075 344.164 358.398V358.398M352.085 329.97L348.85 329.72M348.85 329.72L350.212 357.735C350.263 358.776 348.989 359.316 348.275 358.556V358.556M344.164 358.398V358.398C345.27 357.272 347.09 357.293 348.169 358.443L348.275 358.556M344.164 358.398L343.755 365.382M343.755 365.382L347.698 365.846M343.755 365.382L339.608 382.597M347.698 365.846L348.275 358.556M339.608 382.597L337.316 383.87C333.782 385.834 334.216 391.049 338.027 392.401V392.401M339.608 382.597L349.654 383.045M338.027 392.401L348.779 393.349M338.027 392.401L337.775 394.73M348.779 393.349L347.111 412.805C346.98 414.332 345.724 415.518 344.192 415.56V415.56M363.635 374.176C362.331 375.963 360.302 380.116 362.612 382.425C364.921 384.735 375.108 400.941 379.912 408.755M448.573 293.288C448.403 306.117 450.663 332.847 461.063 337.129C471.463 341.412 478.651 341.293 480.945 340.698M438.123 311.64L442.201 331.777C443.305 337.809 448.369 349.364 459.789 347.325M419.515 286.66C419.685 294.562 420.331 310.366 421.555 310.365C423.084 310.365 424.613 311.895 424.868 314.189C425.123 316.483 423.084 332.796 428.182 337.384M591.678 151.903C595.434 154.215 604.333 163.865 609.88 183.974C615.428 204.083 616.814 215.466 616.814 218.645M607.569 144.102C611.421 150.266 620.05 165.425 623.749 176.751C627.447 188.076 628.757 197.457 628.949 200.731M627.794 157.104C633.228 162.799 644.361 175.798 645.418 182.24M502.448 433.248C496.976 430.926 492.532 436 490.298 440.045M502.448 433.248C508.848 435.963 497.015 438.911 490.298 440.045M502.448 433.248C505.842 432.844 512.339 428.932 511.176 416.52V416.52C510.383 408.067 511.062 408.147 516.385 414.762C525.693 426.331 538.789 439.957 550.339 444.552C552.262 445.317 553.774 446.965 554.035 449.018V449.018M344.192 415.56C349.209 427.101 362.03 452.877 373.171 463.653C387.097 477.123 406.378 504.867 468.196 509.716M344.192 415.56L337.785 415.738M468.196 509.716C469.8 511.241 471.819 512.719 473.893 514.044M473.893 514.044V514.044C479.094 517.367 484.129 521.021 489.093 524.689C502.934 534.914 516.323 533.424 526.567 532.264C531.926 531.657 537.331 527.426 542.111 523.042M473.893 514.044L438.017 510.165C424.575 507.044 403.401 500.264 390.009 488.561C374.548 475.05 350.883 452.796 337.785 415.738M337.785 415.738V415.738C336.575 415.772 335.613 414.73 335.743 413.526L337.775 394.73M337.775 394.73C335.078 394.168 329.1 394.712 326.764 401.387C323.844 409.73 326.764 410.564 325.095 418.908C323.426 427.251 316.96 420.994 315.083 432.674C313.206 444.355 313.623 490.035 311.954 493.79C310.286 497.544 304.028 511.937 304.862 517.151C305.697 522.366 305.037 542.164 301.113 550.884C298.115 557.546 283.476 614.856 275.584 646.449C274.872 649.3 274.544 652.208 274.418 655.143V655.143M261.012 690.406C260.252 698.384 260.026 723.059 259.96 738.848C259.929 746.517 266.114 752.744 273.748 752.014C284.347 751.001 297.67 748.454 300.736 742.068M261.012 690.406C261.489 685.39 262.951 681.009 264.722 677.266M261.012 690.406C270.804 695.768 291.5 706.647 295.944 707.26C300.389 707.873 334.799 698.05 351.449 693.062M300.736 742.068V742.068C299.691 747.499 300.613 753.053 301.766 758.461C302.885 763.706 303.859 770.065 303.666 775.276C303.271 785.955 295.757 795.051 302.48 812.452C304.031 816.466 305.653 821.135 307.667 826.046M383.688 632.475L369.342 584.223C366.25 573.823 359.797 564.84 353.583 555.947C350.35 551.32 347.843 546.266 347.843 541.868M589.098 532.395L563.224 512.205M589.098 532.395C588.129 533.293 587.161 534.195 586.195 535.095M563.224 512.205C560.264 512.757 557.604 513.063 555.685 512.626C552.944 512.003 548.001 517.639 542.111 523.042M586.195 535.095L564.066 534.381C555.414 534.102 547.348 529.936 542.111 523.042V523.042M612.115 539.797L611.688 599.156M809.439 777.497L789.019 694.025C788.033 689.996 784.662 686.993 780.545 686.479L776.384 685.959M776.384 685.959L746.203 709.346M776.384 685.959L824.391 443.873M722.911 727.097C716.358 733.271 700.558 744.519 689.781 740.12C685.698 738.453 682.354 736.918 679.695 735.589C674.419 732.952 670.895 728.09 668.979 722.511L665.076 711.147C663.539 706.671 659.58 703.468 654.882 702.898V702.898C654.135 702.808 653.472 703.379 653.451 704.131L651.606 769.92M624.564 390.987C624.59 391.241 624.612 391.508 624.63 391.787C625.733 409.034 612.698 425.474 608.145 442.146C603.788 458.097 597.742 474.454 590.873 479.749C588.421 481.638 586.196 483.198 584.197 484.479C576.777 489.234 568.094 482.486 559.491 484.398V484.398M527.528 488.756C531.984 488.369 541.359 489.454 543.219 496.892M465.227 394.547C471.375 401.354 483.408 418.459 482.354 432.424M713.625 404.336C717.625 407.386 726.873 412.582 737.835 414.411C741.113 414.958 748.799 421.869 751.618 423.631V423.631C756.125 426.448 770.342 428.922 782.122 430.489C789.652 431.491 796.958 433.745 803.862 436.914C811.21 440.287 819.666 443.624 824.391 443.873M824.391 443.873C831.717 444.258 853.468 459.455 863.428 467.006M519.897 388.753C536.83 393.985 571.456 408.812 574.502 426.256C574.945 428.795 575.282 431.134 575.528 433.284C576.959 445.754 566.274 451.805 554.035 449.018V449.018M835.952 982.31L865.34 982.327M384.512 876.02V876.02C376.487 883.239 373.292 894.408 376.284 904.779L377.125 907.693M307.667 826.046L327.537 785.017C339.389 760.547 371.489 754.441 391.497 772.85V772.85M319.941 522.513L321.701 548.318C322.55 560.78 327.601 572.499 334.735 582.752C341.565 592.569 348.072 603.912 348.577 611.487M274.418 655.143C274.302 657.828 274.072 660.795 273.647 662.492C273.065 664.82 268.273 669.758 264.722 677.266M274.418 655.143L300.732 653.326C310.655 652.641 320.588 654.519 329.576 658.78L357.46 672.001M483.479 705.148C473.913 704.191 466.336 696.619 462.235 690.831C461.013 689.106 462.182 686.848 464.286 686.641C470.16 686.062 477.722 685.469 479.573 685.89C482.536 686.563 498.293 706.629 483.479 705.148ZM428.955 258.051V258.051C426.922 259.891 426.936 263.09 428.984 264.914V264.914C430.797 266.529 433.553 266.462 435.284 264.761V264.761C437.155 262.921 437.114 259.891 435.196 258.101V258.101C433.445 256.466 430.732 256.444 428.955 258.051ZM579.374 684.953L579.36 684.97C579.122 685.253 578.69 685.266 578.435 684.998V684.998C578.177 684.726 578.217 684.289 578.52 684.069L578.537 684.056C578.783 683.876 579.123 683.903 579.339 684.118V684.118C579.566 684.345 579.581 684.708 579.374 684.953ZM574.39 685.829L574.376 685.846C574.138 686.129 573.706 686.142 573.451 685.874V685.874C573.193 685.602 573.233 685.165 573.536 684.945L573.553 684.932C573.799 684.752 574.139 684.779 574.354 684.994V684.994C574.581 685.221 574.597 685.584 574.39 685.829ZM580.416 690.589V690.589C577.849 692.463 574.309 692.231 572.007 690.039L571.842 689.882C569.138 687.306 569.118 682.999 571.799 680.399V680.399C574.365 677.911 578.449 677.928 580.994 680.437L581.157 680.597C584.044 683.444 583.691 688.199 580.416 690.589ZM397.066 925.117V925.117C396.939 923.627 398.125 922.352 399.62 922.373L404.702 922.441C406.191 922.461 407.351 923.739 407.227 925.223V925.223C407.114 926.583 405.957 927.617 404.592 927.577L399.511 927.428C398.228 927.39 397.176 926.396 397.066 925.117Z" stroke="#7481A1" stroke-width="1.5"/>
</svg>
