<svg width="1081" height="1081" viewBox="0 0 1081 1081" fill="none" xmlns="http://www.w3.org/2000/svg">
<path d="M380.604 150.821L390.373 151.082M404.236 151.452L404.38 153.698C404.573 156.734 402.687 159.516 399.795 160.459V160.459C398.289 160.95 396.657 160.888 395.192 160.285L394.872 160.153C391.666 158.833 389.759 155.512 390.235 152.078L390.373 151.082M404.236 151.452L390.373 151.082M404.236 151.452V151.452C407.442 146.746 401.325 143.517 395.645 143.122C391.701 142.848 388.135 142.611 387.629 142.611M416.368 161.692C416.368 161.27 417.169 157.853 417.967 154.57M419.046 150.191L431.975 148.186C435.614 147.622 438.738 150.788 438.125 154.419V154.419C437.667 157.126 435.251 159.059 432.509 158.91L426.611 158.589C424.148 158.456 421.787 157.567 419.847 156.045L417.967 154.57M419.046 150.191C418.752 151.369 418.36 152.953 417.967 154.57M419.046 150.191C418.921 148.039 418.896 143.691 419.796 143.511C420.696 143.331 430.554 141.183 435.371 140.132M429.129 188.319L428.42 183.356M386.906 185.483C386.804 180.609 392.49 176.294 397.011 173.839C398.597 172.979 400.508 173.808 401.142 175.497L401.492 176.431C402.123 178.114 404.263 178.614 405.575 177.384V177.384C406.749 176.284 408.64 176.55 409.463 177.933L409.964 178.773C411.107 180.693 413.786 180.949 415.273 179.282L416.785 177.586C417.195 177.127 417.852 176.981 418.418 177.223V177.223C419.449 177.665 420.564 176.804 420.398 175.694L420.293 174.993C420.022 173.184 422.281 172.142 423.48 173.523L427.052 177.633C427.482 178.129 427.761 178.739 427.854 179.389L428.42 183.356M401.558 191.312C404.026 192.047 410.727 193.108 417.786 191.47M403.449 200.608C407.597 201.238 416.525 201.774 419.046 198.875M390.214 188.476L395.098 189.737M426.609 188.949V188.949C424.428 189.433 423.26 191.815 424.212 193.836L425.125 195.775C425.275 196.092 425.456 196.393 425.666 196.673V196.673C427.21 198.732 427.005 201.611 425.186 203.431L424.121 204.496C422.735 205.882 422.003 207.792 422.108 209.75L422.263 212.629M360.417 160.75L359.787 161.381C358.657 162.51 358.978 164.416 360.414 165.113L360.864 165.332C361.611 165.694 362.511 165.472 363.003 164.804V164.804C363.566 164.039 363.405 162.963 362.642 162.398L360.417 160.75ZM360.417 160.75C360.55 157.012 359.162 149.909 352.54 151.404C351.81 151.569 351.241 151.939 350.814 152.478M366.159 182.38C366.498 183.337 366.842 185.225 366.381 187.041M350.814 152.478C347.366 156.833 353.09 172.245 356.812 180.244C358.815 184.205 363.302 191.567 365.224 189.323C365.815 188.635 366.177 187.845 366.381 187.041M350.814 152.478C350.334 151.939 347.416 145.964 345.077 141.08C344.516 139.908 345.799 138.72 346.927 139.365V139.365C347.978 139.965 349.218 138.963 348.852 137.809L345.123 126.061C344.593 124.393 346.425 122.968 347.912 123.89V123.89C349.45 124.845 351.319 123.291 350.66 121.604L348.327 115.634C347.681 113.98 349.85 112.697 350.989 114.058V114.058C351.579 114.764 352.648 114.812 353.299 114.161L354.082 113.378C354.867 112.593 355.055 111.382 354.559 110.389V110.389C353.38 108.031 355.987 105.544 358.295 106.817V106.817C359.211 107.323 360.349 107.264 361.2 106.654L364.375 104.376C365.637 103.47 365.551 101.567 364.213 100.778V100.778C362.393 99.7058 363.051 96.9263 365.159 96.783L373.242 96.2337C374.041 96.1795 374.812 95.9202 375.481 95.4811L377.525 94.1401C378.819 93.2903 380.317 92.7997 381.864 92.7182L384.595 92.5745C386.894 92.4535 388.831 90.8178 389.337 88.5718V88.5718C389.692 86.9953 390.758 85.6509 392.285 85.1208C394.294 84.4231 396.483 83.9333 396.832 84.8074V84.8074C397.408 86.2451 399.599 86.5267 400.097 85.0605L400.395 84.1825C400.62 83.5199 401.242 83.0742 401.942 83.0742L407.566 83.0743C409.454 83.0743 411.15 84.2312 411.84 85.9897L414.4 92.5235C414.752 93.4225 415.985 93.5227 416.478 92.6924V92.6924C417.047 91.733 418.511 92.0524 418.629 93.162L418.875 95.4813C418.975 96.4153 419.731 97.1381 420.661 97.2748C424.926 97.9024 431.959 100.047 435.275 105.132V105.132C438.241 109.679 444.989 105.593 450.37 104.865L454.93 104.247C455.951 104.109 456.979 104.441 457.726 105.151V105.151C458.877 106.245 459.116 107.999 458.059 109.185C456.174 111.3 453.535 113.48 451.301 115.602C450.294 116.56 451.217 117.683 452.442 117.027V117.027C453.769 116.317 455.086 117.983 454.09 119.11L453.166 120.155C452.159 121.294 453.317 123.029 454.755 122.536V122.536C456.221 122.033 457.376 123.835 456.307 124.957L454.628 126.72C453.551 127.85 454.595 129.69 456.118 129.345V129.345C457.418 129.051 458.474 130.403 457.874 131.594L451.973 143.289C451.116 144.987 451.369 147.034 452.612 148.473V148.473C453.224 149.182 453.614 150.055 453.705 150.987C454.264 156.665 454.604 166.354 452.291 168.782C450.493 170.67 449.443 172.509 448.913 173.752C448.588 174.513 448.498 175.344 448.477 176.171L448.292 183.204C448.235 185.346 446.988 187.217 444.864 186.936V186.936C442.265 186.592 439.636 188.395 439.078 190.956C438.889 191.826 438.651 192.733 438.356 193.653M384.071 202.183C384.743 204.768 386.727 206.734 389.146 208.19C395.295 211.893 403.31 215.772 410.465 216.349V216.349C413 216.554 414.749 216.827 417.143 215.97C418.97 215.317 420.718 214.071 422.263 212.629M366.381 187.041L372.314 192.412M374.748 194.616L372.314 192.412M374.748 194.616C375.503 203.238 384.992 223.156 397.693 237.999M374.748 194.616L374.122 197.958C372.105 208.713 373.172 219.819 377.199 229.994L381.114 239.883M372.314 192.412C368.577 195.949 362.06 202.929 358.245 209.311M381.114 239.883V239.883C375.39 239.768 369.798 241.602 365.254 245.085L362.813 246.955M381.114 239.883V239.883C387.909 243.55 391.964 250.823 391.51 258.531L391.434 259.819C391.162 264.444 392.365 269.037 394.869 272.935L403.581 286.497C405.64 289.702 410.384 289.519 412.19 286.165L419.898 271.851M438.356 193.653C437.439 196.518 435.977 199.52 433.756 201.993C430.314 205.826 426.028 209.112 422.263 212.629V212.629M438.356 193.653L438.581 212.298M438.581 212.298L431.758 233.63C427.601 246.626 414.32 254.26 404.332 244.965V244.965M438.581 212.298C446.267 209.614 458.012 213.928 464.993 217.433C466.952 218.418 468.516 220.011 469.627 221.902V221.902M397.693 237.999C397.693 237.999 392.784 246.248 397.558 245.187C402.332 244.126 404.332 244.965 404.332 244.965M397.693 237.999C399.825 240.489 402.046 242.837 404.332 244.965M404.332 244.965L417.566 257.444C421.514 261.166 422.47 267.075 419.898 271.851V271.851M419.898 271.851L420.328 287.164C420.438 291.075 424.201 293.824 427.872 292.471C429.17 291.992 430.491 291.474 431.763 290.931M407.712 105.258C410.575 104.529 416.346 101.985 416.531 97.6414M399.294 99.2448L399.896 92.4303M435.371 140.132L434.885 133.422C434.561 128.948 432.12 124.897 428.316 122.519L426.194 121.193C424.249 119.977 422.895 118.01 422.453 115.759V115.759C421.691 111.871 418.283 109.066 414.32 109.066H402.13C400.727 109.066 399.531 108.047 399.309 106.661V106.661C398.991 104.686 396.795 103.64 395.061 104.638L393.384 105.604C392.201 106.286 390.688 105.862 390.03 104.665V104.665C389.343 103.416 387.735 103.02 386.546 103.806L374.808 111.569M435.371 140.132L435.607 140.3C438.188 142.144 440.108 144.766 441.087 147.783V147.783C441.68 149.613 441.911 151.541 441.768 153.459L441.053 162.989C440.874 165.377 440.365 167.729 439.54 169.977V169.977C437.492 175.565 433.532 180.308 428.42 183.356V183.356M360.861 150.709V144.24C360.861 142.437 362.906 141.394 364.366 142.452V142.452C366.097 143.707 368.423 142.015 367.762 139.982L366.935 137.437L364.976 130.492C364.672 129.415 365.133 128.269 366.097 127.702V127.702C367.294 126.997 367.672 125.443 366.932 124.268L364.46 120.342M469.627 221.902V221.902C472.808 227.319 474.596 233.446 474.721 239.727C474.867 247.047 474.934 255.394 474.652 259.156C474.233 264.742 467.639 269.886 461.139 271.628M469.627 221.902C472.936 221.474 481.737 222.458 490.466 229.818C498.315 236.436 503.869 248.508 506.257 255.334C506.714 256.641 507.697 257.705 508.991 258.198V258.198C510.499 258.773 511.58 260.115 511.82 261.711L513.462 272.662C513.818 275.036 514.537 277.34 515.593 279.495L534.589 318.247C535.119 319.327 535.403 320.512 535.422 321.716L535.557 330.646C535.581 332.243 537.225 333.298 538.687 332.657V332.657C540.604 331.815 542.517 333.828 541.562 335.691C532.376 353.597 517.092 382.186 512.28 386.561C506.932 391.422 506 404.793 506.203 410.87V410.87C506.026 418.829 500.239 425.486 492.637 427.85C485.954 429.928 478.774 432.81 473.414 436.447M358.245 209.311C356.69 211.912 355.585 214.413 355.298 216.542C354.821 220.086 354.407 226.753 354.079 233.774M358.245 209.311C350.387 211.794 338.498 215.827 326.962 220.275M234.47 367.799C232.934 369.474 228.606 371.234 223.579 364.866C220.672 361.184 215.757 357.231 211.183 354.012M244.525 368.636C247.317 367.659 254.327 366.626 260.025 370.312C260.946 370.908 261.77 371.541 262.505 372.193M283.065 257.204C302.148 272.151 304.127 323.995 302.609 351.802C302.454 354.631 301.665 357.366 300.364 359.884V359.884M300.66 243.798C314.903 282.618 337.693 371.234 314.903 415.137M326.962 220.275C317.959 223.746 309.171 227.471 302.682 230.908C296.889 233.977 291.189 237.439 285.814 241.191C279.13 245.857 271.068 252.956 262.667 261.536M326.962 220.275L356.376 363.19C357.494 375.06 359.141 402.653 356.795 418.069M362.813 246.955L361.652 247.845C358.317 250.4 353.523 247.953 353.673 243.754C353.787 240.547 353.923 237.12 354.079 233.774M362.813 246.955C363.181 264.196 365.844 303.285 373.552 321.717C383.187 344.758 389.89 387.907 383.187 410.947M314.484 374.082C328.169 367.24 362.409 355.65 389.89 364.028M316.16 339.312C325.252 334.96 344.459 328.236 365.986 326.295C382.957 324.766 395.357 339.574 396.357 356.584C397.037 368.139 398.09 379.658 399.64 387.904C400.994 395.107 406.919 406.935 405.238 414.068V414.068M309.457 302.866C321.723 296.515 354.143 284.774 385.701 288.623M303.174 270.19C316.579 264.604 348.668 254.355 369.782 258.041M294.795 249.244C307.784 242.096 337.826 228.994 354.079 233.774M262.667 261.536L293.538 309.569M262.667 261.536C256.653 267.677 250.465 274.577 244.483 281.885M244.483 281.885C253.713 297.257 275.525 329.174 288.93 333.866M244.483 281.885C234.639 293.911 225.352 307.044 218.317 319.725M218.317 319.725C213.79 327.885 210.195 335.858 207.984 343.229C207.767 343.951 207.35 344.597 206.771 345.08V345.08C204.767 346.75 205.035 349.924 207.226 351.341C208.472 352.147 209.812 353.047 211.183 354.012M218.317 319.725C238.084 322.903 278.709 335.793 283.065 361.934M219.808 346.015C224.696 328.42 242.011 287.366 272.173 263.906M284.741 278.987C271.615 295.744 245.111 333.866 244.106 352.299M261.7 359.839C266.029 346.434 279.211 315.098 297.309 297.001M274.268 374.501C277.837 367.111 286.773 350.062 293.957 340.988M401.201 294.487L402.877 317.109M399.944 426.448C401.386 424.251 402.524 422.017 403.414 419.814M434.214 769.746L439.936 747.379M439.936 747.379L431.827 887.294C431.727 889.025 431.898 890.762 432.336 892.44V892.44C433.531 897.019 432.713 901.891 430.088 905.828L429.137 907.254L417.211 925.249M439.936 747.379L441.544 741.092M417.211 925.249L417.064 927.746C416.836 931.623 418.481 935.374 421.487 937.834V937.834C422.035 938.282 422.543 938.778 423.004 939.315L434.019 952.135C436.344 954.842 436.799 958.686 435.171 961.861V961.861C433.69 964.749 430.736 966.584 427.49 966.632L387.127 967.222C382.819 967.285 378.604 965.968 375.098 963.464L367.985 958.383C364.828 956.129 363.558 952.05 364.875 948.401V948.401C365.576 946.459 365.56 944.33 364.829 942.399L364.177 940.675M417.211 925.249L398.585 931.396C394.093 932.878 389.277 933.085 384.674 931.993L380.405 930.98C377.977 930.404 375.429 930.604 373.12 931.552L367.057 934.042C364.46 935.109 363.183 938.049 364.177 940.675V940.675M364.177 940.675V940.675C359.687 937.599 356.202 933.268 354.157 928.224L352.361 923.794C350.562 919.355 349.506 914.65 349.237 909.868L348.624 898.987L347.859 890.063M347.859 890.063V890.063C345.168 895.782 343.676 901.991 343.475 908.308L343.269 914.795M347.859 890.063L364.056 611.977M343.269 914.795L343.107 914.972C339.432 918.967 337.337 924.162 337.214 929.589V929.589C337.171 931.448 336.897 933.294 336.397 935.086L335.527 938.203C334.598 941.533 334.847 945.082 336.233 948.25L337.29 950.665C338.636 953.743 338.359 957.29 336.55 960.122V960.122C334.7 963.017 331.501 964.77 328.065 964.77H311.144C295.472 964.77 282.727 952.14 282.586 936.468V936.468L283.632 921.825C283.768 919.917 285.126 918.318 286.986 917.873V917.873M343.269 914.795L338.89 914.999C334.515 915.203 330.13 914.91 325.82 914.126L324.669 913.917C316.758 912.478 308.635 912.701 300.814 914.569L286.986 917.873M286.986 917.873V917.873C280.88 913.6 276.614 907.177 275.044 899.892L271.113 881.649C264.68 839.096 254.523 758.848 256.125 721.948M259.069 685.544C259.039 686.04 259.008 686.589 258.976 687.177C258.38 698.429 256.614 710.691 256.125 721.948V721.948M256.125 721.948L251.413 691.399C250.764 687.189 250.58 682.92 250.866 678.67L254.752 620.8L260.969 536.631L273.741 451.332M273.741 451.332C274.501 448.14 279.488 439.929 293.355 432.631M273.741 451.332C255.262 429.756 217.237 385.123 212.96 379.202C208.683 373.28 209.993 359.941 211.183 354.012M293.355 432.631C301.569 436.075 314.435 440.553 328.211 443.695M293.355 432.631C291.847 430.041 290.022 426.935 288.035 423.596M378.197 444.034C374.183 445.782 369.516 446.8 364.448 447.247M364.448 447.247C361.896 447.473 359.242 447.553 356.519 447.51M364.448 447.247C367.602 453.355 376.053 464.222 387.383 465.794M406.174 512.773C424.546 506.65 423.015 483.685 428.373 479.092V479.092C432.369 475.667 431.762 470.124 427.234 467.44C423.624 465.299 419.459 463.221 415.743 462.252C408.935 460.476 410.139 461.675 402.714 463.727M473.414 436.447C472.568 437.021 471.767 437.613 471.021 438.224C467.93 440.756 468.991 445.204 472.362 447.349V447.349C474.441 448.672 475.748 450.923 475.865 453.385L477.29 483.324M473.414 436.447L414.722 441.21C408.954 441.678 403.669 445.133 402.232 450.739V450.739M402.714 463.727C400.538 464.328 397.621 465.002 393.544 465.696C391.412 466.059 389.354 466.067 387.383 465.794M402.714 463.727C400.568 460.67 401.009 455.514 402.232 450.739M477.29 483.324L477.31 483.725C477.63 490.447 479.47 497.025 480.405 503.69C480.612 505.169 480.734 506.69 480.723 508.183M477.29 483.324C474.983 484.544 471.156 486.545 466.955 488.734C461.384 491.638 462.528 477.525 456.696 479.858V479.858C454.782 480.623 439.855 483.302 439.473 492.105C439.166 499.148 419.698 512.391 410.001 518.132M480.723 508.183C480.712 509.521 480.594 510.836 480.332 512.078C479.034 518.244 471.263 525.407 468.477 530.509C467.138 532.962 467.855 535.895 468.17 538.671V538.671M480.723 508.183C469.014 510.223 445.903 517.366 447.127 529.614C447.162 529.955 447.198 530.28 447.238 530.59C448.273 538.672 461.927 533.435 468.17 538.671V538.671M468.17 538.671C469.096 546.838 469.775 558.277 468.474 565.873C467.657 570.641 466.192 575.945 467.264 580.662V580.662C467.513 581.758 467.621 582.881 467.584 584.005L464.835 669.227C464.736 672.295 463.14 675.121 460.562 676.788V676.788C458.583 678.069 457.16 680.048 456.576 682.331L441.544 741.092M373.641 479.475C373.399 482.488 373.058 486.104 372.621 490.08M361.776 598.125V595.791C361.776 592.341 360.632 588.989 358.523 586.26V586.26M361.776 598.125V598.125C357.274 596.559 355.402 591.21 357.944 587.179L358.523 586.26M361.776 598.125C361.802 599.878 361.762 601.837 361.643 603.953M358.523 586.26V586.26C356.38 583.487 354.819 580.281 354.416 576.801C353.404 568.038 353.653 554.631 359.862 545.689C366.197 536.567 370.523 509.164 372.621 490.08M328.86 665.105C353.102 654.636 360.574 622.936 361.643 603.953M274.894 558.702L303.213 595.674C311.614 606.642 315.821 620.306 315.082 634.102V634.102M307.044 580.136L314.027 594.767C314.703 596.183 315.908 597.277 317.383 597.813V597.813C321.839 599.434 326.304 595.409 325.247 590.787V590.787C324.869 589.133 323.808 587.698 322.331 586.863L315.847 583.198M288.672 533.824V533.824C283.896 531.807 279.515 537.391 282.611 541.55L283.016 542.095C283.465 542.698 284.037 543.198 284.695 543.562L306.807 555.789C313.036 559.233 319.845 561.501 326.894 562.48L330.008 562.913M330.008 562.913L318.909 548.751M330.008 562.913L341.808 572.952C344.338 575.105 343.366 579.218 340.14 580.01V580.01C337.461 580.668 336.208 583.733 337.814 585.976C343.76 594.277 353.623 605.033 361.643 603.953M289.055 503.97C288.545 507.032 288.596 514.228 292.883 518.515C297.169 522.801 328.86 551.175 344.17 564.826M288.29 479.475C292.627 484.451 304.824 492.947 318.909 487.13M345.701 477.561L361.573 481.835C363.844 482.446 366.202 481.199 366.975 478.978V478.978C367.868 476.408 366.286 473.641 363.619 473.107L339.96 468.375M372.621 490.08L375.167 494.182C377.336 497.676 382.582 497.124 383.975 493.254V493.254M394.692 471.437L389.333 483.685M413.446 485.599L398.519 500.908M376.703 527.318C375.583 533.041 371.871 544.805 365.986 546.072M462.945 565.437C460.405 571.062 451.95 582.257 438.45 582.039C426.735 581.85 404.334 578.368 390.671 575.968C389.903 575.833 389.601 576.856 390.325 577.147C396.266 579.533 404.941 582.741 414.024 585.42C417.779 586.528 419.091 591.303 416.313 594.061V594.061C413.28 597.072 415.17 602.254 419.429 602.605L420.496 602.693C421.536 602.779 422.58 602.566 423.505 602.081L446.077 590.228C453.761 586.194 469.275 587.597 462.676 593.234V593.234C460.469 595.119 457.631 597.37 454.79 599.559C449.806 603.398 449.888 611.028 455.06 614.612V614.612C459.026 617.36 460.165 622.721 457.66 626.845L443.955 649.405C440.587 654.948 444.686 667.369 449.61 663.148V663.148C449.976 662.835 451.176 661.526 452.57 659.967C454.466 657.847 457.983 658.745 458.595 661.523V661.523C458.804 662.47 458.609 663.458 458.049 664.251C447.728 678.86 427.508 705.665 422.645 705.125C418.088 704.619 421.562 707.301 424.458 709.079C424.997 709.41 425.619 709.573 426.25 709.573V709.573C429.502 709.573 431.081 713.548 428.716 715.78L426.503 717.868C425.801 718.531 425.315 719.39 425.108 720.334L416.404 760.088C416.209 760.977 417.404 761.459 417.881 760.685L431.879 737.959C434.752 733.294 441.954 735.629 441.544 741.092V741.092M431.763 290.931C434.844 289.616 437.637 288.153 439.111 286.74C443.355 282.673 448.483 271.887 456.086 272.241C457.685 272.315 459.409 272.092 461.139 271.628M431.763 290.931C428.426 311.946 420.036 356.989 413.173 369.046M461.139 271.628C456.047 305.183 445.122 373.683 442.154 379.247M417.346 305.518C423.451 311.778 441.783 324.205 466.267 323.834M409.927 337.282C415.259 343.619 432.324 355.274 457.92 351.193M471.901 335.023L487.675 368.496M326.928 417.351C324.005 423.055 320.17 436.309 328.211 443.695M328.211 443.695C337.62 445.841 347.453 447.364 356.519 447.51M350.541 429.945C349.909 433.049 350.219 440.908 356.519 447.51M387.383 465.794C385.073 458.986 382.088 445.309 388.637 445.057C395.186 444.806 400.429 448.74 402.232 450.739M511.639 290.251C513.853 299.106 517.749 321.332 515.624 339.397C512.968 361.977 505 362.222 505.883 381.458M505.441 292.465C499.685 303.976 488.882 332.224 491.715 353.122M300.364 359.884L299.186 386.092C298.951 391.312 293.573 394.687 288.771 392.63V392.63M300.364 359.884L284.406 390.76M284.406 390.76V390.76C283.713 392.099 281.966 392.468 280.792 391.522L275.133 386.963C270.543 383.266 267.717 377.517 263.629 373.271C263.28 372.909 262.906 372.548 262.505 372.193M284.406 390.76L288.771 392.63M262.505 372.193C262.508 377.408 263.253 388.29 266.214 390.099C268.603 391.559 279.725 409.623 288.035 423.596M246.886 412.305C255.453 420.393 272.711 437.431 273.204 440.886M288.771 392.63L288.035 423.596M308.634 405.603C326.3 399.931 368.319 390.388 395.072 397.585M405.238 414.068L420.191 422.419C421.58 423.195 422.147 424.904 421.496 426.356V426.356C420.751 428.017 418.733 428.669 417.157 427.758L403.414 419.814M405.238 414.068C404.799 415.926 404.205 417.858 403.414 419.814M442.393 218.917C444.052 220.193 447.524 224.508 448.137 231.553C448.75 238.599 449.669 249.296 450.052 253.763M437.752 117.066L438.901 125.686C439.721 131.835 442.87 137.434 447.699 141.329V141.329M342.67 429.315C347.222 427.798 383.358 433.885 387.942 434.609C388.202 434.65 388.454 434.641 388.712 434.59V434.59C390.96 434.14 391.263 431.056 389.143 430.184C379.948 426.407 367.982 421.551 364.079 420.185C360.641 418.981 353.485 420.35 347.42 422.008C342.782 423.276 338.109 430.836 342.67 429.315V429.315ZM483.057 391.815C482.87 391.852 482.603 391.572 482.283 391.055C479.744 386.963 473.433 386.897 472.05 391.51C471.842 392.205 471.644 392.863 471.459 393.47C470.864 395.433 472.164 397.554 474.191 397.865V397.865C475.937 398.134 477.144 399.752 476.901 401.502C475.447 411.97 473.103 428.819 472.71 431.57C472.387 433.832 480.734 429.642 488.216 425.4C492.723 422.845 495.587 418.182 496.056 413.022L497.053 402.056C497.737 394.529 490.468 390.332 483.057 391.815V391.815ZM496.745 255.455L489.381 296.993C488.725 300.693 483.437 300.746 482.687 297.064V297.064C482.121 294.285 478.598 293.378 476.766 295.543V295.543C474.394 298.346 469.88 295.914 470.916 292.391L479.35 263.714C479.734 262.407 480.39 261.195 481.273 260.158L488.565 251.599C489.654 250.32 491.344 249.722 492.995 250.032V250.032C495.521 250.505 497.194 252.925 496.745 255.455ZM439.26 408.302L459.861 413.849C462.06 414.441 464.396 413.621 465.742 411.785V411.785C468.202 408.431 466.206 403.666 462.091 403.066L456.51 402.252C455.161 402.055 453.875 401.552 452.752 400.78L445.144 395.554C438.934 391.289 431.217 398.328 434.896 404.903V404.903C435.833 406.577 437.407 407.803 439.26 408.302ZM383.443 547.184C383.999 546.917 384.543 546.641 385.074 546.358C385.861 545.937 386.749 545.732 387.639 545.811L387.881 545.832C392.782 546.268 394.255 552.725 390.028 555.243L386.835 557.145C385.981 557.654 384.966 557.823 383.992 557.618V557.618C379.718 556.718 379.508 549.08 383.443 547.184ZM422.641 523.014L401.262 524.169C400.216 524.226 399.202 524.548 398.315 525.104V525.104C393.068 528.397 395.4 536.503 401.595 536.503H410.685C411.501 536.503 412.313 536.39 413.098 536.165L424.309 532.962C426.488 532.34 427.99 530.348 427.99 528.082V528.082C427.99 525.171 425.547 522.857 422.641 523.014ZM401.477 337.356V337.356C402.298 337.521 402.901 338.226 402.936 339.063L403.21 345.642C403.254 346.697 402.315 347.525 401.274 347.349V347.349C400.529 347.223 399.963 346.61 399.896 345.858L399.311 339.3C399.203 338.091 400.287 337.119 401.477 337.356ZM406.085 389.72L405.879 389.911C405.055 390.677 405.054 391.981 405.876 392.748V392.748C406.679 393.498 407.944 393.43 408.663 392.599L408.847 392.387C409.627 391.486 409.407 390.1 408.387 389.484V389.484C407.653 389.04 406.714 389.137 406.085 389.72ZM375.545 174.178L376.143 175.038C376.733 175.886 377.002 176.917 376.902 177.945V177.945C376.574 181.306 372.707 183.028 369.989 181.022L369.146 180.4C367.672 179.311 367 177.441 367.444 175.664V175.664C368.386 171.896 373.327 170.989 375.545 174.178ZM372.846 119.569L372.629 115.239C372.588 114.406 371.98 113.71 371.16 113.556V113.556C370.029 113.344 368.991 114.232 369.025 115.382L369.153 119.716C369.172 120.381 369.547 120.984 370.135 121.295V121.295C371.402 121.966 372.917 121.001 372.846 119.569Z" stroke="#7481A1" stroke-width="1.5" stroke-linejoin="round"/>
<path d="M542.261 334.001C549.253 314.746 565.183 274.231 572.966 266.206C579.421 259.549 593.294 252.71 602.58 248.779C605.914 247.367 609.194 245.831 612.185 243.791C621.781 237.245 635.178 226.158 635.592 217.868M635.592 217.868V217.868C639.733 221.632 641.026 227.449 642.167 232.927C642.466 234.362 642.959 235.734 643.719 236.901C645.352 239.409 648.253 240.824 650.408 242.901L663.866 255.869M635.592 217.868C611.433 202.938 619.961 176.266 620.173 174.712M682.366 244.879C683.128 244.879 687.347 251.935 690.964 258.284C693.123 262.074 697.284 264.301 701.618 263.81V263.81M739.222 238.393L740.294 242.374C740.523 243.224 739.919 244.07 739.042 244.131V244.131C736.571 244.301 734.771 246.544 734.726 249.02C734.67 252.044 734.149 255.463 732.521 257.417C731.017 259.221 722.373 260.968 713.111 262.327M739.222 238.393L737.895 236.955C737.133 236.129 736.961 234.917 737.464 233.912V233.912C737.885 233.07 738.714 232.507 739.652 232.427L745.473 231.928C745.601 231.917 745.694 231.799 745.677 231.672C745.021 226.584 744.644 223.659 743.978 218.504M739.222 238.393C736.657 238.541 730.82 238.099 727.992 235.148M743.978 218.504C741.024 219.297 734.899 220.32 734.034 218.072M743.978 218.504C746.402 216.996 751.388 213.29 751.94 210.53C752.493 207.769 747.34 203.284 744.694 201.386M732.143 219.16L730.576 221.165C724.15 229.391 725.329 244.507 715.694 248.522V248.522C710.16 250.828 700.629 253.287 686.947 243.756M674.356 227.252C671.271 226.909 664.939 224.415 664.281 217.177V217.177C663.75 211.341 658.13 203.839 657.923 197.982L657.874 196.59C657.764 193.474 658.969 190.142 662 189.409C665.1 188.66 669.083 189.379 672.711 194.354M664.075 199.906C666.2 198.809 670.655 198.467 671.477 205.869M669.832 209.364C672.025 210.392 676.288 213.682 675.795 218.617M681.758 186.13L690.052 186.749M723.086 189.214L721.809 193.865C721.064 196.581 723.395 199.151 726.17 198.672V198.672M723.086 189.214L728.021 189.42M723.086 189.214L690.052 186.749M726.17 198.672L728.021 189.42M726.17 198.672C725.99 199.571 725.832 200.921 725.704 202.377C725.296 207.019 730.898 214.135 732.544 209.775V209.775C733.016 208.527 734.121 202.579 735.423 200.112M728.021 189.42L739.518 189.136M739.518 189.136L735.423 200.112M739.518 189.136L750.043 184.996M739.518 189.136L744.694 201.386M739.518 189.136L742.279 182.753M735.423 200.112C739.462 192.743 743.287 197.891 744.694 201.386M750.043 184.996C750.56 186.951 751.354 191.793 750.388 195.52C749.422 199.246 746.189 200.983 744.694 201.386M750.043 184.996C748.967 185.419 744.419 183.677 742.279 182.753M744.004 206.044C742.394 207.424 739.346 210.978 740.036 214.153M742.279 182.753C742.681 176.714 741.175 164.223 731.927 162.567C730.117 162.243 728.951 161.891 728.285 161.528C722.679 158.474 742.227 156.029 740.209 149.973V149.973C739.258 147.12 739.055 138.385 733.539 135.052C730.245 133.061 726.345 137.277 722.611 136.343V136.343C720.54 135.826 709.499 122.023 685.862 124.266C662.226 126.509 653.772 132.03 647.561 137.033M647.561 137.033V137.033C649.882 128.569 648.455 119.036 640.039 121.527C639.188 121.779 638.302 122.113 637.382 122.541C629.377 126.267 621.164 137.896 618.059 143.244C615.705 148.528 612.252 159.669 614.073 168.022C614.764 171.189 617.002 174.042 620.173 174.712V174.712M647.561 137.033L632.981 152.032C627.197 157.983 631.207 171.203 623.58 174.472V174.472C622.48 174.943 621.295 174.949 620.173 174.712M620.129 167.225C620.244 158.714 624.684 139.207 641.523 129.269M633.305 196.646C635.489 199.8 639.079 217.896 657.325 224.062M637.187 188.882C639.845 197.053 647.108 213.977 654.899 216.298M641.554 174.81C641.554 183.383 644.223 202.032 654.899 208.049M657.325 172.869C662.339 178.207 672.901 189.804 675.036 193.492M665.817 169.715L676.977 182.817M665.574 162.436C671.316 165.267 682.8 172.626 682.8 179.42M672.125 162.194C678.11 163.649 690.758 167.968 693.476 173.597M672.367 156.371C680.374 158.716 696.872 165.057 698.813 171.656M669.699 149.577C678.757 152.084 697.94 158.894 702.21 166.076M669.941 137.689C676.007 138.417 696.387 150.062 702.695 159.282M695.417 142.541C700.027 144.32 709.586 149.771 710.945 157.341M702.21 134.292C708.761 138.093 722.59 147.927 725.502 156.856M724.531 139.872C727.281 140.519 732.829 142.784 733.023 146.666M723.804 143.512C724.774 144.644 726.764 147.927 726.958 152.003M679.425 193.164V203.261C679.425 203.899 680.257 204.147 680.605 203.612V203.612C680.941 203.097 681.737 203.302 681.784 203.914L681.996 206.724C682.114 208.281 684.166 208.761 684.963 207.419L685.073 207.234C685.147 207.109 685.204 206.974 685.244 206.834L686.514 202.32L688.286 197.742V197.742C688.973 195.286 689.447 192.774 689.702 190.236L690.052 186.749M736.04 249.664C741.865 252.269 755.162 261.631 761.741 278.245M759.685 268.581C769.623 275.846 789.17 305.303 787.854 365.013M713.111 262.327C708.83 264.702 702.36 271.428 706.024 281.113M713.111 262.327C709.229 262.897 705.237 263.4 701.618 263.81M774.322 393.842C777.555 357.02 775.695 332.186 772.927 317.554C771.252 308.701 762.488 304.463 753.738 306.613V306.613C750.833 307.326 747.803 307.374 744.876 306.754L742.597 306.27C733.071 304.25 723.227 307.839 717.237 315.518V315.518C716.905 315.944 716.156 315.465 716.396 314.981C721.551 304.564 726.882 290.326 719.257 291.481C715.011 292.125 712.332 291.415 710.703 290.228C707.956 288.227 707.227 284.292 706.024 281.113V281.113M791.657 370.906L794.86 400.133C795.524 406.194 798.124 411.959 800.281 417.661C801.222 420.148 802.124 423.142 802.846 426.639C804.291 433.632 799.872 440.261 793.242 442.913V442.913C787.137 445.355 783.034 451.151 782.76 457.72L782.123 473.023M739.393 589.463V589.463C740.248 599.15 749.161 606.064 758.756 604.483L778.388 601.25M734.642 591.046L733.058 549.341M733.062 544.746C733.062 543.071 732.744 530.074 732.506 520.63C732.429 517.554 734.3 514.767 737.174 513.672V513.672M736.489 502.934C736.854 502.02 737.25 478.029 737.403 466.148M734.661 463.178L738.918 459.458M758.195 442.615L738.918 459.458M738.918 459.458C740.115 458.412 766.191 427.078 766.877 406.971M735.118 449.241L739.231 435.075M736.489 430.734L742.201 421.823M733.747 427.078C740.601 419.309 753.396 400.802 749.741 388.921M537.049 444.993C536.57 444.993 529.65 441.587 522.377 437.935C518.184 435.829 518.974 429.654 523.558 428.658C533.717 426.449 545.141 423.991 553.116 422.336M537.049 444.993C534.51 433.736 546.703 425.198 553.116 422.336M537.049 444.993C536.682 448.622 545.361 453.061 556.268 457.02M602.142 428.906C612.957 434.389 636.094 445.356 642.126 445.356C649.666 445.356 658.805 444.442 662.004 446.27C665.203 448.098 672.286 456.552 675.256 457.237C678.226 457.923 690.793 463.406 692.163 465.691V465.691C696.102 472.256 678.057 465.856 671.45 461.988C666.557 459.123 662.076 456.848 661.547 457.694V457.694C659.791 460.503 664.066 463.224 666.782 465.12L671.463 468.385C672.162 468.873 672.911 469.284 673.697 469.611L681.917 473.036C682.809 473.408 683.281 474.388 683.016 475.318V475.318M680.739 483.284L683.016 475.318M683.016 475.318L685.248 475.226C689.301 475.06 691.798 479.509 689.234 482.653C687.001 485.392 684.728 487.714 683.253 488.082C681.035 488.637 675.454 488.434 669.825 486.914C663.088 485.095 654.933 485.151 648.752 481.913V481.913C645.259 480.084 641.04 475.106 635.83 472.71C631.923 470.913 627.423 471.033 623.175 470.374C614.218 468.983 601.972 467.291 596.658 467.291C591.699 467.291 571.742 462.638 556.268 457.02M553.116 422.336C558.736 421.17 562.644 420.403 563.189 420.403C560.613 420.468 562.965 413.686 560.282 413.336C559.25 413.202 558.694 412.441 558.418 411.524C557.919 409.862 557.143 408.127 555.542 407.46V407.46C552.786 406.312 552.389 402.571 554.843 400.871L579.891 383.508C581.615 382.313 583.649 381.642 585.746 381.576V381.576C590.931 381.414 595.147 377.414 598.034 373.104C602.411 366.573 609.276 362.948 609.831 364.615C610.589 366.89 608.315 383.193 604.144 388.88C601.734 392.166 603.53 398.814 605.762 404.11C606.994 407.036 605.935 410.544 603.095 411.964V411.964C601.6 412.711 600.521 414.093 600.159 415.725L598.927 421.268C598.421 423.545 595.532 424.267 594.014 422.496V422.496C593.466 421.857 592.661 421.495 591.819 421.508L570.021 421.866M543.879 439.187C550.429 444.442 565.905 454.998 575.409 455.181C583.262 455.332 602.157 457.053 615.059 458.334C619.839 458.808 624.528 459.904 629.036 461.561L634.64 463.621C636.73 464.389 638.899 464.927 641.106 465.224V465.224C646.703 465.978 651.981 468.268 656.356 471.84L663.375 477.572M645.696 418.412C645.93 418.365 646.66 417.962 647.717 417.319C658.553 410.731 666.201 400.035 670.211 388.005L673.466 378.24M694.495 412.75C697.91 410.144 703.823 402.451 700.157 392.53M580.118 410.769L565.766 412.403M560.165 405.985L577.557 403.862C579.32 403.646 581.108 403.83 582.789 404.4L585.299 405.25C586.688 405.72 587.831 406.727 588.473 408.045V408.045C590.141 411.469 586.498 414.723 585.034 418.238C584.972 418.388 584.928 418.543 584.902 418.704M576.968 396.767C580.935 395.639 589.57 395.11 592.37 402.018C595.871 410.652 592.954 413.22 593.537 413.22M598.788 375.88C597.31 380.509 592.954 390.559 587.353 393.733M706.024 281.113V281.113C700.089 282.049 694.016 281.52 688.333 279.571L684.101 278.121C683.852 278.035 683.83 277.693 684.064 277.576L690.515 274.351C691.888 273.664 692.802 272.309 692.924 270.779V270.779C693.043 269.298 693.903 267.977 695.211 267.271L701.618 263.81M687.009 493.716L695.821 503.224C696.957 504.449 699.007 503.734 699.135 502.069V502.069C699.302 499.903 702.375 499.644 702.902 501.751L705.44 511.902C705.562 512.39 705.784 512.847 706.093 513.244L720.49 531.753C722.108 533.834 722.918 536.43 722.769 539.062L722.083 551.253C721.935 553.874 719.06 555.404 716.803 554.062L713.96 552.372C712.512 551.511 710.72 552.744 711.006 554.404V554.404C711.307 556.148 709.337 557.376 707.904 556.338L703.903 553.441C703.208 552.937 702.372 552.684 701.515 552.638C693.689 552.221 679.659 547.208 677.081 529.396C673.668 505.816 637.678 510.16 637.368 507.678C637.119 505.692 611.616 498.577 598.895 495.267C592.306 493.552 579.066 491.191 572.669 493.589M570.351 494.957C570.951 494.389 571.738 493.938 572.669 493.589M572.669 493.589L568.32 547.57M572.213 583.381C569.482 580.403 567.973 564.559 567.559 557.009L568.32 547.57M568.32 547.57L563.183 569.721M556.268 457.02L556.428 506.92C556.439 510.514 556.142 514.104 555.335 517.606C553.793 524.298 551.158 533.737 547.903 540.085C542.564 550.496 536.157 545.424 534.289 554.5C533.109 560.23 543.268 574.318 551.803 584.639C554.375 587.749 559.294 586.491 560.206 582.559L563.183 569.721M563.183 569.721L563.66 571.498C565.293 577.589 565.923 583.905 565.523 590.198L562.41 639.226C562.18 642.851 562.258 646.496 562.873 650.076C563.904 656.07 565.597 663.446 567.78 667.455M569.935 670.065C569.173 669.608 568.453 668.692 567.78 667.455M567.78 667.455L567.986 671.186C568.596 682.226 572.973 692.603 577.216 702.814C578.853 706.753 579.914 710.675 579.583 713.735C579.057 718.6 580.982 731.023 584.513 743.036C589.764 760.901 597.033 780.226 599.787 798.642C600.634 804.308 601.818 809.79 603.449 814.276C607.618 825.742 608.122 844.835 607.757 856.528C607.69 858.702 610.096 860.109 611.931 858.941V858.941C612.662 858.476 613.573 858.397 614.373 858.729L614.449 858.76M640.167 864.68L637.348 865.65C635.137 866.412 632.723 866.337 630.563 865.442V865.442M640.167 864.68V864.68C638.848 859.404 643.109 854.395 648.528 854.851L660.679 855.875M640.167 864.68L644.424 889.332M788.11 855.602L788.227 860.062C788.562 872.812 778.704 884.019 767.689 877.588V877.588C760.977 873.669 754.553 870.99 746.782 870.849L695.023 869.908C688.467 869.789 682.154 867.407 677.152 863.167V863.167M788.11 855.602V855.602C782.636 846.625 780.026 836.194 780.627 825.696L780.971 819.699C781.24 814.994 780.935 810.274 780.063 805.643L774.085 773.916L763.429 694.835L763.074 668.614M788.11 855.602L812.6 862.422C813.935 862.794 815.088 863.641 815.84 864.804V864.804C817.311 867.077 820.183 867.994 822.698 866.993L851.321 855.602C861.408 850.67 881.045 837.782 878.893 825.677C876.203 810.547 842.916 713.711 831.82 708.332C822.943 704.028 805.033 661.035 797.188 640.076L778.388 601.25M778.388 601.25V601.25C783.011 600.488 786.887 597.337 788.575 592.967L792.481 582.859C793.993 578.944 794.057 574.618 792.66 570.66V570.66C791.996 568.779 791.657 566.799 791.657 564.804V558.189C791.657 551.637 790.511 545.135 788.272 538.978L785.322 530.864L782.332 517.907C781.163 512.842 780.68 507.643 780.897 502.45L782.123 473.023M762.307 609.023L756.138 645.479M756.138 645.479L762.083 639.93C763.554 638.557 765.742 638.289 767.501 639.266V639.266M756.138 645.479V645.479C760.486 650.552 762.917 656.99 763.008 663.672L763.074 668.614M776.329 637.066V637.066C775.473 640.205 771.9 641.71 769.056 640.13L767.501 639.266M776.329 637.066V637.066C781.444 636.498 784.651 631.258 782.829 626.444L778.572 615.192M776.329 637.066L774.043 611.824M769.261 609.885L767.501 639.266M578.61 588.496H606.156C613.825 588.496 621.419 590.017 628.496 592.972L650.694 602.237C653.763 603.518 656.926 604.554 660.192 605.181C675.765 608.169 701.514 610.826 709.483 602.856M699.366 611.995V611.995C710.18 611.995 716.59 623.724 709.083 631.508L707.613 633.033C706.061 634.642 704.988 636.633 704.485 638.811C699.144 661.982 688.286 703.097 682.068 705.336M682.068 705.336C676.318 707.406 674.367 669.264 673.984 643.047C673.914 638.224 669.16 634.841 664.598 636.409V636.409C659.467 638.173 654.538 633.712 656.696 628.735C659.438 622.413 663.544 616.352 669.014 615.258M682.068 705.336C677.912 707.893 669.964 714.831 671.423 722.125C672.395 726.988 675.945 731.401 679.223 734.463C681.45 736.543 682.136 740.002 680.396 742.504L679.115 744.345C675.982 748.848 668.936 745.696 670.207 740.359V740.359M763.074 668.614C759.065 680.981 748.25 706.565 737.066 709.968C723.087 714.223 720.655 757.378 720.655 761.025C720.655 763.942 724.302 786.553 726.126 797.493C727.949 816.538 729.286 856.573 720.048 864.353M673.246 771.965L685.402 779.259M685.402 779.259L684.187 759.809M685.402 779.259L684.795 850.981M573.201 603.356C577.815 625.824 589.45 671.842 599.079 676.175C608.708 680.508 611.115 693.628 611.115 699.646M587.043 674.971C591.055 683.597 599.199 703.377 599.681 713.487C600.283 726.125 623.753 834.451 632.78 839.265M618.066 752.419C619.832 751.536 631.604 744.841 637.27 741.604M637.27 741.604L640.202 734.064C641.333 731.155 642.823 728.399 644.637 725.86L648.992 719.762C652.882 714.316 659.044 710.941 665.727 710.596V710.596M637.27 741.604V741.604C644.267 740.747 650.756 737.51 655.649 732.435L664.414 723.346C665.425 722.298 666.1 720.972 666.353 719.537L667.565 712.674C667.763 711.552 666.865 710.537 665.727 710.596V710.596M665.727 710.596L665.368 706.184C664.577 696.472 654.491 690.4 645.538 694.244V694.244C635.885 698.389 625.218 691.023 625.674 680.528L626.31 665.899C626.397 663.896 627.696 662.149 629.589 661.49L641.001 657.514C644.364 656.342 643.416 651.352 639.859 651.495V651.495C637.206 651.601 635.658 648.539 637.316 646.465L646.32 635.211M638.93 625.879L618.864 657.835M653.298 616.217C644.958 618.116 626.692 623.352 620.35 629.099M595.329 594.665C603.67 598.216 624.908 604.822 643.141 602.84M726.126 630.679C725.208 632.974 716.418 688.564 720.16 711.457M774.465 402.589V402.589C775.987 399.545 780.569 401.05 780.55 404.453L780.349 441.035C780.338 443.08 779.573 445.049 778.201 446.566V446.566C776.231 448.743 775.556 451.796 776.423 454.6L782.123 473.023M771.393 407.617L771.132 445.426C771.122 446.918 769.909 448.122 768.418 448.122V448.122C766.752 448.122 765.479 449.608 765.736 451.254L772.775 496.403C773.156 498.849 773.32 501.324 773.264 503.799L773.069 512.37M773.069 512.37L751.559 514.884M773.069 512.37V512.37C775.344 512.37 777.017 514.502 776.477 516.712L774.465 524.941M774.465 524.941L750.721 526.058M774.465 524.941L778.938 524.972M780.916 532.831C780.47 535.508 779.419 539.826 777.694 544.308M769.481 557.708C773.093 554.348 775.8 549.229 777.694 544.308M777.694 544.308L771.743 549.797C765.977 555.115 756.641 551.025 756.641 543.181V542.46M677.152 863.167L676.109 862.283C671.758 858.593 666.364 856.353 660.679 855.875V855.875M677.152 863.167L679.915 884.353M651.396 929.899L646.775 902.941L644.424 889.332M651.396 929.899C643.426 928.683 638.73 932.687 636.258 936.99C634.464 940.112 631.333 942.84 627.814 942.075C612.921 938.839 610.084 928.262 609.113 924.863C608.699 923.413 608.964 921.023 609.632 918.403M651.396 929.899C651.396 930.702 651.321 931.798 651.126 933.007M660.679 855.875C660.409 860.01 660.793 868.666 664.49 870.207C668.187 871.747 676.314 880.279 679.915 884.353M679.915 884.353V884.353C680.903 891.926 684.58 898.797 688.734 905.205C690.115 907.336 691.272 909.506 691.833 911.414C692.394 913.32 692.427 915.488 692.175 917.617C691.486 923.434 691.927 929.703 695.677 934.204V934.204C697.921 936.897 699.15 940.291 699.15 943.797V961.01C699.15 962.07 698.848 963.109 698.279 964.003L697.426 965.343C696.829 966.281 696.806 967.473 697.366 968.433V968.433C698.297 970.028 697.561 972.077 695.828 972.715L694.432 973.229C692.854 973.811 691.773 975.274 691.68 976.952L691.403 981.927C691.19 985.766 689.14 989.297 685.748 991.106C678.41 995.019 668.644 999.038 665.26 996.138C659.869 991.517 654.092 973.032 651.396 973.032C650.548 973.032 649.553 971.284 648.58 968.82M614.449 858.76C614.997 861.275 616.454 866.459 617.89 867.075C618.337 867.267 619.382 867.258 620.718 867.132M614.449 858.76L630.563 865.442M630.563 865.442C628.065 865.993 623.677 866.852 620.718 867.132M620.718 867.132L618.376 876.635C618.034 878.023 619.271 879.302 620.687 879.106V879.106M644.424 889.332C642.589 878.696 629.301 877.913 620.687 879.106M620.687 879.106C619.869 887.061 617.578 903.738 614.951 906.803C612.91 909.184 610.728 914.102 609.632 918.403M609.632 918.403L605.889 929.035M605.889 929.035C603.461 931.035 599.161 936.491 601.389 942.319C602.323 944.76 603.765 946.735 605.293 948.269M605.889 929.035C606.317 934.178 608.503 945.19 613.816 948.104M611.031 952.175C609.703 951.677 607.415 950.397 605.293 948.269M605.293 948.269V948.269C605.877 958.557 614.075 966.775 624.361 967.385L632.629 967.875M648.58 968.82L632.629 967.875M648.58 968.82C647.348 965.702 646.151 961.437 645.331 958.113M632.629 967.875C630.286 963.641 623.372 955.346 614.459 956.031M651.126 933.007V933.007C650.174 938.91 644.421 943.18 644.405 949.159C644.399 951.645 644.61 954.216 644.85 956.087C644.99 956.702 645.151 957.385 645.331 958.113M651.126 933.007C650.616 934.969 650.325 939.234 653.239 940.605C656.881 942.319 656.024 916.823 681.306 923.251M654.739 968.03C655.381 966.958 663.095 940.605 694.161 955.174M665.451 980.885C666.308 980.885 684.663 973.457 693.733 969.744M645.331 958.113C650.824 949.349 666.051 932.892 683.02 937.177M699.633 193.234C705.409 194.13 718.064 198.282 722.485 207.722M624.04 270.766C628.645 270.943 636.433 266.938 642.399 263.261C645.853 261.133 650.274 261.112 653.567 263.481V263.481C659.123 267.477 658.722 275.869 652.81 279.317L649.274 281.38C645.679 283.478 641.249 283.598 637.608 281.579C628.813 276.703 618.934 270.569 624.04 270.766ZM751.67 496.668V496.668C752.427 498.089 752.188 499.837 751.059 500.984C748.341 503.747 744.673 507.339 742.046 509.535C740.621 510.727 738.667 510.316 737.563 508.823V508.823C736.418 507.273 736.57 505.121 737.921 503.747L745.729 495.809C747.491 494.017 750.487 494.45 751.67 496.668ZM735.912 543.631V543.631C737.033 545.242 739.556 544.567 739.721 542.611L740.128 537.811C740.256 536.302 738.993 535.041 737.483 535.172V535.172C736.166 535.287 735.18 536.429 735.257 537.748L735.54 542.557C735.563 542.942 735.692 543.314 735.912 543.631ZM672.726 233.203L672.736 232.805C672.774 231.371 673.947 230.228 675.382 230.228V230.228C676.959 230.228 678.186 231.599 678.012 233.167L677.968 233.562C677.827 234.834 676.791 235.819 675.514 235.896V235.896C673.974 235.99 672.685 234.744 672.726 233.203Z" stroke="#7481A1" stroke-width="1.5"/>
</svg>
