<svg width="1081" height="1033" viewBox="0 0 1081 1033" fill="none" xmlns="http://www.w3.org/2000/svg">
<path d="M0.929688 0.40625H1080.93V1032.36H0.929688V0.40625Z" fill="#0C0D0D"/>
<path d="M609.632 294.532C615.021 292.409 613.596 288.224 622.969 288.775C624.293 290.15 627.235 292.899 628.41 292.899C629.88 292.899 632.492 290.286 633.799 291.756M609.632 294.532C611.592 296.763 615.315 301.52 614.531 302.696C613.551 304.166 612.898 309.554 615.347 310.044C617.797 310.534 625.308 311.677 625.961 313.8C626.614 315.922 630.043 316.575 628.737 318.045M609.632 294.532L591.407 292.843M624.003 222.607L647.783 237.425M624.003 222.607L652.952 213.991L679.489 213.646M624.003 222.607L623.82 234.36M647.783 237.425L679.489 213.646M647.783 237.425L659.667 354.997M679.489 213.646L701.905 398.401M706.054 813.92L703.457 788.229M706.054 813.92L696.047 831L682.017 829.412M706.054 813.92L733.749 820.174M741.484 821.921L742.627 787.253C740.709 783.472 738.304 777.549 736.777 771.155M741.484 821.921C742.995 823.675 745.64 830.616 744.954 844.788M741.484 821.921L733.749 820.174M720.271 549.764L717.716 551.87L730.307 634.514M720.271 549.764L732.311 560.393M720.271 549.764L714.283 500.416M633.799 291.756C635.105 293.225 640.82 299.267 639.187 300.573C637.881 301.618 638.643 304.71 639.187 306.125C642.453 309.554 649.115 317.196 649.638 320.331M633.799 291.756C638.153 285.115 636.389 267.668 633.785 265.585C631.18 263.501 631.701 260.203 635 252.217C638.298 244.231 634.479 234.161 629.965 232.251C628.677 231.706 626.422 232.663 623.82 234.36M649.638 320.331C650.291 324.25 654.21 344.171 652.25 345.64M649.638 320.331C649.899 331.696 647.678 333.993 646.535 333.72M652.25 345.64L646.535 333.72M652.25 345.64L365.52 324.326M652.25 345.64L659.667 354.997M646.535 333.72C643.678 327.76 635.921 326.699 633.309 326.373C631.219 326.111 630.221 323.393 629.984 322.066M628.737 318.045C627.431 319.515 623.022 321.474 625.798 321.964C627.306 322.23 628.911 322.352 629.984 322.066M628.737 318.045C629.39 318.099 630.794 318.633 631.186 320.331C631.41 321.3 630.885 321.827 629.984 322.066M628.737 318.045L595.146 315.141M365.52 324.326L363.838 339.379L445.852 345.429M365.52 324.326L366.25 320.336M373.016 283.353C376.787 284.642 381.478 288.351 385.077 296.422L580.754 313.869M373.016 283.353L368.585 307.572M373.016 283.353L373.983 278.067M591.367 314.815C589.892 314.249 587.184 312.743 588.151 311.239C589.118 309.734 590.345 310.522 590.837 311.104L595.146 315.141M591.367 314.815L595.146 315.141M591.367 314.815L592.718 317.685C594.061 318.088 596.962 318.679 597.821 317.819C598.681 316.96 596.396 315.676 595.146 315.141M591.367 314.815L580.754 313.869M368.585 307.572C369.672 305.051 372.428 300.01 374.761 300.01C377.093 300.01 485.395 308.721 539.254 313.076C540.444 314.546 543.691 317.261 547.163 316.365C550.634 315.469 551.688 314.172 551.782 313.636L570.85 315.691L572.452 314.446L578.62 315.217L580.754 313.869M368.585 307.572L366.25 320.336M659.667 354.997L660.298 361.246M660.298 361.246L685.316 608.754M660.298 361.246L656.851 360.992M373.983 278.067L374.95 272.781L477.203 282.258M373.983 278.067L373.949 225.174C374.999 224.707 377.113 223.2 377.169 220.905L381.158 220.8M389.209 189.808L387.946 212.787L384.937 212.857L385.147 220.695L381.158 220.8M389.209 189.808L380.999 198.513M389.209 189.808L376.251 190.105L372.641 194.21M380.999 198.513L381.158 220.8M380.999 198.513L369.031 198.315M369.031 198.315L358.786 202.528M369.031 198.315L372.641 194.21M369.031 198.315L368.697 204.513M366.25 320.336L362.487 320.086L363.833 295.036M637.764 359.584L632.809 382.673M637.764 359.584L656.851 360.992M637.764 359.584L603.409 357.05M632.809 382.673L628.852 379.975L624.128 406.697M632.809 382.673L653.493 384.292M624.128 406.697L645.347 406.38M624.128 406.697L603.464 405.943M645.347 406.38L655.777 438.198M645.347 406.38L653.493 384.292M670.366 482.703L585.175 478.903C582.747 482.175 575.168 486.757 564.273 478.903L364.296 472.814M670.366 482.703L657.856 444.542M670.366 482.703L670.649 492.525M364.296 472.814L369.523 435.376L657.856 444.542M364.296 472.814L364.529 484.698L395.795 485.518M657.856 444.542L655.777 438.198M655.777 438.198L364.55 429.621M364.55 429.621C365.864 429.363 368.307 428.397 367.575 426.596C366.661 424.345 365.254 421.602 367.294 421.25C369.334 420.898 373.695 418.436 372.57 416.045C371.444 413.653 371.304 410.769 372.077 410.699C372.696 410.642 374.164 408.283 374.821 407.111C371.426 405.901 365.177 402.251 367.344 397.331M364.55 429.621L354.925 485.624M367.344 397.331L376.502 397.665M367.344 397.331L366.952 363.94M670.649 492.525L664.197 515.541M670.649 492.525L649.551 492.176M664.197 515.541L644.843 514.146L649.551 492.176M664.197 515.541C665.243 521.957 666.653 535.144 663.935 536.562M649.551 492.176L633.557 491.757M663.935 536.562C660.536 538.336 659.206 529.026 655.807 533.607C653.945 536.118 653.132 538.124 652.836 539.408M663.935 536.562C663.885 538.976 662.812 544.364 658.91 546.611C657.732 547.289 656.74 547.283 655.916 546.865M652.836 539.408C652.7 539.999 652.673 540.436 652.704 540.7C653.014 542.728 654.014 545.898 655.916 546.865M652.836 539.408L637.51 539.683M361.466 544.638L355.276 589.43M361.466 544.638L353.813 544.117L352.644 589.43H355.276M361.466 544.638L370.92 544.469M355.276 589.43L669.11 580.936M405.263 485.767L447.724 486.881M405.263 485.767L395.795 485.518M405.263 485.767C402.751 491.674 399.526 501.367 397.773 511.72M400.145 543.944L433.336 543.348M400.145 543.944L370.92 544.469M400.145 543.944C396.081 535.894 395.863 525.098 397.317 514.666M447.724 486.881C447.092 488.738 445.521 492.507 444.292 492.724C443.063 492.941 442.514 491.127 442.394 490.193L438.687 490.374L438.597 492.001L436.066 491.73L435.523 490.102L430.099 489.831C429.919 491.398 429.268 494.46 428.111 494.17C426.954 493.881 425.64 492.302 425.128 491.549L421.512 491.278L421.783 494.622L415.184 494.17L411.116 498.148L424.404 507.911L413.918 512.159C415.861 514.532 418.978 517.655 422.549 520.075M447.724 486.881L492.362 488.052M433.336 543.348C426.616 533.034 433.723 524.955 438.116 522.205C433.335 525.438 427.504 523.433 422.549 520.075M433.336 543.348L447.189 543.1M447.189 543.1L441.249 534.537L444.715 528.595C451.097 526.504 451.152 528.154 453.243 529.585C454.916 530.729 452.986 533.693 451.812 535.032L447.246 535.307L450.437 538.333L450.77 543.035M447.189 543.1L450.77 543.035M450.77 543.035L515.612 541.871M492.362 488.052L501.449 493.428C497.723 493.685 489.316 493.554 485.493 490.973C489.339 493.755 496.245 500.743 493.103 506.438L506.481 513.557C508.2 514.58 512.152 515.717 514.214 512.084H526.979C527.716 507.911 528.452 498.853 525.506 496.005L530.663 489.057M492.362 488.052L530.663 489.057M530.663 489.057L574.978 490.22M574.978 490.22L577.18 506.561L589.455 495.637L589.335 490.596M574.978 490.22L589.335 490.596M589.335 490.596L633.557 491.757M633.557 491.757L637.51 539.683M637.51 539.683L630.093 539.816M561.834 541.042L562.457 528.434C557.919 532.255 547.797 537.322 534.904 536.592M561.834 541.042L515.612 541.871M561.834 541.042L596.109 540.426M515.612 541.871L502.039 531.19L514.759 530.766C521.904 534.558 528.722 536.241 534.904 536.592M534.904 536.592C543.357 533.41 559.732 526.091 557.608 522.268L542.741 524.215L560.44 513.418L537.077 496.073L531.06 512.887L519.378 522.268L500.263 527.754L486.458 518.374C482.8 520.793 473.644 525.17 466.281 523.33L458.494 527.931L453.715 517.666L443.981 523.507L449.113 511.294C444.453 507.342 434.919 499.471 434.069 499.613C433.22 499.755 427.226 499.908 424.335 499.967L433.007 510.94L425.574 511.294L422.549 520.075M379.322 363.94H386.137L385.168 341.857L361.9 341.426L362.869 363.94H366.952M379.322 363.94L376.502 397.665M379.322 363.94H366.952M376.502 397.665L388.641 398.107M354.925 485.624L380.38 486.207L381.08 509.794L370.454 509.939M354.925 485.624L355.509 510.144L370.454 509.939M395.795 485.518L397.773 511.72M397.773 511.72C397.607 512.697 397.455 513.68 397.317 514.666M370.454 509.939L370.663 525.442M370.92 544.469L370.663 525.442M370.663 525.442L382.832 518.901C382.442 513.374 382.458 502.297 385.634 502.204C388.81 502.11 389.604 511.428 389.604 516.099L397.317 514.666M358.786 202.528L326.948 198.004M358.786 202.528L358.712 204.511M337.139 789.467C297.45 776.162 275.741 803.196 269.848 818.376M337.139 789.467L339.559 873.019M337.139 789.467L355.874 281.478M669.11 580.936L655.916 546.865M669.11 580.936L669.157 588.767M669.157 588.767L355.308 595.102L351.157 646.852M669.157 588.767L676.96 604.684M351.157 646.852L688.29 638.183M351.157 646.852L352.384 661.763M688.29 638.183L686.968 625.097M688.29 638.183L689.408 649.242M686.968 625.097L678.893 608.627M686.968 625.097L685.316 608.754M676.96 604.684L666.876 604.86C665.981 603.601 663.252 601.303 659.494 602.175C654.796 603.266 656.977 605.615 642.296 606.202L642.128 607.628L651.776 607.964C651.608 609.222 651.977 611.722 654.796 611.655C657.615 611.588 672.035 609.608 678.893 608.627M676.96 604.684L678.893 608.627M661.963 544.836L685.316 608.754M372.641 194.21L326.948 198.004M326.948 198.004L322.223 199.805L302.943 452.565C300.982 466.289 295.786 497.07 290.689 510.402C287.906 517.679 283.389 579.841 279.075 650.594M358.712 204.511L368.697 204.513M358.712 204.511L355.874 281.478M368.697 204.513L363.833 295.036M269.848 818.376C265.655 828.705 261.864 853.362 280.255 869.354L339.559 873.019M269.848 818.376C271.447 786.181 273.717 742.946 276.222 699.044M339.559 873.019L350.99 871.968L361.888 850.172L360.84 801.951M477.203 282.258C476.099 271.434 475.382 247.772 481.354 239.717C483.517 244.55 487.182 254.681 489.454 266.257M477.203 282.258L491.446 283.578M491.446 283.578C491.322 277.756 490.55 271.838 489.454 266.257M491.446 283.578L547.147 288.74M489.454 266.257L494.202 272.703H497.847C499.236 266.106 502.327 252.703 503.577 251.869C505.139 250.828 508.264 261.765 509.653 261.765C510.764 261.765 512.315 261.187 512.952 260.897L512.257 247.008C514.977 243.189 520.66 234.508 521.632 230.342C522.847 225.133 522.153 246.488 524.063 247.008C525.972 247.529 533.09 233.988 536.042 234.161C538.993 234.335 529.271 248.918 530.66 250.828C532.049 252.738 537.431 257.946 538.472 262.286C539.306 265.758 542.755 266.858 544.375 266.974L543.854 274.439L541.597 277.39L547.847 281.036L547.147 288.74M547.147 288.74L591.407 292.843M591.407 292.843C592.454 287.518 593.437 275.203 588.993 268.536C583.437 260.203 585.174 247.008 588.993 246.835C592.049 246.696 604.271 246.43 610 246.314C613.313 242.89 619.13 237.421 623.82 234.36M527.465 205.909C527.465 205.909 521.878 196.817 522.9 192.582C524.178 187.287 522.353 193.312 519.249 191.486C516.766 190.026 515.05 187.105 514.502 185.827L513.954 190.391C516.815 196.233 522.754 207.918 523.631 207.918M388.641 398.107C388.125 391.425 387.854 377.879 390.903 377.162C394.716 376.265 395.388 392.635 396.734 392.635C398.079 392.635 400.77 393.532 401.219 390.617C401.667 387.701 403.013 390.841 406.376 391.065C409.74 391.289 410.637 390.841 410.413 388.823C410.233 387.208 413.477 386.057 415.122 385.683L428.352 384.786C429.474 381.198 432.434 373.439 435.304 371.107C438.892 368.192 433.51 354.962 435.977 353.392C437.95 352.136 443.383 347.56 445.852 345.429M388.641 398.107L419.392 399.229M445.852 345.429L469.832 347.198M469.832 347.198C468.889 348.094 467.749 349.222 466.503 350.512M469.832 347.198L500.345 349.448M442.678 400.078C444.556 393.561 448.938 378.642 451.45 371.107C453.495 364.971 461.032 356.175 466.503 350.512M442.678 400.078L446.742 400.227M442.678 400.078L427.567 399.527M470.546 401.095C469.426 401.054 453.02 380.526 458.401 376.265C462.707 372.856 458.401 373.051 455.711 373.574L446.742 400.227M470.546 401.095L446.742 400.227M470.546 401.095L582.801 405.189M466.503 350.512C464.699 355.508 462.259 366.039 466.923 368.192C471.587 370.345 477.537 372.079 479.929 372.677M479.929 372.677C481.349 371.107 485.042 367.923 488.45 367.744C491.859 367.564 494.804 367.519 495.851 367.519C496.545 366.825 497.392 365.67 497.518 364.59M479.929 372.677L481.29 378.997C483.994 377.897 490.08 376.262 492.796 378.525C495.513 380.789 492.482 388.774 490.627 392.484C494.306 393.553 501.209 395.181 499.399 393.144C497.588 391.107 506.755 379.343 511.565 373.715C511.471 369.22 510.961 361.058 509.679 364.378C508.396 367.698 501.037 365.903 497.518 364.59M500.345 349.448C495.689 350.958 497.8 357.341 499.438 360.343L485.984 359.446C488.002 359.97 492.801 361.285 495.851 362.362C497.233 362.85 497.623 363.694 497.518 364.59M500.345 349.448L569.055 354.516M653.493 384.292L656.851 360.992M360.84 801.951H344.159V788.541M360.84 801.951L662.53 799.903M344.159 788.541L698.133 788.234M344.159 788.541L352.276 721.564M703.457 788.229L698.133 788.234M703.457 788.229L691.963 674.515M698.133 788.234L698.133 799.661M698.133 788.234L679.562 721.516L352.276 721.564M698.133 799.661L672.277 799.837M698.133 799.661L694.085 822.506L685.493 822.411M682.017 829.412C681.488 843.706 686.623 871.554 711.4 868.589C721.989 868.501 743.483 864.248 744.754 847.942C744.839 846.853 744.905 845.802 744.954 844.788M682.017 829.412C682.287 828.381 684.447 824.316 685.493 822.411M744.954 844.788L737.342 844.5L733.749 820.174M672.277 799.837L664.18 822.176M672.277 799.837L662.53 799.903M664.18 822.176L685.493 822.411M664.18 822.176L662.53 799.903M352.276 721.564L352.633 719.378M352.384 661.763L372.014 661.034M352.384 661.763L344.595 662.228M689.408 649.242L673.655 649.827M689.408 649.242L691.963 674.515M673.655 649.827L666.245 675.508M673.655 649.827L655.805 650.49M666.245 675.508L691.963 674.515M666.245 675.508L658.785 657.631M655.805 650.49L376.303 660.875M655.805 650.49L658.785 657.631M352.633 719.378L658.442 713.476C658.206 711.172 658.07 706.008 659.407 703.781C661.078 700.996 650.496 695.426 647.154 694.034C643.812 692.641 645.762 687.072 638.243 681.502C630.724 675.933 621.812 680.945 615.964 680.388C610.116 679.831 613.736 676.49 612.623 669.249C611.509 662.009 609.281 665.072 595.635 659.206M352.633 719.378C350.504 718.791 346.753 717.066 348.779 714.864C350.805 712.661 351.385 697.282 351.422 689.867M351.422 689.867L371.793 684.802M351.422 689.867L344.044 693.171L344.595 662.228M371.793 684.802L372.014 661.034M371.793 684.802L374.546 684.581V673.239L375.978 673.129L376.202 664.68M372.014 661.034L376.303 660.875M376.303 660.875L376.202 664.68M344.595 662.228L355.157 385.888M355.874 281.478L357.103 334.984L355.157 385.888M363.833 295.036C362.836 298.385 360.747 306.625 360.373 312.792C360 318.959 359.439 361.147 359.205 381.471L355.157 385.888M658.785 657.631L595.635 659.206M376.202 664.68L595.635 659.206M701.905 398.401L704.292 418.073M701.905 398.401L771.547 471.161M806.337 507.509L795.668 513.911M806.337 507.509L809.89 530.36M806.337 507.509L771.547 471.161M795.668 513.911L704.292 418.073M795.668 513.911L803.255 549.392M795.668 513.911L732.311 560.393M704.292 418.073L710.878 472.347M812.011 544.004L803.255 549.392M812.011 544.004H818.073M812.011 544.004L809.89 530.36M803.255 549.392L800.337 552.086L802.15 554.7M732.311 560.393L740.393 569.149M740.393 569.149C742.938 568.176 748.7 566.365 751.394 566.904C754.762 567.577 761.048 568.251 763.069 573.415C765.089 578.578 765.538 588.456 770.477 588.681C775.416 588.906 783.274 594.967 789.56 591.824C794.589 589.31 807.67 577.007 813.582 571.17M740.393 569.149L807.654 637.441M813.582 571.17L802.15 554.7M813.582 571.17C815.627 572.25 820.861 574.744 825.44 576.074C830.02 577.403 834.365 571.95 835.966 569.057L818.073 544.004M802.15 554.7C804.015 555.026 808.509 555.274 811.562 553.658C814.615 552.042 817.175 546.549 818.073 544.004M809.89 530.36C811.719 530.119 816.277 529.277 819.869 527.84C823.461 526.403 824.508 524.697 824.583 524.023L832.666 524.472M832.666 524.472C831.318 526.193 828.804 529.95 829.522 531.207C830.42 532.779 836.707 534.8 835.809 537.943C835.09 540.457 831.019 544.378 829.073 546.025L838.054 566.679L839.85 552.311C841.122 552.985 844.295 553.927 846.809 552.311C849.324 550.695 850.252 547.447 850.401 546.025L860.504 545.8C861.702 549.018 863.288 555.948 860.055 557.924C856.822 559.899 853.47 562.788 852.198 563.985C855.715 562.563 862.929 560.393 863.647 563.087C864.545 566.455 868.137 572.517 862.974 573.415C858.843 574.133 852.422 572.816 849.728 572.068L853.096 575.211L847.034 576.782L848.605 582.619L861.178 575.211L867.015 582.395C861.253 584.415 850.087 588.95 851.524 590.926C853.32 593.396 846.136 603.498 844.34 602.6M832.666 524.472C840.748 524.921 832.603 500.5 828.908 495.952C825.952 492.314 833.929 488.373 838.287 486.857L826.918 474.351C822.37 479.657 812.081 490.211 807.306 489.984C802.531 489.756 808.348 477.951 811.854 472.077L814.98 451.897C810.149 448.296 799.575 443.199 795.937 451.613C791.389 462.129 775.188 468.098 771.547 471.161M844.34 602.6C842.903 601.882 846.884 615.023 849.054 621.683C851.524 624.527 856.328 631.068 855.79 634.48C855.251 637.893 859.906 631.861 862.3 628.419L860.729 641.215H868.362L876.669 621.459C879.961 624.827 886.547 631.786 886.547 632.684C886.547 633.582 887.146 642.188 887.445 646.379L864.096 654.461L852.033 665.562C840.593 684.775 816.454 723.401 744.916 761.834C743.105 763.228 738.942 767.044 736.777 771.155M844.34 602.6L842.71 593.453L840.807 574.808L834.148 577.281L841.568 602.205M736.777 771.155C736.237 768.894 735.807 766.574 735.547 764.269M735.547 764.269C734.838 757.986 735.394 751.814 738.436 747.251L746.818 745.727L740.722 714.106H734.245L731.198 685.534L737.674 682.867L732.638 649.811M735.547 764.269C737.529 761.999 742.1 757.306 744.536 756.697C747.58 755.936 781.446 735.958 792.862 726.636C804.277 717.313 833.768 689.154 841.949 675.075C850.13 660.996 855.077 644.633 853.555 639.306C852.033 633.979 841.568 630.935 843.471 630.364C844.993 629.907 842.837 611.401 841.568 602.205M841.568 602.205C837.854 605.251 828.764 610.457 822.116 606.912C815.469 603.366 818.608 621.808 821.008 631.472L807.654 637.441M791.787 680.483L804.196 685.998L821.568 670.005L816.053 663.386L818.535 659.25L834.529 671.108L837.01 667.247L807.654 637.441M791.787 680.483L799.508 697.029L800.611 705.026L791.787 710.265L732.638 649.811M791.787 680.483L781.032 668.902L789.58 682.138L789.305 695.098L730.307 634.514M732.638 649.811L730.307 634.514M569.055 354.516L578.011 384.642L559.692 365.722L582.801 405.189M569.055 354.516L603.409 357.05M582.801 405.189L603.464 405.943M603.464 405.943C598.584 398.042 589.243 381.999 590.925 381.038C593.027 379.837 597.531 372.029 611.346 373.53C622.397 374.732 610.66 363.044 603.409 357.05M710.878 472.347C713.498 469.861 717.501 462.842 712.556 454.65C707.61 446.459 716.162 451.881 721.056 455.616C720.348 460.124 719.665 469.411 722.602 470.493C725.538 471.575 730.137 469.784 732.069 468.754L714.283 500.416M710.878 472.347L714.283 500.416M596.109 540.426C596.111 538.8 603.346 514.419 600.515 508.599C598.25 503.943 605.758 507.918 609.796 510.487C609.114 514.419 608.537 522.535 611.683 523.542C614.829 524.549 620.649 523.962 623.165 523.542L630.093 539.816M596.109 540.426L613.097 540.122M630.093 539.816L622.38 539.955M622.38 539.955L621.435 530.62L611.84 528.89L613.097 540.122M622.38 539.955L613.097 540.122M279.075 650.594L203.463 669.169L194.414 677.585L203.042 679.058L197.361 682.424L199.465 693.155L196.309 696.311L203.673 695.68L201.569 699.467L208.933 697.994L208.091 702.413L200.938 705.358L209.985 706.2L251.585 690.908L214.813 708.614L216.297 709.356L211.668 715.668L220.505 716.089L276.222 699.044M279.075 650.594C278.107 666.485 277.148 682.81 276.222 699.044M419.392 399.229C418.121 397.006 416.316 392.077 419.261 390.148C422.205 388.219 422.941 389.471 422.941 390.339C423.064 393.651 424.161 400.126 427.567 399.527M419.392 399.229L427.567 399.527M330.932 528.183C326.318 526.682 317.59 527.149 319.591 541.026C321.592 554.902 332.878 548.698 338.271 543.861C340.05 539.302 341.073 529.784 330.932 528.183ZM555.486 257.078C557.222 257.425 571.458 261.244 570.764 260.376C570.069 259.508 563.819 255.515 572.153 240.758C578.819 228.953 563.819 246.719 555.486 257.078ZM556.077 212.914C555.304 211.366 552.828 202.857 557.315 202.393C561.802 201.929 565.206 200.072 564.742 204.713C564.371 208.427 558.811 211.728 556.077 212.914ZM559.172 195.585C560.1 193.522 562.266 189.953 563.504 192.181C565.051 194.966 569.538 203.166 571.859 203.166C573.716 203.166 583.257 192.233 587.795 186.766V178.102C587.279 179.753 585.598 182.59 582.999 180.733C579.75 178.412 578.048 173.925 580.678 171.759C583.308 169.593 589.961 161.856 587.022 160C584.67 158.514 577.996 163.816 574.953 166.652C571.189 174.13 562.545 189.674 558.089 192.026L559.172 195.585ZM516.658 354.098C516.469 354.664 512.225 361.172 516.752 361.926C520.374 362.53 522.537 360.228 523.166 359.002L516.658 354.098ZM444.891 356.595C443.23 359.917 439.871 368.863 439.726 378.069C439.581 387.275 445.827 368.253 448.968 357.591L444.891 356.595Z" stroke="#849FC6" stroke-width="3" stroke-linecap="round" stroke-linejoin="round"/>
</svg>
