<svg width="1081" height="1033" viewBox="0 0 1081 1033" fill="none" xmlns="http://www.w3.org/2000/svg">
<path d="M399.013 364.84V364.84C389.728 362.308 377.786 360.698 374.151 351.787C370.246 342.217 366.438 330.638 364.144 323.029C363.854 322.064 364.008 321.028 364.557 320.184V320.184C366.072 317.852 364.343 314.78 361.565 314.864L358.94 314.944C357.602 314.984 356.342 315.58 355.46 316.587L353.75 318.542C352.662 319.785 351.115 320.53 349.465 320.605L346.74 320.729C345.444 320.788 344.287 319.925 343.972 318.667V318.667C343.548 316.969 341.655 316.105 340.094 316.898L322.458 325.853C321.412 326.384 320.407 326.998 319.543 327.791C312.656 334.106 301.283 351.438 302.053 379.394C302.698 402.835 316.045 412.336 326.891 415.284C330.648 416.305 333.379 420.338 331.929 423.951V423.951C326.157 438.335 317.932 457.932 316.095 458.851C313.355 460.221 313.352 477.345 311.982 482.825C310.885 487.212 315.713 502.575 319.088 512.042C319.929 514.401 320.679 516.393 321.226 517.759C322.902 521.949 324.834 532.546 326.395 540.85C327.74 548.001 331.586 554.439 338.284 557.281C355.063 564.401 372.068 558.417 379.448 553.72M399.013 364.84C400.037 361.318 409.512 355.571 439.224 360.75C476.365 367.224 443.654 365.52 482.839 378.127C522.025 390.735 583.358 413.905 591.536 417.994C599.714 422.083 646.396 447.979 652.529 449.001C658.662 450.024 680.129 450.705 685.581 453.09C688.409 454.328 701.876 461.16 714.467 467.305M399.013 364.84C408.576 364.503 424.068 366.143 435.355 372.742C449.174 380.821 458.512 397.208 472.323 405.301C476.839 407.947 481.447 410.839 485.837 413.884C500.838 424.291 501.823 445.812 486.595 455.883C481.475 459.27 476.647 460.726 473.321 458.089C462.773 449.723 456.953 442.449 456.226 429.718C455.499 416.988 451.134 406.804 447.133 406.804C443.233 406.804 451.429 408.878 453.192 432.9C453.285 434.157 453.182 435.315 452.784 436.511V436.511C450.091 444.603 444.579 461.074 445.758 469.521C446.754 476.657 447.163 484.376 446.042 490.823C443.132 507.555 443.132 523.558 435.858 527.923C428.583 532.288 388.145 538.417 379.448 553.72M725.853 472.763C732.474 475.853 737.409 477.947 738.055 477.624C740.1 476.602 744.188 474.898 741.803 473.535C739.418 472.172 732.052 466.539 725.853 472.763ZM725.853 472.763C722.394 471.148 718.475 469.261 714.467 467.305M714.467 467.305C717.424 464.235 724.571 458.094 729.499 458.094C735.659 458.094 740.846 457.445 744.736 458.634C748.627 459.823 757.597 470.197 757.813 471.602C757.974 472.653 758.086 483.101 758.129 489.197C758.134 489.964 757.99 490.563 757.352 490.988V490.988C755.996 491.893 754.63 493.7 755.039 495.278C761.213 519.071 771.954 563.898 771.085 574.68C769.95 588.755 766.09 596.474 768.588 596.474C771.085 596.474 780.619 593.75 779.711 598.971C778.803 604.192 778.576 611.23 772.447 612.365C766.317 613.5 761.55 609.187 761.323 613.727C761.312 613.955 761.302 614.197 761.294 614.452C761.028 622.854 755.702 630.73 751.622 638.079V638.079C750.778 639.601 751.278 640.455 751.605 642.165C754.521 657.428 758.274 681.746 759.406 702.863C759.857 711.288 752.87 717.978 744.435 717.795V717.795C736.129 717.615 729.488 710.833 729.481 702.525L729.47 689.688L729.515 688.999C729.931 682.554 728.245 676.149 724.711 670.743L723.282 668.558C720.208 663.857 718.963 658.193 719.783 652.636V652.636C720.913 644.981 718.146 637.226 712.1 632.395C706.666 628.053 700.292 623.302 693.811 619.066M485.277 581.461C514.046 590.252 572.337 608.45 575.351 610.915C579.118 613.998 598.64 614.34 602.408 613.998C606.175 613.655 645.903 605.778 665.083 606.463C666.696 606.521 668.457 606.819 670.332 607.319M485.277 581.461C497.2 574.13 519.935 552.197 515.495 523.112M485.277 581.461L476.03 587.969V587.969C470.067 592.164 462.712 593.436 455.498 594.491C452.56 594.921 450.343 595.833 450.343 597.558C450.343 600.94 446.083 610.074 443.197 615.708C442.81 616.464 442.448 617.157 442.123 617.765L429.192 642.867L427.836 645.5C425.749 649.551 422.689 653.02 418.93 655.595L412.176 660.223C408.442 662.781 403.643 663.206 399.518 661.343V661.343C392.005 657.95 389.528 648.497 394.412 641.856L402.052 631.465C406.54 624.865 414.445 612.447 417.709 604.842M379.448 553.72C381.505 556.727 390.143 558.271 399.618 558.995M404.901 473.262C405.034 472.202 406.074 468.612 407.674 465.191M407.674 465.191C409.341 461.626 411.616 458.245 414.102 458.106C418.974 457.836 421.951 461.895 419.515 464.06C417.566 465.792 410.809 465.536 407.674 465.191ZM344.281 449.176C344.479 448.679 345.189 446.648 345.914 444.197M345.914 444.197C347.163 439.975 348.456 434.507 347.257 433.479C345.363 431.856 341.033 432.126 340.762 436.456C340.546 439.92 344.107 443.06 345.914 444.197ZM336.762 530.554C336.196 529.906 335.653 529.213 335.139 528.47C326.237 515.632 338.057 496.934 353.665 496.251C363.578 495.816 373.42 500.381 376.084 518.708C376.243 519.668 372.948 528.765 368.295 534.497M336.762 530.554C336.49 537.079 338.241 550.633 347.415 552.652C358.883 555.174 369.45 539.277 368.295 534.497M336.762 530.554C338.273 532.284 339.952 533.687 341.71 534.821M368.295 534.497C366.273 536.987 363.996 538.842 361.635 539.12C360.993 539.196 360.227 539.257 359.363 539.287M341.71 534.821C341.854 539.312 343.471 547.789 348.791 545.771C355.442 543.248 358.009 542.894 359.363 539.287M341.71 534.821C347.819 538.757 354.9 539.442 359.363 539.287M399.618 558.995C406.764 559.541 414.387 559.62 420.022 559.508M399.618 558.995C399.698 561.907 399.653 565.646 399.395 569.699C398.798 579.107 397.053 590.205 393.057 596.57C392.395 597.624 393.971 599.854 395.2 599.661V599.661C396.086 599.521 396.352 600.475 396.006 601.302L394.098 605.86C393.256 607.872 394.227 610.195 396.345 610.717C403.01 612.362 412.897 612.596 417.709 604.842M417.709 604.842C418.68 602.58 419.24 600.744 419.177 599.613C419.033 597.018 420.528 591.569 422.537 585.848M693.811 619.066C691.66 629.433 688.235 646.095 685.797 658.343C684.492 664.901 675.404 668.701 669.897 664.907V664.907C667.454 663.224 666.095 660.367 666.331 657.41L670.332 607.319M693.811 619.066C685.593 613.694 677.201 609.15 670.332 607.319M671.936 509.969C674.912 532.453 674.119 579.802 647.138 589.325M422.537 585.848C425.3 577.981 429.037 569.601 430.821 567.42C433.904 563.652 434.931 558.515 427.054 559.2C425.562 559.33 423.086 559.447 420.022 559.508M422.537 585.848C421.42 583.137 420.395 567.158 420.022 559.508M338.416 513.207C339.845 511.152 342.738 511.5 345.086 513.207C348.022 515.342 347.488 517.477 345.62 519.078C343.752 520.679 338.949 520.946 337.882 518.277C337.028 516.143 337.216 514.932 338.416 513.207ZM360.776 517.45C362.206 515.395 365.099 515.742 367.447 517.45C370.383 519.585 369.849 521.719 367.981 523.32C366.113 524.922 361.31 525.188 360.243 522.52C359.389 520.385 359.577 519.174 360.776 517.45ZM346.408 340.385C360.689 347.079 353.14 367.4 343.109 383.925C336.937 394.092 321.811 400.772 319.037 389.205C317.436 382.532 318.474 373.676 320.187 366.298C321.17 362.064 321.76 357.734 322.589 353.467C324.488 343.689 330.788 333.064 346.408 340.385Z" stroke="#849FC6" stroke-width="3"/>
</svg>
