<svg width="3812" height="3836" viewBox="0 0 3812 3836" fill="none" xmlns="http://www.w3.org/2000/svg">
<rect x="5.19531" y="5.70312" width="3801.41" height="3824.65" stroke="#7481A1" stroke-width="10"/>
<path d="M2599.18 1044.02L2623.61 1023.2M2599.18 1044.02L2495.1 965.283M2599.18 1044.02L2599.57 1094.09M2623.61 1023.2L2628.98 1104.17M2623.61 1023.2L2722.96 1096.22M2773.84 1133.61L2880.62 1030.44M2773.84 1133.61L2722.96 1096.22M2773.84 1133.61C2794.09 1133.73 2834.97 1135.91 2836.52 1143.67M2880.62 1030.44L2630.78 852.619C2628.17 850.761 2624.63 850.947 2622.22 853.067V853.067M2880.62 1030.44L2913.72 1054.9C2919.28 1059.01 2919.72 1067.16 2914.63 1071.84L2836.52 1143.67M2495.1 965.283L2458.24 1021.12M2495.1 965.283L2622.22 853.067M2283.78 894.178L2472.84 734.032C2476.74 730.731 2482.39 730.546 2486.5 733.586L2572.74 797.473M2283.78 894.178L2379.33 970.161M2283.78 894.178L2254.45 963.509M2572.74 797.473L2379.33 970.161M2572.74 797.473L2622.22 853.067M2379.33 970.161L2375.75 1061.33M2152.88 1008.94L2221.9 950.483C2225.74 947.23 2231.3 946.999 2235.39 949.921L2254.45 963.509M2152.88 1008.94L2253.1 1081.41M2152.88 1008.94L2121.72 1077.33M2253.1 1081.41L2327.89 1015.88M2253.1 1081.41L2254.87 1166.21M2327.89 1015.88L2254.45 963.509M2327.89 1015.88L2327.98 1020.88M2025 1122.85L2087.28 1064.73C2090.99 1061.26 2096.59 1060.79 2100.83 1063.58L2121.72 1077.33M2025 1122.85L2119.73 1191.45M2025 1122.85L1997.57 1189.45M2119.73 1191.45L2194.87 1125.46M2119.73 1191.45L2121.9 1286.09M2194.87 1125.46L2245.64 1174.6M2194.87 1125.46L2121.72 1077.33M1893.71 1232.66L1989.23 1301.79M1893.71 1232.66L1961.01 1174.5C1964.78 1171.24 1970.26 1170.92 1974.38 1173.72L1997.57 1189.45M1893.71 1232.66L1863.71 1304.96M1989.23 1301.79L2069.29 1238.11M1989.23 1301.79L1988.43 1398.11M2069.29 1238.11L1997.57 1189.45M2069.29 1238.11L2116.63 1290.88M1757.79 1348.88L1855.47 1420.8M1757.79 1348.88L1831.6 1290.82C1835.54 1287.72 1841.09 1287.68 1845.08 1290.73L1863.71 1304.96M1757.79 1348.88L1728.31 1420.6M1855.47 1420.8L1933.84 1358.54M1855.47 1420.8L1845.21 1515.72M1933.84 1358.54L1863.71 1304.96M1933.84 1358.54L1979.8 1405.03M1620.03 1463.81L1714.68 1536.33M1620.03 1463.81L1684.57 1401.35C1688.32 1397.72 1694.11 1397.23 1698.42 1400.17L1728.31 1420.6M1620.03 1463.81L1592.6 1530.51M1714.68 1536.33L1797.12 1467.63M1714.68 1536.33L1714.68 1632.5M1797.12 1467.63L1845.21 1515.72M1797.12 1467.63L1728.31 1420.6M1714.68 1632.5L1779.95 1574.11M1714.68 1632.5L1708.71 1638.75M1845.21 1515.72L1908.09 1466.98C1911.93 1464.01 1917.26 1463.9 1921.21 1466.72L2025.47 1540.91M1845.21 1515.72L1827.26 1531.77M1779.95 1574.11L1881.43 1651.87M1779.95 1574.11L1827.26 1531.77M1881.43 1651.87L1798.66 1728.83M1881.43 1651.87L1941.77 1699.46M1798.66 1728.83L1693.39 1654.78M1798.66 1728.83L1803.16 1815.99M1693.39 1654.78L1708.71 1638.75M1693.39 1654.78L1661.82 1714.52M2025.47 1540.91L1939.73 1611.68M2025.47 1540.91L2060.17 1572.9M1939.73 1611.68L1827.26 1531.77M1939.73 1611.68L1941.77 1699.46M1941.77 1699.46L1883.42 1749.14M1941.77 1699.46C1943.73 1698.29 1954.26 1688.97 1968.58 1676.01M2054.05 1597.39L2060.17 1572.9M2054.05 1597.39C2053.1 1604.32 2052.03 1617.37 2053.19 1627.28C2053.84 1632.84 2052.11 1639.11 2047.46 1642.23L2039.45 1647.6M2054.05 1597.39C2043.72 1606.99 2030.24 1619.47 2016.22 1632.4M2060.17 1572.9L2081.34 1537.24C2081.85 1536.39 2082.24 1535.48 2082.5 1534.52L2098.93 1474.41M1979.8 1405.03L1972.91 1412.54C1968.29 1417.58 1969.34 1425.57 1975.11 1429.25L2065.12 1486.64C2068.53 1488.82 2072.86 1488.94 2076.39 1486.97L2098.93 1474.41M1979.8 1405.03L1988.43 1398.11M2139.34 1408.61L2111.59 1434.38C2110.09 1435.77 2109 1437.56 2108.46 1439.54L2098.93 1474.41M2139.34 1408.61L2072.93 1361.8M2139.34 1408.61L2188.1 1360.59M1988.43 1398.11L2045.6 1352.26C2049.42 1349.19 2054.81 1349.03 2058.82 1351.85L2072.93 1361.8M2072.93 1361.8L2105.08 1301.39M2105.08 1301.39L2188.1 1360.59M2105.08 1301.39L2116.63 1290.88M2188.1 1360.59L2271.8 1295.27M2271.8 1295.27L2205.52 1249.76M2271.8 1295.27L2316.71 1246.95M2271.8 1295.27C2301.56 1272.38 2363.83 1227.4 2374.86 1230.55C2388.33 1234.4 2430 1226.03 2467.73 1240.34C2469.46 1241 2471.32 1241.27 2473.16 1241.08C2485.67 1239.85 2508.91 1238.72 2520.57 1242.37C2533.17 1246.3 2674.16 1281.42 2743.07 1298.48C2770.97 1302.75 2833.46 1309.51 2860.23 1302.42M2205.52 1249.76L2187.8 1237.6C2183.59 1234.71 2177.94 1235.09 2174.17 1238.53L2121.9 1286.09M2205.52 1249.76L2236.41 1182.99M2236.41 1182.99L2316.71 1246.95M2236.41 1182.99L2245.64 1174.6M2316.71 1246.95L2401.77 1176.18M2401.77 1176.18L2336.73 1132.18M2401.77 1176.18L2462.33 1134.68M2336.73 1132.18C2339.22 1128.19 2359.35 1087.27 2369.1 1067.31M2336.73 1132.18L2329.93 1127.58M2369.1 1067.31L2462.33 1134.68M2369.1 1067.31L2371.95 1062.15M2462.33 1134.68L2543.98 1082.28M2543.98 1082.28L2458.24 1021.12M2543.98 1082.28L2599.57 1094.09M2458.24 1021.12L2444.34 1011.2C2440.14 1008.2 2434.42 1008.52 2430.59 1011.97L2375.75 1061.33M2375.75 1061.33L2371.95 1062.15M2329.93 1127.58L2318.43 1119.79C2314.22 1116.95 2308.62 1117.35 2304.86 1120.76L2254.87 1166.21M2329.93 1127.58L2327.98 1020.88M2254.87 1166.21L2245.64 1174.6M2121.9 1286.09L2116.63 1290.88M2599.57 1094.09L2628.98 1104.17M2628.98 1104.17L2654.2 1116.7C2657.49 1118.33 2661.36 1118.21 2664.58 1116.45C2683.64 1106.01 2715.57 1090.79 2722.96 1096.22M2836.52 1143.67L2851.97 1146.5M1552.66 1774.52L1662.86 1854.66M1552.66 1774.52L1578.82 1751.66M1552.66 1774.52L1525.38 1836.43M1749.02 1778.52L1662.86 1854.66M1749.02 1778.52L1800.25 1818.42M1749.02 1778.52L1661.82 1714.52M1662.86 1854.66L1666.25 1930.21M1592.6 1530.51L1668.12 1592.49M1592.6 1530.51L1571.35 1512.45C1567.19 1508.91 1561.06 1508.96 1556.96 1512.57L1475.76 1583.94M1668.12 1592.49L1582.63 1661.6M1668.12 1592.49L1708.71 1638.75M1582.63 1661.6L1475.76 1583.94M1582.63 1661.6L1584.86 1746.39M1475.76 1583.94L1453.68 1651.62M1584.86 1746.39L1633.18 1704.17C1637.06 1700.78 1642.77 1700.54 1646.93 1703.59L1661.82 1714.52M1584.86 1746.39L1578.82 1751.66M1453.68 1651.62L1529.91 1709.33M1453.68 1651.62L1426.07 1630.21C1421.85 1626.94 1415.89 1627.17 1411.93 1630.76L1333.28 1702.21M1529.91 1709.33L1441.57 1784.85M1529.91 1709.33L1578.82 1751.66M1441.57 1784.85L1333.28 1702.21M1441.57 1784.85L1444.06 1866.44M1333.28 1702.21L1315.93 1777.1M1444.06 1866.44L1491.7 1822.17C1495.63 1818.52 1501.62 1818.23 1505.88 1821.49L1525.38 1836.43M1444.06 1866.44L1434.46 1874.63M1611.74 1902.58L1523.08 1980.15M1611.74 1902.58L1525.38 1836.43M1611.74 1902.58L1655.47 1940.62M1523.08 1980.15L1411.3 1894.38M1523.08 1980.15L1525.42 2063.69M1411.3 1894.38L1434.46 1874.63M1411.3 1894.38L1378.45 1959.21M1800.25 1818.42L1739.27 1869.24M1800.25 1818.42L1803.16 1815.99M1739.27 1869.24L1849.72 1947.84M1739.27 1869.24L1711.49 1932.26M1849.72 1947.84L1937.13 1871.27M1849.72 1947.84L1854.49 2024.58M1937.13 1871.27L1848.49 1807.73M1937.13 1871.27L1986.16 1908.42M1711.49 1932.26L1794.15 1994.59M1711.49 1932.26L1689.6 1919.02C1685.33 1916.44 1679.85 1917.06 1676.26 1920.53L1666.25 1930.21M1794.15 1994.59L1711.49 2071.84M1794.15 1994.59L1844.97 2033.22M1711.49 2071.84L1601.04 1993.24M1711.49 2071.84L1713.52 2106.4M1601.04 1993.24L1655.47 1940.62M1601.04 1993.24L1569.63 2056.16M1655.47 1940.62L1666.25 1930.21M1713.52 2106.4L1644.35 2066.59C1642.62 2065.59 1640.64 2065.09 1638.63 2065.13L1580.82 2066.37M1713.52 2106.4L1742.66 2124.69M1742.66 2124.69L1765.66 2101.69C1769.26 2098.09 1774.85 2097.43 1779.19 2100.09L1798.54 2111.97M1742.66 2124.69L1778.35 2142.54C1779.83 2143.28 1781.13 2144.34 1782.14 2145.66L1835.49 2214.81M1882.24 2163.31L1835.49 2214.81M1882.24 2163.31L1798.54 2111.97M1882.24 2163.31L1933.91 2219.36M1835.49 2214.81L1881.45 2276.32M1844.97 2033.22L1821.94 2052.19M1844.97 2033.22L1854.49 2024.58M1821.94 2052.19L1933.16 2124.94M1821.94 2052.19L1798.54 2111.97M1933.16 2124.94L2019.79 2045.41M1933.16 2124.94L1933.91 2219.36M2019.79 2045.41L1931.31 1987.16M2019.79 2045.41L2082.54 2098.54M1803.16 1815.99L1822.85 1799.5C1826.7 1796.28 1832.24 1796.07 1836.32 1799L1848.49 1807.73M1883.42 1749.14L1987.57 1824.36M1883.42 1749.14L1848.49 1807.73M1987.57 1824.36L2030.64 1791.71C2031.81 1790.82 2033.14 1790.18 2034.56 1789.81C2051.18 1785.56 2075.47 1779.17 2099.52 1772.48M1987.57 1824.36L1986.16 1908.42M1986.16 1908.42L1968.47 1924.34M1986.16 1908.42L2042.92 1859.65C2046.51 1856.57 2051.68 1856.13 2055.75 1858.56L2059.1 1860.58M1854.49 2024.58L1904.38 1979.32C1908.1 1975.95 1913.63 1975.52 1917.82 1978.28L1931.31 1987.16M1315.93 1777.1L1381.05 1831.36M1315.93 1777.1L1286.89 1753.26C1282.7 1749.82 1276.63 1749.94 1272.59 1753.56L1195.25 1822.61M1381.05 1831.36L1297.69 1906.98M1381.05 1831.36L1434.46 1874.63M1297.69 1906.98L1195.25 1822.61M1297.69 1906.98L1299.33 1990.96M1195.25 1822.61L1167.72 1896.04M1299.33 1990.96L1346.3 1946.79C1350.16 1943.16 1356.06 1942.8 1360.34 1945.93L1378.45 1959.21M1299.33 1990.96L1291.12 1999.01M1465.32 2022.88L1427.01 2057.99M1465.32 2022.88L1516.12 2071.3M1465.32 2022.88L1378.45 1959.21M1427.01 2057.99C1403.61 2061.18 1355.26 2070.63 1349.13 2082.89M1427.01 2057.99C1445.33 2051.67 1494.05 2064.23 1516.12 2071.3M1349.13 2082.89L1266.78 2022.88M1349.13 2082.89C1337.32 2089.76 1313.28 2110.94 1311.58 2140.65M1266.78 2022.88L1291.12 1999.01M1266.78 2022.88L1242.25 2085.78M1516.12 2071.3L1580.82 2066.37M1516.12 2071.3L1525.42 2063.69M1516.12 2071.3C1527.28 2081.48 1551 2104.61 1556.54 2115.68C1562.08 2126.76 1591.91 2184.12 1606.14 2211.41L1713.4 2427.09M1167.72 1896.04L1240.15 1954.09M1167.72 1896.04L1145.84 1880.64C1141.87 1877.85 1136.53 1877.99 1132.72 1880.99L1049.57 1946.27M1240.15 1954.09L1151.77 2028.64M1240.15 1954.09L1291.12 1999.01M1151.77 2028.64L1049.57 1946.27M1151.77 2028.64L1151.65 2114.42M1049.57 1946.27L1020.05 2020.77M1151.65 2114.42L1204.87 2067.71C1208.86 2064.21 1214.79 2064.06 1218.95 2067.35L1227 2073.72L1242.25 2085.78M1151.65 2114.42L1142.39 2122.9M1311.58 2140.65L1309.65 2172.63M1311.58 2140.65L1242.25 2085.78M1309.65 2172.63L1245.56 2222.22M1309.65 2172.63C1308.86 2191.94 1308.65 2232.64 1314.09 2241.04M1245.56 2222.22L1217.9 2221.62M1245.56 2222.22C1261.39 2216.05 1290.84 2240.02 1303.59 2252.78M1217.9 2221.62L1119.91 2143.46M1217.9 2221.62C1162.26 2220.64 1144.55 2254.95 1141.86 2254.95M1119.91 2143.46L1142.39 2122.9M1119.91 2143.46L1090.62 2213.15M1580.82 2066.37L1569.63 2056.16M1569.63 2056.16L1560.09 2047.46C1556.06 2043.79 1549.94 2043.62 1545.71 2047.08L1525.42 2063.69M1020.05 2020.77L1093.76 2080.11M1020.05 2020.77L989.543 1997.9C985.332 1994.74 979.473 1995.01 975.567 1998.54L888.799 2076.96M1093.76 2080.11L1002.52 2163.26M1093.76 2080.11L1142.39 2122.9M1002.52 2163.26L888.799 2076.96M1002.52 2163.26L1004.75 2237.78M888.799 2076.96L870.864 2146.38M1090.62 2213.15L1141.86 2254.95M1090.62 2213.15L1069.63 2196.57C1065.6 2193.38 1059.91 2193.41 1055.91 2196.62L1004.75 2237.78M1141.86 2254.95L1116.69 2324.17M961.616 2272.48L1072.64 2360.58M961.616 2272.48L947.037 2326.6C945.947 2330.65 947.249 2334.96 950.396 2337.72L1077.1 2449.11M961.616 2272.48L990.888 2248.93M1072.64 2360.58L1116.69 2324.17M1072.64 2360.58L1077.1 2449.11M1116.69 2324.17C1118.36 2344.22 1125.27 2364.03 1128.53 2371.43L1143.46 2401.45M1077.1 2449.11L1098.8 2431.16C1102.41 2428.18 1107.59 2428.07 1111.33 2430.89V2430.89M1077.1 2449.11L1148.88 2459.28M1077.1 2449.11L1019.85 2411.18M1077.1 2449.11C1077.1 2449.11 973.384 2459.39 977.299 2574.89M1148.88 2459.28L1183.16 2481.25M1148.88 2459.28L1111.33 2430.89M1148.88 2459.28L1159.31 2555.12M1183.16 2481.25L1143.46 2401.45M1183.16 2481.25L1198.97 2527.7M1143.46 2401.45L1111.33 2430.89M1004.75 2237.78L990.888 2248.93M990.888 2248.93L941.404 2206.65M870.864 2146.38L844.254 2124.21C840.187 2120.82 834.282 2120.81 830.202 2124.18L750.283 2190.27C744.99 2194.64 744.958 2202.75 750.217 2207.17L845.332 2287.08M870.864 2146.38L941.404 2206.65M845.332 2287.08L941.404 2206.65M845.332 2287.08L844.552 2376.78M844.552 2376.78L901.248 2324.52C905.31 2320.78 911.519 2320.63 915.757 2324.17L1019.85 2411.18M844.552 2376.78L839.314 2381.26M1019.85 2411.18L928.319 2493.28M928.319 2493.28L810.158 2406.18M928.319 2493.28L932.286 2574.1M810.158 2406.18L790.526 2461.93C788.971 2466.34 790.38 2471.26 794.038 2474.18L925.893 2579.46M810.158 2406.18L839.314 2381.26M977.299 2574.89L957.257 2560.73C952.683 2557.5 946.409 2558.22 942.687 2562.4L932.286 2574.1M977.299 2574.89L972.85 2603.93C972.552 2605.88 972.783 2607.88 973.519 2609.7L1008.1 2695.64M1159.31 2555.12C1165.63 2582.62 1187.94 2636.35 1229.98 2656.28C1237.74 2659.95 1244.74 2652.1 1241.77 2644.04L1198.97 2527.7M1159.31 2555.12L1198.97 2527.7M1968.47 1924.34L2074.58 1997.73M1968.47 1924.34L1931.31 1987.16M2074.58 1997.73L2159.47 1920.8M2074.58 1997.73L2082.54 2098.54M2159.47 1920.8L2179.14 1941.09M2159.47 1920.8C2173.64 1889.44 2178.15 1875.88 2195.37 1859.73M2159.47 1920.8L2059.1 1860.58M2082.54 2098.54L2215.18 1978.28M2082.54 2098.54L1992.36 2184.89M2215.18 1978.28C2220.37 1975.72 2232.08 1972.03 2237.45 1977.72C2244.16 1984.83 2322.35 2025.5 2338.14 2025.89M2215.18 1978.28L2179.14 1941.09M1933.91 2219.36L1960.97 2190.27C1962.84 2188.26 1965.41 2187.02 1968.15 2186.8L1992.36 2184.89M1933.91 2219.36L1881.45 2276.32M1933.91 2219.36C1913.89 2252.02 1926.94 2328.17 1935.97 2362.17M1992.36 2184.89C2005.21 2197.97 2031.81 2229.77 2035.37 2252.33C2038.93 2274.88 2046.25 2317.61 2049.46 2336.16M1992.36 2184.89C1993.59 2207.61 1997.53 2255.44 2003.46 2264.94C2010.88 2276.81 2025.72 2333.19 2049.46 2336.16M1881.45 2276.32L1935.97 2362.17M932.286 2574.1L925.893 2579.46M731.862 2742.07L848.501 2829.81M731.862 2742.07L917.633 2586.38M731.862 2742.07L710.12 2786.13M848.501 2829.81L1008.1 2695.64M848.501 2829.81L849.703 2898.02C849.87 2907.48 838.806 2912.72 831.59 2906.6L710.598 2803.99C706.749 2800.72 705.615 2795.26 707.849 2790.73L710.12 2786.13M1008.1 2695.64L1030.83 2760.56M1030.83 2760.56L892.331 2878.5M1030.83 2760.56L1087.1 2887.7M892.331 2878.5L1001.08 2959.11M892.331 2878.5L868.097 2926.97C865.813 2931.54 866.974 2937.08 870.9 2940.34L1005.94 3052.71M1001.08 2959.11L1087.1 2887.7M1001.08 2959.11L1005.94 3052.71M1087.1 2887.7L1111.98 2964.52M1005.94 3052.71L1082.23 2989.68M1111.98 2964.52L1163.92 3087.88M1111.98 2964.52L1082.23 2989.68M1052.47 3014.84L1025.12 3061.21C1022.46 3065.71 1023.34 3071.46 1027.22 3074.96L1165.55 3199.87M1052.47 3014.84L1152.02 3094.37M1052.47 3014.84L1082.23 2989.68M1165.55 3199.87L1152.02 3094.37M1165.55 3199.87L1205.04 3186.88M1152.02 3094.37L1163.92 3087.88M1163.92 3087.88L1205.04 3186.88M1205.04 3186.88L1214.92 3207.75M925.893 2579.46L917.633 2586.38M868.483 2548.29L764.782 2462.61C760.721 2459.25 754.849 2459.25 750.782 2462.59L694.425 2509.01M868.483 2548.29L690.744 2695.89M868.483 2548.29L917.633 2586.38M690.744 2695.89L577.962 2604.94M690.744 2695.89L695.421 2791.51M577.962 2604.94L564.973 2634.56M577.962 2604.94L685.936 2516.01M695.421 2791.51L710.12 2786.13M695.421 2791.51L557.969 2669.5C554.401 2666.33 553.281 2661.23 555.198 2656.86L564.973 2634.56M530.927 2552.02L626.498 2466.27M530.927 2552.02L426.191 2464.31M530.927 2552.02L540.742 2654.14M626.498 2466.27L685.936 2516.01M626.498 2466.27L564.9 2416.76M426.191 2464.31L516.15 2388.93C520.172 2385.56 526.015 2385.5 530.106 2388.79L564.9 2416.76M426.191 2464.31L398.251 2536.74M540.742 2654.14L564.973 2634.56M540.742 2654.14L442.719 2573.38M685.936 2516.01L694.425 2509.01M782.291 2330.77L839.314 2381.26M782.291 2330.77L685.433 2255.84C681.244 2252.6 675.342 2252.81 671.387 2256.33L588.528 2330.11M782.291 2330.77L693.264 2415.87M588.528 2330.11L693.264 2415.87M588.528 2330.11L564.9 2416.76M693.264 2415.87L694.425 2509.01M398.251 2536.74L442.719 2573.38M398.251 2536.74L394.763 2551.42M442.719 2573.38L442.762 2590.02M442.762 2590.02L1169.01 3220.27M442.762 2590.02L394.763 2551.42M1169.01 3220.27L1214.92 3207.75M1169.01 3220.27L1158.57 3249.49M1214.92 3207.75L1225.75 3227.31M1158.57 3249.49L406.025 2598.81C404.138 2597.17 402.862 2594.95 402.406 2592.5L394.763 2551.42M1158.57 3249.49L1225.75 3227.31M1225.75 3227.31L1243.57 3267.36M1156.16 3288.61L1170.3 3275C1174.8 3270.67 1181.98 3270.94 1186.14 3275.59L1199.24 3290.27M1156.16 3288.61L1168.6 3303.12C1172.66 3307.86 1179.86 3308.27 1184.43 3304.02L1199.24 3290.27M1156.16 3288.61L1159.12 3332.28C1159.35 3335.57 1161.04 3338.6 1163.74 3340.51L1171.94 3346.31C1176.24 3349.36 1182.11 3348.92 1185.92 3345.27L1197.33 3334.29C1199.6 3332.11 1200.83 3329.06 1200.7 3325.91L1199.24 3290.27M1243.57 3267.36L1231.46 3313.43C1230.85 3315.78 1231.02 3318.26 1231.96 3320.49C1236.95 3332.34 1253.72 3372.22 1265.1 3399.3M1243.57 3267.36C1382.93 3104.23 1993.8 2958.82 2214.87 3111.19M2851.97 1146.5L2921.56 1083.5C2924.8 1080.57 2929.46 1079.83 2933.45 1081.62L2965.62 1096.05M2851.97 1146.5L2957.26 1205.22M2957.26 1205.22L3035.21 1127.27M2957.26 1205.22C2973.79 1214.67 3011.52 1231.54 3030.15 1223.44M3035.21 1127.27L2965.62 1096.05M3035.21 1127.27L3081.92 1155.38M3030.15 1223.44L3143.53 1281.15M3030.15 1223.44L3093.7 1162.47M3143.53 1281.15L3216.42 1208.26M3143.53 1281.15C3155.4 1293.36 3178.67 1317.01 3203.32 1337.31M3216.42 1208.26L3122.78 1160.58M3216.42 1208.26L3266.66 1275.77M3105.06 1151.57L3093.7 1162.47M3105.06 1151.57L2966.14 1048.18M3105.06 1151.57L3109.93 1062.66M3105.06 1151.57L3122.78 1160.58M3093.7 1162.47L3081.92 1155.38M3510 1523.1C3510.67 1512.63 3514.86 1492.12 3526.19 1493.74C3540.37 1495.76 3604.14 1529.17 3629.45 1530.18C3649.7 1530.99 3756 1533.22 3806.61 1534.23M3510 1523.1C3476.55 1502.5 3429.7 1477.18 3377.29 1446.43M3510 1523.1C3586.04 1533.77 3583.93 1752.87 3573.37 1861.09L3545.7 2240.68M1968.58 1676.01C1982.37 1663.52 1999.68 1647.65 2016.22 1632.4M1968.58 1676.01L1995.93 1667.23M2016.22 1632.4L1995.93 1667.23M2016.22 1632.4L2039.45 1647.6M1995.93 1667.23L2021.8 1658.93C2022.78 1658.61 2023.71 1658.16 2024.56 1657.59L2039.45 1647.6M2966.14 1048.18L2997.69 994.387M2966.14 1048.18L2965.96 1064.21M2997.69 994.387L3109.93 1062.66M2997.69 994.387L3068.38 933.249C3071.9 930.208 3076.94 929.705 3080.99 931.993L3184.94 990.766M3109.93 1062.66L3184.94 990.766M3184.94 990.766L3219.11 1047.45M2965.62 1096.05L2965.96 1064.21M2965.96 1064.21L3081.92 1155.38M3122.78 1160.58L3158.56 1106.63M3158.56 1106.63L3264.18 1167.54M3158.56 1106.63L3219.11 1047.45M3264.18 1167.54L3341.66 1099.39M3264.18 1167.54L3266.66 1275.77M3341.66 1099.39L3381.38 1150.38M3341.66 1099.39L3242.15 1047.84M3266.66 1275.77L3387.18 1157.84M3266.66 1275.77L3203.32 1337.31M3387.18 1157.84L3381.38 1150.38M3387.18 1157.84L3497.31 1051.66C3501.51 1047.61 3501.81 1040.98 3498 1036.56L3454.25 985.82M3203.32 1337.31C3227.71 1357.4 3253.4 1374.15 3279.18 1387.44C3299.69 1398.01 3342.98 1426.3 3377.29 1446.43M3219.11 1047.45L3221.15 1045.46C3224.54 1042.15 3229.68 1041.38 3233.89 1043.56L3242.15 1047.84M3277.24 999.953L3341.93 937.531C3345.3 934.287 3350.34 933.521 3354.52 935.622L3454.25 985.82M3277.24 999.953L3380.05 1054.72M3277.24 999.953L3242.15 1047.84M3454.25 985.82L3380.05 1054.72M3380.05 1054.72L3381.38 1150.38M2706.32 783.044L2812.41 855.98M2706.32 783.044L2668.38 841.609M2706.32 783.044L2770.8 722.452M2812.41 855.98L2885.35 788.017M2812.41 855.98L2813.72 943.001M2885.35 788.017L2925.1 833.618M2885.35 788.017L2798.84 733.385M2813.72 943.001L2925.1 833.618M2813.72 943.001L2668.38 841.609M2925.1 833.618L2929.18 833.075M2668.38 841.609L2662.54 843.445M2818.97 680.108L2929.65 744.24M2818.97 680.108L2798.84 733.385M2818.97 680.108L2890.94 619.312M2929.65 744.24L3003.76 678.683M2929.65 744.24L2929.18 833.075M3003.76 678.683L2900.55 618.477C2897.49 616.694 2893.64 617.028 2890.94 619.312V619.312M3003.76 678.683L3039.26 715.741C3043.51 720.179 3043.3 727.237 3038.79 731.416L2929.18 833.075M2798.84 733.385L2786.98 725.89M2784.7 629.244L2861.24 564.851M2784.7 629.244L2685.07 554.523M2784.7 629.244L2786.98 725.89M2861.24 564.851L2765.38 499.052C2761.35 496.285 2755.97 496.511 2752.19 499.608L2685.07 554.523M2861.24 564.851L2890.94 619.312M2685.07 554.523L2659.7 614.474M2786.98 725.89L2780.12 721.559C2777.17 719.697 2773.34 720.064 2770.8 722.452V722.452M2565.4 662.047L2631.68 604.6C2635.55 601.245 2641.23 601.006 2645.37 604.024L2659.7 614.474M2565.4 662.047L2660.77 733.73M2565.4 662.047L2530.06 733.875C2527.72 738.64 2529.11 744.399 2533.37 747.563L2662.54 843.445M2660.77 733.73L2732.45 667.514M2660.77 733.73L2662.54 843.445M2732.45 667.514L2659.7 614.474M2732.45 667.514L2770.8 722.452M2371.95 1062.15L2327.98 1020.88M3377.29 1446.43C3377.29 1446.43 3565.41 1271.45 3655.38 1178.83C3724.05 1108.14 3652.79 1042.31 3647.32 1037.45C3647.08 1037.24 3647.17 1037.29 3646.91 1037.1C3638.49 1031.09 2965.4 550.716 2790.58 446.486C2749.35 421.902 2702.94 427.262 2668.44 460.568C2668.28 460.726 2668.35 460.673 2668.18 460.821C2662.58 465.623 1208.14 1711.72 258.622 2481.68C177.969 2544.91 192.972 2635.23 281.608 2696.07C281.941 2696.3 281.937 2696.26 282.243 2696.53C292.067 2704.96 861.496 3193.8 1098.2 3403.76C1146.98 3447.02 1220.95 3446.92 1265.1 3399.3M1265.1 3399.3C1285.89 3448.73 1316.99 3522.66 1323.95 3539.21C1324.88 3541.42 1325.04 3543.82 1324.47 3546.15C1316.39 3579.32 1304.27 3649.97 1314.43 3694.41C1324.97 3740.52 1344.02 3804.82 1352.23 3831.2M2073.5 2383.94L2410.74 2060.19M2073.5 2383.94L2115.21 2442.26C2116.41 2443.93 2117.11 2445.9 2117.26 2447.96C2118.75 2468.19 2123.52 2506.31 2132.61 2519.03C2144.57 2535.78 2185.27 2625.55 2185.27 2649.49C2185.27 2673.42 2202.53 2754.12 2211.47 2773.28C2220.41 2792.44 2240.85 2834.6 2243.41 2865.26C2245.45 2889.79 2225.23 3039.43 2214.87 3111.19M2073.5 2383.94L2049.46 2336.16M2410.74 2060.19C2391.8 2048.89 2350.78 2026.21 2338.14 2025.89M2410.74 2060.19C2419.52 2067.07 2451.96 2081 2511.41 2081.69C2585.72 2082.56 2568.44 2109.34 2589.18 2116.25C2605.49 2121.69 2703.38 2158.78 2752.64 2177.54C2754.27 2178.16 2755.68 2179.13 2756.85 2180.42C2770.8 2195.59 2798.26 2222.33 2809.51 2221.67C2821.07 2220.99 2855.31 2220.81 2871.78 2220.81C2872.33 2220.81 2872.84 2220.84 2873.39 2220.93C2967.01 2235.08 3160.06 2262.8 3189.7 2261.42C3219.43 2260.03 3330.55 2233.77 3382.39 2220.81C3402.84 2214.76 3449.61 2204.73 3473.12 2213.03C3479.03 2215.12 3485.66 2217.54 3492.49 2220.09M2338.14 2025.89C2345.53 2007.22 2341.21 1928.35 2338.89 1898.72C2336.56 1869.08 2270.32 1868.5 2237.78 1862.69C2211.75 1858.04 2187.84 1913.02 2179.14 1941.09M2674.5 1779.4C2674.5 1779.4 2722.4 1785.99 2742.16 1801.1M2674.5 1779.4C2674.5 1779.4 2616.16 1758.49 2596.89 1749.96C2585.54 1746.31 2563.45 1740.76 2540.7 1738.62M2674.5 1779.4L2627.12 1811M2742.16 1801.1C2755.68 1811.44 2783.19 1823.64 2800.57 1830.6C2805.18 1832.44 2808.08 1837.07 2807.61 1842.01L2807.23 1846.15C2806.87 1849.93 2804.56 1853.21 2801.4 1855.32C2788.74 1863.81 2771.66 1882.59 2772.67 1910.87C2772.85 1916.02 2769.9 1919.51 2764.78 1918.97C2741.44 1916.53 2676.01 1908.06 2623.21 1899.41M2742.16 1801.1L2616.53 1893.1M2400.24 1825.18C2418.95 1824.93 2440.68 1830.67 2454.33 1835.53C2457.07 1836.51 2459.18 1838.69 2461 1840.97C2466.09 1847.3 2477.95 1855.32 2499.27 1854.56C2531.81 1853.98 2545.17 1870.83 2548.66 1881.87C2549.99 1886.1 2582.93 1892.81 2623.21 1899.41M2400.24 1825.18C2392.92 1825.27 2386.06 1826.28 2380.33 1828.62C2377.52 1829.76 2374.42 1830.25 2371.49 1829.49C2364.47 1827.66 2356.04 1825.78 2346.75 1824.15M2400.24 1825.18L2466.17 1764.91C2470.43 1761.02 2476.97 1761.07 2481.15 1765.04L2511 1793.27M2623.21 1899.41L2616.53 1893.1M2315.63 1732.72C2293.12 1739.1 2262.79 1746.91 2242.76 1751.92C2240.29 1752.53 2237.7 1752.25 2235.34 1751.31C2230.63 1749.43 2224.29 1747.47 2217.06 1746.14M2315.63 1732.72C2326.67 1729.59 2335.83 1726.81 2340.98 1724.86C2343.44 1723.94 2346.12 1723.49 2348.7 1723.94C2357.13 1725.4 2367.27 1727.07 2378.33 1728.76M2315.63 1732.72L2345.97 1746.16M2345.97 1746.16L2378.33 1728.76M2345.97 1746.16L2346.75 1824.15M2378.33 1728.76C2422.2 1735.46 2480.64 1742.52 2505.08 1738.92C2516.11 1737.3 2528.5 1737.47 2540.7 1738.62M2346.75 1824.15C2333.08 1821.75 2317.55 1819.86 2301.91 1819.38M2217.06 1746.14C2204.07 1743.75 2188.22 1743.42 2173.86 1749.38C2169.81 1751.06 2164.26 1753.05 2157.65 1755.23M2217.06 1746.14L2289.4 1791.14M2289.4 1791.14L2256.52 1823.05M2289.4 1791.14L2301.91 1819.38M2256.52 1823.05C2245.77 1825.5 2235.97 1829.29 2227.9 1834.8C2213.22 1844.82 2203.04 1852.53 2195.37 1859.73M2256.52 1823.05C2270.6 1819.83 2286.31 1818.91 2301.91 1819.38M2157.65 1755.23C2142.2 1760.33 2120.95 1766.52 2099.52 1772.48M2157.65 1755.23L2124.68 1789.56M2110.67 1804.16L2195.37 1859.73M2110.67 1804.16L2059.1 1860.58M2110.67 1804.16L2124.68 1789.56M2099.52 1772.48L2124.68 1789.56M2316.32 1494.72C2299.25 1510.28 2240.05 1518.25 2240.81 1523.56C2240.96 1524.65 2240.92 1526.46 2240.75 1528.67C2240.07 1537.65 2249.15 1544.57 2257.24 1540.61L2301.7 1518.89C2303.08 1518.22 2304.6 1517.84 2306.14 1517.78L2355.78 1516.04M2316.32 1494.72C2333.4 1479.16 2369.83 1441.21 2377.8 1442.35M2316.32 1494.72L2355.78 1516.04M2377.8 1442.35C2385.77 1443.49 2405.12 1453.73 2409.3 1453.73C2413.47 1453.73 2465.84 1472.33 2477.23 1471.57C2488.61 1470.81 2579.69 1462.08 2585.76 1460.56C2590.62 1459.35 2636.36 1484.6 2658.62 1497.37M2377.8 1442.35L2382.91 1515.09M2658.62 1497.37L2699.17 1495.31C2701.89 1495.17 2704.47 1494.03 2706.39 1492.1L2770.19 1428.31M2658.62 1497.37L2640.42 1505.27C2639.16 1505.82 2637.8 1506.13 2636.43 1506.18L2382.91 1515.09M2355.78 1516.04L2382.91 1515.09M3545.7 2240.68C3537.98 2237.59 3524.45 2232.26 3509.93 2226.69M3545.7 2240.68L3525.32 2377.89M3509.93 2226.69L3525.32 2377.89M3509.93 2226.69C3504.17 2224.49 3498.26 2222.25 3492.49 2220.09M3525.32 2377.89L3809.12 2359.2M2214.87 3111.19C2226.75 3119.38 2237.51 3128.43 2247.01 3138.39C2248.34 3139.79 2249.25 3141.5 2249.65 3143.39C2254.3 3165.33 2260.43 3211.04 2251.86 3239.61C2243.05 3268.98 2256.39 3358.52 2264.53 3401.73C2264.8 3403.17 2265.36 3404.5 2266.13 3405.75C2270.79 3413.38 2277.16 3427.38 2280.45 3444.53M1314.09 2241.04C1319.52 2249.44 1309.35 2252.37 1303.59 2252.78M1314.09 2241.04L1347.07 2273.21C1351 2277.04 1357.33 2276.8 1360.96 2272.68V2272.68C1363.49 2269.8 1364.07 2265.69 1362.42 2262.22L1355.54 2247.73C1351.72 2239.7 1362.34 2232.69 1368.22 2239.36V2239.36C1368.79 2240 1369.23 2240.7 1369.56 2241.5C1404.89 2327.78 1469.52 2498.6 1449.09 2500.81C1428.58 2503.03 1396.18 2431.95 1382.55 2396.14L1303.59 2252.78M2627.12 1811L2540.7 1738.62M2627.12 1811L2616.53 1893.1M2540.7 1738.62L2511 1793.27M2511 1793.27L2616.53 1893.1M1935.97 2362.17C1963.44 2392.77 2020.27 2461.49 2027.78 2491.54C2037.17 2529.1 2072.65 2712.73 2088.3 2733.6C2103.95 2754.46 2157.16 2858.8 2158.2 2881.75M2503.05 3829.99C2486.68 3810.01 2448.03 3763.18 2424.45 3735.67C2402.85 3710.47 2360.94 3694.94 2337.95 3689.01C2334.33 3688.07 2331.36 3685.48 2329.42 3682.29C2321.83 3669.81 2303.24 3649.63 2291.89 3638.06C2290.15 3636.3 2289.04 3634.02 2288.76 3631.56C2284.36 3592.64 2277.4 3513.64 2281.73 3480.41C2283.39 3467.72 2282.55 3455.48 2280.45 3444.53M2280.45 3444.53L3492.49 2220.09" stroke="#7481A1" stroke-width="10"/>
</svg>
