<svg width="39" height="36" viewBox="0 0 39 36" fill="none" xmlns="http://www.w3.org/2000/svg">
<path d="M32.964 10.6544L24.547 10.7155M24.547 10.7155V30.7554C24.547 32.2959 23.8342 33.5421 22.7947 34.3342M24.547 10.7155L4.40584 0.914062L1.04387 13.2268C-0.216223 17.8417 3.25907 22.3908 8.04294 22.3884V22.3884M8.04294 22.3884V14.8673H10.0483M8.04294 22.3884L9.12891 23.8168M12.0537 27.6638V14.8673H10.0483M12.0537 27.6638L14.0975 30.352M12.0537 27.6638L10.5381 25.6703M10.0483 14.8673V9.85917H10.9993M16.9959 34.1058C16.941 34.0558 16.8868 34.004 16.8333 33.9505L15.7439 32.5175M16.9959 34.1058V23.6314M16.9959 34.1058C17.5537 34.6149 18.1806 34.9485 18.8285 35.1265M14.0975 30.352V27.4534H15.7439V32.5175M14.0975 30.352L15.7439 32.5175M9.12891 23.8168V20.9297H10.5381V25.6703M9.12891 23.8168L10.5381 25.6703M10.9993 9.85917V7.48691H12.7785V9.85917M10.9993 9.85917H12.7785M12.7785 9.85917H16.9959V23.6314M16.9959 23.6314L19.9282 20.6991L22.7947 23.5656V34.3342M22.7947 34.3342C22.0711 34.8855 21.1892 35.2168 20.2791 35.2741M18.8285 35.1265V33.2994H20.2791V35.2741M18.8285 35.1265C19.307 35.2579 19.797 35.3044 20.2791 35.2741M34.3904 8.24929C35.7088 7.61732 37.2898 8.17377 37.9218 9.49214C38.5538 10.8105 37.9973 12.3916 36.6789 13.0235C35.3606 13.6555 33.7795 13.0991 33.1475 11.7807C32.5156 10.4623 33.072 8.88126 34.3904 8.24929ZM35.0458 9.61484C35.6097 9.34453 36.286 9.58253 36.5563 10.1464C36.8266 10.7104 36.5886 11.3866 36.0247 11.657C35.4607 11.9273 34.7845 11.6893 34.5141 11.1254C34.2438 10.5614 34.4818 9.88516 35.0458 9.61484ZM10.9951 11.7043V13.2858H15.9993V11.7043H10.9951Z" stroke="#384559" stroke-opacity="0.5" stroke-width="0.5"/>
</svg>
