<svg width="820" height="748" viewBox="0 0 820 748" fill="none" xmlns="http://www.w3.org/2000/svg">
<path d="M702.959 215.971L523.137 217.276M523.137 217.276V645.41C523.137 678.321 507.909 704.946 485.701 721.868M523.137 217.276L92.8395 7.87744L9.65108 312.544C-11.5488 390.185 46.9195 466.719 127.403 466.679L170.543 466.658M170.543 466.658V305.975H213.386M170.543 466.658L193.744 497.174M256.228 579.361V305.975H213.386M256.228 579.361L299.893 636.793M256.228 579.361L223.849 536.771M213.386 305.975V198.982H233.703M361.814 716.989C360.642 715.919 359.484 714.813 358.341 713.671L335.066 683.056M361.814 716.989V493.214M361.814 716.989C373.732 727.865 387.125 734.992 400.966 738.794M299.893 636.793V574.866H335.066V683.056M299.893 636.793L335.066 683.056M193.744 497.174V435.493H223.849V536.771M193.744 497.174L223.849 536.771M233.703 198.982V148.3H271.714V198.982M233.703 198.982H271.714M271.714 198.982H361.814V493.214M361.814 493.214L424.461 430.566L485.701 491.806V721.868M485.701 721.868C470.242 733.647 451.4 740.724 431.957 741.948M400.966 738.794V699.761H431.957V741.948M400.966 738.794C411.189 741.602 421.658 742.596 431.957 741.948M733.432 164.588C761.598 151.086 795.376 162.974 808.877 191.14C822.378 219.306 810.491 253.084 782.325 266.585C754.159 280.087 720.381 268.199 706.88 240.033C693.378 211.867 705.266 178.089 733.432 164.588ZM747.433 193.762C759.481 187.987 773.929 193.071 779.704 205.119C785.479 217.166 780.394 231.615 768.347 237.39C756.299 243.165 741.851 238.08 736.076 226.032C730.301 213.985 735.386 199.537 747.433 193.762ZM233.612 238.4V272.188H340.523V238.4H233.612Z" stroke="#384559" stroke-width="10"/>
</svg>
