<svg width="81" height="24" viewBox="0 0 81 24" fill="none" xmlns="http://www.w3.org/2000/svg">
<path d="M6.41474 3.65683L18.357 3.6401C29.6381 3.62431 33.7769 6.06349 22.9523 9.24023C16.5646 11.1148 12.3396 13.3175 21.9301 16.0499M26.5605 23.2584L39.2476 23.2336M26.5605 23.2584C26.081 22.2581 25.5573 21.2882 24.9923 20.3504M26.5605 23.2584L28.071 21.7479M77.3089 23.1593L74.7402 23.1643M77.3642 23.1558V23.1558C80.8249 18.8594 80.699 12.453 77.0207 8.34132C71.5026 2.17315 65.2835 -2.80223 57.0285 5.45275M45.9347 23.2089L61.1316 23.1792M45.9347 23.2089L39.2476 23.2336M45.9347 23.2089L51.1636 17.98M61.1316 23.1792L74.7402 23.1643M61.1316 23.1792L55.88 17.9276M39.2476 23.2336L54.1356 8.34567M57.0285 5.45275C48.0148 2.49455 40.555 9.26396 34.2164 15.6025L32.6693 17.1496M57.0285 5.45275L55.5821 6.89921M57.0285 5.45275L58.4115 6.83569M74.7402 23.1643L59.9447 8.3689M21.9301 16.0499L26.7498 11.2301L32.6693 17.1496M21.9301 16.0499C23.0508 17.3933 24.0758 18.8295 24.9923 20.3504M32.6693 17.1496L28.071 21.7479M24.9923 20.3504V16.6608L26.5939 15.0592L28.071 16.5363V21.7479M54.1356 8.34567L57.0518 11.2618L59.9447 8.3689M54.1356 8.34567L55.5821 6.89921M59.9447 8.3689L58.4115 6.83569M55.5821 6.89921L56.965 8.28215L58.4115 6.83569M51.7598 17.3838L53.548 15.5956L55.305 17.3526M51.7598 17.3838L53.5169 19.1408L55.305 17.3526M51.7598 17.3838L51.1636 17.98M55.305 17.3526L55.88 17.9276M51.1636 17.98L53.4956 20.312L55.88 17.9276M2.68519 1.30269C4.00356 0.670725 5.58463 1.22716 6.2166 2.54554C6.84857 3.86391 6.29213 5.44497 4.97375 6.07694C3.65538 6.70891 2.07431 6.15247 1.44234 4.8341C0.810373 3.51573 1.36681 1.93466 2.68519 1.30269ZM3.34057 2.66824C3.90448 2.39792 4.58076 2.63594 4.85108 3.19985C5.1214 3.76377 4.88339 4.44005 4.31947 4.71036C3.75555 4.98068 3.07927 4.74267 2.80896 4.17875C2.53864 3.61484 2.77665 2.93856 3.34057 2.66824Z" stroke="#384559" stroke-opacity="0.5" stroke-width="0.5"/>
</svg>
