<svg width="25" height="83" viewBox="0 0 25 83" fill="none" xmlns="http://www.w3.org/2000/svg">
<path d="M12.4805 58.7215L0.736328 70.4656L12.4805 82.2098L24.2246 70.4656L12.4805 58.7215ZM12.4805 58.7215V9.57959M3.80664 70.4656L12.4795 61.7928L21.1523 70.4656M3.80664 70.4656L12.4795 79.1385M3.80664 70.4656L5.02342 69.2606L12.48 76.7171M21.1523 70.4656L12.4795 79.1385M21.1523 70.4656L19.9305 69.2666L12.48 76.7171M12.4795 79.1385L12.48 76.7171M14.6585 63.9388L14.6885 70.3562L12.4989 72.5344L10.3093 70.3562L10.2793 63.9388" stroke="#20262B" stroke-width="0.5"/>
<circle cx="12.4814" cy="4.80322" r="4.52832" stroke="#20262B" stroke-width="0.5"/>
<circle cx="12.4822" cy="4.80298" r="3.08374" stroke="#20262B" stroke-width="0.5"/>
</svg>
