<svg width="904" height="1769" viewBox="0 0 904 1769" fill="none" xmlns="http://www.w3.org/2000/svg">
<path d="M452.196 1259.78L201.294 1510.68L452.196 1761.58L703.099 1510.68L452.196 1259.78ZM452.196 1259.78L452.196 1150.83M266.888 1510.68L452.176 1325.39L637.463 1510.68M266.888 1510.68L452.176 1695.97M266.888 1510.68L292.883 1484.94L452.186 1644.24M637.463 1510.68L452.176 1695.97M637.463 1510.68L611.359 1485.06L452.186 1644.24M452.176 1695.97L452.186 1644.24M498.728 1371.24L499.369 1508.34L452.591 1554.88L405.812 1508.34L405.17 1371.24M452.174 209.947C508.554 209.947 554.259 164.243 554.259 107.863C554.259 51.4833 508.554 5.77856 452.174 5.77856C395.795 5.77856 350.09 51.4833 350.09 107.863C350.09 164.243 395.795 209.947 452.174 209.947ZM452.174 209.947L452.196 258.25M452.196 1150.83C698.675 1150.83 898.485 951.016 898.485 704.538C898.485 458.06 698.675 258.25 452.196 258.25M452.196 1150.83C205.718 1150.83 5.9082 951.016 5.9082 704.538C5.9082 458.06 205.718 258.25 452.196 258.25M637.742 704.496L452.454 889.783L267.167 704.496M637.742 704.496L452.454 519.208M637.742 704.496L611.746 730.242L452.444 570.939M267.167 704.496L452.454 519.208M267.167 704.496L293.271 730.112L452.444 570.939M452.454 519.208L452.444 570.939M405.902 843.936L405.26 706.834L452.039 660.298L498.817 706.834L499.459 843.936M523.408 107.858C523.408 147.193 491.52 179.08 452.185 179.08C412.85 179.08 380.963 147.193 380.963 107.858C380.963 68.5231 412.85 36.6358 452.185 36.6358C491.52 36.6358 523.408 68.5231 523.408 107.858ZM819.343 704.47C819.343 907.062 655.11 1071.29 452.518 1071.29C249.927 1071.29 85.6938 907.062 85.6938 704.47C85.6938 501.879 249.927 337.646 452.518 337.646C655.11 337.646 819.343 501.879 819.343 704.47ZM452.433 955.399L703.336 704.496L452.433 453.593L201.53 704.496L452.433 955.399Z" stroke="#384559" stroke-width="10"/>
</svg>
