<svg
    xmlns="http://www.w3.org/2000/svg"
    width="1617"
    height="4350"
    viewBox="0 0 1617 4350"
    fill="none"
    preserveAspectRatio="xMidYMax meet"
>
    <path
        d="M217.494 19.3699C217.494 29.6792 225.851 38.0365 236.16 38.0365C246.47 38.0365 254.827 29.6792 254.827 19.3699C254.827 9.06056 246.47 0.703206 236.16 0.703206C225.851 0.703206 217.494 9.06056 217.494 19.3699ZM267.421 4330.79C267.421 4341.1 275.778 4349.46 286.087 4349.46C296.397 4349.46 304.754 4341.1 304.754 4330.79C304.754 4320.48 296.397 4312.13 286.087 4312.13C275.778 4312.13 267.421 4320.48 267.421 4330.79ZM780.527 1131.09L783.096 1133.47L783.096 1133.47L780.527 1131.09ZM259.297 971.504L256.18 969.912L259.297 971.504ZM1273.9 1407.56L1270.88 1405.78L1273.9 1407.56ZM1387.26 2439.24L1388.81 2442.38L1387.26 2439.24ZM120.355 3661.45L117.838 3663.88L117.838 3663.88L120.355 3661.45ZM418.52 3004.02L419.942 3000.82L418.52 3004.02ZM233.514 17.0794C232.593 18.1435 231.677 19.2061 230.768 20.2673L236.082 24.8234C236.985 23.7705 237.893 22.7162 238.807 21.6604L233.514 17.0794ZM225.376 26.6173C223.601 28.7282 221.848 30.8334 220.117 32.9329L225.518 37.3859C227.234 35.304 228.973 33.2162 230.733 31.1225L225.376 26.6173ZM214.99 39.2144C213.302 41.3026 211.637 43.3851 209.993 45.4621L215.482 49.8064C217.111 47.748 218.762 45.6838 220.434 43.6137L214.99 39.2144ZM205.126 51.6763C203.512 53.7592 201.919 55.8364 200.348 57.9081L205.926 62.1376C207.482 60.0856 209.06 58.0278 210.659 55.9641L205.126 51.6763ZM195.328 64.6081C193.68 66.835 192.057 69.0554 190.458 71.2694L196.133 75.3674C197.716 73.1759 199.323 70.9777 200.955 68.7728L195.328 64.6081ZM185.736 77.8923C184.186 80.0935 182.661 82.2885 181.16 84.4771L186.933 88.4362C188.417 86.2713 189.926 84.0999 191.46 81.9217L185.736 77.8923ZM176.729 91.0243C175.249 93.2408 173.794 95.4508 172.364 97.6544L178.235 101.466C179.649 99.2876 181.088 97.1027 182.551 94.9111L176.729 91.0243ZM167.868 104.688C166.397 107.025 164.953 109.356 163.537 111.679L169.515 115.322C170.913 113.028 172.339 110.726 173.792 108.417L167.868 104.688ZM159.371 118.627C158.01 120.935 156.675 123.237 155.367 125.532L161.449 128.998C162.739 126.734 164.057 124.462 165.401 122.182L159.371 118.627ZM151.523 132.396C150.186 134.828 148.878 137.251 147.6 139.667L153.788 142.94C155.048 140.558 156.337 138.168 157.657 135.77L151.523 132.396ZM143.8 147C142.563 149.436 141.357 151.865 140.18 154.286L146.476 157.346C147.635 154.962 148.823 152.569 150.042 150.168L143.8 147ZM136.739 161.525C135.621 163.93 134.532 166.327 133.473 168.717L139.872 171.554C140.915 169.203 141.986 166.843 143.087 164.475L136.739 161.525ZM130.199 176.294C129.126 178.846 128.086 181.389 127.077 183.923L133.582 186.51C134.573 184.019 135.596 181.518 136.652 179.009L130.199 176.294ZM124.15 191.5C123.206 194.018 122.294 196.526 121.413 199.027L128.016 201.352C128.881 198.896 129.777 196.431 130.704 193.958L124.15 191.5ZM118.84 206.58C117.969 209.226 117.133 211.863 116.332 214.491L123.027 216.534C123.814 213.955 124.634 211.366 125.49 208.768L118.84 206.58ZM114.03 222.348C113.296 224.958 112.597 227.558 111.931 230.15L118.711 231.892C119.364 229.351 120.049 226.801 120.769 224.241L114.03 222.348ZM110.032 237.898C109.406 240.583 108.815 243.258 108.259 245.924L115.112 247.353C115.657 244.741 116.235 242.119 116.849 239.487L110.032 237.898ZM106.68 253.981C106.189 256.656 105.733 259.323 105.311 261.979L112.224 263.078C112.637 260.476 113.084 257.865 113.565 255.245L106.68 253.981ZM104.146 269.922C103.782 272.634 103.453 275.336 103.158 278.028L110.117 278.789C110.405 276.154 110.727 273.509 111.084 270.854L104.146 269.922ZM102.369 286.193C102.14 288.904 101.947 291.606 101.787 294.298L108.775 294.712C108.931 292.078 109.12 289.434 109.344 286.78L102.369 286.193ZM101.41 302.346C101.315 305.076 101.255 307.796 101.229 310.507L108.229 310.575C108.254 307.922 108.313 305.26 108.405 302.588L101.41 302.346ZM101.252 318.687C101.293 321.404 101.368 324.111 101.475 326.808L108.469 326.53C108.364 323.89 108.291 321.24 108.251 318.581L101.252 318.687ZM101.893 334.872C102.067 337.597 102.273 340.312 102.512 343.017L109.485 342.402C109.251 339.752 109.049 337.094 108.878 334.426L101.893 334.872ZM103.324 351.131C103.626 353.826 103.959 356.512 104.322 359.188L111.259 358.248C110.903 355.624 110.577 352.992 110.281 350.351L103.324 351.131ZM105.501 367.197C105.928 369.886 106.384 372.566 106.869 375.237L113.756 373.987C113.28 371.366 112.833 368.737 112.414 366.1L105.501 367.197ZM108.409 383.224C108.95 385.877 109.518 388.522 110.114 391.158L116.942 389.616C116.357 387.027 115.799 384.43 115.267 381.825L108.409 383.224ZM111.982 399.053C112.632 401.685 113.309 404.309 114.01 406.925L120.771 405.112C120.082 402.54 119.416 399.96 118.777 397.373L111.982 399.053ZM116.187 414.746C116.937 417.346 117.71 419.937 118.506 422.52L125.196 420.459C124.412 417.915 123.651 415.364 122.913 412.806L116.187 414.746ZM120.963 430.251C121.804 432.82 122.666 435.382 123.55 437.937L130.165 435.65C129.294 433.13 128.444 430.605 127.616 428.073L120.963 430.251ZM126.261 445.58C127.184 448.12 128.127 450.654 129.089 453.18L135.631 450.69C134.682 448.195 133.751 445.695 132.839 443.188L126.261 445.58ZM132.024 460.727C133.02 463.235 134.034 465.737 135.063 468.233L141.534 465.562C140.516 463.095 139.514 460.622 138.53 458.144L132.024 460.727ZM138.202 475.701C139.263 478.183 140.34 480.659 141.431 483.13L147.834 480.301C146.754 477.855 145.688 475.405 144.638 472.949L138.202 475.701ZM144.74 490.507C145.857 492.961 146.987 495.409 148.129 497.852L154.47 494.887C153.338 492.465 152.218 490.039 151.111 487.608L144.74 490.507ZM151.593 505.165C152.758 507.595 153.934 510.021 155.121 512.441L161.406 509.359C160.228 506.957 159.061 504.55 157.905 502.139L151.593 505.165ZM158.707 519.68C159.912 522.089 161.127 524.493 162.35 526.893L168.587 523.714C167.371 521.329 166.164 518.941 164.967 516.548L158.707 519.68ZM166.042 534.079C167.28 536.47 168.525 538.856 169.777 541.239L175.974 537.983C174.728 535.612 173.489 533.238 172.258 530.86L166.042 534.079ZM173.55 548.375C174.814 550.751 176.082 553.122 177.355 555.49L183.521 552.176C182.252 549.816 180.989 547.454 179.73 545.088L173.55 548.375ZM181.187 562.585C182.47 564.952 183.757 567.315 185.046 569.676L191.189 566.321C189.903 563.965 188.62 561.608 187.34 559.248L181.187 562.585ZM188.919 576.749C190.212 579.103 191.506 581.456 192.801 583.805L198.932 580.427C197.639 578.08 196.346 575.731 195.055 573.38L188.919 576.749ZM196.691 590.857C197.991 593.213 199.292 595.569 200.59 597.92L206.718 594.537C205.419 592.183 204.12 589.831 202.819 587.475L196.691 590.857ZM204.479 604.971C205.773 607.319 207.065 609.666 208.352 612.011L214.488 608.641C213.198 606.292 211.905 603.943 210.61 601.592L204.479 604.971ZM212.221 619.073C213.511 621.433 214.795 623.792 216.074 626.15L222.228 622.813C220.945 620.448 219.657 618.083 218.365 615.717L212.221 619.073ZM219.893 633.221C221.159 635.577 222.419 637.932 223.671 640.286L229.851 637C228.594 634.635 227.329 632.271 226.059 629.907L219.893 633.221ZM227.436 647.415C228.684 649.792 229.923 652.17 231.152 654.547L237.37 651.333C236.134 648.942 234.889 646.552 233.635 644.162L227.436 647.415ZM234.806 661.679C236.018 664.065 237.218 666.45 238.406 668.836L244.672 665.715C243.476 663.312 242.267 660.91 241.048 658.509L234.806 661.679ZM241.964 676.06C243.137 678.469 244.296 680.878 245.441 683.288L251.764 680.285C250.609 677.854 249.44 675.424 248.258 672.996L241.964 676.06ZM248.829 690.521C249.954 692.955 251.062 695.39 252.153 697.827L258.542 694.967C257.439 692.504 256.319 690.044 255.184 687.586L248.829 690.521ZM255.388 705.175C256.448 707.626 257.489 710.078 258.511 712.533L264.973 709.842C263.939 707.357 262.885 704.875 261.812 702.396L255.388 705.175ZM261.522 719.914C262.517 722.406 263.491 724.9 264.442 727.396L270.983 724.905C270.018 722.372 269.031 719.843 268.023 717.318L261.522 719.914ZM267.226 734.894C268.131 737.396 269.012 739.9 269.869 742.408L276.493 740.146C275.623 737.597 274.728 735.053 273.809 732.513L267.226 734.894ZM272.38 749.995C273.194 752.538 273.982 755.084 274.742 757.634L281.45 755.635C280.676 753.038 279.875 750.447 279.046 747.86L272.38 749.995ZM276.937 765.295C277.641 767.856 278.316 770.421 278.96 772.989L285.75 771.286C285.092 768.665 284.404 766.05 283.687 763.44L276.937 765.295ZM280.812 780.754C281.397 783.347 281.951 785.944 282.472 788.546L289.336 787.173C288.804 784.513 288.238 781.859 287.64 779.212L280.812 780.754ZM283.933 796.367C284.386 798.979 284.805 801.596 285.188 804.218L292.115 803.205C291.722 800.521 291.294 797.843 290.83 795.171L283.933 796.367ZM286.23 812.1C286.541 814.733 286.815 817.372 287.051 820.018L294.023 819.395C293.781 816.683 293.5 813.978 293.182 811.279L286.23 812.1ZM287.643 827.947C287.8 830.576 287.92 833.212 287.999 835.854L294.996 835.643C294.914 832.931 294.792 830.226 294.63 827.528L287.643 827.947ZM288.119 843.801C288.118 846.458 288.077 849.121 287.993 851.791L294.99 852.01C295.076 849.266 295.118 846.531 295.119 843.803L288.119 843.801ZM287.627 859.669C287.464 862.291 287.26 864.92 287.014 867.557L293.984 868.207C294.237 865.498 294.446 862.796 294.613 860.102L287.627 859.669ZM286.149 875.493C285.82 878.119 285.45 880.753 285.036 883.395L291.951 884.479C292.377 881.765 292.757 879.059 293.095 876.36L286.149 875.493ZM283.703 891.123C283.217 893.708 282.689 896.3 282.118 898.901L288.955 900.403C289.541 897.733 290.084 895.071 290.583 892.417L283.703 891.123ZM280.273 906.729C279.634 909.269 278.953 911.817 278.229 914.374L284.965 916.28C285.707 913.658 286.406 911.043 287.062 908.437L280.273 906.729ZM275.986 921.892C275.197 924.406 274.366 926.929 273.493 929.46L280.11 931.743C281.005 929.15 281.856 926.565 282.665 923.988L275.986 921.892ZM270.745 937.08C269.828 939.518 268.87 941.964 267.873 944.418L274.358 947.054C275.378 944.544 276.357 942.041 277.296 939.545L270.745 937.08ZM264.83 951.641C263.777 954.057 262.684 956.481 261.551 958.913L267.896 961.869C269.054 959.385 270.17 956.908 271.247 954.439L264.83 951.641ZM258.031 966.234C257.424 967.458 256.807 968.684 256.18 969.912L262.414 973.096C263.054 971.843 263.683 970.592 264.303 969.343L258.031 966.234ZM256.18 969.912C255.558 971.129 254.95 972.35 254.354 973.574L260.647 976.638C261.224 975.454 261.813 974.273 262.414 973.096L256.18 969.912ZM250.932 980.957C249.842 983.431 248.803 985.917 247.815 988.414L254.323 990.99C255.279 988.576 256.284 986.172 257.338 983.779L250.932 980.957ZM244.967 996.032C244.065 998.592 243.215 1001.16 242.416 1003.74L249.103 1005.81C249.875 1003.32 250.697 1000.83 251.569 998.357L244.967 996.032ZM240.171 1011.51C239.465 1014.13 238.811 1016.77 238.209 1019.41L245.033 1020.97C245.616 1018.41 246.248 1015.86 246.931 1013.32L240.171 1011.51ZM236.554 1027.35C236.051 1030.01 235.6 1032.67 235.199 1035.34L242.121 1036.38C242.509 1033.8 242.946 1031.22 243.432 1028.65L236.554 1027.35ZM234.142 1043.39C233.841 1046.08 233.589 1048.77 233.387 1051.46L240.368 1051.98C240.563 1049.38 240.807 1046.78 241.099 1044.17L234.142 1043.39ZM232.929 1059.56C232.826 1062.27 232.773 1064.97 232.768 1067.67L239.768 1067.68C239.772 1065.07 239.824 1062.45 239.924 1059.83L232.929 1059.56ZM232.9 1075.77C232.993 1078.48 233.134 1081.18 233.323 1083.87L240.306 1083.38C240.123 1080.77 239.986 1078.15 239.896 1075.53L232.9 1075.77ZM234.034 1091.95C234.319 1094.64 234.651 1097.32 235.03 1099.99L241.961 1099.01C241.593 1096.42 241.271 1093.82 240.995 1091.21L234.034 1091.95ZM236.306 1108C236.778 1110.66 237.296 1113.31 237.859 1115.95L244.705 1114.49C244.159 1111.93 243.656 1109.36 243.198 1106.78L236.306 1108ZM239.685 1123.85C240.339 1126.47 241.037 1129.08 241.78 1131.67L248.51 1129.75C247.789 1127.23 247.111 1124.69 246.477 1122.15L239.685 1123.85ZM244.141 1139.43C244.97 1141.99 245.844 1144.55 246.76 1147.09L253.345 1144.71C252.455 1142.25 251.607 1139.77 250.802 1137.27L244.141 1139.43ZM249.638 1154.66C250.638 1157.17 251.682 1159.66 252.767 1162.14L259.177 1159.32C258.124 1156.92 257.111 1154.5 256.139 1152.07L249.638 1154.66ZM256.143 1169.5C257.31 1171.93 258.518 1174.35 259.766 1176.75L265.975 1173.51C264.762 1171.18 263.589 1168.84 262.456 1166.47L256.143 1169.5ZM263.625 1183.86C264.95 1186.21 266.316 1188.54 267.721 1190.85L273.7 1187.21C272.336 1184.97 271.01 1182.71 269.722 1180.42L263.625 1183.86ZM272.05 1197.7C273.528 1199.96 275.045 1202.19 276.599 1204.4L282.322 1200.37C280.813 1198.22 279.34 1196.06 277.905 1193.87L272.05 1197.7ZM281.376 1210.94C283.003 1213.1 284.667 1215.22 286.368 1217.32L291.808 1212.92C290.156 1210.88 288.54 1208.81 286.961 1206.72L281.376 1210.94ZM291.569 1223.53C293.339 1225.57 295.145 1227.58 296.987 1229.57L302.116 1224.8C300.328 1222.88 298.575 1220.92 296.857 1218.94L291.569 1223.53ZM302.594 1235.4C304.495 1237.32 306.432 1239.2 308.403 1241.05L313.196 1235.95C311.283 1234.15 309.404 1232.32 307.558 1230.47L302.594 1235.4ZM314.412 1246.5C316.436 1248.28 318.494 1250.02 320.584 1251.73L325.014 1246.31C322.987 1244.65 320.991 1242.96 319.027 1241.24L314.412 1246.5ZM326.95 1256.75C329.097 1258.39 331.276 1259.99 333.486 1261.55L337.53 1255.84C335.386 1254.32 333.273 1252.77 331.191 1251.18L326.95 1256.75ZM340.171 1266.11C342.43 1267.59 344.719 1269.04 347.039 1270.45L350.672 1264.46C348.423 1263.1 346.203 1261.7 344.013 1260.26L340.171 1266.11ZM354.029 1274.53C356.378 1275.84 358.756 1277.12 361.161 1278.36L364.365 1272.13C362.033 1270.93 359.728 1269.69 357.45 1268.42L354.029 1274.53ZM368.463 1281.95C370.89 1283.1 373.344 1284.2 375.825 1285.26L378.582 1278.83C376.177 1277.8 373.797 1276.73 371.444 1275.62L368.463 1281.95ZM383.329 1288.32C385.854 1289.3 388.404 1290.24 390.98 1291.13L393.276 1284.52C390.778 1283.65 388.305 1282.74 385.857 1281.8L383.329 1288.32ZM398.629 1293.64C401.202 1294.43 403.799 1295.19 406.42 1295.9L408.25 1289.14C405.708 1288.45 403.189 1287.72 400.693 1286.95L398.629 1293.64ZM414.317 1297.89C416.915 1298.5 419.535 1299.06 422.177 1299.59L423.538 1292.72C420.974 1292.21 418.432 1291.66 415.911 1291.07L414.317 1297.89ZM430.164 1301.03C432.83 1301.46 435.516 1301.86 438.222 1302.2L439.114 1295.26C436.486 1294.92 433.878 1294.54 431.291 1294.12L430.164 1301.03ZM446.199 1303.1C448.877 1303.35 451.573 1303.56 454.288 1303.73L454.723 1296.75C452.085 1296.58 449.464 1296.38 446.863 1296.13L446.199 1303.1ZM462.437 1304.11C465.087 1304.19 467.754 1304.22 470.438 1304.22L470.427 1297.22C467.817 1297.22 465.222 1297.19 462.645 1297.11L462.437 1304.11ZM478.536 1304.08C481.251 1303.99 483.982 1303.86 486.728 1303.69L486.285 1296.7C483.61 1296.87 480.951 1297 478.308 1297.09L478.536 1304.08ZM494.666 1303.07C497.326 1302.82 499.999 1302.53 502.687 1302.2L501.836 1295.25C499.216 1295.58 496.61 1295.86 494.018 1296.1L494.666 1303.07ZM510.789 1301.09C513.414 1300.69 516.051 1300.26 518.701 1299.78L517.46 1292.89C514.874 1293.36 512.3 1293.78 509.739 1294.17L510.789 1301.09ZM526.568 1298.25C529.203 1297.7 531.848 1297.12 534.505 1296.49L532.899 1289.68C530.302 1290.29 527.717 1290.86 525.144 1291.4L526.568 1298.25ZM542.412 1294.52C544.953 1293.85 547.503 1293.15 550.063 1292.4L548.116 1285.68C545.61 1286.41 543.115 1287.1 540.63 1287.75L542.412 1294.52ZM557.773 1290.07C560.352 1289.25 562.941 1288.4 565.539 1287.51L563.271 1280.89C560.725 1281.76 558.189 1282.6 555.663 1283.39L557.773 1290.07ZM573.107 1284.82C575.577 1283.91 578.056 1282.97 580.542 1281.99L577.98 1275.48C575.541 1276.44 573.11 1277.36 570.688 1278.25L573.107 1284.82ZM588.024 1278.95C590.526 1277.91 593.035 1276.82 595.552 1275.71L592.713 1269.31C590.241 1270.41 587.777 1271.47 585.322 1272.5L588.024 1278.95ZM602.807 1272.4C605.189 1271.29 607.578 1270.14 609.973 1268.96L606.883 1262.68C604.528 1263.84 602.181 1264.96 599.84 1266.06L602.807 1272.4ZM617.177 1265.33C619.585 1264.09 621.999 1262.81 624.419 1261.51L621.092 1255.35C618.711 1256.63 616.336 1257.89 613.968 1259.11L617.177 1265.33ZM631.427 1257.64C633.709 1256.35 635.997 1255.04 638.289 1253.7L634.749 1247.66C632.491 1248.98 630.238 1250.28 627.991 1251.54L631.427 1257.64ZM645.182 1249.58C647.485 1248.17 649.793 1246.74 652.105 1245.28L648.364 1239.36C646.085 1240.8 643.81 1242.22 641.541 1243.6L645.182 1249.58ZM658.958 1240.87C661.133 1239.44 663.313 1237.99 665.496 1236.52L661.573 1230.72C659.418 1232.18 657.268 1233.61 655.122 1235.01L658.958 1240.87ZM672.059 1232C674.25 1230.47 676.445 1228.91 678.644 1227.33L674.551 1221.65C672.38 1223.21 670.212 1224.75 668.049 1226.26L672.059 1232ZM685.253 1222.49C687.382 1220.91 689.514 1219.3 691.65 1217.67L687.398 1212.11C685.288 1213.72 683.182 1215.31 681.079 1216.87L685.253 1222.49ZM697.874 1212.85C699.951 1211.22 702.032 1209.56 704.116 1207.88L699.722 1202.43C697.661 1204.09 695.604 1205.73 693.55 1207.34L697.874 1212.85ZM710.377 1202.76C712.467 1201.03 714.56 1199.28 716.655 1197.5L712.125 1192.16C710.051 1193.92 707.981 1195.66 705.914 1197.37L710.377 1202.76ZM722.723 1192.28C724.688 1190.58 726.655 1188.85 728.625 1187.09L723.971 1181.86C722.021 1183.6 720.074 1185.31 718.13 1187L722.723 1192.28ZM734.54 1181.77C736.514 1179.97 738.49 1178.15 740.469 1176.31L735.7 1171.19C733.74 1173.01 731.783 1174.81 729.828 1176.59L734.54 1181.77ZM746.412 1170.72C748.367 1168.86 750.325 1166.98 752.284 1165.07L747.406 1160.05C745.464 1161.94 743.525 1163.8 741.587 1165.65L746.412 1170.72ZM757.863 1159.6C759.725 1157.75 761.588 1155.89 763.453 1154L758.477 1149.08C756.628 1150.95 754.781 1152.8 752.935 1154.63L757.863 1159.6ZM769.053 1148.29C770.921 1146.36 772.791 1144.42 774.663 1142.45L769.593 1137.62C767.737 1139.57 765.882 1141.5 764.029 1143.41L769.053 1148.29ZM780.282 1136.49C781.22 1135.49 782.158 1134.48 783.096 1133.47L777.959 1128.71C777.028 1129.72 776.098 1130.72 775.168 1131.71L780.282 1136.49ZM783.096 1133.47C784.022 1132.47 784.949 1131.47 785.877 1130.48L780.77 1125.7C779.832 1126.7 778.895 1127.7 777.959 1128.71L783.096 1133.47ZM791.461 1124.6C793.327 1122.66 795.198 1120.74 797.073 1118.84L792.092 1113.93C790.195 1115.85 788.303 1117.79 786.416 1119.75L791.461 1124.6ZM802.713 1113.2C804.597 1111.34 806.486 1109.5 808.379 1107.68L803.526 1102.64C801.611 1104.48 799.701 1106.34 797.795 1108.22L802.713 1113.2ZM814.182 1102.17C816.162 1100.32 818.146 1098.49 820.134 1096.68L815.42 1091.5C813.408 1093.34 811.4 1095.19 809.398 1097.06L814.182 1102.17ZM826.11 1091.31C828.106 1089.54 830.105 1087.79 832.109 1086.06L827.539 1080.76C825.511 1082.51 823.487 1084.28 821.467 1086.07L826.11 1091.31ZM838.129 1080.95C840.193 1079.22 842.261 1077.51 844.332 1075.83L839.914 1070.4C837.817 1072.1 835.724 1073.83 833.634 1075.58L838.129 1080.95ZM850.638 1070.77C852.743 1069.11 854.851 1067.47 856.963 1065.85L852.706 1060.3C850.567 1061.93 848.432 1063.6 846.3 1065.28L850.638 1070.77ZM863.305 1061.07C865.424 1059.49 867.547 1057.94 869.671 1056.41L865.581 1050.73C863.428 1052.28 861.278 1053.85 859.131 1055.45L863.305 1061.07ZM876.296 1051.72C878.506 1050.18 880.719 1048.67 882.935 1047.17L879.024 1041.37C876.778 1042.88 874.535 1044.42 872.295 1045.98L876.296 1051.72ZM889.586 1042.77C891.806 1041.32 894.027 1039.9 896.249 1038.51L892.523 1032.58C890.269 1034 888.017 1035.44 885.767 1036.9L889.586 1042.77ZM903.067 1034.3C905.378 1032.89 907.69 1031.52 910.003 1030.17L906.474 1024.12C904.127 1025.49 901.782 1026.89 899.438 1028.31L903.067 1034.3ZM916.946 1026.19C919.261 1024.89 921.577 1023.62 923.893 1022.37L920.568 1016.21C918.217 1017.47 915.867 1018.77 913.518 1020.09L916.946 1026.19ZM930.915 1018.65C933.319 1017.41 935.723 1016.19 938.126 1015L935.017 1008.73C932.576 1009.94 930.136 1011.17 927.696 1012.44L930.915 1018.65ZM945.336 1011.5C947.739 1010.36 950.141 1009.25 952.543 1008.16L949.658 1001.79C947.219 1002.89 944.779 1004.02 942.338 1005.18L945.336 1011.5ZM959.78 1004.97C962.267 1003.9 964.753 1002.85 967.237 1001.84L964.589 995.36C962.064 996.392 959.538 997.452 957.011 998.54L959.78 1004.97ZM974.683 998.878C977.163 997.918 979.641 996.987 982.117 996.083L979.716 989.507C977.199 990.427 974.679 991.374 972.158 992.349L974.683 998.878ZM989.575 993.44C992.133 992.561 994.688 991.712 997.24 990.891L995.098 984.227C992.501 985.062 989.902 985.926 987.3 986.82L989.575 993.44ZM1004.88 988.518C1007.43 987.756 1009.97 987.023 1012.51 986.32L1010.63 979.575C1008.05 980.291 1005.47 981.037 1002.88 981.812L1004.88 988.518ZM1020.18 984.275C1022.79 983.607 1025.4 982.97 1028.01 982.363L1026.42 975.545C1023.76 976.163 1021.11 976.813 1018.44 977.493L1020.18 984.275ZM1035.8 980.634C1038.39 980.088 1040.98 979.573 1043.56 979.088L1042.27 972.208C1039.64 972.703 1037 973.228 1034.36 973.784L1035.8 980.634ZM1051.43 977.698C1054.08 977.26 1056.73 976.854 1059.36 976.48L1058.38 969.549C1055.69 969.931 1052.99 970.345 1050.29 970.792L1051.43 977.698ZM1067.25 975.452C1069.87 975.141 1072.49 974.862 1075.09 974.614L1074.43 967.646C1071.77 967.898 1069.1 968.183 1066.43 968.501L1067.25 975.452ZM1083.12 973.947C1085.78 973.758 1088.44 973.602 1091.09 973.479L1090.77 966.486C1088.06 966.612 1085.35 966.771 1082.62 966.965L1083.12 973.947ZM1099 973.209C1101.67 973.151 1104.32 973.126 1106.96 973.136L1106.99 966.136C1104.29 966.126 1101.58 966.151 1098.85 966.21L1099 973.209ZM1114.98 973.267C1117.64 973.346 1120.28 973.458 1122.91 973.605L1123.3 966.616C1120.61 966.466 1117.9 966.35 1115.18 966.27L1114.98 973.267ZM1130.79 974.149C1133.47 974.37 1136.13 974.628 1138.78 974.921L1139.55 967.963C1136.84 967.663 1134.11 967.399 1131.36 967.173L1130.79 974.149ZM1146.68 975.906C1149.3 976.269 1151.9 976.668 1154.48 977.102L1155.64 970.199C1152.99 969.754 1150.33 969.345 1147.65 968.972L1146.68 975.906ZM1162.34 978.543C1164.96 979.063 1167.56 979.619 1170.14 980.212L1171.71 973.389C1169.06 972.781 1166.39 972.21 1163.71 971.677L1162.34 978.543ZM1177.81 982.098C1180.39 982.773 1182.94 983.486 1185.48 984.235L1187.46 977.522C1184.86 976.752 1182.23 976.02 1179.59 975.327L1177.81 982.098ZM1193.08 986.617C1195.6 987.449 1198.08 988.318 1200.55 989.223L1202.96 982.653C1200.43 981.721 1197.87 980.827 1195.28 979.972L1193.08 986.617ZM1207.95 992.082C1210.42 993.083 1212.86 994.123 1215.28 995.2L1218.13 988.807C1215.64 987.697 1213.12 986.626 1210.58 985.595L1207.95 992.082ZM1222.45 998.546C1224.83 999.707 1227.18 1000.91 1229.5 1002.14L1232.79 995.966C1230.4 994.69 1227.97 993.453 1225.52 992.255L1222.45 998.546ZM1236.45 1006.01C1238.74 1007.33 1240.99 1008.7 1243.22 1010.1L1246.95 1004.18C1244.65 1002.73 1242.32 1001.32 1239.96 999.953L1236.45 1006.01ZM1249.84 1014.44C1252.03 1015.94 1254.18 1017.47 1256.3 1019.04L1260.47 1013.42C1258.28 1011.79 1256.05 1010.21 1253.79 1008.66L1249.84 1014.44ZM1262.57 1023.87C1264.63 1025.53 1266.65 1027.21 1268.64 1028.94L1273.23 1023.66C1271.17 1021.87 1269.08 1020.12 1266.95 1018.41L1262.57 1023.87ZM1274.52 1034.25C1276.44 1036.06 1278.33 1037.9 1280.18 1039.78L1285.17 1034.88C1283.26 1032.93 1281.3 1031.02 1279.31 1029.15L1274.52 1034.25ZM1285.6 1045.53C1287.37 1047.48 1289.1 1049.47 1290.8 1051.5L1296.17 1047.01C1294.41 1044.91 1292.62 1042.85 1290.79 1040.83L1285.6 1045.53ZM1295.75 1057.68C1297.36 1059.76 1298.92 1061.88 1300.44 1064.04L1306.16 1060C1304.58 1057.76 1302.96 1055.57 1301.3 1053.41L1295.75 1057.68ZM1304.87 1070.58C1306.3 1072.79 1307.7 1075.04 1309.05 1077.32L1315.07 1073.76C1313.67 1071.39 1312.23 1069.06 1310.74 1066.77L1304.87 1070.58ZM1312.93 1084.2C1314.18 1086.5 1315.38 1088.84 1316.54 1091.21L1322.83 1088.14C1321.63 1085.68 1320.38 1083.26 1319.1 1080.87L1312.93 1084.2ZM1319.9 1098.43C1320.96 1100.83 1321.97 1103.25 1322.95 1105.71L1329.46 1103.14C1328.45 1100.59 1327.4 1098.08 1326.3 1095.6L1319.9 1098.43ZM1325.71 1113.1C1326.59 1115.59 1327.43 1118.11 1328.22 1120.66L1334.9 1118.58C1334.08 1115.94 1333.22 1113.34 1332.31 1110.77L1325.71 1113.1ZM1330.43 1128.27C1331.12 1130.78 1331.76 1133.33 1332.36 1135.89L1339.18 1134.3C1338.56 1131.65 1337.89 1129.03 1337.19 1126.44L1330.43 1128.27ZM1334.03 1143.68C1334.55 1146.28 1335.02 1148.9 1335.44 1151.55L1342.35 1150.44C1341.91 1147.71 1341.43 1145.01 1340.9 1142.33L1334.03 1143.68ZM1336.56 1159.3C1336.9 1161.91 1337.19 1164.54 1337.44 1167.2L1344.41 1166.53C1344.15 1163.8 1343.85 1161.1 1343.51 1158.42L1336.56 1159.3ZM1338.08 1175.24C1338.24 1177.83 1338.37 1180.44 1338.46 1183.07L1345.45 1182.84C1345.36 1180.14 1345.23 1177.46 1345.06 1174.79L1338.08 1175.24ZM1338.6 1190.97C1338.61 1193.62 1338.58 1196.29 1338.52 1198.99L1345.51 1199.16C1345.58 1196.4 1345.61 1193.66 1345.6 1190.94L1338.6 1190.97ZM1338.2 1207.01C1338.07 1209.59 1337.9 1212.2 1337.69 1214.82L1344.67 1215.37C1344.88 1212.69 1345.05 1210.03 1345.19 1207.38L1338.2 1207.01ZM1336.96 1222.73C1336.68 1225.39 1336.36 1228.06 1336.01 1230.75L1342.95 1231.66C1343.31 1228.91 1343.63 1226.18 1343.92 1223.46L1336.96 1222.73ZM1334.88 1238.64C1334.48 1241.2 1334.05 1243.78 1333.58 1246.38L1340.47 1247.61C1340.95 1244.97 1341.39 1242.33 1341.8 1239.72L1334.88 1238.64ZM1332.09 1254.21C1331.56 1256.84 1330.99 1259.48 1330.39 1262.14L1337.22 1263.68C1337.83 1260.97 1338.41 1258.28 1338.95 1255.6L1332.09 1254.21ZM1328.55 1269.9C1327.93 1272.42 1327.27 1274.95 1326.59 1277.5L1333.35 1279.32C1334.04 1276.73 1334.71 1274.15 1335.34 1271.59L1328.55 1269.9ZM1324.44 1285.17C1323.69 1287.74 1322.91 1290.32 1322.11 1292.92L1328.79 1295C1329.61 1292.36 1330.4 1289.73 1331.16 1287.12L1324.44 1285.17ZM1319.62 1300.63C1318.81 1303.08 1317.96 1305.55 1317.1 1308.02L1323.7 1310.34C1324.58 1307.83 1325.44 1305.33 1326.26 1302.84L1319.62 1300.63ZM1314.4 1315.47C1313.48 1317.97 1312.52 1320.48 1311.54 1322.99L1318.06 1325.54C1319.06 1322.98 1320.03 1320.44 1320.96 1317.91L1314.4 1315.47ZM1308.51 1330.58C1307.51 1333.01 1306.49 1335.45 1305.44 1337.9L1311.88 1340.65C1312.94 1338.17 1313.98 1335.69 1314.99 1333.23L1308.51 1330.58ZM1302.3 1345.1C1301.23 1347.51 1300.13 1349.93 1299 1352.35L1305.36 1355.29C1306.49 1352.84 1307.61 1350.39 1308.69 1347.95L1302.3 1345.1ZM1295.56 1359.66C1294.38 1362.11 1293.18 1364.56 1291.95 1367.02L1298.22 1370.15C1299.46 1367.65 1300.67 1365.17 1301.86 1362.69L1295.56 1359.66ZM1288.38 1374.07C1287.19 1376.38 1285.98 1378.71 1284.74 1381.04L1290.92 1384.32C1292.17 1381.96 1293.4 1379.62 1294.61 1377.27L1288.38 1374.07ZM1280.95 1388.05C1279.67 1390.4 1278.36 1392.75 1277.03 1395.11L1283.13 1398.55C1284.47 1396.16 1285.8 1393.78 1287.09 1391.41L1280.95 1388.05ZM1272.97 1402.21C1272.28 1403.4 1271.58 1404.59 1270.88 1405.78L1276.92 1409.33C1277.63 1408.13 1278.33 1406.93 1279.02 1405.73L1272.97 1402.21ZM1270.88 1405.78C1270.17 1406.99 1269.47 1408.2 1268.78 1409.41L1274.87 1412.87C1275.54 1411.69 1276.22 1410.51 1276.92 1409.33L1270.88 1405.78ZM1264.79 1416.65C1263.5 1419.06 1262.26 1421.47 1261.06 1423.88L1267.32 1427C1268.49 1424.65 1269.71 1422.3 1270.96 1419.95L1264.79 1416.65ZM1257.59 1431.09C1256.48 1433.49 1255.41 1435.89 1254.39 1438.29L1260.82 1441.04C1261.82 1438.71 1262.86 1436.37 1263.95 1434.03L1257.59 1431.09ZM1251.36 1445.66C1250.35 1448.24 1249.39 1450.81 1248.48 1453.38L1255.07 1455.73C1255.96 1453.23 1256.9 1450.73 1257.88 1448.22L1251.36 1445.66ZM1245.88 1461.09C1245.06 1463.65 1244.29 1466.21 1243.57 1468.77L1250.3 1470.68C1251.01 1468.19 1251.76 1465.71 1252.55 1463.21L1245.88 1461.09ZM1241.53 1476.44C1240.88 1479.07 1240.28 1481.69 1239.73 1484.31L1246.58 1485.76C1247.12 1483.22 1247.7 1480.67 1248.33 1478.12L1241.53 1476.44ZM1238.18 1492.33C1237.71 1494.99 1237.3 1497.66 1236.93 1500.32L1243.86 1501.29C1244.22 1498.71 1244.62 1496.12 1245.08 1493.53L1238.18 1492.33ZM1235.96 1508.3C1235.68 1510.95 1235.45 1513.6 1235.27 1516.25L1242.25 1516.73C1242.43 1514.17 1242.65 1511.59 1242.92 1509.02L1235.96 1508.3ZM1234.85 1524.37C1234.76 1527.07 1234.71 1529.77 1234.71 1532.46L1241.71 1532.46C1241.71 1529.85 1241.76 1527.23 1241.84 1524.61L1234.85 1524.37ZM1234.85 1540.53C1234.94 1543.22 1235.08 1545.9 1235.26 1548.58L1242.24 1548.11C1242.07 1545.51 1241.94 1542.9 1241.85 1540.29L1234.85 1540.53ZM1235.93 1556.6C1236.2 1559.28 1236.51 1561.94 1236.86 1564.61L1243.8 1563.69C1243.46 1561.1 1243.16 1558.5 1242.9 1555.91L1235.93 1556.6ZM1238.04 1572.58C1238.48 1575.24 1238.95 1577.89 1239.47 1580.54L1246.34 1579.2C1245.84 1576.62 1245.37 1574.04 1244.95 1571.45L1238.04 1572.58ZM1241.13 1588.45C1241.71 1591.05 1242.33 1593.64 1242.99 1596.23L1249.78 1594.51C1249.13 1591.98 1248.53 1589.45 1247.96 1586.92L1241.13 1588.45ZM1245.07 1603.98C1245.8 1606.56 1246.56 1609.14 1247.36 1611.71L1254.05 1609.64C1253.27 1607.12 1252.52 1604.6 1251.81 1602.08L1245.07 1603.98ZM1249.86 1619.42C1250.72 1621.95 1251.6 1624.47 1252.52 1626.99L1259.1 1624.6C1258.2 1622.13 1257.33 1619.65 1256.49 1617.18L1249.86 1619.42ZM1255.33 1634.46C1256.3 1636.94 1257.3 1639.42 1258.33 1641.9L1264.79 1639.22C1263.78 1636.79 1262.81 1634.35 1261.86 1631.91L1255.33 1634.46ZM1261.49 1649.32C1262.57 1651.79 1263.69 1654.26 1264.82 1656.72L1271.18 1653.79C1270.06 1651.36 1268.97 1648.94 1267.9 1646.51L1261.49 1649.32ZM1268.22 1663.9C1269.38 1666.29 1270.56 1668.67 1271.76 1671.05L1278.01 1667.89C1276.82 1665.54 1275.66 1663.2 1274.52 1660.85L1268.22 1663.9ZM1275.44 1678.17C1276.69 1680.54 1277.97 1682.91 1279.26 1685.28L1285.4 1681.92C1284.12 1679.58 1282.87 1677.25 1281.63 1674.91L1275.44 1678.17ZM1283.2 1692.34C1284.5 1694.63 1285.82 1696.92 1287.16 1699.21L1293.2 1695.67C1291.87 1693.41 1290.57 1691.15 1289.29 1688.89L1283.2 1692.34ZM1291.23 1706.05C1292.61 1708.33 1294.01 1710.61 1295.42 1712.88L1301.37 1709.19C1299.97 1706.94 1298.59 1704.69 1297.23 1702.43L1291.23 1706.05ZM1299.72 1719.7C1301.16 1721.96 1302.62 1724.21 1304.1 1726.47L1309.95 1722.63C1308.49 1720.4 1307.04 1718.17 1305.62 1715.93L1299.72 1719.7ZM1308.47 1733.07C1309.95 1735.27 1311.44 1737.47 1312.94 1739.66L1318.72 1735.71C1317.23 1733.53 1315.75 1731.35 1314.29 1729.17L1308.47 1733.07ZM1317.49 1746.24C1319.03 1748.43 1320.57 1750.62 1322.13 1752.8L1327.83 1748.74C1326.28 1746.57 1324.75 1744.4 1323.23 1742.23L1317.49 1746.24ZM1326.83 1759.34C1328.38 1761.47 1329.94 1763.61 1331.52 1765.74L1337.15 1761.58C1335.59 1759.46 1334.04 1757.35 1332.5 1755.23L1326.83 1759.34ZM1336.27 1772.12C1337.86 1774.25 1339.47 1776.37 1341.08 1778.49L1346.65 1774.25C1345.05 1772.15 1343.45 1770.03 1341.87 1767.92L1336.27 1772.12ZM1345.95 1784.85C1347.59 1786.97 1349.23 1789.09 1350.88 1791.2L1356.4 1786.89C1354.76 1784.79 1353.12 1782.68 1351.5 1780.58L1345.95 1784.85ZM1355.79 1797.45C1357.44 1799.53 1359.09 1801.6 1360.74 1803.68L1366.21 1799.31C1364.56 1797.24 1362.92 1795.18 1361.28 1793.11L1355.79 1797.45ZM1365.74 1809.89C1367.41 1811.96 1369.09 1814.03 1370.77 1816.1L1376.2 1811.68C1374.52 1809.62 1372.85 1807.56 1371.18 1805.5L1365.74 1809.89ZM1375.84 1822.29C1377.53 1824.35 1379.22 1826.4 1380.91 1828.45L1386.31 1823.98C1384.61 1821.94 1382.93 1819.9 1381.25 1817.85L1375.84 1822.29ZM1386 1834.57C1387.7 1836.61 1389.41 1838.64 1391.11 1840.68L1396.48 1836.18C1394.77 1834.15 1393.07 1832.12 1391.38 1830.09L1386 1834.57ZM1396.25 1846.78C1397.96 1848.81 1399.68 1850.84 1401.4 1852.87L1406.74 1848.35C1405.02 1846.32 1403.31 1844.3 1401.6 1842.27L1396.25 1846.78ZM1406.56 1858.95C1408.28 1860.98 1410 1863 1411.73 1865.02L1417.05 1860.48C1415.33 1858.46 1413.61 1856.44 1411.89 1854.42L1406.56 1858.95ZM1416.91 1871.08C1418.63 1873.1 1420.36 1875.11 1422.09 1877.13L1427.4 1872.57C1425.68 1870.56 1423.95 1868.54 1422.23 1866.53L1416.91 1871.08ZM1427.27 1883.16C1429 1885.17 1430.72 1887.18 1432.45 1889.19L1437.76 1884.63C1436.03 1882.62 1434.31 1880.61 1432.58 1878.6L1427.27 1883.16ZM1437.65 1895.25C1439.39 1897.27 1441.12 1899.29 1442.85 1901.31L1448.16 1896.75C1446.43 1894.73 1444.7 1892.71 1442.97 1890.69L1437.65 1895.25ZM1448.03 1907.35C1449.76 1909.36 1451.48 1911.37 1453.2 1913.38L1458.52 1908.83C1456.8 1906.82 1455.07 1904.81 1453.35 1902.79L1448.03 1907.35ZM1458.34 1919.41C1460.07 1921.44 1461.79 1923.46 1463.51 1925.49L1468.85 1920.96C1467.13 1918.93 1465.4 1916.9 1463.67 1914.87L1458.34 1919.41ZM1468.68 1931.59C1470.39 1933.62 1472.1 1935.65 1473.81 1937.68L1479.17 1933.17C1477.46 1931.14 1475.74 1929.11 1474.02 1927.07L1468.68 1931.59ZM1478.9 1943.76C1480.59 1945.78 1482.28 1947.8 1483.95 1949.83L1489.34 1945.36C1487.66 1943.33 1485.97 1941.3 1484.27 1939.27L1478.9 1943.76ZM1489.02 1955.97C1490.72 1958.03 1492.42 1960.1 1494.1 1962.16L1499.52 1957.74C1497.83 1955.66 1496.14 1953.59 1494.43 1951.52L1489.02 1955.97ZM1499.12 1968.34C1500.78 1970.4 1502.43 1972.46 1504.08 1974.52L1509.55 1970.15C1507.89 1968.08 1506.23 1966.02 1504.56 1963.95L1499.12 1968.34ZM1508.97 1980.69C1510.62 1982.77 1512.25 1984.85 1513.87 1986.94L1519.39 1982.63C1517.76 1980.54 1516.12 1978.45 1514.47 1976.35L1508.97 1980.69ZM1518.78 1993.28C1520.4 1995.39 1522.01 1997.5 1523.6 1999.61L1529.19 1995.39C1527.58 1993.27 1525.96 1991.14 1524.33 1989.02L1518.78 1993.28ZM1528.34 2005.94C1529.91 2008.04 1531.46 2010.15 1533 2012.25L1538.65 2008.12C1537.1 2006 1535.54 2003.88 1533.96 2001.76L1528.34 2005.94ZM1537.65 2018.69C1539.21 2020.88 1540.76 2023.06 1542.28 2025.24L1548.02 2021.22C1546.48 2019.02 1544.92 2016.82 1543.34 2014.62L1537.65 2018.69ZM1546.8 2031.77C1548.29 2033.95 1549.76 2036.12 1551.21 2038.29L1557.03 2034.41C1555.57 2032.22 1554.08 2030.02 1552.58 2027.82L1546.8 2031.77ZM1555.49 2044.81C1556.95 2047.06 1558.38 2049.31 1559.8 2051.55L1565.72 2047.83C1564.29 2045.55 1562.84 2043.28 1561.36 2041L1555.49 2044.81ZM1564 2058.35C1565.38 2060.61 1566.73 2062.87 1568.06 2065.13L1574.09 2061.59C1572.75 2059.29 1571.38 2057 1569.98 2054.71L1564 2058.35ZM1571.96 2071.9C1573.25 2074.19 1574.51 2076.47 1575.75 2078.76L1581.91 2075.43C1580.65 2073.1 1579.36 2070.78 1578.05 2068.46L1571.96 2071.9ZM1579.5 2085.85C1580.71 2088.21 1581.9 2090.57 1583.05 2092.92L1589.34 2089.85C1588.17 2087.44 1586.96 2085.04 1585.72 2082.64L1579.5 2085.85ZM1586.42 2099.99C1587.5 2102.34 1588.56 2104.69 1589.58 2107.04L1596 2104.26C1594.96 2101.86 1593.88 2099.46 1592.77 2097.05L1586.42 2099.99ZM1592.67 2114.43C1593.66 2116.89 1594.61 2119.35 1595.53 2121.81L1602.09 2119.38C1601.15 2116.86 1600.18 2114.33 1599.16 2111.81L1592.67 2114.43ZM1598.14 2129.18C1598.97 2131.64 1599.76 2134.09 1600.5 2136.54L1607.2 2134.5C1606.43 2131.98 1605.62 2129.46 1604.77 2126.94L1598.14 2129.18ZM1602.68 2144.16C1603.36 2146.71 1603.99 2149.26 1604.57 2151.81L1611.4 2150.24C1610.8 2147.61 1610.14 2144.98 1609.44 2142.35L1602.68 2144.16ZM1606.18 2159.44C1606.66 2161.98 1607.09 2164.52 1607.47 2167.06L1614.39 2166.02C1614 2163.39 1613.55 2160.76 1613.05 2158.13L1606.18 2159.44ZM1608.47 2174.85C1608.75 2177.45 1608.97 2180.05 1609.13 2182.65L1616.12 2182.21C1615.95 2179.51 1615.72 2176.81 1615.43 2174.11L1608.47 2174.85ZM1609.45 2190.43C1609.5 2193.02 1609.48 2195.61 1609.41 2198.2L1616.41 2198.4C1616.48 2195.7 1616.5 2193 1616.45 2190.3L1609.45 2190.43ZM1609 2205.94C1608.81 2208.52 1608.55 2211.1 1608.22 2213.68L1615.17 2214.55C1615.51 2211.86 1615.78 2209.17 1615.98 2206.47L1609 2205.94ZM1607.06 2221.41C1606.62 2223.96 1606.11 2226.51 1605.53 2229.06L1612.36 2230.61C1612.96 2227.94 1613.49 2225.28 1613.96 2222.62L1607.06 2221.41ZM1603.66 2236.5C1602.98 2238.97 1602.23 2241.45 1601.42 2243.93L1608.07 2246.11C1608.92 2243.53 1609.7 2240.95 1610.41 2238.36L1603.66 2236.5ZM1598.78 2251.36C1597.86 2253.79 1596.87 2256.22 1595.81 2258.65L1602.23 2261.44C1603.33 2258.91 1604.36 2256.38 1605.32 2253.86L1598.78 2251.36ZM1592.64 2265.55C1591.53 2267.85 1590.35 2270.15 1589.12 2272.45L1595.29 2275.76C1596.57 2273.38 1597.78 2270.99 1598.94 2268.6L1592.64 2265.55ZM1585.23 2279.35C1583.87 2281.66 1582.45 2283.96 1580.97 2286.26L1586.85 2290.05C1588.38 2287.67 1589.85 2285.29 1591.26 2282.91L1585.23 2279.35ZM1576.79 2292.5C1575.36 2294.58 1573.86 2296.65 1572.32 2298.73L1577.94 2302.91C1579.53 2300.77 1581.06 2298.63 1582.55 2296.49L1576.79 2292.5ZM1567.53 2304.96C1565.88 2307.04 1564.17 2309.12 1562.41 2311.2L1567.76 2315.72C1569.56 2313.59 1571.31 2311.45 1573.01 2309.32L1567.53 2304.96ZM1557.1 2317.29C1555.45 2319.13 1553.76 2320.97 1552.02 2322.81L1557.11 2327.61C1558.89 2325.73 1560.62 2323.85 1562.31 2321.97L1557.1 2317.29ZM1546.68 2328.33C1544.85 2330.17 1542.98 2332.01 1541.07 2333.85L1545.92 2338.9C1547.88 2337.02 1549.78 2335.14 1551.65 2333.26L1546.68 2328.33ZM1535.19 2339.38C1533.18 2341.22 1531.13 2343.06 1529.03 2344.9L1533.65 2350.16C1535.79 2348.29 1537.88 2346.41 1539.92 2344.53L1535.19 2339.38ZM1523.25 2349.89C1521.34 2351.5 1519.39 2353.12 1517.41 2354.74L1521.83 2360.16C1523.85 2358.52 1525.82 2356.88 1527.77 2355.24L1523.25 2349.89ZM1511.35 2359.58C1509.3 2361.2 1507.2 2362.82 1505.07 2364.44L1509.31 2370.01C1511.47 2368.37 1513.59 2366.73 1515.68 2365.09L1511.35 2359.58ZM1498.57 2369.29C1496.37 2370.91 1494.13 2372.52 1491.85 2374.14L1495.9 2379.85C1498.21 2378.21 1500.48 2376.57 1502.72 2374.93L1498.57 2369.29ZM1485.45 2378.62C1483.4 2380.04 1481.32 2381.45 1479.2 2382.87L1483.1 2388.68C1485.24 2387.25 1487.35 2385.82 1489.42 2384.38L1485.45 2378.62ZM1472.78 2387.12C1470.61 2388.53 1468.41 2389.95 1466.18 2391.37L1469.93 2397.28C1472.18 2395.84 1474.41 2394.41 1476.6 2392.98L1472.78 2387.12ZM1459.4 2395.62C1457.11 2397.04 1454.78 2398.45 1452.43 2399.87L1456.05 2405.87C1458.42 2404.44 1460.77 2403 1463.08 2401.57L1459.4 2395.62ZM1445.29 2404.13C1443.04 2405.45 1440.77 2406.77 1438.47 2408.09L1441.96 2414.16C1444.28 2412.83 1446.57 2411.49 1448.84 2410.16L1445.29 2404.13ZM1431.91 2411.82C1429.7 2413.07 1427.46 2414.31 1425.2 2415.55L1428.58 2421.69C1430.86 2420.43 1433.11 2419.18 1435.34 2417.92L1431.91 2411.82ZM1418.35 2419.29C1416.05 2420.53 1413.71 2421.78 1411.36 2423.02L1414.63 2429.21C1417 2427.96 1419.35 2426.7 1421.68 2425.45L1418.35 2419.29ZM1404.22 2426.76C1401.81 2428 1399.38 2429.25 1396.93 2430.49L1400.1 2436.74C1402.57 2435.48 1405.01 2434.23 1407.44 2432.97L1404.22 2426.76ZM1389.49 2434.23C1388.24 2434.86 1386.98 2435.48 1385.72 2436.1L1388.81 2442.38C1390.08 2441.75 1391.35 2441.13 1392.61 2440.5L1389.49 2434.23ZM1385.72 2436.1C1384.48 2436.71 1383.25 2437.32 1382.03 2437.93L1385.14 2444.2C1386.36 2443.59 1387.58 2442.99 1388.81 2442.38L1385.72 2436.1ZM1374.7 2441.58C1372.26 2442.8 1369.84 2444.03 1367.43 2445.25L1370.61 2451.49C1373.01 2450.27 1375.42 2449.05 1377.84 2447.84L1374.7 2441.58ZM1360.24 2448.93C1357.86 2450.16 1355.48 2451.39 1353.12 2452.62L1356.35 2458.83C1358.7 2457.6 1361.07 2456.38 1363.44 2455.15L1360.24 2448.93ZM1346.06 2456.32C1343.71 2457.55 1341.38 2458.79 1339.06 2460.03L1342.36 2466.2C1344.67 2464.97 1346.99 2463.74 1349.32 2462.51L1346.06 2456.32ZM1332.14 2463.74C1329.81 2465 1327.5 2466.25 1325.2 2467.51L1328.56 2473.65C1330.85 2472.4 1333.15 2471.15 1335.46 2469.9L1332.14 2463.74ZM1318.01 2471.47C1315.63 2472.79 1313.25 2474.11 1310.89 2475.43L1314.32 2481.54C1316.67 2480.22 1319.03 2478.9 1321.4 2477.59L1318.01 2471.47ZM1303.85 2479.4C1301.51 2480.73 1299.19 2482.06 1296.88 2483.38L1300.36 2489.45C1302.67 2488.13 1304.98 2486.81 1307.3 2485.49L1303.85 2479.4ZM1289.97 2487.38C1287.68 2488.71 1285.41 2490.04 1283.14 2491.37L1286.69 2497.41C1288.95 2496.08 1291.21 2494.75 1293.49 2493.43L1289.97 2487.38ZM1276.38 2495.38C1274.09 2496.75 1271.82 2498.11 1269.55 2499.48L1273.17 2505.47C1275.42 2504.11 1277.69 2502.75 1279.96 2501.39L1276.38 2495.38ZM1262.55 2503.73C1260.23 2505.15 1257.93 2506.57 1255.63 2507.99L1259.32 2513.94C1261.6 2512.53 1263.9 2511.11 1266.21 2509.7L1262.55 2503.73ZM1248.78 2512.26C1246.51 2513.68 1244.25 2515.11 1242.01 2516.53L1245.76 2522.44C1248 2521.02 1250.24 2519.6 1252.5 2518.19L1248.78 2512.26ZM1235.31 2520.82C1233.09 2522.25 1230.88 2523.68 1228.68 2525.11L1232.5 2530.97C1234.69 2529.55 1236.88 2528.13 1239.09 2526.7L1235.31 2520.82ZM1222.13 2529.4C1219.84 2530.91 1217.57 2532.42 1215.32 2533.92L1219.21 2539.74C1221.45 2538.24 1223.71 2536.74 1225.98 2535.25L1222.13 2529.4ZM1208.55 2538.47C1206.31 2539.99 1204.09 2541.51 1201.87 2543.03L1205.83 2548.8C1208.03 2547.29 1210.25 2545.78 1212.48 2544.27L1208.55 2538.47ZM1195.27 2547.59C1193.08 2549.11 1190.9 2550.63 1188.74 2552.15L1192.77 2557.87C1194.92 2556.36 1197.08 2554.85 1199.26 2553.33L1195.27 2547.59ZM1182.29 2556.72C1180.15 2558.24 1178.02 2559.77 1175.91 2561.29L1180.01 2566.97C1182.11 2565.45 1184.22 2563.93 1186.35 2562.42L1182.29 2556.72ZM1169.31 2566.09C1167.11 2567.69 1164.93 2569.3 1162.75 2570.91L1166.92 2576.54C1169.08 2574.94 1171.26 2573.34 1173.45 2571.74L1169.31 2566.09ZM1156.28 2575.75C1154.13 2577.36 1152 2578.97 1149.88 2580.58L1154.12 2586.15C1156.23 2584.55 1158.35 2582.95 1160.48 2581.34L1156.28 2575.75ZM1143.56 2585.42C1141.47 2587.03 1139.39 2588.64 1137.33 2590.26L1141.64 2595.78C1143.69 2594.17 1145.76 2592.57 1147.84 2590.96L1143.56 2585.42ZM1131.1 2595.15C1128.96 2596.85 1126.82 2598.55 1124.7 2600.25L1129.08 2605.71C1131.19 2604.02 1133.31 2602.33 1135.45 2600.64L1131.1 2595.15ZM1118.39 2605.34C1116.29 2607.04 1114.22 2608.74 1112.15 2610.44L1116.6 2615.84C1118.65 2614.15 1120.72 2612.46 1122.8 2610.78L1118.39 2605.34ZM1106 2615.53C1103.97 2617.23 1101.94 2618.93 1099.93 2620.63L1104.45 2625.97C1106.45 2624.29 1108.46 2622.6 1110.49 2620.91L1106 2615.53ZM1093.94 2625.72C1091.87 2627.49 1089.82 2629.26 1087.78 2631.03L1092.36 2636.32C1094.39 2634.56 1096.44 2632.8 1098.5 2631.04L1093.94 2625.72ZM1081.65 2636.38C1079.62 2638.16 1077.61 2639.94 1075.61 2641.72L1080.26 2646.95C1082.25 2645.18 1084.25 2643.41 1086.27 2641.64L1081.65 2636.38ZM1069.65 2647.06C1067.68 2648.84 1065.72 2650.62 1063.78 2652.4L1068.5 2657.56C1070.43 2655.8 1072.38 2654.03 1074.34 2652.26L1069.65 2647.06ZM1057.99 2657.72C1055.99 2659.57 1054.01 2661.42 1052.04 2663.26L1056.83 2668.37C1058.78 2666.53 1060.76 2664.7 1062.74 2662.86L1057.99 2657.72ZM1046.13 2668.84C1044.17 2670.7 1042.23 2672.56 1040.31 2674.41L1045.16 2679.45C1047.08 2677.61 1049.01 2675.76 1050.95 2673.92L1046.13 2668.84ZM1034.57 2679.97C1032.67 2681.82 1030.78 2683.67 1028.91 2685.52L1033.83 2690.5C1035.69 2688.66 1037.56 2686.82 1039.45 2684.98L1034.57 2679.97ZM1023.31 2691.08C1021.38 2693.01 1019.46 2694.94 1017.55 2696.87L1022.53 2701.79C1024.43 2699.87 1026.34 2697.95 1028.26 2696.03L1023.31 2691.08ZM1011.88 2702.66C1010 2704.58 1008.14 2706.5 1006.29 2708.42L1011.33 2713.28C1013.17 2711.37 1015.02 2709.46 1016.89 2707.54L1011.88 2702.66ZM1000.78 2714.17C998.961 2716.09 997.153 2718 995.358 2719.9L1000.46 2724.7C1002.24 2722.8 1004.04 2720.9 1005.85 2719L1000.78 2714.17ZM989.857 2725.79C988.005 2727.78 986.166 2729.77 984.342 2731.76L989.498 2736.49C991.313 2734.52 993.142 2732.54 994.985 2730.55L989.857 2725.79ZM978.912 2737.71C977.116 2739.69 975.333 2741.66 973.564 2743.63L978.775 2748.31C980.535 2746.35 982.308 2744.38 984.095 2742.41L978.912 2737.71ZM968.298 2749.54C966.523 2751.54 964.762 2753.53 963.013 2755.53L968.275 2760.14C970.014 2758.16 971.767 2756.17 973.534 2754.18L968.298 2749.54ZM957.661 2761.66C955.891 2763.7 954.135 2765.73 952.392 2767.76L957.702 2772.32C959.437 2770.3 961.185 2768.28 962.947 2766.25L957.661 2761.66ZM947.204 2773.83C945.488 2775.85 943.784 2777.86 942.094 2779.87L947.448 2784.38C949.132 2782.38 950.828 2780.37 952.536 2778.36L947.204 2773.83ZM936.961 2785.99C935.216 2788.08 933.485 2790.17 931.767 2792.25L937.162 2796.71C938.874 2794.64 940.598 2792.56 942.336 2790.48L936.961 2785.99ZM926.652 2798.46C924.96 2800.53 923.28 2802.59 921.613 2804.64L927.046 2809.05C928.707 2807.01 930.381 2804.96 932.067 2802.9L926.652 2798.46ZM916.65 2810.77C914.954 2812.88 913.271 2814.97 911.601 2817.06L917.066 2821.43C918.731 2819.35 920.409 2817.26 922.099 2815.17L916.65 2810.77ZM906.548 2823.39C904.876 2825.5 903.217 2827.59 901.569 2829.68L907.062 2834.02C908.705 2831.94 910.361 2829.85 912.028 2827.75L906.548 2823.39ZM896.66 2835.91C895.025 2837.99 893.401 2840.06 891.788 2842.13L897.302 2846.44C898.912 2844.38 900.533 2842.31 902.165 2840.23L896.66 2835.91ZM886.778 2848.55C885.12 2850.68 883.473 2852.8 881.837 2854.9L887.368 2859.2C889.002 2857.09 890.646 2854.97 892.302 2852.85L886.778 2848.55ZM876.961 2861.2C875.346 2863.28 873.742 2865.36 872.147 2867.42L877.686 2871.7C879.28 2869.64 880.883 2867.57 882.497 2865.48L876.961 2861.2ZM867.197 2873.83C865.543 2875.97 863.899 2878.1 862.264 2880.21L867.803 2884.49C869.438 2882.38 871.083 2880.25 872.737 2878.11L867.197 2873.83ZM857.388 2886.52C855.772 2888.61 854.165 2890.68 852.565 2892.74L858.095 2897.03C859.697 2894.97 861.306 2892.89 862.924 2890.8L857.388 2886.52ZM847.62 2899.1C845.956 2901.24 844.301 2903.35 842.653 2905.46L848.163 2909.78C849.815 2907.67 851.474 2905.54 853.141 2903.4L847.62 2899.1ZM837.732 2911.71C836.099 2913.78 834.473 2915.84 832.853 2917.87L838.33 2922.23C839.956 2920.19 841.588 2918.13 843.227 2916.05L837.732 2911.71ZM827.811 2924.17C826.119 2926.28 824.434 2928.36 822.754 2930.42L828.182 2934.84C829.871 2932.77 831.566 2930.67 833.265 2928.56L827.811 2924.17ZM817.728 2936.55C816.05 2938.58 814.377 2940.59 812.708 2942.58L818.07 2947.08C819.752 2945.08 821.437 2943.05 823.125 2941.01L817.728 2936.55ZM807.47 2948.77C805.728 2950.8 803.988 2952.82 802.25 2954.81L807.522 2959.41C809.277 2957.4 811.032 2955.37 812.79 2953.32L807.47 2948.77ZM797.043 2960.7C795.26 2962.7 793.478 2964.66 791.696 2966.6L796.852 2971.34C798.656 2969.37 800.459 2967.38 802.261 2965.37L797.043 2960.7ZM786.229 2972.47C784.406 2974.4 782.582 2976.3 780.756 2978.17L785.764 2983.06C787.617 2981.16 789.467 2979.24 791.315 2977.28L786.229 2972.47ZM775.221 2983.74C773.302 2985.63 771.38 2987.5 769.453 2989.32L774.271 2994.4C776.234 2992.54 778.19 2990.64 780.141 2988.72L775.221 2983.74ZM763.655 2994.71C761.717 2996.47 759.772 2998.2 757.82 2999.89L762.404 3005.18C764.399 3003.45 766.384 3001.69 768.362 2999.89L763.655 2994.71ZM751.705 3005.05C749.656 3006.73 747.598 3008.38 745.529 3009.98L749.819 3015.51C751.942 3013.87 754.051 3012.18 756.149 3010.46L751.705 3005.05ZM739.286 3014.68C737.138 3016.24 734.977 3017.77 732.802 3019.25L736.739 3025.04C738.979 3023.51 741.202 3021.94 743.41 3020.34L739.286 3014.68ZM726.21 3023.57C723.997 3024.97 721.767 3026.32 719.519 3027.63L723.04 3033.68C725.362 3032.33 727.664 3030.93 729.946 3029.49L726.21 3023.57ZM712.64 3031.46C710.325 3032.69 707.989 3033.88 705.631 3035.02L708.673 3041.32C711.115 3040.14 713.533 3038.91 715.928 3037.64L712.64 3031.46ZM698.488 3038.28C696.102 3039.32 693.692 3040.31 691.257 3041.24L693.773 3047.78C696.299 3046.8 698.797 3045.78 701.271 3044.71L698.488 3038.28ZM683.876 3043.91C681.389 3044.75 678.875 3045.54 676.331 3046.28L678.289 3053C680.927 3052.23 683.536 3051.41 686.116 3050.54L683.876 3043.91ZM668.845 3048.29C666.324 3048.92 663.773 3049.49 661.192 3050.02L662.592 3056.88C665.266 3056.33 667.91 3055.74 670.524 3055.09L668.845 3048.29ZM653.354 3051.45C650.834 3051.86 648.285 3052.23 645.704 3052.54L646.561 3059.49C649.229 3059.16 651.866 3058.79 654.475 3058.36L653.354 3051.45ZM637.917 3053.36C635.29 3053.58 632.631 3053.76 629.938 3053.89L630.284 3060.89C633.06 3060.75 635.803 3060.56 638.516 3060.33L637.917 3053.36ZM622.137 3054.15C619.576 3054.19 616.986 3054.19 614.364 3054.15L614.252 3061.15C616.947 3061.19 619.612 3061.19 622.248 3061.15L622.137 3054.15ZM606.404 3053.9C603.752 3053.77 601.068 3053.61 598.352 3053.4L597.823 3060.38C600.605 3060.59 603.357 3060.76 606.078 3060.89L606.404 3053.9ZM590.719 3052.72C588.146 3052.46 585.545 3052.16 582.914 3051.82L582.028 3058.77C584.715 3059.11 587.375 3059.42 590.007 3059.69L590.719 3052.72ZM574.933 3050.71C572.324 3050.31 569.686 3049.88 567.02 3049.41L565.811 3056.3C568.528 3056.78 571.217 3057.22 573.879 3057.63L574.933 3050.71ZM559.464 3048C556.92 3047.51 554.349 3046.97 551.752 3046.41L550.271 3053.25C552.912 3053.83 555.526 3054.37 558.116 3054.87L559.464 3048ZM543.881 3044.63C541.259 3044.01 538.61 3043.36 535.934 3042.68L534.205 3049.46C536.921 3050.15 539.609 3050.81 542.273 3051.44L543.881 3044.63ZM528.545 3040.73C526.059 3040.06 523.55 3039.36 521.017 3038.63L519.083 3045.36C521.648 3046.09 524.19 3046.81 526.711 3047.49L528.545 3040.73ZM513.349 3036.36C510.769 3035.58 508.166 3034.77 505.538 3033.94L503.415 3040.61C506.073 3041.45 508.707 3042.27 511.318 3043.06L513.349 3036.36ZM497.932 3031.46C495.523 3030.66 493.094 3029.84 490.645 3028.99L488.361 3035.61C490.835 3036.46 493.289 3037.3 495.724 3038.1L497.932 3031.46ZM483.236 3026.39C480.746 3025.5 478.235 3024.58 475.704 3023.65L473.276 3030.21C475.83 3031.16 478.365 3032.08 480.879 3032.98L483.236 3026.39ZM468.046 3020.77C465.536 3019.81 463.007 3018.83 460.457 3017.83L457.898 3024.35C460.469 3025.36 463.019 3026.35 465.55 3027.31L468.046 3020.77ZM453.333 3015C450.941 3014.03 448.531 3013.05 446.103 3012.05L443.434 3018.52C445.879 3019.53 448.307 3020.52 450.718 3021.49L453.333 3015ZM438.766 3008.99C436.302 3007.95 433.82 3006.89 431.32 3005.81L428.547 3012.24C431.064 3013.32 433.563 3014.39 436.044 3015.44L438.766 3008.99ZM423.763 3002.52C422.494 3001.96 421.221 3001.39 419.942 3000.82L417.097 3007.22C418.383 3007.79 419.665 3008.36 420.941 3008.92L423.763 3002.52ZM419.942 3000.82C418.654 3000.25 417.369 2999.68 416.088 2999.12L413.284 3005.54C414.552 3006.09 415.823 3006.65 417.097 3007.22L419.942 3000.82ZM408.437 2995.84C405.9 2994.77 403.375 2993.73 400.864 2992.71L398.233 2999.2C400.715 3000.2 403.21 3001.23 405.719 3002.29L408.437 2995.84ZM393.369 2989.73C390.884 2988.76 388.411 2987.82 385.952 2986.9L383.503 2993.46C385.932 2994.36 388.373 2995.3 390.828 2996.25L393.369 2989.73ZM378.611 2984.22C376.003 2983.29 373.409 2982.39 370.831 2981.51L368.582 2988.14C371.126 2989 373.685 2989.89 376.258 2990.81L378.611 2984.22ZM362.961 2978.91C360.353 2978.08 357.76 2977.27 355.183 2976.49L353.159 2983.19C355.698 2983.96 358.253 2984.76 360.823 2985.58L362.961 2978.91ZM347.497 2974.24C344.95 2973.52 342.419 2972.83 339.903 2972.17L338.116 2978.93C340.592 2979.59 343.083 2980.27 345.59 2980.98L347.497 2974.24ZM332.055 2970.17C329.337 2969.51 326.638 2968.88 323.956 2968.29L322.439 2975.12C325.073 2975.71 327.726 2976.32 330.398 2976.98L332.055 2970.17ZM315.966 2966.6C313.32 2966.07 310.693 2965.58 308.083 2965.11L306.857 2972C309.417 2972.46 311.995 2972.95 314.592 2973.47L315.966 2966.6ZM300.308 2963.82C297.577 2963.39 294.866 2963.01 292.175 2962.65L291.267 2969.59C293.902 2969.94 296.557 2970.32 299.234 2970.73L300.308 2963.82ZM283.958 2961.68C281.24 2961.4 278.543 2961.15 275.867 2960.93L275.313 2967.91C277.929 2968.12 280.566 2968.36 283.225 2968.64L283.958 2961.68ZM267.902 2960.41C265.209 2960.26 262.538 2960.16 259.888 2960.09L259.711 2967.09C262.295 2967.16 264.902 2967.26 267.532 2967.4L267.902 2960.41ZM251.569 2960C248.82 2960.02 246.095 2960.07 243.394 2960.16L243.636 2967.16C246.265 2967.07 248.919 2967.02 251.599 2967L251.569 2960ZM235.363 2960.56C232.676 2960.74 230.013 2960.96 227.375 2961.21L228.055 2968.18C230.619 2967.93 233.207 2967.72 235.821 2967.55L235.363 2960.56ZM219.12 2962.16C216.395 2962.52 213.698 2962.93 211.028 2963.38L212.187 2970.28C214.776 2969.85 217.393 2969.45 220.038 2969.1L219.12 2962.16ZM203.098 2964.85C200.433 2965.4 197.796 2965.98 195.187 2966.62L196.836 2973.42C199.363 2972.81 201.917 2972.24 204.5 2971.71L203.098 2964.85ZM187.197 2968.71C184.563 2969.46 181.959 2970.25 179.385 2971.09L181.546 2977.74C184.035 2976.94 186.554 2976.17 189.102 2975.45L187.197 2968.71ZM171.752 2973.73C169.174 2974.67 166.628 2975.67 164.113 2976.71L166.785 2983.18C169.215 2982.17 171.676 2981.21 174.167 2980.3L171.752 2973.73ZM156.591 2979.99C154.115 2981.13 151.672 2982.31 149.259 2983.54L152.436 2989.78C154.767 2988.59 157.127 2987.45 159.518 2986.35L156.591 2979.99ZM142.091 2987.37C139.701 2988.71 137.343 2990.1 135.017 2991.53L138.68 2997.49C140.926 2996.11 143.204 2994.78 145.513 2993.48L142.091 2987.37ZM128.137 2995.94C125.877 2997.45 123.648 2999.01 121.452 3000.61L125.571 3006.27C127.694 3004.72 129.848 3003.22 132.032 3001.76L128.137 2995.94ZM114.948 3005.54C112.811 3007.22 110.706 3008.94 108.633 3010.71L113.17 3016.04C115.177 3014.33 117.213 3012.66 119.281 3011.03L114.948 3005.54ZM102.511 3016.12C100.507 3017.96 98.5359 3019.83 96.5961 3021.75L101.511 3026.73C103.392 3024.88 105.302 3023.06 107.242 3021.28L102.511 3016.12ZM90.9092 3027.55C89.0446 3029.53 87.2111 3031.54 85.4083 3033.58L90.6567 3038.21C92.4072 3036.23 94.1869 3034.28 95.9959 3032.36L90.9092 3027.55ZM80.0926 3039.81C78.3766 3041.89 76.6905 3044 75.0339 3046.15L80.5736 3050.43C82.1851 3048.34 83.8247 3046.28 85.4925 3044.26L80.0926 3039.81ZM70.1696 3052.65C68.5774 3054.85 67.0144 3057.08 65.4804 3059.34L71.2714 3063.27C72.7664 3061.07 74.289 3058.9 75.8393 3056.76L70.1696 3052.65ZM60.992 3066.16C59.5497 3068.42 58.1349 3070.71 56.7474 3073.03L62.7528 3076.63C64.1074 3074.36 65.4881 3072.13 66.8951 3069.92L60.992 3066.16ZM52.6667 3080.06C51.3337 3082.43 50.0278 3084.82 48.7488 3087.24L54.9371 3090.51C56.1878 3088.15 57.4644 3085.81 58.767 3083.49L52.6667 3080.06ZM45.052 3094.45C43.8573 3096.85 42.688 3099.28 41.5441 3101.73L47.8857 3104.69C49.0062 3102.29 50.151 3099.92 51.3203 3097.57L45.052 3094.45ZM38.1877 3109.14C37.094 3111.63 36.0255 3114.14 34.9819 3116.67L41.4537 3119.34C42.4774 3116.85 43.5251 3114.39 44.597 3111.95L38.1877 3109.14ZM31.9955 3124.15C31.0261 3126.65 30.0803 3129.17 29.1579 3131.71L35.7376 3134.1C36.6435 3131.61 37.5721 3129.13 38.5235 3126.67L31.9955 3124.15ZM26.4605 3139.39C25.5863 3141.96 24.7352 3144.55 23.9071 3147.15L30.5778 3149.27C31.392 3146.71 32.2286 3144.17 33.0876 3141.64L26.4605 3139.39ZM21.5449 3154.83C20.7794 3157.4 20.0356 3159.99 19.3136 3162.6L26.059 3164.47C26.7697 3161.9 27.5015 3159.36 28.2546 3156.82L21.5449 3154.83ZM17.2123 3170.45C16.5358 3173.07 15.8807 3175.71 15.2469 3178.35L22.0546 3179.98C22.679 3177.37 23.3242 3174.78 23.9904 3172.2L17.2123 3170.45ZM13.4424 3186.19C12.8612 3188.81 12.3005 3191.44 11.76 3194.09L18.6182 3195.49C19.1511 3192.88 19.7039 3190.29 20.2766 3187.7L13.4424 3186.19ZM10.1989 3202.06C9.70013 3204.72 9.22133 3207.38 8.7624 3210.06L15.6619 3211.25C16.1147 3208.6 16.587 3205.97 17.0789 3203.35L10.1989 3202.06ZM7.46557 3218C7.05246 3220.65 6.65848 3223.32 6.28352 3225.99L13.2155 3226.96C13.5857 3224.32 13.9746 3221.69 14.3823 3219.08L7.46557 3218ZM5.21559 3234.02C4.87884 3236.71 4.56098 3239.4 4.26187 3242.1L11.2193 3242.87C11.5147 3240.2 11.8286 3237.55 12.1612 3234.89L5.21559 3234.02ZM3.43201 3250.1C3.17355 3252.77 2.93321 3255.45 2.7109 3258.14L9.68703 3258.72C9.90671 3256.06 10.1442 3253.41 10.3995 3250.77L3.43201 3250.1ZM2.09791 3266.21C1.91153 3268.91 1.74307 3271.61 1.59242 3274.31L8.58159 3274.7C8.73051 3272.03 8.89703 3269.36 9.08124 3266.69L2.09791 3266.21ZM1.19728 3282.36C1.08307 3285.05 0.98619 3287.73 0.906528 3290.43L7.90346 3290.63C7.98224 3287.97 8.07804 3285.31 8.19095 3282.66L1.19728 3282.36ZM0.719105 3298.51C0.673785 3301.21 0.645587 3303.91 0.634412 3306.61L7.63435 3306.64C7.64541 3303.97 7.6733 3301.3 7.71812 3298.63L0.719105 3298.51ZM0.651532 3314.69C0.673991 3317.37 0.713148 3320.06 0.768907 3322.76L7.7674 3322.61C7.71224 3319.95 7.67351 3317.29 7.65129 3314.63L0.651532 3314.69ZM0.985894 3330.83C1.07476 3333.53 1.18014 3336.22 1.30192 3338.91L8.29478 3338.6C8.17427 3335.93 8.07001 3333.27 7.98209 3330.6L0.985894 3330.83ZM1.71593 3346.99C1.87007 3349.67 2.04045 3352.36 2.22699 3355.05L9.21017 3354.56C9.02558 3351.9 8.85697 3349.25 8.70444 3346.59L1.71593 3346.99ZM2.83495 3363.1C3.05369 3365.79 3.28849 3368.47 3.53926 3371.15L10.5088 3370.5C10.2607 3367.84 10.0283 3365.19 9.81181 3362.53L2.83495 3363.1ZM4.33987 3379.19C4.62319 3381.87 4.92246 3384.55 5.23758 3387.23L12.1896 3386.41C11.8777 3383.76 11.5815 3381.11 11.3011 3378.45L4.33987 3379.19ZM6.23044 3395.25C6.57719 3397.92 6.9397 3400.58 7.31788 3403.24L14.2483 3402.26C13.874 3399.63 13.5153 3396.99 13.1721 3394.34L6.23044 3395.25ZM8.49953 3411.22C8.91195 3413.89 9.34017 3416.56 9.78411 3419.22L16.6888 3418.07C16.2495 3415.44 15.8258 3412.8 15.4176 3410.15L8.49953 3411.22ZM11.163 3427.19C11.6382 3429.84 12.1291 3432.49 12.6355 3435.13L19.5101 3433.81C19.009 3431.2 18.5234 3428.58 18.0531 3425.96L11.163 3427.19ZM14.2012 3443.02C14.744 3445.68 15.3025 3448.32 15.8767 3450.96L22.7164 3449.47C22.1485 3446.86 21.596 3444.24 21.059 3441.62L14.2012 3443.02ZM17.6498 3458.86C18.2565 3461.49 18.8788 3464.11 19.5166 3466.72L26.3164 3465.05C25.6857 3462.47 25.0703 3459.88 24.4702 3457.29L17.6498 3458.86ZM21.4766 3474.52C22.1532 3477.14 22.8456 3479.75 23.5537 3482.35L30.308 3480.52C29.608 3477.94 28.9235 3475.36 28.2545 3472.77L21.4766 3474.52ZM25.7369 3490.17C26.4804 3492.76 27.2397 3495.35 28.0146 3497.92L34.717 3495.9C33.9513 3493.36 33.2009 3490.8 32.466 3488.24L25.7369 3490.17ZM30.3864 3505.6C31.2034 3508.18 32.0364 3510.75 32.8854 3513.31L39.5289 3511.11C38.6904 3508.58 37.8676 3506.04 37.0604 3503.49L30.3864 3505.6ZM35.5022 3521.01C36.3906 3523.56 37.295 3526.1 38.2154 3528.62L44.7916 3526.22C43.8831 3523.73 42.9902 3521.23 42.113 3518.71L35.5022 3521.01ZM41.0242 3536.15C41.9925 3538.68 42.9771 3541.2 43.978 3543.7L50.4778 3541.11C49.4905 3538.64 48.5191 3536.15 47.5637 3533.65L41.0242 3536.15ZM47.0605 3551.24C48.1045 3553.73 49.1651 3556.21 50.242 3558.67L56.6539 3555.86C55.5925 3553.44 54.5471 3551 53.5177 3548.54L47.0605 3551.24ZM53.5219 3565.99C54.6576 3568.47 55.8105 3570.93 56.9802 3573.37L63.2918 3570.34C62.14 3567.94 61.0046 3565.52 59.8858 3563.08L53.5219 3565.99ZM60.5691 3580.68C61.7826 3583.1 63.0132 3585.49 64.2607 3587.86L70.4562 3584.6C69.2292 3582.27 68.0186 3579.92 66.8245 3577.54L60.5691 3580.68ZM68.0543 3594.91C69.3809 3597.32 70.7257 3599.7 72.0884 3602.06L78.1495 3598.56C76.8111 3596.24 75.4899 3593.9 74.186 3591.53L68.0543 3594.91ZM76.2332 3609.07C77.6327 3611.37 79.0501 3613.66 80.4853 3615.91L86.3903 3612.15C84.9829 3609.94 83.5924 3607.7 82.2188 3605.44L76.2332 3609.07ZM84.9047 3622.68C86.4336 3624.97 87.9815 3627.22 89.5485 3629.44L95.2699 3625.41C93.7362 3623.23 92.2202 3621.03 90.7222 3618.79L84.9047 3622.68ZM94.306 3636.02C95.9107 3638.18 97.5342 3640.3 99.1764 3642.4L104.684 3638.08C103.08 3636.03 101.493 3633.95 99.9243 3631.84L94.306 3636.02ZM104.337 3648.79C106.087 3650.9 107.857 3652.97 109.647 3655L114.899 3650.37C113.155 3648.39 111.429 3646.37 109.722 3644.32L104.337 3648.79ZM115.078 3660.98C115.993 3661.96 116.913 3662.92 117.838 3663.88L122.872 3659.02C121.972 3658.09 121.077 3657.14 120.187 3656.19L115.078 3660.98ZM117.838 3663.88C118.802 3664.88 119.752 3665.87 120.688 3666.87L125.791 3662.08C124.832 3661.06 123.859 3660.04 122.872 3659.02L117.838 3663.88ZM126.147 3672.86C127.913 3674.85 129.627 3676.85 131.289 3678.85L136.67 3674.37C134.961 3672.32 133.201 3670.27 131.389 3668.22L126.147 3672.86ZM136.133 3684.86C137.825 3687.02 139.458 3689.19 141.033 3691.36L146.697 3687.25C145.074 3685.01 143.392 3682.78 141.651 3680.55L136.133 3684.86ZM145.587 3697.87C147.048 3700.04 148.454 3702.21 149.804 3704.38L155.748 3700.69C154.353 3698.44 152.902 3696.2 151.393 3693.96L145.587 3697.87ZM153.909 3711.28C155.233 3713.6 156.496 3715.93 157.699 3718.26L163.917 3715.04C162.67 3712.63 161.362 3710.22 159.993 3707.81L153.909 3711.28ZM161.136 3725.24C162.273 3727.67 163.347 3730.11 164.361 3732.54L170.823 3729.85C169.771 3727.33 168.657 3724.8 167.479 3722.28L161.136 3725.24ZM167.247 3739.91C168.15 3742.37 168.993 3744.83 169.779 3747.29L176.447 3745.16C175.631 3742.61 174.755 3740.05 173.819 3737.5L167.247 3739.91ZM172.04 3754.94C172.734 3757.49 173.369 3760.05 173.948 3762.6L180.775 3761.06C180.175 3758.4 179.515 3755.75 178.794 3753.1L172.04 3754.94ZM175.522 3770.31C175.998 3772.92 176.417 3775.53 176.782 3778.14L183.714 3777.18C183.336 3774.47 182.902 3771.76 182.408 3769.05L175.522 3770.31ZM177.715 3785.99C177.974 3788.62 178.181 3791.24 178.338 3793.87L185.325 3793.46C185.163 3790.74 184.95 3788.02 184.681 3785.3L177.715 3785.99ZM178.66 3801.79C178.719 3804.44 178.73 3807.08 178.694 3809.73L185.694 3809.82C185.73 3807.09 185.719 3804.37 185.659 3801.64L178.66 3801.79ZM178.455 3817.65C178.331 3820.29 178.164 3822.93 177.956 3825.58L184.935 3826.13C185.148 3823.41 185.32 3820.69 185.447 3817.98L178.455 3817.65ZM177.214 3833.51C176.93 3836.13 176.608 3838.76 176.25 3841.39L183.186 3842.33C183.552 3839.64 183.882 3836.95 184.174 3834.26L177.214 3833.51ZM175.072 3849.28C174.647 3851.9 174.19 3854.51 173.703 3857.13L180.584 3858.42C181.082 3855.74 181.548 3853.07 181.981 3850.4L175.072 3849.28ZM172.159 3864.95C171.615 3867.56 171.044 3870.17 170.446 3872.78L177.27 3874.34C177.877 3871.69 178.458 3869.03 179.011 3866.38L172.159 3864.95ZM168.596 3880.54C167.957 3883.12 167.295 3885.7 166.612 3888.29L173.38 3890.08C174.072 3887.46 174.743 3884.84 175.391 3882.22L168.596 3880.54ZM164.503 3896.04C163.788 3898.6 163.054 3901.16 162.304 3903.72L169.021 3905.69C169.779 3903.1 170.521 3900.51 171.245 3897.92L164.503 3896.04ZM160.006 3911.41C159.227 3913.97 158.434 3916.53 157.628 3919.09L164.305 3921.19C165.117 3918.61 165.916 3916.03 166.703 3913.45L160.006 3911.41ZM155.191 3926.73C154.368 3929.27 153.535 3931.82 152.695 3934.37L159.342 3936.56C160.187 3934 161.024 3931.44 161.852 3928.88L155.191 3926.73ZM150.156 3942C149.305 3944.55 148.448 3947.09 147.588 3949.63L154.218 3951.87C155.08 3949.33 155.939 3946.78 156.793 3944.23L150.156 3942ZM144.999 3957.25C144.133 3959.8 143.266 3962.34 142.4 3964.88L149.026 3967.14C149.892 3964.6 150.759 3962.05 151.626 3959.51L144.999 3957.25ZM139.803 3972.52C138.94 3975.06 138.079 3977.61 137.223 3980.15L143.858 3982.38C144.711 3979.84 145.57 3977.31 146.432 3974.77L139.803 3972.52ZM134.662 3987.82C133.813 3990.38 132.971 3992.94 132.139 3995.49L138.796 3997.66C139.623 3995.12 140.461 3992.57 141.306 3990.02L134.662 3987.82ZM129.673 4003.17C128.853 4005.75 128.045 4008.33 127.251 4010.91L133.942 4012.97C134.729 4010.41 135.531 4007.85 136.345 4005.28L129.673 4003.17ZM124.913 4018.66C124.146 4021.25 123.396 4023.84 122.665 4026.42L129.401 4028.33C130.124 4025.77 130.866 4023.21 131.625 4020.65L124.913 4018.66ZM120.506 4034.27C119.806 4036.88 119.128 4039.49 118.474 4042.1L125.264 4043.8C125.909 4041.23 126.577 4038.65 127.268 4036.07L120.506 4034.27ZM116.569 4050C115.955 4052.65 115.367 4055.3 114.809 4057.95L121.658 4059.39C122.207 4056.79 122.784 4054.18 123.388 4051.58L116.569 4050ZM113.224 4065.89C112.72 4068.57 112.249 4071.25 111.812 4073.93L118.721 4075.06C119.148 4072.44 119.61 4069.81 120.103 4067.19L113.224 4065.89ZM110.608 4081.99C110.242 4084.69 109.915 4087.38 109.629 4090.07L116.589 4090.81C116.868 4088.19 117.187 4085.56 117.544 4082.94L110.608 4081.99ZM108.887 4098.22C108.683 4100.94 108.524 4103.66 108.412 4106.37L115.406 4106.66C115.515 4104.02 115.669 4101.39 115.867 4098.75L108.887 4098.22ZM108.219 4114.54C108.205 4117.28 108.241 4120.01 108.33 4122.73L115.326 4122.5C115.24 4119.87 115.205 4117.23 115.219 4114.58L108.219 4114.54ZM108.762 4130.91C108.961 4133.63 109.217 4136.35 109.531 4139.07L116.484 4138.26C116.182 4135.65 115.936 4133.03 115.744 4130.4L108.762 4130.91ZM110.653 4147.2C111.085 4149.9 111.578 4152.59 112.135 4155.28L118.99 4153.86C118.454 4151.27 117.98 4148.68 117.564 4146.09L110.653 4147.2ZM113.979 4163.25C114.658 4165.9 115.401 4168.56 116.212 4171.2L122.905 4169.15C122.127 4166.61 121.413 4164.07 120.761 4161.52L113.979 4163.25ZM118.784 4178.95C119.699 4181.51 120.679 4184.06 121.727 4186.6L128.201 4183.94C127.194 4181.49 126.253 4179.04 125.374 4176.59L118.784 4178.95ZM125.077 4194.24C126.203 4196.65 127.393 4199.06 128.647 4201.46L134.853 4198.22C133.646 4195.91 132.502 4193.59 131.419 4191.27L125.077 4194.24ZM132.608 4208.66C133.982 4211.04 135.422 4213.41 136.93 4215.77L142.834 4212.01C141.379 4209.73 139.991 4207.44 138.666 4205.15L132.608 4208.66ZM141.37 4222.45C142.911 4224.67 144.514 4226.89 146.179 4229.1L151.772 4224.89C150.16 4222.75 148.611 4220.6 147.121 4218.46L141.37 4222.45ZM151.341 4235.7C152.99 4237.73 154.694 4239.75 156.453 4241.77L161.734 4237.18C160.025 4235.21 158.372 4233.25 156.773 4231.28L151.341 4235.7ZM161.899 4247.83C163.771 4249.84 165.699 4251.85 167.686 4253.86L172.661 4248.93C170.725 4246.98 168.848 4245.02 167.027 4243.06L161.899 4247.83ZM173.418 4259.49C175.327 4261.31 177.285 4263.12 179.293 4264.94L183.988 4259.75C182.025 4257.97 180.113 4256.2 178.25 4254.42L173.418 4259.49ZM185.468 4270.38C187.568 4272.18 189.717 4273.97 191.918 4275.77L196.342 4270.34C194.185 4268.59 192.08 4266.83 190.026 4265.06L185.468 4270.38ZM198.046 4280.65C200.132 4282.28 202.26 4283.9 204.432 4285.52L208.618 4279.91C206.485 4278.32 204.395 4276.73 202.35 4275.13L198.046 4280.65ZM211.081 4290.38C213.341 4291.99 215.646 4293.61 217.996 4295.22L221.953 4289.44C219.64 4287.86 217.373 4286.27 215.151 4284.68L211.081 4290.38ZM224.467 4299.57C226.66 4301.02 228.889 4302.46 231.156 4303.9L234.915 4298C232.68 4296.58 230.483 4295.15 228.324 4293.73L224.467 4299.57ZM238.072 4308.23C240.415 4309.67 242.796 4311.1 245.216 4312.54L248.786 4306.52C246.397 4305.1 244.047 4303.68 241.735 4302.26L238.072 4308.23ZM252.225 4316.63C254.472 4317.92 256.75 4319.2 259.06 4320.49L262.464 4314.37C260.18 4313.1 257.928 4311.83 255.709 4310.55L252.225 4316.63ZM266.088 4324.34C268.464 4325.62 270.871 4326.9 273.312 4328.18L276.56 4321.98C274.145 4320.71 271.763 4319.45 269.413 4318.18L266.088 4324.34ZM280.733 4332.01C281.987 4332.65 283.249 4333.29 284.519 4333.92L287.656 4327.66C286.398 4327.03 285.148 4326.4 283.906 4325.77L280.733 4332.01Z"
        fill="white"
        fill-opacity="0.3"
    />
</svg>