<svg width="1602" height="1605" viewBox="0 0 1602 1605" fill="none" xmlns="http://www.w3.org/2000/svg">
<path d="M0.838867 0.445312H198.571C475.622 0.445312 700.216 225.04 700.216 502.091V699.822H502.484C225.433 699.822 0.838867 475.228 0.838867 198.177V0.445312Z" fill="#EFE9E2"/>
<path d="M901.8 904.997H1099.53C1376.58 904.997 1601.18 1129.59 1601.18 1406.64V1604.37H1403.45C1126.39 1604.37 901.8 1379.78 901.8 1102.73V904.997Z" fill="#EFE9E2"/>
<path d="M1601.18 0.445312V198.177C1601.18 475.228 1376.59 699.822 1099.54 699.822H901.807V0.445312L1601.18 0.445312Z" fill="#EFE9E2"/>
<path d="M700.208 904.997H502.476C225.425 904.997 0.831299 1129.59 0.831299 1406.64L0.831299 1604.37L700.208 1604.37L700.208 904.997Z" fill="#EFE9E2"/>
</svg>
