<svg width="2098" height="2094" viewBox="0 0 2098 2094" fill="none"
    xmlns="http://www.w3.org/2000/svg">
    <path
        d="M45.4907 45.5779H547.136C824.187 45.5779 1048.78 270.172 1048.78 547.223V1048.87H547.136C270.085 1048.87 45.4907 824.274 45.4907 547.223V45.5779Z"
        fill="#1B222E" />
    <path
        d="M1048.78 1044.87H1550.43C1827.48 1044.87 2052.07 1269.46 2052.07 1546.51V2048.16H1550.43C1273.38 2048.16 1048.78 1823.57 1048.78 1546.51V1044.87Z"
        fill="#1B222E" />
    <path
        d="M2052.07 45.5779V547.223C2052.07 824.274 1827.48 1048.87 1550.43 1048.87H1048.78V45.5779H2052.07Z"
        fill="#1B222E" />
    <path
        d="M1048.78 1044.87L547.137 1044.87C270.086 1044.87 45.4918 1269.46 45.4918 1546.51V2048.16H1048.78V1044.87Z"
        fill="#1B222E" />
    <path
        d="M1048.78 1048.87V547.223C1048.78 270.172 824.187 45.5779 547.136 45.5779H45.4907V547.223C45.4907 824.274 270.085 1048.87 547.136 1048.87H1048.78ZM1048.78 1048.87H1550.43C1827.48 1048.87 2052.07 824.274 2052.07 547.223V45.5779H1048.78V1048.87ZM1048.78 1044.87H1550.43C1827.48 1044.87 2052.07 1269.46 2052.07 1546.51V2048.16H1550.43C1273.38 2048.16 1048.78 1823.57 1048.78 1546.51V1044.87ZM1048.78 1044.87L547.137 1044.87C270.086 1044.87 45.4918 1269.46 45.4918 1546.51V2048.16H1048.78V1044.87Z"
        stroke="#1B222E" stroke-width="90" stroke-linejoin="round" />
</svg>