<svg width="9145" height="3836" viewBox="0 0 9145 3836" fill="none" xmlns="http://www.w3.org/2000/svg">
<rect x="2567.77" y="5.94336" width="3801.41" height="3824.65" rx="55" stroke="#7481A1" stroke-width="10"/>
<path d="M5161.76 1044.26L5186.19 1023.44M5161.76 1044.26L5057.68 965.523M5161.76 1044.26L5162.15 1094.33M5186.19 1023.44L5191.56 1104.41M5186.19 1023.44L5285.54 1096.46M5336.42 1133.85L5443.2 1030.68M5336.42 1133.85L5285.54 1096.46M5336.42 1133.85C5356.66 1133.97 5397.55 1136.15 5399.1 1143.91M5443.2 1030.68L5193.36 852.859C5190.75 851.001 5187.2 851.187 5184.8 853.307V853.307M5443.2 1030.68L5476.3 1055.14C5481.86 1059.25 5482.3 1067.4 5477.21 1072.08L5399.1 1143.91M5057.68 965.523L5020.82 1021.36M5057.68 965.523L5184.8 853.307M4846.36 894.418L5035.42 734.272C5039.31 730.971 5044.97 730.786 5049.07 733.827L5135.31 797.713M4846.36 894.418L4941.9 970.402M4846.36 894.418L4817.03 963.75M5135.31 797.713L4941.9 970.402M5135.31 797.713L5184.8 853.307M4941.9 970.402L4938.33 1061.57M4715.45 1009.18L4784.48 950.723C4788.32 947.47 4793.87 947.239 4797.97 950.161L4817.03 963.75M4715.45 1009.18L4815.68 1081.65M4715.45 1009.18L4684.3 1077.57M4815.68 1081.65L4890.46 1016.12M4815.68 1081.65L4817.45 1166.45M4890.46 1016.12L4817.03 963.75M4890.46 1016.12L4890.56 1021.12M4587.58 1123.09L4649.86 1064.97C4653.57 1061.5 4659.17 1061.03 4663.41 1063.82L4684.3 1077.57M4587.58 1123.09L4682.31 1191.69M4587.58 1123.09L4560.15 1189.69M4682.31 1191.69L4757.44 1125.7M4682.31 1191.69L4684.48 1286.33M4757.44 1125.7L4808.22 1174.84M4757.44 1125.7L4684.3 1077.57M4456.29 1232.9L4551.81 1302.03M4456.29 1232.9L4523.59 1174.74C4527.36 1171.48 4532.84 1171.16 4536.96 1173.96L4560.15 1189.69M4456.29 1232.9L4426.29 1305.2M4551.81 1302.03L4631.86 1238.36M4551.81 1302.03L4551 1398.35M4631.86 1238.36L4560.15 1189.69M4631.86 1238.36L4679.21 1291.12M4320.36 1349.12L4418.05 1421.04M4320.36 1349.12L4394.17 1291.06C4398.12 1287.96 4403.67 1287.92 4407.65 1290.97L4426.29 1305.2M4320.36 1349.12L4290.89 1420.84M4418.05 1421.04L4496.41 1358.79M4418.05 1421.04L4407.79 1515.96M4496.41 1358.79L4426.29 1305.2M4496.41 1358.79L4542.37 1405.27M4182.61 1464.05L4277.26 1536.57M4182.61 1464.05L4247.15 1401.59C4250.9 1397.96 4256.69 1397.47 4261 1400.41L4290.89 1420.84M4182.61 1464.05L4155.18 1530.75M4277.26 1536.57L4359.7 1467.87M4277.26 1536.57L4277.26 1632.74M4359.7 1467.87L4407.79 1515.96M4359.7 1467.87L4290.89 1420.84M4277.26 1632.74L4342.52 1574.35M4277.26 1632.74L4271.29 1638.99M4407.79 1515.96L4470.67 1467.22C4474.51 1464.25 4479.84 1464.14 4483.79 1466.96L4588.05 1541.15M4407.79 1515.96L4389.84 1532.01M4342.52 1574.35L4444.01 1652.11M4342.52 1574.35L4389.84 1532.01M4444.01 1652.11L4361.24 1729.07M4444.01 1652.11L4504.35 1699.7M4361.24 1729.07L4255.97 1655.02M4361.24 1729.07L4365.74 1816.23M4255.97 1655.02L4271.29 1638.99M4255.97 1655.02L4224.4 1714.76M4588.05 1541.15L4502.31 1611.92M4588.05 1541.15L4622.75 1573.14M4502.31 1611.92L4389.84 1532.01M4502.31 1611.92L4504.35 1699.7M4504.35 1699.7L4446 1749.38M4504.35 1699.7C4506.31 1698.53 4516.84 1689.21 4531.16 1676.25M4616.63 1597.63L4622.75 1573.14M4616.63 1597.63C4615.31 1607.2 4613.78 1628.47 4618.2 1636.99M4616.63 1597.63C4606.3 1607.23 4592.82 1619.71 4578.8 1632.64M4622.75 1573.14L4643.92 1537.48C4644.43 1536.63 4644.81 1535.72 4645.07 1534.76L4661.51 1474.65M4542.37 1405.27L4535.49 1412.78C4530.87 1417.82 4531.92 1425.82 4537.69 1429.49L4627.7 1486.88C4631.11 1489.06 4635.44 1489.18 4638.97 1487.21L4661.51 1474.65M4542.37 1405.27L4551 1398.35M4701.92 1408.85L4674.17 1434.62C4672.66 1436.01 4671.58 1437.8 4671.04 1439.78L4661.51 1474.65M4701.92 1408.85L4635.51 1362.04M4701.92 1408.85L4750.68 1360.83M4551 1398.35L4608.18 1352.5C4612 1349.43 4617.39 1349.27 4621.4 1352.09L4635.51 1362.04M4635.51 1362.04L4667.66 1301.63M4667.66 1301.63L4750.68 1360.83M4667.66 1301.63L4679.21 1291.12M4750.68 1360.83L4834.38 1295.51M4834.38 1295.51L4768.1 1250M4834.38 1295.51L4879.29 1247.19M4834.38 1295.51C4864.14 1272.62 4926.41 1227.64 4937.44 1230.79C4950.91 1234.64 4992.58 1226.27 5030.31 1240.58C5032.04 1241.24 5033.89 1241.51 5035.74 1241.32C5048.25 1240.09 5071.49 1238.96 5083.15 1242.61C5095.75 1246.54 5236.74 1281.66 5305.65 1298.72C5333.55 1302.99 5396.03 1309.75 5422.81 1302.66M4768.1 1250L4750.38 1237.84C4746.17 1234.95 4740.52 1235.33 4736.75 1238.77L4684.48 1286.33M4768.1 1250L4798.99 1183.23M4798.99 1183.23L4879.29 1247.19M4798.99 1183.23L4808.22 1174.84M4879.29 1247.19L4964.34 1176.43M4964.34 1176.43L4899.31 1132.42M4964.34 1176.43L5024.91 1134.92M4899.31 1132.42C4901.8 1128.43 4921.93 1087.51 4931.68 1067.55M4899.31 1132.42L4892.51 1127.82M4931.68 1067.55L5024.91 1134.92M4931.68 1067.55L4934.53 1062.39M5024.91 1134.92L5106.56 1082.52M5106.56 1082.52L5020.82 1021.36M5106.56 1082.52L5162.15 1094.33M5020.82 1021.36L5006.91 1011.44C5002.72 1008.44 4997 1008.76 4993.17 1012.21L4938.33 1061.57M4938.33 1061.57L4934.53 1062.39M4892.51 1127.82L4881.01 1120.03C4876.8 1117.19 4871.2 1117.59 4867.44 1121L4817.45 1166.45M4892.51 1127.82L4890.56 1021.12M4817.45 1166.45L4808.22 1174.84M4684.48 1286.33L4679.21 1291.12M5162.15 1094.33L5191.56 1104.41M5191.56 1104.41L5216.78 1116.94C5220.07 1118.57 5223.94 1118.45 5227.16 1116.69C5246.21 1106.25 5278.15 1091.03 5285.54 1096.46M5399.1 1143.91L5414.55 1146.74M4115.24 1774.76L4225.44 1854.9M4115.24 1774.76L4141.4 1751.9M4115.24 1774.76L4087.95 1836.67M4311.6 1778.76L4225.44 1854.9M4311.6 1778.76L4362.83 1818.66M4311.6 1778.76L4224.4 1714.76M4225.44 1854.9L4228.83 1930.45M4155.18 1530.75L4230.69 1592.73M4155.18 1530.75L4133.93 1512.69C4129.77 1509.15 4123.64 1509.2 4119.54 1512.81L4038.34 1584.18M4230.69 1592.73L4145.2 1661.84M4230.69 1592.73L4271.29 1638.99M4145.2 1661.84L4038.34 1584.18M4145.2 1661.84L4147.44 1746.63M4038.34 1584.18L4016.26 1651.86M4147.44 1746.63L4195.76 1704.41C4199.64 1701.02 4205.35 1700.78 4209.51 1703.83L4224.4 1714.76M4147.44 1746.63L4141.4 1751.9M4016.26 1651.86L4092.49 1709.57M4016.26 1651.86L3988.65 1630.45C3984.43 1627.18 3978.47 1627.41 3974.51 1631L3895.86 1702.45M4092.49 1709.57L4004.15 1785.09M4092.49 1709.57L4141.4 1751.9M4004.15 1785.09L3895.86 1702.45M4004.15 1785.09L4006.64 1866.68M3895.86 1702.45L3878.51 1777.34M4006.64 1866.68L4054.28 1822.41C4058.21 1818.76 4064.2 1818.47 4068.46 1821.73L4087.95 1836.67M4006.64 1866.68L3997.04 1874.87M4174.31 1902.82L4085.66 1980.39M4174.31 1902.82L4087.95 1836.67M4174.31 1902.82L4218.05 1940.86M4085.66 1980.39L3973.88 1894.62M4085.66 1980.39L4088 2063.93M3973.88 1894.62L3997.04 1874.87M3973.88 1894.62L3941.03 1959.45M4362.83 1818.66L4301.85 1869.48M4362.83 1818.66L4365.74 1816.23M4301.85 1869.48L4412.29 1948.08M4301.85 1869.48L4274.07 1932.5M4412.29 1948.08L4499.7 1871.51M4412.29 1948.08L4417.07 2024.82M4499.7 1871.51L4411.07 1807.97M4499.7 1871.51L4548.73 1908.66M4274.07 1932.5L4356.73 1994.83M4274.07 1932.5L4252.18 1919.26C4247.91 1916.68 4242.43 1917.3 4238.84 1920.77L4228.83 1930.45M4356.73 1994.83L4274.07 2072.08M4356.73 1994.83L4407.55 2033.46M4274.07 2072.08L4163.62 1993.48M4274.07 2072.08L4276.1 2106.64M4163.62 1993.48L4218.05 1940.86M4163.62 1993.48L4132.2 2056.4M4218.05 1940.86L4228.83 1930.45M4276.1 2106.64L4206.93 2066.83C4205.19 2065.83 4203.22 2065.33 4201.21 2065.37L4143.4 2066.61M4276.1 2106.64L4305.24 2124.93M4305.24 2124.93L4328.24 2101.93C4331.83 2098.33 4337.43 2097.67 4341.77 2100.33L4361.12 2112.21M4305.24 2124.93L4340.93 2142.78C4342.41 2143.52 4343.71 2144.58 4344.72 2145.9L4398.07 2215.05M4444.82 2163.55L4398.07 2215.05M4444.82 2163.55L4361.12 2112.21M4444.82 2163.55L4496.49 2219.6M4398.07 2215.05L4444.03 2276.56M4407.55 2033.46L4384.51 2052.43M4407.55 2033.46L4417.07 2024.82M4384.51 2052.43L4495.74 2125.18M4384.51 2052.43L4361.12 2112.21M4495.74 2125.18L4582.37 2045.65M4495.74 2125.18L4496.49 2219.6M4582.37 2045.65L4493.89 1987.4M4582.37 2045.65L4645.12 2098.78M4365.74 1816.23L4385.43 1799.74C4389.28 1796.52 4394.82 1796.31 4398.9 1799.24L4411.07 1807.97M4446 1749.38L4550.15 1824.6M4446 1749.38L4411.07 1807.97M4550.15 1824.6L4593.22 1791.95C4594.39 1791.06 4595.72 1790.42 4597.14 1790.05C4613.76 1785.8 4638.05 1779.41 4662.1 1772.72M4550.15 1824.6L4548.73 1908.66M4548.73 1908.66L4531.05 1924.58M4548.73 1908.66L4605.5 1859.89C4609.09 1856.81 4614.26 1856.37 4618.32 1858.8L4621.68 1860.82M4417.07 2024.82L4466.96 1979.56C4470.68 1976.19 4476.21 1975.76 4480.4 1978.52L4493.89 1987.4M3878.51 1777.34L3943.63 1831.6M3878.51 1777.34L3849.47 1753.5C3845.28 1750.06 3839.21 1750.19 3835.16 1753.8L3757.82 1822.85M3943.63 1831.6L3860.27 1907.22M3943.63 1831.6L3997.04 1874.87M3860.27 1907.22L3757.82 1822.85M3860.27 1907.22L3861.91 1991.2M3757.82 1822.85L3730.3 1896.28M3861.91 1991.2L3908.88 1947.03C3912.74 1943.4 3918.64 1943.04 3922.92 1946.17L3941.03 1959.45M3861.91 1991.2L3853.7 1999.25M4027.9 2023.12L3989.59 2058.23M4027.9 2023.12L4078.69 2071.54M4027.9 2023.12L3941.03 1959.45M3989.59 2058.23C3966.19 2061.42 3917.84 2070.87 3911.71 2083.13M3989.59 2058.23C4007.9 2051.91 4056.62 2064.47 4078.69 2071.54M3911.71 2083.13L3829.35 2023.12M3911.71 2083.13C3899.9 2090 3875.86 2111.18 3874.16 2140.89M3829.35 2023.12L3853.7 1999.25M3829.35 2023.12L3804.82 2086.02M4078.69 2071.54L4143.4 2066.61M4078.69 2071.54L4088 2063.93M4078.69 2071.54C4089.86 2081.72 4113.58 2104.85 4119.12 2115.92C4124.65 2127 4154.49 2184.36 4168.71 2211.65L4275.98 2427.33M3730.3 1896.28L3802.73 1954.33M3730.3 1896.28L3708.42 1880.88C3704.45 1878.09 3699.11 1878.23 3695.29 1881.23L3612.15 1946.51M3802.73 1954.33L3714.35 2028.88M3802.73 1954.33L3853.7 1999.25M3714.35 2028.88L3612.15 1946.51M3714.35 2028.88L3714.23 2114.66M3612.15 1946.51L3582.62 2021.01M3714.23 2114.66L3767.45 2067.95C3771.44 2064.45 3777.37 2064.3 3781.53 2067.59L3789.58 2073.96L3804.82 2086.02M3714.23 2114.66L3704.97 2123.14M3874.16 2140.89L3872.22 2172.87M3874.16 2140.89L3804.82 2086.02M3872.22 2172.87L3808.14 2222.46M3872.22 2172.87C3871.44 2192.18 3871.23 2232.88 3876.67 2241.28M3808.14 2222.46L3780.48 2221.86M3808.14 2222.46C3823.97 2216.29 3853.42 2240.26 3866.17 2253.02M3780.48 2221.86L3682.49 2143.7M3780.48 2221.86C3724.83 2220.88 3707.13 2255.19 3704.43 2255.19M3682.49 2143.7L3704.97 2123.14M3682.49 2143.7L3653.19 2213.39M4143.4 2066.61L4132.2 2056.4M4132.2 2056.4L4122.67 2047.7C4118.64 2044.03 4112.51 2043.86 4108.29 2047.32L4088 2063.93M3582.62 2021.01L3656.34 2080.35M3582.62 2021.01L3552.12 1998.14C3547.91 1994.98 3542.05 1995.25 3538.15 1998.78L3451.38 2077.2M3656.34 2080.35L3565.09 2163.5M3656.34 2080.35L3704.97 2123.14M3565.09 2163.5L3451.38 2077.2M3565.09 2163.5L3567.33 2238.02M3451.38 2077.2L3433.44 2146.62M3653.19 2213.39L3704.43 2255.19M3653.19 2213.39L3632.21 2196.81C3628.18 2193.62 3622.49 2193.65 3618.49 2196.86L3567.33 2238.02M3704.43 2255.19L3679.26 2324.41M3524.19 2272.72L3635.22 2360.82M3524.19 2272.72L3509.61 2326.84C3508.53 2330.89 3509.83 2335.2 3512.97 2337.97L3639.68 2449.35M3524.19 2272.72L3553.47 2249.18M3635.22 2360.82L3679.26 2324.41M3635.22 2360.82L3639.68 2449.35M3679.26 2324.41C3680.93 2344.46 3687.85 2364.27 3691.1 2371.67L3706.04 2401.69M3639.68 2449.35L3661.38 2431.4C3664.99 2428.42 3670.17 2428.31 3673.91 2431.13V2431.13M3639.68 2449.35L3711.46 2459.52M3639.68 2449.35L3582.43 2411.42M3639.68 2449.35C3639.68 2449.35 3535.96 2459.63 3539.88 2575.13M3711.46 2459.52L3745.74 2481.49M3711.46 2459.52L3673.91 2431.13M3711.46 2459.52L3721.88 2555.36M3745.74 2481.49L3706.04 2401.69M3745.74 2481.49L3761.55 2527.94M3706.04 2401.69L3673.91 2431.13M3567.33 2238.02L3553.47 2249.18M3553.47 2249.18L3503.98 2206.89M3433.44 2146.62L3406.83 2124.45C3402.76 2121.06 3396.86 2121.05 3392.78 2124.42L3312.86 2190.51C3307.57 2194.88 3307.54 2202.99 3312.79 2207.41L3407.91 2287.32M3433.44 2146.62L3503.98 2206.89M3407.91 2287.32L3503.98 2206.89M3407.91 2287.32L3407.13 2377.02M3407.13 2377.02L3463.83 2324.76C3467.89 2321.02 3474.1 2320.87 3478.34 2324.41L3582.43 2411.42M3407.13 2377.02L3401.89 2381.5M3582.43 2411.42L3490.9 2493.52M3490.9 2493.52L3372.74 2406.42M3490.9 2493.52L3494.86 2574.35M3372.74 2406.42L3353.1 2462.17C3351.55 2466.58 3352.96 2471.5 3356.62 2474.42L3488.47 2579.7M3372.74 2406.42L3401.89 2381.5M3539.88 2575.13L3519.84 2560.97C3515.26 2557.74 3508.99 2558.46 3505.27 2562.64L3494.86 2574.35M3539.88 2575.13L3535.43 2604.17C3535.13 2606.12 3535.36 2608.12 3536.1 2609.95L3570.68 2695.88M3721.88 2555.36C3728.2 2582.86 3750.52 2636.59 3792.56 2656.52C3800.32 2660.19 3807.32 2652.34 3804.35 2644.28L3761.55 2527.94M3721.88 2555.36L3761.55 2527.94M4531.05 1924.58L4637.16 1997.97M4531.05 1924.58L4493.89 1987.4M4637.16 1997.97L4722.05 1921.04M4637.16 1997.97L4645.12 2098.78M4722.05 1921.04L4741.72 1941.33M4722.05 1921.04C4736.22 1889.68 4740.73 1876.12 4757.95 1859.97M4722.05 1921.04L4621.68 1860.82M4645.12 2098.78L4777.76 1978.52M4645.12 2098.78L4554.94 2185.13M4777.76 1978.52C4782.95 1975.96 4794.66 1972.27 4800.03 1977.96C4806.74 1985.07 4884.93 2025.74 4900.72 2026.13M4777.76 1978.52L4741.72 1941.33M4496.49 2219.6L4523.54 2190.51C4525.42 2188.5 4527.98 2187.26 4530.73 2187.04L4554.94 2185.13M4496.49 2219.6L4444.03 2276.56M4496.49 2219.6C4476.47 2252.26 4489.52 2328.41 4498.55 2362.41M4554.94 2185.13C4567.79 2198.21 4594.38 2230.01 4597.94 2252.57C4601.51 2275.12 4608.83 2317.85 4612.04 2336.4M4554.94 2185.13C4556.17 2207.86 4560.11 2255.68 4566.04 2265.18C4573.46 2277.05 4588.3 2333.43 4612.04 2336.4M4444.03 2276.56L4498.55 2362.41M3494.86 2574.35L3488.47 2579.7M3294.44 2742.31L3411.08 2830.05M3294.44 2742.31L3480.21 2586.62M3294.44 2742.31L3272.7 2786.37M3411.08 2830.05L3570.68 2695.88M3411.08 2830.05L3412.28 2898.26C3412.45 2907.72 3401.38 2912.96 3394.17 2906.84L3273.18 2804.23C3269.33 2800.96 3268.19 2795.5 3270.43 2790.97L3272.7 2786.37M3570.68 2695.88L3593.41 2760.8M3593.41 2760.8L3454.91 2878.74M3593.41 2760.8L3649.68 2887.94M3454.91 2878.74L3563.65 2959.35M3454.91 2878.74L3430.68 2927.21C3428.39 2931.78 3429.55 2937.32 3433.48 2940.58L3568.52 3052.95M3563.65 2959.35L3649.68 2887.94M3563.65 2959.35L3568.52 3052.95M3649.68 2887.94L3674.56 2964.76M3568.52 3052.95L3644.81 2989.92M3674.56 2964.76L3726.5 3088.12M3674.56 2964.76L3644.81 2989.92M3615.05 3015.08L3587.69 3061.45C3585.04 3065.95 3585.92 3071.7 3589.8 3075.2L3728.12 3200.11M3615.05 3015.08L3714.6 3094.61M3615.05 3015.08L3644.81 2989.92M3728.12 3200.11L3714.6 3094.61M3728.12 3200.11L3767.62 3187.12M3714.6 3094.61L3726.5 3088.12M3726.5 3088.12L3767.62 3187.12M3767.62 3187.12L3777.5 3207.99M3488.47 2579.7L3480.21 2586.62M3431.06 2548.53L3327.36 2462.85C3323.3 2459.49 3317.43 2459.49 3313.36 2462.84L3257 2509.25M3431.06 2548.53L3253.32 2696.13M3431.06 2548.53L3480.21 2586.62M3253.32 2696.13L3140.54 2605.18M3253.32 2696.13L3258 2791.75M3140.54 2605.18L3127.55 2634.8M3140.54 2605.18L3248.51 2516.25M3258 2791.75L3272.7 2786.37M3258 2791.75L3120.55 2669.74C3116.98 2666.57 3115.86 2661.47 3117.78 2657.1L3127.55 2634.8M3093.5 2552.26L3189.08 2466.51M3093.5 2552.26L2988.77 2464.55M3093.5 2552.26L3103.32 2654.38M3189.08 2466.51L3248.51 2516.25M3189.08 2466.51L3127.48 2417M2988.77 2464.55L3078.73 2389.17C3082.75 2385.8 3088.59 2385.75 3092.68 2389.03L3127.48 2417M2988.77 2464.55L2960.83 2536.98M3103.32 2654.38L3127.55 2634.8M3103.32 2654.38L3005.3 2573.62M3248.51 2516.25L3257 2509.25M3344.87 2331.01L3401.89 2381.5M3344.87 2331.01L3248.01 2256.08C3243.82 2252.84 3237.92 2253.05 3233.97 2256.57L3151.11 2330.35M3344.87 2331.01L3255.84 2416.11M3151.11 2330.35L3255.84 2416.11M3151.11 2330.35L3127.48 2417M3255.84 2416.11L3257 2509.25M2960.83 2536.98L3005.3 2573.62M2960.83 2536.98L2957.34 2551.66M3005.3 2573.62L3005.34 2590.26M3005.34 2590.26L3731.58 3220.51M3005.34 2590.26L2957.34 2551.66M3731.58 3220.51L3777.5 3207.99M3731.58 3220.51L3721.15 3249.73M3777.5 3207.99L3788.33 3227.55M3721.15 3249.73L2968.6 2599.05C2966.72 2597.41 2965.44 2595.19 2964.98 2592.74L2957.34 2551.66M3721.15 3249.73L3788.33 3227.55M3788.33 3227.55L3806.15 3267.6M3718.74 3288.85L3732.88 3275.24C3737.37 3270.91 3744.56 3271.18 3748.72 3275.83L3761.82 3290.51M3718.74 3288.85L3731.18 3303.36C3735.24 3308.1 3742.43 3308.51 3747.01 3304.26L3761.82 3290.51M3718.74 3288.85L3721.7 3332.52C3721.93 3335.81 3723.62 3338.84 3726.32 3340.75L3734.51 3346.55C3738.82 3349.6 3744.69 3349.16 3748.5 3345.51L3759.91 3334.53C3762.18 3332.35 3763.4 3329.3 3763.27 3326.15L3761.82 3290.51M3806.15 3267.6L3794.04 3313.67C3793.43 3316.02 3793.6 3318.5 3794.54 3320.73C3799.52 3332.58 3816.29 3372.46 3827.68 3399.54M3806.15 3267.6C3945.51 3104.47 4556.38 2959.06 4777.45 3111.43M5414.55 1146.74L5484.14 1083.74C5487.38 1080.81 5492.04 1080.07 5496.02 1081.86L5528.2 1096.29M5414.55 1146.74L5519.84 1205.46M5519.84 1205.46L5597.79 1127.51M5519.84 1205.46C5536.37 1214.91 5574.1 1231.78 5592.73 1223.68M5597.79 1127.51L5528.2 1096.29M5597.79 1127.51L5644.5 1155.62M5592.73 1223.68L5706.11 1281.39M5592.73 1223.68L5656.28 1162.71M5706.11 1281.39L5779 1208.5M5706.11 1281.39C5717.98 1293.6 5741.25 1317.25 5765.9 1337.55M5779 1208.5L5685.35 1160.82M5779 1208.5L5829.24 1276.01M5667.64 1151.81L5656.28 1162.71M5667.64 1151.81L5528.72 1048.42M5667.64 1151.81L5672.51 1062.9M5667.64 1151.81L5685.35 1160.82M5656.28 1162.71L5644.5 1155.62M6072.58 1523.34C6073.25 1512.87 6077.43 1492.36 6088.77 1493.98C6102.95 1496 6166.72 1529.41 6192.03 1530.42C6212.28 1531.23 6318.57 1533.46 6369.19 1534.47M6072.58 1523.34C6039.13 1502.74 5992.28 1477.43 5939.87 1446.67M6072.58 1523.34C6148.61 1534.01 6146.51 1753.11 6135.95 1861.33L6108.28 2240.92M4618.2 1636.99L4602.03 1647.84M4618.2 1636.99C4620.07 1629.25 4629.46 1611.81 4652.01 1604.01C4674.56 1596.2 4760.3 1564.99 4800.35 1550.36M4531.16 1676.25C4544.95 1663.76 4562.26 1647.89 4578.8 1632.64M4531.16 1676.25L4558.51 1667.47M4578.8 1632.64L4558.51 1667.47M4578.8 1632.64L4602.03 1647.84M4558.51 1667.47L4584.38 1659.17C4585.36 1658.85 4586.29 1658.4 4587.14 1657.83L4602.03 1647.84M5528.72 1048.42L5560.27 994.627M5528.72 1048.42L5528.54 1064.45M5560.27 994.627L5672.51 1062.9M5560.27 994.627L5630.96 933.489C5634.47 930.448 5639.52 929.946 5643.57 932.233L5747.51 991.006M5672.51 1062.9L5747.51 991.006M5747.51 991.006L5781.69 1047.69M5528.2 1096.29L5528.54 1064.45M5528.54 1064.45L5644.5 1155.62M5685.35 1160.82L5721.13 1106.87M5721.13 1106.87L5826.76 1167.78M5721.13 1106.87L5781.69 1047.69M5826.76 1167.78L5904.24 1099.63M5826.76 1167.78L5829.24 1276.01M5904.24 1099.63L5943.95 1150.62M5904.24 1099.63L5804.73 1048.08M5829.24 1276.01L5949.76 1158.08M5829.24 1276.01L5765.9 1337.55M5949.76 1158.08L5943.95 1150.62M5949.76 1158.08L6059.88 1051.9C6064.09 1047.85 6064.39 1041.22 6060.58 1036.8L6016.83 986.06M5765.9 1337.55C5790.29 1357.64 5815.98 1374.39 5841.76 1387.68C5862.27 1398.26 5905.56 1426.54 5939.87 1446.67M5781.69 1047.69L5783.72 1045.7C5787.12 1042.39 5792.26 1041.62 5796.47 1043.8L5804.73 1048.08M5839.82 1000.19L5904.51 937.771C5907.88 934.527 5912.92 933.761 5917.1 935.862L6016.83 986.06M5839.82 1000.19L5942.63 1054.96M5839.82 1000.19L5804.73 1048.08M6016.83 986.06L5942.63 1054.96M5942.63 1054.96L5943.95 1150.62M5268.9 783.284L5374.99 856.22M5268.9 783.284L5230.96 841.85M5268.9 783.284L5333.37 722.692M5374.99 856.22L5447.92 788.257M5374.99 856.22L5376.3 943.242M5447.92 788.257L5487.68 833.858M5447.92 788.257L5361.42 733.625M5376.3 943.242L5487.68 833.858M5376.3 943.242L5230.96 841.85M5487.68 833.858L5491.76 833.316M5230.96 841.85L5225.12 843.685M5381.54 680.349L5492.23 744.48M5381.54 680.349L5361.42 733.625M5381.54 680.349L5453.52 619.552M5492.23 744.48L5566.34 678.924M5492.23 744.48L5491.76 833.316M5566.34 678.924L5463.13 618.717C5460.07 616.934 5456.22 617.268 5453.52 619.552V619.552M5566.34 678.924L5601.84 715.981C5606.09 720.419 5605.88 727.478 5601.37 731.656L5491.76 833.316M5361.42 733.625L5349.56 726.131M5347.28 629.484L5423.82 565.091M5347.28 629.484L5247.65 554.763M5347.28 629.484L5349.56 726.131M5423.82 565.091L5327.96 499.292C5323.93 496.525 5318.55 496.751 5314.77 499.848L5247.65 554.763M5423.82 565.091L5453.52 619.552M5247.65 554.763L5222.28 614.714M5349.56 726.131L5342.7 721.799C5339.75 719.937 5335.92 720.304 5333.37 722.692V722.692M5127.98 662.287L5194.26 604.84C5198.13 601.485 5203.81 601.247 5207.94 604.264L5222.28 614.714M5127.98 662.287L5223.35 733.97M5127.98 662.287L5092.64 734.115C5090.29 738.88 5091.69 744.639 5095.95 747.804L5225.12 843.685M5223.35 733.97L5295.03 667.754M5223.35 733.97L5225.12 843.685M5295.03 667.754L5222.28 614.714M5295.03 667.754L5333.37 722.692M4934.53 1062.39L4890.56 1021.12M5939.87 1446.67C5939.87 1446.67 6127.99 1271.69 6217.96 1179.07C6286.63 1108.38 6215.37 1042.55 6209.9 1037.69C6209.66 1037.48 6209.75 1037.53 6209.49 1037.34C6201.06 1031.33 5527.97 550.957 5353.16 446.726C5311.92 422.142 5265.52 427.502 5231.02 460.808C5230.86 460.966 5230.93 460.913 5230.76 461.061C5225.15 465.863 3770.72 1711.96 2821.2 2481.92C2740.55 2545.15 2755.55 2635.47 2844.19 2696.31C2844.52 2696.54 2844.51 2696.5 2844.82 2696.77C2854.65 2705.2 3424.07 3194.04 3660.78 3404C3709.56 3447.26 3783.53 3447.16 3827.68 3399.54M3827.68 3399.54C3848.47 3448.97 3879.56 3522.9 3886.52 3539.45C3887.45 3541.66 3887.62 3544.06 3887.05 3546.39C3878.96 3579.56 3866.85 3650.21 3877.01 3694.65C3887.55 3740.76 3906.6 3805.06 3914.81 3831.44M4636.07 2384.18L4973.31 2060.43M4636.07 2384.18L4677.79 2442.5C4678.99 2444.17 4679.69 2446.14 4679.84 2448.2C4681.33 2468.43 4686.1 2506.55 4695.18 2519.27C4707.15 2536.02 4747.85 2625.79 4747.85 2649.73C4747.85 2673.66 4765.1 2754.36 4774.05 2773.52C4782.99 2792.68 4803.43 2834.84 4805.99 2865.5C4808.03 2890.03 4787.81 3039.67 4777.45 3111.43M4636.07 2384.18L4612.04 2336.4M4973.31 2060.43C4954.38 2049.13 4913.35 2026.45 4900.72 2026.13M4973.31 2060.43C4982.1 2067.31 5014.54 2081.24 5073.99 2081.93C5148.3 2082.8 5131.02 2109.58 5151.76 2116.49C5168.07 2121.93 5265.96 2159.02 5315.22 2177.78C5316.84 2178.4 5318.25 2179.37 5319.43 2180.66C5333.38 2195.83 5360.84 2222.57 5372.09 2221.91C5383.65 2221.23 5417.89 2221.05 5434.36 2221.05C5434.91 2221.05 5435.42 2221.08 5435.96 2221.17C5529.59 2235.32 5722.64 2263.04 5752.28 2261.66C5782.01 2260.27 5893.12 2234.01 5944.97 2221.05C5965.42 2215 6012.19 2204.97 6035.7 2213.27C6041.61 2215.36 6048.24 2217.78 6055.07 2220.33M4900.72 2026.13C4908.11 2007.46 4903.79 1928.59 4901.47 1898.96C4899.14 1869.32 4832.9 1868.74 4800.36 1862.93C4774.33 1858.28 4750.42 1913.26 4741.72 1941.33M5237.08 1779.64C5237.08 1779.64 5284.98 1786.23 5304.73 1801.34M5237.08 1779.64C5237.08 1779.64 5178.74 1758.73 5159.46 1750.2C5148.12 1746.55 5126.03 1741 5103.27 1738.86M5237.08 1779.64L5189.7 1811.24M5304.73 1801.34C5318.25 1811.68 5345.77 1823.88 5363.15 1830.84C5367.76 1832.68 5370.66 1837.31 5370.19 1842.25L5369.74 1847.03C5369.42 1850.46 5367.5 1853.51 5364.66 1855.44C5347.69 1867 5330.57 1885.34 5336.11 1919.88M5304.73 1801.34L5179.11 1893.34M5336.11 1919.88C5334.32 1920.59 5250.56 1910.26 5185.78 1899.65M5336.11 1919.88C5361.9 1929.17 5418.19 1948.54 5437.02 1951.68C5460.55 1955.6 5507.63 1966.39 5523.32 1983.06C5535.87 1996.4 5552.09 2008.23 5558.63 2012.48M4962.81 1825.42C4981.53 1825.17 5003.26 1830.91 5016.91 1835.77C5019.65 1836.75 5021.75 1838.93 5023.58 1841.21C5028.67 1847.54 5040.53 1855.56 5061.84 1854.8C5094.38 1854.22 5107.75 1871.07 5111.24 1882.11C5112.57 1886.34 5145.51 1893.05 5185.78 1899.65M4962.81 1825.42C4955.5 1825.51 4948.64 1826.52 4942.91 1828.86C4940.1 1830 4937 1830.49 4934.06 1829.73C4927.05 1827.9 4918.62 1826.02 4909.33 1824.39M4962.81 1825.42L5028.75 1765.15C5033.01 1761.26 5039.54 1761.31 5043.73 1765.28L5073.58 1793.51M5185.78 1899.65L5179.11 1893.34M4878.21 1732.96C4855.69 1739.34 4825.37 1747.15 4805.34 1752.16C4802.87 1752.77 4800.28 1752.49 4797.91 1751.55C4793.21 1749.67 4786.87 1747.71 4779.64 1746.38M4878.21 1732.96C4889.25 1729.83 4898.41 1727.05 4903.56 1725.11C4906.01 1724.18 4908.69 1723.73 4911.28 1724.18C4919.71 1725.64 4929.85 1727.31 4940.91 1729M4878.21 1732.96L4908.55 1746.4M4908.55 1746.4L4940.91 1729M4908.55 1746.4L4909.33 1824.39M4940.91 1729C4984.78 1735.7 5043.22 1742.76 5067.65 1739.16C5078.69 1737.54 5091.08 1737.71 5103.27 1738.86M4909.33 1824.39C4895.66 1821.99 4880.13 1820.1 4864.48 1819.62M4779.64 1746.38C4766.65 1743.99 4750.8 1743.66 4736.44 1749.62C4732.39 1751.3 4726.84 1753.29 4720.23 1755.47M4779.64 1746.38L4851.98 1791.38M4851.98 1791.38L4819.1 1823.29M4851.98 1791.38L4864.48 1819.62M4819.1 1823.29C4808.35 1825.74 4798.55 1829.53 4790.48 1835.04C4775.8 1845.06 4765.62 1852.77 4757.95 1859.97M4819.1 1823.29C4833.17 1820.07 4848.88 1819.15 4864.48 1819.62M4720.23 1755.47C4704.77 1760.57 4683.53 1766.76 4662.1 1772.72M4720.23 1755.47L4687.26 1789.8M4673.25 1804.4L4757.95 1859.97M4673.25 1804.4L4621.68 1860.82M4673.25 1804.4L4687.26 1789.8M4662.1 1772.72L4687.26 1789.8M4800.35 1550.36C4801.61 1543.28 4803.99 1528.05 4803.38 1523.8C4802.63 1518.49 4861.83 1510.52 4878.9 1494.96M4800.35 1550.36L4864.28 1519.13C4865.66 1518.46 4867.18 1518.08 4868.72 1518.02L4918.36 1516.28M4878.9 1494.96C4895.98 1479.4 4932.41 1441.45 4940.38 1442.59M4878.9 1494.96L4918.36 1516.28M4940.38 1442.59C4948.35 1443.73 4967.7 1453.97 4971.88 1453.97C4976.05 1453.97 5028.42 1472.57 5039.8 1471.81C5051.19 1471.05 5142.27 1462.32 5148.34 1460.8C5153.2 1459.59 5198.94 1484.84 5221.2 1497.61M4940.38 1442.59L4945.49 1515.33M5221.2 1497.61L5261.75 1495.55C5264.47 1495.41 5267.04 1494.27 5268.97 1492.34L5332.77 1428.55M5221.2 1497.61L5203 1505.51C5201.73 1506.06 5200.38 1506.37 5199 1506.42L4945.49 1515.33M4918.36 1516.28L4945.49 1515.33M6108.28 2240.92C6100.56 2237.83 6087.02 2232.5 6072.51 2226.93M6108.28 2240.92L6087.9 2378.13M6072.51 2226.93L6087.9 2378.13M6072.51 2226.93C6066.75 2224.73 6060.84 2222.49 6055.07 2220.33M6087.9 2378.13L6371.7 2359.44M4777.45 3111.43C4789.33 3119.62 4800.09 3128.67 4809.59 3138.63C4810.92 3140.03 4811.83 3141.74 4812.23 3143.63C4816.87 3165.57 4823.01 3211.28 4814.44 3239.85C4805.63 3269.22 4818.97 3358.76 4827.1 3401.97C4827.38 3403.41 4827.94 3404.74 4828.7 3405.99C4833.37 3413.63 4839.74 3427.62 4843.03 3444.77M3876.67 2241.28C3882.1 2249.68 3871.93 2252.61 3866.17 2253.02M3876.67 2241.28L3909.64 2273.45C3913.57 2277.28 3919.91 2277.04 3923.54 2272.92V2272.92C3926.07 2270.04 3926.65 2265.93 3925 2262.46L3918.12 2247.97C3914.3 2239.94 3924.92 2232.93 3930.8 2239.6V2239.6C3931.37 2240.24 3931.81 2240.94 3932.14 2241.74C3967.47 2328.02 4032.1 2498.84 4011.67 2501.05C3991.15 2503.27 3958.76 2432.19 3945.13 2396.38L3866.17 2253.02M5189.7 1811.24L5103.27 1738.86M5189.7 1811.24L5179.11 1893.34M5103.27 1738.86L5073.58 1793.51M5073.58 1793.51L5179.11 1893.34M4498.55 2362.41C4526.02 2393.01 4582.85 2461.73 4590.36 2491.78C4599.75 2529.34 4635.23 2712.97 4650.88 2733.84C4666.53 2754.7 4719.74 2859.04 4720.78 2881.99M5065.63 3830.23C5049.26 3810.25 5010.61 3763.42 4987.03 3735.91C4965.43 3710.71 4923.52 3695.18 4900.53 3689.25C4896.91 3688.32 4893.94 3685.73 4891.99 3682.53C4884.41 3670.05 4865.81 3649.87 4854.47 3638.3C4852.73 3636.54 4851.62 3634.26 4851.34 3631.8C4846.94 3592.88 4839.98 3513.88 4844.31 3480.65C4845.97 3467.96 4845.13 3455.72 4843.03 3444.77M4843.03 3444.77L6055.07 2220.33" stroke="#7481A1" stroke-width="10"/>
<path d="M4412.07 1897.71C4411.08 1898.68 4409.54 1898.79 4408.42 1897.96L4374.04 1872.64C4372.64 1871.6 4372.49 1869.56 4373.74 1868.34V1868.34C4374.73 1867.37 4376.28 1867.26 4377.4 1868.08L4390.09 1877.43C4391.67 1878.6 4393.86 1878.44 4395.26 1877.07L4407.52 1865.1C4409.29 1863.37 4409.09 1860.48 4407.1 1859.02L4396.21 1850.99C4394.8 1849.96 4394.66 1847.91 4395.91 1846.69V1846.69C4396.9 1845.72 4398.45 1845.61 4399.57 1846.44L4433.94 1871.76C4435.35 1872.8 4435.49 1874.84 4434.24 1876.06V1876.06C4433.25 1877.03 4431.7 1877.14 4430.59 1876.32L4417.82 1866.91C4416.24 1865.75 4414.05 1865.9 4412.65 1867.27L4400.39 1879.24C4398.62 1880.97 4398.82 1883.86 4400.81 1885.33L4411.78 1893.41C4413.18 1894.44 4413.32 1896.49 4412.07 1897.71V1897.71Z" fill="#C15050"/>
<path d="M4805.5 824.787L4797.34 817.508M4900.65 744.571L4858.2 728.85M4834.83 720.195L4817.44 713.752C4813.51 712.299 4809.11 713.198 4806.06 716.071L4796.2 725.386M4834.83 720.195L4793.5 759.98C4791.94 761.476 4790.86 763.396 4790.39 765.501L4781.84 803.686M4834.83 720.195L4858.2 728.85M4781.84 803.686L4769.1 792.322C4766.27 789.804 4764.94 786.011 4765.57 782.28L4768.64 764.155M4781.84 803.686L4797.34 817.508M4858.2 728.85L4810.24 772.164C4808.59 773.649 4807.43 775.597 4806.91 777.752L4797.34 817.508M4796.2 725.386L4773.88 746.467C4772.14 748.109 4770.98 750.273 4770.59 752.631L4768.64 764.155M4796.2 725.386C4730.33 700.249 4591.74 648.535 4564.3 642.782C4551.73 640.145 4504.21 631.754 4447.41 621.91M4198.08 613.462C4199.78 601.553 4230.57 592.097 4247.53 588.431C4248.86 588.146 4250.19 588.127 4251.52 588.353C4302.26 596.961 4381.15 610.424 4447.41 621.91M4198.08 613.462C4195.87 628.951 4198.08 651.08 4211.91 667.676M4198.08 613.462L4178.51 611.041C4174.99 610.606 4171.49 611.889 4169.08 614.486L4144.13 641.449M4211.91 667.676C4222.97 680.953 4269.01 729.564 4288.55 750.217M4211.91 667.676L4206.04 665.875C4198.87 663.676 4191.65 669.139 4191.81 676.636L4191.89 679.884C4191.92 681.474 4192.3 683.024 4192.97 684.464C4197.4 693.879 4214.78 732.184 4219.79 763.53C4221.65 775.135 4191.94 797.88 4184.98 786.74C4178.01 775.599 4141.9 711.263 4136.7 699.008C4135.37 695.867 4134.9 691.478 4135.02 686.451M4288.55 750.217C4306.88 761.419 4333.29 733.084 4323.94 720.705M4288.55 750.217L2567.94 2140.23M4323.94 720.705C4304.86 695.452 4269.13 662.702 4251.13 645.804C4248.44 643.279 4247.47 639.444 4248.6 635.93V635.93C4250.08 631.309 4254.76 628.508 4259.53 629.394L4406.19 656.606M4323.94 720.705L4406.19 656.606M4406.19 656.606L4563.67 689.122C4564.09 689.208 4564.48 689.312 4564.88 689.445C4576.52 693.293 4757.24 753.192 4768.64 764.155M4144.13 641.449L4115.76 627.684C4112.29 626.002 4108.18 626.234 4105.05 628.474C4092.79 637.231 4075.09 652.444 4074.59 663.43C4074.44 666.727 4074.17 675.011 4073.84 686.191M4144.13 641.449C4140.68 651.92 4135.38 671.87 4135.02 686.451M4135.02 686.451C4132.29 683.37 4128.38 682.661 4124.85 682.927C4120.58 683.25 4118.06 687.357 4118.04 691.642C4117.89 721.523 4117.53 774.231 4117 791.738C4116.52 807.596 4095.09 807.994 4079.18 805.389C4074.13 804.563 4070.73 799.979 4070.86 794.864C4070.88 794.234 4070.9 793.596 4070.91 792.953M4073.84 686.191L4044.2 647.204M4073.84 686.191C4073 714.508 4071.74 761.41 4070.91 792.953M4044.2 647.204H4007.99C4002.76 647.204 3998.26 650.88 3997.21 656L3986.98 706.051M4044.2 647.204L4017.96 806.581M3986.98 706.051L3955.77 644.278M3986.98 706.051L3966.12 805.533M3955.77 644.278H3918.38M3955.77 644.278L3924.23 808.675M3918.38 644.278L3903.59 688.293C3900.12 698.621 3885.35 698.159 3882.53 687.633L3871.89 647.854M3918.38 644.278L3880.24 808.675M3871.89 647.854L3832.55 647.529M3871.89 647.854L3835.72 813.389M3832.55 647.529L3817.42 692.746C3813.99 703.009 3799.36 702.669 3796.41 692.258L3784.1 648.829M3832.55 647.529L3791.21 812.865M3784.1 648.829L3744.11 649.479M3784.1 648.829L3749.84 814.96M3744.11 649.479L3728.88 695.668C3725.43 706.128 3710.46 705.591 3707.77 694.911L3695.34 645.578M3744.11 649.479L3704.28 814.96M3695.34 645.578L3656.65 644.928M3695.34 645.578L3656.63 813.912M3656.65 644.928L3641.4 691.037C3637.96 701.456 3623.05 700.961 3620.31 690.338L3607.56 641.026M3656.65 644.928L3617.35 813.389M3607.56 641.026L3567.25 640.376M3607.56 641.026L3568.65 811.294M3567.25 640.376L3551.83 686.783C3548.27 697.519 3532.77 696.527 3530.6 685.425L3521.73 640.051M3567.25 640.376L3527.28 811.294M3521.73 640.051L3477.52 640.376M3521.73 640.051L3481.72 807.628M3477.52 640.376L3458.31 687.754C3454.06 698.235 3438.66 696.252 3437.21 685.036L3430.7 634.849M3477.52 640.376L3431.97 807.104M3430.7 634.849H3385.5M3430.7 634.849L3392.17 803.962M3385.5 634.849L3370.2 676.838C3366.26 687.664 3350.44 685.909 3348.96 674.482L3342.91 627.696M3385.5 634.849L3344.51 803.439M3342.91 627.696L3300.65 627.046M3342.91 627.696L3293.72 794.536M3300.65 627.046L3283.22 667.75C3278.67 678.377 3262.91 675.692 3262.14 664.158L3259.69 627.696M3300.65 627.046L3246.06 794.536M3259.69 627.696L3213.52 626.721M3259.69 627.696L3208.36 786.681M3213.52 626.721L3194.92 665.108C3190.06 675.123 3175.11 672.423 3174.07 661.342L3169.31 610.79M3213.52 626.721L3162.8 786.157M3169.31 610.79H3120.22M3169.31 610.79L3123.52 773.589M3120.22 610.79L3108.92 643.514C3105.11 654.538 3089.02 652.839 3087.6 641.263L3082.83 602.337M3120.22 610.79L3083.72 773.065M3082.83 602.337L3034.71 602.012M3082.83 602.337L3038.16 766.257M3034.71 602.012L3019.9 634.643C3015.07 645.274 2999.19 642.055 2998.88 630.384L2997.96 595.184M3034.71 602.012L2976.89 765.734M2997.96 595.184H2952.77M2997.96 595.184L2944.42 756.831M2952.77 595.184L2932.77 640.491C2928.24 650.769 2913.03 648.436 2911.78 637.271L2906.93 593.883M2952.77 595.184L2898.34 756.831M2906.93 593.883H2865.96M2906.93 593.883L2854.35 745.31M2865.96 593.883L2840.49 636.649C2835.28 645.398 2822 642.979 2820.21 632.956L2811.02 581.529M2865.96 593.883L2804.08 744.263M2811.02 581.529L2774.28 579.254M2811.02 581.529L2764.28 728.029M2774.28 579.254L2734.36 636.84C2728.48 645.315 2715.22 641.773 2714.35 631.497L2708.61 563.323M2774.28 579.254L2704.58 728.553M2708.61 563.323L2679.67 559.096M2708.61 563.323L2662.68 709.7M2679.67 559.096L2644.03 607.969C2637.97 616.284 2624.83 612.464 2624.17 602.195L2620.83 550.316M2679.67 559.096L2608.22 708.129M2620.83 550.316L2596.76 547.058C2592.42 546.47 2588.14 548.514 2585.87 552.26L2568.15 581.528M2620.83 550.316L2581.4 676.836M4070.91 792.953L4050.29 748.344C4045.84 738.717 4031.68 740.344 4029.53 750.73L4017.96 806.581M4017.96 806.581L3966.12 805.533M3966.12 805.533L3959.25 777.551C3956.73 767.318 3942.66 766.133 3938.47 775.801L3924.23 808.675M3924.23 808.675H3880.24M3880.24 808.675L3871.23 782.18C3868.04 772.801 3855.05 772.087 3850.85 781.06L3835.72 813.389M3835.72 813.389L3791.21 812.865M3791.21 812.865L3782.56 788.431C3779.25 779.082 3766.23 778.545 3762.16 787.589L3749.84 814.96M3749.84 814.96H3704.28M3704.28 814.96L3690.15 779.182C3686.45 769.821 3673.17 769.93 3669.62 779.351L3656.63 813.912M3656.63 813.912L3617.35 813.389M3617.35 813.389L3599.57 783.649C3594.97 775.952 3583.59 776.7 3580.03 784.933L3568.65 811.294M3568.65 811.294H3527.28M3527.28 811.294L3510.33 787.822C3505.57 781.24 3495.57 781.899 3491.72 789.047L3481.72 807.628M3481.72 807.628L3431.97 807.104M3431.97 807.104L3422.24 782.136C3418.68 772.999 3405.85 772.732 3401.92 781.713L3392.17 803.962M3392.17 803.962L3344.51 803.439M3344.51 803.439L3331.39 761.951C3328.41 752.56 3315.54 751.509 3311.09 760.293L3293.72 794.536M3293.72 794.536H3246.06M3246.06 794.536L3237.5 769.37C3234.32 760.024 3221.39 759.273 3217.15 768.188L3208.36 786.681M3208.36 786.681L3162.8 786.157M3162.8 786.157L3154.57 758.405C3151.87 749.317 3139.71 747.665 3134.69 755.704L3123.52 773.589M3123.52 773.589L3083.72 773.065M3083.72 773.065L3063.68 749.289C3058.56 743.218 3048.9 744.402 3045.4 751.528L3038.16 766.257M3038.16 766.257L2976.89 765.734M2976.89 765.734L2968.62 748.453C2964.7 740.267 2953.11 740.083 2948.93 748.14L2944.42 756.831M2944.42 756.831H2898.34M2898.34 756.831L2882.53 730.15C2878.3 723.014 2868 722.948 2863.68 730.028L2854.35 745.31M2854.35 745.31L2804.08 744.263M2804.08 744.263L2790.79 717.363C2786.98 709.656 2776.2 709.1 2771.62 716.375L2764.28 728.029M2764.28 728.029L2704.58 728.553M2704.58 728.553L2689.18 699.093C2685.29 691.647 2674.82 691.137 2670.22 698.169L2662.68 709.7M2662.68 709.7L2608.22 708.129M2608.22 708.129L2605.44 682.971C2604.67 676.058 2597.76 671.581 2591.14 673.708L2581.4 676.836M2567.38 660.474L2581.4 676.836M4447.41 621.91L5213.94 5.35156M4229.45 638.99V638.99C4226.41 647.231 4214.92 647.662 4211.27 639.671L4211.05 639.175C4209.83 636.501 4209.87 633.421 4211.16 630.781V630.781C4214.72 623.51 4225.05 623.422 4228.73 630.631L4228.98 631.117C4230.23 633.561 4230.4 636.415 4229.45 638.99Z" stroke="#7481A1" stroke-width="10"/>
<path d="M6369.98 853.708C6334.8 871.296 6254.1 903.727 6212.74 892.753C6176.16 883.048 6023.01 774.155 5925.79 702.384M5876.11 469.586C5875.76 494.209 5873.79 554.008 5868.73 596.22C5863.66 638.431 5881.39 667.275 5890.88 676.421C5901.3 684.236 5913.07 692.992 5925.79 702.384M5876.11 469.586C5890.64 478.515 5907.58 488.508 5926.33 499.092M5876.11 469.586C5876.92 440.872 5765.62 354.466 5706.07 312.073C5703.46 310.218 5701.81 307.363 5701.51 304.178C5699.55 284.012 5696.49 251.805 5694.75 232.018M6368.92 648.983C6260.16 668.09 6052.35 570.235 5926.33 499.092M5926.33 499.092C5916.33 548.776 5902.22 658.993 5925.79 702.384M6371.04 127.676C6365.02 123.462 6281.73 96.583 6196.79 76.62M5739.47 146.251C5715.68 177.242 5693.01 209.287 5693.55 217.374C5693.74 220.32 5694.17 225.494 5694.75 232.018M5739.47 146.251C5849.92 157.003 6063.61 180.15 6106.99 193.348C6111.73 194.787 6112.52 199.574 6109.73 203.66L6028.85 322.218M5739.47 146.251C5748.67 134.259 5758.04 122.426 5766.3 112.199M6028.85 322.218L5694.75 232.018M6028.85 322.218L6369.2 447.036M6012.43 359.742C6006.96 369.124 5997.19 392.577 6001.88 411.339M6012.43 359.742L6039.94 368.911M6012.43 359.742L5968.76 356.178C5958.18 355.314 5952.64 368.464 5960.64 375.437L6001.88 411.339M6001.88 411.339L6026.22 418.947M6093.34 386.713C6087.09 394.14 6075.05 414.153 6076.93 434.792M6093.34 386.713L6058.35 375.049M6093.34 386.713L6137.98 409.166C6147.9 414.153 6145.03 429.016 6133.97 429.954L6076.93 434.792M6076.93 434.792L6046.35 425.237M5895.17 140.458L6013.6 154.53M5895.17 140.458C5902.98 131.859 5924.45 101.531 5924.45 101.531M5895.17 140.458L5918.42 109.541M6013.6 154.53L5924.45 101.531M6013.6 154.53L6020 143.806C6023.18 138.488 6021.34 131.6 6015.94 128.572L6008.38 124.339M5924.45 101.531L5935.03 91.8697C5938.54 88.6738 5943.69 88.0811 5947.83 90.399L6008.38 124.339M5924.45 101.531L5918.42 109.541M6039.94 368.911L6026.22 418.947M6039.94 368.911L6058.35 375.049M6026.22 418.947L6046.35 425.237M6058.35 375.049L6046.35 425.237M5766.3 112.199C5769.12 108.707 5771.81 105.402 5774.32 102.343C5775.99 100.302 5778.3 98.9462 5780.9 98.5026C5842.53 87.9949 5973.28 65.828 6034.4 55.9166C6067.95 50.4771 6132.84 61.588 6196.79 76.62M5766.3 112.199L5918.42 109.541M6008.38 124.339L6136.76 153.827C6141.21 154.851 6145.84 153.013 6148.37 149.211L6196.79 76.62M6100.88 173.613V173.613C6097.59 176.097 6092.97 175.748 6090.09 172.797L6089.39 172.081C6085.79 168.387 6086.52 162.311 6090.9 159.576V159.576C6093.66 157.851 6097.18 157.949 6099.84 159.823L6100.66 160.399C6105.19 163.591 6105.3 170.271 6100.88 173.613Z" stroke="#7481A1" stroke-width="10"/>
<path d="M6400.59 3197.13C6869.37 3233.24 7290.54 3235.16 7460.36 2980.42C7571.37 2813.9 6998.79 2595.12 6973.79 2365.57C6953.96 2183.39 8188.44 1953.55 8189.26 1953.39C8189.28 1953.39 8189.27 1953.39 8189.3 1953.39C8450.55 1904.39 8867.76 1747.37 8968.79 1691.54" stroke="#7481A1" stroke-width="10" stroke-dasharray="155 155"/>
<path d="M7715.66 2886.78C7725.43 2707.81 7216.84 2432.94 7236.69 2371.63C7271.37 2264.55 8097.59 2089.31 8196 2069.68M7715.66 2886.78C7778.79 3456.27 7068.29 3576.12 6369.59 3549.34L6369.3 3401.91M7715.66 2886.78C7703.5 3375.96 7031.52 3429.44 6369.3 3401.91M8196 1781.1C7922.56 1858.02 6758.26 2067.26 6747.2 2380.82M6747.2 2380.82C6736.49 2684.18 7333.94 2856.07 7187.24 3021.56M6747.2 2380.82C6650.93 2725.08 7120.64 2819.87 7187.24 3021.56M7187.24 3021.56C7128.46 3087.87 6773.65 3065.86 6369.23 3042.36L6369.3 3401.91M7297.65 2446.27C7354.82 2327.18 8066.34 2201.83 8196 2169.67" stroke="#7481A1" stroke-width="10"/>
<path d="M2536.91 1711.73C2068.13 1752.67 1646.96 1754.84 1477.14 1466.04C1366.13 1277.27 1938.71 1029.23 1963.71 768.998C1983.55 562.392 1214.9 509.05 748.239 301.713C523.359 201.8 177.606 31.2892 177.606 31.2892" stroke="#7481A1" stroke-width="10" stroke-dasharray="155 155"/>
<path d="M1221.83 1359.89C1212.07 1156.98 1720.66 845.376 1700.8 775.859C1666.13 654.466 888.4 527.069 746.527 433.545M1221.83 1359.89C1158.71 2005.51 1869.2 2081.15 2567.9 2050.79L2568.2 1943.89M1221.83 1359.89C1234 1914.46 1905.98 1975.1 2568.2 1943.89M746.527 106.384C1231.18 406.787 2179.23 430.8 2190.3 786.286M2190.3 786.286C2201.01 1130.2 1603.55 1325.07 1750.26 1512.69M2190.3 786.286C2286.56 1176.57 1816.86 1284.03 1750.26 1512.69M1750.26 1512.69C1809.04 1587.86 2163.84 1562.91 2568.26 1536.27L2568.2 1943.89M1639.84 860.482C1582.67 725.476 924.455 634.708 727.95 547.682" stroke="#7481A1" stroke-width="10"/>
</svg>
