<svg width="714" height="301" viewBox="0 0 714 301" fill="none" xmlns="http://www.w3.org/2000/svg">
<rect x="208.207" y="0.894531" width="297.551" height="299.5" rx="4.75" stroke="#7481A1" stroke-width="0.5"/>
<path d="M411.198 82.2667L413.108 80.6384M411.198 82.2667L403.059 76.1071M411.198 82.2667L411.229 86.1842M413.108 80.6384L413.528 86.9731M413.108 80.6384L420.878 86.3508M424.856 89.2759L433.207 81.2047M424.856 89.2759L420.878 86.3508M424.856 89.2759C426.439 89.2853 429.637 89.4558 429.758 90.0626M433.207 81.2047L413.669 67.2929C413.465 67.1476 413.188 67.1621 413 67.328V67.328M433.207 81.2047L434.685 82.2976C435.696 83.0446 435.775 84.5272 434.85 85.3778L429.758 90.0626M403.059 76.1071L400.177 80.4751M403.059 76.1071L413 67.328M386.533 70.5442L400.628 58.5998C401.337 57.9992 402.366 57.9657 403.112 58.5188L409.13 62.9787M386.533 70.5442L394.005 76.4887M386.533 70.5442L384.24 75.9683M409.13 62.9787L394.005 76.4887M409.13 62.9787L413 67.328M394.005 76.4887L393.726 83.6212M376.297 79.5226L381.018 75.5227C381.716 74.931 382.727 74.8889 383.472 75.4205L384.24 75.9683M376.297 79.5226L384.135 85.192M376.297 79.5226L373.861 84.8729M384.135 85.192L389.983 80.0654M384.135 85.192L384.273 91.8261M389.983 80.0654L384.24 75.9683M389.983 80.0654L389.99 80.4565M366.297 88.4342L370.512 84.4992C371.187 83.869 372.205 83.7828 372.976 84.2905L373.861 84.8729M366.297 88.4342L373.705 93.8011M366.297 88.4342L364.152 93.6446M373.705 93.8011L379.581 88.6386M373.705 93.8011L373.875 101.205M379.581 88.6386L383.551 92.4826M379.581 88.6386L373.861 84.8729M356.031 97.0248L363.5 102.434M356.031 97.0248L360.631 93.0469C361.316 92.4547 362.314 92.3966 363.063 92.9051L364.152 93.6446M356.031 97.0248L353.684 102.682M363.5 102.434L369.76 97.4518M363.5 102.434L363.437 109.969M369.76 97.4518L364.152 93.6446M369.76 97.4518L373.463 101.58M345.401 106.118L353.04 111.744M345.401 106.118L350.478 102.122C351.196 101.558 352.204 101.55 352.93 102.105L353.684 102.682M345.401 106.118L343.096 111.728M353.04 111.744L359.168 106.873M353.04 111.744L352.238 119.17M359.168 106.873L353.684 102.682M359.168 106.873L362.762 110.511M334.628 115.109L342.03 120.782M334.628 115.109L339.007 110.87C339.69 110.209 340.743 110.119 341.527 110.655L343.096 111.728M334.628 115.109L332.484 120.327M342.03 120.782L348.477 115.407M342.03 120.782L342.03 128.306M348.477 115.407L352.238 119.17M348.477 115.407L343.096 111.728M342.03 128.306L347.134 123.738M342.03 128.306L341.563 128.795M352.238 119.17L356.486 115.876C357.183 115.336 358.152 115.316 358.871 115.828L366.334 121.141M352.238 119.17L350.834 120.426M347.134 123.738L355.07 129.822M347.134 123.738L350.834 120.426M355.07 129.822L348.598 135.842M355.07 129.822L359.789 133.545M348.598 135.842L340.366 130.049M348.598 135.842L348.949 142.661M340.366 130.049L341.563 128.795M340.366 130.049L337.897 134.723M366.334 121.141L359.629 126.677M366.334 121.141L369.048 123.643M359.629 126.677L350.834 120.426M359.629 126.677L359.789 133.545M359.789 133.545L355.226 137.431M359.789 133.545C359.942 133.453 360.766 132.724 361.885 131.71M368.569 125.559L369.048 123.643M368.569 125.559C368.466 126.308 368.346 127.972 368.692 128.639M368.569 125.559C367.761 126.31 366.707 127.287 365.611 128.298M369.048 123.643L370.625 120.986C370.716 120.832 370.787 120.666 370.834 120.492L372.079 115.938M362.762 110.511V110.511C362.12 111.211 362.266 112.322 363.067 112.834L368.861 116.529C369.481 116.925 370.268 116.948 370.91 116.589L372.079 115.938M362.762 110.511L363.437 109.969M375.238 110.79L373.306 112.585C373.033 112.839 372.837 113.164 372.738 113.523L372.079 115.938M375.238 110.79L370.045 107.128M375.238 110.79L379.051 107.034M363.437 109.969L367.239 106.919C367.934 106.361 368.915 106.331 369.643 106.844L370.045 107.128M370.045 107.128L372.56 102.402M372.56 102.402L379.051 107.034M372.56 102.402L373.463 101.58M379.051 107.034L385.597 101.923M385.597 101.923L380.414 98.363M385.597 101.923L389.109 98.1432M385.597 101.923C387.924 100.133 392.794 96.6136 393.656 96.86C394.677 97.1518 397.768 96.5458 400.642 97.5267C400.962 97.6356 401.299 97.6853 401.636 97.6578C402.651 97.5746 404.223 97.5257 405.051 97.7843C406.036 98.0924 417.061 100.84 422.45 102.175C424.632 102.508 429.518 103.037 431.612 102.483M380.414 98.363L379.773 97.9227C379.007 97.397 377.981 97.4672 377.294 98.0923L373.875 101.205M380.414 98.363L382.83 93.1391M382.83 93.1391L389.109 98.1432M382.83 93.1391L383.551 92.4826M389.109 98.1432L395.76 92.6068M395.76 92.6068L390.674 89.1638M395.76 92.6068L400.496 89.3594M390.674 89.1638C390.869 88.8518 392.443 85.6507 393.206 84.0891M390.674 89.1638L390.143 88.8039M393.206 84.0891L400.496 89.3594M393.206 84.0891L393.428 83.6854M400.496 89.3594L406.881 85.2603M406.881 85.2603L400.177 80.4751M406.881 85.2603L411.229 86.1842M400.177 80.4751L399.834 80.2306C399.071 79.6857 398.031 79.7446 397.334 80.3722L393.726 83.6212M393.726 83.6212L393.428 83.6854M390.143 88.8039L389.986 88.6976C389.221 88.1801 388.202 88.253 387.519 88.8742L384.273 91.8261M390.143 88.8039L389.99 80.4565M384.273 91.8261L383.551 92.4826M373.875 101.205L373.463 101.58M411.229 86.1842L413.528 86.9731M413.528 86.9731L414.955 87.6821C415.553 87.9792 416.258 87.9548 416.849 87.6462C418.34 86.8689 420.365 85.9736 420.878 86.3508M429.758 90.0626L430.966 90.2847M329.36 139.416L337.978 145.687M329.36 139.416L331.406 137.629M329.36 139.416L327.227 144.26M344.716 139.73L337.978 145.687M344.716 139.73L348.722 142.852M344.716 139.73L337.897 134.723M337.978 145.687L338.243 151.597M332.484 120.327L338.389 125.176M332.484 120.327L331.573 119.553C330.816 118.909 329.702 118.919 328.956 119.574L323.347 124.507M338.389 125.176L331.704 130.582M338.389 125.176L341.563 128.795M331.704 130.582L323.347 124.507M331.704 130.582L331.879 137.216M323.347 124.507L321.62 129.802M331.879 137.216L334.969 134.515C335.674 133.898 336.713 133.854 337.469 134.409L337.897 134.723M331.879 137.216L331.406 137.629M321.62 129.802L327.581 134.317M321.62 129.802L320.218 128.714C319.45 128.119 318.366 128.161 317.647 128.814L312.205 133.759M327.581 134.317L320.673 140.225M327.581 134.317L331.406 137.629M320.673 140.225L312.205 133.759M320.673 140.225L320.868 146.608M312.205 133.759L310.848 139.618M320.868 146.608L323.888 143.8C324.603 143.136 325.692 143.084 326.467 143.678L327.227 144.26M320.868 146.608L320.117 147.249M333.98 149.435L327.047 155.504M333.98 149.435L327.227 144.26M333.98 149.435L337.4 152.412M327.047 155.504L318.306 148.794M327.047 155.504L327.23 162.04M318.306 148.794L320.117 147.249M318.306 148.794L315.737 153.866M348.722 142.852L343.953 146.827M348.722 142.852L348.949 142.661M343.953 146.827L352.59 152.976M343.953 146.827L341.781 151.757M352.59 152.976L359.425 146.986M352.59 152.976L352.964 158.98M359.425 146.986L352.494 142.015M359.425 146.986L363.259 149.893M341.781 151.757L348.245 156.634M341.781 151.757L340.82 151.176C340.043 150.706 339.047 150.819 338.395 151.45L338.243 151.597M348.245 156.634L341.781 162.677M348.245 156.634L352.219 159.656M341.781 162.677L333.144 156.528M341.781 162.677L341.94 165.381M333.144 156.528L337.4 152.412M333.144 156.528L330.687 161.451M337.4 152.412L338.243 151.597M341.94 165.381L336.806 162.425C336.49 162.243 336.13 162.151 335.765 162.159L331.563 162.249M341.94 165.381L344.218 166.812M344.218 166.812L345.381 165.649C346.035 164.994 347.053 164.874 347.842 165.358L348.588 165.817M344.218 166.812L346.776 168.092C347.045 168.226 347.281 168.42 347.465 168.659L351.477 173.862M355.133 169.834L351.477 173.862M355.133 169.834L348.588 165.817M355.133 169.834L359.174 174.218M351.477 173.862L355.072 178.674M352.219 159.656L350.418 161.14M352.219 159.656L352.964 158.98M350.418 161.14L359.115 166.831M350.418 161.14L348.588 165.817M359.115 166.831L365.89 160.61M359.115 166.831L359.174 174.218M365.89 160.61L358.97 156.052M365.89 160.61L370.797 164.766M348.949 142.661L349.811 141.939C350.511 141.353 351.519 141.315 352.261 141.847L352.494 142.015M355.226 137.431L363.37 143.316M355.226 137.431L352.494 142.015M363.37 143.316L366.555 140.901C366.767 140.739 367.01 140.622 367.269 140.556C368.557 140.225 370.349 139.751 372.125 139.257M363.37 143.316L363.259 149.893M363.259 149.893L361.876 151.138M363.259 149.893L367.466 146.277C367.886 145.916 368.489 145.865 368.964 146.149V146.149M352.964 158.98L356.21 156.033C356.886 155.42 357.892 155.342 358.654 155.844L358.97 156.052M310.848 139.618L315.94 143.864M310.848 139.618L309.332 138.373C308.57 137.747 307.466 137.77 306.73 138.427L301.411 143.179M315.94 143.864L309.422 149.78M315.94 143.864L320.117 147.249M309.422 149.78L301.411 143.179M309.422 149.78L309.55 156.35M301.411 143.179L299.258 148.923M309.55 156.35L312.532 153.544C313.234 152.883 314.308 152.818 315.085 153.388L315.737 153.866M309.55 156.35L308.908 156.979M322.53 158.847L319.535 161.594M322.53 158.847L326.503 162.635M322.53 158.847L315.737 153.866M319.535 161.594C317.704 161.844 313.924 162.583 313.444 163.542M319.535 161.594C320.967 161.099 324.777 162.082 326.503 162.635M313.444 163.542L307.004 158.847M313.444 163.542C312.521 164.079 310.641 165.736 310.508 168.061M307.004 158.847L308.908 156.979M307.004 158.847L305.086 163.768M326.503 162.635L331.563 162.249M326.503 162.635L327.23 162.04M326.503 162.635C327.376 163.432 329.231 165.241 329.664 166.107C330.097 166.974 332.43 171.461 333.542 173.597L341.93 190.47M299.258 148.923L304.922 153.465M299.258 148.923L298.241 148.207C297.518 147.699 296.548 147.724 295.854 148.27L290.019 152.854M304.922 153.465L298.011 159.297M304.922 153.465L308.908 156.979M298.011 159.297L290.019 152.854M298.011 159.297L298.001 166.009M290.019 152.854L287.71 158.682M298.001 166.009L301.56 162.884C302.221 162.303 303.204 162.278 303.894 162.825V162.825L305.086 163.768M298.001 166.009L297.277 166.672M310.508 168.061L310.357 170.563M310.508 168.061L305.086 163.768M310.357 170.563L305.345 174.442M310.357 170.563C310.295 172.073 310.279 175.258 310.704 175.915M305.345 174.442L303.183 174.395M305.345 174.442C306.583 173.96 308.886 175.835 309.883 176.833M303.183 174.395L295.519 168.281M303.183 174.395C298.831 174.319 297.446 177.003 297.236 177.003M295.519 168.281L297.277 166.672M295.519 168.281L293.229 173.733M331.563 162.249L330.687 161.451M330.687 161.451L330.669 161.434C329.936 160.765 328.823 160.736 328.055 161.365L327.23 162.04M287.71 158.682L293.474 163.324M287.71 158.682L286.076 157.457C285.311 156.882 284.245 156.931 283.535 157.573L277.447 163.078M293.474 163.324L286.339 169.829M293.474 163.324L297.277 166.672M286.339 169.829L277.447 163.078M286.339 169.829L286.514 175.66M277.447 163.078L276.044 168.509M293.229 173.733L297.236 177.003M293.229 173.733L292.301 172.999C291.569 172.42 290.534 172.425 289.806 173.01L286.514 175.66M297.236 177.003L295.267 182.418M283.141 178.374L291.823 185.267M283.141 178.374L282.185 181.925C281.987 182.66 282.224 183.444 282.795 183.946L292.172 192.192M283.141 178.374L285.43 176.532M291.823 185.267L295.267 182.418M291.823 185.267L292.172 192.192M295.267 182.418C295.398 183.986 295.939 185.537 296.193 186.116L297.361 188.464M292.172 192.192L293.869 190.789C294.151 190.555 294.556 190.546 294.848 190.767V190.767M292.172 192.192L297.785 192.989M292.172 192.192L287.695 189.225M292.172 192.192C292.172 192.192 284.061 192.997 284.367 202.033M297.785 192.989L300.466 194.707M297.785 192.989L294.848 190.767M297.785 192.989L298.6 200.486M300.466 194.707L297.361 188.464M300.466 194.707L301.702 198.341M297.361 188.464L294.848 190.767M286.514 175.66L285.43 176.532M285.43 176.532L281.56 173.224M276.044 168.509L274.69 167.38C273.951 166.764 272.877 166.762 272.135 167.376L267.667 171.071C266.705 171.867 266.7 173.34 267.655 174.143L274.047 179.517M276.044 168.509L281.56 173.224M274.047 179.517L281.56 173.224M274.047 179.517L273.986 186.534M273.986 186.534L277.684 183.124C278.423 182.443 279.552 182.416 280.323 183.06L287.695 189.225M273.986 186.534L273.577 186.884M287.695 189.225L280.537 195.648M280.537 195.648L271.297 188.834M280.537 195.648L280.847 201.972M271.297 188.834L270.03 192.432C269.748 193.234 270.004 194.128 270.669 194.659L280.347 202.391M271.297 188.834L273.577 186.884M284.367 202.033L283.633 201.514C282.801 200.926 281.66 201.057 280.983 201.819L280.847 201.972M284.367 202.033L284.067 203.997C284.012 204.351 284.054 204.713 284.188 205.046L286.776 211.479M298.6 200.486C299.002 202.235 300.23 205.34 302.441 207.278C303.615 208.307 304.887 207.002 304.348 205.536L301.702 198.341M298.6 200.486L301.702 198.341M361.876 151.138L370.175 156.88M361.876 151.138L358.97 156.052M370.175 156.88L376.813 150.861M370.175 156.88L370.797 164.766M376.813 150.861L378.351 152.448M376.813 150.861C377.921 148.408 378.274 147.347 379.62 146.083M376.813 150.861L368.964 146.149M370.797 164.766L381.17 155.358M370.797 164.766L363.745 171.522M381.17 155.358C381.575 155.158 382.491 154.869 382.911 155.314C383.436 155.87 389.55 159.052 390.785 159.083M381.17 155.358L378.351 152.448M359.174 174.218L360.987 172.268C361.328 171.901 361.795 171.676 362.294 171.636L363.745 171.522M359.174 174.218L355.072 178.674M359.174 174.218C357.609 176.773 358.629 182.731 359.335 185.391M363.745 171.522C364.75 172.545 366.829 175.033 367.108 176.797C367.386 178.562 367.959 181.905 368.21 183.356M363.745 171.522C363.841 173.3 364.149 177.041 364.613 177.784C365.193 178.713 366.354 183.124 368.21 183.356M355.072 178.674L359.335 185.391M280.847 201.972L280.347 202.391M265.174 215.112L274.295 221.976M265.174 215.112L279.701 202.932M265.174 215.112L263.474 218.559M274.295 221.976L286.776 211.479M274.295 221.976L274.345 224.793C274.375 226.513 272.363 227.467 271.051 226.353L263.818 220.216C263.337 219.808 263.195 219.125 263.474 218.559V218.559M286.776 211.479L288.553 216.559M288.553 216.559L277.723 225.786M288.553 216.559L292.953 226.505M277.723 225.786L286.227 232.092M277.723 225.786L276.231 228.77C275.816 229.601 276.027 230.607 276.741 231.201L286.607 239.415M286.227 232.092L292.953 226.505M286.227 232.092L286.607 239.415M292.953 226.505L294.9 232.515M286.607 239.415L292.573 234.484M294.9 232.515L298.961 242.166M294.9 232.515L292.573 234.484M290.246 236.452L288.579 239.278C288.096 240.097 288.256 241.142 288.961 241.779L299.088 250.927M290.246 236.452L298.03 242.674M290.246 236.452L292.573 234.484M299.088 250.927L298.03 242.674M299.088 250.927L302.177 249.911M298.03 242.674L298.961 242.166M298.961 242.166L302.177 249.911M302.177 249.911L302.949 251.544M280.347 202.391L279.701 202.932M275.858 199.952L268.474 193.848C267.735 193.237 266.667 193.237 265.928 193.846L262.247 196.879M275.858 199.952L261.959 211.499M275.858 199.952L279.701 202.932M261.959 211.499L253.139 204.384M261.959 211.499L262.324 218.98M253.139 204.384L252.123 206.701M253.139 204.384L261.583 197.426M262.324 218.98L263.474 218.559M262.324 218.98L252.195 209.985C251.547 209.409 251.344 208.481 251.692 207.687L252.123 206.701M249.461 200.244L256.935 193.535M249.461 200.244L241.271 193.382M249.461 200.244L250.229 208.233M256.935 193.535L261.583 197.426M256.935 193.535L252.118 189.662M241.271 193.382L247.588 188.086C248.32 187.473 249.382 187.462 250.126 188.06L252.118 189.662M241.271 193.382L239.086 199.048M250.229 208.233L252.123 206.701M250.229 208.233L242.563 201.915M261.583 197.426L262.247 196.879M269.118 182.934L273.577 186.884M269.118 182.934L262.292 177.652C261.531 177.063 260.457 177.1 259.738 177.74L253.965 182.883M269.118 182.934L262.156 189.592M253.965 182.883L262.156 189.592M253.965 182.883L252.118 189.662M262.156 189.592L262.247 196.879M239.086 199.048L242.563 201.915M239.086 199.048L238.813 200.197M242.563 201.915L242.567 203.217M242.567 203.217L299.359 252.523M242.567 203.217L238.813 200.197M299.359 252.523L302.949 251.544M299.359 252.523L298.543 254.809M302.949 251.544L303.796 253.074M298.543 254.809L239.996 204.165C239.653 203.868 239.421 203.464 239.338 203.018L238.813 200.197M298.543 254.809L303.796 253.074M303.796 253.074L305.19 256.208M298.354 257.87L298.607 257.627C299.424 256.84 300.732 256.889 301.487 257.735L301.723 258M298.354 257.87L298.555 258.104C299.294 258.966 300.602 259.041 301.435 258.268L301.723 258M298.354 257.87L298.567 261.001C298.596 261.439 298.822 261.841 299.18 262.096V262.096C299.754 262.502 300.535 262.443 301.041 261.956L301.259 261.746C301.637 261.383 301.84 260.876 301.819 260.353L301.723 258M305.19 256.208L304.341 259.438C304.229 259.864 304.261 260.314 304.431 260.72C304.939 261.928 306.075 264.631 306.873 266.529M305.19 256.208C316.087 243.445 363.858 232.069 381.145 243.99M430.966 90.2847L435.856 85.856C436.444 85.3228 437.293 85.1884 438.017 85.5136L439.853 86.3376M430.966 90.2847L439.199 94.8783M439.199 94.8783L445.295 88.7799M439.199 94.8783C440.493 95.6175 443.443 96.9375 444.899 96.3039M445.295 88.7799L439.853 86.3376M445.295 88.7799L448.948 90.9792M444.899 96.3039L453.766 100.818M444.899 96.3039L449.869 91.5335M453.766 100.818L459.466 95.1159M453.766 100.818C454.694 101.774 456.514 103.624 458.441 105.212M459.466 95.1159L452.143 91.3862M459.466 95.1159L463.395 100.398M450.758 90.6807L449.869 91.5335M450.758 90.6807L439.894 82.5925M450.758 90.6807L451.139 83.7256M450.758 90.6807L452.143 91.3862M449.869 91.5335L448.948 90.9792M482.423 119.747C482.476 118.929 482.803 117.323 483.69 117.45C484.798 117.609 489.786 120.222 491.765 120.301C493.348 120.365 501.66 120.539 505.619 120.618M482.423 119.747C479.808 118.135 476.145 116.155 472.046 113.749M482.423 119.747C488.37 120.582 488.205 137.723 487.379 146.189L485.215 175.886M368.692 128.639L367.427 129.488M368.692 128.639C368.838 128.033 369.572 126.669 371.336 126.058C373.099 125.447 379.804 123.006 382.936 121.861M361.885 131.71C362.964 130.733 364.317 129.491 365.611 128.298M361.885 131.71L364.024 131.023M365.611 128.298L364.024 131.023M365.611 128.298L367.427 129.488M364.024 131.023L365.894 130.423C366.072 130.365 366.241 130.283 366.397 130.179L367.427 129.488M439.894 82.5925L442.361 78.384M439.894 82.5925L439.88 83.8464M442.361 78.384L451.139 83.7256M442.361 78.384L447.281 74.1267C447.921 73.5735 448.839 73.4821 449.575 73.8984L457.004 78.1007M451.139 83.7256L457.004 78.1007M457.004 78.1007L459.676 82.5356M439.853 86.3376L439.88 83.8464M439.88 83.8464L448.948 90.9792M452.143 91.3862L454.941 87.1653M454.941 87.1653L463.201 91.9308M454.941 87.1653L459.676 82.5356M463.201 91.9308L469.26 86.5987M463.201 91.9308L463.395 100.398M469.26 86.5987L472.365 90.5882M469.26 86.5987L461.478 82.5657M463.395 100.398L472.819 91.1715M463.395 100.398L458.441 105.212M472.819 91.1715L472.365 90.5882M472.819 91.1715L480.656 83.6127C481.419 82.876 481.475 81.6713 480.782 80.8675L478.064 77.7137M458.441 105.212C460.349 106.784 462.358 108.094 464.374 109.134C465.977 109.961 469.363 112.174 472.046 113.749M459.676 82.5356V82.5356C460.037 82.1831 460.583 82.1018 461.03 82.3337L461.478 82.5657M464.222 78.8194L468.699 74.4977C469.311 73.9074 470.228 73.7681 470.987 74.1504L478.064 77.7137M464.222 78.8194L472.262 83.1039M464.222 78.8194L461.478 82.5657M478.064 77.7137L472.262 83.1039M472.262 83.1039L472.365 90.5882M419.576 61.8498L427.872 67.5559M419.576 61.8498L416.609 66.4316M419.576 61.8498L424.618 57.1095M427.872 67.5559L433.576 62.2388M427.872 67.5559L427.975 74.3639M433.576 62.2388L436.685 65.8064M433.576 62.2388L426.812 57.9648M427.975 74.3639L436.685 65.8064M427.975 74.3639L416.609 66.4316M436.685 65.8064L437.004 65.7639M416.609 66.4316L416.153 66.5752M428.385 53.7968L437.041 58.814M428.385 53.7968L426.812 57.9648M428.385 53.7968L434.013 49.0404M437.041 58.814L442.836 53.6853M437.041 58.814L437.004 65.7639M442.836 53.6853L434.765 48.9751C434.526 48.8356 434.225 48.8617 434.013 49.0404V49.0404M442.836 53.6853L444.811 55.7486C445.584 56.5553 445.546 57.8382 444.727 58.5978L437.004 65.7639M426.812 57.9648L425.884 57.3784M425.705 49.8174L431.691 44.7797M425.705 49.8174L417.915 43.9717M425.705 49.8174L425.884 57.3784M431.691 44.7797L424.9 40.1164C424.167 39.6129 423.189 39.6541 422.501 40.2174L417.915 43.9717M431.691 44.7797L434.013 49.0404M417.915 43.9717L415.931 48.6619M425.884 57.3784L425.347 57.0396C425.117 56.8939 424.817 56.9226 424.618 57.1095V57.1095M408.556 52.3837L413.054 48.4838C413.758 47.8735 414.79 47.83 415.543 48.379L415.931 48.6619M408.556 52.3837L416.014 57.9918M408.556 52.3837L406.211 57.1516C405.785 58.0177 406.039 59.0644 406.814 59.6398L416.153 66.5752M416.014 57.9918L421.62 52.8115M416.014 57.9918L416.153 66.5752M421.62 52.8115L415.931 48.6619M421.62 52.8115L424.618 57.1095M393.428 83.6854L389.99 80.4565M472.046 113.749C472.046 113.749 486.757 100.06 493.793 92.8137C499.036 87.4143 493.847 82.3773 493.201 81.7878C493.157 81.7485 493.15 81.7403 493.103 81.7064C491.595 80.63 439.722 43.6058 426.165 35.5195C422.951 33.6023 419.335 34.0129 416.64 36.5965C416.61 36.6252 416.62 36.6188 416.588 36.6458C415.574 37.5154 302.229 134.658 228.167 194.741C221.876 199.675 223.027 206.718 229.912 211.477C229.973 211.519 230.002 211.539 230.058 211.587C231.807 213.089 275.525 250.642 293.822 266.878C297.636 270.263 303.421 270.255 306.873 266.529M306.873 266.529C308.38 270.114 310.579 275.345 311.326 277.122C311.495 277.524 311.526 277.965 311.428 278.39C310.801 281.111 309.973 286.299 310.731 289.618C311.555 293.225 313.045 298.255 313.687 300.319M370.09 187.094L396.462 161.766M370.09 187.094L373.162 191.391C373.38 191.696 373.506 192.055 373.538 192.428C373.678 194.065 374.048 196.733 374.712 197.663C375.648 198.974 378.83 205.996 378.83 207.869C378.83 209.742 380.18 216.054 380.879 217.554C381.578 219.053 383.177 222.351 383.377 224.75C383.536 226.669 381.955 238.376 381.145 243.99M370.09 187.094L368.21 183.356M396.462 161.766C394.981 160.882 391.773 159.107 390.785 159.083M396.462 161.766C397.149 162.304 399.686 163.394 404.334 163.448C410.145 163.516 408.794 165.611 410.416 166.152C411.664 166.568 419.015 169.353 422.94 170.848C423.236 170.961 423.499 171.143 423.716 171.374C424.849 172.581 426.814 174.448 427.646 174.399C428.53 174.347 431.111 174.333 432.429 174.332C432.529 174.332 432.625 174.339 432.724 174.353C440.075 175.464 455.067 177.616 457.377 177.509C459.701 177.401 468.39 175.346 472.445 174.332C474.044 173.858 477.702 173.074 479.539 173.723C480.002 173.887 480.52 174.076 481.055 174.276M390.785 159.083C391.362 157.622 391.025 151.452 390.843 149.133C390.661 146.815 385.481 146.769 382.937 146.315C380.901 145.951 379.031 150.252 378.351 152.448M417.088 139.799C417.088 139.799 420.834 140.314 422.379 141.496M417.088 139.799C417.088 139.799 412.526 138.163 411.019 137.496C410.131 137.21 408.404 136.776 406.624 136.608M417.088 139.799L413.383 142.271M422.379 141.496C423.382 142.264 425.373 143.164 426.734 143.718C427.219 143.915 427.525 144.403 427.476 144.924V144.924C427.442 145.285 427.239 145.604 426.943 145.813C425.657 146.722 424.412 148.151 424.832 150.77M422.379 141.496L412.555 148.693M424.832 150.77C424.692 150.826 418.142 150.018 413.077 149.187M424.832 150.77C426.849 151.497 431.25 153.012 432.723 153.258C434.564 153.565 438.245 154.409 439.472 155.713C440.454 156.756 441.722 157.682 442.233 158.015M395.641 143.38C396.913 143.363 398.364 143.701 399.423 144.039C399.928 144.201 400.314 144.614 400.727 144.947C401.226 145.35 402.078 145.725 403.385 145.678C405.929 145.633 406.974 146.951 407.247 147.815C407.352 148.146 409.927 148.671 413.077 149.187M395.641 143.38C395.257 143.385 394.89 143.422 394.554 143.501C394.017 143.628 393.451 143.725 392.913 143.598C392.475 143.494 391.984 143.392 391.458 143.3M395.641 143.38L400.014 139.381C400.788 138.673 401.977 138.683 402.738 139.404L404.303 140.884M413.077 149.187L412.555 148.693M389.024 136.146C387.406 136.605 385.272 137.159 383.721 137.549C383.272 137.662 382.801 137.606 382.362 137.462C382.059 137.362 381.704 137.268 381.316 137.196M389.024 136.146C389.652 135.969 390.201 135.805 390.609 135.671C391.062 135.522 391.555 135.451 392.026 135.531C392.593 135.627 393.237 135.731 393.928 135.837M389.024 136.146L391.397 137.198M391.397 137.198L393.928 135.837M391.397 137.198L391.458 143.3M393.928 135.837C397.358 136.361 401.928 136.913 403.839 136.632C404.702 136.505 405.671 136.518 406.624 136.608M391.458 143.3C390.389 143.112 389.174 142.964 387.951 142.927M381.316 137.196C380.301 137.01 379.061 136.984 377.938 137.45C377.621 137.582 377.187 137.737 376.67 137.908M381.316 137.196L386.973 140.717M386.973 140.717L384.402 143.213M386.973 140.717L387.951 142.927M384.402 143.213C383.561 143.405 382.795 143.701 382.164 144.133C381.016 144.917 380.22 145.52 379.62 146.083M384.402 143.213C385.503 142.962 386.731 142.889 387.951 142.927M376.67 137.908C375.462 138.307 373.801 138.791 372.125 139.257M376.67 137.908L374.092 140.594M372.996 141.736L379.62 146.083M372.996 141.736L368.964 146.149M372.996 141.736L374.092 140.594M372.125 139.257L374.092 140.594M382.936 121.861C383.035 121.307 383.221 120.116 383.173 119.783C383.114 119.368 387.743 118.744 389.079 117.527M382.936 121.861L387.717 119.525C387.969 119.402 388.244 119.333 388.525 119.323L392.164 119.195M389.079 117.527C390.414 116.31 393.263 113.341 393.886 113.43M389.079 117.527L392.164 119.195M393.886 113.43C394.509 113.519 396.023 114.32 396.349 114.32C396.676 114.32 400.771 115.775 401.661 115.716C402.551 115.656 409.674 114.974 410.148 114.855C410.528 114.76 414.105 116.735 415.846 117.735M393.886 113.43L394.286 119.12M415.846 117.735L418.579 117.596C419.074 117.57 419.542 117.363 419.892 117.012L424.571 112.331M415.846 117.735L414.621 118.267C414.391 118.366 414.145 118.422 413.895 118.431L394.286 119.12M392.164 119.195L394.286 119.12M485.215 175.886C484.612 175.645 483.553 175.228 482.418 174.792M485.215 175.886L483.622 186.621M482.418 174.792L483.622 186.621M482.418 174.792C481.968 174.62 481.505 174.444 481.055 174.276M483.622 186.621L505.815 185.159M381.145 243.99C381.987 244.57 382.757 245.206 383.446 245.9C383.693 246.148 383.858 246.464 383.925 246.808C384.277 248.614 384.671 251.925 384.038 254.036C383.364 256.284 384.347 263.035 384.986 266.492C385.034 266.755 385.139 267 385.269 267.233C385.617 267.859 386.042 268.864 386.273 270.068M310.704 175.915C311.129 176.572 310.334 176.801 309.883 176.833M310.704 175.915L313.283 178.431C313.59 178.731 314.086 178.712 314.37 178.389V178.389C314.568 178.164 314.613 177.843 314.484 177.572L313.945 176.438C313.647 175.809 314.477 175.261 314.937 175.783V175.783C314.982 175.833 315.016 175.888 315.042 175.95C317.805 182.701 322.859 196.065 321.262 196.237C319.657 196.411 317.124 190.85 316.058 188.049L309.883 176.833M413.383 142.271L406.624 136.608M413.383 142.271L412.555 148.693M406.624 136.608L404.303 140.884M404.303 140.884L412.555 148.693M359.335 185.391C361.484 187.785 365.927 193.162 366.515 195.512C367.249 198.451 370.023 212.817 371.247 214.449C372.471 216.082 376.632 224.244 376.713 226.04M403.681 300.224C402.4 298.661 399.378 294.997 397.534 292.845C396.019 291.076 393.225 289.917 391.368 289.362C390.717 289.167 390.156 288.703 389.754 288.155C389.137 287.312 388.173 286.252 387.443 285.493C387.131 285.169 386.929 284.756 386.88 284.308C386.536 281.152 386.049 275.368 386.374 272.876C386.503 271.882 386.437 270.925 386.273 270.068M386.273 270.068L481.055 174.276" stroke="#7481A1" stroke-width="0.5"/>
<path d="M352.434 149.166L349.385 146.919L349.705 146.606L351.063 147.606L352.476 146.226L351.118 145.226L351.439 144.912L354.488 147.159L354.168 147.473L352.804 146.468L351.391 147.848L352.755 148.853L352.434 149.166Z" fill="#6B8ADB"/>
<path d="M383.338 65.0998L382.7 64.5304M390.779 58.8242L387.459 57.5943M385.632 56.9172L384.936 56.6593C384.222 56.3949 383.42 56.5583 382.867 57.081L382.611 57.3233M385.632 56.9172L382.646 59.7921C382.364 60.0642 382.167 60.4132 382.082 60.7959L381.488 63.449M385.632 56.9172L387.459 57.5943M381.488 63.449L380.961 62.9792C380.448 62.5213 380.206 61.8318 380.321 61.1537L380.455 60.3564M381.488 63.449L382.7 64.5304M387.459 57.5943L383.97 60.7467C383.671 61.0168 383.46 61.3709 383.366 61.7626L382.7 64.5304M382.611 57.3233L381.143 58.7105C380.827 59.009 380.617 59.4024 380.544 59.831L380.455 60.3564M382.611 57.3233C377.46 55.3567 366.622 51.311 364.476 50.8608C363.493 50.6546 359.777 49.9981 355.336 49.2279M335.838 48.567C335.964 47.682 338.143 46.9701 339.498 46.6553C339.738 46.5996 339.985 46.5972 340.228 46.6384C344.201 47.313 350.245 48.3451 355.336 49.2279M335.838 48.567C335.665 49.7788 335.838 51.51 336.919 52.8084M335.838 48.567L334.887 48.4494C334.248 48.3704 333.611 48.6036 333.174 49.0761L331.619 50.7566M336.919 52.8084C337.784 53.8471 341.384 57.6501 342.913 59.2659M336.919 52.8084L336.67 52.7321C336.006 52.5283 335.337 53.0343 335.353 53.7288V53.7288C335.356 53.8761 335.39 54.0188 335.453 54.1522C335.82 54.9375 337.149 57.8876 337.536 60.3075C337.681 61.2154 335.358 62.9948 334.813 62.1232C334.269 61.2517 331.445 56.2184 331.038 55.2597C330.934 55.0139 330.897 54.6706 330.907 54.2773M342.913 59.2659C344.346 60.1423 346.411 57.9256 345.68 56.9571M342.913 59.2659L208.361 168.012M345.68 56.9571C344.188 54.9815 341.394 52.4192 339.986 51.0973C339.776 50.8997 339.7 50.5998 339.788 50.3249V50.3249C339.904 49.9634 340.27 49.7442 340.644 49.8135L352.112 51.9424M345.68 56.9571L352.112 51.9424M352.112 51.9424L364.363 54.4729C364.438 54.4885 364.503 54.5051 364.576 54.5293C365.88 54.9615 379.578 59.5124 380.455 60.3564M331.619 50.7566L329.979 49.9608C329.349 49.6548 328.598 49.6938 328.048 50.1286C327.174 50.8199 326.213 51.7622 326.181 52.4763C326.169 52.7342 326.148 53.3822 326.122 54.2569M331.619 50.7566C331.349 51.5758 330.935 53.1366 330.907 54.2773M330.907 54.2773C330.874 54.2397 330.838 54.2067 330.801 54.1777C330.185 53.7002 329.579 54.6325 329.575 55.4114C329.562 57.7966 329.535 61.2777 329.497 62.5143C329.461 63.7063 327.913 63.7817 326.688 63.6051C326.205 63.5355 325.881 63.097 325.893 62.6093V62.6093M326.122 54.2569L323.805 51.2068M326.122 54.2569C326.057 56.4723 325.958 60.1416 325.893 62.6093M323.805 51.2068H321.903C320.953 51.2068 320.134 51.8754 319.944 52.8063L319.33 55.8106M323.805 51.2068L321.753 63.6755M319.33 55.8106L316.889 50.9779M319.33 55.8106L317.699 63.5935M316.889 50.9779H313.965M316.889 50.9779L314.423 63.8394M313.965 50.9779L313.834 51.3675C313.257 53.0872 310.798 53.0102 310.33 51.2577V51.2577M313.965 50.9779L310.983 63.8394M310.33 51.2577L307.253 51.2322M310.33 51.2577L307.502 64.2081M307.253 51.2322L307.19 51.4206C306.582 53.2402 303.988 53.1799 303.465 51.334V51.334M307.253 51.2322L304.021 64.1671M303.465 51.334L300.337 51.3848M303.465 51.334L300.786 64.331M300.337 51.3848V51.3848C299.722 53.2532 297.047 53.1573 296.567 51.2497L296.524 51.0796M300.337 51.3848L297.223 64.331M296.524 51.0796L293.498 51.0287M296.524 51.0796L293.496 64.2491M293.498 51.0287V51.0287C292.879 52.902 290.199 52.8131 289.706 50.903L289.659 50.7235M293.498 51.0287L290.425 64.2081M289.659 50.7235L286.507 50.6726M289.659 50.7235L286.616 64.0442M286.507 50.6726L286.441 50.8706C285.855 52.637 283.305 52.4739 282.948 50.6472V50.6472M286.507 50.6726L283.381 64.0442M282.948 50.6472L279.49 50.6726M282.948 50.6472L279.819 63.7574M279.49 50.6726V50.6726C278.756 52.4838 276.08 52.1782 275.829 50.2402V50.2402M279.49 50.6726L275.928 63.7164M275.829 50.2402H272.295M275.829 50.2402L272.816 63.4706M272.295 50.2402V50.2402C271.681 51.925 269.219 51.652 268.989 49.8738L268.964 49.6806M272.295 50.2402L269.089 63.4297M268.964 49.6806L265.659 49.6298M268.964 49.6806L265.117 62.7332M265.659 49.6298L265.421 50.1856C264.782 51.6802 262.565 51.3027 262.456 49.6806V49.6806M265.659 49.6298L261.39 62.7332M262.456 49.6806L258.845 49.6043M262.456 49.6806L258.442 62.1186M258.845 49.6043V49.6043C258.055 51.2367 255.618 50.7967 255.448 48.991L255.388 48.358M258.845 49.6043L254.879 62.0777M255.388 48.358H251.549M255.388 48.358L251.808 61.0944M251.549 48.358V48.358C251.035 49.8475 248.861 49.618 248.669 48.054L248.626 47.6967M251.549 48.358L248.695 61.0534M248.626 47.6967L244.863 47.6712M248.626 47.6967L245.133 60.5208M244.863 47.6712V47.6712C244.207 49.1152 242.031 48.7222 241.989 47.1371V47.1371M244.863 47.6712L240.341 60.4799M241.989 47.1371H238.455M241.989 47.1371L237.802 59.7834M238.455 47.1371L238.27 47.5566C237.536 49.2211 235.072 48.8434 234.87 47.0353V47.0353M238.455 47.1371L234.199 59.7834M234.87 47.0353H231.667M234.87 47.0353L230.759 58.8821M231.667 47.0353L231.238 47.7546C230.291 49.3456 227.877 48.906 227.551 47.0832L227.37 46.0688M231.667 47.0353L226.827 58.8001M227.37 46.0688L224.497 45.8908M227.37 46.0688L223.715 57.5301M224.497 45.8908L223.181 47.7892C222.113 49.3306 219.702 48.6867 219.545 46.8181L219.361 44.6445M224.497 45.8908L219.047 57.571M219.361 44.6445L217.099 44.3138M219.361 44.6445L215.77 56.0961M217.099 44.3138L216.168 45.5906C215.066 47.1027 212.676 46.4084 212.556 44.541L212.497 43.6269M217.099 44.3138L211.511 55.9732M212.497 43.6269L211.322 43.4677C210.55 43.3632 209.788 43.7162 209.368 44.3724L208.277 46.0789M212.497 43.6269L209.414 53.5251M325.893 62.6093L325.731 62.2571C324.922 60.5065 322.348 60.8022 321.957 62.6907L321.753 63.6755M321.753 63.6755L317.699 63.5935M317.699 63.5935V63.5935C317.329 62.0872 315.257 61.9128 314.641 63.3361L314.423 63.8394M314.423 63.8394H310.983M310.983 63.8394V63.8394C310.478 62.3546 308.421 62.2415 307.757 63.662L307.502 64.2081M307.502 64.2081L304.021 64.1671M304.021 64.1671V64.1671C303.517 62.7445 301.536 62.6627 300.917 64.0391L300.786 64.331M300.786 64.331H297.223M297.223 64.331L297.179 64.2188C296.516 62.5392 294.132 62.5588 293.496 64.2491V64.2491M293.496 64.2491L290.425 64.2081M290.425 64.2081L290.177 63.7933C289.341 62.3934 287.263 62.5469 286.616 64.0442V64.0442M286.616 64.0442H283.381M283.381 64.0442L283.022 63.5465C282.204 62.4128 280.481 62.5263 279.819 63.7574V63.7574M279.819 63.7574L275.928 63.7164M275.928 63.7164L275.857 63.5339C275.325 62.1665 273.405 62.1266 272.816 63.4706V63.4706M272.816 63.4706L269.089 63.4297M269.089 63.4297L268.904 62.8443C268.364 61.1365 266.024 60.9453 265.213 62.5429L265.117 62.7332M265.117 62.7332H261.39M261.39 62.7332L261.237 62.2809C260.8 60.9971 259.024 60.894 258.442 62.1186V62.1186M258.442 62.1186L254.879 62.0777M254.879 62.0777L254.704 61.4878C254.312 60.1633 252.539 59.9226 251.808 61.0944V61.0944M251.808 61.0944L248.695 61.0534M248.695 61.0534L247.955 60.1752C247.166 59.2376 245.673 59.4204 245.133 60.5208V60.5208M245.133 60.5208L240.341 60.4799M240.341 60.4799L240.025 59.8187C239.582 58.8943 238.274 58.8735 237.802 59.7834V59.7834M237.802 59.7834H234.199M234.199 59.7834L233.676 58.9009C233.022 57.7965 231.427 57.7862 230.759 58.8821V58.8821M230.759 58.8821L226.827 58.8001M226.827 58.8001L226.265 57.6615C225.758 56.6361 224.324 56.5622 223.715 57.5301V57.5301M223.715 57.5301L219.047 57.571M219.047 57.571L218.341 56.2214C217.814 55.2113 216.394 55.1421 215.77 56.0961V56.0961M215.77 56.0961L211.511 55.9732M211.511 55.9732L211.382 54.8C211.276 53.8484 210.325 53.2322 209.414 53.5251V53.5251M208.317 52.245L209.414 53.5251M355.336 49.2279L415.278 0.992188M338.291 50.5639V50.5639C338.054 51.2086 337.154 51.2423 336.869 50.6172L336.852 50.5784C336.756 50.3693 336.76 50.1286 336.861 49.9222V49.9222C337.139 49.3534 337.947 49.3466 338.235 49.9105L338.254 49.9485C338.352 50.1396 338.365 50.3627 338.291 50.5639Z" stroke="#7481A1" stroke-width="0.5"/>
<path d="M505.679 67.36C502.928 68.736 496.617 71.2732 493.383 70.4146C490.522 69.6554 478.546 61.1363 470.943 55.5213M467.058 37.3087C467.031 39.235 466.877 43.9134 466.481 47.2157C466.085 50.518 467.471 52.7746 468.214 53.4901C469.028 54.1015 469.948 54.7866 470.943 55.5213M467.058 37.3087C468.195 38.0072 469.519 38.789 470.985 39.617M467.058 37.3087C467.12 35.1288 458.926 28.6989 454.185 25.2895C453.713 24.9499 453.41 24.4276 453.354 23.8487C453.203 22.278 452.998 20.1101 452.876 18.7228M505.596 51.3436C497.091 52.8384 480.84 45.1829 470.985 39.617M470.985 39.617C470.203 43.504 469.1 52.1267 470.943 55.5213M505.761 10.5597C505.291 10.23 498.778 8.12719 492.136 6.5654M456.373 12.0129C454.513 14.4375 452.74 16.9444 452.782 17.5771C452.797 17.8076 452.831 18.2124 452.876 18.7228M456.373 12.0129C464.44 12.7986 479.55 14.4302 484.274 15.4834C485.151 15.679 485.346 16.4774 484.839 17.2201L479.002 25.7795M456.373 12.0129C457.093 11.0748 457.825 10.149 458.471 9.34888M479.002 25.7795L452.876 18.7228M479.002 25.7795L505.618 35.5445M477.718 28.7152C477.291 29.4491 476.526 31.2839 476.893 32.7518M477.718 28.7152L479.869 29.4325M477.718 28.7152V28.7152C475.807 28.5591 474.806 30.9336 476.252 32.1931L476.893 32.7518M476.893 32.7518L478.797 33.347M484.046 30.8252C483.557 31.4062 482.615 32.9719 482.762 34.5866M484.046 30.8252L481.309 29.9127M484.046 30.8252V30.8252C485.816 31.7162 485.304 34.3709 483.329 34.5385L482.762 34.5866M482.762 34.5866L480.371 33.8391M468.548 11.5597L477.81 12.6606M468.548 11.5597C469.16 10.8869 470.838 8.5143 470.838 8.5143M468.548 11.5597L470.367 9.14095M477.81 12.6606L470.838 8.5143M477.81 12.6606L477.964 12.403C478.402 11.6684 478.148 10.717 477.402 10.2986V10.2986M470.838 8.5143L471.058 8.31362C471.695 7.73219 472.633 7.62437 473.385 8.04609L477.402 10.2986M470.838 8.5143L470.367 9.14095M479.869 29.4325L478.797 33.347M479.869 29.4325L481.309 29.9127M478.797 33.347L480.371 33.8391M481.309 29.9127L480.371 33.8391M458.471 9.34888C458.594 9.19651 458.714 9.0487 458.83 8.90623C459.133 8.53397 459.558 8.28678 460.031 8.20613C465.001 7.35883 474.791 5.69936 479.437 4.94569C482.06 4.52014 487.134 5.38939 492.136 6.5654M458.471 9.34888L470.367 9.14095M477.402 10.2986L486.674 12.4293C487.484 12.6155 488.325 12.2812 488.786 11.5896L492.136 6.5654M484.635 14.1534V14.1534C484.378 14.3478 484.016 14.3204 483.791 14.0895L483.737 14.0335C483.455 13.7445 483.512 13.2694 483.854 13.0555V13.0555C484.07 12.9205 484.346 12.9281 484.554 13.0748L484.618 13.1199C484.973 13.3696 484.981 13.892 484.635 14.1534Z" stroke="#7481A1" stroke-width="0.5"/>
</svg>
