<svg width="8289" height="4763" viewBox="0 0 8289 4763" fill="none" xmlns="http://www.w3.org/2000/svg">
<path d="M506.503 3714.41C415.828 3420.75 657.711 3295.33 678.354 3008.97C693.545 2515.93 594.231 2275.31 502.553 2160.67C399.035 2021.81 272.918 1868.82 276.88 1736.67C282.858 1537.26 560.555 1590.27 1368.73 1485.49C1529.08 1469.16 2185.44 1348.07 3082.73 1804.81" stroke="#7481A1" stroke-width="10" stroke-linecap="round" stroke-linejoin="round" stroke-dasharray="87 87"/>
<path d="M30.4778 1710.87C62.2522 1500.1 394.53 1469.2 753.009 1424.72C968.666 1397.96 1188.84 1358.29 1368.9 1333.1C1458.49 1319.29 1673.89 1295.29 1818.73 1309.77C1968.48 1323.14 2230.76 1360.63 2479.59 1427.55M30.4778 1710.87C4.68942 1881.94 158.809 2080.04 205.037 2148.8C267.306 2241.43 459.086 2537.21 459.086 3026.67M30.4778 1710.87C-41.98 1908.96 58.421 2110.63 111.284 2190.54C195.03 2317.14 360.115 2529.83 360.115 3028.41M506.885 1874.61C530.399 1832.22 634.753 1809.48 759.084 1798.57C985.983 1778.66 1234.37 1738.65 1366.83 1715.98C1381.62 1713.26 1643.66 1687.62 1821.32 1692.57C2095.97 1700.23 2187.4 1707.58 2413.16 1773.55M875.016 3026.93C914.942 2743.11 820.129 2327.9 715.507 2174.23C603.26 2004.82 450.272 1819.91 466.934 1778.91C484.879 1734.76 610.891 1709.03 764.396 1689.79C994.567 1660.93 1284.04 1625.3 1368.71 1606.65C1465.26 1592.18 1641.5 1583.48 1816.14 1591.7C2067.6 1603.53 2238.12 1629.34 2428.7 1686.95" stroke="#7481A1" stroke-width="10" stroke-linejoin="round"/>
<path d="M6224.35 3958.8V349.422C6224.35 316.285 6197.49 289.422 6164.35 289.422H2126.55C2093.41 289.422 2066.55 316.285 2066.55 349.422V1341.53M6224.35 4396.19V4414.41C6224.35 4447.54 6197.49 4474.41 6164.35 4474.41H2126.55C2093.41 4474.41 2066.55 4447.54 2066.55 4414.41V1703.04" stroke="#7481A1" stroke-width="10"/>
<path d="M4901.72 1428.05L4928.37 1405.33M4901.72 1428.05L4788.19 1342.12M4901.72 1428.05L4902.15 1482.7M4928.37 1405.33L4934.23 1493.7M4928.37 1405.33L5036.76 1485.02M5092.25 1525.83L5208.75 1413.23M5092.25 1525.83L5036.76 1485.02M5092.25 1525.83C5114.34 1525.96 5158.94 1528.34 5160.63 1536.8M5208.75 1413.23L4936.2 1219.17C4933.35 1217.14 4929.48 1217.34 4926.86 1219.65V1219.65M5208.75 1413.23L5245.83 1440.65C5251.39 1444.76 5251.83 1452.91 5246.74 1457.59L5160.63 1536.8M4788.19 1342.12L4747.98 1403.06M4788.19 1342.12L4926.86 1219.65M4557.66 1264.52L4764.5 1089.23C4768.4 1085.93 4774.06 1085.75 4778.16 1088.79L4872.88 1158.98M4557.66 1264.52L4661.89 1347.45M4557.66 1264.52L4525.66 1340.19M4872.88 1158.98L4661.89 1347.45M4872.88 1158.98L4926.86 1219.65M4661.89 1347.45L4657.99 1446.94M4414.86 1389.77L4490.74 1325.47C4494.59 1322.21 4500.15 1321.98 4504.24 1324.91L4525.66 1340.19M4414.86 1389.77L4524.19 1468.86M4414.86 1389.77L4380.87 1464.41M4524.19 1468.86L4605.77 1397.34M4524.19 1468.86L4526.12 1561.4M4605.77 1397.34L4525.66 1340.19M4605.77 1397.34L4605.87 1402.8M4275.36 1514.09L4343.87 1450.12C4347.58 1446.65 4353.19 1446.18 4357.43 1448.97L4380.87 1464.41M4275.36 1514.09L4378.7 1588.95M4275.36 1514.09L4245.44 1586.77M4378.7 1588.95L4460.66 1516.94M4378.7 1588.95L4381.07 1692.24M4460.66 1516.94L4516.05 1570.56M4460.66 1516.94L4380.87 1464.41M4132.14 1633.92L4236.34 1709.38M4132.14 1633.92L4206.14 1569.95C4209.9 1566.69 4215.39 1566.37 4219.51 1569.17L4245.44 1586.77M4132.14 1633.92L4099.41 1712.84M4236.34 1709.38L4323.67 1639.88M4236.34 1709.38L4235.46 1814.5M4323.67 1639.88L4245.44 1586.77M4323.67 1639.88L4375.32 1697.47M3983.86 1760.77L4090.42 1839.26M3983.86 1760.77L4064.99 1696.93C4068.93 1693.82 4074.48 1693.78 4078.47 1696.83L4099.41 1712.84M3983.86 1760.77L3951.71 1839.04M4090.42 1839.26L4175.91 1771.31M4090.42 1839.26L4079.23 1942.84M4175.91 1771.31L4099.41 1712.84M4175.91 1771.31L4226.05 1822.05M3833.58 1886.19L3936.84 1965.33M3833.58 1886.19L3904.57 1817.46C3908.33 1813.83 3914.12 1813.34 3918.43 1816.29L3951.71 1839.04M3833.58 1886.19L3803.66 1958.99M3936.84 1965.33L4026.77 1890.36M3936.84 1965.33L3936.84 2070.3M4026.77 1890.36L4079.23 1942.84M4026.77 1890.36L3951.71 1839.04M3936.84 2070.3L4008.04 2006.57M3936.84 2070.3L3930.32 2077.12M4079.23 1942.84L4148.41 1889.21C4152.25 1886.23 4157.58 1886.12 4161.53 1888.94L4275.87 1970.34M4079.23 1942.84L4059.65 1960.37M4008.04 2006.57L4118.74 2091.44M4008.04 2006.57L4059.65 1960.37M4118.74 2091.44L4028.45 2175.42M4118.74 2091.44L4184.57 2143.38M4028.45 2175.42L3913.62 2094.61M4028.45 2175.42L4033.36 2270.55M3913.62 2094.61L3930.32 2077.12M3913.62 2094.61L3879.18 2159.81M4275.87 1970.34L4182.34 2047.58M4275.87 1970.34L4313.73 2005.25M4182.34 2047.58L4059.65 1960.37M4182.34 2047.58L4184.57 2143.38M4184.57 2143.38L4120.91 2197.59M4184.57 2143.38C4186.7 2142.09 4198.19 2131.93 4213.82 2117.78M4307.05 2031.98L4313.73 2005.25M4307.05 2031.98C4305.61 2042.43 4303.95 2065.64 4308.77 2074.94M4307.05 2031.98C4295.78 2042.45 4281.08 2056.07 4265.78 2070.18M4313.73 2005.25L4336.89 1966.22C4337.4 1965.37 4337.79 1964.45 4338.05 1963.5L4356.01 1897.76M4226.05 1822.05L4217.73 1831.13C4213.11 1836.17 4214.16 1844.16 4219.92 1847.83L4319.63 1911.43C4323.04 1913.61 4327.37 1913.74 4330.9 1911.76L4356.01 1897.76M4226.05 1822.05L4235.46 1814.5M4400.09 1825.95L4369.61 1854.27C4368.11 1855.67 4367.02 1857.45 4366.48 1859.43L4356.01 1897.76M4400.09 1825.95L4327.65 1774.86M4400.09 1825.95L4453.28 1773.54M4235.46 1814.5L4298.42 1763.98C4302.24 1760.92 4307.63 1760.75 4311.64 1763.58L4327.65 1774.86M4327.65 1774.86L4362.72 1708.94M4362.72 1708.94L4453.28 1773.54M4362.72 1708.94L4375.32 1697.47M4453.28 1773.54L4544.59 1702.25M4544.59 1702.25L4472.28 1652.59M4544.59 1702.25L4593.58 1649.53M4544.59 1702.25C4577.05 1677.28 4644.99 1628.19 4657.02 1631.63C4671.74 1635.83 4717.35 1626.65 4758.56 1642.4C4760.29 1643.06 4762.15 1643.33 4764 1643.15C4777.58 1641.79 4803.17 1640.52 4815.97 1644.52C4829.72 1648.82 4983.51 1687.14 5058.69 1705.76C5089.12 1710.42 5157.29 1717.8 5186.5 1710.06M4472.28 1652.59L4452.3 1638.87C4448.09 1635.97 4442.45 1636.36 4438.67 1639.8L4381.07 1692.24M4472.28 1652.59L4505.99 1579.72M4505.99 1579.72L4593.58 1649.53M4505.99 1579.72L4516.05 1570.56M4593.58 1649.53L4686.37 1572.29M4686.37 1572.29L4615.42 1524.26M4686.37 1572.29L4752.43 1526.99M4615.42 1524.26C4618.14 1519.91 4640.1 1475.26 4650.74 1453.47M4615.42 1524.26L4608.01 1519.24M4650.74 1453.47L4752.43 1526.99M4650.74 1453.47L4653.84 1447.84M4752.43 1526.99L4841.51 1469.81M4841.51 1469.81L4747.98 1403.06M4841.51 1469.81L4902.15 1482.7M4747.98 1403.06L4732.16 1391.76C4727.96 1388.77 4722.24 1389.09 4718.4 1392.54L4657.99 1446.94M4657.99 1446.94L4653.84 1447.84M4608.01 1519.24L4594.81 1510.31C4590.6 1507.46 4584.99 1507.86 4581.24 1511.28L4526.12 1561.4M4608.01 1519.24L4605.87 1402.8M4526.12 1561.4L4516.05 1570.56M4381.07 1692.24L4375.32 1697.47M4902.15 1482.7L4934.23 1493.7M4934.23 1493.7L4962.22 1507.61C4965.51 1509.24 4969.38 1509.13 4972.6 1507.36C4993.32 1495.96 5028.63 1479.05 5036.76 1485.02M5160.63 1536.8L5177.49 1539.9M3760.1 2225.29L3880.31 2312.76M3760.1 2225.29L3788.63 2200.34M3760.1 2225.29L3730.33 2292.85M3974.3 2229.66L3880.31 2312.76M3974.3 2229.66L4030.19 2273.2M3974.3 2229.66L3879.18 2159.81M3880.31 2312.76L3884 2395.2M3803.66 1958.99L3886.04 2026.63M3803.66 1958.99L3779.82 1938.72C3775.66 1935.18 3769.53 1935.23 3765.43 1938.84L3676.21 2017.3M3886.04 2026.63L3792.78 2102.05M3886.04 2026.63L3930.32 2077.12M3792.78 2102.05L3676.21 2017.3M3792.78 2102.05L3795.22 2194.59M3676.21 2017.3L3652.12 2091.17M3795.22 2194.59L3848.53 2147.99C3852.42 2144.6 3858.13 2144.36 3862.28 2147.41L3879.18 2159.81M3795.22 2194.59L3788.63 2200.34M3652.12 2091.17L3735.27 2154.14M3652.12 2091.17L3621.34 2067.29C3617.12 2064.01 3611.15 2064.24 3607.2 2067.84L3520.78 2146.37M3735.27 2154.14L3638.91 2236.56M3735.27 2154.14L3788.63 2200.34M3638.91 2236.56L3520.78 2146.37M3638.91 2236.56L3641.62 2325.61M3520.78 2146.37L3501.85 2228.1M3641.62 2325.61L3694.21 2276.72C3698.14 2273.07 3704.14 2272.78 3708.39 2276.04L3730.33 2292.85M3641.62 2325.61L3631.15 2334.54M3824.54 2365.04L3727.83 2449.71M3824.54 2365.04L3730.33 2292.85M3824.54 2365.04L3872.25 2406.57M3727.83 2449.71L3605.88 2356.11M3727.83 2449.71L3730.38 2540.88M3605.88 2356.11L3631.15 2334.54M3605.88 2356.11L3570.05 2426.85M4030.19 2273.2L3963.66 2328.67M4030.19 2273.2L4033.36 2270.55M3963.66 2328.67L4084.15 2414.45M3963.66 2328.67L3933.36 2397.44M4084.15 2414.45L4179.5 2330.88M4084.15 2414.45L4089.36 2498.19M4179.5 2330.88L4082.81 2261.53M4179.5 2330.88L4232.98 2371.43M3933.36 2397.44L4023.53 2465.47M3933.36 2397.44L3908.82 2382.6C3904.55 2380.01 3899.07 2380.63 3895.48 2384.1L3884 2395.2M4023.53 2465.47L3933.36 2549.77M4023.53 2465.47L4078.97 2507.62M3933.36 2549.77L3812.87 2463.99M3933.36 2549.77L3935.57 2587.49M3812.87 2463.99L3872.25 2406.57M3812.87 2463.99L3778.6 2532.66M3872.25 2406.57L3884 2395.2M3935.57 2587.49L3859.88 2543.91C3858.14 2542.91 3856.16 2542.4 3854.16 2542.44L3790.82 2543.8M3935.57 2587.49L3967.36 2607.45M3967.36 2607.45L3993.01 2581.79C3996.6 2578.19 4002.2 2577.53 4006.54 2580.2L4028.32 2593.56M3967.36 2607.45L4006.5 2627.03C4007.98 2627.77 4009.28 2628.84 4010.29 2630.15L4068.62 2705.8M4119.63 2649.6L4068.62 2705.8M4119.63 2649.6L4028.32 2593.56M4119.63 2649.6L4175.99 2710.77M4068.62 2705.8L4118.76 2772.93M4078.97 2507.62L4053.84 2528.33M4078.97 2507.62L4089.36 2498.19M4053.84 2528.33L4175.17 2607.72M4053.84 2528.33L4028.32 2593.56M4175.17 2607.72L4269.68 2520.93M4175.17 2607.72L4175.99 2710.77M4269.68 2520.93L4173.15 2457.35M4269.68 2520.93L4338.13 2578.92M4033.36 2270.55L4055.43 2252.06C4059.28 2248.84 4064.82 2248.63 4068.9 2251.56L4082.81 2261.53M4120.91 2197.59L4234.53 2279.68M4120.91 2197.59L4082.81 2261.53M4234.53 2279.68L4281.67 2243.93C4282.84 2243.04 4284.18 2242.39 4285.6 2242.03C4303.73 2237.39 4330.32 2230.39 4356.65 2223.06M4234.53 2279.68L4232.98 2371.43M4232.98 2371.43L4213.69 2388.8M4232.98 2371.43L4295.45 2317.73C4299.05 2314.64 4304.22 2314.2 4308.28 2316.64L4312.56 2319.21M4089.36 2498.19L4144.35 2448.28C4148.07 2444.91 4153.6 2444.48 4157.8 2447.24L4173.15 2457.35M3501.85 2228.1L3572.89 2287.32M3501.85 2228.1L3469.51 2201.54C3465.32 2198.1 3459.25 2198.23 3455.2 2201.84L3370.2 2277.78M3572.89 2287.32L3481.95 2369.86M3572.89 2287.32L3631.15 2334.54M3481.95 2369.86L3370.2 2277.78M3481.95 2369.86L3483.75 2461.5M3370.2 2277.78L3340.17 2357.91M3483.75 2461.5L3535.58 2412.73C3539.44 2409.1 3545.35 2408.74 3549.62 2411.87L3570.05 2426.85M3483.75 2461.5L3474.79 2470.29M3664.81 2496.34L3623.03 2534.66M3664.81 2496.34L3720.23 2549.19M3664.81 2496.34L3570.05 2426.85M3623.03 2534.66C3597.49 2538.14 3544.75 2548.45 3538.07 2561.83M3623.03 2534.66C3643 2527.76 3696.15 2541.47 3720.23 2549.19M3538.07 2561.83L3448.23 2496.34M3538.07 2561.83C3525.18 2569.33 3498.95 2592.44 3497.11 2624.87M3448.23 2496.34L3474.79 2470.29M3448.23 2496.34L3421.47 2564.99M3720.23 2549.19L3790.82 2543.8M3720.23 2549.19L3730.38 2540.88M3720.23 2549.19C3732.41 2560.3 3758.29 2585.54 3764.33 2597.62C3770.37 2609.71 3802.91 2672.31 3818.43 2702.1L3935.44 2937.48M3340.17 2357.91L3419.18 2421.26M3340.17 2357.91L3315.69 2340.68C3311.72 2337.88 3306.39 2338.02 3302.57 2341.02L3211.28 2412.73M3419.18 2421.26L3322.77 2502.62M3419.18 2421.26L3474.79 2470.29M3322.77 2502.62L3211.28 2412.73M3322.77 2502.62L3322.64 2596.24M3211.28 2412.73L3179.07 2494.04M3322.64 2596.24L3381.32 2544.72C3385.31 2541.21 3391.24 2541.06 3395.41 2544.36L3404.84 2551.83L3421.47 2564.99M3322.64 2596.24L3312.53 2605.49M3497.11 2624.87L3494.99 2659.77M3497.11 2624.87L3421.47 2564.99M3494.99 2659.77L3425.08 2713.89M3494.99 2659.77C3494.14 2680.84 3493.91 2725.27 3499.84 2734.44M3425.08 2713.89L3394.91 2713.23M3425.08 2713.89C3442.35 2707.16 3474.48 2733.32 3488.38 2747.24M3394.91 2713.23L3288.01 2627.94M3394.91 2713.23C3334.21 2712.17 3314.9 2749.62 3311.95 2749.62M3288.01 2627.94L3312.53 2605.49M3288.01 2627.94L3256.06 2703.99M3790.82 2543.8L3778.6 2532.66M3778.6 2532.66L3767.56 2522.59C3763.53 2518.91 3757.41 2518.75 3753.18 2522.21L3730.38 2540.88M3179.07 2494.04L3259.49 2558.79M3179.07 2494.04L3145.14 2468.58C3140.93 2465.42 3135.07 2465.69 3131.16 2469.22L3035.9 2555.36M3259.49 2558.79L3159.95 2649.54M3259.49 2558.79L3312.53 2605.49M3159.95 2649.54L3035.9 2555.36M3159.95 2649.54L3162.39 2730.88M3035.9 2555.36L3016.33 2631.12M3256.06 2703.99L3311.95 2749.62M3256.06 2703.99L3232.54 2685.4C3228.51 2682.22 3222.82 2682.24 3218.82 2685.46L3162.39 2730.88M3311.95 2749.62L3284.5 2825.16M3115.33 2768.75L3236.44 2864.89M3115.33 2768.75L3099.27 2828.42C3098.18 2832.46 3099.48 2836.77 3102.62 2839.54L3241.31 2961.51M3115.33 2768.75L3147.27 2743.05M3236.44 2864.89L3284.5 2825.16M3236.44 2864.89L3241.31 2961.51M3284.5 2825.16C3286.32 2847.03 3293.87 2868.66 3297.41 2876.74L3313.7 2909.49M3241.31 2961.51L3264.99 2941.92C3268.92 2938.66 3274.58 2938.55 3278.65 2941.63V2941.63M3241.31 2961.51L3319.62 2972.61M3241.31 2961.51L3178.86 2920.11M3241.31 2961.51C3241.31 2961.51 3128.17 2972.73 3132.44 3098.78M3319.62 2972.61L3357.02 2996.58M3319.62 2972.61L3278.65 2941.63M3319.62 2972.61L3330.99 3077.2M3357.02 2996.58L3313.7 2909.49M3357.02 2996.58L3374.26 3047.28M3313.7 2909.49L3278.65 2941.63M3162.39 2730.88L3147.27 2743.05M3147.27 2743.05L3093.28 2696.9M3016.33 2631.12L2986.67 2606.39C2982.6 2603 2976.7 2602.99 2972.61 2606.37L2883.86 2679.79C2878.57 2684.17 2878.54 2692.27 2883.8 2696.68L2988.48 2784.68M3016.33 2631.12L3093.28 2696.9M2988.48 2784.68L3093.28 2696.9M2988.48 2784.68L2987.63 2882.57M2987.63 2882.57L3050.12 2824.95C3054.19 2821.2 3060.4 2821.05 3064.64 2824.6L3178.86 2920.11M2987.63 2882.57L2981.92 2887.46M3178.86 2920.11L3079.01 3009.71M3079.01 3009.71L2950.11 2914.66M3079.01 3009.71L3083.34 3097.92M2950.11 2914.66L2928.46 2976.17C2926.9 2980.59 2928.31 2985.5 2931.97 2988.42L3076.36 3103.77M2950.11 2914.66L2981.92 2887.46M3132.44 3098.78L3109.85 3082.81C3105.28 3079.58 3099 3080.3 3095.28 3084.49L3083.34 3097.92M3132.44 3098.78L3127.55 3130.75C3127.25 3132.7 3127.48 3134.69 3128.22 3136.52L3166.04 3230.56M3330.99 3077.2C3337.97 3107.57 3362.8 3167.24 3409.7 3188.35C3417.53 3191.88 3424.54 3183.99 3421.57 3175.93L3374.26 3047.28M3330.99 3077.2L3374.26 3047.28M4213.69 2388.8L4329.45 2468.9M4213.69 2388.8L4173.15 2457.35M4329.45 2468.9L4422.06 2384.94M4329.45 2468.9L4338.13 2578.92M4422.06 2384.94L4443.51 2407.08M4422.06 2384.94C4437.51 2350.71 4442.43 2335.91 4461.22 2318.28M4422.06 2384.94L4312.56 2319.21M4338.13 2578.92L4482.83 2447.67M4338.13 2578.92L4239.75 2673.15M4482.83 2447.67C4488.49 2444.88 4501.26 2440.85 4507.12 2447.05C4514.44 2454.81 4599.73 2499.2 4616.96 2499.63M4482.83 2447.67L4443.51 2407.08M4175.99 2710.77L4205.77 2678.74C4207.65 2676.72 4210.21 2675.48 4212.96 2675.27L4239.75 2673.15M4175.99 2710.77L4118.76 2772.93M4175.99 2710.77C4154.16 2746.41 4168.39 2829.52 4178.24 2866.63M4239.75 2673.15C4253.77 2687.43 4282.78 2722.13 4286.67 2746.75C4290.55 2771.36 4298.54 2818 4302.05 2838.24M4239.75 2673.15C4241.09 2697.95 4245.39 2750.15 4251.87 2760.51C4259.96 2773.47 4276.15 2835.01 4302.05 2838.24M4118.76 2772.93L4178.24 2866.63M3083.34 3097.92L3076.36 3103.77M2864.7 3281.23L2991.94 3376.99M2864.7 3281.23L3067.35 3111.33M2864.7 3281.23L2840.98 3329.32M2991.94 3376.99L3166.04 3230.56M2991.94 3376.99L2993.29 3453.64C2993.46 3463.1 2982.39 3468.35 2975.17 3462.22L2840.9 3348.3C2837.06 3345.03 2835.92 3339.57 2838.16 3335.05L2840.98 3329.32M3166.04 3230.56L3190.84 3301.41M3190.84 3301.41L3039.75 3430.13M3190.84 3301.41L3252.22 3440.17M3039.75 3430.13L3158.38 3518.11M3039.75 3430.13L3012.96 3483.74C3010.68 3488.31 3011.84 3493.85 3015.76 3497.11L3163.69 3620.25M3158.38 3518.11L3252.22 3440.17M3158.38 3518.11L3163.69 3620.25M3252.22 3440.17L3279.37 3524.01M3163.69 3620.25L3246.91 3551.47M3279.37 3524.01L3336.03 3658.63M3279.37 3524.01L3246.91 3551.47M3214.45 3578.92L3184.19 3630.23C3181.53 3634.74 3182.41 3640.48 3186.29 3643.99L3337.8 3780.86M3214.45 3578.92L3323.04 3665.72M3214.45 3578.92L3246.91 3551.47M3337.8 3780.86L3323.04 3665.72M3337.8 3780.86L3380.88 3766.68M3323.04 3665.72L3336.03 3658.63M3336.03 3658.63L3380.88 3766.68M3380.88 3766.68L3391.66 3789.46M3076.36 3103.77L3067.35 3111.33M3013.74 3069.75L2899.98 2975.72C2895.92 2972.36 2890.04 2972.35 2885.97 2975.7L2823.86 3026.89M3013.74 3069.75L2819.85 3230.83M3013.74 3069.75L3067.35 3111.33M2819.85 3230.83L2696.81 3131.58M2819.85 3230.83L2824.95 3335.2M2696.81 3131.58L2682.64 3163.91M2696.81 3131.58L2814.6 3034.52M2824.95 3335.2L2840.98 3329.32M2824.95 3335.2L2674.46 3201.55C2670.89 3198.38 2669.77 3193.28 2671.68 3188.91L2682.64 3163.91M2645.5 3073.83L2749.76 2980.24M2645.5 3073.83L2531.25 2978.1M2645.5 3073.83L2656.21 3185.27M2749.76 2980.24L2814.6 3034.52M2749.76 2980.24L2682.56 2926.2M2531.25 2978.1L2630.01 2895.31C2634.03 2891.94 2639.88 2891.88 2643.97 2895.17L2682.56 2926.2M2531.25 2978.1L2500.77 3057.15M2656.21 3185.27L2682.64 3163.91M2656.21 3185.27L2549.28 3097.13M2814.6 3034.52L2823.86 3026.89M2919.71 2832.36L2981.92 2887.46M2919.71 2832.36L2813.4 2750.08C2809.21 2746.84 2803.3 2747.04 2799.35 2750.56L2708.34 2831.64M2919.71 2832.36L2822.59 2925.23M2708.34 2831.64L2822.59 2925.23M2708.34 2831.64L2682.56 2926.2M2822.59 2925.23L2823.86 3026.89M2500.77 3057.15L2549.28 3097.13M2500.77 3057.15L2496.96 3073.16M2549.28 3097.13L2549.33 3115.3M2549.33 3115.3L3341.57 3803.12M2549.33 3115.3L2496.96 3073.16M3341.57 3803.12L3391.66 3789.46M3341.57 3803.12L3330.19 3835.01M3391.66 3789.46L3403.47 3810.8M3330.19 3835.01L2508.98 3124.65C2507.1 3123.02 2505.82 3120.8 2505.37 3118.34L2496.96 3073.16M3330.19 3835.01L3403.47 3810.8M3403.47 3810.8L3422.92 3854.52M3327.56 3877.71L3343.73 3862.13C3348.23 3857.8 3355.42 3858.07 3359.57 3862.73L3374.56 3879.52M3327.56 3877.71L3341.8 3894.33C3345.87 3899.07 3353.06 3899.48 3357.64 3895.23L3374.56 3879.52M3327.56 3877.71L3330.82 3925.84C3331.05 3929.14 3332.74 3932.16 3335.44 3934.07L3345.44 3941.16C3349.75 3944.21 3355.62 3943.77 3359.43 3940.11L3372.8 3927.25C3375.06 3925.07 3376.29 3922.02 3376.16 3918.87L3374.56 3879.52M3422.92 3854.52L3409.62 3905.13C3409 3907.47 3409.17 3909.93 3410.11 3912.17C3415.36 3924.67 3433.87 3968.69 3446.4 3998.5M3422.92 3854.52C3574.94 3676.48 4241.33 3517.78 4482.48 3684.08M5177.49 1539.9L5253.88 1470.7C5257.12 1467.77 5261.79 1467.03 5265.77 1468.82L5301.46 1484.84M5177.49 1539.9L5292.34 1603.98M5292.34 1603.98L5377.38 1518.91M5292.34 1603.98C5310.38 1614.29 5351.54 1632.71 5371.86 1623.87M5377.38 1518.91L5301.46 1484.84M5377.38 1518.91L5428.34 1549.59M5371.86 1623.87L5495.54 1686.84M5371.86 1623.87L5441.18 1557.32M5495.54 1686.84L5575.06 1607.29M5495.54 1686.84C5508.49 1700.17 5533.88 1725.98 5560.77 1748.14M5575.06 1607.29L5472.9 1555.27M5575.06 1607.29L5629.87 1680.98M5453.58 1545.42L5441.18 1557.32M5453.58 1545.42L5302.03 1432.59M5453.58 1545.42L5458.89 1448.4M5453.58 1545.42L5472.9 1555.27M5441.18 1557.32L5428.34 1549.59M5895.32 1950.9C5896.05 1939.48 5900.62 1917.09 5912.99 1918.86C5928.45 1921.07 5998.02 1957.52 6025.63 1958.63C6047.72 1959.51 6163.67 1961.94 6218.89 1963.05M5895.32 1950.9C5858.83 1928.42 5807.73 1900.79 5750.55 1867.23M5895.32 1950.9C5978.26 1962.55 5975.97 2201.66 5964.45 2319.77L5934.26 2734.04M4308.77 2074.94L4291.12 2086.78M4308.77 2074.94C4310.81 2066.49 4321.05 2047.46 4345.65 2038.94C4370.25 2030.42 4463.78 1996.36 4507.47 1980.39M4213.82 2117.78C4228.86 2104.15 4247.74 2086.83 4265.78 2070.18M4213.82 2117.78L4243.65 2108.2M4265.78 2070.18L4243.65 2108.2M4265.78 2070.18L4291.12 2086.78M4243.65 2108.2L4272 2099.09C4272.98 2098.78 4273.91 2098.33 4274.77 2097.75L4291.12 2086.78M5302.03 1432.59L5336.45 1373.89M5302.03 1432.59L5301.84 1450.09M5336.45 1373.89L5458.89 1448.4M5336.45 1373.89L5414.1 1306.7C5417.61 1303.66 5422.66 1303.16 5426.71 1305.45L5540.71 1369.93M5458.89 1448.4L5540.71 1369.93M5540.71 1369.93L5577.99 1431.8M5301.46 1484.84L5301.84 1450.09M5301.84 1450.09L5428.34 1549.59M5472.9 1555.27L5511.94 1496.38M5511.94 1496.38L5627.16 1562.86M5511.94 1496.38L5577.99 1431.8M5627.16 1562.86L5711.68 1488.48M5627.16 1562.86L5629.87 1680.98M5711.68 1488.48L5755.01 1544.13M5711.68 1488.48L5603.12 1432.22M5629.87 1680.98L5761.34 1552.27M5629.87 1680.98L5560.77 1748.14M5761.34 1552.27L5755.01 1544.13M5761.34 1552.27L5882.16 1435.73C5886.36 1431.68 5886.66 1425.05 5882.85 1420.63L5834.51 1364.54M5560.77 1748.14C5587.37 1770.07 5615.4 1788.34 5643.53 1802.85C5665.9 1814.39 5713.12 1845.25 5750.55 1867.23M5577.99 1431.8L5580.73 1429.12C5584.12 1425.8 5589.27 1425.04 5593.48 1427.22L5603.12 1432.22M5641.4 1379.96L5712.49 1311.34C5715.85 1308.1 5720.9 1307.33 5725.07 1309.43L5834.51 1364.54M5641.4 1379.96L5753.56 1439.73M5641.4 1379.96L5603.12 1432.22M5834.51 1364.54L5753.56 1439.73M5753.56 1439.73L5755.01 1544.13M5018.6 1143.23L5134.33 1222.83M5018.6 1143.23L4977.21 1207.15M5018.6 1143.23L5088.94 1077.11M5134.33 1222.83L5213.9 1148.66M5134.33 1222.83L5135.76 1317.81M5213.9 1148.66L5257.27 1198.43M5213.9 1148.66L5119.53 1089.04M5135.76 1317.81L5257.27 1198.43M5135.76 1317.81L4977.21 1207.15M5257.27 1198.43L5261.71 1197.84M4977.21 1207.15L4970.85 1209.15M5141.48 1030.89L5262.23 1100.89M5141.48 1030.89L5119.53 1089.04M5141.48 1030.89L5220 964.544M5262.23 1100.89L5343.07 1029.34M5262.23 1100.89L5261.71 1197.84M5343.07 1029.34L5230.48 963.633C5227.15 961.687 5222.95 962.052 5220 964.544V964.544M5343.07 1029.34L5382.5 1070.52C5386.75 1074.96 5386.54 1082.02 5382.04 1086.19L5261.71 1197.84M5119.53 1089.04L5106.59 1080.86M5104.1 975.383L5187.6 905.107M5104.1 975.383L4995.42 893.835M5104.1 975.383L5106.59 1080.86M5187.6 905.107L5082.41 832.874C5078.38 830.105 5073 830.332 5069.22 833.43L4995.42 893.835M5187.6 905.107L5220 964.544M4995.42 893.835L4967.74 959.264M5106.59 1080.86L5099.11 1076.13C5095.89 1074.1 5091.71 1074.5 5088.94 1077.11V1077.11M4864.87 1011.18L4937.78 947.968C4941.65 944.611 4947.33 944.373 4951.47 947.392L4967.74 959.264M4864.87 1011.18L4968.91 1089.41M4864.87 1011.18L4825.95 1090.33C4823.61 1095.09 4825 1100.85 4829.26 1104.01L4970.85 1209.15M4968.91 1089.41L5047.11 1017.15M4968.91 1089.41L4970.85 1209.15M5047.11 1017.15L4967.74 959.264M5047.11 1017.15L5088.94 1077.11M4653.84 1447.84L4605.87 1402.8M5750.55 1867.23C5750.55 1867.23 5955.77 1676.26 6053.92 1575.18C6128.94 1497.92 6050.85 1425.98 6045.09 1420.86C6044.85 1420.64 6044.95 1420.7 6044.69 1420.52C6036.25 1414.49 5301.32 889.741 5110.52 775.928C5065.53 749.093 5014.9 754.951 4977.26 791.319C4977.09 791.477 4977.17 791.422 4977 791.571C4971.39 796.376 3384.43 2156.62 2348.45 2997.06C2260.45 3066.07 2276.84 3164.66 2373.57 3231.06C2373.9 3231.29 2373.89 3231.25 2374.2 3231.51C2384.03 3239.96 3005.93 3774.07 3264.33 4003.37C3317.54 4050.59 3398.24 4050.48 3446.4 3998.5M3446.4 3998.5C3469.22 4052.79 3503.42 4134.13 3510.73 4151.52C3511.66 4153.74 3511.81 4156.12 3511.24 4158.45C3502.42 4194.51 3489.1 4271.94 3500.21 4320.58C3511.71 4370.9 3532.49 4441.07 3541.45 4469.87M4328.26 2890.39L4696.15 2537.06M4328.26 2890.39L4373.94 2954.27C4375.14 2955.94 4375.83 2957.91 4375.98 2959.96C4377.58 2981.97 4382.8 3023.88 4392.75 3037.82C4405.8 3056.1 4450.19 3154.07 4450.19 3180.19C4450.19 3206.32 4469.02 3294.38 4478.77 3315.3C4488.53 3336.21 4510.83 3382.22 4513.62 3415.68C4515.85 3442.46 4493.79 3605.77 4482.48 3684.08M4328.26 2890.39L4302.05 2838.24M4696.15 2537.06C4675.5 2524.73 4630.74 2499.97 4616.96 2499.63M4696.15 2537.06C4705.74 2544.57 4741.13 2559.77 4805.98 2560.52C4887.04 2561.47 4868.19 2590.7 4890.81 2598.25C4908.63 2604.19 5015.69 2644.77 5069.35 2665.21C5070.98 2665.83 5072.39 2666.81 5073.57 2668.09C5088.73 2684.62 5118.85 2714.02 5131.17 2713.29C5143.8 2712.55 5181.23 2712.35 5199.17 2712.35C5199.72 2712.35 5200.23 2712.39 5200.78 2712.47C5302.88 2727.91 5513.57 2758.17 5545.91 2756.67C5578.34 2755.16 5699.56 2726.49 5756.11 2712.35C5778.42 2705.75 5829.45 2694.81 5855.08 2703.86C5861.54 2706.14 5868.77 2708.79 5876.22 2711.57M4616.96 2499.63C4625.02 2479.25 4620.31 2393.18 4617.77 2360.84C4615.24 2328.49 4542.98 2327.86 4507.48 2321.52C4479.08 2316.44 4453 2376.44 4443.51 2407.08M4983.89 2230.62C4983.89 2230.62 5036.14 2237.81 5057.69 2254.3M4983.89 2230.62C4983.89 2230.62 4920.24 2207.8 4899.22 2198.49C4886.84 2194.5 4862.75 2188.45 4837.92 2186.11M4983.89 2230.62L4932.21 2265.1M5057.69 2254.3C5072.63 2265.72 5103.22 2279.24 5122.13 2286.77C5126.74 2288.61 5129.63 2293.24 5129.17 2298.18L5128.56 2304.67C5128.24 2308.09 5126.32 2311.14 5123.47 2313.07C5104.83 2325.66 5085.83 2345.7 5091.92 2383.67M5057.69 2254.3L4920.65 2354.7M5091.92 2383.67C5089.97 2384.45 4998.6 2373.17 4927.93 2361.59M5091.92 2383.67C5120.05 2393.81 5181.45 2414.94 5202 2418.37C5227.67 2422.65 5279.03 2434.42 5296.14 2452.62C5309.84 2467.18 5327.53 2480.09 5334.66 2484.73M4684.7 2280.57C4705.29 2280.3 4729.23 2286.68 4744.09 2292.02C4746.84 2293 4748.94 2295.18 4750.73 2297.48C4756.13 2304.44 4769.11 2313.48 4792.73 2312.64C4828.23 2312.01 4842.8 2330.4 4846.61 2342.44C4848.07 2347.06 4884 2354.39 4927.93 2361.59M4684.7 2280.57C4676.55 2280.68 4668.92 2281.83 4662.59 2284.5C4659.79 2285.68 4656.69 2286.16 4653.75 2285.39C4646.02 2283.36 4636.67 2281.27 4626.35 2279.46M4684.7 2280.57L4757.31 2214.18C4761.57 2210.28 4768.11 2210.34 4772.3 2214.3L4805.53 2245.76M4927.93 2361.59L4920.65 2354.7M4592.4 2179.67C4567.71 2186.67 4534.4 2195.25 4512.56 2200.71C4510.09 2201.33 4507.5 2201.04 4505.14 2200.09C4499.98 2198 4492.93 2195.8 4484.87 2194.31M4592.4 2179.67C4604.7 2176.18 4614.86 2173.09 4620.41 2170.97C4622.86 2170.03 4625.53 2169.57 4628.12 2170.02C4637.39 2171.64 4648.58 2173.48 4660.8 2175.35M4592.4 2179.67L4625.51 2194.34M4625.51 2194.34L4660.8 2175.35M4625.51 2194.34L4626.35 2279.46M4660.8 2175.35C4708.66 2182.66 4772.41 2190.36 4799.07 2186.44C4811.1 2184.67 4824.62 2184.86 4837.92 2186.11M4626.35 2279.46C4611.44 2276.83 4594.5 2274.77 4577.43 2274.25M4484.87 2194.31C4470.71 2191.71 4453.42 2191.35 4437.75 2197.86C4433.33 2199.69 4427.27 2201.86 4420.06 2204.24M4484.87 2194.31L4563.79 2243.43M4563.79 2243.43L4527.92 2278.25M4563.79 2243.43L4577.43 2274.25M4527.92 2278.25C4516.2 2280.93 4505.51 2285.06 4496.7 2291.08C4480.69 2302.02 4469.58 2310.43 4461.22 2318.28M4527.92 2278.25C4543.28 2274.74 4560.41 2273.73 4577.43 2274.25M4420.06 2204.24C4403.21 2209.81 4380.03 2216.56 4356.65 2223.06M4420.06 2204.24L4384.1 2241.71M4368.81 2257.64L4461.22 2318.28M4368.81 2257.64L4312.56 2319.21M4368.81 2257.64L4384.1 2241.71M4356.65 2223.06L4384.1 2241.71M4507.47 1980.39C4508.85 1972.66 4511.44 1956.04 4510.78 1951.4C4509.95 1945.6 4574.53 1936.91 4593.16 1919.93M4507.47 1980.39L4577.4 1946.22C4578.78 1945.54 4580.3 1945.16 4581.84 1945.11L4636.2 1943.2M4593.16 1919.93C4611.79 1902.95 4651.53 1861.53 4660.22 1862.77M4593.16 1919.93L4636.2 1943.2M4660.22 1862.77C4668.92 1864.01 4690.03 1875.2 4694.58 1875.2C4699.14 1875.2 4756.27 1895.49 4768.69 1894.66C4781.1 1893.83 4880.46 1884.31 4887.08 1882.65C4892.38 1881.33 4942.28 1908.88 4966.57 1922.82M4660.22 1862.77L4665.8 1942.15M4966.57 1922.82L5011.19 1920.56C5013.91 1920.42 5016.48 1919.27 5018.41 1917.35L5088.27 1847.45M4966.57 1922.82L4946.54 1931.52C4945.27 1932.07 4943.92 1932.38 4942.54 1932.42L4665.8 1942.15M4636.2 1943.2L4665.8 1942.15M5934.26 2734.04C5925.85 2730.67 5911.08 2724.85 5895.24 2718.78M5934.26 2734.04L5912.03 2883.79M5895.24 2718.78L5912.03 2883.79M5895.24 2718.78C5888.96 2716.37 5882.51 2713.92 5876.22 2711.57M5912.03 2883.79L6221.63 2863.39M4482.48 3684.08C4495.53 3693.07 4507.33 3703.01 4517.73 3713.96C4519.06 3715.35 4519.97 3717.07 4520.37 3718.96C4525.45 3742.8 4532.22 3792.94 4522.84 3824.23C4513.22 3856.33 4527.82 3954.28 4536.69 4001.36C4536.96 4002.8 4537.53 4004.12 4538.29 4005.37C4543.39 4013.67 4550.41 4029.02 4554.02 4047.87M3499.84 2734.44C3505.77 2743.6 3494.67 2746.79 3488.38 2747.24M3499.84 2734.44L3535.81 2769.53C3540.1 2773.72 3547.02 2773.45 3550.98 2768.96V2768.96C3553.74 2765.82 3554.36 2761.33 3552.57 2757.56L3545.05 2741.73C3540.89 2732.96 3552.48 2725.32 3558.9 2732.6V2732.6C3559.51 2733.3 3560 2734.06 3560.35 2734.93C3598.89 2829.1 3669.4 3015.52 3647.12 3017.93C3624.73 3020.35 3589.39 2942.79 3574.52 2903.7L3488.38 2747.24M4932.21 2265.1L4837.92 2186.11M4932.21 2265.1L4920.65 2354.7M4837.92 2186.11L4805.53 2245.76M4805.53 2245.76L4920.65 2354.7M4178.24 2866.63C4208.21 2900.03 4270.2 2975.03 4278.4 3007.82C4288.64 3048.81 4327.34 3249.21 4344.41 3271.99C4361.48 3294.76 4419.53 3408.63 4420.67 3433.68M4796.86 4468.54C4779 4446.74 4736.84 4395.63 4711.12 4365.6C4687.39 4337.91 4641.18 4320.92 4616.22 4314.55C4612.6 4313.62 4609.64 4311.04 4607.73 4307.83C4599.59 4294.16 4578.76 4271.57 4566.26 4258.84C4564.53 4257.07 4563.41 4254.79 4563.14 4252.33C4558.34 4209.99 4550.69 4123.4 4555.43 4087.03C4557.23 4073.18 4556.31 4059.82 4554.02 4047.87M4554.02 4047.87L5876.22 2711.57" stroke="#7481A1" stroke-width="10"/>
<path d="M4041.54 2333.32L4079.05 2360.96C4080.86 2362.3 4083.37 2362.12 4084.97 2360.55C4087 2358.57 4086.77 2355.25 4084.49 2353.58L4072.18 2344.5C4070.94 2343.59 4070.81 2341.78 4071.91 2340.7L4085.82 2327.11C4086.7 2326.26 4088.07 2326.16 4089.05 2326.89L4103.23 2337.34C4105.04 2338.67 4107.55 2338.5 4109.16 2336.93C4111.18 2334.95 4110.95 2331.63 4108.67 2329.95L4071.17 2302.31C4069.36 2300.98 4066.85 2301.16 4065.24 2302.73C4063.22 2304.7 4063.45 2308.02 4065.73 2309.7L4077.96 2318.71C4079.2 2319.63 4079.32 2321.44 4078.22 2322.51L4064.31 2336.1C4063.44 2336.96 4062.07 2337.05 4061.08 2336.33L4046.99 2325.94C4045.18 2324.6 4042.67 2324.78 4041.06 2326.35C4039.04 2328.33 4039.27 2331.65 4041.54 2333.32Z" fill="#6B8ADB" stroke="#6B8ADB" stroke-width="3"/>
<path d="M4513.11 1188.53L4504.2 1180.58M4616.9 1100.98L4570.6 1083.83M4545.11 1074.38L4525.55 1067.14C4521.63 1065.68 4517.22 1066.58 4514.17 1069.45L4502.96 1080.05M4545.11 1074.38L4499.8 1118.01C4498.24 1119.51 4497.16 1121.43 4496.69 1123.53L4487.3 1165.5M4545.11 1074.38L4570.6 1083.83M4487.3 1165.5L4472.98 1152.73C4470.16 1150.21 4468.83 1146.42 4469.46 1142.69L4472.9 1122.36M4487.3 1165.5L4504.2 1180.58M4570.6 1083.83L4518.04 1131.31C4516.4 1132.79 4515.24 1134.74 4514.72 1136.89L4504.2 1180.58M4502.96 1080.05L4478.37 1103.29C4476.63 1104.93 4475.48 1107.09 4475.08 1109.45L4472.9 1122.36M4502.96 1080.05C4431.11 1052.61 4279.92 996.175 4249.99 989.896C4236.27 987.018 4184.43 977.86 4122.48 967.117M3850.48 957.897C3852.35 944.858 3886.14 934.514 3904.61 930.542C3905.93 930.257 3907.27 930.237 3908.6 930.463C3963.95 939.857 4050.11 954.568 4122.48 967.117M3850.48 957.897C3848.07 974.802 3850.48 998.952 3865.57 1017.06M3850.48 957.897L3828.63 955.192C3825.11 954.757 3821.6 956.04 3819.2 958.639L3791.63 988.442M3865.57 1017.06C3877.64 1031.55 3927.86 1084.61 3949.18 1107.15M3865.57 1017.06L3857.84 1014.69C3850.67 1012.49 3843.45 1017.96 3843.62 1025.45L3843.73 1030.61C3843.77 1032.2 3844.15 1033.76 3844.82 1035.2C3849.51 1045.14 3868.66 1087.25 3874.17 1121.68C3876.19 1134.34 3843.79 1159.16 3836.19 1147.01C3828.6 1134.85 3789.2 1064.63 3783.53 1051.26C3782.07 1047.83 3781.57 1043.04 3781.7 1037.55M3949.18 1107.15C3969.17 1119.37 3997.98 1088.45 3987.78 1074.94M3949.18 1107.15L2072.19 2624.15M3987.78 1074.94C3966.97 1047.38 3927.99 1011.63 3908.35 993.194C3905.42 990.438 3904.37 986.254 3905.59 982.42V982.42C3907.2 977.376 3912.32 974.319 3917.52 975.285L4077.51 1004.98M3987.78 1074.94L4077.51 1004.98M4077.51 1004.98L4249.36 1040.48C4249.78 1040.57 4250.18 1040.68 4250.59 1040.81C4262.92 1044.89 4460.44 1110.38 4472.9 1122.36M3791.63 988.442L3760.17 973.173C3756.71 971.49 3752.6 971.724 3749.46 973.956C3736.07 983.457 3716.32 1000.3 3715.77 1012.43C3715.61 1016.03 3715.32 1025.07 3714.95 1037.27M3791.63 988.442C3787.87 999.869 3782.08 1021.64 3781.7 1037.55M3781.7 1037.55C3778.54 1034 3773.98 1033.34 3769.97 1033.77C3765.71 1034.22 3763.2 1038.3 3763.17 1042.58C3763.02 1075.07 3762.61 1133.23 3762.03 1152.46C3761.5 1170.03 3737.42 1170.21 3720 1167.23C3714.95 1166.36 3711.55 1161.79 3711.68 1156.67C3711.71 1155.72 3711.73 1154.76 3711.76 1153.79M3714.95 1037.27L3682.62 994.721M3714.95 1037.27C3714.04 1068.18 3712.66 1119.36 3711.76 1153.79M3682.62 994.721H3642.3C3637.08 994.721 3632.57 998.399 3631.53 1003.52L3620.2 1058.94M3682.62 994.721L3654 1168.66M3620.2 1058.94L3586.15 991.528M3620.2 1058.94L3597.44 1167.52M3586.15 991.528H3545.36M3586.15 991.528L3551.74 1170.95M3545.36 991.528L3528.17 1042.71C3524.7 1053.04 3509.93 1052.57 3507.12 1042.05L3494.65 995.431M3545.36 991.528L3503.75 1170.95M3494.65 995.431L3451.73 995.076M3494.65 995.431L3455.2 1176.09M3451.73 995.076L3434.21 1047.5C3430.78 1057.76 3416.14 1057.42 3413.19 1047.01L3398.88 996.496M3451.73 995.076L3406.64 1175.52M3398.88 996.496L3355.25 997.205M3398.88 996.496L3361.51 1177.8M3355.25 997.205L3337.57 1050.88C3334.12 1061.34 3319.14 1060.81 3316.45 1050.13L3302.05 992.947M3355.25 997.205L3311.81 1177.8M3302.05 992.947L3259.85 992.238M3302.05 992.947L3259.82 1176.66M3259.85 992.238L3242.15 1045.79C3238.71 1056.21 3223.8 1055.71 3221.05 1045.09L3206.3 987.98M3259.85 992.238L3216.98 1176.09M3206.3 987.98L3162.32 987.27M3206.3 987.98L3163.85 1173.8M3162.32 987.27L3144.31 1041.53C3140.74 1052.27 3125.24 1051.28 3123.07 1040.17L3112.67 986.915M3162.32 987.27L3118.72 1173.8M3112.67 986.915L3064.44 987.27M3112.67 986.915L3069.02 1169.8M3064.44 987.27L3042.06 1042.5C3037.81 1052.98 3022.41 1051 3020.95 1039.78L3013.36 981.238M3064.44 987.27L3014.75 1169.23M3013.36 981.238H2964.06M3013.36 981.238L2971.33 1165.8M2964.06 981.238L2945.96 1030.92C2942.02 1041.75 2926.2 1039.99 2924.72 1028.56L2917.6 973.432M2964.06 981.238L2919.34 1165.23M2917.6 973.432L2871.49 972.722M2917.6 973.432L2863.93 1155.51M2871.49 972.722L2850.85 1020.97C2846.3 1031.6 2830.53 1028.91 2829.76 1017.38L2826.81 973.432M2871.49 972.722L2811.95 1155.51M2826.81 973.432L2776.44 972.367M2826.81 973.432L2770.81 1146.94M2776.44 972.367L2754.59 1017.48C2749.74 1027.5 2734.78 1024.8 2733.74 1013.72L2728.21 954.981M2776.44 972.367L2721.11 1146.37M2728.21 954.981H2674.66M2728.21 954.981L2678.27 1132.65M2674.66 954.981L2660.93 994.782C2657.12 1005.81 2641.03 1004.11 2639.61 992.532L2633.88 945.756M2674.66 954.981L2634.85 1132.08M2633.88 945.756L2581.38 945.401M2633.88 945.756L2585.15 1124.65M2581.38 945.401L2563.43 984.97C2558.61 995.603 2542.72 992.385 2542.42 980.712L2541.3 937.949M2581.38 945.401L2518.31 1124.08M2541.3 937.949H2492M2541.3 937.949L2482.89 1114.36M2492 937.949L2468.69 990.786C2464.15 1001.07 2448.94 998.734 2447.69 987.567L2441.99 936.53M2492 937.949L2432.62 1114.36M2441.99 936.53H2397.3M2441.99 936.53L2384.63 1101.79M2397.3 936.53L2368.14 985.504C2362.93 994.255 2349.65 991.837 2347.86 981.812L2337.36 923.047M2397.3 936.53L2329.79 1100.65M2337.36 923.047L2297.28 920.564M2337.36 923.047L2286.38 1082.93M2297.28 920.564L2252.15 985.695C2246.28 994.172 2233.01 990.631 2232.15 980.353L2225.64 903.178M2297.28 920.564L2221.25 1083.5M2225.64 903.178L2194.08 898.564M2225.64 903.178L2175.55 1062.93M2194.08 898.564L2153.58 954.134C2147.51 962.451 2134.37 958.632 2133.71 948.361L2129.89 888.983M2194.08 898.564L2116.14 1061.21M2129.89 888.983L2102.99 885.339C2098.64 884.751 2094.37 886.795 2092.1 890.543L2072.42 923.046M2129.89 888.983L2086.88 1027.06M3711.76 1153.79L3687.99 1102.35C3683.54 1092.72 3669.38 1094.35 3667.23 1104.74L3654 1168.66M3654 1168.66L3597.44 1167.52M3597.44 1167.52L3589.24 1134.09C3586.73 1123.86 3572.65 1122.67 3568.46 1132.34L3551.74 1170.95M3551.74 1170.95H3503.75M3503.75 1170.95L3493.13 1139.68C3489.94 1130.3 3476.95 1129.58 3472.75 1138.56L3455.2 1176.09M3455.2 1176.09L3406.64 1175.52M3406.64 1175.52L3396.37 1146.5C3393.06 1137.15 3380.04 1136.61 3375.97 1145.66L3361.51 1177.8M3361.51 1177.8H3311.81M3311.81 1177.8L3295.44 1136.35C3291.74 1126.98 3278.45 1127.09 3274.91 1136.51L3259.82 1176.66M3259.82 1176.66L3216.98 1176.09M3216.98 1176.09L3196.58 1141.96C3191.98 1134.26 3180.59 1135.01 3177.04 1143.24L3163.85 1173.8M3163.85 1173.8H3118.72M3118.72 1173.8L3099.29 1146.89C3094.54 1140.31 3084.54 1140.97 3080.69 1148.12L3069.02 1169.8M3069.02 1169.8L3014.75 1169.23M3014.75 1169.23L3003.26 1139.73C2999.7 1130.59 2986.87 1130.32 2982.94 1139.31L2971.33 1165.8M2971.33 1165.8L2919.34 1165.23M2919.34 1165.23L2904.29 1117.62C2901.32 1108.23 2888.44 1107.18 2883.99 1115.96L2863.93 1155.51M2863.93 1155.51H2811.95M2811.95 1155.51L2801.81 1125.72C2798.63 1116.37 2785.7 1115.62 2781.46 1124.54L2770.81 1146.94M2770.81 1146.94L2721.11 1146.37M2721.11 1146.37L2711.51 1113.95C2708.81 1104.86 2696.65 1103.21 2691.63 1111.25L2678.27 1132.65M2678.27 1132.65L2634.85 1132.08M2634.85 1132.08L2612 1104.96C2606.89 1098.89 2597.22 1100.07 2593.72 1107.2L2585.15 1124.65M2585.15 1124.65L2518.31 1124.08M2518.31 1124.08L2508.42 1103.41C2504.5 1095.22 2492.91 1095.04 2488.73 1103.1L2482.89 1114.36M2482.89 1114.36H2432.62M2432.62 1114.36L2414.53 1083.82C2410.3 1076.68 2399.99 1076.61 2395.67 1083.7L2384.63 1101.79M2384.63 1101.79L2329.79 1100.65M2329.79 1100.65L2314.5 1069.69C2310.69 1061.98 2299.91 1061.43 2295.33 1068.7L2286.38 1082.93M2286.38 1082.93L2221.25 1083.5M2221.25 1083.5L2203.66 1049.84C2199.77 1042.39 2189.3 1041.88 2184.71 1048.92L2175.55 1062.93M2175.55 1062.93L2116.14 1061.21M2116.14 1061.21L2112.97 1032.54C2112.2 1025.62 2105.29 1021.15 2098.67 1023.27L2086.88 1027.06M2071.58 1009.2L2086.88 1027.06M4122.48 967.117L4958.67 294.23M3884.7 985.754V985.754C3881.39 994.747 3868.85 995.217 3864.87 986.497L3864.63 985.956C3863.3 983.039 3863.34 979.681 3864.75 976.801V976.801C3868.63 968.867 3879.91 968.771 3883.92 976.638L3884.19 977.168C3885.55 979.834 3885.74 982.946 3884.7 985.754Z" stroke="#7481A1" stroke-width="10"/>
<path d="M6219.76 1220.09C6181.38 1239.29 6093.35 1274.68 6048.22 1262.7C6008.32 1252.11 5841.25 1133.27 5735.19 1054.94M5681 800.876C5680.62 827.749 5678.47 893.011 5672.94 939.078C5667.42 985.146 5686.76 1016.63 5697.12 1026.61C5708.48 1035.14 5721.32 1044.69 5735.19 1054.94M5681 800.876C5696.85 810.62 5715.33 821.526 5735.78 833.077M5681 800.876C5681.88 769.478 5560 674.87 5495.12 628.703C5492.52 626.848 5490.88 623.999 5490.57 620.815C5488.44 598.839 5485.06 563.349 5483.15 541.604M6218.6 996.662C6099.95 1017.52 5873.25 910.72 5735.78 833.077M5735.78 833.077C5724.87 887.301 5709.48 1007.59 5735.19 1054.94M6220.9 427.729C6214.34 423.13 6123.48 393.796 6030.83 372.009M5531.94 448.001C5505.99 481.823 5481.26 516.796 5481.85 525.622C5482.06 528.837 5482.53 534.484 5483.15 541.604M5531.94 448.001C5653.09 459.8 5888.09 485.273 5933.62 499.635C5938.34 501.123 5939.07 505.936 5936.29 510.021L5847.62 640.044M5531.94 448.001C5541.98 434.914 5552.2 421.999 5561.21 410.838M5847.62 640.044L5483.15 541.604M5847.62 640.044L6218.9 776.266M5829.71 680.997C5823.74 691.235 5813.08 716.831 5818.2 737.307M5829.71 680.997L5859.71 691.003M5829.71 680.997L5779.03 676.858C5768.45 675.994 5762.9 689.142 5770.91 696.116L5818.2 737.307M5818.2 737.307L5844.76 745.611M5917.97 710.432C5911.15 718.537 5898.02 740.379 5900.07 762.903M5917.97 710.432L5879.8 697.702M5917.97 710.432L5969.85 736.536C5979.76 741.523 5976.89 756.384 5965.84 757.322L5900.07 762.903M5900.07 762.903L5866.71 752.475M5701.79 441.679L5830.99 457.036M5701.79 441.679C5710.32 432.294 5733.73 399.196 5733.73 399.196M5701.79 441.679L5727.16 407.938M5830.99 457.036L5733.73 399.196M5830.99 457.036L5838.5 444.443C5841.67 439.127 5839.84 432.24 5834.44 429.212L5825.29 424.087M5733.73 399.196L5745.81 388.166C5749.31 384.968 5754.47 384.375 5758.61 386.695L5825.29 424.087M5733.73 399.196L5727.16 407.938M5859.71 691.003L5844.76 745.611M5859.71 691.003L5879.8 697.702M5844.76 745.611L5866.71 752.475M5879.8 697.702L5866.71 752.475M5561.21 410.838C5564.37 406.918 5567.39 403.213 5570.19 399.794C5571.86 397.752 5574.17 396.398 5576.77 395.954C5643.85 384.512 5786.88 360.251 5853.68 349.414C5890.27 343.477 5961.06 355.603 6030.83 372.009M5561.21 410.838L5727.16 407.938M5825.29 424.087L5966.01 456.424C5970.46 457.448 5975.09 455.609 5977.62 451.805L6030.83 372.009M5926.2 477.86V477.86C5922.61 480.573 5917.57 480.191 5914.43 476.969L5913.66 476.188C5909.74 472.157 5910.53 465.529 5915.31 462.545V462.545C5918.32 460.662 5922.16 460.768 5925.07 462.815L5925.96 463.444C5930.9 466.927 5931.02 474.214 5926.2 477.86Z" stroke="#7481A1" stroke-width="10"/>
<path d="M8285.79 2741.02C8195.74 2790.79 7823.84 2930.75 7590.96 2974.43L7590.93 2974.43C7590.19 2974.57 6489.8 3179.45 6507.48 3341.84C6529.76 3546.46 7040.15 3741.48 6941.2 3889.9C6789.82 4116.97 6414.4 4115.27 5996.54 4083.08C5419.49 4043.48 5412.4 3414.23 4513.85 3463.77" stroke="#7481A1" stroke-width="10" stroke-dasharray="87 87"/>
<path d="M7168.78 3806.44C7140.12 3665.28 6724.13 3401.9 6741.83 3347.24C6772.74 3251.79 7509.23 3095.58 7596.94 3078.09M7168.78 3806.44C7259.57 4269.75 6591.72 4420.9 5968.91 4397.03M7168.78 3806.44C7157.93 4242.48 6558.95 4290.16 5968.65 4265.62M7596.94 2820.85C7353.21 2889.41 6315.37 3075.93 6305.5 3355.43M6305.5 3355.43C6295.96 3625.85 6828.52 3779.06 6697.75 3926.58M6305.5 3355.43C6219.7 3662.3 6638.38 3746.8 6697.75 3926.58M6697.75 3926.58C6645.35 3985.68 6329.09 3966.07 5968.59 3945.12M6796.17 3413.77C6847.13 3307.62 7481.37 3195.88 7596.94 3167.22" stroke="#7481A1" stroke-width="10"/>
</svg>
