<svg width="69" height="17" viewBox="0 0 69 17" fill="none" xmlns="http://www.w3.org/2000/svg">
<path d="M1.54177 3.06299C1.5231 3.06299 1.51377 3.03032 1.51377 2.96499C1.51377 2.88099 1.5231 2.77833 1.54177 2.65699C1.56977 2.53566 1.59777 2.42832 1.62577 2.33499C1.6631 2.23233 1.69577 2.17633 1.72377 2.16699C2.08777 2.00833 2.54977 1.86366 3.10977 1.73299C3.6791 1.59299 4.28577 1.48566 4.92977 1.41099C5.57377 1.32699 6.18977 1.28499 6.77777 1.28499C7.04843 1.28499 7.3331 1.29899 7.63177 1.32699C7.93977 1.35499 8.19643 1.39232 8.40177 1.43899C8.61643 1.48566 8.72377 1.54166 8.72377 1.60699C8.72377 1.61633 8.71443 1.62099 8.69577 1.62099C8.49043 1.61166 8.26643 1.60699 8.02377 1.60699C7.79043 1.59766 7.54777 1.59299 7.29577 1.59299C6.6051 1.59299 5.89577 1.66299 5.16777 1.80299C4.4491 1.93366 3.77243 2.11099 3.13777 2.33499C2.5031 2.54966 1.97577 2.79232 1.55577 3.06299H1.54177ZM2.82977 16.041C2.6431 15.9943 2.4751 15.9057 2.32577 15.775C2.17643 15.6537 2.10177 15.5277 2.10177 15.397C2.10177 15.3783 2.10177 15.3597 2.10177 15.341C2.1111 15.3223 2.12043 15.3037 2.12977 15.285C2.12977 15.2663 2.13443 15.257 2.14377 15.257H2.12977C2.0551 15.257 1.99443 15.2383 1.94777 15.201C1.60243 14.9583 1.35043 14.6737 1.19177 14.347C1.0331 14.0203 0.953766 13.6657 0.953766 13.283C0.953766 12.807 1.05643 12.2983 1.26177 11.757C1.4671 11.225 1.7471 10.6883 2.10177 10.147C2.45643 9.59633 2.85777 9.06433 3.30577 8.55099C3.75377 8.02833 4.22043 7.54299 4.70577 7.09499C4.7431 6.75899 4.7711 6.42766 4.78977 6.10099C4.80843 5.76499 4.81777 5.43833 4.81777 5.12099C4.81777 4.57033 4.78977 4.05233 4.73377 3.56699C4.67777 3.07233 4.5891 2.63366 4.46777 2.25099C4.46777 2.20433 4.55177 2.18099 4.71977 2.18099C4.87843 2.18099 5.04643 2.21366 5.22377 2.27899C5.41043 2.34433 5.51777 2.46566 5.54577 2.64299C5.5831 2.87633 5.6111 3.12366 5.62977 3.38499C5.64843 3.63699 5.65777 3.89833 5.65777 4.16899C5.65777 4.52366 5.64377 4.89233 5.61577 5.27499C5.5971 5.64833 5.56443 6.02633 5.51777 6.40899C5.93777 6.08233 6.34377 5.80233 6.73577 5.56899C7.1371 5.32633 7.50577 5.14899 7.84177 5.03699C7.8791 5.02766 7.91177 5.02299 7.93977 5.02299C7.96777 5.01366 7.99577 5.00899 8.02377 5.00899C8.1451 5.00899 8.20577 5.04166 8.20577 5.10699C8.20577 5.13499 8.18243 5.16766 8.13577 5.20499C7.67843 5.40099 7.2211 5.64366 6.76377 5.93299C6.31577 6.21299 5.88177 6.52566 5.46177 6.87099C5.34977 7.72033 5.2051 8.57433 5.02777 9.43299C4.85043 10.2823 4.66377 11.085 4.46777 11.841C4.27177 12.6063 4.08977 13.283 3.92177 13.871C3.80977 14.2723 3.71177 14.6037 3.62777 14.865C3.5531 15.1357 3.4551 15.3597 3.33377 15.537C3.22177 15.7237 3.05377 15.8917 2.82977 16.041ZM2.31177 14.879C2.84377 13.703 3.34777 12.4383 3.82377 11.085C4.01043 10.5437 4.17377 9.97899 4.31377 9.39099C4.45377 8.79366 4.5611 8.19633 4.63577 7.59899C4.03843 8.17766 3.50177 8.79366 3.02577 9.44699C2.54977 10.091 2.17643 10.7303 1.90577 11.365C1.6351 11.9997 1.49977 12.5923 1.49977 13.143C1.49977 13.4883 1.5651 13.8103 1.69577 14.109C1.82643 14.4077 2.03177 14.6643 2.31177 14.879ZM10.3714 10.931C10.2127 10.931 10.0587 10.8563 9.90939 10.707C9.76939 10.5483 9.69939 10.3477 9.69939 10.105C9.69939 9.64766 9.71339 9.19499 9.74139 8.74699C9.77872 8.28966 9.81606 7.88366 9.85339 7.52899C9.90006 7.16499 9.93272 6.89899 9.95139 6.73099C9.85806 7.12299 9.74139 7.51499 9.60139 7.90699C9.46139 8.29899 9.32139 8.66766 9.18139 9.01299C9.04139 9.34899 8.92006 9.63366 8.81739 9.86699C8.71472 10.091 8.65406 10.2357 8.63539 10.301C8.59806 10.4037 8.51872 10.455 8.39739 10.455C8.30406 10.455 8.19672 10.427 8.07539 10.371C7.95406 10.315 7.84672 10.2497 7.75339 10.175C7.66939 10.091 7.62272 10.021 7.61339 9.96499C7.60406 9.91833 7.59939 9.86699 7.59939 9.81099C7.59939 9.74566 7.59939 9.68033 7.59939 9.61499C7.59939 9.18566 7.62739 8.77499 7.68339 8.38299C7.73939 7.98166 7.79072 7.58499 7.83739 7.19299C7.85606 7.01566 7.88406 6.81033 7.92139 6.57699C7.95872 6.34366 7.97739 6.11966 7.97739 5.90499C7.97739 5.81166 7.97272 5.72299 7.96339 5.63899C7.95406 5.54566 7.93539 5.46633 7.90739 5.40099C7.87006 5.32633 7.77672 5.27033 7.62739 5.23299C7.47806 5.18633 7.35206 5.16299 7.24939 5.16299C7.13739 5.16299 7.08139 5.13499 7.08139 5.07899C7.08139 4.97633 7.17939 4.91566 7.37539 4.89699C7.55272 4.87833 7.71606 4.85966 7.86539 4.84099C8.01472 4.81299 8.15939 4.79899 8.29939 4.79899C8.43006 4.79899 8.53272 4.81299 8.60739 4.84099C8.69139 4.86899 8.73339 4.92033 8.73339 4.99499C8.73339 5.34966 8.70072 5.77899 8.63539 6.28299C8.57006 6.77766 8.50006 7.28633 8.42539 7.80899C8.36006 8.33166 8.32739 8.80299 8.32739 9.22299C8.32739 9.35366 8.33206 9.47966 8.34139 9.60099C8.35072 9.71299 8.37872 9.76899 8.42539 9.76899C8.49072 9.76899 8.57939 9.66633 8.69139 9.46099C8.80339 9.24633 8.92472 8.96166 9.05539 8.60699C9.19539 8.25233 9.33072 7.87433 9.46139 7.47299C9.59206 7.06233 9.70872 6.67033 9.81139 6.29699C9.91406 5.92366 9.99339 5.61099 10.0494 5.35899C10.0587 5.31233 10.0961 5.28899 10.1614 5.28899C10.2641 5.28899 10.3761 5.34499 10.4974 5.45699C10.6281 5.55966 10.7214 5.67633 10.7774 5.80699C10.7494 5.91899 10.7121 6.12433 10.6654 6.42299C10.6187 6.72166 10.5721 7.05766 10.5254 7.43099C10.4787 7.80433 10.4414 8.17299 10.4134 8.53699C10.3854 8.89166 10.3714 9.19033 10.3714 9.43299C10.3714 9.72233 10.3994 9.89499 10.4554 9.95099C10.5207 9.99766 10.5861 10.021 10.6514 10.021C10.7261 10.021 10.8101 9.95566 10.9034 9.82499C11.0061 9.69433 11.1087 9.53099 11.2114 9.33499C11.3141 9.13899 11.4167 8.94766 11.5194 8.76099C11.6221 8.56499 11.7107 8.40166 11.7854 8.27099C11.8694 8.14033 11.9347 8.07499 11.9814 8.07499C12.0187 8.07499 12.0374 8.09833 12.0374 8.14499C12.0374 8.17299 12.0234 8.22433 11.9954 8.29899C11.9581 8.39233 11.8927 8.54633 11.7994 8.76099C11.7154 8.96633 11.6127 9.19499 11.4914 9.44699C11.3701 9.68966 11.2441 9.92299 11.1134 10.147C10.9827 10.371 10.8521 10.5577 10.7214 10.707C10.5907 10.8563 10.4741 10.931 10.3714 10.931ZM14.8923 10.357C14.7896 10.357 14.6776 10.3197 14.5563 10.245C14.435 10.161 14.351 10.0723 14.3043 9.97899C14.3043 9.76433 14.3323 9.47033 14.3883 9.09699C14.4443 8.72366 14.505 8.34099 14.5703 7.94899C14.645 7.54766 14.7103 7.20699 14.7663 6.92699C14.5983 7.18833 14.407 7.47299 14.1923 7.78099C13.9776 8.08899 13.7583 8.37833 13.5343 8.64899C13.3103 8.91033 13.0816 9.12966 12.8483 9.30699C12.6243 9.47499 12.4143 9.55899 12.2183 9.55899C12.0223 9.55899 11.8683 9.49366 11.7563 9.36299C11.6443 9.22299 11.5883 9.06433 11.5883 8.88699C11.5883 8.84033 11.5976 8.77966 11.6163 8.70499C11.7003 8.27566 11.8636 7.87433 12.1063 7.50099C12.3583 7.11833 12.643 6.78233 12.9603 6.49299C13.287 6.20366 13.609 5.97499 13.9263 5.80699C14.2436 5.63899 14.5143 5.55499 14.7383 5.55499C14.9063 5.55499 15.065 5.59233 15.2143 5.66699C15.373 5.73233 15.5223 5.84433 15.6623 6.00299C15.6903 6.03099 15.7043 6.06366 15.7043 6.10099C15.7043 6.14766 15.6763 6.19433 15.6203 6.24099C15.555 6.46499 15.485 6.73566 15.4103 7.05299C15.345 7.36099 15.2796 7.68299 15.2143 8.01899C15.1583 8.34566 15.1116 8.64899 15.0743 8.92899C15.037 9.20899 15.0183 9.42366 15.0183 9.57299C15.0183 9.67566 15.0323 9.72699 15.0603 9.72699C15.135 9.72699 15.2283 9.64766 15.3403 9.48899C15.4616 9.33033 15.5783 9.14833 15.6903 8.94299C15.8023 8.73766 15.9003 8.55566 15.9843 8.39699C16.0776 8.23833 16.1336 8.15899 16.1523 8.15899C16.1803 8.15899 16.1943 8.19633 16.1943 8.27099C16.1943 8.42966 16.143 8.62566 16.0403 8.85899C15.9376 9.09233 15.8116 9.32566 15.6623 9.55899C15.5223 9.78299 15.3776 9.97433 15.2283 10.133C15.0883 10.2823 14.9763 10.357 14.8923 10.357ZM12.3303 9.04099C12.461 9.04099 12.6243 8.96633 12.8203 8.81699C13.0256 8.66766 13.2356 8.47633 13.4503 8.24299C13.6743 8.00966 13.889 7.76233 14.0943 7.50099C14.309 7.23966 14.491 6.99233 14.6403 6.75899C14.799 6.51633 14.911 6.32033 14.9763 6.17099C14.7896 6.17099 14.575 6.24099 14.3323 6.38099C14.0896 6.51166 13.8423 6.68433 13.5903 6.89899C13.3383 7.10433 13.105 7.33299 12.8903 7.58499C12.6756 7.82766 12.503 8.06566 12.3723 8.29899C12.2416 8.53233 12.1763 8.73299 12.1763 8.90099C12.1763 8.99433 12.2276 9.04099 12.3303 9.04099ZM17.4075 11.785C17.3142 11.785 17.1835 11.7103 17.0155 11.561C16.8568 11.421 16.7448 11.2343 16.6795 11.001C16.6422 10.8423 16.6142 10.6277 16.5955 10.357C16.5768 10.0863 16.5675 9.78299 16.5675 9.44699C16.5675 8.88699 16.5768 8.28499 16.5955 7.64099C16.6235 6.99699 16.6375 6.41833 16.6375 5.90499C16.6375 5.73699 16.6328 5.57833 16.6235 5.42899C16.6235 5.27966 16.6188 5.14899 16.6095 5.03699C16.5908 5.01833 16.5348 5.00433 16.4415 4.99499C16.3575 4.97633 16.2735 4.96233 16.1895 4.95299C16.1148 4.93433 16.0775 4.92499 16.0775 4.92499C16.0775 4.90633 16.1475 4.86433 16.2875 4.79899C16.4368 4.72433 16.6468 4.68699 16.9175 4.68699C17.1975 4.68699 17.3795 4.74766 17.4635 4.86899C17.5568 4.98099 17.6035 5.07899 17.6035 5.16299C17.6035 5.18166 17.6035 5.20499 17.6035 5.23299C17.6035 5.26099 17.5988 5.28433 17.5895 5.30299C17.4868 5.79766 17.3888 6.38099 17.2955 7.05299C17.2022 7.71566 17.1555 8.41566 17.1555 9.15299C17.1555 9.33033 17.1555 9.48899 17.1555 9.62899C17.1648 9.75966 17.1695 9.87633 17.1695 9.97899V10.105C17.2255 9.58233 17.3235 9.08766 17.4635 8.62099C17.6035 8.14499 17.7435 7.62699 17.8835 7.06699C17.9955 6.58166 18.0888 6.20833 18.1635 5.94699C18.2475 5.67633 18.3315 5.48966 18.4155 5.38699C18.5088 5.27499 18.6162 5.21899 18.7375 5.21899C18.9055 5.21899 19.0222 5.28899 19.0875 5.42899C19.1528 5.56899 19.1948 5.76033 19.2135 6.00299C19.2322 6.24566 19.2508 6.52566 19.2695 6.84299C19.2882 7.15099 19.3348 7.48233 19.4095 7.83699C19.5215 8.36899 19.6522 8.75633 19.8015 8.99899C19.9508 9.24166 20.0768 9.36299 20.1795 9.36299C20.3008 9.36299 20.4222 9.28833 20.5435 9.13899C20.6648 8.98033 20.7815 8.79833 20.8935 8.59299C21.0055 8.38766 21.1035 8.21033 21.1875 8.06099C21.2808 7.90233 21.3555 7.82299 21.4115 7.82299C21.4395 7.82299 21.4535 7.84633 21.4535 7.89299C21.4535 7.93033 21.4395 7.99099 21.4115 8.07499C21.1782 8.59766 20.9822 9.00366 20.8235 9.29299C20.6648 9.57299 20.4455 9.71299 20.1655 9.71299C19.9508 9.71299 19.7362 9.61966 19.5215 9.43299C19.4095 9.33966 19.2975 9.19033 19.1855 8.98499C19.0828 8.77033 18.9848 8.53699 18.8915 8.28499C18.7982 8.03299 18.7095 7.79499 18.6255 7.57099C18.5508 7.33766 18.4855 7.14633 18.4295 6.99699C18.3735 6.84766 18.3362 6.77299 18.3175 6.77299C18.2988 6.77299 18.2662 6.79166 18.2195 6.82899C18.1822 6.86633 18.1542 6.93166 18.1355 7.02499C17.9768 7.60366 17.8462 8.17766 17.7435 8.74699C17.6502 9.30699 17.5802 9.81566 17.5335 10.273C17.4868 10.721 17.4635 11.0663 17.4635 11.309C17.4635 11.4303 17.4682 11.5143 17.4775 11.561C17.4962 11.617 17.5055 11.659 17.5055 11.687C17.5055 11.7523 17.4728 11.785 17.4075 11.785ZM26.0935 12.863C26.0002 12.8537 25.9022 12.793 25.7995 12.681C25.6968 12.5783 25.6128 12.4617 25.5475 12.331C25.4822 12.2003 25.4495 12.107 25.4495 12.051C25.4495 11.7897 25.7202 11.449 26.2615 11.029C26.8122 10.6183 27.5868 10.2217 28.5855 9.83899L31.5115 8.71899C31.6982 8.39233 31.8335 8.06099 31.9175 7.72499C32.0108 7.37966 32.0575 7.03899 32.0575 6.70299C32.0575 5.87233 31.8522 5.12566 31.4415 4.46299C31.0402 3.80033 30.5035 3.24033 29.8315 2.78299C29.1595 2.31632 28.4222 1.98032 27.6195 1.77499C27.2835 2.38166 26.9802 3.05366 26.7095 3.79099C26.4482 4.52833 26.2242 5.28433 26.0375 6.05899C25.8508 6.83366 25.7062 7.58499 25.6035 8.31299C25.5008 9.04099 25.4495 9.70366 25.4495 10.301C25.4495 10.5903 25.4588 10.833 25.4775 11.029C25.4962 11.2343 25.5195 11.4303 25.5475 11.617C25.5475 11.6263 25.5428 11.631 25.5335 11.631C25.4215 11.631 25.3282 11.547 25.2535 11.379C25.1882 11.2203 25.1368 11.0243 25.0995 10.791C25.0715 10.5483 25.0575 10.315 25.0575 10.091C25.0575 9.39099 25.1182 8.64433 25.2395 7.85099C25.3702 7.05766 25.5335 6.26899 25.7295 5.48499C25.9348 4.70099 26.1448 3.97299 26.3595 3.30099C26.5742 2.62899 26.7655 2.06899 26.9335 1.62099C26.7468 1.59299 26.5555 1.56966 26.3595 1.55099C26.1728 1.53233 25.9862 1.52299 25.7995 1.52299C25.3982 1.52299 25.0295 1.55099 24.6935 1.60699C24.3668 1.65366 24.1242 1.70033 23.9655 1.74699C23.9002 1.73766 23.8675 1.70966 23.8675 1.66299C23.8675 1.57899 24.0075 1.47166 24.2875 1.34099C24.5768 1.21033 24.9082 1.09833 25.2815 1.00499C25.7762 0.874325 26.2708 0.808991 26.7655 0.808991C26.8495 0.808991 26.9335 0.813658 27.0175 0.822992C27.1015 0.822992 27.1855 0.827659 27.2695 0.836992C27.2882 0.799658 27.3022 0.771658 27.3115 0.752992C27.3302 0.724992 27.3442 0.701659 27.3535 0.682992C27.4375 0.533658 27.5215 0.458992 27.6055 0.458992C27.6615 0.458992 27.7035 0.500992 27.7315 0.584992C27.7595 0.668992 27.7782 0.771658 27.7875 0.892992C28.4875 1.00499 29.1595 1.22432 29.8035 1.55099C30.4475 1.87766 31.0215 2.28366 31.5255 2.76899C32.0295 3.25433 32.4262 3.80033 32.7155 4.40699C33.0142 5.01366 33.1635 5.65299 33.1635 6.32499C33.1635 6.64233 33.1262 6.96433 33.0515 7.29099C32.9862 7.61766 32.8742 7.94433 32.7155 8.27099C33.0515 8.16833 33.2755 8.08899 33.3875 8.03299C33.4995 7.96766 33.5882 7.93499 33.6535 7.93499C33.6815 7.93499 33.6955 7.94433 33.6955 7.96299C33.6955 7.98166 33.6535 8.02366 33.5695 8.08899C33.4855 8.15433 33.3875 8.22433 33.2755 8.29899C33.1635 8.36433 33.0655 8.41566 32.9815 8.45299L32.5195 8.64899C32.3515 8.93833 32.1555 9.23233 31.9315 9.53099C31.7075 9.82966 31.4462 10.119 31.1475 10.399C30.7835 10.7443 30.3728 11.0617 29.9155 11.351C29.4675 11.6497 29.0055 11.9063 28.5295 12.121C28.0628 12.3357 27.6148 12.5083 27.1855 12.639C26.7655 12.7697 26.4015 12.8443 26.0935 12.863ZM25.9955 12.065C26.4715 11.9343 26.8915 11.8083 27.2555 11.687C27.6288 11.575 27.9695 11.449 28.2775 11.309C28.5948 11.169 28.9075 11.0057 29.2155 10.819C29.5235 10.623 29.8595 10.3897 30.2235 10.119C30.6062 9.83899 30.9282 9.53099 31.1895 9.19499C30.7882 9.35366 30.3728 9.52166 29.9435 9.69899C29.5235 9.86699 29.0942 10.035 28.6555 10.203C28.4128 10.2963 28.1375 10.4317 27.8295 10.609C27.5308 10.777 27.2415 10.959 26.9615 11.155C26.6815 11.351 26.4482 11.5283 26.2615 11.687C26.0842 11.855 25.9955 11.981 25.9955 12.065ZM35.2568 6.33899C35.2008 6.33899 35.1402 6.32966 35.0748 6.31099C35.0188 6.28299 34.9628 6.25499 34.9068 6.22699C34.8695 6.19899 34.8508 6.16166 34.8508 6.11499C34.8508 6.03099 34.9022 5.92833 35.0048 5.80699C35.1075 5.67633 35.2382 5.56433 35.3968 5.47099C35.5555 5.37766 35.7095 5.33099 35.8588 5.33099C35.9428 5.33099 35.9848 5.35433 35.9848 5.40099C35.9848 5.43833 35.9428 5.48499 35.8588 5.54099C35.7562 5.61566 35.6815 5.71833 35.6348 5.84899C35.5882 5.97966 35.5415 6.09633 35.4948 6.19899C35.4482 6.29233 35.3688 6.33899 35.2568 6.33899ZM34.5008 10.567C34.3235 10.567 34.2022 10.511 34.1368 10.399C34.0715 10.287 34.0388 10.1143 34.0388 9.88099C34.0388 9.75966 34.0435 9.62899 34.0528 9.48899C34.0622 9.34899 34.0808 9.19033 34.1088 9.01299C34.1928 8.37833 34.2862 7.87433 34.3888 7.50099C34.4915 7.11833 34.6222 6.92699 34.7808 6.92699C34.9115 6.92699 35.0282 7.00166 35.1308 7.15099C35.2335 7.30033 35.3035 7.40766 35.3408 7.47299C35.2755 7.59433 35.1868 7.79033 35.0748 8.06099C34.9722 8.33166 34.8788 8.61633 34.7948 8.91499C34.7108 9.21366 34.6688 9.47499 34.6688 9.69899C34.6688 9.92299 34.7202 10.035 34.8228 10.035C34.9068 10.035 35.0002 9.98833 35.1028 9.89499C35.2148 9.80166 35.3175 9.69899 35.4108 9.58699C35.5135 9.47499 35.5788 9.39566 35.6068 9.34899C35.9242 8.87299 36.1248 8.50899 36.2088 8.25699C36.3022 8.00499 36.3908 7.87899 36.4748 7.87899C36.5122 7.87899 36.5308 7.90699 36.5308 7.96299C36.5308 8.00033 36.5215 8.04233 36.5028 8.08899C36.4935 8.12633 36.4795 8.17766 36.4608 8.24299C36.4048 8.39233 36.3162 8.59766 36.1948 8.85899C36.0735 9.11099 35.9242 9.36766 35.7468 9.62899C35.5788 9.89033 35.3875 10.1143 35.1728 10.301C34.9675 10.4783 34.7435 10.567 34.5008 10.567ZM41.1153 11.197C40.5739 11.197 40.1493 11.0523 39.8413 10.763C39.5426 10.4737 39.3933 10.119 39.3933 9.69899C39.3933 9.25099 39.4866 8.80299 39.6733 8.35499C39.8599 7.89766 40.1119 7.46366 40.4293 7.05299C40.7466 6.64233 41.1059 6.27833 41.5073 5.96099C41.9086 5.64366 42.3333 5.39166 42.7813 5.20499C43.2293 5.01833 43.6679 4.92499 44.0973 4.92499C44.3586 4.92499 44.5733 4.97166 44.7413 5.06499C44.9093 5.15833 44.9933 5.25166 44.9933 5.34499C44.9933 5.37299 44.9839 5.39633 44.9653 5.41499C44.9279 5.45233 44.8719 5.55033 44.7973 5.70899C44.7319 5.85833 44.6619 6.03099 44.5873 6.22699C44.5219 6.42299 44.4613 6.62366 44.4053 6.82899C44.3586 7.02499 44.3353 7.19299 44.3353 7.33299C44.3166 7.43566 44.2699 7.48699 44.1953 7.48699C44.1299 7.48699 44.0506 7.41233 43.9573 7.26299C43.8733 7.10433 43.8313 6.89433 43.8313 6.63299C43.8313 6.46499 43.8639 6.28766 43.9293 6.10099C44.0039 5.91433 44.0739 5.74633 44.1393 5.59699C44.2139 5.43833 44.2513 5.32633 44.2513 5.26099C44.2513 5.22366 44.2326 5.20499 44.1953 5.20499C44.1673 5.20499 44.1393 5.20499 44.1113 5.20499C43.9153 5.20499 43.6399 5.29366 43.2853 5.47099C42.9306 5.63899 42.5153 5.95166 42.0393 6.40899C41.7219 6.71699 41.4279 7.07633 41.1573 7.48699C40.8866 7.89766 40.6673 8.31299 40.4993 8.73299C40.3406 9.15299 40.2613 9.54033 40.2613 9.89499C40.2613 10.3057 40.3639 10.5717 40.5693 10.693C40.7839 10.8143 41.0266 10.875 41.2973 10.875C41.7639 10.875 42.2306 10.7863 42.6973 10.609C43.1733 10.4317 43.6166 10.189 44.0273 9.88099C44.4473 9.57299 44.7973 9.22299 45.0773 8.83099C45.0866 8.81233 45.0959 8.80299 45.1053 8.80299C45.1146 8.79366 45.1193 8.78899 45.1193 8.78899C45.1379 8.78899 45.1473 8.80766 45.1473 8.84499C45.1473 8.89166 45.1333 8.95699 45.1053 9.04099C45.0866 9.12499 45.0586 9.19033 45.0213 9.23699C44.8346 9.52633 44.5686 9.82499 44.2233 10.133C43.8779 10.4317 43.4486 10.6837 42.9353 10.889C42.4219 11.0943 41.8153 11.197 41.1153 11.197ZM46.6104 10.511C46.2744 10.511 46.0271 10.4037 45.8684 10.189C45.7097 9.96499 45.6304 9.69433 45.6304 9.37699C45.6304 9.04099 45.7097 8.63033 45.8684 8.14499C46.0271 7.65966 46.1951 7.20233 46.3724 6.77299C46.2137 6.87566 46.0504 6.96899 45.8824 7.05299C45.7144 7.13699 45.5651 7.17899 45.4344 7.17899C45.3411 7.17899 45.2711 7.15566 45.2244 7.10899C45.1871 7.06233 45.1684 7.01099 45.1684 6.95499C45.1684 6.90833 45.1824 6.83833 45.2104 6.74499C45.2384 6.65166 45.2851 6.56299 45.3504 6.47899C45.4251 6.39499 45.5137 6.35299 45.6164 6.35299C45.6537 6.35299 45.6724 6.36699 45.6724 6.39499C45.6724 6.40433 45.6677 6.41366 45.6584 6.42299C45.6584 6.42299 45.6584 6.42766 45.6584 6.43699C45.6491 6.45566 45.6444 6.47433 45.6444 6.49299C45.6444 6.53033 45.6677 6.54899 45.7144 6.54899C45.7424 6.54899 45.7751 6.54433 45.8124 6.53499C45.8591 6.52566 45.9057 6.50699 45.9524 6.47899C46.0457 6.43233 46.1531 6.37633 46.2744 6.31099C46.3957 6.23633 46.5311 6.16166 46.6804 6.08699L46.8904 5.66699C46.9464 5.56433 47.0117 5.49433 47.0864 5.45699C47.1611 5.41033 47.2311 5.38699 47.2964 5.38699C47.3991 5.38699 47.4877 5.40566 47.5624 5.44299C47.6464 5.47099 47.7211 5.50833 47.7864 5.55499C47.8891 5.50833 47.9964 5.46633 48.1084 5.42899C48.2297 5.38233 48.3464 5.34966 48.4584 5.33099C48.8131 5.20033 49.1817 5.09766 49.5644 5.02299C49.9471 4.93899 50.3251 4.89699 50.6984 4.89699C50.9037 4.89699 51.1137 4.92499 51.3284 4.98099C51.5431 5.03699 51.6504 5.12566 51.6504 5.24699C51.6504 5.28433 51.6131 5.30299 51.5384 5.30299C51.3891 5.30299 51.2164 5.28433 51.0204 5.24699C50.8337 5.20966 50.6471 5.19099 50.4604 5.19099C50.2271 5.19099 50.0031 5.20499 49.7884 5.23299C49.5737 5.25166 49.3731 5.28433 49.1864 5.33099C49.3357 5.39633 49.4571 5.50833 49.5504 5.66699C49.6531 5.82566 49.7044 6.02633 49.7044 6.26899C49.7044 6.53033 49.6391 6.84299 49.5084 7.20699C49.3871 7.57099 49.2191 7.94433 49.0044 8.32699C48.7991 8.70966 48.5611 9.06899 48.2904 9.40499C48.0197 9.73166 47.7397 9.99766 47.4504 10.203C47.1611 10.4083 46.8811 10.511 46.6104 10.511ZM46.7644 10.217C46.9604 10.217 47.1611 10.1283 47.3664 9.95099C47.5811 9.77366 47.7911 9.54966 47.9964 9.27899C48.2017 9.00833 48.3837 8.72833 48.5424 8.43899C48.6171 8.30833 48.7011 8.13099 48.7944 7.90699C48.8971 7.68299 48.9811 7.44499 49.0464 7.19299C49.1211 6.94099 49.1584 6.71233 49.1584 6.50699C49.1584 6.32033 49.1164 6.16633 49.0324 6.04499C48.9577 5.91433 48.8131 5.84899 48.5984 5.84899C48.4957 5.84899 48.3651 5.87699 48.2064 5.93299C48.0477 5.98899 47.8797 6.05433 47.7024 6.12899C47.6651 6.16633 47.6277 6.20833 47.5904 6.25499C47.5624 6.29233 47.5391 6.33433 47.5204 6.38099C47.3431 6.70766 47.1657 7.07166 46.9884 7.47299C46.8111 7.86499 46.6617 8.24766 46.5404 8.62099C46.4284 8.99433 46.3724 9.32099 46.3724 9.60099C46.3724 10.0117 46.5031 10.217 46.7644 10.217ZM53.2135 10.175C52.8681 10.175 52.6348 9.98366 52.5135 9.60099C52.3921 9.20899 52.3315 8.72833 52.3315 8.15899C52.3315 7.85099 52.3408 7.55233 52.3595 7.26299C52.3781 6.96433 52.3921 6.71699 52.4015 6.52099C52.2521 6.50233 52.1075 6.47433 51.9675 6.43699C51.8368 6.39033 51.7341 6.34366 51.6595 6.29699C51.6501 6.36233 51.6128 6.49766 51.5475 6.70299C51.4821 6.89899 51.4028 7.12766 51.3095 7.38899C51.2255 7.65033 51.1321 7.90699 51.0295 8.15899C50.9268 8.41099 50.8288 8.62099 50.7355 8.78899C50.6421 8.94766 50.5581 9.02699 50.4835 9.02699C50.4461 9.02699 50.4275 8.99899 50.4275 8.94299C50.4275 8.86833 50.4601 8.76566 50.5255 8.63499C50.7121 8.25233 50.8801 7.86033 51.0295 7.45899C51.1788 7.05766 51.3141 6.64233 51.4355 6.21299C51.3421 6.17566 51.2721 6.11033 51.2255 6.01699C51.1881 5.91433 51.1695 5.80233 51.1695 5.68099C51.1695 5.34499 51.2161 5.06966 51.3095 4.85499C51.4121 4.64033 51.5241 4.48166 51.6455 4.37899C51.7668 4.26699 51.8601 4.21099 51.9255 4.21099C52.0375 4.21099 52.0935 4.30433 52.0935 4.49099C52.0935 4.58433 52.0701 4.72899 52.0235 4.92499C51.9768 5.11166 51.9208 5.30766 51.8555 5.51299C51.7901 5.70899 51.7341 5.86766 51.6875 5.98899C51.6875 5.98899 51.7155 6.00766 51.7715 6.04499C51.8275 6.08233 51.8881 6.10099 51.9535 6.10099C52.0468 6.10099 52.1355 6.04499 52.2195 5.93299C52.3128 5.81166 52.4201 5.69499 52.5415 5.58299C52.6721 5.46166 52.8355 5.40099 53.0315 5.40099C53.1341 5.40099 53.2228 5.41499 53.2975 5.44299C53.3721 5.46166 53.4095 5.49899 53.4095 5.55499V5.59699C53.3161 5.83033 53.2461 6.13833 53.1995 6.52099C53.1528 6.89433 53.1295 7.27233 53.1295 7.65499C53.1295 7.99099 53.1481 8.30833 53.1855 8.60699C53.2228 8.89633 53.2788 9.12966 53.3535 9.30699C53.4375 9.48433 53.5355 9.57299 53.6475 9.57299C53.7595 9.57299 53.8668 9.51233 53.9695 9.39099C54.0721 9.26966 54.1608 9.13899 54.2355 8.99899C54.3195 8.85899 54.3755 8.75633 54.4035 8.69099C54.5995 8.32699 54.7208 8.09366 54.7675 7.99099C54.8141 7.87899 54.8748 7.82299 54.9495 7.82299C54.9775 7.82299 54.9915 7.84166 54.9915 7.87899C54.9915 7.89766 54.9821 7.94433 54.9635 8.01899C54.8515 8.32699 54.7115 8.64899 54.5435 8.98499C54.3848 9.31166 54.1935 9.59166 53.9695 9.82499C53.7455 10.0583 53.4935 10.175 53.2135 10.175ZM57.781 10.357C57.6783 10.357 57.5663 10.3197 57.445 10.245C57.3236 10.161 57.2396 10.0723 57.193 9.97899C57.193 9.76433 57.221 9.47033 57.277 9.09699C57.333 8.72366 57.3936 8.34099 57.459 7.94899C57.5336 7.54766 57.599 7.20699 57.655 6.92699C57.487 7.18833 57.2956 7.47299 57.081 7.78099C56.8663 8.08899 56.647 8.37833 56.423 8.64899C56.199 8.91033 55.9703 9.12966 55.737 9.30699C55.513 9.47499 55.303 9.55899 55.107 9.55899C54.911 9.55899 54.757 9.49366 54.645 9.36299C54.533 9.22299 54.477 9.06433 54.477 8.88699C54.477 8.84033 54.4863 8.77966 54.505 8.70499C54.589 8.27566 54.7523 7.87433 54.995 7.50099C55.247 7.11833 55.5316 6.78233 55.849 6.49299C56.1756 6.20366 56.4976 5.97499 56.815 5.80699C57.1323 5.63899 57.403 5.55499 57.627 5.55499C57.795 5.55499 57.9536 5.59233 58.103 5.66699C58.2616 5.73233 58.411 5.84433 58.551 6.00299C58.579 6.03099 58.593 6.06366 58.593 6.10099C58.593 6.14766 58.565 6.19433 58.509 6.24099C58.4436 6.46499 58.3736 6.73566 58.299 7.05299C58.2336 7.36099 58.1683 7.68299 58.103 8.01899C58.047 8.34566 58.0003 8.64899 57.963 8.92899C57.9256 9.20899 57.907 9.42366 57.907 9.57299C57.907 9.67566 57.921 9.72699 57.949 9.72699C58.0236 9.72699 58.117 9.64766 58.229 9.48899C58.3503 9.33033 58.467 9.14833 58.579 8.94299C58.691 8.73766 58.789 8.55566 58.873 8.39699C58.9663 8.23833 59.0223 8.15899 59.041 8.15899C59.069 8.15899 59.083 8.19633 59.083 8.27099C59.083 8.42966 59.0316 8.62566 58.929 8.85899C58.8263 9.09233 58.7003 9.32566 58.551 9.55899C58.411 9.78299 58.2663 9.97433 58.117 10.133C57.977 10.2823 57.865 10.357 57.781 10.357ZM55.219 9.04099C55.3496 9.04099 55.513 8.96633 55.709 8.81699C55.9143 8.66766 56.1243 8.47633 56.339 8.24299C56.563 8.00966 56.7776 7.76233 56.983 7.50099C57.1976 7.23966 57.3796 6.99233 57.529 6.75899C57.6876 6.51633 57.7996 6.32033 57.865 6.17099C57.6783 6.17099 57.4636 6.24099 57.221 6.38099C56.9783 6.51166 56.731 6.68433 56.479 6.89899C56.227 7.10433 55.9936 7.33299 55.779 7.58499C55.5643 7.82766 55.3916 8.06566 55.261 8.29899C55.1303 8.53233 55.065 8.73299 55.065 8.90099C55.065 8.99433 55.1163 9.04099 55.219 9.04099ZM60.5206 11.127C60.1939 11.127 59.9279 11.0243 59.7226 10.819C59.5173 10.6043 59.3586 10.329 59.2466 9.99299C59.1439 9.65699 59.0739 9.29766 59.0366 8.91499C58.9993 8.52299 58.9806 8.15433 58.9806 7.80899C58.9806 7.60366 58.9853 7.41699 58.9946 7.24899C59.0039 7.07166 59.0133 6.92233 59.0226 6.80099C59.0413 6.44633 59.0739 6.05899 59.1206 5.63899C59.1673 5.20966 59.2233 4.77099 59.2886 4.32299C58.8033 4.39766 58.3599 4.45833 57.9586 4.50499C57.5479 4.55166 57.2073 4.57499 56.9366 4.57499C56.8993 4.57499 56.8433 4.52833 56.7686 4.43499C56.6939 4.34166 56.6379 4.24366 56.6006 4.14099C56.5539 4.03833 56.5493 3.99166 56.5866 4.00099C56.6799 4.01033 56.7686 4.01966 56.8526 4.02899C56.9366 4.02899 57.0253 4.02899 57.1186 4.02899C57.3986 4.02899 57.7113 4.01033 58.0566 3.97299C58.3926 3.93566 58.8266 3.88899 59.3586 3.83299C59.4333 3.36632 59.5126 2.90432 59.5966 2.44699C59.6899 1.98966 59.7833 1.55566 59.8766 1.14499C59.9233 0.958325 59.9653 0.808992 60.0026 0.696992C60.0493 0.584992 60.1333 0.538325 60.2546 0.556992C60.3666 0.575658 60.4833 0.617658 60.6046 0.682992C60.7259 0.748325 60.8099 0.822992 60.8566 0.906992C61.0433 1.08432 61.1786 1.30832 61.2626 1.57899C61.3466 1.84032 61.3886 2.13432 61.3886 2.46099C61.3886 2.80633 61.3466 3.18433 61.2626 3.59499C61.7759 3.52033 62.3033 3.43166 62.8446 3.32899C63.3953 3.21699 63.9273 3.10499 64.4406 2.99299C64.9633 2.87166 65.4346 2.76432 65.8546 2.67099C65.9199 2.65233 65.9293 2.66166 65.8826 2.69899C65.8359 2.72699 65.7706 2.75966 65.6866 2.79699C65.6026 2.83432 65.5326 2.86233 65.4766 2.88099C64.8886 3.08633 64.2166 3.28699 63.4606 3.48299C62.7046 3.67899 61.9439 3.85166 61.1786 4.00099C61.0293 4.62633 60.8193 5.27499 60.5486 5.94699C60.2779 6.60966 59.9933 7.24899 59.6946 7.86499C59.6946 7.95833 59.6899 8.05166 59.6806 8.14499C59.6806 8.22899 59.6806 8.31766 59.6806 8.41099C59.6806 8.86833 59.7039 9.27899 59.7506 9.64299C59.8066 9.99766 59.8953 10.287 60.0166 10.511C60.1006 10.6697 60.1939 10.7817 60.2966 10.847C60.4086 10.903 60.5159 10.931 60.6186 10.931C60.7213 10.931 60.8193 10.9123 60.9126 10.875C61.0059 10.8377 61.0759 10.8097 61.1226 10.791C61.2253 10.7443 61.2953 10.7257 61.3326 10.735C61.3699 10.7443 61.3653 10.7723 61.3186 10.819C61.2906 10.8563 61.2066 10.917 61.0666 11.001C60.9266 11.085 60.7446 11.127 60.5206 11.127ZM60.2546 3.73499L60.4506 3.70699L60.9406 3.65099C60.9873 3.43632 61.0199 3.23099 61.0386 3.03499C61.0666 2.83899 61.0806 2.65232 61.0806 2.47499C61.0806 1.98966 60.9919 1.60233 60.8146 1.31299C60.7119 1.68633 60.6139 2.07832 60.5206 2.48899C60.4273 2.89966 60.3386 3.31499 60.2546 3.73499ZM59.7366 7.13699C59.9606 6.62366 60.1706 6.10566 60.3666 5.58299C60.5626 5.06033 60.7213 4.55633 60.8426 4.07099C60.7213 4.08966 60.6046 4.10833 60.4926 4.12699C60.3806 4.14566 60.2686 4.16433 60.1566 4.18299C60.0633 4.68699 59.9793 5.19099 59.9046 5.69499C59.8393 6.18966 59.7833 6.67033 59.7366 7.13699ZM62.9893 10.511C62.6533 10.511 62.406 10.4037 62.2473 10.189C62.0886 9.96499 62.0093 9.69433 62.0093 9.37699C62.0093 9.04099 62.0886 8.63033 62.2473 8.14499C62.406 7.65966 62.574 7.20233 62.7513 6.77299C62.5926 6.87566 62.4293 6.96899 62.2613 7.05299C62.0933 7.13699 61.944 7.17899 61.8133 7.17899C61.72 7.17899 61.65 7.15566 61.6033 7.10899C61.566 7.06233 61.5473 7.01099 61.5473 6.95499C61.5473 6.90833 61.5613 6.83833 61.5893 6.74499C61.6173 6.65166 61.664 6.56299 61.7293 6.47899C61.804 6.39499 61.8926 6.35299 61.9953 6.35299C62.0326 6.35299 62.0513 6.36699 62.0513 6.39499C62.0513 6.40433 62.0466 6.41366 62.0373 6.42299C62.0373 6.42299 62.0373 6.42766 62.0373 6.43699C62.028 6.45566 62.0233 6.47433 62.0233 6.49299C62.0233 6.53033 62.0466 6.54899 62.0933 6.54899C62.1213 6.54899 62.154 6.54433 62.1913 6.53499C62.238 6.52566 62.2846 6.50699 62.3313 6.47899C62.4246 6.43233 62.532 6.37633 62.6533 6.31099C62.7746 6.23633 62.91 6.16166 63.0593 6.08699L63.2693 5.66699C63.3253 5.56433 63.3906 5.49433 63.4653 5.45699C63.54 5.41033 63.61 5.38699 63.6753 5.38699C63.778 5.38699 63.8666 5.40566 63.9413 5.44299C64.0253 5.47099 64.1 5.50833 64.1653 5.55499C64.268 5.50833 64.3753 5.46633 64.4873 5.42899C64.6086 5.38233 64.7253 5.34966 64.8373 5.33099C65.192 5.20033 65.5606 5.09766 65.9433 5.02299C66.326 4.93899 66.704 4.89699 67.0773 4.89699C67.2826 4.89699 67.4926 4.92499 67.7073 4.98099C67.922 5.03699 68.0293 5.12566 68.0293 5.24699C68.0293 5.28433 67.992 5.30299 67.9173 5.30299C67.768 5.30299 67.5953 5.28433 67.3993 5.24699C67.2126 5.20966 67.026 5.19099 66.8393 5.19099C66.606 5.19099 66.382 5.20499 66.1673 5.23299C65.9526 5.25166 65.752 5.28433 65.5653 5.33099C65.7146 5.39633 65.836 5.50833 65.9293 5.66699C66.032 5.82566 66.0833 6.02633 66.0833 6.26899C66.0833 6.53033 66.018 6.84299 65.8873 7.20699C65.766 7.57099 65.598 7.94433 65.3833 8.32699C65.178 8.70966 64.94 9.06899 64.6693 9.40499C64.3986 9.73166 64.1186 9.99766 63.8293 10.203C63.54 10.4083 63.26 10.511 62.9893 10.511ZM63.1433 10.217C63.3393 10.217 63.54 10.1283 63.7453 9.95099C63.96 9.77366 64.17 9.54966 64.3753 9.27899C64.5806 9.00833 64.7626 8.72833 64.9213 8.43899C64.996 8.30833 65.08 8.13099 65.1733 7.90699C65.276 7.68299 65.36 7.44499 65.4253 7.19299C65.5 6.94099 65.5373 6.71233 65.5373 6.50699C65.5373 6.32033 65.4953 6.16633 65.4113 6.04499C65.3366 5.91433 65.192 5.84899 64.9773 5.84899C64.8746 5.84899 64.744 5.87699 64.5853 5.93299C64.4266 5.98899 64.2586 6.05433 64.0813 6.12899C64.044 6.16633 64.0066 6.20833 63.9693 6.25499C63.9413 6.29233 63.918 6.33433 63.8993 6.38099C63.722 6.70766 63.5446 7.07166 63.3673 7.47299C63.19 7.86499 63.0406 8.24766 62.9193 8.62099C62.8073 8.99433 62.7513 9.32099 62.7513 9.60099C62.7513 10.0117 62.882 10.217 63.1433 10.217Z" fill="white"/>
</svg>
