<svg width="60" height="19" viewBox="0 0 60 19" fill="none" xmlns="http://www.w3.org/2000/svg">
<path d="M0.821063 5.03028C0.802396 5.03028 0.793063 4.99761 0.793063 4.93228C0.793063 4.84828 0.802396 4.74561 0.821063 4.62428C0.849063 4.50294 0.877063 4.39561 0.905063 4.30228C0.942396 4.19961 0.975063 4.14361 1.00306 4.13428C1.36706 3.97561 1.82906 3.83094 2.38906 3.70028C2.9584 3.56028 3.56506 3.45294 4.20906 3.37828C4.85306 3.29428 5.46906 3.25228 6.05706 3.25228C6.32773 3.25228 6.6124 3.26628 6.91106 3.29428C7.21906 3.32228 7.47573 3.35961 7.68106 3.40628C7.89573 3.45294 8.00306 3.50894 8.00306 3.57428C8.00306 3.58361 7.99373 3.58828 7.97506 3.58828C7.76973 3.57894 7.54573 3.57428 7.30306 3.57428C7.06973 3.56494 6.82706 3.56028 6.57506 3.56028C5.8844 3.56028 5.17506 3.63028 4.44706 3.77028C3.7284 3.90094 3.05173 4.07828 2.41706 4.30228C1.7824 4.51694 1.25506 4.75961 0.835063 5.03028H0.821063ZM2.10906 18.0083C1.9224 17.9616 1.7544 17.8729 1.60506 17.7423C1.45573 17.6209 1.38106 17.4949 1.38106 17.3643C1.38106 17.3456 1.38106 17.3269 1.38106 17.3083C1.3904 17.2896 1.39973 17.2709 1.40906 17.2523C1.40906 17.2336 1.41373 17.2243 1.42306 17.2243H1.40906C1.3344 17.2243 1.27373 17.2056 1.22706 17.1683C0.881729 16.9256 0.629729 16.6409 0.471063 16.3143C0.312396 15.9876 0.233062 15.6329 0.233062 15.2503C0.233062 14.7743 0.335729 14.2656 0.541063 13.7243C0.746396 13.1923 1.0264 12.6556 1.38106 12.1143C1.73573 11.5636 2.13706 11.0316 2.58506 10.5183C3.03306 9.99561 3.49973 9.51028 3.98506 9.06228C4.0224 8.72628 4.0504 8.39494 4.06906 8.06828C4.08773 7.73228 4.09706 7.40561 4.09706 7.08828C4.09706 6.53761 4.06906 6.01961 4.01306 5.53428C3.95706 5.03961 3.8684 4.60094 3.74706 4.21828C3.74706 4.17161 3.83106 4.14828 3.99906 4.14828C4.15773 4.14828 4.32573 4.18094 4.50306 4.24628C4.68973 4.31161 4.79706 4.43294 4.82506 4.61028C4.8624 4.84361 4.8904 5.09094 4.90906 5.35228C4.92773 5.60428 4.93706 5.86561 4.93706 6.13628C4.93706 6.49094 4.92306 6.85961 4.89506 7.24228C4.8764 7.61561 4.84373 7.99361 4.79706 8.37628C5.21706 8.04961 5.62306 7.76961 6.01506 7.53628C6.4164 7.29361 6.78506 7.11628 7.12106 7.00428C7.1584 6.99494 7.19106 6.99028 7.21906 6.99028C7.24706 6.98094 7.27506 6.97628 7.30306 6.97628C7.4244 6.97628 7.48506 7.00894 7.48506 7.07428C7.48506 7.10228 7.46173 7.13494 7.41506 7.17228C6.95773 7.36828 6.5004 7.61094 6.04306 7.90028C5.59506 8.18028 5.16106 8.49294 4.74106 8.83828C4.62906 9.68761 4.4844 10.5416 4.30706 11.4003C4.12973 12.2496 3.94306 13.0523 3.74706 13.8083C3.55106 14.5736 3.36906 15.2503 3.20106 15.8383C3.08906 16.2396 2.99106 16.5709 2.90706 16.8323C2.8324 17.1029 2.7344 17.3269 2.61306 17.5043C2.50106 17.6909 2.33306 17.8589 2.10906 18.0083ZM1.59106 16.8463C2.12306 15.6703 2.62706 14.4056 3.10306 13.0523C3.28973 12.5109 3.45306 11.9463 3.59306 11.3583C3.73306 10.7609 3.8404 10.1636 3.91506 9.56628C3.31773 10.1449 2.78106 10.7609 2.30506 11.4143C1.82906 12.0583 1.45573 12.6976 1.18506 13.3323C0.914396 13.9669 0.779063 14.5596 0.779063 15.1103C0.779063 15.4556 0.844396 15.7776 0.975063 16.0763C1.10573 16.3749 1.31106 16.6316 1.59106 16.8463ZM9.65069 12.8983C9.49202 12.8983 9.33802 12.8236 9.18869 12.6743C9.04869 12.5156 8.97869 12.3149 8.97869 12.0723C8.97869 11.6149 8.99269 11.1623 9.02069 10.7143C9.05802 10.2569 9.09535 9.85094 9.13269 9.49628C9.17935 9.13228 9.21202 8.86628 9.23069 8.69828C9.13735 9.09028 9.02069 9.48228 8.88069 9.87428C8.74069 10.2663 8.60069 10.6349 8.46069 10.9803C8.32069 11.3163 8.19935 11.6009 8.09669 11.8343C7.99402 12.0583 7.93335 12.2029 7.91469 12.2683C7.87735 12.3709 7.79802 12.4223 7.67669 12.4223C7.58335 12.4223 7.47602 12.3943 7.35469 12.3383C7.23335 12.2823 7.12602 12.2169 7.03269 12.1423C6.94869 12.0583 6.90202 11.9883 6.89269 11.9323C6.88335 11.8856 6.87869 11.8343 6.87869 11.7783C6.87869 11.7129 6.87869 11.6476 6.87869 11.5823C6.87869 11.1529 6.90669 10.7423 6.96269 10.3503C7.01869 9.94894 7.07002 9.55228 7.11669 9.16028C7.13535 8.98294 7.16335 8.77761 7.20069 8.54428C7.23802 8.31094 7.25669 8.08694 7.25669 7.87228C7.25669 7.77894 7.25202 7.69028 7.24269 7.60628C7.23335 7.51294 7.21469 7.43361 7.18669 7.36828C7.14935 7.29361 7.05602 7.23761 6.90669 7.20028C6.75735 7.15361 6.63135 7.13028 6.52869 7.13028C6.41669 7.13028 6.36069 7.10228 6.36069 7.04628C6.36069 6.94361 6.45869 6.88294 6.65469 6.86428C6.83202 6.84561 6.99535 6.82694 7.14469 6.80828C7.29402 6.78028 7.43869 6.76628 7.57869 6.76628C7.70935 6.76628 7.81202 6.78028 7.88669 6.80828C7.97069 6.83628 8.01269 6.88761 8.01269 6.96228C8.01269 7.31694 7.98002 7.74628 7.91469 8.25028C7.84935 8.74494 7.77935 9.25361 7.70469 9.77628C7.63935 10.2989 7.60669 10.7703 7.60669 11.1903C7.60669 11.3209 7.61135 11.4469 7.62069 11.5683C7.63002 11.6803 7.65802 11.7363 7.70469 11.7363C7.77002 11.7363 7.85869 11.6336 7.97069 11.4283C8.08269 11.2136 8.20402 10.9289 8.33469 10.5743C8.47469 10.2196 8.61002 9.84161 8.74069 9.44028C8.87135 9.02961 8.98802 8.63761 9.09069 8.26428C9.19335 7.89094 9.27269 7.57828 9.32869 7.32628C9.33802 7.27961 9.37535 7.25628 9.44069 7.25628C9.54335 7.25628 9.65535 7.31228 9.77669 7.42428C9.90735 7.52694 10.0007 7.64361 10.0567 7.77428C10.0287 7.88628 9.99135 8.09161 9.94469 8.39028C9.89802 8.68894 9.85135 9.02494 9.80469 9.39828C9.75802 9.77161 9.72069 10.1403 9.69269 10.5043C9.66469 10.8589 9.65069 11.1576 9.65069 11.4003C9.65069 11.6896 9.67869 11.8623 9.73469 11.9183C9.80002 11.9649 9.86535 11.9883 9.93069 11.9883C10.0054 11.9883 10.0894 11.9229 10.1827 11.7923C10.2854 11.6616 10.388 11.4983 10.4907 11.3023C10.5934 11.1063 10.696 10.9149 10.7987 10.7283C10.9014 10.5323 10.99 10.3689 11.0647 10.2383C11.1487 10.1076 11.214 10.0423 11.2607 10.0423C11.298 10.0423 11.3167 10.0656 11.3167 10.1123C11.3167 10.1403 11.3027 10.1916 11.2747 10.2663C11.2374 10.3596 11.172 10.5136 11.0787 10.7283C10.9947 10.9336 10.892 11.1623 10.7707 11.4143C10.6494 11.6569 10.5234 11.8903 10.3927 12.1143C10.262 12.3383 10.1314 12.5249 10.0007 12.6743C9.87002 12.8236 9.75335 12.8983 9.65069 12.8983ZM11.8196 13.7523C11.7263 13.7523 11.5956 13.6776 11.4276 13.5283C11.2689 13.3883 11.1569 13.2016 11.0916 12.9683C11.0543 12.8096 11.0263 12.5949 11.0076 12.3243C10.9889 12.0536 10.9796 11.7503 10.9796 11.4143C10.9796 10.8543 10.9889 10.2523 11.0076 9.60828C11.0356 8.96428 11.0496 8.38561 11.0496 7.87228C11.0496 7.70428 11.0449 7.54561 11.0356 7.39628C11.0356 7.24694 11.0309 7.11628 11.0216 7.00428C11.0029 6.98561 10.9469 6.97161 10.8536 6.96228C10.7696 6.94361 10.6856 6.92961 10.6016 6.92028C10.5269 6.90161 10.4896 6.89228 10.4896 6.89228C10.4896 6.87361 10.5596 6.83161 10.6996 6.76628C10.8489 6.69161 11.0589 6.65428 11.3296 6.65428C11.6096 6.65428 11.7916 6.71494 11.8756 6.83628C11.9689 6.94828 12.0156 7.04628 12.0156 7.13028C12.0156 7.14894 12.0156 7.17228 12.0156 7.20028C12.0156 7.22828 12.0109 7.25161 12.0016 7.27028C11.8989 7.76494 11.8009 8.34828 11.7076 9.02028C11.6143 9.68294 11.5676 10.3829 11.5676 11.1203C11.5676 11.2976 11.5676 11.4563 11.5676 11.5963C11.5769 11.7269 11.5816 11.8436 11.5816 11.9463V12.0723C11.6376 11.5496 11.7356 11.0549 11.8756 10.5883C12.0156 10.1123 12.1556 9.59428 12.2956 9.03428C12.4076 8.54894 12.5009 8.17561 12.5756 7.91428C12.6596 7.64361 12.7436 7.45694 12.8276 7.35428C12.9209 7.24228 13.0283 7.18628 13.1496 7.18628C13.3176 7.18628 13.4343 7.25628 13.4996 7.39628C13.5649 7.53628 13.6069 7.72761 13.6256 7.97028C13.6443 8.21294 13.6629 8.49294 13.6816 8.81028C13.7003 9.11828 13.7469 9.44961 13.8216 9.80428C13.9336 10.3363 14.0643 10.7236 14.2136 10.9663C14.3629 11.2089 14.4889 11.3303 14.5916 11.3303C14.7129 11.3303 14.8343 11.2556 14.9556 11.1063C15.0769 10.9476 15.1936 10.7656 15.3056 10.5603C15.4176 10.3549 15.5156 10.1776 15.5996 10.0283C15.6929 9.86961 15.7676 9.79028 15.8236 9.79028C15.8516 9.79028 15.8656 9.81361 15.8656 9.86028C15.8656 9.89761 15.8516 9.95828 15.8236 10.0423C15.5903 10.5649 15.3943 10.9709 15.2356 11.2603C15.0769 11.5403 14.8576 11.6803 14.5776 11.6803C14.3629 11.6803 14.1483 11.5869 13.9336 11.4003C13.8216 11.3069 13.7096 11.1576 13.5976 10.9523C13.4949 10.7376 13.3969 10.5043 13.3036 10.2523C13.2103 10.0003 13.1216 9.76228 13.0376 9.53828C12.9629 9.30494 12.8976 9.11361 12.8416 8.96428C12.7856 8.81494 12.7483 8.74028 12.7296 8.74028C12.7109 8.74028 12.6783 8.75894 12.6316 8.79628C12.5943 8.83361 12.5663 8.89894 12.5476 8.99228C12.3889 9.57094 12.2583 10.1449 12.1556 10.7143C12.0623 11.2743 11.9923 11.7829 11.9456 12.2403C11.8989 12.6883 11.8756 13.0336 11.8756 13.2763C11.8756 13.3976 11.8803 13.4816 11.8896 13.5283C11.9083 13.5843 11.9176 13.6263 11.9176 13.6543C11.9176 13.7196 11.8849 13.7523 11.8196 13.7523ZM16.3448 12.4783C16.0088 12.4783 15.7614 12.3709 15.6028 12.1563C15.4441 11.9323 15.3648 11.6616 15.3648 11.3443C15.3648 11.0083 15.4441 10.5976 15.6028 10.1123C15.7614 9.62694 15.9294 9.16961 16.1068 8.74028C15.9481 8.84294 15.7848 8.93628 15.6168 9.02028C15.4488 9.10428 15.2994 9.14628 15.1688 9.14628C15.0754 9.14628 15.0054 9.12294 14.9588 9.07628C14.9214 9.02961 14.9028 8.97828 14.9028 8.92228C14.9028 8.87561 14.9168 8.80561 14.9448 8.71228C14.9728 8.61894 15.0194 8.53028 15.0848 8.44628C15.1594 8.36228 15.2481 8.32028 15.3508 8.32028C15.3881 8.32028 15.4068 8.33428 15.4068 8.36228C15.4068 8.37161 15.4021 8.38094 15.3928 8.39028C15.3928 8.39028 15.3928 8.39494 15.3928 8.40428C15.3834 8.42294 15.3788 8.44161 15.3788 8.46028C15.3788 8.49761 15.4021 8.51628 15.4488 8.51628C15.4768 8.51628 15.5094 8.51161 15.5468 8.50228C15.5934 8.49294 15.6401 8.47428 15.6868 8.44628C15.7801 8.39961 15.8874 8.34361 16.0088 8.27828C16.1301 8.20361 16.2654 8.12894 16.4148 8.05428L16.6248 7.63428C16.6808 7.53161 16.7461 7.46161 16.8208 7.42428C16.8954 7.37761 16.9654 7.35428 17.0308 7.35428C17.1334 7.35428 17.2221 7.37294 17.2968 7.41028C17.3808 7.43828 17.4554 7.47561 17.5208 7.52228C17.6234 7.47561 17.7308 7.43361 17.8428 7.39628C17.9641 7.34961 18.0808 7.31694 18.1928 7.29828C18.5474 7.16761 18.9161 7.06494 19.2988 6.99028C19.6814 6.90628 20.0594 6.86428 20.4328 6.86428C20.6381 6.86428 20.8481 6.89228 21.0628 6.94828C21.2774 7.00428 21.3848 7.09294 21.3848 7.21428C21.3848 7.25161 21.3474 7.27028 21.2728 7.27028C21.1234 7.27028 20.9508 7.25161 20.7548 7.21428C20.5681 7.17694 20.3814 7.15828 20.1948 7.15828C19.9614 7.15828 19.7374 7.17228 19.5228 7.20028C19.3081 7.21894 19.1074 7.25161 18.9208 7.29828C19.0701 7.36361 19.1914 7.47561 19.2848 7.63428C19.3874 7.79294 19.4388 7.99361 19.4388 8.23628C19.4388 8.49761 19.3734 8.81028 19.2428 9.17428C19.1214 9.53828 18.9534 9.91161 18.7388 10.2943C18.5334 10.6769 18.2954 11.0363 18.0248 11.3723C17.7541 11.6989 17.4741 11.9649 17.1848 12.1703C16.8954 12.3756 16.6154 12.4783 16.3448 12.4783ZM16.4988 12.1843C16.6948 12.1843 16.8954 12.0956 17.1008 11.9183C17.3154 11.7409 17.5254 11.5169 17.7308 11.2463C17.9361 10.9756 18.1181 10.6956 18.2768 10.4063C18.3514 10.2756 18.4354 10.0983 18.5288 9.87428C18.6314 9.65028 18.7154 9.41228 18.7808 9.16028C18.8554 8.90828 18.8928 8.67961 18.8928 8.47428C18.8928 8.28761 18.8508 8.13361 18.7668 8.01228C18.6921 7.88161 18.5474 7.81628 18.3328 7.81628C18.2301 7.81628 18.0994 7.84428 17.9408 7.90028C17.7821 7.95628 17.6141 8.02161 17.4368 8.09628C17.3994 8.13361 17.3621 8.17561 17.3248 8.22228C17.2968 8.25961 17.2734 8.30161 17.2548 8.34828C17.0774 8.67494 16.9001 9.03894 16.7228 9.44028C16.5454 9.83228 16.3961 10.2149 16.2748 10.5883C16.1628 10.9616 16.1068 11.2883 16.1068 11.5683C16.1068 11.9789 16.2374 12.1843 16.4988 12.1843ZM29.4298 14.2423C29.1032 14.2423 28.8138 14.0416 28.5618 13.6403C28.2632 13.1736 28.0252 12.6229 27.8478 11.9883C27.6705 11.3536 27.5352 10.6676 27.4418 9.93028C27.2832 10.1823 27.0965 10.4483 26.8818 10.7283C26.6672 11.0083 26.4292 11.2743 26.1678 11.5263C25.9065 11.7689 25.6358 11.9696 25.3558 12.1283C25.0758 12.2776 24.7912 12.3523 24.5018 12.3523C24.2312 12.3523 24.0165 12.3056 23.8578 12.2123C23.7085 12.1189 23.5965 12.0116 23.5218 11.8903C23.4565 11.7596 23.4145 11.6383 23.3958 11.5263C23.3865 11.4143 23.3818 11.3349 23.3818 11.2883C23.3818 11.0269 23.4752 10.7423 23.6618 10.4343C23.8578 10.1263 24.1285 9.83694 24.4738 9.56628C24.8285 9.28628 25.2438 9.05761 25.7198 8.88028C26.2052 8.70294 26.7325 8.61428 27.3018 8.61428H27.3158C27.2972 8.26894 27.2832 7.91894 27.2738 7.56428C27.2645 7.20961 27.2598 6.85028 27.2598 6.48628C27.2598 5.99161 27.2738 5.50161 27.3018 5.01628C27.3298 4.53094 27.3765 4.09228 27.4418 3.70028C27.5165 3.29894 27.6145 2.98628 27.7358 2.76228C27.7918 2.66894 27.8758 2.62228 27.9878 2.62228C28.2305 2.62228 28.4498 2.71561 28.6458 2.90228C28.8418 3.07961 29.0005 3.29428 29.1218 3.54628C29.2432 3.79828 29.3038 4.04094 29.3038 4.27428C29.3038 4.95561 29.1825 5.66028 28.9398 6.38828C28.6972 7.11628 28.4125 7.88161 28.0858 8.68428V8.72628L28.2818 8.79628C28.4685 8.88961 28.6225 9.00628 28.7438 9.14628C28.8745 9.27694 28.9398 9.39361 28.9398 9.49628C28.9398 9.53361 28.9258 9.55228 28.8978 9.55228C28.8698 9.55228 28.8418 9.52894 28.8138 9.48228C28.5805 9.27694 28.3472 9.14628 28.1138 9.09028C28.1885 9.87428 28.3098 10.5976 28.4778 11.2603C28.6458 11.9136 28.8652 12.4829 29.1358 12.9683C29.2945 13.2576 29.4252 13.4536 29.5278 13.5563C29.6305 13.6683 29.7192 13.7243 29.7938 13.7243C29.8685 13.7243 29.9338 13.6776 29.9898 13.5843C30.0552 13.5003 30.1065 13.4583 30.1438 13.4583C30.1718 13.4583 30.1858 13.4863 30.1858 13.5423V13.5983C30.1672 13.6449 30.1298 13.7196 30.0738 13.8223C30.0178 13.9249 29.9385 14.0183 29.8358 14.1023C29.7332 14.1956 29.5978 14.2423 29.4298 14.2423ZM28.0438 8.18028C28.2398 7.67628 28.3985 7.22361 28.5198 6.82228C28.6412 6.42094 28.7485 5.98694 28.8418 5.52028C28.8698 5.37094 28.8932 5.21694 28.9118 5.05828C28.9305 4.89028 28.9398 4.73161 28.9398 4.58228C28.9398 4.31161 28.9118 4.07361 28.8558 3.86828C28.8092 3.66294 28.7298 3.54161 28.6178 3.50428C28.4498 3.64428 28.3192 3.87761 28.2258 4.20428C28.1418 4.52161 28.0812 4.89028 28.0438 5.31028C28.0158 5.72094 28.0018 6.13628 28.0018 6.55628C28.0018 7.11628 28.0158 7.65761 28.0438 8.18028ZM24.3478 12.0163C24.5812 12.0163 24.8378 11.9416 25.1178 11.7923C25.4072 11.6336 25.6918 11.4329 25.9718 11.1903C26.2612 10.9476 26.5272 10.6863 26.7698 10.4063C27.0218 10.1169 27.2318 9.84161 27.3998 9.58028L27.3438 8.99228C27.1012 9.00161 26.8258 9.07161 26.5178 9.20228C26.2192 9.33294 25.9112 9.49628 25.5938 9.69228C25.2858 9.88828 25.0012 10.1029 24.7398 10.3363C24.4785 10.5603 24.2638 10.7843 24.0958 11.0083C23.9372 11.2229 23.8578 11.4189 23.8578 11.5963C23.8578 11.7643 23.9465 11.8949 24.1238 11.9883C24.1612 11.9976 24.1985 12.0069 24.2358 12.0163C24.2732 12.0163 24.3105 12.0163 24.3478 12.0163ZM31.5342 12.6603C31.2169 12.6603 30.9696 12.5576 30.7922 12.3523C30.6242 12.1469 30.5076 11.8856 30.4422 11.5683C30.3862 11.2416 30.3582 10.9149 30.3582 10.5883C30.3582 10.3643 30.3676 10.1543 30.3862 9.95828C30.4049 9.75294 30.4236 9.57561 30.4422 9.42628C30.4889 9.04361 30.5496 8.67494 30.6242 8.32028C30.6989 7.96561 30.7689 7.66228 30.8342 7.41028C30.9089 7.15828 30.9556 6.99494 30.9742 6.92028C31.0116 6.78961 31.0816 6.72428 31.1842 6.72428C31.2869 6.72428 31.4036 6.79428 31.5342 6.93428C31.6649 7.06494 31.7582 7.17228 31.8142 7.25628C32.0289 7.32161 32.2389 7.40094 32.4442 7.49428C32.6496 7.57828 32.8176 7.67161 32.9482 7.77428C33.0882 7.87694 33.1582 7.98894 33.1582 8.11028C33.1582 8.34361 33.0602 8.57694 32.8642 8.81028C32.6682 9.04361 32.4209 9.25828 32.1222 9.45428C31.8236 9.65028 31.5202 9.81828 31.2122 9.95828C31.1842 10.1823 31.1702 10.4063 31.1702 10.6303C31.1702 11.0036 31.2169 11.3303 31.3102 11.6103C31.4036 11.8903 31.5622 12.0303 31.7862 12.0303C31.9822 12.0303 32.1689 11.9603 32.3462 11.8203C32.5329 11.6803 32.7056 11.5029 32.8642 11.2883C33.0229 11.0736 33.1629 10.8589 33.2842 10.6443C33.4149 10.4203 33.5129 10.2336 33.5782 10.0843C33.5969 10.0283 33.6389 10.0003 33.7042 10.0003C33.7416 10.0003 33.7602 10.0423 33.7602 10.1263C33.7602 10.2009 33.7042 10.3596 33.5922 10.6023C33.4802 10.8263 33.3636 11.0409 33.2422 11.2463C33.1302 11.4423 33.0182 11.6149 32.9062 11.7643C32.7476 11.9696 32.5516 12.1703 32.3182 12.3663C32.0942 12.5623 31.8329 12.6603 31.5342 12.6603ZM31.2542 9.56628C31.5809 9.38894 31.8702 9.17894 32.1222 8.93628C32.3836 8.68428 32.5142 8.41361 32.5142 8.12428C32.5142 8.02161 32.4349 7.91894 32.2762 7.81628C32.1269 7.70428 31.9496 7.61094 31.7442 7.53628C31.6322 7.83494 31.5342 8.15228 31.4502 8.48828C31.3756 8.82428 31.3102 9.18361 31.2542 9.56628ZM39.8822 13.7243C39.8822 13.5096 39.8542 13.2156 39.7982 12.8423C39.7422 12.4689 39.6488 12.0723 39.5182 11.6523C39.3875 11.2229 39.2102 10.8216 38.9862 10.4483C38.8555 10.2336 38.6642 10.0609 38.4122 9.93028C38.1695 9.79961 37.8988 9.70628 37.6002 9.65028C37.3108 9.58494 37.0262 9.55228 36.7462 9.55228H36.5082C36.4802 9.55228 36.4662 9.53361 36.4662 9.49628C36.4662 9.41228 36.4988 9.29561 36.5642 9.14628C36.6295 8.99694 36.7042 8.85694 36.7882 8.72628C36.8722 8.59561 36.9422 8.52561 36.9982 8.51628C37.5022 8.44161 38.0155 8.38094 38.5382 8.33428C39.0702 8.27828 39.5975 8.23161 40.1202 8.19428C40.1388 7.58761 40.1762 6.93428 40.2322 6.23428C40.2975 5.52494 40.3628 4.87161 40.4282 4.27428C39.9055 4.42361 39.3782 4.59161 38.8462 4.77828C38.3142 4.96494 37.7822 5.17028 37.2502 5.39428H37.2362C37.1988 5.39428 37.1802 5.34761 37.1802 5.25428C37.1802 5.15161 37.1988 5.02094 37.2362 4.86228C37.2828 4.69428 37.3342 4.54494 37.3902 4.41428C37.4555 4.27428 37.5162 4.19961 37.5722 4.19028C38.0202 4.05961 38.4915 3.93828 38.9862 3.82628C39.4902 3.70494 39.9988 3.59761 40.5122 3.50428L40.6522 2.59428C40.5868 2.70628 40.5215 2.82294 40.4562 2.94428C40.4002 3.06561 40.3628 3.12628 40.3442 3.12628C40.3348 3.12628 40.3302 3.11228 40.3302 3.08428C40.3302 3.05628 40.3348 3.00494 40.3442 2.93028C40.3535 2.85561 40.3722 2.75761 40.4002 2.63628C40.4188 2.53361 40.4562 2.38894 40.5122 2.20228C40.5775 2.01561 40.6475 1.82428 40.7222 1.62828C40.7968 1.43228 40.8762 1.26894 40.9602 1.13828C41.0442 0.998277 41.1188 0.928277 41.1842 0.928277C41.3428 0.928277 41.4968 1.00294 41.6462 1.15228C41.8048 1.29228 41.8842 1.42294 41.8842 1.54428V1.58628C41.8002 1.79161 41.7208 2.04828 41.6462 2.35628C41.5715 2.66428 41.5015 2.99561 41.4362 3.35028C42.0055 3.27561 42.5655 3.21494 43.1162 3.16828C43.6668 3.12161 44.1988 3.09828 44.7122 3.09828C44.9548 3.09828 45.2208 3.10761 45.5102 3.12628C45.7995 3.13561 46.0748 3.15894 46.3362 3.19628C46.6068 3.22428 46.8262 3.26161 46.9942 3.30828C47.1622 3.35494 47.2462 3.41561 47.2462 3.49028C47.2462 3.53694 47.1902 3.56028 47.0782 3.56028C46.8168 3.56028 46.5602 3.54161 46.3082 3.50428C46.0655 3.46694 45.8135 3.44828 45.5522 3.44828C44.2922 3.44828 42.8828 3.63961 41.3242 4.02228C41.2495 4.50761 41.1795 5.00694 41.1142 5.52028C41.0582 6.02428 41.0068 6.50494 40.9602 6.96228C40.9135 7.41961 40.8762 7.81628 40.8482 8.15228C41.1748 8.13361 41.4922 8.11961 41.8002 8.11028C42.1175 8.10094 42.4208 8.09628 42.7102 8.09628C43.1208 8.09628 43.5268 8.10561 43.9282 8.12428C44.3295 8.14294 44.6655 8.17561 44.9362 8.22228C45.2068 8.25961 45.3422 8.31561 45.3422 8.39028C45.3422 8.41828 45.3235 8.44628 45.2862 8.47428C45.2582 8.49294 45.2255 8.50228 45.1882 8.50228C44.9922 8.50228 44.7868 8.48828 44.5722 8.46028C44.3575 8.43228 44.1382 8.41828 43.9142 8.41828C43.4568 8.41828 42.9668 8.44628 42.4442 8.50228C41.9308 8.54894 41.3848 8.61894 40.8062 8.71228C40.7502 9.36561 40.6942 10.0376 40.6382 10.7283C40.5915 11.4096 40.5588 11.9976 40.5402 12.4923C40.5308 12.7816 40.4795 13.0336 40.3862 13.2483C40.3022 13.4629 40.1342 13.6216 39.8822 13.7243ZM40.0782 12.3803C40.0688 12.2029 40.0595 12.0163 40.0502 11.8203C40.0502 11.6149 40.0502 11.4003 40.0502 11.1763C40.0502 10.8216 40.0548 10.4483 40.0642 10.0563C40.0735 9.65494 40.0875 9.24428 40.1062 8.82428C39.7888 8.88028 39.4622 8.94094 39.1262 9.00628C38.7902 9.07161 38.4448 9.14161 38.0902 9.21628C38.3982 9.34694 38.6735 9.53361 38.9162 9.77628C39.1588 10.0096 39.3735 10.3316 39.5602 10.7423C39.7562 11.1529 39.9288 11.6989 40.0782 12.3803ZM48.5427 12.3243C48.44 12.3243 48.328 12.2869 48.2067 12.2123C48.0854 12.1283 48.0014 12.0396 47.9547 11.9463C47.9547 11.7316 47.9827 11.4376 48.0387 11.0643C48.0947 10.6909 48.1554 10.3083 48.2207 9.91628C48.2954 9.51494 48.3607 9.17428 48.4167 8.89428C48.2487 9.15561 48.0574 9.44028 47.8427 9.74828C47.628 10.0563 47.4087 10.3456 47.1847 10.6163C46.9607 10.8776 46.732 11.0969 46.4987 11.2743C46.2747 11.4423 46.0647 11.5263 45.8687 11.5263C45.6727 11.5263 45.5187 11.4609 45.4067 11.3303C45.2947 11.1903 45.2387 11.0316 45.2387 10.8543C45.2387 10.8076 45.248 10.7469 45.2667 10.6723C45.3507 10.2429 45.514 9.84161 45.7567 9.46828C46.0087 9.08561 46.2934 8.74961 46.6107 8.46028C46.9374 8.17094 47.2594 7.94228 47.5767 7.77428C47.894 7.60628 48.1647 7.52228 48.3887 7.52228C48.5567 7.52228 48.7154 7.55961 48.8647 7.63428C49.0234 7.69961 49.1727 7.81161 49.3127 7.97028C49.3407 7.99828 49.3547 8.03094 49.3547 8.06828C49.3547 8.11494 49.3267 8.16161 49.2707 8.20828C49.2054 8.43228 49.1354 8.70294 49.0607 9.02028C48.9954 9.32828 48.93 9.65028 48.8647 9.98628C48.8087 10.3129 48.762 10.6163 48.7247 10.8963C48.6874 11.1763 48.6687 11.3909 48.6687 11.5403C48.6687 11.6429 48.6827 11.6943 48.7107 11.6943C48.7854 11.6943 48.8787 11.6149 48.9907 11.4563C49.112 11.2976 49.2287 11.1156 49.3407 10.9103C49.4527 10.7049 49.5507 10.5229 49.6347 10.3643C49.728 10.2056 49.784 10.1263 49.8027 10.1263C49.8307 10.1263 49.8447 10.1636 49.8447 10.2383C49.8447 10.3969 49.7934 10.5929 49.6907 10.8263C49.588 11.0596 49.462 11.2929 49.3127 11.5263C49.1727 11.7503 49.028 11.9416 48.8787 12.1003C48.7387 12.2496 48.6267 12.3243 48.5427 12.3243ZM45.9807 11.0083C46.1114 11.0083 46.2747 10.9336 46.4707 10.7843C46.676 10.6349 46.886 10.4436 47.1007 10.2103C47.3247 9.97694 47.5394 9.72961 47.7447 9.46828C47.9594 9.20694 48.1414 8.95961 48.2907 8.72628C48.4494 8.48361 48.5614 8.28761 48.6267 8.13828C48.44 8.13828 48.2254 8.20828 47.9827 8.34828C47.74 8.47894 47.4927 8.65161 47.2407 8.86628C46.9887 9.07161 46.7554 9.30028 46.5407 9.55228C46.326 9.79494 46.1534 10.0329 46.0227 10.2663C45.892 10.4996 45.8267 10.7003 45.8267 10.8683C45.8267 10.9616 45.878 11.0083 45.9807 11.0083ZM51.0579 13.7523C50.9645 13.7523 50.8339 13.6776 50.6659 13.5283C50.5072 13.3883 50.3952 13.2016 50.3299 12.9683C50.2925 12.8096 50.2645 12.5949 50.2459 12.3243C50.2272 12.0536 50.2179 11.7503 50.2179 11.4143C50.2179 10.8543 50.2272 10.2523 50.2459 9.60828C50.2739 8.96428 50.2879 8.38561 50.2879 7.87228C50.2879 7.70428 50.2832 7.54561 50.2739 7.39628C50.2739 7.24694 50.2692 7.11628 50.2599 7.00428C50.2412 6.98561 50.1852 6.97161 50.0919 6.96228C50.0079 6.94361 49.9239 6.92961 49.8399 6.92028C49.7652 6.90161 49.7279 6.89228 49.7279 6.89228C49.7279 6.87361 49.7979 6.83161 49.9379 6.76628C50.0872 6.69161 50.2972 6.65428 50.5679 6.65428C50.8479 6.65428 51.0299 6.71494 51.1139 6.83628C51.2072 6.94828 51.2539 7.04628 51.2539 7.13028C51.2539 7.14894 51.2539 7.17228 51.2539 7.20028C51.2539 7.22828 51.2492 7.25161 51.2399 7.27028C51.1372 7.76494 51.0392 8.34828 50.9459 9.02028C50.8525 9.68294 50.8059 10.3829 50.8059 11.1203C50.8059 11.2976 50.8059 11.4563 50.8059 11.5963C50.8152 11.7269 50.8199 11.8436 50.8199 11.9463V12.0723C50.8759 11.5496 50.9739 11.0549 51.1139 10.5883C51.2539 10.1123 51.3939 9.59428 51.5339 9.03428C51.6459 8.54894 51.7392 8.17561 51.8139 7.91428C51.8979 7.64361 51.9819 7.45694 52.0659 7.35428C52.1592 7.24228 52.2665 7.18628 52.3879 7.18628C52.5559 7.18628 52.6725 7.25628 52.7379 7.39628C52.8032 7.53628 52.8452 7.72761 52.8639 7.97028C52.8825 8.21294 52.9012 8.49294 52.9199 8.81028C52.9385 9.11828 52.9852 9.44961 53.0599 9.80428C53.1719 10.3363 53.3025 10.7236 53.4519 10.9663C53.6012 11.2089 53.7272 11.3303 53.8299 11.3303C53.9512 11.3303 54.0725 11.2556 54.1939 11.1063C54.3152 10.9476 54.4319 10.7656 54.5439 10.5603C54.6559 10.3549 54.7539 10.1776 54.8379 10.0283C54.9312 9.86961 55.0059 9.79028 55.0619 9.79028C55.0899 9.79028 55.1039 9.81361 55.1039 9.86028C55.1039 9.89761 55.0899 9.95828 55.0619 10.0423C54.8285 10.5649 54.6325 10.9709 54.4739 11.2603C54.3152 11.5403 54.0959 11.6803 53.8159 11.6803C53.6012 11.6803 53.3865 11.5869 53.1719 11.4003C53.0599 11.3069 52.9479 11.1576 52.8359 10.9523C52.7332 10.7376 52.6352 10.5043 52.5419 10.2523C52.4485 10.0003 52.3599 9.76228 52.2759 9.53828C52.2012 9.30494 52.1359 9.11361 52.0799 8.96428C52.0239 8.81494 51.9865 8.74028 51.9679 8.74028C51.9492 8.74028 51.9165 8.75894 51.8699 8.79628C51.8325 8.83361 51.8045 8.89894 51.7859 8.99228C51.6272 9.57094 51.4965 10.1449 51.3939 10.7143C51.3005 11.2743 51.2305 11.7829 51.1839 12.2403C51.1372 12.6883 51.1139 13.0336 51.1139 13.2763C51.1139 13.3976 51.1185 13.4816 51.1279 13.5283C51.1465 13.5843 51.1559 13.6263 51.1559 13.6543C51.1559 13.7196 51.1232 13.7523 51.0579 13.7523ZM55.8659 18.7223C55.6979 18.7223 55.5719 18.6243 55.4879 18.4283C55.7306 17.9056 55.9732 17.3456 56.2159 16.7483C56.4679 16.1509 56.7059 15.5396 56.9299 14.9143C57.1632 14.2889 57.3592 13.6776 57.5179 13.0803C57.2566 13.2856 56.9906 13.5096 56.7199 13.7523C56.4492 13.9949 56.1926 14.2749 55.9499 14.5923C55.6419 14.9749 55.4039 15.4276 55.2359 15.9503C55.0772 16.4823 54.9979 16.9723 54.9979 17.4203C54.9979 17.9616 55.1099 18.3676 55.3339 18.6383C55.3619 18.6663 55.3759 18.6849 55.3759 18.6943C55.3759 18.6943 55.3712 18.6943 55.3619 18.6943C55.3619 18.7036 55.3572 18.7083 55.3479 18.7083C55.3106 18.7083 55.2639 18.6943 55.2079 18.6663C55.1612 18.6383 55.1146 18.5963 55.0679 18.5403C54.8812 18.3443 54.7412 18.1063 54.6479 17.8263C54.5639 17.5556 54.5219 17.2616 54.5219 16.9443C54.5219 16.5803 54.5919 16.2116 54.7319 15.8383C54.8719 15.4649 55.0772 15.1149 55.3479 14.7883C55.7399 14.3123 56.1272 13.9156 56.5099 13.5983C56.8926 13.2903 57.2612 12.9869 57.6159 12.6883C57.7559 12.1376 57.8539 11.6009 57.9099 11.0783C57.9566 10.6676 57.9846 10.3083 57.9939 10.0003C58.0126 9.69228 58.0219 9.42161 58.0219 9.18828C58.0219 9.03894 58.0172 8.90361 58.0079 8.78228C57.9986 8.66094 57.9892 8.54894 57.9799 8.44628L57.8679 8.47428C57.7092 8.72628 57.5179 9.02494 57.2939 9.37028C57.0699 9.71561 56.8272 10.0563 56.5659 10.3923C56.3046 10.7189 56.0432 10.9943 55.7819 11.2183C55.5206 11.4423 55.2732 11.5543 55.0399 11.5543C54.8439 11.5543 54.6899 11.4889 54.5779 11.3583C54.4659 11.2183 54.4099 11.0596 54.4099 10.8823C54.4099 10.8356 54.4192 10.7749 54.4379 10.7003C54.5219 10.2709 54.6852 9.86961 54.9279 9.49628C55.1799 9.11361 55.4646 8.77761 55.7819 8.48828C56.1086 8.19894 56.4306 7.97028 56.7479 7.80228C57.0652 7.63428 57.3359 7.55028 57.5599 7.55028C57.7279 7.55028 57.8866 7.58761 58.0359 7.66228C58.1946 7.72761 58.3439 7.83961 58.4839 7.99828C58.5119 8.02628 58.5259 8.05894 58.5259 8.09628C58.5259 8.18028 58.4372 8.25961 58.2599 8.33428C58.3346 8.47428 58.3812 8.65628 58.3999 8.88028C58.4279 9.09494 58.4419 9.32361 58.4419 9.56628C58.4419 9.96761 58.4186 10.3876 58.3719 10.8263C58.3252 11.2649 58.2646 11.7083 58.1899 12.1563C58.4326 11.9136 58.6659 11.6383 58.8899 11.3303C59.1139 11.0223 59.3286 10.6536 59.5339 10.2243C59.5899 10.1123 59.6412 10.0563 59.6879 10.0563C59.7252 10.0563 59.7439 10.0889 59.7439 10.1543C59.7439 10.2569 59.6972 10.4063 59.6039 10.6023C59.5199 10.7983 59.4172 10.9989 59.2959 11.2043C59.1746 11.4096 59.0532 11.5869 58.9319 11.7363C58.8106 11.8856 58.6799 12.0349 58.5399 12.1843C58.4092 12.3243 58.2692 12.4596 58.1199 12.5903C57.9986 13.2343 57.8586 13.8643 57.6999 14.4803C57.5412 15.0963 57.3826 15.6609 57.2239 16.1743C57.0652 16.6876 56.9206 17.1169 56.7899 17.4623C56.6686 17.8169 56.5799 18.0503 56.5239 18.1623C56.4119 18.3676 56.2999 18.5123 56.1879 18.5963C56.0759 18.6803 55.9686 18.7223 55.8659 18.7223ZM55.2219 10.9803C55.3526 10.9803 55.5159 10.9056 55.7119 10.7563C55.9079 10.6069 56.1132 10.4203 56.3279 10.1963C56.5426 9.96294 56.7479 9.71561 56.9439 9.45428C57.1492 9.19294 57.3266 8.95028 57.4759 8.72628C57.6346 8.49294 57.7419 8.30628 57.7979 8.16628C57.6019 8.16628 57.3872 8.23628 57.1539 8.37628C56.9299 8.50694 56.7059 8.67961 56.4819 8.89428C56.2579 9.10894 56.0479 9.33294 55.8519 9.56628C55.6559 9.79961 55.4926 10.0189 55.3619 10.2243C55.2406 10.4296 55.1612 10.5883 55.1239 10.7003C55.0959 10.7656 55.0819 10.8169 55.0819 10.8543C55.0819 10.9383 55.1286 10.9803 55.2219 10.9803Z" fill="white"/>
</svg>
