<svg width="47" height="19" viewBox="0 0 47 19" fill="none" xmlns="http://www.w3.org/2000/svg">
<path d="M1.157 4.47022C1.13833 4.47022 1.129 4.43755 1.129 4.37222C1.129 4.28822 1.13833 4.18555 1.157 4.06422C1.185 3.94288 1.213 3.83555 1.241 3.74222C1.27833 3.63955 1.311 3.58355 1.339 3.57422C1.703 3.41555 2.165 3.27089 2.725 3.14022C3.29433 3.00022 3.901 2.89289 4.545 2.81822C5.189 2.73422 5.805 2.69222 6.393 2.69222C6.66367 2.69222 6.94833 2.70622 7.247 2.73422C7.555 2.76222 7.81167 2.79955 8.017 2.84622C8.23167 2.89288 8.339 2.94888 8.339 3.01422C8.339 3.02355 8.32967 3.02822 8.311 3.02822C8.10567 3.01889 7.88167 3.01422 7.639 3.01422C7.40567 3.00489 7.163 3.00022 6.911 3.00022C6.22033 3.00022 5.511 3.07022 4.783 3.21022C4.06433 3.34089 3.38767 3.51822 2.753 3.74222C2.11833 3.95688 1.591 4.19955 1.171 4.47022H1.157ZM2.445 17.4482C2.25833 17.4016 2.09033 17.3129 1.941 17.1822C1.79167 17.0609 1.717 16.9349 1.717 16.8042C1.717 16.7856 1.717 16.7669 1.717 16.7482C1.72633 16.7296 1.73567 16.7109 1.745 16.6922C1.745 16.6736 1.74967 16.6642 1.759 16.6642H1.745C1.67033 16.6642 1.60967 16.6456 1.563 16.6082C1.21767 16.3656 0.965667 16.0809 0.807 15.7542C0.648333 15.4276 0.569 15.0729 0.569 14.6902C0.569 14.2142 0.671667 13.7056 0.877 13.1642C1.08233 12.6322 1.36233 12.0956 1.717 11.5542C2.07167 11.0036 2.473 10.4716 2.921 9.95822C3.369 9.43555 3.83567 8.95022 4.321 8.50222C4.35833 8.16622 4.38633 7.83489 4.405 7.50822C4.42367 7.17222 4.433 6.84555 4.433 6.52822C4.433 5.97755 4.405 5.45955 4.349 4.97422C4.293 4.47955 4.20433 4.04089 4.083 3.65822C4.083 3.61155 4.167 3.58822 4.335 3.58822C4.49367 3.58822 4.66167 3.62089 4.839 3.68622C5.02567 3.75155 5.133 3.87289 5.161 4.05022C5.19833 4.28355 5.22633 4.53088 5.245 4.79222C5.26367 5.04422 5.273 5.30555 5.273 5.57622C5.273 5.93088 5.259 6.29955 5.231 6.68222C5.21233 7.05555 5.17967 7.43355 5.133 7.81622C5.553 7.48955 5.959 7.20955 6.351 6.97622C6.75233 6.73355 7.121 6.55622 7.457 6.44422C7.49433 6.43489 7.527 6.43022 7.555 6.43022C7.583 6.42089 7.611 6.41622 7.639 6.41622C7.76033 6.41622 7.821 6.44889 7.821 6.51422C7.821 6.54222 7.79767 6.57489 7.751 6.61222C7.29367 6.80822 6.83633 7.05089 6.379 7.34022C5.931 7.62022 5.497 7.93289 5.077 8.27822C4.965 9.12755 4.82033 9.98155 4.643 10.8402C4.46567 11.6896 4.279 12.4922 4.083 13.2482C3.887 14.0136 3.705 14.6902 3.537 15.2782C3.425 15.6796 3.327 16.0109 3.243 16.2722C3.16833 16.5429 3.07033 16.7669 2.949 16.9442C2.837 17.1309 2.669 17.2989 2.445 17.4482ZM1.927 16.2862C2.459 15.1102 2.963 13.8456 3.439 12.4922C3.62567 11.9509 3.789 11.3862 3.929 10.7982C4.069 10.2009 4.17633 9.60355 4.251 9.00622C3.65367 9.58489 3.117 10.2009 2.641 10.8542C2.165 11.4982 1.79167 12.1376 1.521 12.7722C1.25033 13.4069 1.115 13.9996 1.115 14.5502C1.115 14.8956 1.18033 15.2176 1.311 15.5162C1.44167 15.8149 1.647 16.0716 1.927 16.2862ZM9.98663 12.3382C9.82796 12.3382 9.67396 12.2636 9.52463 12.1142C9.38463 11.9556 9.31463 11.7549 9.31463 11.5122C9.31463 11.0549 9.32863 10.6022 9.35663 10.1542C9.39396 9.69689 9.43129 9.29089 9.46863 8.93622C9.51529 8.57222 9.54796 8.30622 9.56663 8.13822C9.47329 8.53022 9.35663 8.92222 9.21663 9.31422C9.07663 9.70622 8.93663 10.0749 8.79663 10.4202C8.65663 10.7562 8.53529 11.0409 8.43263 11.2742C8.32996 11.4982 8.26929 11.6429 8.25063 11.7082C8.21329 11.8109 8.13396 11.8622 8.01263 11.8622C7.91929 11.8622 7.81196 11.8342 7.69063 11.7782C7.56929 11.7222 7.46196 11.6569 7.36863 11.5822C7.28463 11.4982 7.23796 11.4282 7.22863 11.3722C7.21929 11.3256 7.21463 11.2742 7.21463 11.2182C7.21463 11.1529 7.21463 11.0876 7.21463 11.0222C7.21463 10.5929 7.24263 10.1822 7.29863 9.79022C7.35463 9.38889 7.40596 8.99222 7.45263 8.60022C7.47129 8.42289 7.49929 8.21755 7.53663 7.98422C7.57396 7.75089 7.59263 7.52689 7.59263 7.31222C7.59263 7.21889 7.58796 7.13022 7.57863 7.04622C7.56929 6.95289 7.55063 6.87355 7.52263 6.80822C7.48529 6.73355 7.39196 6.67755 7.24263 6.64022C7.09329 6.59355 6.96729 6.57022 6.86463 6.57022C6.75263 6.57022 6.69663 6.54222 6.69663 6.48622C6.69663 6.38355 6.79463 6.32289 6.99063 6.30422C7.16796 6.28555 7.33129 6.26689 7.48063 6.24822C7.62996 6.22022 7.77463 6.20622 7.91463 6.20622C8.04529 6.20622 8.14796 6.22022 8.22263 6.24822C8.30663 6.27622 8.34863 6.32755 8.34863 6.40222C8.34863 6.75689 8.31596 7.18622 8.25063 7.69022C8.18529 8.18489 8.11529 8.69355 8.04063 9.21622C7.97529 9.73889 7.94263 10.2102 7.94263 10.6302C7.94263 10.7609 7.94729 10.8869 7.95663 11.0082C7.96596 11.1202 7.99396 11.1762 8.04063 11.1762C8.10596 11.1762 8.19463 11.0736 8.30663 10.8682C8.41863 10.6536 8.53996 10.3689 8.67063 10.0142C8.81063 9.65955 8.94596 9.28155 9.07663 8.88022C9.20729 8.46955 9.32396 8.07755 9.42663 7.70422C9.52929 7.33089 9.60863 7.01822 9.66463 6.76622C9.67396 6.71955 9.71129 6.69622 9.77663 6.69622C9.87929 6.69622 9.99129 6.75222 10.1126 6.86422C10.2433 6.96689 10.3366 7.08355 10.3926 7.21422C10.3646 7.32622 10.3273 7.53155 10.2806 7.83022C10.234 8.12889 10.1873 8.46489 10.1406 8.83822C10.094 9.21155 10.0566 9.58022 10.0286 9.94422C10.0006 10.2989 9.98663 10.5976 9.98663 10.8402C9.98663 11.1296 10.0146 11.3022 10.0706 11.3582C10.136 11.4049 10.2013 11.4282 10.2666 11.4282C10.3413 11.4282 10.4253 11.3629 10.5186 11.2322C10.6213 11.1016 10.724 10.9382 10.8266 10.7422C10.9293 10.5462 11.032 10.3549 11.1346 10.1682C11.2373 9.97222 11.326 9.80889 11.4006 9.67822C11.4846 9.54755 11.55 9.48222 11.5966 9.48222C11.634 9.48222 11.6526 9.50555 11.6526 9.55222C11.6526 9.58022 11.6386 9.63155 11.6106 9.70622C11.5733 9.79955 11.508 9.95355 11.4146 10.1682C11.3306 10.3736 11.228 10.6022 11.1066 10.8542C10.9853 11.0969 10.8593 11.3302 10.7286 11.5542C10.598 11.7782 10.4673 11.9649 10.3366 12.1142C10.206 12.2636 10.0893 12.3382 9.98663 12.3382ZM12.1555 13.1922C12.0622 13.1922 11.9315 13.1176 11.7635 12.9682C11.6049 12.8282 11.4929 12.6416 11.4275 12.4082C11.3902 12.2496 11.3622 12.0349 11.3435 11.7642C11.3249 11.4936 11.3155 11.1902 11.3155 10.8542C11.3155 10.2942 11.3249 9.69222 11.3435 9.04822C11.3715 8.40422 11.3855 7.82555 11.3855 7.31222C11.3855 7.14422 11.3809 6.98555 11.3715 6.83622C11.3715 6.68689 11.3669 6.55622 11.3575 6.44422C11.3389 6.42555 11.2829 6.41155 11.1895 6.40222C11.1055 6.38355 11.0215 6.36955 10.9375 6.36022C10.8629 6.34155 10.8255 6.33222 10.8255 6.33222C10.8255 6.31355 10.8955 6.27155 11.0355 6.20622C11.1849 6.13155 11.3949 6.09422 11.6655 6.09422C11.9455 6.09422 12.1275 6.15489 12.2115 6.27622C12.3049 6.38822 12.3515 6.48622 12.3515 6.57022C12.3515 6.58889 12.3515 6.61222 12.3515 6.64022C12.3515 6.66822 12.3469 6.69155 12.3375 6.71022C12.2349 7.20489 12.1369 7.78822 12.0435 8.46022C11.9502 9.12289 11.9035 9.82289 11.9035 10.5602C11.9035 10.7376 11.9035 10.8962 11.9035 11.0362C11.9129 11.1669 11.9175 11.2836 11.9175 11.3862V11.5122C11.9735 10.9896 12.0715 10.4949 12.2115 10.0282C12.3515 9.55222 12.4915 9.03422 12.6315 8.47422C12.7435 7.98889 12.8369 7.61555 12.9115 7.35422C12.9955 7.08355 13.0795 6.89689 13.1635 6.79422C13.2569 6.68222 13.3642 6.62622 13.4855 6.62622C13.6535 6.62622 13.7702 6.69622 13.8355 6.83622C13.9009 6.97622 13.9429 7.16755 13.9615 7.41022C13.9802 7.65289 13.9989 7.93289 14.0175 8.25022C14.0362 8.55822 14.0829 8.88955 14.1575 9.24422C14.2695 9.77622 14.4002 10.1636 14.5495 10.4062C14.6989 10.6489 14.8249 10.7702 14.9275 10.7702C15.0489 10.7702 15.1702 10.6956 15.2915 10.5462C15.4129 10.3876 15.5295 10.2056 15.6415 10.0002C15.7535 9.79489 15.8515 9.61755 15.9355 9.46822C16.0289 9.30955 16.1035 9.23022 16.1595 9.23022C16.1875 9.23022 16.2015 9.25355 16.2015 9.30022C16.2015 9.33755 16.1875 9.39822 16.1595 9.48222C15.9262 10.0049 15.7302 10.4109 15.5715 10.7002C15.4129 10.9802 15.1935 11.1202 14.9135 11.1202C14.6989 11.1202 14.4842 11.0269 14.2695 10.8402C14.1575 10.7469 14.0455 10.5976 13.9335 10.3922C13.8309 10.1776 13.7329 9.94422 13.6395 9.69222C13.5462 9.44022 13.4575 9.20222 13.3735 8.97822C13.2989 8.74489 13.2335 8.55355 13.1775 8.40422C13.1215 8.25489 13.0842 8.18022 13.0655 8.18022C13.0469 8.18022 13.0142 8.19889 12.9675 8.23622C12.9302 8.27355 12.9022 8.33889 12.8835 8.43222C12.7249 9.01089 12.5942 9.58489 12.4915 10.1542C12.3982 10.7142 12.3282 11.2229 12.2815 11.6802C12.2349 12.1282 12.2115 12.4736 12.2115 12.7162C12.2115 12.8376 12.2162 12.9216 12.2255 12.9682C12.2442 13.0242 12.2535 13.0662 12.2535 13.0942C12.2535 13.1596 12.2209 13.1922 12.1555 13.1922ZM16.6807 11.9182C16.3447 11.9182 16.0974 11.8109 15.9387 11.5962C15.78 11.3722 15.7007 11.1016 15.7007 10.7842C15.7007 10.4482 15.78 10.0376 15.9387 9.55222C16.0974 9.06689 16.2654 8.60955 16.4427 8.18022C16.284 8.28289 16.1207 8.37622 15.9527 8.46022C15.7847 8.54422 15.6354 8.58622 15.5047 8.58622C15.4114 8.58622 15.3414 8.56289 15.2947 8.51622C15.2574 8.46955 15.2387 8.41822 15.2387 8.36222C15.2387 8.31555 15.2527 8.24555 15.2807 8.15222C15.3087 8.05889 15.3554 7.97022 15.4207 7.88622C15.4954 7.80222 15.584 7.76022 15.6867 7.76022C15.724 7.76022 15.7427 7.77422 15.7427 7.80222C15.7427 7.81155 15.738 7.82089 15.7287 7.83022C15.7287 7.83022 15.7287 7.83489 15.7287 7.84422C15.7194 7.86289 15.7147 7.88155 15.7147 7.90022C15.7147 7.93755 15.738 7.95622 15.7847 7.95622C15.8127 7.95622 15.8454 7.95155 15.8827 7.94222C15.9294 7.93289 15.976 7.91422 16.0227 7.88622C16.116 7.83955 16.2234 7.78355 16.3447 7.71822C16.466 7.64355 16.6014 7.56889 16.7507 7.49422L16.9607 7.07422C17.0167 6.97155 17.082 6.90155 17.1567 6.86422C17.2314 6.81755 17.3014 6.79422 17.3667 6.79422C17.4694 6.79422 17.558 6.81289 17.6327 6.85022C17.7167 6.87822 17.7914 6.91555 17.8567 6.96222C17.9594 6.91555 18.0667 6.87355 18.1787 6.83622C18.3 6.78955 18.4167 6.75689 18.5287 6.73822C18.8834 6.60755 19.252 6.50489 19.6347 6.43022C20.0174 6.34622 20.3954 6.30422 20.7687 6.30422C20.974 6.30422 21.184 6.33222 21.3987 6.38822C21.6134 6.44422 21.7207 6.53289 21.7207 6.65422C21.7207 6.69155 21.6834 6.71022 21.6087 6.71022C21.4594 6.71022 21.2867 6.69155 21.0907 6.65422C20.904 6.61689 20.7174 6.59822 20.5307 6.59822C20.2974 6.59822 20.0734 6.61222 19.8587 6.64022C19.644 6.65889 19.4434 6.69155 19.2567 6.73822C19.406 6.80355 19.5274 6.91555 19.6207 7.07422C19.7234 7.23289 19.7747 7.43355 19.7747 7.67622C19.7747 7.93755 19.7094 8.25022 19.5787 8.61422C19.4574 8.97822 19.2894 9.35155 19.0747 9.73422C18.8694 10.1169 18.6314 10.4762 18.3607 10.8122C18.09 11.1389 17.81 11.4049 17.5207 11.6102C17.2314 11.8156 16.9514 11.9182 16.6807 11.9182ZM16.8347 11.6242C17.0307 11.6242 17.2314 11.5356 17.4367 11.3582C17.6514 11.1809 17.8614 10.9569 18.0667 10.6862C18.272 10.4156 18.454 10.1356 18.6127 9.84622C18.6874 9.71555 18.7714 9.53822 18.8647 9.31422C18.9674 9.09022 19.0514 8.85222 19.1167 8.60022C19.1914 8.34822 19.2287 8.11955 19.2287 7.91422C19.2287 7.72755 19.1867 7.57355 19.1027 7.45222C19.028 7.32155 18.8834 7.25622 18.6687 7.25622C18.566 7.25622 18.4354 7.28422 18.2767 7.34022C18.118 7.39622 17.95 7.46155 17.7727 7.53622C17.7354 7.57355 17.698 7.61555 17.6607 7.66222C17.6327 7.69955 17.6094 7.74155 17.5907 7.78822C17.4134 8.11489 17.236 8.47889 17.0587 8.88022C16.8814 9.27222 16.732 9.65489 16.6107 10.0282C16.4987 10.4016 16.4427 10.7282 16.4427 11.0082C16.4427 11.4189 16.5734 11.6242 16.8347 11.6242ZM27.1478 13.1642C27.1478 12.9496 27.1198 12.6556 27.0638 12.2822C27.0078 11.9089 26.9144 11.5122 26.7838 11.0922C26.6531 10.6629 26.4758 10.2616 26.2518 9.88822C26.1211 9.67355 25.9298 9.50089 25.6778 9.37022C25.4351 9.23955 25.1644 9.14622 24.8658 9.09022C24.5764 9.02489 24.2918 8.99222 24.0118 8.99222H23.7738C23.7458 8.99222 23.7318 8.97355 23.7318 8.93622C23.7318 8.85222 23.7644 8.73555 23.8298 8.58622C23.8951 8.43689 23.9698 8.29689 24.0538 8.16622C24.1378 8.03555 24.2078 7.96555 24.2638 7.95622C24.7678 7.88155 25.2811 7.82089 25.8038 7.77422C26.3358 7.71822 26.8631 7.67155 27.3858 7.63422C27.4044 7.02755 27.4418 6.37422 27.4978 5.67422C27.5631 4.96489 27.6284 4.31155 27.6938 3.71422C27.1711 3.86355 26.6438 4.03155 26.1118 4.21822C25.5798 4.40489 25.0478 4.61022 24.5158 4.83422H24.5018C24.4644 4.83422 24.4458 4.78755 24.4458 4.69422C24.4458 4.59155 24.4644 4.46088 24.5018 4.30222C24.5484 4.13422 24.5998 3.98489 24.6558 3.85422C24.7211 3.71422 24.7818 3.63955 24.8378 3.63022C25.2858 3.49955 25.7571 3.37822 26.2518 3.26622C26.7558 3.14489 27.2644 3.03755 27.7778 2.94422L27.9178 2.03422C27.8524 2.14622 27.7871 2.26288 27.7218 2.38422C27.6658 2.50555 27.6284 2.56622 27.6098 2.56622C27.6004 2.56622 27.5958 2.55222 27.5958 2.52422C27.5958 2.49622 27.6004 2.44489 27.6098 2.37022C27.6191 2.29555 27.6378 2.19755 27.6658 2.07622C27.6844 1.97355 27.7218 1.82889 27.7778 1.64222C27.8431 1.45555 27.9131 1.26422 27.9878 1.06822C28.0624 0.872218 28.1418 0.708885 28.2258 0.578218C28.3098 0.438218 28.3844 0.368218 28.4498 0.368218C28.6084 0.368218 28.7624 0.442885 28.9118 0.592218C29.0704 0.732218 29.1498 0.862885 29.1498 0.984218V1.02622C29.0658 1.23155 28.9864 1.48822 28.9118 1.79622C28.8371 2.10422 28.7671 2.43555 28.7018 2.79022C29.2711 2.71555 29.8311 2.65489 30.3818 2.60822C30.9324 2.56155 31.4644 2.53822 31.9778 2.53822C32.2204 2.53822 32.4864 2.54755 32.7758 2.56622C33.0651 2.57555 33.3404 2.59888 33.6018 2.63622C33.8724 2.66422 34.0918 2.70155 34.2598 2.74822C34.4278 2.79489 34.5118 2.85555 34.5118 2.93022C34.5118 2.97689 34.4558 3.00022 34.3438 3.00022C34.0824 3.00022 33.8258 2.98155 33.5738 2.94422C33.3311 2.90689 33.0791 2.88822 32.8178 2.88822C31.5578 2.88822 30.1484 3.07955 28.5898 3.46222C28.5151 3.94755 28.4451 4.44689 28.3798 4.96022C28.3238 5.46422 28.2724 5.94489 28.2258 6.40222C28.1791 6.85955 28.1418 7.25622 28.1138 7.59222C28.4404 7.57355 28.7578 7.55955 29.0658 7.55022C29.3831 7.54089 29.6864 7.53622 29.9758 7.53622C30.3864 7.53622 30.7924 7.54555 31.1938 7.56422C31.5951 7.58289 31.9311 7.61555 32.2018 7.66222C32.4724 7.69955 32.6078 7.75555 32.6078 7.83022C32.6078 7.85822 32.5891 7.88622 32.5518 7.91422C32.5238 7.93289 32.4911 7.94222 32.4538 7.94222C32.2578 7.94222 32.0524 7.92822 31.8378 7.90022C31.6231 7.87222 31.4038 7.85822 31.1798 7.85822C30.7224 7.85822 30.2324 7.88622 29.7098 7.94222C29.1964 7.98889 28.6504 8.05889 28.0718 8.15222C28.0158 8.80555 27.9598 9.47755 27.9038 10.1682C27.8571 10.8496 27.8244 11.4376 27.8058 11.9322C27.7964 12.2216 27.7451 12.4736 27.6518 12.6882C27.5678 12.9029 27.3998 13.0616 27.1478 13.1642ZM27.3438 11.8202C27.3344 11.6429 27.3251 11.4562 27.3158 11.2602C27.3158 11.0549 27.3158 10.8402 27.3158 10.6162C27.3158 10.2616 27.3204 9.88822 27.3298 9.49622C27.3391 9.09489 27.3531 8.68422 27.3718 8.26422C27.0544 8.32022 26.7278 8.38089 26.3918 8.44622C26.0558 8.51155 25.7104 8.58155 25.3558 8.65622C25.6638 8.78689 25.9391 8.97355 26.1818 9.21622C26.4244 9.44955 26.6391 9.77155 26.8258 10.1822C27.0218 10.5929 27.1944 11.1389 27.3438 11.8202ZM35.8083 11.7642C35.7056 11.7642 35.5936 11.7269 35.4723 11.6522C35.351 11.5682 35.267 11.4796 35.2203 11.3862C35.2203 11.1716 35.2483 10.8776 35.3043 10.5042C35.3603 10.1309 35.421 9.74822 35.4863 9.35622C35.561 8.95489 35.6263 8.61422 35.6823 8.33422C35.5143 8.59555 35.323 8.88022 35.1083 9.18822C34.8936 9.49622 34.6743 9.78555 34.4503 10.0562C34.2263 10.3176 33.9976 10.5369 33.7643 10.7142C33.5403 10.8822 33.3303 10.9662 33.1343 10.9662C32.9383 10.9662 32.7843 10.9009 32.6723 10.7702C32.5603 10.6302 32.5043 10.4716 32.5043 10.2942C32.5043 10.2476 32.5136 10.1869 32.5323 10.1122C32.6163 9.68289 32.7796 9.28155 33.0223 8.90822C33.2743 8.52555 33.559 8.18955 33.8763 7.90022C34.203 7.61089 34.525 7.38222 34.8423 7.21422C35.1596 7.04622 35.4303 6.96222 35.6543 6.96222C35.8223 6.96222 35.981 6.99955 36.1303 7.07422C36.289 7.13955 36.4383 7.25155 36.5783 7.41022C36.6063 7.43822 36.6203 7.47089 36.6203 7.50822C36.6203 7.55489 36.5923 7.60155 36.5363 7.64822C36.471 7.87222 36.401 8.14289 36.3263 8.46022C36.261 8.76822 36.1956 9.09022 36.1303 9.42622C36.0743 9.75289 36.0276 10.0562 35.9903 10.3362C35.953 10.6162 35.9343 10.8309 35.9343 10.9802C35.9343 11.0829 35.9483 11.1342 35.9763 11.1342C36.051 11.1342 36.1443 11.0549 36.2563 10.8962C36.3776 10.7376 36.4943 10.5556 36.6063 10.3502C36.7183 10.1449 36.8163 9.96289 36.9003 9.80422C36.9936 9.64555 37.0496 9.56622 37.0683 9.56622C37.0963 9.56622 37.1103 9.60355 37.1103 9.67822C37.1103 9.83689 37.059 10.0329 36.9563 10.2662C36.8536 10.4996 36.7276 10.7329 36.5783 10.9662C36.4383 11.1902 36.2936 11.3816 36.1443 11.5402C36.0043 11.6896 35.8923 11.7642 35.8083 11.7642ZM33.2463 10.4482C33.377 10.4482 33.5403 10.3736 33.7363 10.2242C33.9416 10.0749 34.1516 9.88355 34.3663 9.65022C34.5903 9.41689 34.805 9.16955 35.0103 8.90822C35.225 8.64689 35.407 8.39955 35.5563 8.16622C35.715 7.92355 35.827 7.72755 35.8923 7.57822C35.7056 7.57822 35.491 7.64822 35.2483 7.78822C35.0056 7.91889 34.7583 8.09155 34.5063 8.30622C34.2543 8.51155 34.021 8.74022 33.8063 8.99222C33.5916 9.23489 33.419 9.47289 33.2883 9.70622C33.1576 9.93955 33.0923 10.1402 33.0923 10.3082C33.0923 10.4016 33.1436 10.4482 33.2463 10.4482ZM38.3235 13.1922C38.2302 13.1922 38.0995 13.1176 37.9315 12.9682C37.7728 12.8282 37.6608 12.6416 37.5955 12.4082C37.5582 12.2496 37.5302 12.0349 37.5115 11.7642C37.4928 11.4936 37.4835 11.1902 37.4835 10.8542C37.4835 10.2942 37.4928 9.69222 37.5115 9.04822C37.5395 8.40422 37.5535 7.82555 37.5535 7.31222C37.5535 7.14422 37.5488 6.98555 37.5395 6.83622C37.5395 6.68689 37.5348 6.55622 37.5255 6.44422C37.5068 6.42555 37.4508 6.41155 37.3575 6.40222C37.2735 6.38355 37.1895 6.36955 37.1055 6.36022C37.0308 6.34155 36.9935 6.33222 36.9935 6.33222C36.9935 6.31355 37.0635 6.27155 37.2035 6.20622C37.3528 6.13155 37.5628 6.09422 37.8335 6.09422C38.1135 6.09422 38.2955 6.15489 38.3795 6.27622C38.4728 6.38822 38.5195 6.48622 38.5195 6.57022C38.5195 6.58889 38.5195 6.61222 38.5195 6.64022C38.5195 6.66822 38.5148 6.69155 38.5055 6.71022C38.4028 7.20489 38.3048 7.78822 38.2115 8.46022C38.1182 9.12289 38.0715 9.82289 38.0715 10.5602C38.0715 10.7376 38.0715 10.8962 38.0715 11.0362C38.0808 11.1669 38.0855 11.2836 38.0855 11.3862V11.5122C38.1415 10.9896 38.2395 10.4949 38.3795 10.0282C38.5195 9.55222 38.6595 9.03422 38.7995 8.47422C38.9115 7.98889 39.0048 7.61555 39.0795 7.35422C39.1635 7.08355 39.2475 6.89689 39.3315 6.79422C39.4248 6.68222 39.5322 6.62622 39.6535 6.62622C39.8215 6.62622 39.9382 6.69622 40.0035 6.83622C40.0688 6.97622 40.1108 7.16755 40.1295 7.41022C40.1482 7.65289 40.1668 7.93289 40.1855 8.25022C40.2042 8.55822 40.2508 8.88955 40.3255 9.24422C40.4375 9.77622 40.5682 10.1636 40.7175 10.4062C40.8668 10.6489 40.9928 10.7702 41.0955 10.7702C41.2168 10.7702 41.3382 10.6956 41.4595 10.5462C41.5808 10.3876 41.6975 10.2056 41.8095 10.0002C41.9215 9.79489 42.0195 9.61755 42.1035 9.46822C42.1968 9.30955 42.2715 9.23022 42.3275 9.23022C42.3555 9.23022 42.3695 9.25355 42.3695 9.30022C42.3695 9.33755 42.3555 9.39822 42.3275 9.48222C42.0942 10.0049 41.8982 10.4109 41.7395 10.7002C41.5808 10.9802 41.3615 11.1202 41.0815 11.1202C40.8668 11.1202 40.6522 11.0269 40.4375 10.8402C40.3255 10.7469 40.2135 10.5976 40.1015 10.3922C39.9988 10.1776 39.9008 9.94422 39.8075 9.69222C39.7142 9.44022 39.6255 9.20222 39.5415 8.97822C39.4668 8.74489 39.4015 8.55355 39.3455 8.40422C39.2895 8.25489 39.2522 8.18022 39.2335 8.18022C39.2148 8.18022 39.1822 8.19889 39.1355 8.23622C39.0982 8.27355 39.0702 8.33889 39.0515 8.43222C38.8928 9.01089 38.7622 9.58489 38.6595 10.1542C38.5662 10.7142 38.4962 11.2229 38.4495 11.6802C38.4028 12.1282 38.3795 12.4736 38.3795 12.7162C38.3795 12.8376 38.3842 12.9216 38.3935 12.9682C38.4122 13.0242 38.4215 13.0662 38.4215 13.0942C38.4215 13.1596 38.3888 13.1922 38.3235 13.1922ZM43.1315 18.1622C42.9635 18.1622 42.8375 18.0642 42.7535 17.8682C42.9962 17.3456 43.2388 16.7856 43.4815 16.1882C43.7335 15.5909 43.9715 14.9796 44.1955 14.3542C44.4288 13.7289 44.6248 13.1176 44.7835 12.5202C44.5222 12.7256 44.2562 12.9496 43.9855 13.1922C43.7148 13.4349 43.4582 13.7149 43.2155 14.0322C42.9075 14.4149 42.6695 14.8676 42.5015 15.3902C42.3428 15.9222 42.2635 16.4122 42.2635 16.8602C42.2635 17.4016 42.3755 17.8076 42.5995 18.0782C42.6275 18.1062 42.6415 18.1249 42.6415 18.1342C42.6415 18.1342 42.6368 18.1342 42.6275 18.1342C42.6275 18.1436 42.6228 18.1482 42.6135 18.1482C42.5762 18.1482 42.5295 18.1342 42.4735 18.1062C42.4268 18.0782 42.3802 18.0362 42.3335 17.9802C42.1468 17.7842 42.0068 17.5462 41.9135 17.2662C41.8295 16.9956 41.7875 16.7016 41.7875 16.3842C41.7875 16.0202 41.8575 15.6516 41.9975 15.2782C42.1375 14.9049 42.3428 14.5549 42.6135 14.2282C43.0055 13.7522 43.3928 13.3556 43.7755 13.0382C44.1582 12.7302 44.5268 12.4269 44.8815 12.1282C45.0215 11.5776 45.1195 11.0409 45.1755 10.5182C45.2222 10.1076 45.2502 9.74822 45.2595 9.44022C45.2782 9.13222 45.2875 8.86155 45.2875 8.62822C45.2875 8.47889 45.2828 8.34355 45.2735 8.22222C45.2642 8.10089 45.2548 7.98889 45.2455 7.88622L45.1335 7.91422C44.9748 8.16622 44.7835 8.46489 44.5595 8.81022C44.3355 9.15555 44.0928 9.49622 43.8315 9.83222C43.5702 10.1589 43.3088 10.4342 43.0475 10.6582C42.7862 10.8822 42.5388 10.9942 42.3055 10.9942C42.1095 10.9942 41.9555 10.9289 41.8435 10.7982C41.7315 10.6582 41.6755 10.4996 41.6755 10.3222C41.6755 10.2756 41.6848 10.2149 41.7035 10.1402C41.7875 9.71089 41.9508 9.30955 42.1935 8.93622C42.4455 8.55355 42.7302 8.21755 43.0475 7.92822C43.3742 7.63889 43.6962 7.41022 44.0135 7.24222C44.3308 7.07422 44.6015 6.99022 44.8255 6.99022C44.9935 6.99022 45.1522 7.02755 45.3015 7.10222C45.4602 7.16755 45.6095 7.27955 45.7495 7.43822C45.7775 7.46622 45.7915 7.49889 45.7915 7.53622C45.7915 7.62022 45.7028 7.69955 45.5255 7.77422C45.6002 7.91422 45.6468 8.09622 45.6655 8.32022C45.6935 8.53489 45.7075 8.76355 45.7075 9.00622C45.7075 9.40755 45.6842 9.82755 45.6375 10.2662C45.5908 10.7049 45.5302 11.1482 45.4555 11.5962C45.6982 11.3536 45.9315 11.0782 46.1555 10.7702C46.3795 10.4622 46.5942 10.0936 46.7995 9.66422C46.8555 9.55222 46.9068 9.49622 46.9535 9.49622C46.9908 9.49622 47.0095 9.52889 47.0095 9.59422C47.0095 9.69689 46.9628 9.84622 46.8695 10.0422C46.7855 10.2382 46.6828 10.4389 46.5615 10.6442C46.4402 10.8496 46.3188 11.0269 46.1975 11.1762C46.0762 11.3256 45.9455 11.4749 45.8055 11.6242C45.6748 11.7642 45.5348 11.8996 45.3855 12.0302C45.2642 12.6742 45.1242 13.3042 44.9655 13.9202C44.8068 14.5362 44.6482 15.1009 44.4895 15.6142C44.3308 16.1276 44.1862 16.5569 44.0555 16.9022C43.9342 17.2569 43.8455 17.4902 43.7895 17.6022C43.6775 17.8076 43.5655 17.9522 43.4535 18.0362C43.3415 18.1202 43.2342 18.1622 43.1315 18.1622ZM42.4875 10.4202C42.6182 10.4202 42.7815 10.3456 42.9775 10.1962C43.1735 10.0469 43.3788 9.86022 43.5935 9.63622C43.8082 9.40289 44.0135 9.15555 44.2095 8.89422C44.4148 8.63289 44.5922 8.39022 44.7415 8.16622C44.9002 7.93289 45.0075 7.74622 45.0635 7.60622C44.8675 7.60622 44.6528 7.67622 44.4195 7.81622C44.1955 7.94689 43.9715 8.11955 43.7475 8.33422C43.5235 8.54889 43.3135 8.77289 43.1175 9.00622C42.9215 9.23955 42.7582 9.45889 42.6275 9.66422C42.5062 9.86955 42.4268 10.0282 42.3895 10.1402C42.3615 10.2056 42.3475 10.2569 42.3475 10.2942C42.3475 10.3782 42.3942 10.4202 42.4875 10.4202Z" fill="gray"/>
</svg>
