<svg width="392" height="495" viewBox="0 0 392 495" fill="none" xmlns="http://www.w3.org/2000/svg">
<path d="M108.499 102.37L105.59 81.0333C105.392 79.5795 105.516 78.0998 105.953 76.6993L115.132 47.3273C115.694 45.5319 116.75 43.9312 118.179 42.7089L147.35 17.7732C148.545 16.7516 149.964 16.0262 151.491 15.6559L163.926 12.6413C165.818 12.1828 167.535 11.1822 168.866 9.76225L171.192 7.2813C173.479 4.84208 176.833 3.70711 180.131 4.25677L188.455 5.64409C190.064 5.91223 191.714 5.78276 193.261 5.26698L203.741 1.77365C205.827 1.07827 208.085 1.08991 210.163 1.80675L222.476 6.0524L234.658 11.2732C236.484 12.0557 238.035 13.3643 239.114 15.0321L248.106 28.9279C248.848 30.0751 249.817 31.058 250.954 31.8159L262.054 39.2158C263.127 39.931 264.051 40.8469 264.776 41.9132L272.775 53.6762L281.488 66.974C282.441 68.4289 282.998 70.1072 283.104 71.8432L284.463 94.0374C284.519 94.9508 284.449 95.8675 284.256 96.7618L280.267 115.213L276.521 130.195L273.845 141.432L272.911 159.674C272.794 161.965 271.892 164.147 270.357 165.852L269.248 167.084L267.148 169.418C266.237 170.43 265.542 171.618 265.107 172.908L260.738 185.845L254.743 199.77L248.36 213.696L244.202 220.949L240.943 226.633C240.362 227.647 239.444 228.425 238.35 228.833L238.743 239.079L247.812 246.729C248.39 247.216 248.911 247.767 249.364 248.372L255.526 256.588C256.082 257.329 256.532 258.144 256.864 259.009L261.718 271.673L262.526 273.917C263.356 276.221 265.001 278.14 267.152 279.311L289.887 291.694L306.821 300.491C307.48 300.833 308.175 301.101 308.894 301.289L319.991 304.2C321.325 304.55 322.572 305.172 323.654 306.027L340.092 319.015C340.609 319.424 341.166 319.781 341.754 320.08L353.674 326.148L358.995 328.449C361.124 329.37 362.866 331.001 363.925 333.065L371.126 347.108C371.441 347.722 371.691 348.367 371.874 349.032L377.652 370.147L383.705 385.046C385.257 391.099 388.361 403.577 388.361 405.067C388.361 406.448 389.428 419.273 390.079 426.886C390.174 428.01 390.08 429.138 389.799 430.23L389.127 432.846C388.486 435.337 386.909 437.486 384.725 438.846L357.323 455.896C356.909 456.154 356.476 456.381 356.028 456.575L300.281 480.823C299.716 481.069 299.13 481.262 298.529 481.4L271.03 487.711L233.268 493.426L155.133 490.555C154.527 490.532 153.923 490.455 153.331 490.323L136.488 486.58L107.485 480.135C106.698 479.96 105.935 479.691 105.212 479.332L47.7292 450.828L21.9561 437.942C21.0716 437.5 20.2576 436.929 19.5407 436.248L4.52861 421.986C2.45013 420.012 1.31907 417.24 1.42262 414.375L2.71189 378.704L4.83531 365.537C5.03126 364.322 5.44986 363.153 6.07006 362.09L14.2781 348.02C14.9508 346.866 15.8476 345.86 16.9157 345.059L27.8089 336.888C28.5004 336.37 29.1218 335.764 29.6574 335.085L34.9095 328.433C35.7037 327.427 36.6838 326.583 37.7966 325.947L48.5024 319.83C49.2741 319.389 49.9835 318.847 50.612 318.218L70.4792 298.351L85.8017 281.171C86.2352 280.685 86.7151 280.243 87.2346 279.85L108.181 264.017L112.878 257.095L122.272 238.307L130.741 219.891C132.032 217.032 134.747 215.076 137.867 214.757L139.442 214.596C139.898 212.218 140.444 209.645 140.919 207.512C141.206 206.221 141.247 204.887 141.025 203.584L137.636 183.675L135.298 169.249C133.647 171.382 130.856 172.281 128.271 171.514L120.318 169.153C118.765 168.692 117.347 167.86 116.186 166.729L110.828 161.508C109.662 160.372 108.791 158.969 108.29 157.42L104.683 146.253C104.402 145.384 104.242 144.481 104.206 143.568L103.575 127.371L103.575 113.12C103.575 111.247 104.101 109.412 105.094 107.823L108.499 102.37Z" fill="#E5D7B6" fill-opacity="0.2"/>
<path d="M108.499 102.37L119.698 106.37C122.126 107.237 124.126 109.009 125.279 111.315L132.578 125.915C134.897 129.482 139.962 137.045 141.674 138.757V138.757C144.902 141.984 149.229 136.577 149.317 132.014L149.702 112.002L152.449 89.1042C152.738 86.7017 154.233 84.613 156.414 83.566L158.199 82.7094C161.994 80.8877 162.645 75.7567 159.425 73.045V73.045C157.465 71.3947 156.821 68.654 157.839 66.3032L168.341 42.0683C169.423 39.5703 171.477 37.6216 174.029 36.6722L176.196 35.8658C177.574 35.3529 179.048 35.1503 180.514 35.2724L186.626 35.7818H195.658L203.282 36.4749C204.877 36.6199 206.433 35.9282 207.394 34.6473V34.6473C208.552 33.1021 210.551 32.4417 212.402 32.9921L217.891 34.6238L227.21 38.538C228.695 39.1616 230.308 39.4174 231.913 39.2837L238.603 38.7261C239.913 38.617 241.23 38.7669 242.482 39.1673L254.433 42.9918C256.706 43.7192 258.644 45.2357 259.897 47.2672L265.893 56.9908C266.313 57.6708 266.649 58.3986 266.895 59.1586L271.369 72.972C271.592 73.6619 271.74 74.3741 271.809 75.096L274.276 100.75C274.345 101.471 274.336 102.198 274.248 102.917L271.852 122.567C271.754 123.369 271.754 124.179 271.851 124.981L273.845 141.432M108.499 102.37L105.59 81.0333C105.392 79.5795 105.516 78.0998 105.953 76.6994L115.132 47.3273C115.694 45.5319 116.75 43.9312 118.179 42.7089L147.35 17.7732C148.545 16.7516 149.964 16.0262 151.491 15.6559L163.926 12.6413C165.818 12.1828 167.535 11.1822 168.866 9.76225L171.192 7.2813C173.478 4.84208 176.833 3.70711 180.131 4.25677L188.455 5.64409C190.064 5.91223 191.714 5.78276 193.261 5.26698L203.741 1.77365C205.827 1.07827 208.085 1.08991 210.163 1.80675L222.476 6.0524L234.658 11.2732C236.483 12.0557 238.035 13.3643 239.114 15.0321L248.106 28.9279C248.848 30.0751 249.817 31.058 250.954 31.8159L262.054 39.2158C263.127 39.931 264.051 40.8469 264.776 41.9132L272.775 53.6762L281.488 66.974C282.441 68.4289 282.998 70.1072 283.104 71.8432L284.463 94.0374C284.519 94.9508 284.449 95.8675 284.256 96.7618L280.267 115.213L276.521 130.195L273.845 141.432M108.499 102.37L105.094 107.823C104.101 109.412 103.575 111.247 103.575 113.12L103.575 127.371L104.206 143.568C104.242 144.481 104.402 145.384 104.683 146.253L108.29 157.42C108.791 158.969 109.662 160.372 110.828 161.508L116.186 166.729C117.347 167.86 118.765 168.692 120.318 169.153L128.271 171.514C130.856 172.281 133.647 171.382 135.298 169.249V169.249M273.845 141.432L272.911 159.674C272.794 161.965 271.892 164.147 270.357 165.852L269.248 167.084M273.845 141.432L269.758 156.626C269.548 157.406 269.433 158.209 269.416 159.016L269.248 167.084M263.922 118.164V118.164C266.341 118.648 268.514 116.602 268.177 114.158L268.119 113.734C267.966 112.622 267.339 111.631 266.401 111.014L262.424 108.401C260.365 107.047 257.877 106.502 255.44 106.87L246.123 108.276L243.14 108.84C239.686 109.494 237.349 112.739 237.824 116.222V116.222C238.205 119.012 240.312 121.254 243.073 121.806L243.404 121.872M263.922 118.164L256.115 114.793C254.133 113.937 251.911 113.811 249.844 114.437V114.437C246.77 115.369 244.41 117.848 243.631 120.965L243.404 121.872M263.922 118.164V118.164C262.704 120.905 260.079 122.754 257.089 122.978L253.282 123.264C252.468 123.325 251.649 123.286 250.845 123.148L243.404 121.872M208.474 116.637V116.637C210.391 118.129 210.869 113.82 209.627 111.733L208.984 110.653C208.004 109.006 206.498 107.736 204.709 107.048L200.943 105.6C199.518 105.052 197.985 104.837 196.464 104.973L191.301 105.434C190.054 105.545 188.839 105.89 187.718 106.45L182.86 108.879C181.505 109.557 180.522 110.805 180.221 112.29C180.032 113.226 179.841 114.23 179.682 115.169C179.362 117.059 180.682 117.553 181.973 116.136V116.136M208.474 116.637C207.761 116.083 206.077 114.409 204.439 112.729C202.516 110.758 199.89 109.615 197.136 109.615H193.11C191.136 109.615 189.206 110.2 187.563 111.295L185.583 112.615C184.907 113.066 184.288 113.597 183.74 114.198L181.973 116.136M208.474 116.637L206.585 117.921C205.086 118.941 203.338 119.534 201.527 119.636L195.433 119.981L189.666 119.501C188.179 119.377 186.738 118.921 185.45 118.168L181.973 116.136M209.567 122.791L197.069 140.211M197.069 140.211L185.524 152.117C185.143 152.51 184.808 152.946 184.526 153.415L181.975 157.667C179.685 161.483 173.935 160.678 172.782 156.38V156.38C172.152 154.033 173.286 151.57 175.479 150.523L197.069 140.211ZM223.958 101.583L209.939 95.2407C208.694 94.6775 207.347 94.3755 205.981 94.3531L187.832 94.0556C185.949 94.0247 184.096 94.5262 182.485 95.5022L175.197 99.9193C173.412 101.001 172.011 102.614 171.189 104.532L166.772 114.838M236.077 126.578L239.605 139.28C239.777 139.899 240.008 140.501 240.296 141.076L243.214 146.913C243.753 147.991 244.093 149.157 244.217 150.356L244.787 155.869C245.002 157.947 243.613 159.853 241.568 160.283V160.283M227.745 162.177L229.356 163.495C230.683 164.581 232.67 164.193 233.491 162.688L233.887 161.962C234.072 161.622 234.413 161.396 234.798 161.358V161.358M227.745 162.177L227.366 159.147M227.745 162.177L222.883 164.869L221.351 165.58C219.749 166.322 217.907 166.349 216.283 165.653V165.653C214.415 164.853 213.056 163.19 212.642 161.2L211.722 156.77C211.426 155.157 210.892 151.811 211.129 151.337V151.337C211.565 150.467 210.142 150.026 209.693 150.889L208.035 154.073C207.991 154.159 207.939 154.24 207.88 154.316L202.931 160.721L199.733 164.424C199.363 164.852 198.958 165.248 198.522 165.607L195.819 167.833M227.366 159.147V159.147C227.15 157.416 225.678 156.117 223.934 156.117H221.364C220.851 156.117 220.368 156.359 220.06 156.769V156.769C219.288 157.799 219.958 159.275 221.241 159.372L222.093 159.437L227.366 159.147ZM234.798 161.358L237.97 161.041L241.568 160.283M234.798 161.358L235.624 163.34C235.864 163.915 236.292 164.391 236.839 164.689V164.689C238.378 165.529 240.298 164.725 240.78 163.039L241.568 160.283M269.248 167.084L267.148 169.418C266.237 170.43 265.542 171.618 265.107 172.908L260.738 185.845L254.743 199.77L248.36 213.696L244.202 220.949M247.743 196.328L244.749 193.699M250.67 195.344L252.676 181.974C252.792 181.197 252.817 180.408 252.749 179.624L252.586 177.75C252.176 173.034 248.515 169.252 243.815 168.688L240.643 168.307C240.058 168.237 239.469 168.218 238.881 168.252L222.8 169.171L202.787 171.699C200.825 171.947 198.98 172.771 197.486 174.068L189.564 180.943C187.86 182.422 186.706 184.434 186.29 186.652L184.066 198.513C184.039 198.662 184.032 198.814 184.048 198.964L184.103 199.51C184.277 201.209 186.706 201.332 187.05 199.66V199.66C187.105 199.391 187.234 199.143 187.421 198.942L192.76 193.222M192.76 193.222V193.222C194.401 191.463 196.646 190.389 199.045 190.215L211.378 189.318L227.443 189.902L238.457 190.801C240.599 190.976 242.627 191.836 244.242 193.254L244.749 193.699M192.76 193.222L208.502 195.102L224.739 195.587L236.751 196.187C238.411 196.27 240.065 195.939 241.564 195.222L244.749 193.699M195.948 228.34L195.366 228.008L184.302 221.841C183.814 221.569 183.349 221.256 182.913 220.906L167.791 208.774C167.222 208.317 166.705 207.8 166.248 207.231L152.816 190.487L144.907 181.232C144.126 180.317 143.516 179.27 143.107 178.139L141.004 172.33L139.867 169.794C139.038 167.946 136.538 167.648 135.298 169.249V169.249M195.948 228.34L202.67 232.182C204.097 232.997 205.702 233.448 207.345 233.495L217.424 233.783C218.061 233.801 218.698 233.758 219.327 233.655L229.219 232.034C229.858 231.929 230.485 231.762 231.092 231.536L238.35 228.833M195.948 228.34L197.743 221.667C198.278 219.678 199.415 217.902 200.998 216.583L204.046 214.043C205.223 213.062 206.159 211.823 206.782 210.422L208.519 206.513C209.872 203.47 212.65 201.3 215.929 200.725L222.834 199.514C223.935 199.321 225.06 199.313 226.163 199.492L230.863 200.254C232.567 200.531 234.169 201.248 235.511 202.334V202.334C237.465 203.916 238.745 206.182 239.091 208.672L239.485 211.51C239.669 212.837 240.118 214.113 240.805 215.263L244.202 220.949M244.202 220.949L240.943 226.633C240.362 227.647 239.444 228.425 238.35 228.833V228.833M121.481 121.298C121.622 120.455 119.631 117.24 117.893 114.67C116.985 113.326 115.436 112.577 113.816 112.639V112.639C111.777 112.718 110.008 114.068 109.393 116.013L108.171 119.884C107.827 120.973 107.672 122.112 107.713 123.252L107.882 127.983M135.298 169.249L137.636 183.675L141.025 203.584C141.247 204.887 141.206 206.221 140.919 207.512C140.444 209.645 139.898 212.218 139.442 214.596M158.356 254.446L145.827 241.022C145.489 240.66 145.178 240.273 144.897 239.865L139.237 231.631C138.22 230.153 137.915 228.31 138.263 226.55V226.55M158.356 254.446L170.694 267.948L185.826 288.435C189.395 292.392 196.535 300.54 196.535 301.472C196.535 302.403 204.139 312.413 207.942 317.302L208.153 317.543C212.768 322.818 221.237 321.831 224.517 315.637L225.367 314.031C225.853 313.113 226.193 312.125 226.375 311.103L227.963 302.17M158.356 254.446L167.904 257.918C168.366 258.086 168.816 258.289 169.249 258.523L190.947 270.276L213.899 281.532C214.735 281.941 215.509 282.466 216.199 283.089L222.375 288.668M227.963 302.17L222.375 288.668M227.963 302.17L233.783 314.275L241.85 335.564C242.058 336.114 242.315 336.646 242.618 337.151L254.967 357.809L264.512 375.734L273.824 397.85L279.644 412.284M222.375 288.668L229.592 279.821L235.21 272.272C236.404 270.668 237.089 268.743 237.178 266.746L237.418 261.341C237.473 260.111 236.831 258.954 235.757 258.35V258.35C234.57 257.683 233.922 256.347 234.132 255.001L234.337 253.694C234.697 251.39 236.555 249.611 238.874 249.354L239.137 249.325M239.137 249.325L243.095 263.991L247.052 279.821C247.673 282.692 248.728 288.574 247.983 289.133V289.133C245.035 291.344 244.101 295.363 246.175 298.409L249.339 303.056C249.676 303.551 249.968 304.075 250.211 304.622L258.226 322.656L264.745 337.09L272.427 362.698C273.979 367.819 277.037 378.295 276.85 379.226C276.681 380.075 279.334 391.558 281.039 398.698C281.346 399.984 281.399 401.317 281.19 402.623L279.644 412.284M239.137 249.325L238.743 239.079M279.644 412.284L281.971 426.671C282.126 427.628 282.141 428.603 282.015 429.564L277.549 463.733L271.03 487.711M238.35 228.833L238.743 239.079M238.743 239.079L247.812 246.729C248.39 247.216 248.911 247.767 249.364 248.372L255.526 256.588C256.082 257.329 256.532 258.144 256.864 259.009L261.718 271.673L262.526 273.917C263.356 276.221 265.001 278.14 267.152 279.311L289.887 291.694L306.821 300.491C307.48 300.833 308.175 301.101 308.894 301.289L319.991 304.2C321.325 304.55 322.572 305.172 323.654 306.027L340.092 319.015C340.609 319.424 341.166 319.781 341.754 320.08L353.674 326.148L358.995 328.449C361.124 329.37 362.866 331.001 363.925 333.065L371.126 347.108C371.441 347.722 371.691 348.367 371.874 349.032L377.652 370.147L383.705 385.046C385.257 391.099 388.361 403.577 388.361 405.067C388.361 406.448 389.428 419.273 390.079 426.886C390.174 428.01 390.08 429.138 389.799 430.23L389.127 432.846C388.486 435.337 386.909 437.486 384.725 438.846L357.323 455.896C356.909 456.154 356.476 456.381 356.028 456.575L300.281 480.823C299.716 481.069 299.13 481.262 298.529 481.4L271.03 487.711M271.03 487.711L233.268 493.426M139.442 214.596C138.751 218.202 138.27 221.358 138.568 221.854C138.934 222.465 138.653 224.577 138.263 226.55M139.442 214.596L137.867 214.757C134.747 215.076 132.032 217.032 130.741 219.891V219.891M130.741 219.891L134.326 222.356C135.11 222.895 135.813 223.543 136.414 224.28L138.263 226.55M130.741 219.891L122.272 238.307L112.878 257.095L108.181 264.017M108.181 264.017L122.025 292.94L139.082 324.089L147.945 343.39C149.356 346.462 152.223 348.614 155.567 349.109L176.905 352.27V352.27C182.301 352.73 185.377 358.654 182.648 363.332L179.872 368.092L173.77 378.713C173.392 379.37 173.158 380.101 173.082 380.855V380.855C172.753 384.146 175.446 386.951 178.747 386.757L185.122 386.382C189.953 386.097 194.294 389.314 195.43 394.018L196.929 400.229L201.098 420.853C201.444 422.565 201.335 424.338 200.783 425.996L194.497 444.852C193.143 448.915 194.527 453.39 197.938 455.979L212.127 466.749C212.542 467.064 212.932 467.411 213.293 467.787L229.235 484.384C230.263 485.454 231.04 486.741 231.509 488.149L233.268 493.426M108.181 264.017L87.2346 279.85C86.7151 280.243 86.2352 280.685 85.8017 281.171L70.4792 298.351L50.612 318.218C49.9835 318.847 49.2741 319.389 48.5024 319.83L37.7966 325.947C36.6838 326.583 35.7037 327.427 34.9095 328.433L29.6574 335.085C29.1218 335.764 28.5004 336.37 27.8089 336.888L16.9157 345.059C15.8476 345.86 14.9508 346.866 14.2781 348.02L6.07006 362.09C5.44986 363.153 5.03126 364.322 4.83531 365.537L2.71189 378.704L1.42262 414.375C1.31907 417.24 2.45013 420.012 4.52861 421.986L19.5407 436.248C20.2576 436.929 21.0716 437.5 21.9561 437.942L47.7292 450.828L105.212 479.332C105.935 479.691 106.698 479.96 107.485 480.135L136.488 486.58M233.268 493.426L155.133 490.555C154.527 490.532 153.923 490.455 153.331 490.323L136.488 486.58M94.1986 391.29L107.268 417.429C108.366 419.038 109.717 421.053 111.155 423.242M136.488 486.58C133.455 477.721 128.37 462.651 125.172 452.59M111.155 423.242C116.06 430.708 121.974 440.204 122.274 442.6C122.404 443.645 123.544 447.468 125.172 452.59M111.155 423.242L82.2398 415.313C81.5017 415.111 80.7894 414.824 80.1166 414.459L52.5697 399.519M125.172 452.59L103.88 445.504L76.2885 431.95M128.567 372.895L153.235 397.564C153.57 397.898 153.88 398.256 154.164 398.635L175.52 427.11L184.233 442.115M245.635 131.025L251.469 142.044C251.834 142.734 252.117 143.464 252.313 144.219L257.338 163.65M117.102 146.884V146.884C119.244 148.657 122.41 146.683 121.761 143.979L121.507 142.917C121.21 141.682 121.659 140.387 122.656 139.599L124.353 138.259C125.021 137.732 125.442 136.953 125.517 136.105V136.105C125.746 133.506 122.85 131.81 120.695 133.281L117.663 135.353C116.993 135.81 116.216 136.086 115.408 136.153L114.957 136.191C112.782 136.372 111.109 138.19 111.109 140.373V140.373C111.109 141.712 111.748 142.971 112.83 143.762L117.102 146.884ZM196.526 115.696V115.696C196.389 116.483 195.714 117.063 194.915 117.08L193.412 117.112C192.741 117.127 192.144 116.692 191.951 116.05V116.05C191.709 115.243 192.183 114.396 192.997 114.18L194.45 113.794C195.629 113.481 196.735 114.494 196.526 115.696ZM252.877 119.146L252.919 119.923C252.959 120.682 252.355 121.32 251.594 121.32V121.32C250.921 121.32 250.355 120.817 250.277 120.149L250.186 119.376C250.098 118.634 250.63 117.962 251.372 117.876V117.876C252.146 117.786 252.835 118.367 252.877 119.146Z" stroke="#B1A68A" stroke-width="2" stroke-linecap="round" stroke-linejoin="round"/>
</svg>
