<svg width="9994" height="3827" viewBox="0 0 9994 3827" fill="none" xmlns="http://www.w3.org/2000/svg">
<path d="M2623.77 5.10742H7162.91C7193.28 5.10742 7217.91 29.7318 7217.91 60.1074V3756.81C7217.91 3787.19 7193.28 3811.81 7162.91 3811.81H2623.77C2593.4 3811.81 2568.77 3787.19 2568.77 3756.81V60.1074C2568.77 29.7318 2593.4 5.10742 2623.77 5.10742Z" stroke="#7481A1" stroke-width="10"/>
<path d="M5161.03 2742.13L5156.21 2743.46C5156.46 2744.38 5156.97 2745.2 5157.67 2745.84L5161.03 2742.13ZM5201.34 2612.45L5203.24 2617.07L5203.24 2617.07L5201.34 2612.45ZM5534.31 2689.56L5538.41 2686.69L5538.41 2686.69L5534.31 2689.56ZM5642.97 2859.55L5638.74 2862.22C5638.82 2862.35 5638.91 2862.48 5639.01 2862.6L5642.97 2859.55ZM5674.51 2943.67L5669.53 2943.22C5669.4 2944.69 5669.93 2946.16 5670.98 2947.2L5674.51 2943.67ZM5732.35 3099.64L5727.56 3098.2C5727.15 3099.55 5727.33 3101.02 5728.07 3102.23L5732.35 3099.64ZM5753.38 3220.57L5748.97 3218.2C5748.36 3219.33 5748.21 3220.65 5748.56 3221.89L5753.38 3220.57ZM5730.59 3427.36L5728.59 3422.78C5726.31 3423.78 5725.11 3426.29 5725.77 3428.69C5726.43 3431.08 5728.75 3432.63 5731.21 3432.32L5730.59 3427.36ZM6057.24 3664.56L6052.98 3667.19C6053.81 3668.53 6055.21 3669.4 6056.77 3669.54L6057.24 3664.56ZM6107.96 3668.57L6107.62 3673.56L6107.62 3673.56L6107.96 3668.57ZM6287.74 3566.54L6287.87 3571.53C6289.57 3571.49 6291.12 3570.59 6292 3569.14L6287.74 3566.54ZM6710.54 3567.37L6711.63 3562.49C6709.48 3562.02 6707.28 3563 6706.19 3564.91L6710.54 3567.37ZM6742.69 3619.61L6740.04 3623.85L6740.04 3623.85L6742.69 3619.61ZM5603.55 2797.34L5599.33 2800.02L5599.33 2800.02L5603.55 2797.34ZM5605.58 2776.36L5600.74 2775.11L5600.74 2775.11L5605.58 2776.36ZM5721.11 3010.75L5716.57 3012.86L5716.57 3012.86L5721.11 3010.75ZM5327.42 2409.91L5323.7 2406.57L5323.7 2406.57L5327.42 2409.91ZM5636.04 2084.79L5638.27 2089.26C5639.23 2088.79 5640 2088.02 5640.49 2087.07L5636.04 2084.79ZM5756.51 1916.46L5754.72 1911.79L5754.72 1911.79L5756.51 1916.46ZM5972.71 1843.84L5973.04 1848.83C5973.38 1848.8 5973.72 1848.75 5974.05 1848.66L5972.71 1843.84ZM6231.82 1784.43L6231.98 1789.42L6231.98 1789.42L6231.82 1784.43ZM6791.62 1787.23L6795.82 1784.51C6795.5 1784.02 6795.11 1783.6 6794.65 1783.25L6791.62 1787.23ZM6822.04 1835.19L6817.45 1837.16L6817.45 1837.16L6822.04 1835.19ZM6824.17 1842.86L6824.17 1837.86L6824.17 1842.86ZM6840.79 1841.58L6844.64 1838.39C6843.58 1837.11 6841.96 1836.45 6840.31 1836.61L6840.79 1841.58ZM6961.59 1988.4L6965.36 1985.12C6965.17 1984.9 6964.95 1984.7 6964.73 1984.51L6961.59 1988.4ZM5978.88 2305.3L5983.61 2306.92C5983.79 2306.4 5983.88 2305.85 5983.88 2305.3L5978.88 2305.3ZM5997.97 2276.66L5997.97 2281.66L5997.97 2276.66ZM6257.61 2320.57L6255.95 2315.86L6255.95 2315.86L6257.61 2320.57ZM6305.34 2320.57L6302.34 2324.57C6303.27 2325.26 6304.4 2325.62 6305.55 2325.57L6305.34 2320.57ZM6434.65 2298.06L6433.03 2293.33L6433.03 2293.33L6434.65 2298.06ZM6458.07 2337.75L6463.07 2337.75C6463.07 2335.17 6461.1 2333.01 6458.52 2332.77L6458.07 2337.75ZM6635.62 2650.85L6639.99 2648.42C6639.72 2647.92 6639.36 2647.48 6638.93 2647.1L6635.62 2650.85ZM6916.27 2834.13L6916.43 2839.13C6917.31 2839.1 6918.17 2838.84 6918.92 2838.37L6916.27 2834.13ZM6660.44 2965.86L6665.13 2964.13L6665.13 2964.13L6660.44 2965.86ZM6978.1 3302.68L6978.31 3307.68L6978.1 3302.68ZM6237.08 2490.26L6232.77 2487.73C6231.78 2489.42 6231.86 2491.53 6232.98 2493.13L6237.08 2490.26ZM6263.39 2427.57L6268.03 2429.44L6268.03 2429.44L6263.39 2427.57ZM6139 2447.83L6142.12 2451.73L6142.12 2451.73L6139 2447.83ZM5657.53 2601.02L5654.41 2604.93L5654.41 2604.93L5657.53 2601.02ZM5614.06 2590.69L5616.25 2595.19L5616.25 2595.19L5614.06 2590.69ZM5659.42 2041.64L5663.77 2044.12L5663.77 2044.12L5659.42 2041.64ZM5375.42 2193.86L5375.06 2198.85C5377.34 2199.01 5379.44 2197.61 5380.16 2195.44L5375.42 2193.86ZM5331.13 3027.64L5331.31 3022.64L5331.13 3027.64ZM5381.38 2983.35L5385.69 2985.88C5385.9 2985.53 5386.06 2985.16 5386.17 2984.77L5381.38 2983.35ZM5383.93 2737.22L5387.13 2733.38C5386.83 2733.12 5386.49 2732.91 5386.13 2732.73L5383.93 2737.22ZM5373.31 2995.6L5377.36 2998.54L5377.36 2998.54L5373.31 2995.6ZM5317.09 2439.4L5322.02 2440.19L5322.02 2440.19L5317.09 2439.4ZM4803.14 2373.88L4799.34 2377.14C4799.62 2377.45 4799.92 2377.73 4800.27 2377.97L4803.14 2373.88ZM5173.07 2634.03L5177.05 2637.05L5177.05 2637.05L5173.07 2634.03ZM4832.55 2254.09L4836.54 2257.1L4836.54 2257.1L4832.55 2254.09ZM4808.18 2292.8L4812.66 2295.02L4808.18 2292.8ZM4585.39 2074.66L4588.12 2070.48C4586.11 2069.16 4583.46 2069.46 4581.79 2071.19L4585.39 2074.66ZM4561.2 2099.75L4557.6 2096.28C4556.58 2097.34 4556.08 2098.79 4556.23 2100.26C4556.38 2101.72 4557.17 2103.04 4558.38 2103.87L4561.2 2099.75ZM4666.65 2171.85L4670.33 2175.24L4666.65 2171.85ZM4528.06 2043.31L4530.98 2039.25C4528.94 2037.78 4526.12 2038.05 4524.41 2039.89L4528.06 2043.31ZM4515.68 2056.53L4512.03 2053.11C4511.04 2054.16 4510.56 2055.59 4510.7 2057.03C4510.85 2058.46 4511.6 2059.76 4512.78 2060.6L4515.68 2056.53ZM4948.38 2825.47L4944.32 2822.55L4943.51 2823.68L4943.4 2825.06L4948.38 2825.47ZM5092.07 2993.52L5092.52 2988.54L5092.41 2988.53L5092.3 2988.52L5092.07 2993.52ZM5156.09 2715.08L5161.06 2714.57L5156.09 2715.08ZM5098.98 2785.57L5101.62 2789.82L5098.98 2785.57ZM5116.39 2994.52L5116.41 2989.52L5116.39 2994.52ZM5102.67 3100.52L5107.06 3102.92L5107.51 3102.09L5107.63 3101.16L5102.67 3100.52ZM4976.64 3355.15L4976.11 3350.18C4973.77 3350.43 4971.92 3352.27 4971.67 3354.61L4976.64 3355.15ZM5082.09 3344.01L5082.62 3348.98L5085.35 3348.69L5086.57 3346.23L5082.09 3344.01ZM6450.56 2839.68L6455.55 2839.99L6450.56 2839.68ZM5858.05 2800.67L5855.26 2804.82L5855.26 2804.82L5858.05 2800.67ZM6364.28 2845.75L6364.28 2840.75L6364.28 2845.75ZM5961.55 3170.33L5964.31 3166.17L5964.31 3166.17L5961.55 3170.33ZM4653.16 2188.31L4650.37 2192.46L4650.37 2192.46L4653.16 2188.31ZM4652.98 2185.11L4656.25 2188.89L4652.98 2185.11ZM5359.59 2192.73L5359.95 2187.74L5359.59 2192.73ZM5344.15 2195.18L5346.39 2199.65L5344.15 2195.18ZM5388.42 2174.66L5390.62 2179.15L5388.42 2174.66ZM5377.75 2186.87L5373 2185.29L5377.75 2186.87ZM4700.37 2118.19L4703.08 2113.99L4700.37 2118.19ZM4697.31 2119.36L4692.5 2117.99L4697.31 2119.36ZM5329.81 2513.82L5333.86 2510.89L5329.81 2513.82ZM5315.06 2456.87L5320.05 2457.26L5315.06 2456.87ZM5539.47 2269.14L5540.83 2273.95L5539.47 2269.14ZM5553.34 2255.68L5558.13 2257.12L5553.34 2255.68ZM4970.44 3342.8L4966.05 3340.4L4970.44 3342.8ZM6667.12 3643.95L6671.47 3646.42L6667.12 3643.95ZM5203.24 2617.07C5271.35 2589.13 5320.69 2577.49 5374.96 2596.14L5378.21 2586.69C5320.32 2566.79 5268.02 2579.68 5199.44 2607.82L5203.24 2617.07ZM5374.96 2596.14C5402.43 2605.58 5438.39 2625.48 5469.17 2645.34C5484.52 2655.25 5498.47 2665.08 5509.31 2673.49C5520.37 2682.06 5527.65 2688.75 5530.22 2692.42L5538.41 2686.69C5534.84 2681.59 5526.35 2674.05 5515.44 2665.59C5504.33 2656.97 5490.13 2646.97 5474.59 2636.94C5443.6 2616.94 5406.83 2596.52 5378.21 2586.69L5374.96 2596.14ZM5639.01 2862.6C5644.63 2869.9 5653 2882.88 5659.6 2897.77C5666.25 2912.74 5670.82 2929.04 5669.53 2943.22L5679.49 2944.12C5681.01 2927.45 5675.65 2909.29 5668.74 2893.71C5661.79 2878.04 5652.99 2864.38 5646.93 2856.5L5639.01 2862.6ZM5728.07 3102.23C5735.46 3114.45 5745.41 3135.12 5751.08 3157.1C5756.79 3179.27 5757.87 3201.67 5748.97 3218.2L5757.78 3222.94C5768.51 3203.01 5766.67 3177.5 5760.76 3154.61C5754.8 3131.52 5744.42 3109.95 5736.63 3097.06L5728.07 3102.23ZM5731.21 3432.32C5740.12 3431.21 5746.68 3426.01 5751.98 3420.45C5754.63 3417.66 5757.12 3414.62 5759.46 3411.8C5761.85 3408.91 5764.09 3406.24 5766.44 3403.88C5771.11 3399.17 5775.62 3396.31 5781.14 3396.03C5786.79 3395.74 5794.65 3398.1 5806.05 3406.65L5812.05 3398.65C5799.8 3389.46 5789.63 3385.58 5780.63 3386.04C5771.51 3386.51 5764.77 3391.37 5759.34 3396.83C5756.64 3399.55 5754.12 3402.57 5751.76 3405.42C5749.35 3408.33 5747.1 3411.07 5744.74 3413.55C5740.02 3418.5 5735.47 3421.72 5729.98 3422.4L5731.21 3432.32ZM5805.56 3406.23C5841.8 3441.59 5897.68 3497.1 5947.56 3548.73C5972.5 3574.54 5995.91 3599.36 6014.6 3620.18C6033.4 3641.12 6047.13 3657.71 6052.98 3667.19L6061.49 3661.94C6055.09 3651.57 6040.74 3634.33 6022.04 3613.5C6003.23 3592.55 5979.73 3567.63 5954.75 3541.78C5904.79 3490.06 5848.83 3434.48 5812.54 3399.07L5805.56 3406.23ZM6056.77 3669.54C6070.51 3670.83 6087.74 3672.22 6107.62 3673.56L6108.3 3663.58C6088.48 3662.25 6071.34 3660.86 6057.7 3659.59L6056.77 3669.54ZM6107.62 3673.56C6202.85 3679.99 6359.52 3685.33 6485.77 3672.5L6484.76 3662.55C6359.35 3675.29 6203.35 3670 6108.3 3663.58L6107.62 3673.56ZM6111.1 3672.47C6131.78 3655.81 6165.56 3630.72 6199.6 3609.68C6216.61 3599.16 6233.61 3589.71 6248.99 3582.83C6264.51 3575.9 6277.9 3571.8 6287.87 3571.53L6287.6 3561.54C6275.6 3561.86 6260.73 3566.63 6244.91 3573.7C6228.97 3580.83 6211.57 3590.53 6194.34 3601.18C6159.87 3622.48 6125.75 3647.82 6104.82 3664.68L6111.1 3672.47ZM6292 3569.14C6299.87 3556.28 6315.87 3536.48 6338.04 3519.49C6360.21 3502.52 6388.22 3488.59 6420.19 3486.87L6419.65 3476.89C6385.08 3478.74 6355.17 3493.77 6331.96 3511.55C6308.77 3529.32 6291.95 3550.06 6283.47 3563.93L6292 3569.14ZM6847.72 3807.17C6844.38 3805.17 6835.9 3799.03 6823.82 3789.93C6811.85 3780.92 6796.6 3769.2 6779.9 3756.26C6746.5 3730.38 6707.36 3699.61 6677.17 3675.75L6670.97 3683.59C6701.18 3707.46 6740.34 3738.25 6773.77 3764.16C6790.49 3777.12 6805.78 3788.86 6817.8 3797.92C6829.71 3806.88 6838.68 3813.41 6842.57 3815.75L6847.72 3807.17ZM6709.46 3572.26C6726.69 3576.08 6755.71 3588.87 6786.36 3611C6816.93 3633.07 6848.79 3664.21 6871.95 3704.47L6880.62 3699.48C6856.61 3657.75 6823.68 3625.61 6792.21 3602.89C6760.83 3580.23 6730.56 3566.7 6711.63 3562.49L6709.46 3572.26ZM6705.71 3568.65C6708.31 3578.55 6712.49 3589.51 6718.14 3599.37C6723.76 3609.17 6731.04 3618.22 6740.04 3623.85L6745.34 3615.37C6738.26 3610.95 6731.99 3603.43 6726.81 3594.39C6721.66 3585.41 6717.8 3575.29 6715.38 3566.1L6705.71 3568.65ZM6740.04 3623.85C6752.78 3631.81 6833.18 3683.15 6873.81 3706.32L6878.76 3697.63C6838.36 3674.59 6758.31 3623.47 6745.34 3615.37L6740.04 3623.85ZM6873.49 3706.12L7036.22 3815.61L7041.8 3807.31L6879.07 3697.83L6873.49 3706.12ZM5530.22 2692.42C5536.74 2701.74 5569.02 2752.29 5599.33 2800.02L5607.77 2794.66C5577.56 2747.1 5545.1 2696.24 5538.41 2686.69L5530.22 2692.42ZM5599.33 2800.02C5614.03 2823.17 5628.24 2845.6 5638.74 2862.22L5647.19 2856.88C5636.69 2840.25 5622.48 2817.82 5607.77 2794.66L5599.33 2800.02ZM5687.03 2679.71L5576.52 2605.44L5570.95 2613.74L5681.45 2688.01L5687.03 2679.71ZM5608.51 2796.73C5607.97 2792.39 5608.3 2785.82 5610.42 2777.62L5600.74 2775.11C5598.38 2784.23 5597.86 2792.09 5598.59 2797.95L5608.51 2796.73ZM5610.42 2777.62C5616.33 2754.78 5636 2720.13 5686.9 2688.09L5681.57 2679.62C5628.86 2712.81 5607.39 2749.43 5600.74 2775.11L5610.42 2777.62ZM5602.77 2780.5L7129.22 3816.52L7134.84 3808.25L5608.39 2772.23L5602.77 2780.5ZM6671.47 3646.42C6672.18 3645.17 6672.92 3643.87 6673.67 3642.54L6664.97 3637.61C6664.22 3638.94 6663.48 3640.24 6662.77 3641.49L6671.47 3646.42ZM6673.67 3642.54C6685.41 3621.83 6702.24 3592.17 6714.89 3569.84L6706.19 3564.91C6693.54 3587.23 6676.71 3616.9 6664.97 3637.61L6673.67 3642.54ZM5670.98 2947.2C5684.33 2960.56 5703.45 2984.67 5716.57 3012.86L5725.64 3008.64C5711.95 2979.23 5692.09 2954.17 5678.05 2940.13L5670.98 2947.2ZM5716.57 3012.86C5729.23 3040.04 5735.99 3070.3 5727.56 3098.2L5737.13 3101.09C5746.58 3069.85 5738.79 3036.89 5725.64 3008.64L5716.57 3012.86ZM5573.48 2604.59C5544.13 2606.07 5498.65 2602.84 5453.2 2589.04C5407.73 2575.23 5362.82 2551 5333.86 2510.89L5325.75 2516.74C5356.47 2559.28 5403.66 2584.44 5450.3 2598.61C5496.96 2612.78 5543.61 2616.11 5573.99 2614.58L5573.48 2604.59ZM5331.13 2413.26C5338.16 2405.45 5364.44 2377.99 5402.12 2348.76C5439.84 2319.51 5488.67 2288.73 5540.83 2273.95L5538.11 2264.33C5484.19 2279.61 5434.18 2311.24 5395.99 2340.86C5357.75 2370.52 5331.04 2398.41 5323.7 2406.57L5331.13 2413.26ZM5558.13 2257.12C5566.62 2228.86 5579.8 2190.06 5594.52 2156.54C5601.88 2139.77 5609.57 2124.45 5617.19 2112.47C5624.95 2100.27 5632.15 2092.32 5638.27 2089.26L5633.8 2080.32C5625.05 2084.69 5616.62 2094.73 5608.75 2107.1C5600.75 2119.69 5592.82 2135.52 5585.36 2152.52C5570.42 2186.54 5557.11 2225.75 5548.55 2254.24L5558.13 2257.12ZM5758.31 1921.12C5780 1912.78 5821.35 1895.57 5863.87 1879.89C5885.06 1872.07 5906.4 1864.68 5925.49 1859.05C5944.66 1853.4 5961.24 1849.61 5973.04 1848.83L5972.38 1838.85C5959.42 1839.71 5941.96 1843.77 5922.66 1849.46C5903.27 1855.18 5881.7 1862.65 5860.4 1870.5C5817.92 1886.18 5775.93 1903.63 5754.72 1911.79L5758.31 1921.12ZM5974.05 1848.66C6008.67 1839.04 6063.15 1824.53 6114.08 1812.27C6139.54 1806.13 6164.08 1800.57 6184.79 1796.46C6205.6 1792.33 6222.21 1789.74 6231.98 1789.42L6231.66 1779.43C6220.96 1779.77 6203.62 1782.53 6182.84 1786.65C6161.95 1790.8 6137.27 1796.4 6111.74 1802.55C6060.67 1814.84 6006.07 1829.38 5971.37 1839.02L5974.05 1848.66ZM6231.98 1789.42C6257.42 1788.6 6282.88 1789.01 6308.27 1789.42C6333.62 1789.84 6358.92 1790.25 6383.82 1789.42L6383.48 1779.43C6358.87 1780.25 6333.83 1779.84 6308.43 1779.43C6283.08 1779.01 6257.38 1778.6 6231.66 1779.43L6231.98 1789.42ZM6383.82 1789.42C6396.75 1788.99 6417.22 1785.06 6440.61 1779.65C6464.13 1774.22 6491.07 1767.19 6517.15 1760.38C6543.27 1753.57 6568.51 1746.99 6588.75 1742.42C6598.88 1740.14 6607.67 1738.38 6614.65 1737.34C6621.87 1736.27 6626.45 1736.09 6628.58 1736.52L6630.54 1726.71C6626.48 1725.9 6620.27 1726.39 6613.18 1727.45C6605.84 1728.54 6596.77 1730.36 6586.55 1732.67C6566.11 1737.28 6540.69 1743.91 6514.62 1750.71C6488.51 1757.52 6461.71 1764.51 6438.35 1769.91C6414.86 1775.34 6395.31 1779.03 6383.48 1779.43L6383.82 1789.42ZM6628.58 1736.52C6635.42 1737.89 6643.59 1737.53 6652.34 1737.46C6661.34 1737.39 6671.8 1737.56 6684.29 1739.72C6709.2 1744.01 6742.8 1756.28 6788.59 1791.2L6794.65 1783.25C6747.83 1747.54 6712.77 1734.48 6685.99 1729.86C6672.64 1727.56 6661.49 1727.39 6652.26 1727.46C6642.77 1727.53 6636.07 1727.82 6630.54 1726.71L6628.58 1736.52ZM6787.42 1789.94C6792.28 1797.44 6799.62 1808.82 6805.87 1818.62C6809 1823.53 6811.85 1828.03 6813.98 1831.44C6815.04 1833.15 6815.92 1834.57 6816.55 1835.63C6817.28 1836.85 6817.48 1837.25 6817.45 1837.16L6826.64 1833.22C6826.35 1832.54 6825.71 1831.46 6825.13 1830.49C6824.45 1829.36 6823.54 1827.88 6822.47 1826.15C6820.31 1822.69 6817.44 1818.16 6814.31 1813.25C6808.03 1803.41 6800.68 1792.01 6795.82 1784.51L6787.42 1789.94ZM6817.45 1837.16C6817.36 1836.96 6817.44 1837 6817.43 1837.61C6817.43 1837.88 6817.42 1838.19 6817.39 1838.6C6817.37 1838.96 6817.33 1839.49 6817.31 1839.97C6817.29 1840.72 6817.21 1842.65 6818.17 1844.44C6818.74 1845.5 6819.63 1846.46 6820.86 1847.09C6822.02 1847.7 6823.2 1847.86 6824.17 1847.86L6824.17 1837.86C6824.3 1837.86 6824.81 1837.88 6825.45 1838.21C6826.17 1838.58 6826.68 1839.15 6826.99 1839.73C6827.26 1840.22 6827.3 1840.6 6827.3 1840.63C6827.31 1840.67 6827.3 1840.6 6827.31 1840.32C6827.32 1840.03 6827.34 1839.74 6827.37 1839.25C6827.4 1838.82 6827.43 1838.27 6827.43 1837.69C6827.44 1836.58 6827.36 1834.91 6826.64 1833.22L6817.45 1837.16ZM6824.17 1847.86C6827.21 1847.86 6837.01 1846.97 6841.28 1846.56L6840.31 1836.61C6835.77 1837.05 6826.59 1837.86 6824.17 1837.86L6824.17 1847.86ZM6836.95 1844.78C6849.57 1859.96 6868.7 1883.36 6885.04 1904.23C6893.21 1914.66 6900.66 1924.43 6906.24 1932.2C6909.03 1936.09 6911.32 1939.43 6912.99 1942.08C6914.78 1944.91 6915.54 1946.48 6915.7 1947.01L6925.28 1944.14C6924.67 1942.11 6923.16 1939.46 6921.45 1936.75C6919.63 1933.86 6917.21 1930.33 6914.36 1926.37C6908.66 1918.43 6901.12 1908.54 6892.91 1898.06C6876.49 1877.09 6857.3 1853.61 6844.64 1838.39L6836.95 1844.78ZM6915.7 1947.01C6916.78 1950.59 6919.52 1954.58 6922.59 1958.33C6925.77 1962.24 6929.79 1966.48 6934.03 1970.64C6942.51 1978.96 6952.15 1987.21 6958.45 1992.3L6964.73 1984.51C6958.61 1979.58 6949.23 1971.53 6941.03 1963.5C6936.93 1959.48 6933.2 1955.53 6930.34 1952.01C6927.34 1948.34 6925.74 1945.67 6925.28 1944.14L6915.7 1947.01ZM6957.81 1991.68L7213.13 2285.3L7220.68 2278.74L6965.36 1985.12L6957.81 1991.68ZM5983.88 2305.3C5983.88 2301.01 5984.76 2294.65 5987.2 2289.56C5989.59 2284.59 5992.96 2281.66 5997.97 2281.66L5997.97 2271.66C5987.71 2271.66 5981.53 2278.28 5978.19 2285.24C5974.9 2292.08 5973.88 2300.04 5973.88 2305.3L5983.88 2305.3ZM5997.97 2281.66C6000.73 2281.66 6003.81 2283.25 6007.7 2287.08C6011.58 2290.91 6015.36 2296.01 6019.81 2301.7C6024.1 2307.19 6028.95 2313.1 6034.57 2317.61C6040.28 2322.19 6047.08 2325.57 6055.24 2325.57L6055.24 2315.57C6050.05 2315.57 6045.39 2313.47 6040.83 2309.81C6036.2 2306.09 6031.97 2301.02 6027.68 2295.54C6023.54 2290.24 6019.2 2284.37 6014.72 2279.96C6010.26 2275.56 6004.75 2271.66 5997.97 2271.66L5997.97 2281.66ZM6055.24 2325.57C6068.56 2325.57 6110.52 2328.42 6154.11 2329.86C6175.75 2330.58 6197.65 2330.94 6216.2 2330.4C6234.51 2329.87 6250.31 2328.45 6259.28 2325.29L6255.95 2315.86C6248.68 2318.42 6234.42 2319.87 6215.91 2320.41C6197.66 2320.94 6176.01 2320.58 6154.45 2319.87C6111.66 2318.45 6068.66 2315.57 6055.24 2315.57L6055.24 2325.57ZM6259.28 2325.29C6284.19 2316.49 6298.98 2322.05 6302.34 2324.57L6308.34 2316.57C6301.52 2311.46 6282.96 2306.32 6255.95 2315.86L6259.28 2325.29ZM6305.55 2325.57C6336.13 2324.26 6391.9 2317.96 6436.26 2302.79L6433.03 2293.33C6389.93 2308.07 6335.22 2314.29 6305.13 2315.58L6305.55 2325.57ZM6436.26 2302.79C6457 2295.7 6475.78 2286.5 6488.26 2274.54L6481.34 2267.32C6470.43 2277.78 6453.27 2286.41 6433.03 2293.33L6436.26 2302.79ZM6429.66 2298.38C6430.09 2305.08 6431.83 2315.25 6435.8 2324.1C6439.68 2332.76 6446.44 2341.72 6457.62 2342.73L6458.52 2332.77C6452.9 2332.26 6448.36 2327.67 6444.92 2320.01C6441.58 2312.55 6440.01 2303.63 6439.64 2297.74L6429.66 2298.38ZM6453.07 2337.75C6453.07 2391.51 6489.31 2528.51 6632.32 2654.6L6638.93 2647.1C6497.86 2522.72 6463.07 2388.36 6463.07 2337.75L6453.07 2337.75ZM6918.92 2838.37C6931.2 2830.69 6986.51 2794.37 7012.56 2777.21L7007.06 2768.86C6980.94 2786.07 6925.77 2822.29 6913.62 2829.89L6918.92 2838.37ZM6681.6 2722.65C6733.78 2781.06 6816.03 2842.4 6916.43 2839.13L6916.1 2829.13C6820.05 2832.26 6740.42 2773.49 6689.05 2715.99L6681.6 2722.65ZM6680.53 2717.9C6671.87 2747.08 6660.25 2794.45 6653.46 2841.86C6650.07 2865.57 6647.88 2889.39 6647.89 2911.01C6647.9 2932.55 6650.11 2952.27 6655.75 2967.59L6665.13 2964.13C6660.08 2950.43 6657.9 2932.07 6657.89 2911C6657.88 2890.02 6660.01 2866.7 6663.36 2843.28C6670.07 2796.44 6681.57 2749.55 6690.12 2720.74L6680.53 2717.9ZM6655.75 2967.59C6669.16 3004 6698.58 3091.32 6727.33 3170.88C6741.66 3210.51 6755.77 3248.08 6767.52 3276C6773.38 3289.95 6778.71 3301.61 6783.21 3309.95C6785.45 3314.11 6787.57 3317.59 6789.52 3320.16C6790.5 3321.45 6791.53 3322.63 6792.61 3323.57C6793.62 3324.46 6795.08 3325.49 6796.92 3325.86L6798.88 3316.05C6799.53 3316.18 6799.65 3316.44 6799.19 3316.04C6798.8 3315.7 6798.23 3315.09 6797.48 3314.11C6795.99 3312.14 6794.15 3309.18 6792.01 3305.2C6787.74 3297.29 6782.56 3285.98 6776.73 3272.13C6765.09 3244.45 6751.05 3207.08 6736.74 3167.48C6708.22 3088.58 6678.45 3000.27 6665.13 2964.13L6655.75 2967.59ZM7219.67 3709.76L6700.37 3360.75L6694.79 3369.05L7214.09 3718.06L7219.67 3709.76ZM6699.59 3369.48L6799.91 3325.54L6795.89 3316.38L6695.58 3360.32L6699.59 3369.48ZM6692.51 2916.39C6714.07 2944.42 6755.68 2985.35 6810.8 3017.66C6865.94 3049.99 6934.91 3073.87 7011.05 3067.22L7010.18 3057.26C6936.69 3063.68 6869.78 3040.65 6815.85 3009.03C6761.9 2977.4 6721.25 2937.35 6700.44 2910.29L6692.51 2916.39ZM6973.24 2964.84C6972.99 2964.99 6973.04 2964.88 6973.86 2964.75C6974.61 2964.63 6975.65 2964.54 6977.08 2964.47C6978.51 2964.4 6980.15 2964.36 6982.12 2964.31C6984.06 2964.25 6986.26 2964.19 6988.69 2964.07C6998.45 2963.61 7011.84 2962.32 7028.53 2957.65C7061.93 2948.31 7108.04 2925.57 7164.83 2869.7L7157.82 2862.57C7102.02 2917.46 7057.35 2939.21 7025.83 2948.02C7010.06 2952.43 6997.46 2953.64 6988.21 2954.08C6985.89 2954.19 6983.77 2954.26 6981.85 2954.31C6979.94 2954.36 6978.16 2954.41 6976.61 2954.48C6975.07 2954.55 6973.58 2954.66 6972.27 2954.88C6971.03 2955.08 6969.48 2955.43 6968.09 2956.27L6973.24 2964.84ZM6798.74 3325.89C6834.52 3319.81 6905.32 3310.63 6978.31 3307.68L6977.9 3297.69C6904.43 3300.66 6833.2 3309.89 6797.06 3316.03L6798.74 3325.89ZM6978.31 3307.68C7015.11 3306.19 7052.38 3306.3 7085.94 3309.16L7086.79 3299.2C7052.67 3296.29 7014.96 3296.19 6977.9 3297.69L6978.31 3307.68ZM6981.89 3305.95C6998.31 3286.96 7058.78 3245.48 7165.22 3239.73L7164.68 3229.75C7056.13 3235.61 6992.88 3277.95 6974.32 3299.41L6981.89 3305.95ZM7029.69 3172.47C7055.49 3167.61 7095.72 3159.24 7132.63 3149.89C7151.09 3145.21 7168.77 3140.27 7183.44 3135.39C7197.92 3130.57 7210.02 3125.63 7216.86 3120.8L7211.1 3112.63C7205.59 3116.51 7194.8 3121.07 7180.28 3125.9C7165.94 3130.68 7148.51 3135.55 7130.18 3140.19C7093.52 3149.48 7053.5 3157.81 7027.84 3162.64L7029.69 3172.47ZM6631.25 2653.28C6638.23 2665.84 6647.9 2680.74 6659.99 2696.54L6667.93 2690.47C6656.11 2675.01 6646.71 2660.52 6639.99 2648.42L6631.25 2653.28ZM6659.99 2696.54C6666.5 2705.05 6673.71 2713.82 6681.6 2722.65L6689.05 2715.99C6681.34 2707.36 6674.29 2698.78 6667.93 2690.47L6659.99 2696.54ZM6241.39 2492.8C6245.68 2485.5 6250.09 2475.17 6254.49 2464.09C6259 2452.74 6263.4 2440.9 6268.03 2429.44L6258.75 2425.7C6254.2 2436.97 6249.51 2449.55 6245.2 2460.4C6240.78 2471.51 6236.62 2481.17 6232.77 2487.73L6241.39 2492.8ZM6268.03 2429.44C6275.23 2411.62 6281.54 2392.51 6284.88 2374.58C6288.21 2356.77 6288.74 2339.52 6283.76 2325.76L6274.36 2329.16C6278.44 2340.43 6278.26 2355.58 6275.05 2372.75C6271.87 2389.79 6265.81 2408.23 6258.75 2425.7L6268.03 2429.44ZM6263.26 2422.57C6246.05 2423.03 6219.15 2424.6 6194.3 2427.83C6181.88 2429.44 6169.87 2431.48 6159.79 2434.04C6149.93 2436.53 6141.16 2439.69 6135.88 2443.92L6142.12 2451.73C6145.59 2448.96 6152.48 2446.2 6162.24 2443.73C6171.79 2441.31 6183.37 2439.33 6195.59 2437.75C6220.02 2434.58 6246.56 2433.02 6263.52 2432.57L6263.26 2422.57ZM6135.88 2443.92C6133.59 2445.75 6129.19 2448.32 6122.81 2451.52C6116.54 2454.67 6108.67 2458.26 6099.7 2462.17C6081.75 2469.99 6059.59 2478.95 6037.29 2487.92C6015.01 2496.86 5992.6 2505.81 5974.25 2513.54C5956.13 2521.18 5941.37 2527.88 5934.84 2532.33L5940.47 2540.59C5945.99 2536.83 5959.68 2530.54 5978.14 2522.76C5996.38 2515.07 6018.69 2506.16 6041.01 2497.19C6063.3 2488.24 6085.59 2479.22 6103.69 2471.34C6112.74 2467.4 6120.79 2463.72 6127.29 2460.46C6133.69 2457.25 6138.94 2454.28 6142.12 2451.73L6135.88 2443.92ZM5934.84 2532.33C5932.37 2534.01 5926.64 2536.69 5917.9 2540.1C5909.34 2543.44 5898.32 2547.33 5885.63 2551.49C5860.27 2559.81 5828.42 2569.18 5796.54 2577.43C5764.64 2585.69 5732.84 2592.79 5707.55 2596.6C5694.89 2598.51 5684.01 2599.56 5675.64 2599.57C5671.45 2599.57 5668.03 2599.31 5665.4 2598.81C5662.67 2598.29 5661.26 2597.6 5660.65 2597.12L5654.41 2604.93C5656.88 2606.9 5660.16 2607.99 5663.53 2608.63C5667.01 2609.29 5671.11 2609.57 5675.65 2609.57C5684.74 2609.56 5696.17 2608.43 5709.04 2606.49C5734.82 2602.6 5767 2595.41 5799.05 2587.11C5831.12 2578.82 5863.18 2569.38 5888.75 2560.99C5901.54 2556.79 5912.74 2552.84 5921.54 2549.41C5930.16 2546.05 5936.93 2543.01 5940.47 2540.59L5934.84 2532.33ZM5575.78 2614.15C5588.03 2608.66 5601.65 2602.31 5616.25 2595.19L5611.87 2586.2C5597.36 2593.27 5583.84 2599.58 5571.69 2605.02L5575.78 2614.15ZM5616.25 2595.19C5679.83 2564.21 5762.39 2518.76 5833.58 2467.94C5869.18 2442.53 5902.03 2415.7 5928.28 2388.61C5954.47 2361.56 5974.36 2333.95 5983.61 2306.92L5974.15 2303.68C5965.58 2328.71 5946.83 2355.08 5921.09 2381.65C5895.41 2408.17 5863.07 2434.6 5827.77 2459.8C5757.17 2510.19 5675.13 2555.37 5611.87 2586.2L5616.25 2595.19ZM5660.65 2597.12C5639.6 2580.29 5620.04 2582.16 5611.84 2586.21L5616.28 2595.17C5620.66 2593 5636.09 2590.28 5654.41 2604.93L5660.65 2597.12ZM5640.49 2087.07C5646.58 2075.14 5654.61 2060.18 5663.77 2044.12L5655.08 2039.17C5645.85 2055.35 5637.75 2070.45 5631.58 2082.52L5640.49 2087.07ZM5663.77 2044.12C5678.52 2018.26 5696.14 1989.66 5713.27 1966.33C5721.85 1954.66 5730.23 1944.39 5738.02 1936.47C5745.91 1928.45 5752.79 1923.25 5758.31 1921.12L5754.72 1911.79C5747.14 1914.7 5739.04 1921.18 5730.89 1929.46C5722.64 1937.85 5713.94 1948.53 5705.21 1960.41C5687.76 1984.18 5669.93 2013.14 5655.08 2039.17L5663.77 2044.12ZM5657.22 2037.16L5386.21 2170.17L5390.62 2179.15L5661.63 2046.13L5657.22 2037.16ZM5373 2185.29L5370.67 2192.28L5380.16 2195.44L5382.49 2188.45L5373 2185.29ZM5375.77 2188.87L5359.95 2187.74L5359.24 2197.72L5375.06 2198.85L5375.77 2188.87ZM5341.91 2190.71C5330.2 2196.58 5317.93 2207.22 5305.88 2220.44C5293.78 2233.73 5281.63 2249.9 5270.2 2267.16C5247.36 2301.67 5227.16 2340.92 5215.74 2370.93L5225.09 2374.49C5236.21 2345.25 5256.06 2306.66 5278.54 2272.68C5289.78 2255.71 5301.61 2239.98 5313.27 2227.18C5324.99 2214.32 5336.29 2204.72 5346.39 2199.65L5341.91 2190.71ZM5157.67 2745.84L5171.07 2757.96L5177.78 2750.55L5164.38 2738.42L5157.67 2745.84ZM5212.81 3090.67C5228.92 3080.77 5254.27 3065.98 5277.94 3053.76C5289.78 3047.64 5301.11 3042.22 5310.61 3038.37C5315.36 3036.45 5319.58 3034.96 5323.13 3033.97C5326.75 3032.96 5329.34 3032.58 5330.95 3032.64L5331.31 3022.64C5328.15 3022.53 5324.39 3023.24 5320.44 3024.34C5316.41 3025.46 5311.81 3027.1 5306.86 3029.1C5296.95 3033.11 5285.31 3038.69 5273.35 3044.87C5249.41 3057.24 5223.83 3072.16 5207.58 3082.14L5212.81 3090.67ZM5386.17 2984.77C5396.03 2951.33 5408 2898.81 5411.85 2849.82C5413.77 2825.34 5413.68 2801.51 5410.19 2781.29C5406.71 2761.21 5399.73 2743.88 5387.13 2733.38L5380.73 2741.06C5390.62 2749.31 5397.01 2763.8 5400.33 2783C5403.63 2802.07 5403.77 2824.98 5401.88 2849.04C5398.1 2897.14 5386.31 2948.95 5376.58 2981.94L5386.17 2984.77ZM5386.13 2732.73C5355.3 2717.67 5307.54 2700.35 5264.53 2697.63C5243.01 2696.27 5222.21 2698.53 5205.25 2707C5188.07 2715.58 5175.2 2730.35 5169.57 2753.05L5179.28 2755.46C5184.21 2735.58 5195.18 2723.2 5209.72 2715.95C5224.48 2708.58 5243.3 2706.31 5263.89 2707.61C5305.1 2710.22 5351.53 2726.96 5381.74 2741.72L5386.13 2732.73ZM5330.95 3032.64C5340.21 3032.97 5349.26 3027.67 5356.86 3021.26C5364.63 3014.71 5371.78 3006.22 5377.36 2998.54L5369.27 2992.66C5363.95 2999.98 5357.34 3007.77 5350.41 3013.62C5343.31 3019.61 5336.72 3022.84 5331.31 3022.64L5330.95 3032.64ZM5377.36 2998.54C5380.72 2993.91 5383.57 2989.5 5385.69 2985.88L5377.06 2980.83C5375.12 2984.16 5372.45 2988.29 5369.27 2992.66L5377.36 2998.54ZM5197.79 3017.93L5205.22 3086.94L5215.16 3085.87L5207.73 3016.86L5197.79 3017.93ZM5376.84 2992.06C5356.36 2971.66 5322.66 2947.75 5288.38 2943.8C5271.05 2941.8 5253.45 2944.91 5237.58 2956.27C5221.79 2967.56 5208.19 2986.66 5198.04 3015.75L5207.48 3019.04C5217.19 2991.22 5229.79 2974.13 5243.4 2964.4C5256.93 2954.72 5271.94 2951.97 5287.24 2953.73C5318.24 2957.3 5349.95 2979.39 5369.78 2999.15L5376.84 2992.06ZM5320.05 2457.26C5320.5 2451.52 5321.14 2445.7 5322.02 2440.19L5312.15 2438.61C5311.22 2444.44 5310.55 2450.53 5310.08 2456.48L5320.05 2457.26ZM5322.02 2440.19C5323.01 2434.04 5324.27 2428.36 5325.85 2423.62C5327.46 2418.8 5329.27 2415.33 5331.13 2413.26L5323.7 2406.57C5320.5 2410.13 5318.15 2415.1 5316.36 2420.46C5314.55 2425.89 5313.18 2432.14 5312.15 2438.61L5322.02 2440.19ZM5319.93 2435.28L5223.25 2368.59L5217.57 2376.83L5314.25 2443.52L5319.93 2435.28ZM5223.09 2368.49L4935.54 2186.08L4930.18 2194.53L5217.73 2376.93L5223.09 2368.49ZM4808.09 2373.2C4807.55 2369.26 4808.06 2363.77 4809.79 2356.86C4811.5 2350.02 4814.31 2342.13 4818.06 2333.54C4825.56 2316.36 4836.66 2296.7 4849.66 2277.58C4862.66 2258.47 4877.47 2240.02 4892.34 2225.2C4907.3 2210.3 4921.93 2199.47 4934.52 2195.02L4931.19 2185.59C4916.5 2190.78 4900.59 2202.86 4885.28 2218.12C4869.87 2233.47 4854.67 2252.44 4841.39 2271.96C4828.12 2291.48 4816.69 2311.68 4808.89 2329.54C4805 2338.47 4801.97 2346.9 4800.09 2354.43C4798.23 2361.89 4797.39 2368.81 4798.19 2374.57L4808.09 2373.2ZM5177.05 2637.05C5183.4 2628.68 5191.91 2621.72 5203.24 2617.07L5199.44 2607.82C5186.4 2613.17 5176.47 2621.27 5169.08 2631.01L5177.05 2637.05ZM4836.54 2257.1C4846.46 2243.98 4855.64 2233.45 4864.04 2225.02L4856.96 2217.96C4848.19 2226.76 4838.72 2237.64 4828.56 2251.07L4836.54 2257.1ZM4864.04 2225.02C4887.22 2201.79 4904.38 2194.71 4915.18 2193.05C4920.59 2192.22 4924.52 2192.73 4926.98 2193.35C4928.22 2193.67 4929.1 2194.02 4929.63 2194.26C4929.89 2194.38 4930.07 2194.47 4930.15 2194.51C4930.19 2194.54 4930.21 2194.55 4930.21 2194.55C4930.21 2194.55 4930.2 2194.54 4930.19 2194.54C4930.18 2194.53 4930.18 2194.53 4930.17 2194.52C4930.16 2194.52 4930.16 2194.51 4930.15 2194.51C4930.15 2194.51 4930.15 2194.51 4930.14 2194.51C4930.14 2194.5 4930.14 2194.5 4932.86 2190.31C4935.58 2186.11 4935.58 2186.11 4935.57 2186.11C4935.57 2186.11 4935.57 2186.1 4935.56 2186.1C4935.56 2186.1 4935.55 2186.09 4935.54 2186.09C4935.53 2186.08 4935.51 2186.07 4935.49 2186.06C4935.45 2186.03 4935.41 2186.01 4935.36 2185.98C4935.26 2185.92 4935.13 2185.84 4934.98 2185.76C4934.68 2185.59 4934.27 2185.38 4933.75 2185.15C4932.73 2184.68 4931.29 2184.13 4929.44 2183.66C4925.72 2182.72 4920.44 2182.13 4913.67 2183.17C4900.12 2185.24 4881.11 2193.75 4856.96 2217.96L4864.04 2225.02ZM4863.21 2217.29L4703.08 2113.99L4697.66 2122.39L4857.79 2225.7L4863.21 2217.29ZM4803.14 2373.88C4806.94 2370.63 4806.94 2370.63 4806.94 2370.64C4806.94 2370.64 4806.95 2370.64 4806.95 2370.64C4806.95 2370.64 4806.95 2370.65 4806.96 2370.65C4806.96 2370.66 4806.96 2370.66 4806.97 2370.66C4806.97 2370.67 4806.97 2370.66 4806.96 2370.66C4806.95 2370.64 4806.92 2370.6 4806.87 2370.54C4806.77 2370.41 4806.6 2370.18 4806.38 2369.86C4805.94 2369.21 4805.29 2368.17 4804.57 2366.73C4803.13 2363.86 4801.38 2359.39 4800.39 2353.25C4798.44 2341.04 4799.45 2321.81 4812.66 2295.02L4803.7 2290.59C4789.69 2318.99 4788.19 2340.3 4790.52 2354.83C4791.68 2362.06 4793.77 2367.51 4795.63 2371.22C4796.57 2373.07 4797.44 2374.49 4798.1 2375.47C4798.44 2375.96 4798.72 2376.34 4798.93 2376.62C4799.04 2376.76 4799.13 2376.87 4799.2 2376.96C4799.23 2377 4799.26 2377.04 4799.29 2377.07C4799.3 2377.08 4799.31 2377.09 4799.32 2377.11C4799.32 2377.11 4799.33 2377.12 4799.33 2377.12C4799.33 2377.12 4799.34 2377.13 4799.34 2377.13C4799.34 2377.13 4799.34 2377.14 4803.14 2373.88ZM4812.66 2295.02C4818.23 2283.73 4825.96 2271.11 4836.54 2257.1L4828.56 2251.07C4817.65 2265.51 4809.57 2278.67 4803.7 2290.59L4812.66 2295.02ZM4650.37 2192.46L4805.39 2296.95L4810.98 2288.66L4655.96 2184.17L4650.37 2192.46ZM4692.5 2117.99C4690.35 2125.52 4687.36 2132.68 4683.77 2139.44L4692.6 2144.13C4696.49 2136.82 4699.75 2129.01 4702.12 2120.74L4692.5 2117.99ZM4690.92 2137.6L4588.12 2070.48L4582.66 2078.85L4685.45 2145.97L4690.92 2137.6ZM4683.77 2139.44C4678.03 2150.25 4670.76 2159.99 4662.97 2168.46L4670.33 2175.24C4678.6 2166.25 4686.4 2155.82 4692.6 2144.13L4683.77 2139.44ZM4662.97 2168.46C4658.64 2173.17 4654.16 2177.47 4649.7 2181.33L4656.25 2188.89C4660.98 2184.79 4665.73 2180.23 4670.33 2175.24L4662.97 2168.46ZM4558.38 2103.87L4663.82 2175.98L4669.47 2167.72L4564.03 2095.62L4558.38 2103.87ZM4581.79 2071.19L4576.1 2077.09L4583.3 2084.03L4588.99 2078.13L4581.79 2071.19ZM4582.63 2076.51L4530.98 2039.25L4525.13 2047.36L4576.77 2084.62L4582.63 2076.51ZM4524.41 2039.89L4512.03 2053.11L4519.33 2059.95L4531.71 2046.72L4524.41 2039.89ZM4576.1 2077.09L4563.78 2089.88L4570.97 2096.82L4583.3 2084.03L4576.1 2077.09ZM4563.78 2089.88L4557.6 2096.28L4564.8 2103.22L4570.97 2096.82L4563.78 2089.88ZM4512.78 2060.6L4564.47 2097.42L4570.28 2089.27L4518.58 2052.46L4512.78 2060.6ZM4800.27 2377.97L5112.69 2597.68L5118.44 2589.5L4806.02 2369.79L4800.27 2377.97ZM5112.69 2597.68L5170.19 2638.12L5175.94 2629.94L5118.44 2589.5L5112.69 2597.68ZM4943.4 2825.06C4941.1 2852.61 4945.7 2894.28 4967.14 2929.97C4988.76 2965.97 5027.31 2995.51 5091.84 2998.51L5092.3 2988.52C5031.16 2985.68 4995.63 2957.99 4975.71 2924.82C4955.61 2891.35 4951.19 2851.91 4953.36 2825.89L4943.4 2825.06ZM5169.45 2754.79L5194.26 2985.14L5204.2 2984.07L5179.39 2753.72L5169.45 2754.79ZM5194.26 2985.14L5197.79 3017.93L5207.73 3016.86L5204.2 2984.07L5194.26 2985.14ZM5165.85 2740.8C5163.87 2733.64 5162.08 2724.58 5161.06 2714.57L5151.11 2715.59C5152.19 2726.14 5154.08 2735.75 5156.21 2743.46L5165.85 2740.8ZM5161.06 2714.57C5158.44 2688.86 5161.02 2658.2 5177.05 2637.05L5169.08 2631.01C5150.74 2655.2 5148.4 2689.03 5151.11 2715.59L5161.06 2714.57ZM5152 2712.19C5144.67 2722.56 5133.03 2738.51 5121.96 2752.65C5116.41 2759.72 5111.05 2766.29 5106.46 2771.46C5101.71 2776.82 5098.22 2780.16 5096.35 2781.32L5101.62 2789.82C5104.92 2787.78 5109.32 2783.31 5113.94 2778.1C5118.72 2772.71 5124.23 2765.96 5129.83 2758.82C5141.04 2744.52 5152.77 2728.43 5160.17 2717.96L5152 2712.19ZM5111.51 2590.67L4957.2 2804.69L4965.32 2810.53L5119.62 2596.52L5111.51 2590.67ZM4957.2 2804.69L4944.32 2822.55L4952.43 2828.4L4965.32 2810.53L4957.2 2804.69ZM5096.35 2781.32C5090.32 2785.05 5068.24 2796.04 5041.81 2803.27C5015.19 2810.54 4985.51 2813.61 4963.41 2803.1L4959.11 2812.13C4984.62 2824.26 5017.34 2820.32 5044.45 2812.91C5071.74 2805.45 5094.72 2794.09 5101.62 2789.82L5096.35 2781.32ZM5091.62 2998.5C5097.62 2999.04 5106.22 2999.48 5116.37 2999.52L5116.41 2989.52C5106.5 2989.48 5098.19 2989.05 5092.52 2988.54L5091.62 2998.5ZM5116.37 2999.52C5140.04 2999.62 5172.67 2997.56 5200.63 2989.4L5197.83 2979.8C5171.2 2987.57 5139.67 2989.62 5116.41 2989.52L5116.37 2999.52ZM5098.28 3098.13L4966.05 3340.4L4974.83 3345.19L5107.06 3102.92L5098.28 3098.13ZM4971.67 3354.61C4969.43 3375.24 4972.9 3406.65 4990.62 3434.37C5008.5 3462.32 5040.58 3486.02 5094.46 3491.31L5095.44 3481.35C5044.39 3476.35 5015.16 3454.18 4999.05 3428.98C4982.78 3403.54 4979.56 3374.51 4981.61 3355.69L4971.67 3354.61ZM5111.43 2993.88L5104.57 3046.88L5114.49 3048.16L5121.35 2995.16L5111.43 2993.88ZM5104.57 3046.88L5097.71 3099.88L5107.63 3101.16L5114.49 3048.16L5104.57 3046.88ZM5107.28 3051.98C5125.45 3061.16 5160.16 3094.5 5148.35 3153.55L5158.16 3155.52C5171.04 3091.11 5133.05 3053.79 5111.78 3043.06L5107.28 3051.98ZM5148.35 3153.55C5136.14 3214.59 5096.17 3304.38 5077.61 3341.79L5086.57 3346.23C5105.16 3308.76 5145.67 3217.94 5158.16 3155.52L5148.35 3153.55ZM5081.57 3339.04L4976.11 3350.18L4977.16 3360.13L5082.62 3348.98L5081.57 3339.04ZM6667.98 2690.53C6666.71 2688.81 6664.82 2688.13 6663.83 2687.82C6662.62 2687.45 6661.22 2687.2 6659.79 2687.02C6656.9 2686.66 6653.05 2686.47 6648.52 2686.33C6639.28 2686.03 6626.8 2685.92 6611.35 2685.17C6580.59 2683.68 6538.81 2679.68 6492.31 2666.84L6489.65 2676.48C6537.1 2689.59 6579.68 2693.65 6610.87 2695.16C6626.39 2695.91 6639.27 2696.04 6648.2 2696.32C6652.74 2696.47 6656.16 2696.65 6658.54 2696.95C6659.74 2697.1 6660.48 2697.25 6660.87 2697.38C6661.5 2697.57 6660.69 2697.48 6659.94 2696.48L6667.98 2690.53ZM6492.31 2666.84C6411.8 2644.61 6317.1 2595.86 6241.18 2487.4L6232.98 2493.13C6310.48 2603.84 6407.35 2653.76 6489.65 2676.48L6492.31 2666.84ZM6490.66 3034.69C6472.65 3002.8 6449.89 2931.93 6455.55 2839.99L6445.57 2839.38C6439.8 2933.07 6462.91 3005.89 6481.95 3039.6L6490.66 3034.69ZM6455.55 2839.99C6458.64 2789.8 6470.19 2733.37 6495.58 2673.62L6486.38 2669.71C6460.52 2730.56 6448.72 2788.11 6445.57 2839.38L6455.55 2839.99ZM6017.6 2692.7C6010.21 2689.21 5997.88 2685.23 5984.43 2684.39C5970.97 2683.55 5955.8 2685.83 5943.46 2695.6L5949.67 2703.44C5959.38 2695.75 5971.76 2693.62 5983.8 2694.37C5995.84 2695.12 6006.94 2698.72 6013.33 2701.74L6017.6 2692.7ZM5860.84 2796.52L5687.03 2679.71L5681.45 2688.01L5855.26 2804.82L5860.84 2796.52ZM5943.46 2695.6C5931.99 2704.68 5914.63 2723.74 5897.85 2743.49C5880.95 2763.36 5864.29 2784.35 5854.09 2797.63L5862.02 2803.72C5872.14 2790.55 5888.7 2769.69 5905.47 2749.96C5922.35 2730.1 5939.09 2711.81 5949.67 2703.44L5943.46 2695.6ZM5951.56 2699.52C5951.56 2677.97 5969.01 2616.71 6041.7 2554.01L6035.17 2546.44C5960.86 2610.53 5941.56 2674.36 5941.56 2699.52L5951.56 2699.52ZM6020.43 2697.81C6021.92 2685.38 6026.3 2664.16 6034.63 2641.43C6042.97 2618.68 6055.12 2594.76 6071.96 2576.59L6064.62 2569.8C6046.55 2589.3 6033.82 2614.57 6025.24 2637.99C6016.65 2661.45 6012.08 2683.42 6010.5 2696.63L6020.43 2697.81ZM6449.8 2834.74C6426.75 2838.28 6397.26 2840.75 6364.28 2840.75L6364.28 2850.75C6397.73 2850.75 6427.73 2848.25 6451.32 2844.62L6449.8 2834.74ZM6364.28 2840.75C6306.88 2840.75 6239.19 2833.28 6176.57 2811.19C6113.96 2789.11 6056.73 2752.54 6019.68 2694.53L6011.25 2699.91C6049.85 2760.35 6109.24 2798.05 6173.24 2820.62C6237.23 2843.19 6306.12 2850.75 6364.28 2850.75L6364.28 2840.75ZM6700.37 3360.75L6280.61 3078.64L6275.03 3086.93L6694.79 3369.05L6700.37 3360.75ZM6280.61 3078.64L5860.84 2796.52L5855.26 2804.82L6275.03 3086.93L6280.61 3078.64ZM6360.1 2843.01C6343.66 2868.02 6319.63 2909.91 6300.82 2954.46C6282.11 2998.79 6268.14 3046.72 6272.86 3083.42L6282.78 3082.15C6278.43 3048.28 6291.39 3002.5 6310.03 2958.35C6328.57 2914.44 6352.3 2873.09 6368.46 2848.5L6360.1 2843.01ZM6672.09 3635.91L5964.31 3166.17L5958.78 3174.5L6666.56 3644.24L6672.09 3635.91ZM5964.31 3166.17L5723.87 3006.58L5718.34 3014.92L5958.78 3174.5L5964.31 3166.17ZM5748.56 3221.89C5756.5 3250.72 5762.55 3298.42 5760.29 3340.69L5770.28 3341.22C5772.59 3297.9 5766.43 3249.12 5758.2 3219.24L5748.56 3221.89ZM5760.29 3340.69C5759.22 3360.77 5756.29 3379.33 5750.98 3393.96C5745.62 3408.68 5738.16 3418.59 5728.59 3422.78L5732.6 3431.94C5745.82 3426.15 5754.62 3413.19 5760.37 3397.37C5766.16 3381.46 5769.18 3361.81 5770.28 3341.22L5760.29 3340.69ZM5956.64 3169.37C5951.24 3196.98 5937.49 3235.91 5913.38 3269.39C5889.31 3302.82 5855.2 3330.45 5809.04 3336.5L5810.34 3346.42C5860.06 3339.89 5896.37 3310.13 5921.5 3275.23C5946.59 3240.38 5960.82 3200.04 5966.46 3171.29L5956.64 3169.37ZM5809.04 3336.5C5795.77 3338.24 5781.45 3338.22 5765.99 3336.01L5764.58 3345.9C5780.89 3348.24 5796.13 3348.28 5810.34 3346.42L5809.04 3336.5ZM5813.65 3404.61C5816.48 3397.99 5819.83 3386.98 5820.9 3375.05C5821.96 3363.2 5820.84 3349.71 5813.91 3338.78L5805.46 3344.14C5810.71 3352.41 5811.91 3363.31 5810.94 3374.16C5809.97 3384.92 5806.92 3394.91 5804.45 3400.69L5813.65 3404.61ZM5824.37 3491.79C5803.63 3512.11 5766.24 3535.8 5721.88 3540.74C5677.85 3545.64 5626.36 3532.15 5576.67 3477.18L5569.26 3483.88C5620.99 3541.12 5675.6 3555.96 5722.99 3550.68C5770.05 3545.43 5809.41 3520.44 5831.37 3498.94L5824.37 3491.79ZM5585.94 3391.01C5593.28 3383.67 5606.73 3372.63 5622.92 3363.73C5639.17 3354.79 5657.64 3348.3 5675.18 3349.3L5675.75 3339.32C5655.54 3338.16 5635.12 3345.61 5618.1 3354.97C5601.02 3364.36 5586.82 3375.98 5578.87 3383.93L5585.94 3391.01ZM5605.27 3289.34C5614.47 3277.21 5644.66 3250.95 5689.42 3246.79L5688.49 3236.83C5640.46 3241.3 5607.88 3269.35 5597.3 3283.29L5605.27 3289.34ZM5089.96 3486C5085.15 3558.47 5114.25 3642.73 5168.74 3714.91L5176.72 3708.89C5123.3 3638.13 5095.33 3556.18 5099.94 3486.66L5089.96 3486ZM5168.74 3714.91C5196.56 3751.77 5230.87 3788.53 5271.34 3816.23L5276.99 3807.98C5237.69 3781.08 5204.13 3745.2 5176.72 3708.89L5168.74 3714.91ZM5474.81 3567.58C5451.88 3593.52 5409.1 3631.79 5355.61 3661.86C5302.1 3691.94 5238.33 3713.56 5173.24 3706.93L5172.22 3716.88C5240.11 3723.79 5305.99 3701.22 5360.51 3670.58C5415.05 3639.92 5458.69 3600.91 5482.3 3574.21L5474.81 3567.58ZM5099.57 3488.24C5132.67 3408.16 5202.29 3215.52 5215.17 3086.9L5205.22 3085.91C5192.5 3212.94 5123.4 3404.4 5090.33 3484.42L5099.57 3488.24ZM4655.96 2184.17C4657.63 2185.3 4657.69 2187.64 4656.25 2188.89L4649.7 2181.33C4646.26 2184.32 4646.49 2189.85 4650.37 2192.46L4655.96 2184.17ZM5359.95 2187.74C5354.19 2187.33 5347.79 2187.76 5341.91 2190.71L5346.39 2199.65C5350.02 2197.83 5354.38 2197.37 5359.24 2197.72L5359.95 2187.74ZM5386.21 2170.17C5379.96 2173.24 5375.2 2178.68 5373 2185.29L5382.49 2188.45C5383.84 2184.39 5386.77 2181.03 5390.62 2179.15L5386.21 2170.17ZM4703.08 2113.99C4699.03 2111.38 4693.78 2113.55 4692.5 2117.99L4702.12 2120.74C4701.6 2122.56 4699.41 2123.53 4697.66 2122.39L4703.08 2113.99ZM5333.86 2510.89C5322.85 2495.64 5318.54 2476.44 5320.05 2457.26L5310.08 2456.48C5308.42 2477.58 5313.11 2499.24 5325.75 2516.74L5333.86 2510.89ZM5540.83 2273.95C5549 2271.64 5555.64 2265.4 5558.13 2257.12L5548.55 2254.24C5547.09 2259.1 5543.14 2262.9 5538.11 2264.33L5540.83 2273.95ZM4966.05 3340.4C4961.57 3348.62 4966.67 3358.78 4975.93 3360.1L4977.35 3350.2C4974.99 3349.87 4973.69 3347.28 4974.83 3345.19L4966.05 3340.4ZM6677.17 3675.75C6668.29 3668.73 6665.88 3656.29 6671.47 3646.42L6662.77 3641.49C6654.76 3655.63 6658.2 3673.5 6670.97 3683.59L6677.17 3675.75Z" fill="#7481A1"/>
<path d="M3956.76 979.917C3925.8 956.25 3844.93 907.257 3680.26 927.669C3591.72 936.366 3516.72 963.089 3460.64 999.302M3956.76 979.917L3711.68 1144.99M3956.76 979.917L3995.19 954.453M3956.76 979.917L3958.65 1095.31M4454.87 1867.73L4769.36 2031.64M4454.87 1867.73L4460.49 2643.64M4454.87 1867.73L4454.84 1735.89M4454.87 1867.73L4416.98 1893.6M4820.1 2058.09L4769.36 2031.64M4046.35 920.56C3798.9 800.266 3518.25 851.083 3368.63 949.456C3342.48 970.368 3321.22 990.106 3303.96 1008.68M4046.35 920.56L4220.33 806.661M4046.35 920.56L4035.47 927.772M4046.35 920.56L4047.47 1040.37M4454.82 1657.94L4051.08 1426.55M4454.82 1657.94L4769.74 1834.73M4454.82 1657.94L4436.96 1670.23M4454.82 1657.94L4454.84 1735.89M4051.08 1426.55L4050.86 1403.29M4051.08 1426.55L4052.09 1535.13M5208.85 2081.23L5150.92 2048.71M5629.79 1422.13L5572.11 1387.38M4784.25 912.672L5572.11 1387.38M5572.11 1387.38L5549.25 1486.55L5571.75 1486.14M5572.11 1387.38L5596.98 1485.69L5571.75 1486.14M5569.56 2085.77L5571.75 1486.14M5150.92 2048.71L5129.65 2152.76L5150.88 2153.11M5150.92 2048.71L5172.33 2153.47L5150.88 2153.11M5150.92 2048.71L4769.74 1834.73M5150.81 2328.08L5150.88 2153.11M4769.74 1834.73L4796.49 1737.41H4745.6L4769.74 1834.73ZM4769.74 1834.73L4769.36 2031.64M4769.87 1633.28L4769.8 1734M4769.36 2031.64L4749.4 2124.8L4770.89 2124.14M4769.36 2031.64L4791.68 2123.5L4770.89 2124.14M4771.52 2162.53L4770.89 2124.14M3973.46 1998.62L3728.07 2168.91M3973.46 1998.62C3860.44 1928.66 3625.56 1919.26 3485.13 2037.79M3973.46 1998.62L3972.94 1966.87M3973.46 1998.62L3975.06 2096.44M4215.77 2031L4225.86 2521.79M4215.77 2031L4207.4 2036.72M4215.77 2031L4240.41 2014.17M4463.19 3016.12C4348.75 2933.8 4268.06 2787.95 4228.98 2615.87C4228.1 2612.03 4227.64 2608.09 4227.56 2604.15L4225.86 2521.79M4463.19 3016.12L4774.74 3184.13M4463.19 3016.12L4460.49 2643.64M4463.19 3016.12L4435.98 3035.87M4463.19 3016.12L4464.35 3052.69M4823.68 3210.52L4774.74 3184.13M4770.87 2266.76L4774.22 3062.43M4774.74 3184.13L4743.91 3061.88L4774.22 3062.43M4774.74 3184.13L4801.58 3062.92L4774.22 3062.43M4575.69 2560.12L4460.49 2643.64M4225.86 2521.79L4460.49 2643.64M4460.49 2643.64L3258.9 3506.67M3258.9 3506.67L3013.65 3393.48M3258.9 3506.67L3267.83 3818.49M3258.9 3506.67L3246.33 2711.16M3013.65 3393.48L3012.45 3359M3013.65 3393.48L2840.25 3460.43M3013.65 3393.48C3014.41 3402.34 3015.3 3411.06 3016.31 3419.65M3246.33 2711.16L3255.52 2704.84M3246.33 2711.16L3214.11 2695.25M3246.33 2711.16L3244.63 2672.92M3466.61 1310.07L3711.68 1144.99M3466.61 1310.07C3306.26 1225.19 3323.67 1087.76 3460.64 999.302M3466.61 1310.07C3466.61 1310.07 3457.9 1315.59 3445.22 1323.62M3466.61 1310.07L3468.09 1368.16M3354.83 3820.4L3413.39 3777.9M4469.74 3221.77L5095.06 3526.64M4469.74 3221.77L4441.23 3242.73M4469.74 3221.77L4467.04 3137.23M3655.25 3820.4L3675.37 3805.61M3492.63 2332.31L3728.07 2168.91M3492.63 2332.31L3489.89 2224.75M3492.63 2332.31L3493.31 2359.17M3209.23 3818.49C3205.67 3814.89 3202.14 3815.5 3198.64 3811.82M3237.36 2509.37L3271.55 2484.5M3237.36 2509.37L3239.01 2546.62M3237.36 2509.37L3231.27 2506.24M3402.08 2389.55C3402.08 2389.55 3270.49 2350.83 3263.71 2216.92C3263.69 2216.63 3263.69 2216.68 3263.68 2216.4C3263.37 2207.12 3236.85 1428.41 3236.85 1199.17M3402.08 2389.55C3402.08 2389.55 3401.44 2362.87 3400.34 2317.01M3402.08 2389.55L3379.46 2406M3377.6 1366.44C3377.6 1366.44 3280.96 1339.49 3236.85 1199.17M3377.6 1366.44C3386.65 1360.71 3397.01 1354.14 3407.4 1347.57M3377.6 1366.44C3378.13 1388.27 3378.67 1410.78 3379.22 1433.82M3711.68 1144.99L3460.64 999.302M3711.68 1144.99L3728.07 2168.91M3460.64 999.302L3103.91 806.145M3728.07 2168.91L3485.13 2037.79M3485.13 2037.79L3484.23 2002.22M3485.13 2037.79L3486.95 2109.08M3236.85 1199.17C3231.32 1163.55 3218.81 1100.32 3303.96 1008.68M3303.96 1008.68L2929.14 806.75M3407.4 1347.57L3379.22 1433.82M3407.4 1347.57C3420.93 1339 3434.49 1330.41 3445.22 1323.62M3379.22 1433.82C3380.14 1472.52 3381.1 1512.72 3382.09 1553.76M3445.22 1323.62L3382.09 1553.76M3382.09 1553.76C3383.06 1594.65 3384.06 1636.37 3385.06 1678.27M3468.09 1368.16L3385.06 1678.27M3468.09 1368.16L3471.73 1511.05M3385.06 1678.27C3386.02 1718.34 3386.98 1758.57 3387.94 1798.41M3471.73 1511.05L3387.94 1798.41M3471.73 1511.05L3474.35 1614.18M3387.94 1798.41C3388.96 1841.26 3389.98 1883.64 3390.96 1924.87M3474.35 1614.18L3390.96 1924.87M3474.35 1614.18L3477.42 1734.96M3390.96 1924.87C3392.02 1969.22 3393.05 2012.23 3394.03 2053.01M3477.42 1734.96L3394.03 2053.01M3477.42 1734.96L3481.28 1886.38M3394.03 2053.01C3395.15 2099.94 3396.2 2143.93 3397.15 2183.63M3481.28 1886.38L3397.15 2183.63M3481.28 1886.38L3484.23 2002.22M3397.15 2183.63C3398.43 2236.87 3399.51 2282.4 3400.34 2317.01M3484.23 2002.22L3400.34 2317.01M3486.95 2109.08L3372.1 2624.69M3486.95 2109.08L3489.89 2224.75M3372.1 2624.69L3409.22 2599.17M3372.1 2624.69L3331.72 2652.46M3409.22 2599.17L3489.89 2224.75M3409.22 2599.17L3438.67 2578.92M3493.31 2359.17L3438.67 2578.92M3493.31 2359.17L3495.59 2448.7M3438.67 2578.92L3468.27 2558.57M3495.59 2448.7L3497.04 2505.69C3497.56 2525.98 3487.78 2545.16 3471.05 2556.66L3468.27 2558.57M3495.59 2448.7L3468.27 2558.57M3379.46 2406L3331.72 2652.46M3379.46 2406L3350.21 2427.28M3331.72 2652.46L3300.07 2674.22M3350.21 2427.28L3300.07 2674.22M3350.21 2427.28L3317.23 2451.27M3300.07 2674.22L3255.52 2704.84M3255.52 2704.84L3317.23 2451.27M3317.23 2451.27L3271.55 2484.5M3271.55 2484.5L3241.01 2591.57M3241.01 2591.57L3241.64 2605.82M3241.01 2591.57L3240.21 2573.52M3214.11 2695.25L3244.63 2672.92M3214.11 2695.25L3160.41 2668.72M3244.63 2672.92L3243.03 2636.99M3243.03 2636.99L3160.41 2668.72M3243.03 2636.99L3241.64 2605.82M3160.41 2668.72L3128.73 2653.07M3128.73 2653.07L3241.64 2605.82M3128.73 2653.07L3082.81 2630.39M3240.21 2573.52L3082.81 2630.39M3240.21 2573.52L3239.01 2546.62M3082.81 2630.39L3051.7 2615.02M3051.7 2615.02L3239.01 2546.62M3051.7 2615.02L3008.07 2593.47M3231.27 2506.24L3008.07 2593.47M3231.27 2506.24L3194.59 2487.34M3008.07 2593.47L3000.08 2589.52C2993.42 2586.23 2985.66 2591.24 2985.92 2598.67V2598.67M2985.92 2598.67L2815.98 2660.6M2985.92 2598.67L2987.07 2631.7M2815.98 2660.6L2814.94 2626.07M2815.98 2660.6L2816.99 2693.84M2814.94 2626.07L3194.59 2487.34M2814.94 2626.07L2814.18 2600.99M3194.59 2487.34L3161.46 2470.27M3161.46 2470.27L2814.18 2600.99M3161.46 2470.27L3123.63 2450.78M2814.18 2600.99L2812.97 2561.22M2812.97 2561.22L3123.63 2450.78M2812.97 2561.22L2811.91 2526.24M3123.63 2450.78L3080.01 2428.3M3080.01 2428.3L2811.91 2526.24M3080.01 2428.3L3046.9 2411.25M2811.91 2526.24L2811 2496.45M2811 2496.45L3046.9 2411.25M2811 2496.45L2809.91 2460.47M3046.9 2411.25L3001.56 2387.89M3001.56 2387.89L2809.91 2460.47M3001.56 2387.89L2966.56 2369.85M2809.91 2460.47L2808.86 2425.9M2808.86 2425.9L2966.56 2369.85M2808.86 2425.9L2808.05 2398.95M2966.56 2369.85L2924.61 2348.24M2924.61 2348.24L2808.05 2398.95M2924.61 2348.24L2891.1 2330.98M2808.05 2398.95L2806.91 2361.58M2806.91 2361.58L2891.1 2330.98M2806.91 2361.58L2805.77 2324M2891.1 2330.98L2847.87 2308.7M2805.77 2324L2804.84 2293.21C2804.75 2290.17 2807.96 2288.14 2810.67 2289.54L2847.87 2308.7M2805.77 2324L2847.87 2308.7M2987.07 2631.7L2816.99 2693.84M2987.07 2631.7L2988.19 2663.79M2816.99 2693.84L2817.99 2726.86M2817.99 2726.86L2988.19 2663.79M2817.99 2726.86L2819.16 2765.26M2988.19 2663.79L2989.42 2698.9M2989.42 2698.9L2819.16 2765.26M2989.42 2698.9L2990.55 2731.41M2819.16 2765.26L2820.15 2797.81M2820.15 2797.81L2990.55 2731.41M2820.15 2797.81L2821.21 2832.87M2990.55 2731.41L2991.78 2766.56M2991.78 2766.56L2821.21 2832.87M2991.78 2766.56L2992.75 2794.47M2821.21 2832.87L2822.01 2859.15M2822.01 2859.15L2992.75 2794.47M2822.01 2859.15L2823.1 2895.05M2992.75 2794.47L2994.12 2833.76M2994.12 2833.76L2823.1 2895.05M2994.12 2833.76L2995.18 2864.2M2823.1 2895.05L2824.34 2935.95M2824.34 2935.95L2995.18 2864.2M2824.34 2935.95L2825.12 2961.81M2995.18 2864.2L2996.32 2896.75M2996.32 2896.75L2825.12 2961.81M2996.32 2896.75L2997.5 2930.52M2825.12 2961.81L2826.26 2999.46M2826.26 2999.46L2997.5 2930.52M2826.26 2999.46L2827.21 3030.7M2997.5 2930.52L2998.66 2963.95M2998.66 2963.95L2827.21 3030.7M2998.66 2963.95L2999.7 2993.57M2827.21 3030.7L2828.14 3061.21M2828.14 3061.21L2999.7 2993.57M2828.14 3061.21L2829.14 3094.18M2999.7 2993.57L3001.04 3032.02M3001.04 3032.02L2829.14 3094.18M3001.04 3032.02L3002.2 3065.39M2829.14 3094.18L2830.23 3130.05M2830.23 3130.05L3002.2 3065.39M2830.23 3130.05L2830.96 3154.28M3002.2 3065.39L3003.18 3093.32M3003.18 3093.32L2830.96 3154.28M3003.18 3093.32L3004.42 3128.86M2830.96 3154.28L2832.19 3194.79M2832.19 3194.79L3004.42 3128.86M2832.19 3194.79L2833.23 3229.19M3004.42 3128.86L3005.61 3162.95M2833.23 3229.19L3005.61 3162.95M2833.23 3229.19L2834.31 3264.5M3005.61 3162.95L3006.79 3196.96M3006.79 3196.96L2834.31 3264.5M3006.79 3196.96L3007.69 3222.55M2834.31 3264.5L2835.2 3293.83M2835.2 3293.83L3007.69 3222.55M2835.2 3293.83L2836.2 3327.03M3007.69 3222.55L3009.09 3262.82M3009.09 3262.82L2836.2 3327.03M3009.09 3262.82L3010.09 3291.37M2836.2 3327.03L2837.37 3365.67M2837.37 3365.67L3010.09 3291.37M2837.37 3365.67L2838.05 3387.83M3010.09 3291.37L3011.24 3324.53M3011.24 3324.53L2838.05 3387.83M3011.24 3324.53L3012.45 3359M2838.05 3387.83L2839.18 3425.24M2839.18 3425.24L3012.45 3359M2839.18 3425.24L2840.25 3460.43M2840.25 3460.43L2841.09 3488.12M2841.09 3488.12L3016.31 3419.65M2841.09 3488.12L2842.11 3521.76M3016.31 3419.65C3017.72 3431.62 3019.35 3443.34 3021.22 3454.8M3021.22 3454.8L2842.11 3521.76M3021.22 3454.8C3022.84 3464.83 3024.64 3474.67 3026.6 3484.32M2842.11 3521.76L2843.28 3560.3M2843.28 3560.3L3026.6 3484.32M2843.28 3560.3L2844.22 3591.36M3026.6 3484.32C3028.69 3494.59 3030.96 3504.64 3033.41 3514.5M3033.41 3514.5L2844.22 3591.36M3033.41 3514.5C3036 3524.93 3038.79 3535.14 3041.76 3545.13M2844.22 3591.36L2845.16 3622.45M2845.16 3622.45L3041.76 3545.13M2845.16 3622.45L2846.21 3656.84M3041.76 3545.13C3044.94 3555.8 3048.34 3566.23 3051.93 3576.42M3051.93 3576.42L2846.21 3656.84M3051.93 3576.42C3055.02 3585.18 3058.27 3593.76 3061.65 3602.18M2846.21 3656.84L2847.19 3689.14M2847.19 3689.14L3061.65 3602.18M2847.19 3689.14L2848.18 3721.9M3061.65 3602.18C3065.64 3612.11 3069.82 3621.8 3074.19 3631.27M3074.19 3631.27L2848.18 3721.9M3074.19 3631.27C3078.67 3640.97 3083.34 3650.44 3088.2 3659.69M2848.18 3721.9L2849.18 3754.66M2849.18 3754.66L3088.2 3659.69M2849.18 3754.66L2850.13 3786.09M3088.2 3659.69C3092.86 3668.56 3097.68 3677.24 3102.66 3685.72M3102.66 3685.72L2850.13 3786.09M3102.66 3685.72C3107.53 3694.01 3112.55 3702.12 3117.7 3710.06M2850.13 3786.09L2851.08 3818.49L3117.7 3710.06M3117.7 3710.06C3123.07 3718.33 3128.59 3726.41 3134.24 3734.31M3134.24 3734.31L2927.29 3818.49M3134.24 3734.31C3140.1 3742.49 3146.1 3750.48 3152.23 3758.29M3152.23 3758.29L3009.54 3818.49M3152.23 3758.29C3160.46 3768.77 3168.92 3778.93 3177.59 3788.8M3177.59 3788.8L3105.64 3818.49M3177.59 3788.8C3184.48 3796.65 3191.5 3804.32 3198.64 3811.82M3198.64 3811.82L3186.2 3818.49M3995.19 954.453L3958.65 1095.31M3995.19 954.453L4035.47 927.772M3958.65 1095.31L3960.72 1221.81M4035.47 927.772L3960.72 1221.81M3960.72 1221.81L3963.23 1374.78M4047.47 1040.37L3963.23 1374.78M4047.47 1040.37L4048.58 1159.39M3963.23 1374.78L3965.08 1487.72M4048.58 1159.39L3965.08 1487.72M4048.58 1159.39L4049.83 1292.97M3965.08 1487.72L3967.11 1611.63M4049.83 1292.97L3967.11 1611.63M4049.83 1292.97L4050.86 1403.29M3967.11 1611.63L3969.11 1733.2M4050.86 1403.29L3969.11 1733.2M3969.11 1733.2L3971.22 1861.89M4052.09 1535.13L3971.22 1861.89M4052.09 1535.13L4053.25 1659.04M3971.22 1861.89L3972.94 1966.87M4053.25 1659.04L3972.94 1966.87M4053.25 1659.04L4054.38 1779.8M4054.38 1779.8L3975.06 2096.44M4054.38 1779.8L4055.57 1907.65M3975.06 2096.44L3976.48 2183.13C3976.56 2187.91 3981.92 2190.69 3985.86 2187.99L3989.38 2185.59M4055.57 1907.65L4055.66 1917.5C4055.72 1923.91 4062.92 1927.65 4068.2 1924.02L4075.93 1918.7M4055.57 1907.65L3989.38 2185.59M3989.38 2185.59L4027.16 2159.8M4075.93 1918.7L4027.16 2159.8M4075.93 1918.7L4120.97 1887.7M4027.16 2159.8L4066.76 2132.75M4120.97 1887.7L4066.76 2132.75M4120.97 1887.7L4150.54 1867.35M4066.76 2132.75L4101.48 2109.04M4150.54 1867.35L4101.48 2109.04M4150.54 1867.35L4183.76 1844.49M4101.48 2109.04L4135.28 2085.96M4183.76 1844.49L4135.28 2085.96M4183.76 1844.49L4225.95 1815.45M4135.28 2085.96L4175.53 2058.48M4225.95 1815.45L4175.53 2058.48M4225.95 1815.45L4257.02 1794.07M4175.53 2058.48L4207.4 2036.72M4257.02 1794.07L4207.4 2036.72M4257.02 1794.07L4301.4 1763.52M4301.4 1763.52L4240.41 2014.17M4301.4 1763.52L4330.17 1743.72M4240.41 2014.17L4279.05 1987.79M4330.17 1743.72L4279.05 1987.79M4330.17 1743.72L4364.16 1720.33M4279.05 1987.79L4311.28 1965.78M4364.16 1720.33L4311.28 1965.78M4364.16 1720.33L4402.07 1694.24M4311.28 1965.78L4351.22 1938.51M4402.07 1694.24L4351.22 1938.51M4402.07 1694.24L4436.96 1670.23M4351.22 1938.51L4385.54 1915.07M4436.96 1670.23L4385.54 1915.07M4385.54 1915.07L4416.98 1893.6M4454.84 1735.89L4416.98 1893.6M3413.39 3777.9L3398.31 3821.03M3413.39 3777.9L3437.77 3760.21M3437.77 3760.21L3423.31 3820.01M3437.77 3760.21L3487.04 3724.46M3487.04 3724.46L3462.1 3818.99M3487.04 3724.46L3513.88 3704.98M3513.88 3704.98L3489.66 3818.99M3513.88 3704.98L3549.23 3679.33M3549.23 3679.33L3515.69 3818.99M3549.23 3679.33L3587.5 3651.56M3587.5 3651.56L3547.34 3818.99M3587.5 3651.56L3623.94 3625.11M3623.94 3625.11L3581.53 3821.03M3623.94 3625.11L3661.79 3597.65M3661.79 3597.65L3610.62 3821.03M3661.79 3597.65L3688.72 3578.11M3688.72 3578.11L3635.12 3818.99M3688.72 3578.11L3723.92 3552.56M3723.92 3552.56L3675.37 3805.61M3723.92 3552.56L3766.08 3521.98M3675.37 3805.61L3710.25 3779.97M3766.08 3521.98L3710.25 3779.97M3766.08 3521.98L3802.25 3495.73M3710.25 3779.97L3740.92 3757.43M3802.25 3495.73L3740.92 3757.43M3802.25 3495.73L3835.66 3471.49M3740.92 3757.43L3778.26 3729.99M3835.66 3471.49L3778.26 3729.99M3835.66 3471.49L3873.74 3443.85M3778.26 3729.99L3813.55 3704.05M3873.74 3443.85L3813.55 3704.05M3873.74 3443.85L3911.34 3416.57M3813.55 3704.05L3852.94 3675.1M3911.34 3416.57L3852.94 3675.1M3911.34 3416.57L3953.61 3385.89M3852.94 3675.1L3887.59 3649.64M3953.61 3385.89L3887.59 3649.64M3953.61 3385.89L3981.55 3365.62M3887.59 3649.64L3919.07 3626.5M3981.55 3365.62L3919.07 3626.5M3981.55 3365.62L4011.94 3343.56M3919.07 3626.5L3958.38 3597.61M4011.94 3343.56L3958.38 3597.61M4011.94 3343.56L4053.58 3313.35M3958.38 3597.61L3995.96 3569.98M3995.96 3569.98L4053.58 3313.35M3995.96 3569.98L4027.98 3546.46M4053.58 3313.35L4086.07 3289.78M4027.98 3546.46L4086.07 3289.78M4027.98 3546.46L4066.28 3518.3M4086.07 3289.78L4115.48 3268.44M4066.28 3518.3L4115.48 3268.44M4066.28 3518.3L4103.65 3490.84M4115.48 3268.44L4160.8 3235.55M4103.65 3490.84L4160.8 3235.55M4103.65 3490.84L4140.19 3463.98M4160.8 3235.55L4191.64 3213.17M4140.19 3463.98L4191.64 3213.17M4140.19 3463.98L4175.51 3438.02M4191.64 3213.17L4219.55 3192.92M4175.51 3438.02L4219.55 3192.92M4175.51 3438.02L4202.15 3418.44M4219.55 3192.92L4259.26 3164.1M4202.15 3418.44L4259.26 3164.1M4202.15 3418.44L4243.99 3387.69M4259.26 3164.1L4295.07 3138.12M4243.99 3387.69L4295.07 3138.12M4243.99 3387.69L4276.94 3363.47M4295.07 3138.12L4332.04 3111.29M4276.94 3363.47L4332.04 3111.29M4276.94 3363.47L4310.88 3338.53M4332.04 3111.29L4363.68 3088.33M4310.88 3338.53L4363.68 3088.33M4310.88 3338.53L4345.81 3312.85M4363.68 3088.33L4393.64 3066.59M4345.81 3312.85L4393.64 3066.59M4345.81 3312.85L4382.79 3285.67M4393.64 3066.59L4435.98 3035.87M4382.79 3285.67L4435.98 3035.87M4382.79 3285.67L4412.71 3263.68M4412.71 3263.68L4464.35 3052.69M4412.71 3263.68L4441.23 3242.73M4464.35 3052.69L4467.04 3137.23M4441.23 3242.73L4467.04 3137.23" stroke="#7481A1" stroke-width="10" stroke-linecap="round" stroke-linejoin="round"/>
<path d="M7249.32 3077.95C7718.1 3114.06 8139.27 3115.97 8309.09 2861.24C8420.09 2694.72 7847.51 2475.94 7822.52 2246.39C7802.68 2064.21 9037.16 1834.37 9037.99 1834.21C9038.01 1834.21 9038 1834.21 9038.02 1834.21C9299.28 1785.21 9716.49 1628.19 9817.52 1572.36" stroke="#7481A1" stroke-width="10" stroke-dasharray="155 155"/>
<path d="M8564.39 2767.6C8574.15 2588.62 8065.56 2313.76 8085.42 2252.44C8120.1 2145.37 8946.32 1970.13 9044.72 1950.5M8564.39 2767.6C8627.51 3337.09 7917.02 3456.94 7218.32 3430.16L7218.02 3282.73M8564.39 2767.6C8552.22 3256.77 7880.25 3310.26 7218.02 3282.73M9044.73 1661.92C8771.29 1738.83 7606.99 1948.08 7595.92 2261.64M7595.92 2261.64C7585.22 2565 8182.67 2736.88 8035.96 2902.38M7595.92 2261.64C7499.66 2605.9 7969.36 2700.69 8035.96 2902.38M8035.96 2902.38C7977.18 2968.68 7622.38 2946.68 7217.96 2923.18L7218.02 3282.73M8146.38 2327.09C8203.55 2208 8915.06 2082.65 9044.72 2050.49" stroke="#7481A1" stroke-width="10"/>
<path d="M2537.52 1856.58C2068.74 1897.52 1647.57 1899.69 1477.75 1610.9C1366.74 1422.12 1939.32 1174.09 1964.32 913.853C1984.16 707.247 1215.51 653.906 748.848 446.569C523.969 346.655 178.215 176.145 178.215 176.145" stroke="#7481A1" stroke-width="10" stroke-dasharray="155 155"/>
<path d="M1222.44 1504.74C1212.68 1301.84 1721.27 990.232 1701.41 920.714C1666.74 799.322 889.009 671.924 747.136 578.4M1222.44 1504.74C1159.32 2150.37 1869.81 2226 2568.51 2195.64L2568.81 2088.75M1222.44 1504.74C1234.61 2059.32 1906.58 2119.96 2568.81 2088.75M747.137 251.24C1231.79 551.642 2179.84 575.656 2190.91 931.141M2190.91 931.141C2201.61 1275.06 1604.16 1469.92 1750.87 1657.54M2190.91 931.141C2287.17 1321.42 1817.47 1428.89 1750.87 1657.54M1750.87 1657.54C1809.65 1732.71 2164.45 1707.77 2568.87 1681.13L2568.81 2088.75M1640.45 1005.34C1583.28 870.331 925.065 779.564 728.559 692.537" stroke="#7481A1" stroke-width="10"/>
</svg>
