<svg width="8281" height="4763" viewBox="0 0 8281 4763" fill="none" xmlns="http://www.w3.org/2000/svg">
<path d="M209.511 470.001C515.062 596.478 781.37 716.557 999.505 1022.52C1121.1 1193.08 1441.56 2238.11 2050.59 2238.11M308.401 153.879C607.397 195.28 1035.86 450.836 1169.78 649.139C1511.75 1155.5 1497.94 1337.22 1764.95 1694.29C1815.7 1762.16 1934.61 1864.89 2019.34 1866.78C2073.53 1867.98 2121.66 1868.1 2121.66 1868.1M170.406 604.673C170.406 604.673 603.13 684.104 866.637 1081.85C1149.05 1547.34 1452.64 2336.14 2050.59 2336.14" stroke="#7481A1" stroke-width="10" stroke-linejoin="round"/>
<path d="M2308.83 2032.2C2308.83 2032.2 2024.87 2063.3 1918.85 2020.95C1388 1701.3 1536.41 1541.48 1155.54 933.4C900.115 547.846 493.319 366.137 468.618 355.358C467.817 355.009 467.022 354.694 466.201 354.394C295.856 291.997 303.77 291.887 82.9766 250.484" stroke="#7481A1" stroke-width="10" stroke-linecap="round" stroke-linejoin="round" stroke-dasharray="87 87"/>
<path d="M1576.5 1392.82V338.543C1576.5 305.406 1603.36 278.543 1636.5 278.543H6644.4C6677.54 278.543 6704.4 305.406 6704.4 338.543V711.989M1576.5 2144.93V4419.26C1576.5 4452.39 1603.36 4479.26 1636.5 4479.26H6644.4C6677.54 4479.26 6704.4 4452.39 6704.4 4419.26V1126.13" stroke="#7481A1" stroke-width="10"/>
<path d="M4435.08 3296.45L4430.26 3297.78C4430.51 3298.7 4431.02 3299.52 4431.72 3300.16L4435.08 3296.45ZM4479.44 3153.72L4481.34 3158.34L4481.34 3158.34L4479.44 3153.72ZM4845.92 3238.58L4850.01 3235.72L4850.01 3235.72L4845.92 3238.58ZM4965.51 3425.68L4961.28 3428.35C4961.36 3428.48 4961.45 3428.61 4961.54 3428.73L4965.51 3425.68ZM5000.22 3518.27L4995.24 3517.81C4995.11 3519.29 4995.64 3520.75 4996.69 3521.8L5000.22 3518.27ZM5063.88 3689.93L5059.09 3688.48C5058.68 3689.84 5058.86 3691.31 5059.6 3692.52L5063.88 3689.93ZM5087.02 3823.02L5082.62 3820.65C5082.01 3821.78 5081.86 3823.11 5082.2 3824.35L5087.02 3823.02ZM5061.95 4050.62L5059.94 4046.04C5057.67 4047.04 5056.47 4049.55 5057.13 4051.95C5057.78 4054.34 5060.1 4055.89 5062.56 4055.59L5061.95 4050.62ZM5421.46 4311.69L5417.2 4314.32C5418.02 4315.65 5419.43 4316.52 5420.99 4316.67L5421.46 4311.69ZM5477.28 4316.1L5476.94 4321.09L5476.94 4321.09L5477.28 4316.1ZM5675.15 4203.8L5675.28 4208.8C5676.97 4208.75 5678.53 4207.85 5679.41 4206.41L5675.15 4203.8ZM6140.49 4204.72L6141.58 4199.84C6139.43 4199.37 6137.23 4200.35 6136.14 4202.26L6140.49 4204.72ZM6175.87 4262.21L6173.22 4266.45L6173.22 4266.45L6175.87 4262.21ZM4922.12 3357.21L4917.9 3359.89L4917.9 3359.89L4922.12 3357.21ZM4924.35 3334.13L4919.51 3332.87L4919.51 3332.87L4924.35 3334.13ZM5051.51 3592.1L5046.97 3594.21L5046.97 3594.21L5051.51 3592.1ZM4618.2 2930.81L4614.49 2927.46L4614.49 2927.46L4618.2 2930.81ZM4957.87 2572.97L4960.11 2577.45C4961.06 2576.97 4961.84 2576.2 4962.33 2575.25L4957.87 2572.97ZM5090.47 2387.7L5088.68 2383.03L5088.68 2383.03L5090.47 2387.7ZM5328.42 2307.78L5328.75 2312.77C5329.09 2312.74 5329.43 2312.69 5329.76 2312.6L5328.42 2307.78ZM5613.6 2242.39L5613.76 2247.38L5613.76 2247.38L5613.6 2242.39ZM6229.72 2245.47L6233.92 2242.75C6233.61 2242.27 6233.21 2241.84 6232.76 2241.49L6229.72 2245.47ZM6263.21 2298.26L6258.61 2300.23L6258.61 2300.23L6263.21 2298.26ZM6265.55 2306.7L6265.55 2301.7L6265.55 2306.7ZM6283.85 2305.3L6287.69 2302.1C6286.63 2300.83 6285.01 2300.16 6283.37 2300.32L6283.85 2305.3ZM6416.79 2466.89L6420.57 2463.61C6420.37 2463.38 6420.16 2463.18 6419.93 2463L6416.79 2466.89ZM5335.21 2815.67L5339.94 2817.29C5340.12 2816.76 5340.21 2816.22 5340.21 2815.67L5335.21 2815.67ZM5356.22 2784.15L5356.22 2789.15L5356.22 2784.15ZM5641.99 2832.48L5640.32 2827.76L5640.32 2827.76L5641.99 2832.48ZM5694.52 2832.48L5691.52 2836.48C5692.44 2837.17 5693.58 2837.52 5694.73 2837.47L5694.52 2832.48ZM5836.84 2807.7L5835.22 2802.97L5835.22 2802.97L5836.84 2807.7ZM5862.62 2851.39L5867.62 2851.39C5867.62 2848.8 5865.65 2846.64 5863.07 2846.41L5862.62 2851.39ZM6058.03 3195.99L6062.4 3193.56C6062.13 3193.06 6061.77 3192.61 6061.34 3192.24L6058.03 3195.99ZM6366.91 3397.7L6367.07 3402.7C6367.96 3402.67 6368.81 3402.41 6369.56 3401.94L6366.91 3397.7ZM6085.35 3542.69L6090.04 3540.96L6090.04 3540.96L6085.35 3542.69ZM6434.97 3913.4L6435.17 3918.4L6434.97 3913.4ZM5619.39 3019.24L5615.08 3016.71C5614.09 3018.39 5614.17 3020.5 5615.3 3022.11L5619.39 3019.24ZM5648.35 2950.24L5652.98 2952.11L5652.98 2952.11L5648.35 2950.24ZM5511.44 2972.54L5514.57 2976.44L5514.57 2976.44L5511.44 2972.54ZM4981.53 3141.14L4978.41 3145.05L4978.41 3145.05L4981.53 3141.14ZM4933.69 3129.78L4935.88 3134.27L4935.88 3134.27L4933.69 3129.78ZM4983.62 2525.48L4987.96 2527.96L4987.96 2527.96L4983.62 2525.48ZM4671.03 2693.02L4670.68 2698C4672.96 2698.17 4675.05 2696.77 4675.78 2694.6L4671.03 2693.02ZM4622.29 3610.68L4622.47 3605.69L4622.29 3610.68ZM4677.59 3561.94L4681.91 3564.47C4682.12 3564.12 4682.28 3563.74 4682.39 3563.36L4677.59 3561.94ZM4680.41 3291.05L4683.61 3287.21C4683.3 3286.95 4682.96 3286.73 4682.6 3286.55L4680.41 3291.05ZM4668.72 3575.43L4672.76 3578.37L4672.76 3578.37L4668.72 3575.43ZM4606.84 2963.26L4611.77 2964.05L4611.77 2964.05L4606.84 2963.26ZM4041.18 2891.15L4037.38 2894.4C4037.65 2894.72 4037.96 2895 4038.3 2895.24L4041.18 2891.15ZM4448.33 3177.47L4452.31 3180.49L4452.31 3180.49L4448.33 3177.47ZM4073.55 2759.3L4077.54 2762.32L4077.54 2762.32L4073.55 2759.3ZM4046.73 2801.92L4051.21 2804.13L4046.73 2801.92ZM3801.52 2561.83L3804.25 2557.64C3802.25 2556.33 3799.59 2556.63 3797.92 2558.35L3801.52 2561.83ZM3774.9 2589.43L3771.3 2585.96C3770.28 2587.02 3769.78 2588.48 3769.93 2589.94C3770.08 2591.41 3770.86 2592.73 3772.08 2593.56L3774.9 2589.43ZM3890.95 2668.79L3894.63 2672.18L3890.95 2668.79ZM3738.42 2527.32L3741.34 2523.26C3739.3 2521.79 3736.49 2522.06 3734.77 2523.9L3738.42 2527.32ZM3724.8 2541.87L3721.15 2538.45C3720.16 2539.5 3719.68 2540.93 3719.82 2542.37C3719.97 2543.8 3720.72 2545.1 3721.9 2545.94L3724.8 2541.87ZM4201.03 3388.18L4196.98 3385.25L4196.16 3386.38L4196.05 3387.76L4201.03 3388.18ZM4359.18 3573.13L4359.63 3568.15L4359.52 3568.14L4359.41 3568.13L4359.18 3573.13ZM4429.64 3266.68L4434.61 3266.17L4429.64 3266.68ZM4366.79 3344.26L4369.42 3348.51L4366.79 3344.26ZM4385.95 3574.23L4385.97 3569.23L4385.95 3574.23ZM4370.84 3690.9L4375.23 3693.29L4375.68 3692.47L4375.8 3691.54L4370.84 3690.9ZM4232.13 3971.15L4231.61 3966.18C4229.27 3966.43 4227.42 3968.27 4227.16 3970.61L4232.13 3971.15ZM4348.2 3958.88L4348.72 3963.86L4351.46 3963.57L4352.68 3961.11L4348.2 3958.88ZM5854.35 3403.82L5859.34 3404.12L5854.35 3403.82ZM5202.23 3360.88L5199.44 3365.03L5199.44 3365.03L5202.23 3360.88ZM5759.39 3410.5L5759.39 3405.5L5759.39 3410.5ZM5316.14 3767.73L5318.9 3763.57L5318.9 3763.57L5316.14 3767.73ZM3875.89 2686.76L3873.1 2690.91L3873.1 2690.91L3875.89 2686.76ZM3875.71 2683.56L3872.44 2679.78L3875.71 2683.56ZM4652.81 2691.72L4652.45 2696.7L4652.81 2691.72ZM4637.36 2694.11L4635.18 2689.61L4637.36 2694.11ZM4684.55 2672.27L4686.75 2676.76L4684.55 2672.27ZM4673.88 2684.48L4678.62 2686.06L4673.88 2684.48ZM3927.83 2609.58L3930.54 2605.38L3927.83 2609.58ZM3924.78 2610.76L3919.97 2609.39L3924.78 2610.76ZM4619.05 3042.66L4623.16 3039.8L4619.05 3042.66ZM4604.38 2985.56L4599.39 2985.22L4604.38 2985.56ZM4866.53 2762.15L4861.74 2760.71L4866.53 2762.15ZM4225.32 3957.55L4220.93 3955.15L4225.32 3957.55ZM6098.48 4326.84L6101.58 4322.91L6098.48 4326.84ZM6091.51 4291.11L6087.16 4288.64L6091.51 4291.11ZM4481.34 3158.34C4556.33 3127.58 4610.79 3114.7 4670.7 3135.3L4673.95 3125.84C4610.41 3104 4553 3118.13 4477.55 3149.09L4481.34 3158.34ZM4670.7 3135.3C4700.98 3145.71 4740.6 3167.63 4774.49 3189.5C4791.39 3200.41 4806.76 3211.24 4818.71 3220.5C4830.87 3229.94 4838.94 3237.34 4841.82 3241.45L4850.01 3235.72C4846.14 3230.18 4836.85 3221.92 4824.84 3212.6C4812.62 3203.12 4797.01 3192.13 4779.91 3181.1C4745.81 3159.09 4705.38 3136.65 4673.95 3125.84L4670.7 3135.3ZM4961.54 3428.73C4967.75 3436.8 4976.99 3451.12 4984.27 3467.54C4991.6 3484.05 4996.67 3502.09 4995.24 3517.81L5005.2 3518.72C5006.86 3500.5 5001.01 3480.6 4993.41 3463.48C4985.78 3446.28 4976.12 3431.28 4969.47 3422.63L4961.54 3428.73ZM5059.6 3692.52C5067.75 3706.01 5078.72 3728.8 5084.98 3753.05C5091.28 3777.49 5092.51 3802.29 5082.62 3820.65L5091.42 3825.39C5103.14 3803.64 5101.15 3775.72 5094.66 3750.55C5088.12 3725.2 5076.72 3701.5 5068.15 3687.34L5059.6 3692.52ZM5062.56 4055.59C5072.2 4054.38 5079.32 4048.75 5085.12 4042.66C5088.02 4039.62 5090.75 4036.29 5093.33 4033.17C5095.96 4030 5098.44 4027.04 5101.04 4024.42C5106.22 4019.21 5111.3 4015.96 5117.55 4015.64C5123.94 4015.31 5132.71 4017.98 5145.3 4027.43L5151.3 4019.43C5137.86 4009.34 5126.78 4005.15 5117.04 4005.65C5107.18 4006.15 5099.88 4011.4 5093.94 4017.37C5090.98 4020.35 5088.23 4023.65 5085.63 4026.8C5082.98 4030 5080.49 4033.03 5077.88 4035.77C5072.65 4041.25 5067.55 4044.89 5061.33 4045.66L5062.56 4055.59ZM5144.81 4027C5184.69 4065.92 5246.2 4127.02 5301.1 4183.85C5328.55 4212.26 5354.32 4239.58 5374.9 4262.5C5395.59 4285.55 5410.73 4303.83 5417.2 4314.32L5425.71 4309.07C5418.7 4297.7 5402.93 4278.76 5382.34 4255.82C5361.65 4232.77 5335.78 4205.35 5308.29 4176.9C5253.31 4119.99 5191.72 4058.81 5151.79 4019.85L5144.81 4027ZM5420.99 4316.67C5436.11 4318.09 5455.06 4319.62 5476.94 4321.09L5477.62 4311.11C5455.81 4309.64 5436.94 4308.12 5421.92 4306.71L5420.99 4316.67ZM5476.94 4321.09C5581.75 4328.16 5754.14 4334.04 5893.06 4319.93L5892.05 4309.98C5753.97 4324 5582.24 4318.18 5477.62 4311.11L5476.94 4321.09ZM5480.42 4320C5503.19 4301.65 5540.39 4274.03 5577.87 4250.86C5596.61 4239.28 5615.33 4228.86 5632.3 4221.28C5649.39 4213.64 5664.2 4209.1 5675.28 4208.8L5675.01 4198.8C5661.9 4199.16 5645.61 4204.37 5628.22 4212.15C5610.7 4219.98 5591.57 4230.64 5572.61 4242.36C5534.7 4265.79 5497.16 4293.67 5474.14 4312.21L5480.42 4320ZM5679.41 4206.41C5688.1 4192.2 5705.75 4170.36 5730.21 4151.62C5754.65 4132.9 5785.58 4117.51 5820.89 4115.62L5820.36 4105.64C5782.44 4107.67 5749.62 4124.16 5724.13 4143.68C5698.65 4163.2 5680.18 4185.98 5670.88 4201.19L5679.41 4206.41ZM6291.21 4469.08C6287.47 4466.84 6277.97 4459.95 6264.48 4449.79C6251.11 4439.72 6234.09 4426.63 6215.47 4412.2C6178.25 4383.34 6134.74 4349.13 6101.58 4322.91L6095.38 4330.76C6128.55 4356.98 6172.09 4391.22 6209.34 4420.1C6227.97 4434.55 6245.04 4447.66 6258.47 4457.78C6271.78 4467.8 6281.77 4475.08 6286.06 4477.66L6291.21 4469.08ZM6139.41 4209.6C6158.45 4213.84 6190.46 4227.94 6224.23 4252.33C6257.92 4276.66 6293.04 4310.98 6318.57 4355.36L6327.24 4350.37C6300.86 4304.52 6264.67 4269.19 6230.08 4244.22C6195.57 4219.3 6162.33 4204.45 6141.58 4199.84L6139.41 4209.6ZM6135.66 4206C6138.51 4216.86 6143.09 4228.88 6149.28 4239.69C6155.45 4250.44 6163.41 4260.32 6173.22 4266.45L6178.52 4257.97C6170.64 4253.04 6163.68 4244.69 6157.96 4234.71C6152.27 4224.78 6148 4213.6 6145.33 4203.45L6135.66 4206ZM6173.22 4266.45C6187.26 4275.23 6275.72 4331.71 6320.43 4357.21L6325.38 4348.52C6280.91 4323.16 6192.78 4266.89 6178.52 4257.97L6173.22 4266.45ZM6320.11 4357.01L6499.21 4477.52L6504.79 4469.22L6325.7 4348.72L6320.11 4357.01ZM4841.82 3241.45C4849.01 3251.72 4884.54 3307.37 4917.9 3359.89L4926.34 3354.53C4893.09 3302.17 4857.37 3246.22 4850.01 3235.72L4841.82 3241.45ZM4917.9 3359.89C4934.08 3385.38 4949.72 3410.06 4961.28 3428.35L4969.73 3423.01C4958.16 3404.71 4942.53 3380.02 4926.34 3354.53L4917.9 3359.89ZM5013.72 3228.16L4892.09 3146.42L4886.52 3154.72L5008.14 3236.46L5013.72 3228.16ZM4927.08 3356.6C4926.48 3351.75 4926.84 3344.46 4929.19 3335.38L4919.51 3332.87C4916.93 3342.87 4916.37 3351.45 4917.16 3357.83L4927.08 3356.6ZM4929.19 3335.38C4935.74 3310.1 4957.48 3271.87 5013.59 3236.54L5008.26 3228.08C4950.34 3264.54 4926.79 3304.76 4919.51 3332.87L4929.19 3335.38ZM4921.55 3338.26L6601.58 4478.52L6607.19 4470.25L4927.16 3329.99L4921.55 3338.26ZM6095.86 4293.58C6097 4291.56 6098.21 4289.43 6099.47 4287.21L6090.77 4282.28C6089.51 4284.5 6088.31 4286.63 6087.16 4288.64L6095.86 4293.58ZM6099.47 4287.21C6112.39 4264.41 6130.91 4231.76 6144.84 4207.19L6136.14 4202.26C6122.21 4226.83 6103.7 4259.48 6090.77 4282.28L6099.47 4287.21ZM4996.69 3521.8C5011.42 3536.53 5032.5 3563.12 5046.97 3594.21L5056.04 3589.99C5040.99 3557.68 5019.17 3530.15 5003.76 3514.73L4996.69 3521.8ZM5046.97 3594.21C5060.93 3624.18 5068.42 3657.62 5059.09 3688.48L5068.66 3691.38C5079 3657.17 5070.49 3621.02 5056.04 3589.99L5046.97 3594.21ZM4889.05 3145.58C4856.4 3147.22 4805.66 3143.58 4755.13 3128.02C4704.57 3112.45 4654.76 3085.12 4623.16 3039.8L4614.95 3045.52C4648.3 3093.34 4700.44 3121.64 4752.19 3137.57C4803.96 3153.52 4855.87 3157.26 4889.56 3155.57L4889.05 3145.58ZM4621.92 2934.15C4629.69 2925.52 4658.79 2895.11 4700.5 2862.81C4742.24 2830.48 4796.3 2796.51 4854.01 2780.38L4851.32 2770.75C4791.84 2787.37 4736.59 2822.2 4694.37 2854.9C4652.11 2887.63 4622.58 2918.47 4614.49 2927.46L4621.92 2934.15ZM4871.32 2763.58C4880.6 2732.57 4895.15 2689.59 4911.43 2652.39C4919.58 2633.77 4928.1 2616.74 4936.56 2603.4C4945.16 2589.83 4953.2 2580.9 4960.11 2577.45L4955.64 2568.5C4946.09 2573.28 4936.82 2584.32 4928.12 2598.04C4919.28 2611.98 4910.52 2629.54 4902.27 2648.38C4885.77 2686.08 4871.09 2729.46 4861.74 2760.71L4871.32 2763.58ZM5092.27 2392.37C5116.12 2383.19 5161.66 2364.24 5208.45 2346.98C5231.79 2338.37 5255.29 2330.24 5276.31 2324.04C5297.42 2317.81 5315.71 2313.64 5328.75 2312.77L5328.09 2302.79C5313.89 2303.74 5294.72 2308.19 5273.48 2314.45C5252.16 2320.74 5228.43 2328.95 5204.99 2337.6C5158.24 2354.85 5112.05 2374.05 5088.68 2383.03L5092.27 2392.37ZM5329.76 2312.6C5367.86 2302.01 5427.84 2286.04 5483.9 2272.54C5511.93 2265.79 5538.94 2259.67 5561.74 2255.14C5584.64 2250.6 5602.96 2247.73 5613.76 2247.38L5613.44 2237.39C5601.72 2237.77 5582.66 2240.79 5559.79 2245.33C5536.81 2249.89 5509.65 2256.05 5481.56 2262.82C5425.36 2276.35 5365.27 2292.35 5327.08 2302.96L5329.76 2312.6ZM5613.76 2247.38C5641.77 2246.48 5669.81 2246.93 5697.75 2247.39C5725.66 2247.84 5753.48 2248.3 5780.88 2247.38L5780.54 2237.39C5753.44 2238.29 5725.87 2237.84 5697.92 2237.39C5670.01 2236.93 5641.73 2236.48 5613.44 2237.39L5613.76 2247.38ZM5780.88 2247.38C5795.05 2246.91 5817.53 2242.59 5843.28 2236.64C5869.16 2230.67 5898.81 2222.93 5927.51 2215.44C5956.26 2207.94 5984.04 2200.7 6006.34 2195.67C6017.49 2193.15 6027.17 2191.21 6034.87 2190.07C6042.82 2188.89 6047.94 2188.68 6050.38 2189.17L6052.34 2179.36C6047.96 2178.48 6041.22 2179.01 6033.4 2180.18C6025.34 2181.37 6015.38 2183.38 6004.14 2185.91C5981.64 2190.99 5953.68 2198.28 5924.99 2205.76C5896.25 2213.26 5866.75 2220.96 5841.03 2226.9C5815.18 2232.87 5793.61 2236.95 5780.54 2237.39L5780.88 2247.38ZM6050.38 2189.17C6057.84 2190.66 6066.76 2190.27 6076.43 2190.19C6086.35 2190.11 6097.89 2190.31 6111.68 2192.68C6139.19 2197.42 6176.24 2210.97 6226.69 2249.44L6232.76 2241.49C6181.28 2202.23 6142.76 2187.89 6113.38 2182.83C6098.73 2180.3 6086.5 2180.11 6076.35 2180.19C6065.94 2180.28 6058.49 2180.59 6052.34 2179.36L6050.38 2189.17ZM6225.53 2248.19C6230.87 2256.43 6238.95 2268.96 6245.84 2279.76C6249.28 2285.16 6252.42 2290.11 6254.76 2293.87C6255.93 2295.75 6256.9 2297.32 6257.59 2298.48C6258.39 2299.81 6258.64 2300.29 6258.61 2300.23L6267.8 2296.29C6267.5 2295.58 6266.82 2294.43 6266.17 2293.35C6265.43 2292.1 6264.43 2290.48 6263.25 2288.58C6260.88 2284.77 6257.72 2279.79 6254.27 2274.38C6247.37 2263.56 6239.27 2251.01 6233.92 2242.75L6225.53 2248.19ZM6258.61 2300.23C6258.56 2300.11 6258.65 2300.23 6258.64 2300.93C6258.64 2301.24 6258.62 2301.6 6258.59 2302.05C6258.56 2302.45 6258.52 2303.02 6258.5 2303.54C6258.48 2304.37 6258.41 2306.36 6259.39 2308.2C6259.97 2309.29 6260.88 2310.27 6262.13 2310.92C6263.32 2311.53 6264.53 2311.7 6265.55 2311.7L6265.55 2301.7C6265.63 2301.7 6266.11 2301.71 6266.73 2302.03C6267.42 2302.39 6267.92 2302.94 6268.21 2303.49C6268.34 2303.73 6268.41 2303.94 6268.45 2304.07C6268.49 2304.21 6268.5 2304.29 6268.5 2304.3C6268.5 2304.31 6268.49 2304.2 6268.5 2303.89C6268.51 2303.56 6268.53 2303.22 6268.57 2302.7C6268.6 2302.23 6268.64 2301.63 6268.64 2301C6268.65 2299.81 6268.56 2298.05 6267.8 2296.29L6258.61 2300.23ZM6265.55 2311.7C6268.86 2311.7 6279.62 2310.73 6284.33 2310.27L6283.37 2300.32C6278.38 2300.8 6268.25 2301.7 6265.55 2301.7L6265.55 2311.7ZM6280 2308.49C6293.9 2325.2 6314.95 2350.96 6332.94 2373.93C6341.94 2385.42 6350.14 2396.18 6356.28 2404.74C6359.36 2409.02 6361.89 2412.71 6363.74 2415.64C6365.69 2418.74 6366.57 2420.52 6366.77 2421.19L6376.35 2418.31C6375.71 2416.16 6374.08 2413.3 6372.19 2410.3C6370.2 2407.13 6367.54 2403.26 6364.41 2398.9C6358.14 2390.18 6349.84 2379.3 6340.81 2367.77C6322.74 2344.69 6301.63 2318.85 6287.69 2302.1L6280 2308.49ZM6366.77 2421.19C6367.92 2425.02 6370.89 2429.34 6374.26 2433.47C6377.75 2437.76 6382.16 2442.41 6386.82 2446.98C6396.14 2456.12 6406.73 2465.2 6413.65 2470.78L6419.93 2463C6413.19 2457.56 6402.85 2448.7 6393.82 2439.84C6389.3 2435.4 6385.18 2431.04 6382.01 2427.15C6378.71 2423.11 6376.89 2420.1 6376.35 2418.31L6366.77 2421.19ZM6413.02 2470.17L6694.03 2793.33L6701.57 2786.77L6420.57 2463.61L6413.02 2470.17ZM5340.21 2815.67C5340.21 2810.9 5341.19 2803.82 5343.92 2798.13C5346.6 2792.56 5350.45 2789.15 5356.22 2789.15L5356.22 2779.15C5345.19 2779.15 5338.54 2786.24 5334.91 2793.8C5331.33 2801.25 5330.21 2809.93 5330.21 2815.67L5340.21 2815.67ZM5356.22 2789.15C5359.47 2789.15 5362.98 2791.01 5367.29 2795.26C5371.59 2799.5 5375.77 2805.16 5380.65 2811.39C5385.38 2817.44 5390.68 2823.9 5396.83 2828.83C5403.04 2833.81 5410.42 2837.48 5419.26 2837.48L5419.26 2827.48C5413.39 2827.48 5408.16 2825.1 5403.08 2821.03C5397.93 2816.89 5393.25 2811.27 5388.53 2805.23C5383.95 2799.39 5379.21 2792.96 5374.31 2788.14C5369.43 2783.33 5363.49 2779.15 5356.22 2779.15L5356.22 2789.15ZM5419.26 2837.48C5433.92 2837.48 5480.15 2840.61 5528.1 2842.2C5551.9 2842.99 5575.99 2843.39 5596.4 2842.79C5616.56 2842.2 5633.88 2840.64 5643.65 2837.19L5640.32 2827.76C5632.24 2830.61 5616.46 2832.2 5596.11 2832.8C5576.01 2833.38 5552.16 2832.99 5528.43 2832.21C5481.29 2830.64 5434.02 2827.48 5419.26 2827.48L5419.26 2837.48ZM5643.65 2837.19C5671.18 2827.48 5687.65 2833.57 5691.52 2836.48L5697.52 2828.48C5690.19 2822.98 5669.95 2817.3 5640.32 2827.76L5643.65 2837.19ZM5694.73 2837.47C5728.36 2836.03 5789.69 2829.11 5838.45 2812.43L5835.22 2802.97C5787.72 2819.21 5727.45 2826.06 5694.31 2827.48L5694.73 2837.47ZM5838.45 2812.43C5861.25 2804.64 5881.84 2794.54 5895.49 2781.45L5888.58 2774.23C5876.48 2785.82 5857.52 2795.35 5835.22 2802.97L5838.45 2812.43ZM5831.85 2808.02C5832.32 2815.36 5834.23 2826.48 5838.56 2836.16C5842.81 2845.63 5850.14 2855.27 5862.16 2856.37L5863.07 2846.41C5856.6 2845.82 5851.49 2840.55 5847.69 2832.07C5843.98 2823.78 5842.24 2813.91 5841.82 2807.38L5831.85 2808.02ZM5857.62 2851.39C5857.62 2910.39 5897.43 3061.04 6054.73 3199.74L6061.34 3192.24C5905.98 3055.25 5867.62 2907.25 5867.62 2851.39L5857.62 2851.39ZM6369.56 3401.94C6383.07 3393.5 6443.94 3353.53 6472.62 3334.64L6467.12 3326.29C6438.37 3345.22 6377.64 3385.1 6364.26 3393.46L6369.56 3401.94ZM6109.01 3274.67C6166.4 3338.92 6256.79 3406.3 6367.07 3402.7L6366.75 3392.71C6260.81 3396.16 6173.04 3331.35 6116.46 3268.01L6109.01 3274.67ZM6107.94 3269.92C6098.42 3302.02 6085.63 3354.13 6078.17 3406.29C6074.43 3432.37 6072.02 3458.56 6072.04 3482.32C6072.05 3506.01 6074.48 3527.64 6080.66 3544.42L6090.04 3540.96C6084.45 3525.79 6082.05 3505.52 6082.04 3482.31C6082.02 3459.18 6084.38 3433.5 6088.07 3407.71C6095.45 3356.12 6108.12 3304.49 6117.53 3272.76L6107.94 3269.92ZM6080.66 3544.42C6095.42 3584.47 6127.8 3680.64 6159.44 3768.17C6175.21 3811.78 6190.74 3853.12 6203.66 3883.84C6210.11 3899.18 6215.97 3912 6220.91 3921.16C6223.37 3925.73 6225.69 3929.54 6227.82 3932.34C6228.88 3933.73 6229.99 3935 6231.15 3936.01C6232.23 3936.96 6233.76 3938.04 6235.66 3938.42L6237.62 3928.61C6238.2 3928.73 6238.26 3928.95 6237.73 3928.48C6237.27 3928.08 6236.61 3927.38 6235.78 3926.28C6234.11 3924.09 6232.07 3920.8 6229.71 3916.41C6225 3907.68 6219.29 3895.22 6212.88 3879.96C6200.06 3849.49 6184.6 3808.35 6168.85 3764.77C6137.45 3677.9 6104.7 3580.75 6090.04 3540.96L6080.66 3544.42ZM6700.56 4361.85L6129.01 3977.73L6123.44 3986.03L6694.98 4370.15L6700.56 4361.85ZM6128.23 3986.46L6238.64 3938.09L6234.63 3928.93L6124.22 3977.3L6128.23 3986.46ZM6121.05 3487.94C6144.74 3518.73 6190.48 3563.74 6251.08 3599.27C6311.71 3634.81 6387.52 3661.05 6471.18 3653.74L6470.31 3643.78C6389.3 3650.86 6315.56 3625.48 6256.14 3590.64C6196.7 3555.79 6151.91 3511.66 6128.97 3481.84L6121.05 3487.94ZM6429.36 3541.14C6429.16 3541.25 6429.3 3541.12 6430.22 3540.97C6431.07 3540.83 6432.24 3540.73 6433.82 3540.66C6435.4 3540.58 6437.22 3540.54 6439.38 3540.48C6441.52 3540.42 6443.93 3540.35 6446.6 3540.22C6457.32 3539.71 6472.01 3538.29 6490.33 3533.17C6527 3522.91 6577.68 3497.94 6640.13 3436.49L6633.12 3429.36C6571.66 3489.83 6522.42 3513.81 6487.64 3523.54C6470.24 3528.41 6456.33 3529.74 6446.12 3530.23C6443.56 3530.35 6441.23 3530.42 6439.1 3530.48C6437 3530.54 6435.05 3530.59 6433.35 3530.67C6431.66 3530.75 6430.05 3530.87 6428.63 3531.1C6427.28 3531.31 6425.65 3531.7 6424.21 3532.56L6429.36 3541.14ZM6237.47 3938.44C6276.87 3931.75 6354.82 3921.64 6435.17 3918.4L6434.77 3908.41C6353.93 3911.67 6275.56 3921.83 6235.8 3928.58L6237.47 3938.44ZM6435.17 3918.4C6475.69 3916.76 6516.73 3916.87 6553.7 3920.03L6554.55 3910.07C6517.03 3906.86 6475.54 3906.76 6434.77 3908.41L6435.17 3918.4ZM6438.75 3916.67C6456.94 3895.65 6523.63 3849.95 6640.89 3843.61L6640.35 3833.63C6520.99 3840.08 6451.51 3886.63 6431.19 3910.13L6438.75 3916.67ZM6491.66 3769.59C6520.04 3764.25 6564.32 3755.03 6604.93 3744.74C6625.23 3739.6 6644.68 3734.17 6660.8 3728.8C6676.74 3723.5 6690 3718.07 6697.46 3712.8L6691.7 3704.63C6685.57 3708.96 6673.63 3713.99 6657.65 3719.31C6641.85 3724.57 6622.65 3729.93 6602.47 3735.05C6562.11 3745.27 6518.05 3754.45 6489.81 3759.76L6491.66 3769.59ZM6053.66 3198.41C6061.33 3212.21 6071.96 3228.59 6085.25 3245.97L6093.19 3239.89C6080.17 3222.86 6069.81 3206.89 6062.4 3193.56L6053.66 3198.41ZM6085.25 3245.97C6092.41 3255.32 6100.34 3264.97 6109.01 3274.67L6116.46 3268.01C6107.97 3258.5 6100.2 3249.05 6093.19 3239.89L6085.25 3245.97ZM5623.7 3021.77C5628.4 3013.78 5633.24 3002.45 5638.09 2990.25C5643.04 2977.78 5647.89 2964.71 5652.98 2952.11L5643.71 2948.37C5638.69 2960.79 5633.55 2974.59 5628.79 2986.56C5623.93 2998.79 5619.35 3009.45 5615.08 3016.71L5623.7 3021.77ZM5652.98 2952.11C5660.91 2932.51 5667.83 2911.52 5671.51 2891.83C5675.17 2872.26 5675.73 2853.38 5670.3 2838.36L5660.9 2841.76C5665.43 2854.29 5665.22 2871.07 5661.68 2889.99C5658.17 2908.8 5651.49 2929.12 5643.71 2948.37L5652.98 2952.11ZM5648.21 2945.24C5629.29 2945.75 5599.7 2947.48 5572.38 2951.03C5558.72 2952.8 5545.52 2955.04 5534.45 2957.84C5523.6 2960.59 5514.05 2964.05 5508.32 2968.63L5514.57 2976.44C5518.47 2973.31 5526.15 2970.26 5536.9 2967.54C5547.43 2964.87 5560.2 2962.69 5573.66 2960.94C5600.57 2957.45 5629.8 2955.74 5648.48 2955.24L5648.21 2945.24ZM5508.32 2968.63C5505.76 2970.68 5500.88 2973.53 5493.85 2977.05C5486.93 2980.52 5478.27 2984.48 5468.39 2988.78C5448.63 2997.39 5424.23 3007.26 5399.68 3017.12C5375.17 3026.97 5350.5 3036.82 5330.32 3045.33C5310.35 3053.74 5294.16 3061.1 5287.03 3065.96L5292.66 3074.22C5298.78 3070.05 5313.9 3063.1 5334.2 3054.54C5354.29 3046.08 5378.85 3036.27 5403.41 3026.4C5427.94 3016.55 5452.47 3006.62 5472.38 2997.95C5482.33 2993.62 5491.18 2989.57 5498.33 2985.99C5505.37 2982.46 5511.1 2979.21 5514.57 2976.44L5508.32 2968.63ZM5287.03 3065.96C5284.25 3067.85 5277.9 3070.81 5268.28 3074.56C5258.84 3078.24 5246.71 3082.52 5232.74 3087.1C5204.82 3096.27 5169.75 3106.59 5134.66 3115.67C5099.54 3124.75 5064.52 3132.57 5036.66 3136.77C5022.71 3138.87 5010.72 3140.04 5001.47 3140.05C4996.84 3140.05 4993.04 3139.76 4990.1 3139.2C4987.07 3138.62 4985.42 3137.85 4984.66 3137.24L4978.41 3145.05C4981.03 3147.14 4984.55 3148.32 4988.23 3149.02C4992.01 3149.74 4996.49 3150.05 5001.47 3150.05C5011.44 3150.04 5023.99 3148.79 5038.15 3146.66C5066.5 3142.39 5101.89 3134.47 5137.16 3125.35C5172.45 3116.22 5207.72 3105.84 5235.86 3096.61C5249.93 3091.99 5262.25 3087.65 5271.92 3083.87C5281.41 3080.17 5288.81 3076.84 5292.66 3074.22L5287.03 3065.96ZM4891.35 3155.14C4904.83 3149.1 4919.81 3142.1 4935.88 3134.27L4931.5 3125.28C4915.52 3133.07 4900.64 3140.02 4887.26 3146.01L4891.35 3155.14ZM4935.88 3134.27C5005.83 3100.18 5096.67 3050.17 5175 2994.26C5214.16 2966.3 5250.3 2936.8 5279.16 2907.01C5307.96 2877.26 5329.8 2846.93 5339.94 2817.29L5330.48 2814.05C5321.02 2841.7 5300.32 2870.78 5271.97 2900.05C5243.68 2929.26 5208.06 2958.37 5169.19 2986.12C5091.46 3041.61 5001.14 3091.35 4931.5 3125.28L4935.88 3134.27ZM4984.66 3137.24C4961.62 3118.82 4940.3 3120.92 4931.47 3125.3L4935.91 3134.26C4940.92 3131.77 4958.12 3128.82 4978.41 3145.05L4984.66 3137.24ZM4962.33 2575.25C4969.04 2562.11 4977.88 2545.64 4987.96 2527.96L4979.27 2523.01C4969.12 2540.82 4960.2 2557.42 4953.42 2570.7L4962.33 2575.25ZM4987.96 2527.96C5004.2 2499.49 5023.6 2468 5042.48 2442.29C5051.92 2429.44 5061.17 2418.12 5069.76 2409.38C5078.46 2400.54 5086.09 2394.74 5092.27 2392.37L5088.68 2383.03C5080.44 2386.2 5071.58 2393.26 5062.63 2402.37C5053.58 2411.58 5044.02 2423.31 5034.42 2436.37C5015.22 2462.51 4995.61 2494.37 4979.27 2523.01L4987.96 2527.96ZM4981.41 2521L4682.34 2667.78L4686.75 2676.76L4985.82 2529.97L4981.41 2521ZM4669.13 2682.9L4666.29 2691.44L4675.78 2694.6L4678.62 2686.06L4669.13 2682.9ZM4671.39 2688.03L4653.17 2686.73L4652.45 2696.7L4670.68 2698L4671.39 2688.03ZM4635.18 2689.61C4622.32 2695.85 4608.8 2707.44 4595.49 2721.94C4582.12 2736.52 4568.69 2754.33 4556.04 2773.39C4530.76 2811.49 4508.38 2854.92 4495.76 2888.08L4505.11 2891.64C4517.43 2859.25 4539.45 2816.48 4564.37 2778.92C4576.82 2760.15 4589.94 2742.78 4602.86 2728.71C4615.83 2714.56 4628.34 2704.04 4639.54 2698.61L4635.18 2689.61ZM4431.72 3300.16L4446.46 3313.5L4453.17 3306.09L4438.43 3292.74L4431.72 3300.16ZM4491.8 3679.62C4509.54 3668.73 4537.46 3652.44 4563.52 3638.98C4576.55 3632.25 4589.04 3626.27 4599.52 3622.03C4604.76 3619.91 4609.42 3618.26 4613.35 3617.17C4617.36 3616.05 4620.26 3615.61 4622.11 3615.68L4622.47 3605.69C4619.07 3605.57 4614.99 3606.33 4610.66 3607.53C4606.25 3608.76 4601.21 3610.56 4595.77 3612.76C4584.89 3617.16 4572.09 3623.3 4558.93 3630.1C4532.59 3643.7 4504.45 3660.12 4486.57 3671.1L4491.8 3679.62ZM4682.39 3563.36C4693.24 3526.57 4706.4 3468.81 4710.63 3414.93C4712.74 3388.01 4712.65 3361.83 4708.81 3339.64C4704.99 3317.58 4697.33 3298.64 4683.61 3287.21L4677.21 3294.89C4688.23 3304.07 4695.29 3320.17 4698.95 3341.34C4702.59 3362.39 4702.74 3387.65 4700.66 3414.15C4696.5 3467.14 4683.51 3524.2 4672.8 3560.53L4682.39 3563.36ZM4682.6 3286.55C4648.7 3270 4596.2 3250.96 4548.95 3247.98C4525.33 3246.48 4502.53 3248.97 4483.97 3258.23C4465.19 3267.61 4451.13 3283.75 4444.97 3308.59L4454.67 3311C4460.13 3288.97 4472.3 3275.24 4488.44 3267.18C4504.8 3259.01 4525.61 3256.52 4548.32 3257.96C4593.76 3260.83 4644.93 3279.29 4678.21 3295.54L4682.6 3286.55ZM4622.11 3615.68C4632.11 3616.04 4641.95 3610.31 4650.29 3603.28C4658.8 3596.1 4666.63 3586.79 4672.76 3578.37L4664.67 3572.49C4658.81 3580.55 4651.51 3589.17 4643.84 3595.64C4635.99 3602.25 4628.62 3605.91 4622.47 3605.69L4622.11 3615.68ZM4672.76 3578.37C4676.46 3573.28 4679.59 3568.44 4681.91 3564.47L4673.28 3559.42C4671.13 3563.09 4668.18 3567.66 4664.67 3572.49L4672.76 3578.37ZM4476.04 3599.94L4484.22 3675.9L4494.16 3674.83L4485.98 3598.87L4476.04 3599.94ZM4672.25 3571.88C4649.74 3549.46 4612.74 3523.23 4575.19 3518.91C4556.21 3516.72 4536.98 3520.13 4519.63 3532.54C4502.35 3544.89 4487.43 3565.82 4476.29 3597.76L4485.73 3601.06C4496.43 3570.37 4510.35 3551.46 4525.44 3540.67C4540.45 3529.94 4557.1 3526.89 4574.04 3528.84C4608.32 3532.79 4643.33 3557.19 4665.19 3578.97L4672.25 3571.88ZM4609.37 2985.91C4609.87 2978.61 4610.65 2971.11 4611.77 2964.05L4601.9 2962.47C4600.71 2969.9 4599.91 2977.71 4599.39 2985.22L4609.37 2985.91ZM4611.77 2964.05C4612.86 2957.27 4614.25 2950.99 4616 2945.73C4617.78 2940.4 4619.8 2936.51 4621.92 2934.15L4614.49 2927.46C4611.03 2931.31 4608.47 2936.7 4606.52 2942.57C4604.53 2948.52 4603.03 2955.37 4601.9 2962.47L4611.77 2964.05ZM4609.67 2959.14L4503.27 2885.75L4497.6 2893.98L4604 2967.38L4609.67 2959.14ZM4503.11 2885.64L4186.63 2684.88L4181.27 2693.33L4497.76 2894.08L4503.11 2885.64ZM4046.13 2890.47C4045.52 2886.04 4046.1 2879.92 4048.01 2872.29C4049.9 2864.73 4053 2856.02 4057.14 2846.55C4065.4 2827.6 4077.64 2805.94 4091.96 2784.88C4106.29 2763.82 4122.61 2743.49 4139 2727.16C4155.49 2710.73 4171.65 2698.75 4185.61 2693.82L4182.28 2684.39C4166.21 2690.06 4148.78 2703.3 4131.94 2720.07C4115.01 2736.94 4098.29 2757.79 4083.69 2779.26C4069.1 2800.72 4056.54 2822.92 4047.97 2842.55C4043.69 2852.36 4040.37 2861.61 4038.31 2869.87C4036.27 2878.05 4035.37 2885.59 4036.23 2891.83L4046.13 2890.47ZM4452.31 3180.49C4459.35 3171.21 4468.79 3163.49 4481.34 3158.34L4477.55 3149.09C4463.28 3154.94 4452.42 3163.8 4444.34 3174.45L4452.31 3180.49ZM4077.54 2762.32C4088.47 2747.86 4098.58 2736.25 4107.85 2726.96L4100.77 2719.9C4091.13 2729.56 4080.73 2741.52 4069.56 2756.29L4077.54 2762.32ZM4107.85 2726.96C4133.41 2701.34 4152.4 2693.47 4164.42 2691.63C4170.43 2690.71 4174.83 2691.27 4177.6 2691.97C4178.99 2692.33 4180 2692.72 4180.6 2692.99C4180.9 2693.13 4181.11 2693.24 4181.21 2693.3C4181.26 2693.32 4181.29 2693.34 4181.29 2693.34C4181.3 2693.34 4181.29 2693.34 4181.28 2693.33C4181.27 2693.33 4181.27 2693.32 4181.26 2693.32C4181.25 2693.32 4181.25 2693.31 4181.24 2693.31C4181.24 2693.31 4181.24 2693.31 4181.23 2693.3C4181.23 2693.3 4181.23 2693.3 4183.95 2689.11C4186.67 2684.91 4186.67 2684.91 4186.66 2684.91C4186.66 2684.91 4186.66 2684.9 4186.65 2684.9C4186.65 2684.9 4186.64 2684.89 4186.63 2684.89C4186.62 2684.88 4186.6 2684.86 4186.58 2684.85C4186.54 2684.83 4186.5 2684.8 4186.44 2684.77C4186.34 2684.71 4186.2 2684.63 4186.04 2684.54C4185.72 2684.36 4185.28 2684.13 4184.73 2683.88C4183.62 2683.38 4182.06 2682.79 4180.06 2682.28C4176.04 2681.26 4170.29 2680.61 4162.9 2681.74C4148.13 2684.01 4127.3 2693.3 4100.77 2719.9L4107.85 2726.96ZM4107.02 2719.23L3930.54 2605.38L3925.12 2613.79L4101.6 2727.63L4107.02 2719.23ZM4041.18 2891.15C4044.98 2887.9 4044.98 2887.9 4044.98 2887.9C4044.98 2887.91 4044.99 2887.91 4044.99 2887.91C4044.99 2887.91 4044.99 2887.92 4045 2887.92C4045 2887.92 4045 2887.93 4045 2887.93C4045.01 2887.93 4045 2887.93 4044.99 2887.92C4044.98 2887.9 4044.94 2887.85 4044.88 2887.77C4044.77 2887.62 4044.58 2887.37 4044.33 2887C4043.83 2886.27 4043.11 2885.11 4042.3 2883.5C4040.69 2880.3 4038.75 2875.33 4037.66 2868.52C4035.49 2854.96 4036.63 2833.7 4051.21 2804.13L4042.24 2799.7C4026.87 2830.87 4025.24 2854.23 4027.78 2870.1C4029.05 2878.01 4031.34 2883.96 4033.37 2888C4034.38 2890.01 4035.33 2891.55 4036.05 2892.61C4036.41 2893.15 4036.72 2893.56 4036.95 2893.86C4037.06 2894.01 4037.16 2894.13 4037.23 2894.22C4037.27 2894.26 4037.3 2894.3 4037.32 2894.33C4037.34 2894.35 4037.35 2894.36 4037.36 2894.37C4037.36 2894.38 4037.37 2894.39 4037.37 2894.39C4037.37 2894.39 4037.38 2894.4 4037.38 2894.4C4037.38 2894.4 4037.38 2894.4 4041.18 2891.15ZM4051.21 2804.13C4057.35 2791.68 4065.87 2777.75 4077.54 2762.32L4069.56 2756.29C4057.57 2772.16 4048.7 2786.62 4042.24 2799.7L4051.21 2804.13ZM3873.1 2690.91L4043.93 2806.06L4049.52 2797.77L3878.68 2682.62L3873.1 2690.91ZM3919.97 2609.39C3917.58 2617.81 3914.25 2625.81 3910.25 2633.36L3919.08 2638.05C3923.38 2629.95 3926.99 2621.29 3929.59 2612.12L3919.97 2609.39ZM3917.4 2631.52L3804.25 2557.64L3798.79 2566.01L3911.93 2639.89L3917.4 2631.52ZM3910.25 2633.36C3903.9 2645.3 3895.88 2656.06 3887.27 2665.41L3894.63 2672.18C3903.71 2662.31 3912.27 2650.87 3919.08 2638.05L3910.25 2633.36ZM3887.27 2665.41C3882.43 2670.67 3877.42 2675.47 3872.44 2679.78L3878.98 2687.34C3884.23 2682.8 3889.52 2677.73 3894.63 2672.18L3887.27 2665.41ZM3772.08 2593.56L3888.13 2672.92L3893.78 2664.66L3777.72 2585.31L3772.08 2593.56ZM3797.92 2558.35L3791.66 2564.85L3798.86 2571.79L3805.12 2565.3L3797.92 2558.35ZM3798.18 2564.27L3741.34 2523.26L3735.49 2531.37L3792.33 2572.38L3798.18 2564.27ZM3734.77 2523.9L3721.15 2538.45L3728.45 2545.28L3742.07 2530.73L3734.77 2523.9ZM3791.66 2564.85L3778.09 2578.92L3785.29 2585.86L3798.86 2571.79L3791.66 2564.85ZM3778.09 2578.92L3771.3 2585.96L3778.5 2592.9L3785.29 2585.86L3778.09 2578.92ZM3721.9 2545.94L3778.79 2586.46L3784.59 2578.32L3727.7 2537.79L3721.9 2545.94ZM4038.3 2895.24L4382.16 3137.06L4387.92 3128.88L4044.06 2887.06L4038.3 2895.24ZM4382.16 3137.06L4445.45 3181.56L4451.2 3173.38L4387.92 3128.88L4382.16 3137.06ZM4196.05 3387.76C4193.53 3418.01 4198.58 3463.75 4222.11 3502.93C4245.82 3542.41 4288.1 3574.83 4358.95 3578.12L4359.41 3568.13C4291.95 3565 4252.69 3534.43 4230.68 3497.78C4208.49 3460.83 4203.62 3417.31 4206.01 3388.59L4196.05 3387.76ZM4444.85 3310.33L4472.15 3563.85L4482.09 3562.78L4454.79 3309.26L4444.85 3310.33ZM4472.15 3563.85L4476.04 3599.94L4485.98 3598.87L4482.09 3562.78L4472.15 3563.85ZM4439.9 3295.12C4437.72 3287.21 4435.74 3277.21 4434.61 3266.17L4424.66 3267.18C4425.84 3278.77 4427.92 3289.32 4430.26 3297.78L4439.9 3295.12ZM4434.61 3266.17C4431.72 3237.83 4434.55 3203.92 4452.31 3180.49L4444.34 3174.45C4424.27 3200.92 4421.68 3238 4424.66 3267.18L4434.61 3266.17ZM4425.55 3263.79C4417.48 3275.21 4404.67 3292.77 4392.47 3308.34C4386.37 3316.13 4380.46 3323.36 4375.39 3329.07C4370.17 3334.96 4366.29 3338.69 4364.16 3340.01L4369.42 3348.51C4372.98 3346.31 4377.78 3341.44 4382.87 3335.71C4388.13 3329.79 4394.18 3322.37 4400.34 3314.51C4412.67 3298.77 4425.58 3281.07 4433.72 3269.56L4425.55 3263.79ZM4380.99 3130.04L4211.15 3365.59L4219.26 3371.44L4389.1 3135.89L4380.99 3130.04ZM4211.15 3365.59L4196.98 3385.25L4205.09 3391.1L4219.26 3371.44L4211.15 3365.59ZM4364.16 3340.01C4357.47 3344.15 4333.13 3356.26 4303.99 3364.22C4274.67 3372.23 4241.85 3375.66 4217.36 3364L4213.06 3373.03C4240.97 3386.31 4276.82 3382.01 4306.63 3373.87C4336.63 3365.67 4361.87 3353.19 4369.42 3348.51L4364.16 3340.01ZM4358.73 3578.11C4365.31 3578.71 4374.77 3579.19 4385.93 3579.23L4385.97 3569.23C4375.05 3569.19 4365.89 3568.72 4359.63 3568.15L4358.73 3578.11ZM4385.93 3579.23C4411.96 3579.34 4447.81 3577.08 4478.52 3568.11L4475.72 3558.52C4446.34 3567.09 4411.59 3569.34 4385.97 3569.23L4385.93 3579.23ZM4366.46 3688.5L4220.93 3955.15L4229.7 3959.95L4375.23 3693.29L4366.46 3688.5ZM4227.16 3970.61C4224.71 3993.22 4228.51 4027.67 4247.95 4058.06C4267.54 4088.69 4302.7 4114.7 4361.86 4120.5L4362.84 4110.55C4306.51 4105.02 4274.2 4080.55 4256.37 4052.67C4238.39 4024.56 4234.84 3992.49 4237.1 3971.69L4227.16 3970.61ZM4380.99 3573.59L4373.44 3631.92L4383.35 3633.21L4390.91 3574.88L4380.99 3573.59ZM4373.44 3631.92L4365.89 3690.26L4375.8 3691.54L4383.35 3633.21L4373.44 3631.92ZM4376.14 3637.03C4396.3 3647.2 4434.67 3684.1 4421.61 3749.37L4431.42 3751.33C4445.54 3680.71 4403.9 3639.83 4380.65 3628.1L4376.14 3637.03ZM4421.61 3749.37C4408.17 3816.61 4364.15 3915.49 4343.72 3956.66L4352.68 3961.11C4373.14 3919.87 4417.69 3819.96 4431.42 3751.33L4421.61 3749.37ZM4347.67 3953.91L4231.61 3966.18L4232.66 3976.12L4348.72 3963.86L4347.67 3953.91ZM6093.24 3239.95C6091.94 3238.2 6090 3237.49 6088.93 3237.16C6087.64 3236.76 6086.13 3236.49 6084.56 3236.3C6081.41 3235.9 6077.2 3235.69 6072.21 3235.53C6062.06 3235.21 6048.3 3235.08 6031.3 3234.26C5997.42 3232.62 5951.39 3228.22 5900.17 3214.07L5897.51 3223.71C5949.68 3238.12 5996.51 3242.59 6030.81 3244.25C6047.9 3245.08 6062.05 3245.21 6071.89 3245.53C6076.89 3245.69 6080.68 3245.89 6083.32 3246.22C6084.65 3246.39 6085.5 3246.56 6085.97 3246.71C6086.68 3246.93 6085.92 3246.87 6085.2 3245.9L6093.24 3239.95ZM5900.17 3214.07C5811.47 3189.58 5707.13 3135.86 5623.49 3016.37L5615.3 3022.11C5700.51 3143.85 5807.01 3198.73 5897.51 3223.71L5900.17 3214.07ZM5898.05 3618.69C5878.17 3583.5 5853.11 3505.4 5859.34 3404.12L5849.36 3403.51C5843.02 3506.55 5868.43 3586.59 5889.34 3623.61L5898.05 3618.69ZM5859.34 3404.12C5862.74 3348.83 5875.47 3286.67 5903.44 3220.85L5894.24 3216.94C5865.8 3283.86 5852.83 3347.14 5849.36 3403.51L5859.34 3404.12ZM5377.61 3242.5C5369.53 3238.68 5356.03 3234.32 5341.29 3233.4C5326.55 3232.49 5309.99 3234.98 5296.54 3245.63L5302.75 3253.47C5313.57 3244.9 5327.34 3242.55 5340.66 3243.38C5353.98 3244.21 5366.26 3248.2 5373.34 3251.54L5377.61 3242.5ZM5205.02 3356.73L5013.72 3228.16L5008.14 3236.46L5199.44 3365.03L5205.02 3356.73ZM5296.54 3245.63C5283.96 3255.59 5264.89 3276.53 5246.41 3298.27C5227.82 3320.13 5209.48 3343.23 5198.26 3357.83L5206.19 3363.93C5217.33 3349.43 5235.57 3326.46 5254.03 3304.74C5272.6 3282.89 5291.06 3262.72 5302.75 3253.47L5296.54 3245.63ZM5304.64 3249.55C5304.64 3225.65 5323.94 3158.1 5404.02 3089.02L5397.49 3081.45C5315.79 3151.92 5294.64 3222.05 5294.64 3249.55L5304.64 3249.55ZM5380.44 3247.61C5382.08 3233.89 5386.92 3210.5 5396.1 3185.45C5405.29 3160.37 5418.7 3133.97 5437.29 3113.91L5429.95 3107.12C5410.12 3128.51 5396.14 3156.26 5386.71 3182.01C5377.27 3207.79 5372.25 3231.93 5370.52 3246.43L5380.44 3247.61ZM5853.59 3398.87C5828.19 3402.78 5795.71 3405.5 5759.39 3405.5L5759.39 3415.5C5796.18 3415.5 5829.17 3412.75 5855.11 3408.76L5853.59 3398.87ZM5759.39 3405.5C5696.18 3405.5 5621.61 3397.27 5552.62 3372.93C5483.65 3348.61 5420.54 3308.3 5379.69 3244.33L5371.27 3249.71C5413.67 3316.11 5478.93 3357.55 5549.3 3382.37C5619.65 3407.18 5695.42 3415.5 5759.39 3415.5L5759.39 3405.5ZM6129.01 3977.73L5667.02 3667.23L5661.44 3675.53L6123.44 3986.03L6129.01 3977.73ZM5667.02 3667.23L5205.02 3356.73L5199.44 3365.03L5661.44 3675.53L5667.02 3667.23ZM5755.21 3407.75C5737.13 3435.26 5710.69 3481.33 5690.01 3530.34C5669.41 3579.12 5654.1 3631.76 5659.27 3672.02L5669.19 3670.74C5664.38 3633.33 5678.7 3582.83 5699.22 3534.23C5719.63 3485.87 5745.77 3440.33 5763.57 3413.24L5755.21 3407.75ZM6097.89 4280.58L5318.9 3763.57L5313.37 3771.9L6092.36 4288.91L6097.89 4280.58ZM5318.9 3763.57L5054.27 3587.93L5048.74 3596.26L5313.37 3771.9L5318.9 3763.57ZM5082.2 3824.35C5090.96 3856.13 5097.62 3908.68 5095.14 3955.26L5105.12 3955.79C5107.66 3908.16 5100.89 3854.53 5091.84 3821.69L5082.2 3824.35ZM5095.14 3955.26C5093.96 3977.38 5090.73 3997.87 5084.85 4014.03C5078.94 4030.29 5070.66 4041.35 5059.94 4046.04L5063.95 4055.2C5078.32 4048.91 5087.94 4034.8 5094.25 4017.45C5100.6 3999.99 5103.92 3978.42 5105.12 3955.79L5095.14 3955.26ZM5311.23 3766.77C5305.27 3797.22 5290.11 3840.14 5263.53 3877.05C5236.98 3913.92 5199.34 3944.43 5148.35 3951.12L5149.65 3961.04C5204.2 3953.88 5244.05 3921.23 5271.65 3882.9C5299.22 3844.61 5314.86 3800.28 5321.05 3768.69L5311.23 3766.77ZM5148.35 3951.12C5133.7 3953.05 5117.89 3953.01 5100.84 3950.57L5099.42 3960.47C5117.33 3963.04 5134.05 3963.08 5149.65 3961.04L5148.35 3951.12ZM5152.9 4025.39C5155.99 4018.14 5159.66 4006.08 5160.84 3993.01C5162 3980.01 5160.77 3965.3 5153.22 3953.4L5144.77 3958.76C5150.63 3967.99 5151.95 3980.12 5150.88 3992.11C5149.81 4004.02 5146.43 4015.07 5143.7 4021.47L5152.9 4025.39ZM5165.51 4121.9C5142.62 4144.31 5101.37 4170.45 5052.42 4175.91C5003.78 4181.32 4946.96 4166.41 4892.17 4105.79L4884.75 4112.49C4941.59 4175.38 5001.53 4191.64 5053.52 4185.85C5105.18 4180.09 5148.4 4152.65 5172.51 4129.04L5165.51 4121.9ZM4902.39 4010.25C4910.49 4002.15 4925.33 3989.97 4943.19 3980.15C4961.12 3970.29 4981.54 3963.1 5000.99 3964.21L5001.56 3954.22C4979.44 3952.96 4957.07 3961.1 4938.37 3971.39C4919.62 3981.7 4904.03 3994.46 4895.31 4003.18L4902.39 4010.25ZM4923.61 3898.41C4933.81 3884.97 4967.15 3855.98 5016.58 3851.38L5015.65 3841.42C4962.95 3846.32 4927.22 3877.11 4915.65 3892.36L4923.61 3898.41ZM4357.36 4115.19C4352.08 4194.81 4384.05 4287.43 4443.96 4366.8L4451.95 4360.78C4393.1 4282.83 4362.25 4192.51 4367.34 4115.85L4357.36 4115.19ZM4443.96 4366.8C4474.56 4407.34 4512.29 4447.75 4556.77 4478.2L4562.42 4469.95C4519.11 4440.3 4482.13 4400.77 4451.95 4360.78L4443.96 4366.8ZM4780.8 4205.29C4755.54 4233.87 4708.41 4276.03 4649.48 4309.15C4590.53 4342.29 4520.24 4366.13 4448.46 4358.82L4447.45 4368.77C4522.03 4376.36 4594.43 4351.57 4654.38 4317.87C4714.36 4284.16 4762.35 4241.27 4788.3 4211.91L4780.8 4205.29ZM4366.97 4117.43C4403.39 4029.3 4480 3817.33 4494.16 3675.86L4484.21 3674.86C4470.2 3814.76 4394.13 4025.54 4357.73 4113.61L4366.97 4117.43ZM3878.68 2682.62C3880.36 2683.74 3880.43 2686.09 3878.98 2687.34L3872.44 2679.78C3868.98 2682.77 3869.22 2688.3 3873.1 2690.91L3878.68 2682.62ZM4653.17 2686.73C4647.4 2686.32 4641.05 2686.76 4635.18 2689.61L4639.54 2698.61C4643.23 2696.82 4647.61 2696.36 4652.45 2696.7L4653.17 2686.73ZM4682.34 2667.78C4676.09 2670.85 4671.34 2676.3 4669.13 2682.9L4678.62 2686.06C4679.98 2682 4682.9 2678.65 4686.75 2676.76L4682.34 2667.78ZM3930.54 2605.38C3926.5 2602.77 3921.23 2604.93 3919.97 2609.39L3929.59 2612.12C3929.07 2613.96 3926.87 2614.92 3925.12 2613.79L3930.54 2605.38ZM4623.16 3039.8C4612.36 3024.32 4608.05 3005.12 4609.37 2985.91L4599.39 2985.22C4597.94 3006.31 4602.64 3027.86 4614.95 3045.52L4623.16 3039.8ZM4854.01 2780.38C4862.2 2778.1 4868.84 2771.87 4871.32 2763.58L4861.74 2760.71C4860.29 2765.57 4856.36 2769.35 4851.32 2770.75L4854.01 2780.38ZM4220.93 3955.15C4216.16 3963.89 4221.58 3974.69 4231.43 3976.1L4232.84 3966.2C4229.9 3965.78 4228.28 3962.55 4229.7 3959.95L4220.93 3955.15ZM6101.58 4322.91C6092.69 4315.89 6090.27 4303.44 6095.86 4293.58L6087.16 4288.64C6079.14 4302.79 6082.61 4320.67 6095.38 4330.76L6101.58 4322.91Z" fill="#7481A1"/>
<path d="M3109.64 1356.94C3075.57 1330.89 2986.55 1276.96 2805.32 1299.43C2707.87 1309 2625.33 1338.42 2563.61 1378.27M3109.64 1356.94L2839.91 1538.62M3109.64 1356.94L3151.94 1328.91M3109.64 1356.94L3111.72 1483.94M3657.86 2334.08L4004 2514.48M3657.86 2334.08L3664.05 3188.05M3657.86 2334.08L3657.83 2188.97M3657.86 2334.08L3616.16 2362.55M4059.84 2543.58L4004 2514.48M3208.25 1291.61C2935.9 1159.21 2627.01 1215.14 2462.33 1323.41C2433.56 1346.43 2410.15 1368.15 2391.16 1388.59M3208.25 1291.61L3399.73 1166.25M3208.25 1291.61L3196.27 1299.54M3208.25 1291.61L3209.48 1423.47M3657.81 2103.18L3213.45 1848.51M3657.81 2103.18L4004.41 2297.75M3657.81 2103.18L3638.15 2116.71M3657.81 2103.18L3657.83 2188.97M3213.45 1848.51L3213.21 1822.9M3213.45 1848.51L3214.56 1968.01M4487.7 2569.05L4423.95 2533.26M4950.99 1843.64L4887.51 1805.39M4020.38 1282.93L4887.51 1805.39M4887.51 1805.39L4862.35 1914.54L4887.12 1914.1M4887.51 1805.39L4914.89 1913.6L4887.12 1914.1M4884.71 2574.05L4887.12 1914.1M4423.95 2533.26L4400.53 2647.78L4423.9 2648.17M4423.95 2533.26L4447.51 2648.56L4423.9 2648.17M4423.95 2533.26L4004.41 2297.75M4423.83 2840.74L4423.9 2648.17M4004.41 2297.75L4033.85 2190.64H3977.84L4004.41 2297.75ZM4004.41 2297.75L4004 2514.48M4004.56 2076.03L4004.48 2186.89M4004 2514.48L3982.03 2617.01L4005.68 2616.28M4004 2514.48L4028.57 2615.58L4005.68 2616.28M4006.37 2658.53L4005.68 2616.28M3128.02 2478.13L2857.94 2665.55M3128.02 2478.13C3003.63 2401.13 2745.12 2390.79 2590.56 2521.24M3128.02 2478.13L3127.44 2443.19M3128.02 2478.13L3129.78 2585.8M3394.7 2513.77L3405.82 3053.94M3394.7 2513.77L3385.5 2520.06M3394.7 2513.77L3421.83 2495.25M3667.02 3598.01C3540.93 3507.32 3452.08 3346.55 3409.11 3156.9C3408.24 3153.06 3407.78 3149.12 3407.69 3145.18L3405.82 3053.94M3667.02 3598.01L4009.91 3782.92M3667.02 3598.01L3664.05 3188.05M3667.02 3598.01L3637.07 3619.74M3667.02 3598.01L3668.3 3638.25M4063.79 3811.97L4009.91 3782.92M4005.66 2773.25L4009.35 3648.97M4009.91 3782.92L3975.98 3648.37L4009.35 3648.97M4009.91 3782.92L4039.46 3649.52L4009.35 3648.97M3790.84 3096.13L3664.05 3188.05M3405.82 3053.94L3664.05 3188.05M3664.05 3188.05L2341.57 4137.91M2341.57 4137.91L2071.64 4013.33M2341.57 4137.91L2351.4 4481.11M2341.57 4137.91L2327.73 3262.37M2071.64 4013.33L2070.32 3975.39M2071.64 4013.33L1880.79 4087.02M2071.64 4013.33C2072.48 4023.08 2073.46 4032.68 2074.57 4042.14M2327.73 3262.37L2337.85 3255.41M2327.73 3262.37L2292.26 3244.85M2327.73 3262.37L2325.86 3220.28M2570.17 1720.31L2839.91 1538.62M2570.17 1720.31C2393.69 1626.89 2412.85 1475.62 2563.61 1378.27M2570.17 1720.31C2570.17 1720.31 2560.58 1726.38 2546.63 1735.22M2570.17 1720.31L2571.8 1784.25M2447.14 4483.2L2511.59 4436.44M3674.23 3824.35L4362.46 4159.89M3674.23 3824.35L3642.85 3847.41M3674.23 3824.35L3671.26 3731.3M2777.79 4483.2L2799.93 4466.93M2598.81 2845.39L2857.94 2665.55M2598.81 2845.39L2595.8 2727.01M2598.81 2845.39L2599.56 2874.96M2286.89 4481.11C2282.98 4477.14 2279.1 4477.81 2275.24 4473.76M2317.85 3040.27L2355.48 3012.9M2317.85 3040.27L2319.68 3081.27M2317.85 3040.27L2311.16 3036.82M2499.15 2908.39C2499.15 2908.39 2354.3 2865.78 2346.85 2718.35C2346.84 2718.06 2346.84 2718.12 2346.83 2717.83C2346.51 2708.55 2317.29 1850.69 2317.29 1598.25M2499.15 2908.39C2499.15 2908.39 2498.45 2879.03 2497.24 2828.55M2499.15 2908.39L2474.26 2926.5M2472.21 1782.35C2472.21 1782.35 2365.84 1752.69 2317.29 1598.25M2472.21 1782.35C2482.17 1776.04 2493.58 1768.82 2505.01 1761.58M2472.21 1782.35C2472.79 1806.38 2473.38 1831.15 2473.99 1856.51M2839.91 1538.62L2563.61 1378.27M2839.91 1538.62L2857.94 2665.55M2563.61 1378.27L2170.98 1165.68M2857.94 2665.55L2590.56 2521.24M2590.56 2521.24L2589.56 2482.09M2590.56 2521.24L2592.56 2599.7M2317.29 1598.25C2311.21 1559.04 2297.45 1489.45 2391.16 1388.59M2391.16 1388.59L1978.63 1166.35M2505.01 1761.58L2473.99 1856.51M2505.01 1761.58C2519.9 1752.15 2534.83 1742.69 2546.63 1735.22M2473.99 1856.51C2475.01 1899.1 2476.07 1943.35 2477.15 1988.52M2546.63 1735.22L2477.15 1988.52M2477.15 1988.52C2478.22 2033.51 2479.32 2079.43 2480.42 2125.56M2571.8 1784.25L2480.42 2125.56M2571.8 1784.25L2575.8 1941.51M2480.42 2125.56C2481.48 2169.65 2482.54 2213.93 2483.59 2257.78M2575.8 1941.51L2483.59 2257.78M2575.8 1941.51L2578.69 2055.02M2483.59 2257.78C2484.71 2304.94 2485.83 2351.59 2486.92 2396.96M2578.69 2055.02L2486.92 2396.96M2578.69 2055.02L2582.08 2187.95M2486.92 2396.96C2488.08 2445.78 2489.22 2493.11 2490.29 2537.99M2582.08 2187.95L2490.29 2537.99M2582.08 2187.95L2586.32 2354.59M2490.29 2537.99C2491.52 2589.65 2492.68 2638.06 2493.73 2681.76M2586.32 2354.59L2493.73 2681.76M2586.32 2354.59L2589.56 2482.09M2493.73 2681.76C2495.13 2740.35 2496.33 2790.46 2497.24 2828.55M2589.56 2482.09L2497.24 2828.55M2592.56 2599.7L2466.15 3167.2M2592.56 2599.7L2595.8 2727.01M2466.15 3167.2L2507.01 3139.11M2466.15 3167.2L2421.71 3197.75M2507.01 3139.11L2595.8 2727.01M2507.01 3139.11L2539.43 3116.82M2599.56 2874.96L2539.43 3116.82M2599.56 2874.96L2602.07 2973.5M2539.43 3116.82L2572 3094.43M2602.07 2973.5L2603.75 3039.5C2604.27 3059.79 2594.49 3078.97 2577.76 3090.47L2572 3094.43M2602.07 2973.5L2572 3094.43M2474.26 2926.5L2421.71 3197.75M2474.26 2926.5L2442.06 2949.92M2421.71 3197.75L2386.87 3221.7M2442.06 2949.92L2386.87 3221.7M2442.06 2949.92L2405.77 2976.32M2386.87 3221.7L2337.85 3255.41M2337.85 3255.41L2405.77 2976.32M2405.77 2976.32L2355.48 3012.9M2355.48 3012.9L2321.88 3130.74M2321.88 3130.74L2322.57 3146.43M2321.88 3130.74L2320.99 3110.88M2292.26 3244.85L2325.86 3220.28M2292.26 3244.85L2233.17 3215.66M2325.86 3220.28L2324.1 3180.73M2324.1 3180.73L2233.17 3215.66M2324.1 3180.73L2322.57 3146.43M2233.17 3215.66L2198.3 3198.43M2198.3 3198.43L2322.57 3146.43M2198.3 3198.43L2147.76 3173.47M2320.99 3110.88L2147.76 3173.47M2320.99 3110.88L2319.68 3081.27M2147.76 3173.47L2113.52 3156.55M2113.52 3156.55L2319.68 3081.27M2113.52 3156.55L2065.49 3132.83M2311.16 3036.82L2065.49 3132.83M2311.16 3036.82L2270.79 3016.02M2065.49 3132.83L2056.71 3128.49C2049.38 3124.87 2040.84 3130.38 2041.12 3138.55V3138.55M2041.12 3138.55L1854.09 3206.71M2041.12 3138.55L2042.39 3174.91M1854.09 3206.71L1852.93 3168.72M1854.09 3206.71L1855.2 3243.3M1852.93 3168.72L2270.79 3016.02M1852.93 3168.72L1852.1 3141.11M2270.79 3016.02L2234.32 2997.24M2234.32 2997.24L1852.1 3141.11M2234.32 2997.24L2192.69 2975.79M1852.1 3141.11L1850.77 3097.34M1850.77 3097.34L2192.69 2975.79M1850.77 3097.34L1849.6 3058.84M2192.69 2975.79L2144.68 2951.05M2144.68 2951.05L1849.6 3058.84M2144.68 2951.05L2108.23 2932.27M1849.6 3058.84L1848.61 3026.06M1848.61 3026.06L2108.23 2932.27M1848.61 3026.06L1847.4 2986.45M2108.23 2932.27L2058.34 2906.57M2058.34 2906.57L1847.4 2986.45M2058.34 2906.57L2019.81 2886.72M1847.4 2986.45L1846.25 2948.4M1846.25 2948.4L2019.81 2886.72M1846.25 2948.4L1845.35 2918.75M2019.81 2886.72L1973.64 2862.93M1973.64 2862.93L1845.35 2918.75M1973.64 2862.93L1936.76 2843.93M1845.35 2918.75L1844.1 2877.61M1844.1 2877.61L1936.76 2843.93M1844.1 2877.61L1842.85 2836.25M1936.76 2843.93L1889.18 2819.41M1842.85 2836.25L1841.8 2801.68C1841.71 2798.64 1844.92 2796.61 1847.63 2798.01L1889.18 2819.41M1842.85 2836.25L1889.18 2819.41M2042.39 3174.91L1855.2 3243.3M2042.39 3174.91L2043.62 3210.23M1855.2 3243.3L1856.3 3279.65M1856.3 3279.65L2043.62 3210.23M1856.3 3279.65L1857.58 3321.9M2043.62 3210.23L2044.97 3248.87M2044.97 3248.87L1857.58 3321.9M2044.97 3248.87L2046.22 3284.65M1857.58 3321.9L1858.67 3357.74M1858.67 3357.74L2046.22 3284.65M1858.67 3357.74L1859.84 3396.32M2046.22 3284.65L2047.57 3323.34M2047.57 3323.34L1859.84 3396.32M2047.57 3323.34L2048.64 3354.05M1859.84 3396.32L1860.72 3425.24M1860.72 3425.24L2048.64 3354.05M1860.72 3425.24L1861.92 3464.76M2048.64 3354.05L2050.15 3397.3M2050.15 3397.3L1861.92 3464.76M2050.15 3397.3L2051.32 3430.8M1861.92 3464.76L1863.28 3509.77M1863.28 3509.77L2051.32 3430.8M1863.28 3509.77L1864.14 3538.23M2051.32 3430.8L2052.57 3466.63M2052.57 3466.63L1864.14 3538.23M2052.57 3466.63L2053.86 3503.8M1864.14 3538.23L1865.4 3579.67M1865.4 3579.67L2053.86 3503.8M1865.4 3579.67L1866.45 3614.06M2053.86 3503.8L2055.15 3540.59M2055.15 3540.59L1866.45 3614.06M2055.15 3540.59L2056.28 3573.19M1866.45 3614.06L1867.46 3647.63M1867.46 3647.63L2056.28 3573.19M1867.46 3647.63L1868.56 3683.92M2056.28 3573.19L2057.76 3615.5M2057.76 3615.5L1868.56 3683.92M2057.76 3615.5L2059.04 3652.23M1868.56 3683.92L1869.76 3723.4M1869.76 3723.4L2059.04 3652.23M1869.76 3723.4L1870.57 3750.07M2059.04 3652.23L2060.11 3682.97M2060.11 3682.97L1870.57 3750.07M2060.11 3682.97L2061.48 3722.09M1870.57 3750.07L1871.92 3794.65M1871.92 3794.65L2061.48 3722.09M1871.92 3794.65L1873.07 3832.52M2061.48 3722.09L2062.79 3759.61M1873.07 3832.52L2062.79 3759.61M1873.07 3832.52L1874.25 3871.38M2062.79 3759.61L2064.09 3797.04M2064.09 3797.04L1874.25 3871.38M2064.09 3797.04L2065.08 3825.21M1874.25 3871.38L1875.23 3903.66M1875.23 3903.66L2065.08 3825.21M1875.23 3903.66L1876.34 3940.2M2065.08 3825.21L2066.62 3869.52M2066.62 3869.52L1876.34 3940.2M2066.62 3869.52L2067.72 3900.95M1876.34 3940.2L1877.63 3982.72M1877.63 3982.72L2067.72 3900.95M1877.63 3982.72L1878.37 4007.12M2067.72 3900.95L2068.99 3937.44M2068.99 3937.44L1878.37 4007.12M2068.99 3937.44L2070.32 3975.39M1878.37 4007.12L1879.62 4048.28M1879.62 4048.28L2070.32 3975.39M1879.62 4048.28L1880.79 4087.02M1880.79 4087.02L1881.72 4117.5M1881.72 4117.5L2074.57 4042.14M1881.72 4117.5L1882.84 4154.52M2074.57 4042.14C2076.12 4055.31 2077.92 4068.2 2079.97 4080.82M2079.97 4080.82L1882.84 4154.52M2079.97 4080.82C2081.76 4091.86 2083.74 4102.69 2085.9 4113.31M1882.84 4154.52L1884.13 4196.93M1884.13 4196.93L2085.9 4113.31M1884.13 4196.93L1885.17 4231.12M2085.9 4113.31C2088.19 4124.61 2090.69 4135.68 2093.39 4146.53M2093.39 4146.53L1885.17 4231.12M2093.39 4146.53C2096.24 4158.01 2099.31 4169.24 2102.58 4180.24M1885.17 4231.12L1886.2 4265.34M1886.2 4265.34L2102.58 4180.24M1886.2 4265.34L1887.35 4303.19M2102.58 4180.24C2106.08 4191.99 2109.82 4203.46 2113.78 4214.68M2113.78 4214.68L1887.35 4303.19M2113.78 4214.68C2117.18 4224.32 2120.75 4233.77 2124.47 4243.03M1887.35 4303.19L1888.43 4338.74M1888.43 4338.74L2124.47 4243.03M1888.43 4338.74L1889.52 4374.79M2124.47 4243.03C2128.86 4253.95 2133.47 4264.62 2138.28 4275.04M2138.28 4275.04L1889.52 4374.79M2138.28 4275.04C2143.2 4285.72 2148.35 4296.14 2153.69 4306.32M1889.52 4374.79L1890.62 4410.85M1890.62 4410.85L2153.69 4306.32M1890.62 4410.85L1891.67 4445.45M2153.69 4306.32C2158.82 4316.09 2164.13 4325.64 2169.61 4334.98M2169.61 4334.98L1891.67 4445.45M2169.61 4334.98C2174.97 4344.1 2180.49 4353.03 2186.16 4361.76M1891.67 4445.45L1892.72 4481.11L2186.16 4361.76M2186.16 4361.76C2192.07 4370.86 2198.14 4379.75 2204.37 4388.45M2204.37 4388.45L1976.6 4481.11M2204.37 4388.45C2210.81 4397.46 2217.41 4406.25 2224.16 4414.85M2224.16 4414.85L2067.12 4481.11M2224.16 4414.85C2233.22 4426.39 2242.53 4437.57 2252.07 4448.43M2252.07 4448.43L2172.88 4481.11M2252.07 4448.43C2259.66 4457.07 2267.39 4465.51 2275.24 4473.76M2275.24 4473.76L2261.56 4481.11M3151.94 1328.91L3111.72 1483.94M3151.94 1328.91L3196.27 1299.54M3111.72 1483.94L3114 1623.16M3196.27 1299.54L3114 1623.16M3114 1623.16L3116.76 1791.52M3209.48 1423.47L3116.76 1791.52M3209.48 1423.47L3210.7 1554.47M3116.76 1791.52L3118.8 1915.83M3210.7 1554.47L3118.8 1915.83M3210.7 1554.47L3212.07 1701.49M3118.8 1915.83L3121.03 2052.21M3212.07 1701.49L3121.03 2052.21M3212.07 1701.49L3213.21 1822.9M3121.03 2052.21L3123.23 2186.01M3213.21 1822.9L3123.23 2186.01M3123.23 2186.01L3125.55 2327.64M3214.56 1968.01L3125.55 2327.64M3214.56 1968.01L3215.84 2104.38M3125.55 2327.64L3127.44 2443.19M3215.84 2104.38L3127.44 2443.19M3215.84 2104.38L3217.08 2237.3M3217.08 2237.3L3129.78 2585.8M3217.08 2237.3L3218.39 2378.01M3129.78 2585.8L3131.36 2682.33C3131.44 2687.11 3136.8 2689.88 3140.74 2687.19L3145.55 2683.91M3218.39 2378.01L3218.5 2390.37C3218.56 2396.78 3225.76 2400.52 3231.04 2396.88L3240.8 2390.17M3218.39 2378.01L3145.55 2683.91M3145.55 2683.91L3187.12 2655.52M3240.8 2390.17L3187.12 2655.52M3240.8 2390.17L3290.37 2356.05M3187.12 2655.52L3230.71 2625.76M3290.37 2356.05L3230.71 2625.76M3290.37 2356.05L3322.91 2333.66M3230.71 2625.76L3268.92 2599.67M3322.91 2333.66L3268.92 2599.67M3322.91 2333.66L3359.47 2308.49M3268.92 2599.67L3306.12 2574.26M3359.47 2308.49L3306.12 2574.26M3359.47 2308.49L3405.91 2276.53M3306.12 2574.26L3350.41 2544.02M3405.91 2276.53L3350.41 2544.02M3405.91 2276.53L3440.11 2253M3350.41 2544.02L3385.5 2520.06M3440.11 2253L3385.5 2520.06M3440.11 2253L3488.96 2219.38M3488.96 2219.38L3421.83 2495.25M3488.96 2219.38L3520.62 2197.59M3421.83 2495.25L3464.35 2466.22M3520.62 2197.59L3464.35 2466.22M3520.62 2197.59L3558.03 2171.84M3464.35 2466.22L3499.83 2441.99M3558.03 2171.84L3499.83 2441.99M3558.03 2171.84L3599.75 2143.13M3499.83 2441.99L3543.79 2411.97M3599.75 2143.13L3543.79 2411.97M3599.75 2143.13L3638.15 2116.71M3543.79 2411.97L3581.56 2386.18M3638.15 2116.71L3581.56 2386.18M3581.56 2386.18L3616.16 2362.55M3657.83 2188.97L3616.16 2362.55M2511.59 4436.44L2495 4483.9M2511.59 4436.44L2538.44 4416.96M2538.44 4416.96L2522.52 4482.77M2538.44 4416.96L2592.65 4377.62M2592.65 4377.62L2565.21 4481.65M2592.65 4377.62L2622.2 4356.17M2622.2 4356.17L2595.55 4481.65M2622.2 4356.17L2661.11 4327.94M2661.11 4327.94L2624.2 4481.65M2661.11 4327.94L2703.23 4297.38M2703.23 4297.38L2659.02 4481.65M2703.23 4297.38L2743.34 4268.27M2743.34 4268.27L2696.66 4483.9M2743.34 4268.27L2784.99 4238.05M2784.99 4238.05L2728.68 4483.9M2784.99 4238.05L2814.64 4216.54M2814.64 4216.54L2755.64 4481.65M2814.64 4216.54L2853.38 4188.42M2853.38 4188.42L2799.93 4466.93M2853.38 4188.42L2899.77 4154.76M2799.93 4466.93L2838.33 4438.71M2899.77 4154.76L2838.33 4438.71M2899.77 4154.76L2939.58 4125.87M2838.33 4438.71L2872.08 4413.91M2939.58 4125.87L2872.08 4413.91M2939.58 4125.87L2976.35 4099.19M2872.08 4413.91L2913.18 4383.7M2976.35 4099.19L2913.18 4383.7M2976.35 4099.19L3018.27 4068.77M2913.18 4383.7L2952.02 4355.16M3018.27 4068.77L2952.02 4355.16M3018.27 4068.77L3059.65 4038.74M2952.02 4355.16L2995.38 4323.29M3059.65 4038.74L2995.38 4323.29M3059.65 4038.74L3106.18 4004.98M2995.38 4323.29L3033.51 4295.26M3106.18 4004.98L3033.51 4295.26M3106.18 4004.98L3136.93 3982.67M3033.51 4295.26L3068.16 4269.79M3136.93 3982.67L3068.16 4269.79M3136.93 3982.67L3170.38 3958.4M3068.16 4269.79L3111.42 4238M3170.38 3958.4L3111.42 4238M3170.38 3958.4L3216.2 3925.14M3111.42 4238L3152.79 4207.59M3152.79 4207.59L3216.2 3925.14M3152.79 4207.59L3188.02 4181.7M3216.2 3925.14L3251.96 3899.19M3188.02 4181.7L3251.96 3899.19M3188.02 4181.7L3230.18 4150.71M3251.96 3899.19L3284.33 3875.71M3230.18 4150.71L3284.33 3875.71M3230.18 4150.71L3271.31 4120.49M3284.33 3875.71L3334.2 3839.51M3271.31 4120.49L3334.2 3839.51M3271.31 4120.49L3311.53 4090.93M3334.2 3839.51L3368.15 3814.88M3311.53 4090.93L3368.15 3814.88M3311.53 4090.93L3350.4 4062.35M3368.15 3814.88L3398.87 3792.59M3350.4 4062.35L3398.87 3792.59M3350.4 4062.35L3379.72 4040.81M3398.87 3792.59L3442.57 3760.88M3379.72 4040.81L3442.57 3760.88M3379.72 4040.81L3425.76 4006.97M3442.57 3760.88L3481.99 3732.28M3425.76 4006.97L3481.99 3732.28M3425.76 4006.97L3462.03 3980.31M3481.99 3732.28L3522.68 3702.75M3462.03 3980.31L3522.68 3702.75M3462.03 3980.31L3499.39 3952.85M3522.68 3702.75L3557.51 3677.48M3499.39 3952.85L3557.51 3677.48M3499.39 3952.85L3537.84 3924.59M3557.51 3677.48L3590.48 3653.55M3537.84 3924.59L3590.48 3653.55M3537.84 3924.59L3578.54 3894.68M3590.48 3653.55L3637.07 3619.74M3578.54 3894.68L3637.07 3619.74M3578.54 3894.68L3611.47 3870.48M3611.47 3870.48L3668.3 3638.25M3611.47 3870.48L3642.85 3847.41M3668.3 3638.25L3671.26 3731.3M3642.85 3847.41L3671.26 3731.3" stroke="#7481A1" stroke-width="10" stroke-linecap="round" stroke-linejoin="round"/>
<path d="M7239.29 3260.7C6718.48 2528.76 7228.84 1884.14 7228.84 1567.65C7228.84 1251.17 6943.59 994.605 6591.72 994.605M7211.8 1687.3C7211.8 1370.81 6926.56 1114.25 6574.69 1114.25" stroke="#7481A1" stroke-width="10"/>
<path d="M7593.61 3097.88C7085.3 2379.42 7549.11 2043.23 7549.11 1567.65C7549.11 1092.08 7120.48 706.543 6591.73 706.543" stroke="#7481A1" stroke-width="10"/>
<path d="M7762.74 3661.3C7736.22 3375.08 7350.9 3206.7 7234.78 2869.46C7057.12 2353.48 7371.02 1905.72 7371.02 1512.52C7371.02 1119.32 7005.49 890.786 6591.72 855.699C5589.89 770.743 6050.12 1056.22 4898.97 1788.67" stroke="#7481A1" stroke-width="10" stroke-linecap="round" stroke-dasharray="87 87"/>
</svg>
