<svg width="8286" height="4763" viewBox="0 0 8286 4763" fill="none" xmlns="http://www.w3.org/2000/svg">
<path d="M3044.82 1942.89L3047.98 1946.76L3049.73 1945.33L3049.81 1943.07L3044.82 1942.89ZM3082.97 1897.52L3084.34 1892.71L3084.34 1892.71L3082.97 1897.52ZM3359.29 1831.53L3356.81 1827.19L3356.81 1827.19L3359.29 1831.53ZM3467.55 1762.45L3465.38 1757.95L3465.09 1758.09L3464.83 1758.26L3467.55 1762.45ZM3595.4 1706.78L3596.85 1711.56L3595.4 1706.78ZM3831.51 1715.02L3826.54 1714.5L3826.52 1714.72L3826.51 1714.94L3831.51 1715.02ZM3795.43 1632.54L3794.96 1637.52L3795.43 1632.54ZM3521.17 1608.82L3519.87 1613.65L3519.87 1613.65L3521.17 1608.82ZM3278.87 1760.39L3278.56 1755.4L3278.32 1755.41L3278.08 1755.45L3278.87 1760.39ZM3911.65 1836.59L3909.67 1832L3909.67 1832L3911.65 1836.59ZM4013.31 1774.99L4016.92 1778.45L4016.92 1778.45L4013.31 1774.99ZM4027.83 1692.85L4031.6 1689.56L4031.6 1689.56L4027.83 1692.85ZM3995.75 1570.22L4000.68 1569.39L4000.68 1569.39L3995.75 1570.22ZM3519.44 1369.92L3514.44 1370.01L3514.44 1370.02L3519.44 1369.92ZM3586.26 1343.13L3590.67 1345.48L3582.04 1340.45L3586.26 1343.13ZM3628.46 1422.17L3625.29 1418.31L3625.24 1418.35L3625.18 1418.4L3628.46 1422.17ZM3563.54 1361.23L3565.57 1365.8L3565.57 1365.8L3563.54 1361.23ZM3660.58 1445.58L3660.45 1450.57L3660.46 1450.57L3660.48 1450.57L3660.58 1445.58ZM3686.55 1446.13L3686.45 1451.13L3686.64 1451.14L3686.83 1451.13L3686.55 1446.13ZM3724.88 1382.19L3728.7 1378.96L3728.59 1378.83L3728.47 1378.71L3724.88 1382.19ZM3641.13 1161.47L3644.69 1157.97L3644.69 1157.96L3641.13 1161.47ZM3571.93 1224.24L3568.22 1227.59L3568.28 1227.66L3568.34 1227.72L3571.93 1224.24ZM4047.41 1574.88L4043.84 1578.39L4043.84 1578.39L4047.41 1574.88ZM4077.81 1512.95L4082.58 1511.44L4082.58 1511.44L4077.81 1512.95ZM4050.62 1464.12L4055.61 1464.37L4055.61 1464.37L4050.62 1464.12ZM3914.63 1221.82L3912.52 1226.35L3912.52 1226.35L3914.63 1221.82ZM3935.27 1460.77L3931.7 1464.28L3931.7 1464.28L3935.27 1460.77ZM3946.77 1524.07L3949.5 1519.88L3949.28 1519.74L3949.05 1519.62L3946.77 1524.07ZM3973.43 1624.04L3969.31 1621.21L3969.31 1621.21L3973.43 1624.04ZM3974.95 1518.15L3970.52 1520.47L3970.52 1520.47L3974.95 1518.15ZM3520.63 1432.16L3515.63 1432.25L3515.63 1432.25L3520.63 1432.16ZM3242.92 843.388L3239.72 839.547L3239.72 839.547L3242.92 843.388ZM3296.19 811.154L3292.63 814.662L3292.63 814.662L3296.19 811.154ZM4046.78 1377.49L4042.83 1380.55L4042.83 1380.55L4046.78 1377.49ZM4162.18 1691.66L4158.61 1695.17L4158.61 1695.17L4162.18 1691.66ZM4218.21 1818.47L4213.63 1820.47L4213.63 1820.47L4218.21 1818.47ZM4098.27 1779.99L4096.08 1784.49L4096.08 1784.49L4098.27 1779.99ZM3851.32 1520.59L3846.32 1520.82L3846.32 1520.82L3851.32 1520.59ZM3858.31 1510.78L3857.08 1505.93L3857.08 1505.93L3858.31 1510.78ZM3953.17 1606.26L3949.17 1603.26L3949.17 1603.26L3953.17 1606.26ZM3949.54 1609.09L3947.63 1604.47L3947.63 1604.47L3949.54 1609.09ZM4057.61 1477.49L4053.89 1480.83L4053.89 1480.83L4057.61 1477.49ZM3423.11 1192.13L3426.76 1195.56L3426.76 1195.56L3423.11 1192.13ZM2890.35 1502.68L2890.74 1507.67L2890.35 1502.68ZM2896.88 2045.41L2895.02 2040.77L2895.02 2040.77L2896.88 2045.41ZM2589.64 2172.07L2591.76 2176.6L2591.76 2176.6L2589.64 2172.07ZM2392.76 2333.84L2396.03 2337.63L2392.76 2333.84ZM2263.6 2415.35L2260.95 2411.11L2260.95 2411.11L2263.6 2415.35ZM3626.58 1146.7L3623.02 1150.21L3623.02 1150.21L3626.58 1146.7ZM3836.65 985.813L3833.88 981.651L3833.88 981.651L3836.65 985.813ZM3971.85 980.226L3969.56 984.673L3969.56 984.673L3971.85 980.226ZM6114.67 2090.28L6117.68 2086.28L6117.42 2086.09L6117.14 2085.93L6114.67 2090.28ZM5937.74 2339.85L5936.04 2335.15L5936.04 2335.15L5937.74 2339.85ZM5233.16 3032.4L5236.83 3035.79L5236.83 3035.79L5233.16 3032.4ZM5292.7 3239.69L5296.81 3236.84L5296.81 3236.84L5292.7 3239.69ZM5434.1 3541.9L5439.1 3541.9L5434.1 3541.9ZM4917.58 3998.27L4922.28 3999.98L4922.28 3999.98L4917.58 3998.27ZM5051.33 3094.05L5050.69 3089.09L5051.33 3094.05ZM4882.64 3063.74L4883.85 3068.59L4882.64 3063.74ZM4713.96 3171.8L4717.55 3175.28L4713.96 3171.8ZM4499.15 3285.14L4499.15 3290.14L4499.15 3285.14ZM4202.63 3415.61L4205.4 3419.77L4205.4 3419.77L4202.63 3415.61ZM3943.01 3565.84L3941.23 3561.17L3943.01 3565.84ZM3783.55 3622.51L3785.95 3626.9L3785.95 3626.9L3783.55 3622.51ZM2952.26 3914.96L2947.98 3912.39L2947.98 3912.39L2952.26 3914.96ZM2394.12 3762.4L2390.32 3765.65L2390.32 3765.65L2394.12 3762.4ZM4945.01 3977.15L4947.84 3981.27L4947.84 3981.27L4945.01 3977.15ZM4493.15 3355.47L4489.11 3358.41L4489.11 3358.41L4493.15 3355.47ZM4561.68 3449.75L4557.63 3452.69L4557.63 3452.69L4561.68 3449.75ZM5192.23 3155.52L5195.3 3151.57L5195.3 3151.57L5192.23 3155.52ZM4629.24 3542.7L4625.19 3545.64L4625.19 3545.64L4629.24 3542.7ZM4670.43 3599.38L4666.39 3602.32L4666.39 3602.32L4670.43 3599.38ZM4735.95 3689.53L4731.91 3692.47L4731.91 3692.47L4735.95 3689.53ZM5384.65 3423.55L5389.17 3421.42L5389.17 3421.42L5384.65 3423.55ZM4804.1 3783.28L4800.05 3786.22L4800.05 3786.22L4804.1 3783.28ZM4879.41 3886.89L4875.36 3889.83L4875.36 3889.83L4879.41 3886.89ZM6010.27 2444.55L6005.69 2442.55L6005.69 2442.55L6010.27 2444.55ZM5949.65 2512.24L5947.33 2507.81L5947.27 2507.84L5947.2 2507.88L5949.65 2512.24ZM5868.83 2562.75L5864.88 2559.68L5868.83 2562.75ZM5972.44 2495.81L5969.11 2492.08L5969.11 2492.08L5972.44 2495.81ZM6131.51 2501.12L6136.5 2500.84L6131.51 2501.12ZM5460.83 3599.37L5463.55 3603.57L5463.55 3603.57L5460.83 3599.37ZM5677.96 2733.33C5675.78 2735.02 5675.38 2738.16 5677.08 2740.34C5678.77 2742.52 5681.91 2742.92 5684.09 2741.23L5677.96 2733.33ZM5176.88 1480.5L5181.79 1479.58L5181.34 1477.15L5179.13 1476.04L5176.88 1480.5ZM4162.37 967.337L4164.84 962.991L4164.34 962.707L4163.79 962.543L4162.37 967.337ZM4103.41 1018.36L4099.44 1021.4L4099.93 1022.04L4100.6 1022.5L4103.41 1018.36ZM4036.51 818.802L4041.38 819.919L4036.51 818.802ZM4086.4 714.487L4090.4 717.487L4090.54 717.307L4090.65 717.116L4086.4 714.487ZM4004.06 848.018L3999.07 848.457L4004.06 848.018ZM5771.81 4062.86L5770.32 4058.09L5771.81 4062.86ZM5816.9 4063.89L5819.79 4059.81L5819.79 4059.81L5816.9 4063.89ZM5887.11 4125.21L5883.8 4128.96L5883.8 4128.96L5887.11 4125.21ZM2535.71 2210.19L2532.57 2206.3L2535.71 2210.19ZM4156.94 3444.09L4159.53 3448.36L4159.53 3448.36L4156.94 3444.09ZM4555.55 3263.47L4557.6 3268.02L4555.55 3263.47ZM2820.37 2076.34L2818.49 2071.71L2820.37 2076.34ZM3835.91 1203.73L3834.91 1208.63L3835.91 1203.73ZM4343.78 2955.27L4340.99 2959.42L4340.99 2959.42L4343.78 2955.27ZM5811.93 2207.16L5815.39 2210.77L5815.39 2210.77L5811.93 2207.16ZM4585.54 2731.46L4582.14 2727.79L4582.14 2727.79L4585.54 2731.46ZM4637.41 2683.44L4634.01 2679.77L4634.01 2679.77L4637.41 2683.44ZM5035.83 2951.64L5039.29 2955.25L5039.29 2955.25L5035.83 2951.64ZM3117.91 2132.55L3115.13 2136.7L3115.13 2136.7L3117.91 2132.55ZM3065.94 2181.83L3069.94 2178.83L3065.94 2181.83ZM3139.6 2241.32L3143.6 2238.32L3139.6 2241.32ZM3537.49 2500.01L3534.24 2503.81L3537.49 2500.01ZM5271.95 2130.99L5275.76 2134.23L5271.95 2130.99ZM5299.99 2127.45L5303.9 2130.57L5299.99 2127.45ZM5326.06 2113.52L5322.69 2117.22L5326.06 2113.52ZM5310.05 2114.8L5313.96 2117.92L5310.05 2114.8ZM5329.59 2131.87L5325.95 2128.44L5329.59 2131.87ZM5328.99 2116.18L5332.35 2112.48L5328.99 2116.18ZM5288.92 2160.1L5285.76 2163.97L5288.92 2160.1ZM5303.87 2159.12L5300.23 2155.69L5303.87 2159.12ZM5272.96 2147.09L5269.8 2150.97L5272.96 2147.09ZM5271.54 2131.47L5275.35 2134.71L5271.54 2131.47ZM5265.96 2184.67L5262.32 2181.25L5265.96 2184.67ZM5265.04 2168.72L5261.82 2172.55L5265.04 2168.72ZM5251.8 2199.71L5255.44 2203.14L5251.8 2199.71ZM5221.3 2173.42L5224.94 2176.85L5221.3 2173.42ZM5222.58 2189.67L5225.63 2185.71L5222.58 2189.67ZM3497.13 2504.5L3492.39 2506.11L3497.13 2504.5ZM3510.73 2511.4L3509.18 2506.64L3510.73 2511.4ZM3499.78 2482.73L3497.55 2478.26L3499.78 2482.73ZM3494.28 2496.1L3499.02 2494.49L3494.28 2496.1ZM3510.56 2477.34L3508.33 2472.87L3510.56 2477.34ZM3524.95 2481.44L3529.19 2478.79L3524.95 2481.44ZM3454.23 2466.96L3453.98 2471.95L3454.23 2466.96ZM3465.78 2456.11L3460.78 2456.05L3465.78 2456.11ZM3432.9 2455.71L3437.9 2455.58L3432.9 2455.71ZM3443.34 2466.42L3443.09 2471.41L3443.34 2466.42ZM3432.64 2445.52L3427.64 2445.65L3432.64 2445.52ZM3465.91 2445.38L3470.91 2445.44L3465.91 2445.38ZM3375.46 2424.54L3374.14 2429.36L3375.46 2424.54ZM3388.85 2417.26L3393.62 2418.77L3388.85 2417.26ZM3363.1 2410.01L3358.25 2408.79L3363.1 2410.01ZM3370.86 2423.28L3369.54 2428.1L3370.86 2423.28ZM3381.07 2389.11L3381.85 2394.05L3381.07 2389.11ZM3393.28 2403.3L3398.04 2404.81L3393.28 2403.3ZM3331.29 2364.17L3328.08 2360.34L3331.29 2364.17ZM3332.25 2348.22L3335.9 2344.8L3332.25 2348.22ZM3297.75 2378.81L3301.38 2375.37L3297.75 2378.81ZM3312.81 2379.68L3309.59 2375.85L3312.81 2379.68ZM3233.74 2306.64L3236.65 2310.7L3233.74 2306.64ZM3233.85 2324.61L3230.99 2328.71L3233.85 2324.61ZM3243.22 2299.86L3240.32 2295.8L3243.22 2299.86ZM3257.39 2301.04L3253.86 2304.57L3257.39 2301.04ZM3196.81 2276.3L3200.21 2279.97L3196.81 2276.3ZM3197.54 2260.89L3193.81 2264.22L3197.54 2260.89ZM2776.88 1448.11L2772.44 1450.42L2776.88 1448.11ZM2763.74 1442.72L2765.33 1447.46L2763.74 1442.72ZM3169.1 2285.53L3173.08 2282.5L3169.1 2285.53ZM3185.32 2286.94L3181.92 2283.27L3185.32 2286.94ZM3178.77 2252.36L3176.46 2247.93L3178.77 2252.36ZM3192.05 2254.77L3195.78 2251.43L3192.05 2254.77ZM3108.08 2250.1L3104.14 2253.17L3108.08 2250.1ZM3101.92 2217.26L3103.19 2222.09L3101.92 2217.26ZM3096.04 2234.66L3092.1 2237.74L3096.04 2234.66ZM3118.7 2212.85L3117.43 2208.02L3118.7 2212.85ZM3132.1 2220.31L3136.87 2218.81L3136.87 2218.81L3132.1 2220.31ZM3036.5 2173.47L3034.5 2168.89L3036.5 2173.47ZM3033.66 2191.83L3036.95 2188.07L3033.66 2191.83ZM3047.9 2168.5L3045.9 2163.92L3047.9 2168.5ZM3063.27 2175.58L3058.54 2177.21L3063.27 2175.58ZM3001.27 2150.64L3004.15 2154.73L3001.27 2150.64ZM2978.78 2153.44L2974.78 2156.44L2978.78 2153.44ZM2993.92 2155.83L2996.8 2159.92L2993.92 2155.83ZM2982.67 2134.5L2981.09 2129.76L2982.67 2134.5ZM2977.35 2151.54L2981.35 2148.54L2977.35 2151.54ZM2991.6 2131.52L2993.18 2136.27L2991.6 2131.52ZM3261.49 1975.55L3265.3 1978.79L3261.49 1975.55ZM3259.6 1959.51L3262.54 1955.46L3259.6 1959.51ZM3282.39 1927.9L3279.23 1931.77L3282.39 1927.9ZM3296.78 1927.49L3300.16 1931.18L3296.78 1927.49ZM4788.26 2705.64L4784.58 2702.25L4788.26 2705.64ZM4787.01 2689.59L4783.9 2693.5L4787.01 2689.59ZM4748.54 2734.52L4751.46 2730.46L4751.46 2730.46L4748.54 2734.52ZM4763.07 2733.04L4759.39 2729.65L4763.07 2733.04ZM5019.38 2691.08L5016.75 2695.33L5019.38 2691.08ZM5035.19 2686.29L5030.64 2684.22L5035.19 2686.29ZM4887.55 2600.85L4891.79 2603.52L4887.55 2600.85ZM4890.83 2615.91L4888.08 2620.09L4890.83 2615.91ZM4889.06 2598.45L4893.3 2601.12L4889.06 2598.45ZM4904.34 2595.08L4907.06 2590.88L4904.34 2595.08ZM4874.24 2589.96L4878.62 2592.39L4874.24 2589.96ZM4870.83 2575.55L4868.01 2579.68L4870.83 2575.55ZM4857.53 2595.67L4854.77 2599.84L4857.53 2595.67ZM4873.21 2591.82L4877.59 2594.25L4873.21 2591.82ZM4831.31 2565.1L4835.47 2567.88L4835.47 2567.88L4831.31 2565.1ZM4834.39 2580.39L4837.15 2576.22L4834.39 2580.39ZM4832.74 2562.96L4828.58 2560.18L4832.74 2562.96ZM4848.09 2559.99L4850.92 2555.87L4848.09 2559.99ZM5073.08 2850.62L5075.82 2846.44L5073.08 2850.62ZM5086.66 2849.44L5083.23 2845.8L5086.66 2849.44ZM4762.49 2630.88L4766.09 2634.35L4762.49 2630.88ZM4764.36 2647.72L4761.61 2651.9L4764.36 2647.72ZM4801.64 2590.44L4798.05 2586.96L4801.64 2590.44ZM4815.52 2588.85L4818.23 2584.66L4815.52 2588.85ZM5251.44 2493.08L5251.11 2488.1L5251.44 2493.08ZM5262.3 2502.02L5257.36 2502.76L5262.3 2502.02ZM5231.99 2494.6L5231.59 2489.61L5231.99 2494.6ZM5221.2 2508.45L5226.12 2507.56L5221.2 2508.45ZM5377.26 2136.09L5380.77 2139.65L5377.26 2136.09ZM5390.19 2134.25L5387.82 2138.65L5390.19 2134.25ZM5279.42 2069.39L5281.83 2065L5279.42 2069.39ZM5281.6 2087.1L5284.99 2090.77L5281.6 2087.1ZM4063.98 2720.07L4060.63 2716.36L4063.98 2720.07ZM4050.44 2721.03L4053.24 2716.89L4050.44 2721.03ZM4902.22 1940.74L4899.74 1945.08L4902.22 1940.74ZM4904.15 1958.44L4900.79 1954.73L4904.15 1958.44ZM3915.32 1739.44L3911.58 1742.76L3915.32 1739.44ZM3912.55 1732.4L3917.55 1732.28L3912.55 1732.4ZM4299.74 1604.42L4302.93 1608.27L4299.74 1604.42ZM4312.22 1603.34L4309.74 1607.68L4312.22 1603.34ZM5236.01 2157.83L5232.37 2154.4L5236.01 2157.83ZM5251.1 2156.97L5247.88 2160.79L5251.1 2156.97ZM5419.73 3679.21L5422.34 3683.48L5419.73 3679.21ZM5424.88 3670.83L5429.86 3671.26L5424.88 3670.83ZM3226.46 1776.13L3222.99 1772.53L3226.46 1776.13ZM3224 1779.69L3228.07 1782.6L3224 1779.69ZM5842.28 2158.1L5844.65 2153.69L5842.28 2158.1ZM5844.7 2175.73L5848.16 2179.34L5844.7 2175.73ZM3237.59 2327.22L3240.45 2323.12L3237.59 2327.22ZM3250.87 2326.69L3254.05 2330.55L3250.87 2326.69ZM5910.05 4145.88L5906.73 4149.62L5910.05 4145.88ZM5917.3 4148.61L5917.29 4143.61L5917.3 4148.61ZM3037.11 2194.85L3040.4 2191.09L3037.11 2194.85ZM3050.13 2195.77L3052.93 2199.91L3050.13 2195.77ZM4107.84 951.182L4106.42 955.976L4107.84 951.182ZM4096.5 954.42L4100.23 957.742L4096.5 954.42ZM4900.37 1340.85L4898.12 1345.32L4900.37 1340.85ZM4894.5 1339.91L4895.43 1344.82L4894.5 1339.91ZM3231.97 1994.63L3229.06 1998.69L3229.06 1998.69L3231.97 1994.63ZM3246.74 1992.82L3250.54 1996.07L3246.74 1992.82ZM5112.44 1560.3L5112.21 1555.31L5112.44 1560.3ZM5111.47 1559.34L5106.47 1559.25L5111.47 1559.34ZM4755.01 2677.41L4751.27 2674.09L4755.01 2677.41ZM4770.09 2676.11L4766.98 2680.02L4770.09 2676.11ZM5859.84 2686.24L5863.17 2689.97L5859.84 2686.24ZM4950.18 2635.14L4945.95 2632.47L4950.18 2635.14ZM4953.69 2650.35L4956.32 2646.1L4953.69 2650.35ZM5796.89 2620.74L5799.9 2624.73L5796.89 2620.74ZM5795.4 2622.11L5791.7 2618.74L5795.4 2622.11ZM3974.92 1518.08L3979.34 1515.76L3974.92 1518.08ZM3477.15 2317.4L3473.85 2313.64L3477.15 2317.4ZM3708.6 3671.58L3711.41 3675.72L3708.6 3671.58ZM3705.43 3673.06L3706.78 3677.88L3706.78 3677.88L3705.43 3673.06ZM3374.99 2390.07L3374.21 2385.13L3374.99 2390.07ZM3366.03 2398.27L3370.88 2399.48L3370.88 2399.48L3366.03 2398.27ZM6134.86 2220.86L6138.94 2223.75L6134.86 2220.86ZM6133.79 2222.14L6130.21 2218.66L6133.79 2222.14ZM3682.44 1696.49L3682.38 1691.49L3682.44 1696.49ZM3689.11 1698.66L3692.04 1694.61L3689.11 1698.66ZM5987.23 4142.52L5982.79 4140.21L5987.23 4142.52ZM5977.5 4148.44L5977.49 4143.44L5977.5 4148.44ZM4950.38 2634.8L4946.16 2632.14L4950.38 2634.8ZM4965.3 2631.21L4962.75 2635.51L4965.3 2631.21ZM5035.99 2684.54L5040.54 2686.61L5035.99 2684.54ZM5031.59 2670.51L5034.14 2666.21L5034.14 2666.21L5031.59 2670.51ZM3291.01 2356.03L3294.53 2359.59L3291.01 2356.03ZM3290.75 2371.42L3287.12 2374.86L3290.75 2371.42ZM3754.84 1791.89L3759.68 1790.66L3754.84 1791.89ZM3756 1794.69L3751.76 1797.33L3756 1794.69ZM5991.89 4133.55L5996.33 4135.86L5991.89 4133.55ZM4927.4 2622.17L4923.03 2619.75L4927.4 2622.17ZM4923.74 2607.62L4921.03 2611.82L4923.74 2607.62ZM3308.2 2339.06L3304.69 2335.5L3308.2 2339.06ZM3323.96 2339.37L3327.61 2335.95L3323.96 2339.37ZM3731.32 1722.38L3733 1717.67L3731.32 1722.38ZM3739.33 1730.76L3734.48 1731.99L3739.33 1730.76ZM5950.52 4098.01L5952.5 4102.6L5950.52 4098.01ZM5962.42 4100.12L5965.85 4096.49L5962.42 4100.12ZM3688.8 1601.7L3690.73 1597.09L3688.8 1601.7ZM3683.28 1600.89L3683.83 1605.86L3683.28 1600.89ZM4910.28 2628.68L4907.54 2632.86L4910.28 2628.68ZM4925.95 2624.8L4930.33 2627.22L4925.95 2624.8ZM4980.81 2528.13L4977.01 2524.87L4980.81 2528.13ZM4994.98 2525.95L4997.63 2521.71L4994.98 2525.95ZM5264.87 2519.14L5269.81 2518.39L5264.87 2519.14ZM5255.14 2531.7L5254.62 2526.73L5255.14 2531.7ZM5236.13 2533.71L5235.6 2528.73L5236.13 2533.71ZM5224.15 2524.73L5219.23 2525.62L5224.15 2524.73ZM5640.33 2284.94L5643.95 2288.39L5640.33 2284.94ZM5637.59 2267.68L5635.21 2272.08L5637.59 2267.68ZM5208.03 2672.19L5203.88 2669.4L5208.03 2672.19ZM5204.71 2656.73L5207.36 2652.49L5204.71 2656.73ZM5160.69 2348.92L5164.2 2352.49L5160.69 2348.92ZM5162.46 2366.02L5159.75 2370.23L5162.46 2366.02ZM4972.46 2537.87L4968.66 2534.61L4968.66 2534.61L4972.46 2537.87ZM4974.95 2554.33L4972.28 2558.56L4974.95 2554.33ZM3922.49 1127.82L3924.85 1123.42L3922.49 1127.82ZM3909.49 1129.76L3913.03 1133.28L3909.49 1129.76ZM4729.65 2705.98L4725.91 2702.67L4729.65 2705.98ZM4731.45 2722.21L4728.53 2726.27L4731.45 2722.21ZM5947.89 2607.56L5944.56 2603.83L5947.89 2607.56ZM5951.6 2599.11L5956.6 2599.08L5951.6 2599.11ZM5130.15 2808.48L5126.72 2804.84L5130.15 2808.48ZM5128.58 2791.24L5125.86 2795.43L5128.58 2791.24ZM3259.16 2319.86L3255.98 2316L3259.16 2319.86ZM3259.95 2303.59L3256.41 2307.12L3259.95 2303.59ZM5403.43 2520.8L5406.13 2516.6L5406.13 2516.6L5403.43 2520.8ZM5417.34 2519.13L5413.72 2515.68L5417.34 2519.13ZM5200.3 2683.74L5204.45 2686.52L5200.3 2683.74ZM5763.65 2689.98L5765.68 2694.55L5763.65 2689.98ZM3831.74 1778.31L3827.3 1780.59L3831.74 1778.31ZM3830.53 1773.1L3825.53 1773.01L3830.53 1773.1ZM3165.34 2259.37L3167.65 2263.8L3165.34 2259.37ZM3161.68 2275.79L3165.65 2272.76L3161.68 2275.79ZM3161.41 1879.08L3162.43 1874.19L3161.41 1879.08ZM3049.81 1943.07C3050.14 1934.22 3052.37 1921.73 3057.64 1912.66C3060.25 1908.18 3063.41 1904.85 3067.14 1903C3070.76 1901.21 3075.41 1900.56 3081.59 1902.33L3084.34 1892.71C3076.08 1890.36 3068.83 1891 3062.7 1894.04C3056.68 1897.02 3052.24 1902.07 3049 1907.64C3042.58 1918.67 3040.18 1932.99 3039.82 1942.7L3049.81 1943.07ZM3160.4 1883.98C3169.46 1885.86 3181.99 1887.95 3194.28 1888.9C3206.38 1889.83 3219.02 1889.75 3227.87 1886.8L3224.7 1877.31C3217.91 1879.58 3207.03 1879.85 3195.06 1878.93C3183.29 1878.02 3171.2 1876.01 3162.43 1874.19L3160.4 1883.98ZM3227.87 1886.8C3234.42 1884.61 3239.74 1880.2 3244.18 1875.37C3248.6 1870.55 3252.47 1864.93 3255.9 1860.05C3259.46 1854.97 3262.43 1850.85 3265.34 1848.18C3268.18 1845.57 3269.94 1845.26 3271.39 1845.64L3273.97 1835.98C3267.69 1834.31 3262.5 1837.21 3258.57 1840.82C3254.71 1844.37 3251.11 1849.46 3247.71 1854.31C3244.17 1859.35 3240.7 1864.37 3236.81 1868.6C3232.93 1872.83 3228.98 1875.89 3224.7 1877.31L3227.87 1886.8ZM3271.39 1845.64C3275.95 1846.86 3282.98 1847.29 3290.73 1847.26C3298.64 1847.23 3307.79 1846.7 3316.87 1845.79C3325.96 1844.87 3335.06 1843.56 3342.86 1841.94C3350.49 1840.35 3357.42 1838.36 3361.77 1835.88L3356.81 1827.19C3353.94 1828.83 3348.37 1830.58 3340.83 1832.15C3333.45 1833.68 3324.7 1834.95 3315.87 1835.84C3307.04 1836.73 3298.22 1837.23 3290.69 1837.26C3283.01 1837.29 3277.14 1836.83 3273.97 1835.98L3271.39 1845.64ZM3361.77 1835.88C3373.48 1829.19 3439.1 1786.86 3470.27 1766.65L3464.83 1758.26C3433.46 1778.6 3368.2 1820.68 3356.81 1827.19L3361.77 1835.88ZM3596.85 1711.56C3621.69 1704.03 3662 1701.74 3682.5 1701.49L3682.38 1691.49C3661.82 1691.74 3620.27 1694.02 3593.95 1701.99L3596.85 1711.56ZM3686.17 1702.71C3696.06 1709.86 3714.14 1721.55 3729.64 1727.09L3733 1717.67C3718.88 1712.63 3701.73 1701.62 3692.04 1694.61L3686.17 1702.71ZM3734.48 1731.99L3749.99 1793.12L3759.68 1790.66L3744.17 1729.53L3734.48 1731.99ZM3751.76 1797.33C3758.1 1807.54 3770.33 1820.27 3787.57 1826.72C3805.06 1833.26 3827.19 1833.14 3852.59 1818.32L3847.55 1809.69C3824.59 1823.08 3805.58 1822.78 3791.07 1817.35C3776.32 1811.84 3765.69 1800.81 3760.25 1792.05L3751.76 1797.33ZM3854.52 1811.72L3836.19 1776.03L3827.3 1780.59L3845.63 1816.29L3854.52 1811.72ZM3835.53 1773.18L3836.51 1715.11L3826.51 1714.94L3825.53 1773.01L3835.53 1773.18ZM3836.49 1715.55C3837.9 1702.09 3837.77 1681.59 3832.6 1663.83C3827.47 1646.18 3816.72 1629.5 3795.89 1627.56L3794.96 1637.52C3809.6 1638.88 3818.27 1650.38 3823 1666.62C3827.69 1682.74 3827.87 1701.84 3826.54 1714.5L3836.49 1715.55ZM3795.89 1627.56C3762.62 1624.47 3713.72 1606.71 3690.73 1597.09L3686.86 1606.32C3709.92 1615.97 3760.05 1634.27 3794.96 1637.52L3795.89 1627.56ZM3682.73 1595.92C3659.23 1598.51 3624.03 1601.9 3592.12 1603.94C3576.16 1604.95 3561.07 1605.63 3548.71 1605.7C3536.12 1605.78 3526.97 1605.21 3522.47 1604L3519.87 1613.65C3525.87 1615.27 3536.35 1615.77 3548.77 1615.7C3561.41 1615.63 3576.7 1614.94 3592.76 1613.92C3624.87 1611.87 3660.22 1608.46 3683.83 1605.86L3682.73 1595.92ZM3522.47 1604C3514.22 1601.78 3507.52 1603.49 3501.75 1607.7C3496.39 1611.62 3491.89 1617.69 3487.47 1623.81C3478.36 1636.44 3468.18 1651.38 3448.82 1661.06L3453.29 1670C3475.17 1659.07 3486.64 1642.04 3495.58 1629.67C3500.18 1623.29 3503.8 1618.6 3507.65 1615.78C3511.1 1613.26 3514.71 1612.26 3519.87 1613.65L3522.47 1604ZM3448.82 1661.06C3438.17 1666.38 3425.1 1674.87 3410.91 1684.48C3396.6 1694.16 3381.13 1705 3365.32 1715.35C3349.53 1725.68 3333.62 1735.38 3318.66 1742.67C3303.62 1750 3289.95 1754.69 3278.56 1755.4L3279.18 1765.38C3292.53 1764.55 3307.6 1759.18 3323.04 1751.66C3338.56 1744.09 3354.88 1734.13 3370.79 1723.72C3386.68 1713.32 3402.4 1702.31 3416.51 1692.76C3430.74 1683.13 3443.31 1674.99 3453.29 1670L3448.82 1661.06ZM3278.08 1755.45C3260.52 1758.26 3248.11 1761.32 3239.49 1764.2C3231.07 1767.03 3225.77 1769.86 3222.99 1772.53L3229.93 1779.73C3231.04 1778.67 3234.56 1776.4 3242.67 1773.69C3250.6 1771.03 3262.45 1768.08 3279.66 1765.33L3278.08 1755.45ZM3219.93 1776.79C3212.49 1787.2 3200.5 1802.22 3187.56 1814.97C3181.1 1821.35 3174.48 1827.07 3168.17 1831.36C3161.77 1835.7 3156.07 1838.3 3151.37 1838.95L3152.73 1848.86C3159.66 1847.9 3166.87 1844.33 3173.78 1839.63C3180.77 1834.89 3187.86 1828.72 3194.58 1822.09C3208.03 1808.84 3220.39 1793.35 3228.07 1782.6L3219.93 1776.79ZM3846.41 1817.4C3852.16 1823.61 3862.22 1832.18 3874.02 1837.93C3885.75 1843.66 3900.08 1847.02 3913.62 1841.18L3909.67 1832C3899.97 1836.17 3888.94 1834.09 3878.4 1828.95C3867.93 1823.84 3858.83 1816.1 3853.74 1810.61L3846.41 1817.4ZM3913.62 1841.18C3928.19 1834.9 3940.33 1828.38 3948.17 1818.93C3956.29 1809.15 3959.3 1796.88 3957.17 1780.36L3947.25 1781.64C3949.13 1796.17 3946.38 1805.43 3940.47 1812.55C3934.29 1820.01 3924.14 1825.76 3909.67 1832L3913.62 1841.18ZM3955.95 1777.68L3919.06 1736.12L3911.58 1742.76L3948.47 1784.32L3955.95 1777.68ZM3917.55 1732.28L3915.64 1651.17L3905.64 1651.4L3907.55 1732.51L3917.55 1732.28ZM3950 1785.48C3956.81 1788.84 3968.1 1792.48 3980.32 1792.67C3992.6 1792.86 4006.26 1789.56 4016.92 1778.45L4009.7 1771.53C4001.53 1780.05 3990.9 1782.84 3980.47 1782.67C3969.97 1782.51 3960.13 1779.33 3954.42 1776.51L3950 1785.48ZM3524.44 1369.83L3522.93 1285.43L3512.94 1285.61L3514.44 1370.01L3524.44 1369.83ZM3581.85 1340.78C3575.41 1352.86 3566.57 1371.44 3561.01 1387.94C3558.24 1396.13 3556.17 1404.15 3555.74 1410.71C3555.53 1413.98 3555.7 1417.24 3556.62 1420.09C3557.58 1423.05 3559.45 1425.81 3562.66 1427.35L3566.99 1418.34C3566.85 1418.27 3566.48 1418.07 3566.13 1417.01C3565.75 1415.84 3565.55 1414 3565.72 1411.36C3566.07 1406.11 3567.81 1399.07 3570.48 1391.13C3575.81 1375.35 3584.38 1357.29 3590.67 1345.48L3581.85 1340.78ZM3562.66 1427.35C3569.78 1430.77 3581.58 1434.88 3594.18 1436.01C3606.73 1437.13 3620.9 1435.36 3631.74 1425.95L3625.18 1418.4C3617.25 1425.28 3606.31 1427.06 3595.07 1426.05C3583.9 1425.05 3573.26 1421.35 3566.99 1418.34L3562.66 1427.35ZM3519.37 1374.92C3530.19 1375.07 3549.15 1373.07 3565.57 1365.8L3561.52 1356.66C3546.8 1363.18 3529.37 1365.06 3519.51 1364.92L3519.37 1374.92ZM3565.57 1365.8C3575.32 1361.48 3584.58 1355.11 3590.48 1345.81L3582.04 1340.45C3577.56 1347.51 3570.22 1352.81 3561.52 1356.66L3565.57 1365.8ZM3568.4 1362.43C3572.17 1347.13 3577.05 1322.63 3579.46 1298.7C3580.66 1286.73 3581.26 1274.8 3580.77 1264.18C3580.28 1253.67 3578.7 1243.95 3575.22 1236.72L3566.21 1241.05C3568.81 1246.46 3570.31 1254.57 3570.78 1264.65C3571.24 1274.61 3570.69 1286.01 3569.51 1297.69C3567.16 1321.06 3562.37 1345.09 3558.69 1360.04L3568.4 1362.43ZM3631.63 1426.04C3640.69 1418.6 3654.41 1404.44 3665.28 1386.64L3656.74 1381.43C3646.51 1398.19 3633.57 1411.51 3625.29 1418.31L3631.63 1426.04ZM3665.28 1386.64C3674.7 1371.2 3682.22 1352.65 3682.34 1333.12L3672.34 1333.06C3672.24 1350.12 3665.63 1366.88 3656.74 1381.43L3665.28 1386.64ZM3656.01 1384L3655.58 1445.54L3665.58 1445.61L3666.01 1384.07L3656.01 1384ZM3790.86 1453.72C3768.29 1445.73 3742.08 1442.62 3721.72 1441.48C3711.5 1440.9 3702.66 1440.82 3696.38 1440.88C3693.24 1440.91 3690.73 1440.97 3689 1441.03C3688.13 1441.06 3687.46 1441.09 3687 1441.11C3686.77 1441.12 3686.6 1441.13 3686.47 1441.13C3686.41 1441.13 3686.37 1441.14 3686.34 1441.14C3686.32 1441.14 3686.31 1441.14 3686.3 1441.14C3686.29 1441.14 3686.29 1441.14 3686.29 1441.14C3686.29 1441.14 3686.28 1441.14 3686.28 1441.14C3686.28 1441.14 3686.28 1441.14 3686.55 1446.13C3686.83 1451.13 3686.82 1451.13 3686.82 1451.13C3686.82 1451.13 3686.82 1451.13 3686.83 1451.13C3686.83 1451.13 3686.83 1451.13 3686.83 1451.13C3686.84 1451.13 3686.84 1451.13 3686.86 1451.13C3686.88 1451.12 3686.92 1451.12 3686.97 1451.12C3687.08 1451.11 3687.24 1451.11 3687.45 1451.1C3687.87 1451.08 3688.51 1451.05 3689.33 1451.02C3690.99 1450.97 3693.42 1450.9 3696.47 1450.88C3702.59 1450.82 3711.19 1450.9 3721.15 1451.46C3741.16 1452.59 3766.27 1455.62 3787.53 1463.14L3790.86 1453.72ZM3686.66 1441.14L3660.69 1440.58L3660.48 1450.57L3686.45 1451.13L3686.66 1441.14ZM3793.02 1455.21C3780.46 1440.32 3764.38 1421.26 3751.44 1405.92C3744.97 1398.25 3739.29 1391.51 3735.22 1386.69C3733.19 1384.28 3731.56 1382.35 3730.44 1381.02C3729.88 1380.35 3729.44 1379.84 3729.15 1379.49C3729 1379.32 3728.89 1379.18 3728.82 1379.1C3728.78 1379.05 3728.75 1379.02 3728.73 1379C3728.72 1378.98 3728.71 1378.98 3728.71 1378.97C3728.71 1378.97 3728.71 1378.97 3728.7 1378.96C3728.7 1378.96 3728.7 1378.96 3728.7 1378.96C3728.7 1378.96 3728.7 1378.96 3724.88 1382.19C3721.06 1385.41 3721.06 1385.41 3721.06 1385.41C3721.06 1385.41 3721.06 1385.41 3721.06 1385.41C3721.06 1385.41 3721.06 1385.42 3721.07 1385.42C3721.07 1385.42 3721.08 1385.43 3721.09 1385.44C3721.11 1385.47 3721.13 1385.5 3721.17 1385.54C3721.25 1385.63 3721.36 1385.76 3721.51 1385.94C3721.8 1386.29 3722.23 1386.8 3722.79 1387.46C3723.91 1388.79 3725.54 1390.72 3727.58 1393.14C3731.64 1397.96 3737.33 1404.7 3743.8 1412.37C3756.74 1427.71 3772.81 1446.77 3785.37 1461.65L3793.02 1455.21ZM3728.47 1378.71L3680.93 1329.61L3673.75 1336.57L3721.29 1385.66L3728.47 1378.71ZM3691.43 1445.01C3689.4 1436.2 3688.88 1421.21 3693.51 1408.72C3695.8 1402.54 3699.25 1397.2 3704.17 1393.41C3709.04 1389.66 3715.68 1387.16 3724.87 1387.19L3724.89 1377.19C3713.75 1377.15 3704.88 1380.24 3698.07 1385.49C3691.3 1390.71 3686.89 1397.79 3684.13 1405.24C3678.67 1419.99 3679.33 1437.03 3681.68 1447.26L3691.43 1445.01ZM4016.92 1778.45C4034.01 1760.63 4041.87 1734.58 4040.44 1714.19L4030.47 1714.89C4031.71 1732.65 4024.71 1755.88 4009.7 1771.53L4016.92 1778.45ZM4040.44 1714.19C4039.78 1704.67 4037.04 1695.78 4031.6 1689.56L4024.07 1696.15C4027.56 1700.13 4029.89 1706.61 4030.47 1714.89L4040.44 1714.19ZM3680.93 1329.61L3575.52 1220.76L3568.34 1227.72L3673.75 1336.57L3680.93 1329.61ZM3637.77 1157.77L3568.57 1220.54L3575.29 1227.95L3644.49 1165.18L3637.77 1157.77ZM4050.12 1579.09C4057.51 1574.33 4067.9 1565.42 4075.35 1553.85C4082.81 1542.25 4087.63 1527.43 4082.58 1511.44L4073.05 1514.45C4076.9 1526.65 4073.43 1538.35 4066.94 1548.44C4060.41 1558.57 4051.15 1566.53 4044.71 1570.68L4050.12 1579.09ZM3650.85 1164.23L3644.69 1157.97L3637.56 1164.98L3643.72 1171.24L3650.85 1164.23ZM3842.33 1359.07L3650.85 1164.23L3643.72 1171.24L3835.2 1366.08L3842.33 1359.07ZM3844.46 1278.71C3840.51 1288.77 3835.25 1304.98 3832.28 1321.11C3830.79 1329.18 3829.85 1337.37 3829.97 1344.83C3830.09 1352.21 3831.25 1359.36 3834.4 1365.01L3843.13 1360.15C3841.15 1356.58 3840.08 1351.33 3839.97 1344.67C3839.86 1338.09 3840.7 1330.61 3842.11 1322.93C3844.95 1307.56 3849.99 1291.97 3853.77 1282.36L3844.46 1278.71ZM4050.98 1571.38L3938.83 1457.27L3931.7 1464.28L4043.84 1578.39L4050.98 1571.38ZM3938.83 1457.27L3842.33 1359.07L3835.2 1366.08L3931.7 1464.28L3938.83 1457.27ZM3946.43 1362.19C3942.31 1372.93 3936.58 1390.66 3932.73 1409.16C3928.92 1427.46 3926.75 1447.35 3930.42 1461.98L3940.12 1459.56C3937.04 1447.28 3938.75 1429.31 3942.52 1411.2C3946.25 1393.3 3951.81 1376.09 3955.77 1365.77L3946.43 1362.19ZM4031.6 1689.56C4021.61 1678.15 3994.68 1650.74 3978.06 1634.02L3970.97 1641.07C3987.68 1657.89 4014.35 1685.03 4024.07 1696.15L4031.6 1689.56ZM3978.06 1634.02C3976.25 1632.2 3975.96 1629.2 3977.55 1626.88L3969.31 1621.21C3965.14 1627.29 3965.59 1635.67 3970.97 1641.07L3978.06 1634.02ZM3977.55 1626.88C3982.95 1619.04 3989.27 1608.79 3993.97 1598.65C3996.32 1593.58 3998.31 1588.43 3999.57 1583.55C4000.81 1578.72 4001.42 1573.82 4000.68 1569.39L3990.82 1571.04C3991.23 1573.53 3990.96 1576.89 3989.88 1581.06C3988.83 1585.16 3987.09 1589.71 3984.89 1594.44C3980.51 1603.91 3974.51 1613.65 3969.31 1621.21L3977.55 1626.88ZM4000.68 1569.39C3999.36 1561.44 3995.7 1551.3 3991.66 1541.72C3987.57 1532.04 3982.92 1522.57 3979.38 1515.82L3970.52 1520.47C3973.97 1527.03 3978.49 1536.25 3982.45 1545.61C3986.44 1555.06 3989.7 1564.3 3990.82 1571.04L4000.68 1569.39ZM3979.38 1515.82C3977.38 1512.01 3973.9 1509.31 3969.75 1508.28L3967.34 1517.99C3968.74 1518.33 3969.86 1519.21 3970.52 1520.47L3979.38 1515.82ZM3969.75 1508.28C3957.82 1505.32 3922.63 1496.45 3885.65 1485.93C3848.48 1475.36 3810.1 1463.29 3791.43 1453.96L3786.96 1462.9C3806.62 1472.73 3845.96 1485.04 3882.91 1495.55C3920.05 1506.11 3955.37 1515.01 3967.34 1517.99L3969.75 1508.28ZM3660.72 1440.58L3530.68 1437.15L3530.42 1447.14L3660.45 1450.57L3660.72 1440.58ZM3530.68 1437.15C3527.91 1437.07 3525.69 1434.83 3525.63 1432.06L3515.63 1432.25C3515.79 1440.37 3522.3 1446.93 3530.42 1447.14L3530.68 1437.15ZM3525.63 1432.06L3524.44 1369.83L3514.44 1370.02L3515.63 1432.25L3525.63 1432.06ZM3245.59 854.689C3243.61 852.501 3243.86 849.114 3246.12 847.229L3239.72 839.547C3233.09 845.065 3232.39 854.981 3238.16 861.384L3245.59 854.689ZM3246.12 847.229L3285.61 814.316L3279.21 806.634L3239.72 839.547L3246.12 847.229ZM3285.61 814.316C3287.69 812.588 3290.74 812.738 3292.63 814.662L3299.76 807.645C3294.21 802.016 3285.28 801.576 3279.21 806.634L3285.61 814.316ZM3912.52 1226.35C3913.5 1226.8 3915.77 1228.51 3919.44 1232C3922.94 1235.32 3927.25 1239.82 3932.22 1245.26C3942.15 1256.12 3954.47 1270.55 3967.61 1286.39C3993.87 1318.06 4023.22 1355.24 4042.83 1380.55L4050.74 1374.43C4031.09 1349.06 4001.66 1311.8 3975.31 1280.01C3962.13 1264.12 3949.69 1249.55 3939.61 1238.51C3934.57 1233 3930.07 1228.31 3926.33 1224.76C3922.78 1221.38 3919.41 1218.53 3916.75 1217.28L3912.52 1226.35ZM4042.83 1380.55C4043.48 1381.4 4043.84 1382.39 4043.88 1383.49L4053.87 1383.15C4053.76 1379.98 4052.7 1376.96 4050.74 1374.43L4042.83 1380.55ZM4043.84 1578.39L4158.61 1695.17L4165.75 1688.16L4050.98 1571.38L4043.84 1578.39ZM4158.61 1695.17C4159.06 1695.62 4159.42 1696.15 4159.67 1696.73L4168.84 1692.73C4168.09 1691.03 4167.05 1689.48 4165.75 1688.16L4158.61 1695.17ZM4213.63 1820.47C4215.56 1824.89 4210.94 1829.32 4206.6 1827.21L4202.22 1836.2C4214.91 1842.38 4228.44 1829.41 4222.8 1816.47L4213.63 1820.47ZM4206.6 1827.21L4100.46 1775.5L4096.08 1784.49L4202.22 1836.2L4206.6 1827.21ZM4100.46 1775.5C4099.9 1775.22 4099.39 1774.85 4098.96 1774.4L4091.7 1781.27C4092.95 1782.6 4094.44 1783.69 4096.08 1784.49L4100.46 1775.5ZM3859.42 1588.19L3856.31 1520.37L3846.32 1520.82L3849.43 1588.64L3859.42 1588.19ZM3856.31 1520.37C3856.2 1517.96 3857.67 1516.1 3859.53 1515.63L3857.08 1505.93C3850.15 1507.68 3846.02 1514.17 3846.32 1520.82L3856.31 1520.37ZM3859.53 1515.63C3887.01 1508.69 3917.33 1514.66 3944.5 1528.53L3949.05 1519.62C3920.39 1505 3887.55 1498.24 3857.08 1505.93L3859.53 1515.63ZM3944.05 1528.27C3960.76 1539.12 3965.14 1553.15 3964.03 1566.73C3962.88 1580.71 3955.82 1594.4 3949.17 1603.26L3957.17 1609.26C3964.51 1599.48 3972.64 1584.02 3973.99 1567.54C3975.38 1550.66 3969.58 1532.92 3949.5 1519.88L3944.05 1528.27ZM3949.17 1603.26C3948.76 1603.81 3948.22 1604.23 3947.63 1604.47L3951.45 1613.71C3953.75 1612.76 3955.71 1611.21 3957.17 1609.26L3949.17 1603.26ZM3947.63 1604.47C3933.96 1610.12 3917.68 1609.85 3901.94 1606.62C3886.27 1603.41 3871.68 1597.38 3861.81 1592.17L3857.14 1601.02C3867.67 1606.57 3883.16 1612.98 3899.93 1616.42C3916.65 1619.84 3935.19 1620.44 3951.45 1613.71L3947.63 1604.47ZM3861.81 1592.17C3860.45 1591.46 3859.5 1589.99 3859.42 1588.19L3849.43 1588.64C3849.66 1593.71 3852.41 1598.52 3857.14 1601.02L3861.81 1592.17ZM4082.58 1511.44C4075.94 1490.41 4067.28 1480.75 4061.32 1474.14L4053.89 1480.83C4059.38 1486.92 4067.01 1495.34 4073.05 1514.45L4082.58 1511.44ZM4061.32 1474.14C4056.72 1469.03 4055.46 1467.29 4055.61 1464.37L4045.62 1463.87C4045.24 1471.58 4049.86 1476.35 4053.89 1480.83L4061.32 1474.14ZM3979.38 1515.82C3979.37 1515.8 3979.35 1515.78 3979.34 1515.76L3970.49 1520.41C3970.5 1520.43 3970.51 1520.45 3970.52 1520.47L3979.38 1515.82ZM3793.02 1455.21L3728.7 1378.96L3721.06 1385.41L3785.37 1461.65L3793.02 1455.21ZM3575.65 1220.9L3514 1152.5L3506.57 1159.19L3568.22 1227.59L3575.65 1220.9ZM3514 1152.5L3245.59 854.689L3238.16 861.384L3506.57 1159.19L3514 1152.5ZM3509.28 1150.95C3498.11 1153.24 3480.36 1157.83 3463.18 1164.16C3446.24 1170.4 3428.92 1178.67 3419.47 1188.7L3426.76 1195.56C3434.45 1187.39 3449.75 1179.77 3466.63 1173.54C3483.27 1167.41 3500.54 1162.95 3511.29 1160.74L3509.28 1150.95ZM3419.47 1188.7C3414.39 1194.11 3401.12 1205.52 3383.6 1219.82C3366.2 1234.03 3344.9 1250.86 3324.01 1266.98C3303.12 1283.11 3282.67 1298.51 3266.96 1309.87C3259.09 1315.55 3252.46 1320.19 3247.57 1323.4C3245.12 1325 3243.18 1326.2 3241.77 1326.98C3241.06 1327.38 3240.57 1327.62 3240.27 1327.74C3239.76 1327.97 3240.2 1327.68 3241.07 1327.68L3241.07 1337.68C3242.43 1337.68 3243.66 1337.17 3244.19 1336.95C3244.94 1336.63 3245.77 1336.2 3246.63 1335.73C3248.35 1334.77 3250.53 1333.42 3253.06 1331.76C3258.13 1328.43 3264.91 1323.69 3272.82 1317.97C3288.64 1306.53 3309.19 1291.06 3330.13 1274.9C3351.07 1258.73 3372.44 1241.84 3389.93 1227.57C3407.29 1213.38 3421.13 1201.53 3426.76 1195.56L3419.47 1188.7ZM3241.07 1327.68C3239.89 1327.68 3238.67 1327.95 3237.67 1328.21C3236.58 1328.5 3235.35 1328.91 3234.04 1329.38C3231.4 1330.34 3228.16 1331.69 3224.55 1333.31C3217.32 1336.54 3208.36 1340.93 3199.28 1345.65C3181.29 1354.97 3162.09 1365.9 3154.95 1371.61L3161.2 1379.42C3167.44 1374.43 3185.72 1363.94 3203.88 1354.52C3212.86 1349.87 3221.64 1345.56 3228.63 1342.44C3232.14 1340.87 3235.13 1339.63 3237.45 1338.78C3238.61 1338.36 3239.54 1338.07 3240.24 1337.88C3241.03 1337.67 3241.23 1337.68 3241.07 1337.68L3241.07 1327.68ZM3154.95 1371.61C3154.45 1372.01 3153.06 1372.91 3150.55 1374.37C3148.14 1375.76 3144.95 1377.52 3141.08 1379.59C3133.33 1383.74 3122.95 1389.1 3110.79 1395.26C3086.46 1407.56 3055.07 1422.98 3023.55 1438.11C2992.03 1453.24 2960.41 1468.07 2935.6 1479.19C2923.19 1484.76 2912.52 1489.38 2904.43 1492.64C2900.39 1494.27 2897.04 1495.54 2894.47 1496.42C2893.18 1496.86 2892.13 1497.18 2891.32 1497.4C2890.91 1497.51 2890.59 1497.59 2890.35 1497.64C2890.22 1497.66 2890.13 1497.68 2890.06 1497.69C2889.99 1497.7 2889.97 1497.7 2889.97 1497.7L2890.74 1507.67C2892.55 1507.53 2895.07 1506.78 2897.69 1505.89C2900.51 1504.92 2904.05 1503.58 2908.17 1501.91C2916.43 1498.58 2927.23 1493.9 2939.69 1488.32C2964.61 1477.15 2996.32 1462.28 3027.88 1447.12C3059.45 1431.97 3090.89 1416.52 3115.3 1404.18C3127.5 1398.01 3137.96 1392.61 3145.8 1388.41C3149.72 1386.31 3153.01 1384.5 3155.55 1383.02C3157.99 1381.62 3160.02 1380.36 3161.2 1379.42L3154.95 1371.61ZM2889.97 1497.7C2875.89 1498.78 2830.31 1504.43 2809.41 1507.1L2810.67 1517.01C2831.71 1514.33 2876.97 1508.73 2890.74 1507.67L2889.97 1497.7ZM2814.48 1509.75L2781.32 1445.81L2772.44 1450.42L2805.6 1514.36L2814.48 1509.75ZM2762.15 1437.97C2647.29 1476.42 2499.61 1528.77 2357.96 1570.3C2216.13 1611.89 2081.23 1642.33 1991.82 1637.38L1991.26 1647.37C2082.62 1652.43 2219.07 1621.44 2360.77 1579.9C2502.66 1538.3 2650.7 1485.82 2765.33 1447.46L2762.15 1437.97ZM2805.46 1514.07C2835.11 1581.34 2882.43 1683.63 2928.07 1771.9C2950.89 1816.02 2973.33 1856.73 2992.97 1887.83C3002.78 1903.37 3011.95 1916.61 3020.17 1926.71C3028.24 1936.62 3035.85 1944.11 3042.64 1947.39L3046.99 1938.39C3042.36 1936.15 3035.93 1930.23 3027.92 1920.4C3020.06 1910.74 3011.13 1897.87 3001.42 1882.49C2982.01 1851.75 2959.72 1811.33 2936.96 1767.3C2891.44 1679.28 2844.2 1577.19 2814.62 1510.04L2805.46 1514.07ZM2389.5 2330.05C2371.69 2345.4 2342.26 2364.01 2315.76 2379.7C2302.56 2387.51 2290.17 2394.54 2280.44 2400.02C2270.82 2405.44 2263.58 2409.46 2260.95 2411.11L2266.25 2419.59C2268.63 2418.1 2275.5 2414.29 2285.35 2408.73C2295.1 2403.24 2307.56 2396.17 2320.85 2388.3C2347.33 2372.64 2377.47 2353.63 2396.03 2337.63L2389.5 2330.05ZM2260.95 2411.11C2253.06 2416.04 2074.03 2515.83 1985.28 2565.23L1990.14 2573.96C2078.63 2524.71 2258.08 2424.7 2266.25 2419.59L2260.95 2411.11ZM3292.63 814.662L3623.02 1150.21L3630.14 1143.19L3299.76 807.645L3292.63 814.662ZM3623.02 1150.21L3637.56 1164.98L3644.69 1157.96L3630.14 1143.19L3623.02 1150.21ZM3626.58 1146.7C3629.71 1150.59 3629.71 1150.59 3629.72 1150.59C3629.72 1150.59 3629.72 1150.59 3629.72 1150.59C3629.72 1150.58 3629.73 1150.58 3629.74 1150.57C3629.76 1150.56 3629.79 1150.53 3629.82 1150.51C3629.9 1150.45 3630 1150.36 3630.15 1150.24C3630.44 1150.01 3630.86 1149.67 3631.43 1149.22C3632.55 1148.32 3634.2 1146.99 3636.33 1145.29C3640.58 1141.88 3646.73 1136.97 3654.28 1130.95C3669.4 1118.92 3690.15 1102.47 3712.74 1084.81C3757.97 1049.43 3810.33 1009.33 3839.42 989.976L3833.88 981.651C3804.41 1001.26 3751.74 1041.6 3706.58 1076.93C3683.96 1094.62 3663.18 1111.08 3648.05 1123.13C3640.49 1129.15 3634.34 1134.07 3630.08 1137.48C3627.95 1139.19 3626.29 1140.52 3625.16 1141.42C3624.6 1141.87 3624.17 1142.22 3623.88 1142.45C3623.74 1142.57 3623.63 1142.65 3623.56 1142.71C3623.52 1142.74 3623.49 1142.76 3623.47 1142.78C3623.46 1142.79 3623.46 1142.79 3623.45 1142.8C3623.45 1142.8 3623.45 1142.8 3623.45 1142.8C3623.45 1142.8 3623.44 1142.8 3626.58 1146.7ZM3839.42 989.976C3850.96 982.293 3873.07 975.504 3897.92 973.464C3922.7 971.43 3949.2 974.205 3969.56 984.673L3974.13 975.78C3951.5 964.143 3922.92 961.379 3897.11 963.497C3871.37 965.61 3847.38 972.666 3833.88 981.651L3839.42 989.976ZM6111.67 2094.27C6123.17 2102.92 6138.78 2118.74 6146.09 2139.83C6153.28 2160.6 6152.65 2187.07 6130.78 2217.97L6138.94 2223.75C6162.59 2190.34 6163.83 2160.51 6155.53 2136.56C6147.35 2112.94 6130.11 2095.63 6117.68 2086.28L6111.67 2094.27ZM6130.21 2218.66C6097.48 2252.28 6062.76 2285.87 6036.21 2311.06C6022.94 2323.66 6011.72 2334.15 6003.82 2341.49C5999.87 2345.16 5996.74 2348.05 5994.61 2350.01C5993.54 2350.99 5992.73 2351.75 5992.17 2352.25C5991.9 2352.5 5991.69 2352.7 5991.55 2352.82C5991.48 2352.89 5991.43 2352.94 5991.39 2352.97C5991.37 2352.99 5991.36 2353 5991.35 2353.01C5991.35 2353.01 5991.34 2353.01 5991.34 2353.01C5991.34 2353.01 5991.34 2353.02 5991.34 2353.02C5991.34 2353.02 5991.34 2353.02 5994.71 2356.71C5998.09 2360.4 5998.09 2360.4 5998.09 2360.4C5998.09 2360.4 5998.09 2360.39 5998.09 2360.39C5998.09 2360.39 5998.1 2360.39 5998.1 2360.38C5998.11 2360.38 5998.12 2360.36 5998.14 2360.35C5998.18 2360.31 5998.23 2360.26 5998.3 2360.2C5998.44 2360.07 5998.66 2359.88 5998.93 2359.62C5999.49 2359.11 6000.31 2358.35 6001.39 2357.37C6003.53 2355.39 6006.66 2352.5 6010.62 2348.82C6018.55 2341.46 6029.8 2330.94 6043.1 2318.32C6069.69 2293.08 6104.52 2259.38 6137.37 2225.63L6130.21 2218.66ZM5998.2 2353.12C5993.11 2348.18 5984.11 2341.5 5973.25 2337.11C5962.39 2332.71 5949.15 2330.42 5936.04 2335.15L5939.43 2344.56C5949.43 2340.95 5960 2342.53 5969.51 2346.38C5979.02 2350.22 5986.95 2356.14 5991.23 2360.29L5998.2 2353.12ZM5936.04 2335.15C5920.68 2340.7 5906.84 2351.47 5895.1 2361.3C5889.11 2366.32 5883.78 2371 5878.76 2374.99C5873.74 2378.98 5869.51 2381.88 5865.95 2383.41L5869.89 2392.6C5874.75 2390.51 5879.86 2386.89 5884.99 2382.81C5890.13 2378.73 5895.79 2373.77 5901.52 2368.97C5913.26 2359.14 5925.9 2349.44 5939.43 2344.56L5936.04 2335.15ZM5865.95 2383.41C5862.54 2384.87 5857.76 2385.68 5851.64 2386.13C5845.54 2386.57 5838.74 2386.61 5831.27 2386.82C5816.67 2387.22 5799.87 2388.2 5785.6 2394.69L5789.74 2403.79C5801.95 2398.24 5816.85 2397.22 5831.54 2396.81C5838.72 2396.62 5845.96 2396.56 5852.36 2396.1C5858.72 2395.64 5864.88 2394.75 5869.89 2392.6L5865.95 2383.41ZM5785.6 2394.69C5778.65 2397.85 5757.93 2409.88 5731 2426.09C5703.91 2442.39 5670.18 2463.15 5636.96 2483.98C5603.74 2504.8 5571 2525.72 5545.9 2542.34C5533.35 2550.64 5522.68 2557.9 5514.8 2563.55C5510.86 2566.37 5507.57 2568.83 5505.08 2570.83C5502.77 2572.68 5500.65 2574.53 5499.54 2576.07L5507.65 2581.92C5507.64 2581.94 5507.7 2581.85 5507.88 2581.65C5508.06 2581.46 5508.31 2581.22 5508.64 2580.92C5509.3 2580.31 5510.2 2579.54 5511.34 2578.62C5513.63 2576.79 5516.75 2574.45 5520.62 2571.68C5528.36 2566.14 5538.91 2558.96 5551.42 2550.67C5576.42 2534.12 5609.08 2513.25 5642.27 2492.45C5675.45 2471.65 5709.13 2450.93 5736.16 2434.66C5763.35 2418.29 5783.45 2406.65 5789.74 2403.79L5785.6 2394.69ZM5499.54 2576.07C5494.37 2583.22 5429.31 2666.7 5365.3 2750.5C5333.35 2792.33 5301.7 2834.2 5278.04 2866.51C5266.21 2882.66 5256.34 2896.47 5249.42 2906.72C5245.97 2911.83 5243.2 2916.13 5241.28 2919.41C5240.33 2921.04 5239.53 2922.51 5238.96 2923.75C5238.68 2924.37 5238.41 2925.01 5238.21 2925.64C5238.03 2926.19 5237.79 2927.07 5237.79 2928.07L5247.79 2928.07C5247.79 2928.62 5247.66 2928.9 5247.73 2928.71C5247.76 2928.59 5247.86 2928.34 5248.05 2927.93C5248.42 2927.11 5249.04 2925.96 5249.92 2924.45C5251.67 2921.45 5254.3 2917.37 5257.71 2912.32C5264.52 2902.23 5274.3 2888.54 5286.1 2872.42C5309.71 2840.19 5341.31 2798.39 5373.25 2756.57C5437.04 2673.05 5502.38 2589.21 5507.65 2581.92L5499.54 2576.07ZM5237.79 2928.07C5237.79 2930.3 5238.15 2933.14 5238.62 2936.18C5239.09 2939.27 5239.75 2942.96 5240.41 2946.9C5241.76 2954.87 5243.23 2964.31 5243.81 2974.21C5245 2994.24 5242.49 3014.92 5229.48 3029L5236.83 3035.79C5252.71 3018.58 5255.02 2994.32 5253.8 2973.62C5253.18 2963.16 5251.63 2953.28 5250.27 2945.23C5249.59 2941.16 5248.96 2937.66 5248.5 2934.66C5248.03 2931.61 5247.79 2929.45 5247.79 2928.07L5237.79 2928.07ZM5229.48 3029C5206.61 3053.78 5159.33 3095.17 5138.44 3112.84L5144.9 3120.47C5165.75 3102.83 5213.48 3061.08 5236.83 3035.79L5229.48 3029ZM4912.88 3996.56C4913.03 3996.17 4912.96 3996.56 4911.56 3997.92C4910.36 3999.08 4908.63 4000.55 4906.36 4002.33C4901.82 4005.89 4895.48 4010.4 4887.79 4015.69C4880.12 4020.97 4871.2 4026.96 4861.51 4033.48C4851.84 4039.99 4841.42 4047.03 4830.8 4054.36C4809.59 4069 4787.49 4084.9 4768.81 4100.35C4750.26 4115.68 4734.58 4130.96 4726.71 4144.41L4735.34 4149.46C4742.25 4137.66 4756.7 4123.33 4775.18 4108.05C4793.52 4092.89 4815.34 4077.18 4836.49 4062.58C4847.05 4055.29 4857.43 4048.29 4867.1 4041.77C4876.76 4035.27 4885.73 4029.24 4893.46 4023.93C4901.17 4018.62 4907.73 4013.97 4912.53 4010.21C4914.92 4008.33 4916.97 4006.61 4918.53 4005.08C4919.89 4003.76 4921.56 4001.97 4922.28 3999.98L4912.88 3996.56ZM5144.13 3112.3C5135.58 3107.48 5120.83 3100.63 5104.03 3095.51C5087.29 3090.4 5068.04 3086.85 5050.69 3089.09L5051.97 3099.01C5067.29 3097.03 5084.97 3100.14 5101.11 3105.07C5117.19 3109.98 5131.27 3116.54 5139.22 3121.01L5144.13 3112.3ZM4881.43 3058.89C4874.2 3060.7 4862.36 3065.99 4848.42 3073.22C4834.33 3080.54 4817.66 3090.08 4800.6 3100.68C4766.6 3121.8 4730.58 3147.44 4710.36 3168.33L4717.55 3175.28C4736.87 3155.32 4772.01 3130.22 4805.88 3109.17C4822.76 3098.68 4839.2 3089.28 4853.03 3082.1C4867.01 3074.84 4877.9 3070.08 4883.85 3068.59L4881.43 3058.89ZM3941.23 3561.17C3927.5 3566.4 3891.41 3578.54 3856.72 3590.43C3839.42 3596.37 3822.5 3602.23 3809 3607.1C3795.7 3611.9 3785.2 3615.91 3781.16 3618.12L3785.95 3626.9C3789.15 3625.15 3798.75 3621.43 3812.39 3616.51C3825.82 3611.66 3842.67 3605.82 3859.96 3599.89C3894.46 3588.07 3930.85 3575.83 3944.79 3570.51L3941.23 3561.17ZM3781.16 3618.12C3769.56 3624.45 3726.86 3653.12 3705.78 3667.45L3711.41 3675.72C3732.75 3661.21 3774.9 3632.93 3785.95 3626.9L3781.16 3618.12ZM3704.08 3668.25C3581.68 3702.54 3397.8 3755.6 3242.27 3803.81C3164.51 3827.91 3093.79 3850.82 3041.36 3869.57C3015.16 3878.94 2993.44 3887.3 2977.68 3894.28C2969.81 3897.76 2963.31 3900.95 2958.45 3903.78C2956.02 3905.2 2953.91 3906.58 2952.21 3907.91C2950.58 3909.2 2949 3910.68 2947.98 3912.39L2956.55 3917.53C2956.64 3917.38 2957.1 3916.79 2958.38 3915.78C2959.6 3914.83 2961.28 3913.71 2963.49 3912.42C2967.89 3909.86 2974 3906.84 2981.73 3903.42C2997.16 3896.59 3018.61 3888.33 3044.73 3878.99C3096.95 3860.31 3167.51 3837.45 3245.23 3813.37C3400.64 3765.19 3584.43 3712.16 3706.78 3677.88L3704.08 3668.25ZM2947.98 3912.39C2936.97 3930.73 2926.43 3943.66 2910.54 3951.39C2894.56 3959.17 2872.41 3962.04 2837.44 3958.36L2836.39 3968.31C2872.12 3972.07 2896.48 3969.36 2914.91 3960.39C2933.44 3951.37 2945.23 3936.4 2956.55 3917.53L2947.98 3912.39ZM2837.44 3958.36C2829.16 3957.49 2816.39 3954.21 2800.05 3948.88C2783.82 3943.58 2764.38 3936.37 2742.89 3927.81C2699.92 3910.71 2648.96 3888.31 2599.48 3865.31C2550 3842.31 2502.05 3818.74 2465.11 3799.31C2446.63 3789.59 2430.95 3780.94 2419.22 3773.92C2413.35 3770.41 2408.53 3767.33 2404.86 3764.77C2401.07 3762.12 2398.86 3760.25 2397.91 3759.15L2390.32 3765.65C2392.16 3767.8 2395.3 3770.29 2399.13 3772.97C2403.07 3775.72 2408.11 3778.92 2414.09 3782.5C2426.04 3789.65 2441.9 3798.4 2460.45 3808.16C2497.58 3827.69 2545.68 3851.33 2595.27 3874.38C2644.86 3897.43 2695.99 3919.91 2739.19 3937.11C2760.79 3945.7 2780.44 3953 2796.95 3958.38C2813.37 3963.74 2826.99 3967.32 2836.39 3968.31L2837.44 3958.36ZM2397.91 3759.15C2395.39 3756.2 2389.05 3750.41 2380.07 3742.61C2370.96 3734.7 2358.8 3724.44 2344.34 3712.43C2315.42 3688.39 2277.21 3657.26 2235.58 3623.62C2152.31 3556.34 2055.3 3478.99 1991.38 3428.29L1985.16 3436.13C2049.08 3486.81 2146.06 3564.14 2229.29 3631.4C2270.91 3665.03 2309.08 3696.13 2337.95 3720.12C2352.39 3732.12 2364.48 3742.32 2373.51 3750.16C2382.69 3758.13 2388.38 3763.39 2390.32 3765.65L2397.91 3759.15ZM4499.15 3280.14C4498.13 3280.14 4497.03 3280.34 4496.1 3280.55C4495.09 3280.77 4493.91 3281.09 4492.59 3281.48C4489.96 3282.25 4486.61 3283.38 4482.65 3284.79C4474.73 3287.61 4464.2 3291.66 4451.87 3296.59L4455.58 3305.87C4467.86 3300.97 4478.26 3296.97 4486.01 3294.21C4489.89 3292.82 4493.05 3291.77 4495.43 3291.07C4496.62 3290.71 4497.56 3290.47 4498.26 3290.31C4499.06 3290.13 4499.27 3290.14 4499.15 3290.14L4499.15 3280.14ZM4451.87 3296.59C4413.91 3311.76 4358.53 3335.41 4308.9 3357.75C4259.49 3380.01 4215.2 3401.22 4199.86 3411.45L4205.4 3419.77C4219.9 3410.1 4263.28 3389.27 4313.01 3366.87C4362.53 3344.57 4417.78 3320.98 4455.58 3305.87L4451.87 3296.59ZM5417.13 3674.95C5276.96 3760.57 5025.39 3915.92 4942.18 3973.03L4947.84 3981.27C5030.78 3924.35 5282.07 3769.16 5422.34 3683.48L5417.13 3674.95ZM4942.18 3973.03C4933.78 3978.79 4927.04 3983.59 4922.27 3987.25C4919.89 3989.08 4917.93 3990.67 4916.48 3991.99C4915.75 3992.65 4915.09 3993.3 4914.54 3993.93C4914.09 3994.44 4913.32 3995.37 4912.88 3996.56L4922.28 3999.98C4922.04 4000.64 4921.75 4000.87 4922.06 4000.52C4922.26 4000.28 4922.63 3999.91 4923.21 3999.39C4924.35 3998.34 4926.06 3996.94 4928.35 3995.19C4932.91 3991.69 4939.49 3987 4947.84 3981.27L4942.18 3973.03ZM4449.68 3304.17L4489.11 3358.41L4497.19 3352.53L4457.77 3298.29L4449.68 3304.17ZM5050.69 3089.09C5041.85 3090.23 5029.44 3088.96 5014.85 3086.18C5000.38 3083.43 4984.28 3079.29 4968.22 3075.01L4965.64 3084.67C4981.7 3088.96 4998.12 3093.18 5012.98 3096.01C5027.73 3098.82 5041.46 3100.37 5051.97 3099.01L5050.69 3089.09ZM4495.66 3359.79L4969.45 3084.16L4964.42 3075.52L4490.64 3351.15L4495.66 3359.79ZM4489.11 3358.41L4523.9 3406.28L4531.99 3400.4L4497.19 3352.53L4489.11 3358.41ZM4530.49 3407.65L5053.87 3098.36L5048.78 3089.75L4525.4 3399.04L4530.49 3407.65ZM4523.9 3406.28L4557.63 3452.69L4565.72 3446.81L4531.99 3400.4L4523.9 3406.28ZM4564.17 3454.09L5144.16 3120.99L5139.18 3112.32L4559.19 3445.42L4564.17 3454.09ZM5138.65 3120.64C5152.36 3131.03 5170.36 3144.82 5189.16 3159.46L5195.3 3151.57C5176.47 3136.91 5158.43 3123.08 5144.69 3112.67L5138.65 3120.64ZM4557.63 3452.69L4594.27 3503.1L4602.36 3497.22L4565.72 3446.81L4557.63 3452.69ZM5189.72 3151.19L4595.81 3495.84L4600.83 3504.48L5194.74 3159.84L5189.72 3151.19ZM5189.16 3159.46C5201.33 3168.94 5213.84 3178.78 5225.72 3188.26L5231.96 3180.45C5220.04 3170.93 5207.5 3161.07 5195.3 3151.57L5189.16 3159.46ZM4594.27 3503.1L4625.19 3545.64L4633.28 3539.76L4602.36 3497.22L4594.27 3503.1ZM5226.28 3180.06L4626.67 3538.41L4631.8 3546.99L5231.41 3188.65L5226.28 3180.06ZM5225.72 3188.26C5243.83 3202.72 5260.45 3216.33 5272.25 3226.67L5278.84 3219.15C5266.86 3208.66 5250.1 3194.93 5231.96 3180.45L5225.72 3188.26ZM5272.25 3226.67C5276.62 3230.5 5280.3 3233.85 5283.13 3236.6C5286.04 3239.43 5287.81 3241.41 5288.59 3242.54L5296.81 3236.84C5295.43 3234.84 5293.03 3232.28 5290.1 3229.44C5287.1 3226.51 5283.28 3223.04 5278.84 3219.15L5272.25 3226.67ZM4625.19 3545.64L4666.39 3602.32L4674.48 3596.44L4633.28 3539.76L4625.19 3545.64ZM5272.9 3218.66L4667.79 3595.14L4673.08 3603.63L5278.18 3227.15L5272.9 3218.66ZM4666.39 3602.32L4696.92 3644.33L4705.01 3638.45L4674.48 3596.44L4666.39 3602.32ZM5288.59 3242.54C5290.82 3245.75 5297.64 3258.38 5307.38 3277.33L5316.27 3272.76C5306.7 3254.14 5299.51 3240.74 5296.81 3236.84L5288.59 3242.54ZM4703.54 3645.67L5314.39 3279.33L5309.25 3270.76L4698.39 3637.1L4703.54 3645.67ZM5307.38 3277.33C5314.23 3290.66 5322.42 3306.9 5331.28 3324.74L5340.23 3320.3C5331.36 3302.42 5323.15 3286.14 5316.27 3272.76L5307.38 3277.33ZM4696.92 3644.33L4731.91 3692.47L4740 3686.59L4705.01 3638.45L4696.92 3644.33ZM5333.15 3318.25L4733.34 3685.26L4738.56 3693.79L5338.37 3326.78L5333.15 3318.25ZM4731.91 3692.47L4764.38 3737.14L4772.47 3731.26L4740 3686.59L4731.91 3692.47ZM5331.28 3324.74C5339.42 3341.14 5348.12 3358.88 5356.85 3376.94L5365.86 3372.58C5357.11 3354.5 5348.39 3336.73 5340.23 3320.3L5331.28 3324.74ZM4771.02 3738.48L5363.95 3379.03L5358.76 3370.48L4765.83 3729.93L4771.02 3738.48ZM5356.85 3376.94C5364.71 3393.19 5372.6 3409.68 5380.12 3425.68L5389.17 3421.42C5381.63 3405.39 5373.73 3388.86 5365.86 3372.58L5356.85 3376.94ZM4764.38 3737.14L4800.05 3786.22L4808.14 3780.34L4772.47 3731.26L4764.38 3737.14ZM5382.01 3419.3L4801.46 3779.03L4806.73 3787.53L5387.28 3427.8L5382.01 3419.3ZM4800.05 3786.22L4833.78 3832.63L4841.87 3826.75L4808.14 3780.34L4800.05 3786.22ZM5380.12 3425.68C5389.26 3445.09 5397.86 3463.76 5405.24 3480.34L5414.37 3476.27C5406.96 3459.61 5398.33 3440.88 5389.17 3421.42L5380.12 3425.68ZM5405.24 3480.34C5412.46 3496.57 5418.5 3510.76 5422.72 3521.66C5424.83 3527.12 5426.47 3531.7 5427.56 3535.26C5428.72 3539.03 5429.1 3541.12 5429.1 3541.9L5439.1 3541.9C5439.1 3539.42 5438.26 3536 5437.12 3532.32C5435.93 3528.43 5434.2 3523.62 5432.05 3518.06C5427.74 3506.92 5421.62 3492.56 5414.37 3476.27L5405.24 3480.34ZM4840.45 3833.95L5412.42 3482.56L5407.19 3474.04L4835.21 3825.43L4840.45 3833.95ZM4833.78 3832.63L4875.36 3889.83L4883.45 3883.95L4841.87 3826.75L4833.78 3832.63ZM5431.46 3537.65L4876.77 3882.65L4882.05 3891.14L5436.74 3546.14L5431.46 3537.65ZM4875.36 3889.83L4908.16 3934.96L4916.25 3929.08L4883.45 3883.95L4875.36 3889.83ZM4908.16 3934.96L4940.96 3980.09L4949.05 3974.21L4916.25 3929.08L4908.16 3934.96ZM5429.1 3541.9C5429.1 3551.42 5427.39 3577 5425.26 3604.83L5435.23 3605.59C5437.35 3577.94 5439.1 3551.9 5439.1 3541.9L5429.1 3541.9ZM5425.26 3604.83C5423.48 3628.09 5421.43 3652.73 5419.9 3670.4L5429.86 3671.26C5431.39 3653.56 5433.45 3628.9 5435.23 3605.59L5425.26 3604.83ZM4914.88 3936.25L5432.91 3609.44L5427.58 3600.98L4909.54 3927.79L4914.88 3936.25ZM5990.93 2359.98C5996.45 2366.36 6004.01 2378.38 6008.21 2393.22C6012.4 2407.99 6013.2 2425.28 6005.69 2442.55L6014.86 2446.54C6023.51 2426.64 6022.49 2406.9 6017.83 2390.49C6013.2 2374.15 6004.9 2360.85 5998.49 2353.44L5990.93 2359.98ZM5947.2 2507.88C5934.88 2514.8 5916.04 2525.64 5899.55 2535.67C5891.31 2540.69 5883.61 2545.53 5877.59 2549.59C5874.59 2551.62 5871.95 2553.48 5869.86 2555.11C5867.88 2556.63 5866.02 2558.22 5864.88 2559.68L5872.78 2565.82C5873.06 2565.46 5874.01 2564.54 5875.98 2563.01C5877.83 2561.58 5880.27 2559.84 5883.19 2557.88C5889.01 2553.94 5896.56 2549.2 5904.74 2544.22C5921.1 2534.26 5939.84 2523.48 5952.1 2516.6L5947.2 2507.88ZM5864.88 2559.68C5863.87 2560.98 5860.52 2564.1 5855.12 2568.68C5849.9 2573.09 5843.21 2578.51 5835.97 2584.25C5821.5 2595.72 5804.95 2608.4 5793.88 2616.75L5799.9 2624.73C5811.01 2616.35 5827.63 2603.63 5842.19 2592.09C5849.46 2586.32 5856.25 2580.82 5861.58 2576.31C5866.72 2571.95 5870.99 2568.12 5872.78 2565.82L5864.88 2559.68ZM5791.7 2618.74L5709.55 2708.91L5716.94 2715.64L5799.09 2625.47L5791.7 2618.74ZM5715.27 2716.85L5765.68 2694.55L5761.63 2685.41L5711.22 2707.7L5715.27 2716.85ZM5768.1 2694.04H5852.51V2684.04H5768.1V2694.04ZM5863.17 2689.97L5951.22 2611.28L5944.56 2603.83L5856.51 2682.51L5863.17 2689.97ZM6005.69 2442.55C5996.42 2463.87 5982.04 2480.58 5969.11 2492.08L5975.76 2499.55C5989.46 2487.37 6004.86 2469.53 6014.86 2446.54L6005.69 2442.55ZM5969.11 2492.08C5960.33 2499.89 5952.36 2505.17 5947.33 2507.81L5951.98 2516.66C5957.84 2513.59 5966.47 2507.81 5975.76 2499.55L5969.11 2492.08ZM5956.6 2599.08C5956.52 2584.51 5957.44 2563.68 5960.48 2544.23C5961.99 2534.51 5964.02 2525.25 5966.67 2517.34C5969.35 2509.36 5972.53 2503.15 5976.14 2499.18L5968.74 2492.45C5963.78 2497.9 5960.05 2505.62 5957.19 2514.17C5954.3 2522.78 5952.17 2532.63 5950.6 2542.69C5947.46 2562.8 5946.52 2584.2 5946.6 2599.14L5956.6 2599.08ZM6011.57 2449.38C6030.46 2444.28 6058.8 2441.03 6082.61 2447.38C6094.43 2450.54 6104.88 2455.99 6112.6 2464.51C6120.26 2472.97 6125.56 2484.82 6126.51 2501.41L6136.5 2500.84C6135.43 2482.27 6129.4 2468.17 6120.01 2457.79C6110.66 2447.48 6098.32 2441.23 6085.18 2437.72C6059.06 2430.75 6028.81 2434.37 6008.97 2439.72L6011.57 2449.38ZM6126.51 2501.41C6129.02 2545.07 6127.52 2611.53 6124.11 2671.07C6122.41 2700.82 6120.24 2728.77 6117.87 2751.21C6115.47 2773.86 6112.92 2790.38 6110.58 2797.62L6120.1 2800.69C6122.81 2792.28 6125.44 2774.7 6127.81 2752.27C6130.21 2729.62 6132.39 2701.5 6134.1 2671.64C6137.51 2611.97 6139.04 2545.07 6136.5 2500.84L6126.51 2501.41ZM6110.58 2797.62C6105.08 2814.68 6107.6 2828.58 6113.03 2841.06C6115.7 2847.2 6119.07 2852.99 6122.42 2858.57C6125.83 2864.22 6129.19 2869.59 6132.12 2875.22L6140.99 2870.6C6137.87 2864.61 6134.28 2858.87 6130.99 2853.41C6127.65 2847.87 6124.58 2842.56 6122.2 2837.07C6117.52 2826.31 6115.5 2814.96 6120.1 2800.69L6110.58 2797.62ZM6132.12 2875.22C6135.56 2881.8 6141.87 2888.21 6147.71 2894.41C6153.8 2900.88 6159.86 2907.57 6164.12 2915.35C6168.32 2923 6170.76 2931.65 6169.53 2942.08C6168.28 2952.61 6163.26 2965.38 6151.72 2981.08L6159.78 2987C6171.99 2970.38 6177.95 2956 6179.46 2943.26C6180.97 2930.42 6177.91 2919.68 6172.89 2910.54C6167.94 2901.52 6161.05 2894 6154.99 2887.56C6148.67 2880.85 6143.62 2875.64 6140.99 2870.6L6132.12 2875.22ZM6151.72 2981.08C6128.25 3013.05 6114.03 3024.25 6105.06 3033.47C6100.45 3038.22 6097 3042.68 6094.89 3049.11C6092.84 3055.32 6092.16 3063 6092.16 3073.96L6102.16 3073.96C6102.16 3063.2 6102.86 3056.86 6104.38 3052.24C6105.83 3047.84 6108.14 3044.66 6112.23 3040.44C6120.7 3031.73 6135.77 3019.7 6159.78 2987L6151.72 2981.08ZM6092.16 3073.96C6092.16 3095.81 6091.88 3110.7 6089.72 3121.75C6087.63 3132.44 6083.84 3139.14 6076.83 3144.84L6083.13 3152.6C6092.29 3145.17 6097.08 3136.21 6099.54 3123.67C6101.92 3111.48 6102.16 3095.55 6102.16 3073.96L6092.16 3073.96ZM6076.83 3144.84C6073.76 3147.33 6071.75 3151.14 6070.31 3155.11C6068.83 3159.19 6067.73 3164.08 6066.85 3169.36C6065.11 3179.91 6064.12 3192.89 6063.05 3205.76C6061.96 3218.77 6060.78 3231.74 6058.67 3242.76C6056.5 3254.03 6053.55 3262.15 6049.63 3266.35L6056.94 3273.17C6062.97 3266.71 6066.3 3256.01 6068.49 3244.64C6070.72 3233.02 6071.93 3219.53 6073.01 3206.59C6074.11 3193.51 6075.06 3181.04 6076.72 3170.99C6077.55 3165.98 6078.53 3161.78 6079.71 3158.52C6080.93 3155.17 6082.16 3153.39 6083.13 3152.6L6076.83 3144.84ZM6049.63 3266.35C6045.09 3271.21 6033.32 3280.13 6017.27 3291.39C6001.41 3302.52 5981.88 3315.58 5962.25 3328.64C5942.65 3341.68 5922.94 3354.71 5906.82 3365.72C5890.83 3376.64 5877.95 3385.84 5872.28 3391.13L5879.1 3398.44C5884.09 3393.78 5896.25 3385.05 5912.45 3373.98C5928.52 3363.02 5948.15 3350.03 5967.79 3336.97C5987.41 3323.92 6007.04 3310.79 6023.01 3299.58C6038.8 3288.51 6051.54 3278.96 6056.94 3273.17L6049.63 3266.35ZM5872.28 3391.13C5870.06 3393.2 5865.4 3396.38 5858.47 3400.51C5851.67 3404.56 5843.01 3409.33 5833.06 3414.58C5813.18 3425.09 5788.33 3437.45 5763.2 3449.79C5738.11 3462.12 5712.71 3474.44 5691.85 3484.81C5671.11 3495.13 5654.47 3503.7 5647.07 3508.51L5652.52 3516.9C5659.32 3512.47 5675.36 3504.18 5696.31 3493.76C5717.14 3483.4 5742.44 3471.13 5767.61 3458.77C5792.74 3446.42 5817.71 3434.01 5837.74 3423.42C5847.75 3418.13 5856.57 3413.28 5863.59 3409.1C5870.48 3405 5876 3401.33 5879.1 3398.44L5872.28 3391.13ZM5647.07 3508.51C5632.54 3517.95 5615.13 3533.18 5599.01 3546.5C5590.86 3553.24 5583 3559.52 5575.8 3564.55C5568.53 3569.63 5562.29 3573.17 5557.37 3574.71L5560.35 3584.26C5566.8 3582.24 5574.06 3577.97 5581.53 3572.75C5589.07 3567.48 5597.19 3560.98 5605.38 3554.21C5621.94 3540.54 5638.62 3525.93 5652.52 3516.9L5647.07 3508.51ZM5557.37 3574.71C5552.17 3576.33 5545.12 3577.45 5536.77 3578.42C5532.63 3578.91 5528.26 3579.35 5523.72 3579.8C5519.2 3580.26 5514.51 3580.73 5509.81 3581.26C5491.32 3583.38 5471.32 3586.63 5458.11 3595.18L5463.55 3603.57C5474.49 3596.49 5492.15 3593.35 5510.95 3591.2C5515.57 3590.67 5520.19 3590.21 5524.72 3589.75C5529.25 3589.3 5533.7 3588.85 5537.93 3588.36C5546.32 3587.38 5554.19 3586.18 5560.35 3584.26L5557.37 3574.71ZM5458.11 3595.18C5448.86 3601.16 5442.58 3602.98 5438.79 3603.21C5434.92 3603.45 5434.18 3602.1 5434.42 3602.47L5426.07 3607.96C5428.45 3611.59 5433.34 3613.57 5439.4 3613.2C5445.53 3612.82 5453.48 3610.09 5463.55 3603.57L5458.11 3595.18ZM5710.18 2708.32L5677.96 2733.33L5684.09 2741.23L5716.31 2716.22L5710.18 2708.32ZM5112.68 1565.3C5117.48 1565.07 5138.13 1563.49 5155.96 1552.08C5164.98 1546.3 5173.37 1537.95 5178.52 1525.96C5183.66 1513.97 5185.39 1498.76 5181.79 1479.58L5171.97 1481.42C5175.27 1499.07 5173.54 1512.2 5169.33 1522.01C5165.12 1531.82 5158.25 1538.74 5150.57 1543.66C5135.01 1553.62 5116.54 1555.11 5112.21 1555.31L5112.68 1565.3ZM5177.43 1475.53C5160.86 1473.71 5147.82 1477.42 5137.72 1484.5C5127.73 1491.5 5121.01 1501.52 5116.48 1511.72C5107.46 1532.02 5106.56 1554.25 5106.47 1559.25L5116.46 1559.43C5116.55 1554.78 5117.43 1534.19 5125.62 1515.78C5129.68 1506.63 5135.42 1498.32 5143.46 1492.69C5151.4 1487.12 5161.97 1483.89 5176.33 1485.47L5177.43 1475.53ZM5179.13 1476.04L4902.63 1336.39L4898.12 1345.32L5174.63 1484.96L5179.13 1476.04ZM4893.56 1335C4886.96 1336.26 4871.82 1340.36 4858.33 1352.99C4844.68 1365.77 4833.24 1386.81 4833.47 1420.9L4843.47 1420.83C4843.25 1389.26 4853.74 1370.99 4865.16 1360.29C4876.75 1349.44 4889.84 1345.89 4895.43 1344.82L4893.56 1335ZM3969.56 984.673C4046.76 1024.36 4150.93 1077.33 4272.62 1139.09L4277.15 1130.17C4155.46 1068.41 4051.31 1015.46 3974.13 975.78L3969.56 984.673ZM4272.62 1139.09C4816.9 1415.3 5711.54 1867.35 6112.21 2094.63L6117.14 2085.93C5716.21 1858.5 4821.28 1406.31 4277.15 1130.17L4272.62 1139.09ZM4279.2 1132.1C4276.43 1127.39 4276.06 1120.08 4278.44 1111.23C4280.78 1102.54 4285.56 1093.23 4291.77 1085.3C4298.01 1077.33 4305.39 1071.13 4312.69 1068.19C4319.79 1065.32 4326.65 1065.56 4332.94 1070.05L4338.76 1061.91C4329.18 1055.07 4318.6 1055.02 4308.95 1058.91C4299.5 1062.72 4290.81 1070.3 4283.9 1079.14C4276.96 1088 4271.51 1098.51 4268.79 1108.63C4266.11 1118.6 4265.84 1129.09 4270.57 1137.16L4279.2 1132.1ZM4332.94 1070.05C4339.55 1074.77 4342.33 1080.97 4342.33 1087.63C4342.34 1094.47 4339.37 1102.17 4333.68 1109.28C4322.32 1123.46 4300.93 1134.16 4275.76 1129.7L4274.01 1139.55C4303 1144.68 4327.97 1132.4 4341.49 1115.53C4348.23 1107.11 4352.34 1097.27 4352.33 1087.62C4352.33 1077.78 4348.02 1068.53 4338.76 1061.91L4332.94 1070.05ZM4338.32 1061.64L4164.84 962.991L4159.9 971.684L4333.38 1070.33L4338.32 1061.64ZM4161.8 962.37C4151.41 963.569 4135.87 967.672 4122.78 976.252C4109.57 984.907 4098.41 998.478 4098.41 1018.36L4108.41 1018.36C4108.41 1002.87 4116.9 992.061 4128.26 984.615C4139.74 977.094 4153.68 973.373 4162.94 972.305L4161.8 962.37ZM4100.6 1022.5L4272.08 1138.77L4277.69 1130.49L4106.21 1014.22L4100.6 1022.5ZM4107.38 1015.32L4077.9 976.773L4069.96 982.847L4099.44 1021.4L4107.38 1015.32ZM4106.42 955.976L4160.95 972.131L4163.79 962.543L4109.26 946.388L4106.42 955.976ZM4077.67 983.132L4099.62 958.429L4092.15 951.786L4070.19 976.488L4077.67 983.132ZM4099.62 958.429L4100.23 957.742L4092.76 951.099L4092.15 951.786L4099.62 958.429ZM4099.64 951.81C4087.88 938.404 4070.79 915.541 4057.91 890.743C4044.9 865.677 4036.82 839.829 4041.38 819.919L4031.64 817.685C4026.22 841.315 4035.86 869.974 4049.04 895.352C4062.36 920.997 4079.94 944.518 4092.13 958.405L4099.64 951.81ZM4041.38 819.919C4051.14 777.332 4078.14 733.834 4090.4 717.487L4082.4 711.487C4069.72 728.4 4041.83 773.192 4031.64 817.685L4041.38 819.919ZM4090.65 717.116L4153.02 616.202L4144.51 610.945L4082.15 711.859L4090.65 717.116ZM4077.5 976.313C4052.22 950.486 4013.76 901.147 4009.04 847.578L3999.07 848.457C4004.12 905.633 4044.71 957.103 4070.35 983.307L4077.5 976.313ZM4009.04 847.578C4007.19 826.68 4012.18 803.119 4021.02 778.951C4029.85 754.834 4042.38 730.472 4055.26 708.082C4068.15 685.683 4081.29 665.437 4091.37 649.389C4096.38 641.407 4100.68 634.402 4103.75 628.75C4105.29 625.924 4106.58 623.342 4107.5 621.081C4108.38 618.928 4109.13 616.631 4109.21 614.514L4099.22 614.097C4099.21 614.423 4099.02 615.404 4098.25 617.293C4097.52 619.075 4096.42 621.298 4094.97 623.971C4092.06 629.316 4087.92 636.08 4082.9 644.07C4072.92 659.967 4059.61 680.475 4046.59 703.094C4033.57 725.721 4020.73 750.639 4011.63 775.515C4002.55 800.339 3997.05 825.485 3999.07 848.457L4009.04 847.578ZM4817.25 617.945C4819.8 619.218 5072.21 732.791 5382.97 874.157C5693.88 1015.59 6063.45 1184.95 6300.66 1297.93L6304.96 1288.91C6067.66 1175.88 5698.02 1006.48 5387.11 865.055C5231.65 794.337 5090.87 730.607 4988.65 684.404C4937.54 661.302 4896.07 642.582 4867.22 629.562C4852.8 623.051 4841.53 617.966 4833.8 614.471C4829.93 612.723 4826.95 611.374 4824.89 610.442C4823.87 609.977 4823.07 609.617 4822.52 609.365C4821.9 609.083 4821.7 608.987 4821.73 609.001L4817.25 617.945ZM5654.28 4152.75C5675.19 4138.08 5701.98 4117.62 5725.06 4100.42C5736.64 4091.8 5747.29 4084 5755.89 4078.1C5760.18 4075.14 5763.92 4072.7 5766.96 4070.88C5770.12 4068.99 5772.2 4067.98 5773.31 4067.63L5770.32 4058.09C5767.98 4058.82 5765.03 4060.38 5761.83 4062.29C5758.53 4064.27 5754.6 4066.84 5750.22 4069.85C5741.46 4075.87 5730.68 4083.77 5719.09 4092.4C5695.83 4109.72 5669.29 4130 5648.54 4144.57L5654.28 4152.75ZM5773.31 4067.63C5778.67 4065.95 5787.22 4064.69 5795.53 4064.63C5799.66 4064.6 5803.57 4064.87 5806.89 4065.48C5810.3 4066.1 5812.66 4067.01 5814 4067.97L5819.79 4059.81C5816.72 4057.63 5812.72 4056.38 5808.7 4055.64C5804.59 4054.89 5800.02 4054.6 5795.46 4054.63C5786.41 4054.69 5776.84 4056.05 5770.32 4058.09L5773.31 4067.63ZM5814 4067.97C5816.83 4069.97 5826.79 4078.57 5840.05 4090.23C5853.16 4101.76 5869.15 4115.98 5883.8 4128.96L5890.43 4121.47C5875.8 4108.51 5859.79 4094.27 5846.66 4082.72C5833.67 4071.3 5823.16 4062.2 5819.79 4059.81L5814 4067.97ZM5883.8 4128.96C5888.06 4132.73 5892.11 4136.4 5895.94 4139.88C5899.76 4143.34 5903.37 4146.63 5906.73 4149.62L5913.38 4142.15C5910.07 4139.2 5906.5 4135.96 5902.66 4132.47C5898.83 4128.99 5894.74 4125.29 5890.43 4121.47L5883.8 4128.96ZM5889.08 4129.81L5952.5 4102.6L5948.55 4093.41L5885.14 4120.62L5889.08 4129.81ZM5987.46 4131.24L5982.79 4140.21L5991.66 4144.83L5996.33 4135.86L5987.46 4131.24ZM5977.49 4143.44L5917.29 4143.61L5917.32 4153.61L5977.52 4153.44L5977.49 4143.44ZM5958.98 4103.75L5960.23 4104.93L5967.1 4097.66L5965.85 4096.49L5958.98 4103.75ZM5966.6 4105.34L6306.12 3858.52L6300.24 3850.43L5960.72 4097.25L5966.6 4105.34ZM5960.23 4104.93L5987.35 4130.57L5994.22 4123.3L5967.1 4097.66L5960.23 4104.93ZM5994.45 4130.33C5994.43 4130.36 5994.47 4130.31 5994.64 4130.16C5994.79 4130.02 5995 4129.83 5995.27 4129.6C5995.82 4129.14 5996.56 4128.53 5997.49 4127.78C5999.36 4126.28 6001.93 4124.27 6005.14 4121.81C6011.56 4116.89 6020.46 4110.19 6031.27 4102.13C6052.9 4086 6082.1 4064.47 6114.24 4040.89C6178.51 3993.73 6254.46 3938.41 6304.79 3901.86L6298.91 3893.77C6248.57 3930.33 6172.61 3985.66 6108.32 4032.83C6076.18 4056.41 6046.95 4077.96 6025.3 4094.11C6014.47 4102.18 6005.53 4108.91 5999.06 4113.88C5995.82 4116.36 5993.19 4118.41 5991.23 4119.98C5989.42 4121.43 5987.87 4122.72 5987.11 4123.54L5994.45 4130.33ZM2587.53 2167.54C2575.31 2173.24 2555.19 2188.08 2532.57 2206.3L2538.84 2214.08C2561.66 2195.71 2580.83 2181.7 2591.76 2176.6L2587.53 2167.54ZM2532.78 2214.24L4199.7 3419.66L4205.56 3411.56L2538.64 2206.14L2532.78 2214.24ZM4199.86 3411.45C4191.15 3417.25 4174.83 3427.4 4154.35 3439.81L4159.53 3448.36C4180 3435.95 4196.49 3425.71 4205.4 3419.77L4199.86 3411.45ZM4154.35 3439.81C4118.67 3461.43 4070.6 3489.8 4028.77 3513.79C4007.85 3525.78 3988.52 3536.66 3973.08 3545.06C3957.51 3553.52 3946.23 3559.27 3941.23 3561.17L3944.79 3570.51C3950.55 3568.32 3962.46 3562.21 3977.86 3553.84C3993.39 3545.4 4012.8 3534.47 4033.75 3522.46C4075.65 3498.44 4123.78 3470.03 4159.53 3448.36L4154.35 3439.81ZM2532.57 2206.3C2520.16 2216.29 2506.86 2227.42 2493.47 2238.86L2499.96 2246.46C2513.31 2235.06 2526.53 2224 2538.84 2214.08L2532.57 2206.3ZM2493.47 2238.86C2451.72 2274.5 2408.25 2313.89 2389.5 2330.05L2396.03 2337.63C2415.46 2320.87 2457.85 2282.42 2499.96 2246.46L2493.47 2238.86ZM4159.87 3440.04L2499.64 2238.61L2493.78 2246.71L4154.01 3448.14L4159.87 3440.04ZM4710.36 3168.33C4698 3181.1 4672.7 3197.54 4643.14 3214.05C4613.77 3230.46 4580.77 3246.63 4553.5 3258.91L4557.6 3268.02C4585.08 3255.65 4618.34 3239.36 4648.02 3222.78C4677.51 3206.31 4704.04 3189.24 4717.55 3175.28L4710.36 3168.33ZM4553.5 3258.91C4539.1 3265.39 4526.34 3270.77 4516.59 3274.52C4511.71 3276.39 4507.64 3277.84 4504.52 3278.81C4502.96 3279.29 4501.69 3279.64 4500.71 3279.87C4500.22 3279.98 4499.84 3280.05 4499.55 3280.09C4499.25 3280.14 4499.13 3280.14 4499.15 3280.14L4499.15 3290.14C4501.28 3290.14 4504.33 3289.34 4507.49 3288.36C4510.9 3287.3 4515.2 3285.77 4520.18 3283.85C4530.16 3280.02 4543.09 3274.56 4557.6 3268.02L4553.5 3258.91ZM2895.02 2040.77C2882.1 2045.94 2853.45 2057.51 2818.49 2071.71L2822.26 2080.97C2857.21 2066.77 2885.84 2055.21 2898.74 2050.05L2895.02 2040.77ZM2818.49 2071.71C2734.69 2105.75 2614.23 2155.08 2587.53 2167.54L2591.76 2176.6C2618.16 2164.28 2738.27 2115.09 2822.26 2080.97L2818.49 2071.71ZM4558.37 3259.34L2823.2 2072.21L2817.55 2080.47L4552.73 3267.59L4558.37 3259.34ZM4968.22 3075.01C4950.15 3070.19 4932.07 3065.16 4916.89 3061.86L4914.77 3071.64C4929.65 3074.87 4947.38 3079.8 4965.64 3084.67L4968.22 3075.01ZM4916.89 3061.86C4909.54 3060.27 4902.75 3059.05 4896.85 3058.45C4891.05 3057.86 4885.69 3057.82 4881.43 3058.89L4883.85 3068.59C4886.41 3067.95 4890.38 3067.84 4895.84 3068.4C4901.2 3068.94 4907.59 3070.08 4914.77 3071.64L4916.89 3061.86ZM5844.65 2153.69L3924.85 1123.42L3920.12 1132.23L5839.92 2162.5L5844.65 2153.69ZM3916.75 1217.28C3914.77 1216.36 3911.22 1215.29 3906.83 1214.13C3902.29 1212.93 3896.42 1211.52 3889.5 1209.95C3875.64 1206.8 3857.42 1202.98 3836.9 1198.83L3834.91 1208.63C3855.41 1212.77 3873.54 1216.58 3887.28 1219.7C3894.16 1221.26 3899.9 1222.64 3904.27 1223.8C3908.81 1225 3911.48 1225.86 3912.52 1226.35L3916.75 1217.28ZM3836.9 1198.83C3777.07 1186.72 3697.38 1171.8 3648.18 1162.82L3646.39 1172.66C3695.56 1181.63 3775.18 1196.54 3834.91 1208.63L3836.9 1198.83ZM4159.67 1696.73L4166.75 1712.97L4175.92 1708.97L4168.84 1692.73L4159.67 1696.73ZM4166.75 1712.97L4213.63 1820.47L4222.8 1816.47L4175.92 1708.97L4166.75 1712.97ZM4174.52 1714.81L4302.93 1608.27L4296.54 1600.57L4168.14 1707.12L4174.52 1714.81ZM4309.74 1607.68L4899.74 1945.08L4904.7 1936.4L4314.7 1599L4309.74 1607.68ZM4900.79 1954.73L4060.63 2716.36L4067.34 2723.77L4907.51 1962.14L4900.79 1954.73ZM4053.24 2716.89L3481.07 2330.63L3475.47 2338.91L4047.64 2725.18L4053.24 2716.89ZM4098.96 1774.4L4096.51 1771.81L4089.25 1778.68L4091.7 1781.27L4098.96 1774.4ZM4096.51 1771.81L4039.09 1711.11L4031.82 1717.98L4089.25 1778.68L4096.51 1771.81ZM3480.46 2321.15L4096.18 1779L4089.58 1771.49L3473.85 2313.64L3480.46 2321.15ZM3041.65 1939.01C3019.17 1957.38 2978.39 1989.14 2943.05 2012.92L2948.63 2021.22C2984.33 1997.19 3025.37 1965.22 3047.98 1946.76L3041.65 1939.01ZM2943.05 2012.92C2923.94 2025.78 2906.77 2036.07 2895.02 2040.77L2898.74 2050.05C2911.57 2044.92 2929.51 2034.09 2948.63 2021.22L2943.05 2012.92ZM4340.99 2959.42L4697.33 3198.57L4702.9 3190.26L4346.57 2951.11L4340.99 2959.42ZM4043.88 1383.49C4043.98 1386.56 4044.09 1389.97 4044.21 1393.59L4054.2 1393.27C4054.09 1389.64 4053.97 1386.23 4053.87 1383.15L4043.88 1383.49ZM4044.21 1393.59C4045.03 1419.47 4046.02 1455.84 4045.62 1463.87L4055.61 1464.37C4056.04 1455.81 4055.02 1418.84 4054.2 1393.27L4044.21 1393.59ZM5281.83 2065L4051.61 1389.05L4046.8 1397.81L5277.01 2073.77L5281.83 2065ZM5815.39 2210.77L5848.16 2179.34L5841.24 2172.12L5808.47 2203.55L5815.39 2210.77ZM3905.94 1126.23L3872.04 1160.31L3879.13 1167.36L3913.03 1133.28L3905.94 1126.23ZM3872.04 1160.31L3832.36 1200.2L3839.45 1207.25L3879.13 1167.36L3872.04 1160.31ZM5814.3 2202.76L3877.96 1159.43L3873.21 1168.24L5809.56 2211.56L5814.3 2202.76ZM5373.76 2132.52L5157.19 2345.36L5164.2 2352.49L5380.77 2139.65L5373.76 2132.52ZM5159.75 2370.23L5400.73 2525.01L5406.13 2516.6L5165.16 2361.82L5159.75 2370.23ZM5420.96 2522.58L5643.95 2288.39L5636.71 2281.5L5413.72 2515.68L5420.96 2522.58ZM5639.96 2263.28L5392.57 2129.85L5387.82 2138.65L5635.21 2272.08L5639.96 2263.28ZM4929.22 2420.12L5284.99 2090.77L5278.2 2083.43L4922.43 2412.78L4929.22 2420.12ZM5334.6 2671.97L5815.39 2210.77L5808.47 2203.55L5327.68 2664.75L5334.6 2671.97ZM4923.18 2420.7L5328.5 2672.61L5333.78 2664.11L4928.46 2412.2L4923.18 2420.7ZM4977.01 2524.87L4968.66 2534.61L4976.26 2541.12L4984.61 2531.38L4977.01 2524.87ZM4972.28 2558.56L5182.63 2691.16L5187.96 2682.7L4977.61 2550.1L4972.28 2558.56ZM5204.45 2686.52L5212.19 2674.97L5203.88 2669.4L5196.14 2680.96L5204.45 2686.52ZM5207.36 2652.49L4997.63 2521.71L4992.34 2530.2L5202.07 2660.98L5207.36 2652.49ZM5232.4 2499.58C5238.63 2499.07 5245.83 2498.47 5251.77 2498.07L5251.11 2488.1C5245.07 2488.5 5237.77 2489.11 5231.59 2489.61L5232.4 2499.58ZM5257.36 2502.76L5259.92 2519.88L5269.81 2518.39L5267.25 2501.28L5257.36 2502.76ZM5254.62 2526.73L5235.6 2528.73L5236.65 2538.68L5255.66 2536.68L5254.62 2526.73ZM5229.07 2523.84L5226.12 2507.56L5216.28 2509.35L5219.23 2525.62L5229.07 2523.84ZM4798.05 2586.96L4758.9 2627.4L4766.09 2634.35L4805.24 2593.92L4798.05 2586.96ZM4761.61 2651.9L5070.33 2854.8L5075.82 2846.44L4767.1 2643.54L4761.61 2651.9ZM5090.09 2853.08L5133.58 2812.12L5126.72 2804.84L5083.23 2845.8L5090.09 2853.08ZM5131.29 2787.04L4818.23 2584.66L4812.8 2593.05L5125.86 2795.43L5131.29 2787.04ZM4828.58 2560.18L4827.15 2562.32L4835.47 2567.88L4836.9 2565.74L4828.58 2560.18ZM4831.64 2584.56L4854.77 2599.84L4860.28 2591.5L4837.15 2576.22L4831.64 2584.56ZM4877.59 2594.25L4878.62 2592.39L4869.87 2587.54L4868.84 2589.4L4877.59 2594.25ZM4873.66 2571.43L4850.92 2555.87L4845.27 2564.12L4868.01 2579.68L4873.66 2571.43ZM4884.83 2595.79L4883.32 2598.19L4891.79 2603.52L4893.3 2601.12L4884.83 2595.79ZM4888.08 2620.09L4907.54 2632.86L4913.03 2624.5L4893.57 2611.73L4888.08 2620.09ZM4930.33 2627.22L4931.78 2624.58L4923.03 2619.75L4921.57 2622.39L4930.33 2627.22ZM4926.46 2603.42L4907.06 2590.88L4901.63 2599.28L4921.03 2611.82L4926.46 2603.42ZM4946.16 2632.14L4945.95 2632.47L4954.41 2637.8L4954.61 2637.47L4946.16 2632.14ZM4951.05 2654.6L5016.75 2695.33L5022.02 2686.83L4956.32 2646.1L4951.05 2654.6ZM5039.74 2688.37L5040.54 2686.61L5031.44 2682.46L5030.64 2684.22L5039.74 2688.37ZM5034.14 2666.21L4967.85 2626.91L4962.75 2635.51L5029.04 2674.81L5034.14 2666.21ZM4751.27 2674.09L4725.91 2702.67L4733.39 2709.3L4758.75 2680.73L4751.27 2674.09ZM4728.53 2726.27L4745.62 2738.58L4751.46 2730.46L4734.37 2718.16L4728.53 2726.27ZM4766.75 2736.42L4791.94 2709.02L4784.58 2702.25L4759.39 2729.65L4766.75 2736.42ZM4790.13 2685.68L4773.21 2672.2L4766.98 2680.02L4783.9 2693.5L4790.13 2685.68ZM4582.76 2735.62L4983.41 3003.41L4988.97 2995.1L4588.31 2727.31L4582.76 2735.62ZM4919.29 3070.36L4965.61 3025.93L4958.69 3018.71L4912.37 3063.14L4919.29 3070.36ZM4965.61 3025.93L4989.65 3002.86L4982.73 2995.65L4958.69 3018.71L4965.61 3025.93ZM4347.18 2958.94L4564.04 2758.18L4557.24 2750.84L4340.38 2951.6L4347.18 2958.94ZM4564.04 2758.18L4588.93 2735.13L4582.14 2727.79L4557.24 2750.84L4564.04 2758.18ZM4964.92 3018.16L4563.42 2750.35L4557.87 2758.67L4959.37 3026.48L4964.92 3018.16ZM4588.93 2735.13L4640.81 2687.11L4634.01 2679.77L4582.14 2727.79L4588.93 2735.13ZM4640.81 2687.11L4929.22 2420.12L4922.43 2412.78L4634.01 2679.77L4640.81 2687.11ZM4989.65 3002.86L5039.29 2955.25L5032.37 2948.03L4982.73 2995.65L4989.65 3002.86ZM5039.29 2955.25L5334.6 2671.97L5327.68 2664.75L5032.37 2948.03L5039.29 2955.25ZM4634.62 2687.59L5033.03 2955.79L5038.62 2947.49L4640.2 2679.3L4634.62 2687.59ZM3223.12 1885.93L3279.23 1931.77L3285.56 1924.03L3229.45 1878.18L3223.12 1885.93ZM3469.73 1766.95C3475.25 1764.29 3481.96 1761.08 3489.43 1757.56L3485.16 1748.51C3477.67 1752.04 3470.93 1755.27 3465.38 1757.95L3469.73 1766.95ZM3300.16 1931.18L3490.67 1756.72L3483.92 1749.35L3293.4 1923.8L3300.16 1931.18ZM3489.43 1757.56C3518.48 1743.86 3558.66 1725.58 3584 1716.02L3580.47 1706.67C3554.71 1716.38 3514.2 1734.82 3485.16 1748.51L3489.43 1757.56ZM3584 1716.02C3588.97 1714.15 3593.31 1712.63 3596.85 1711.56L3593.95 1701.99C3590.12 1703.15 3585.55 1704.75 3580.47 1706.67L3584 1716.02ZM2943.06 2021.22L3115.13 2136.7L3120.7 2128.4L2948.63 2012.92L2943.06 2021.22ZM3115.13 2136.7L4340.99 2959.42L4346.57 2951.11L3120.7 2128.4L3115.13 2136.7ZM3578.87 1707.64L3114.55 2128.85L3121.27 2136.25L3585.59 1715.05L3578.87 1707.64ZM3081.59 1902.33C3087.46 1904.01 3093.41 1904.69 3099.25 1904.63L3099.16 1894.63C3094.15 1894.68 3089.18 1894.1 3084.34 1892.71L3081.59 1902.33ZM3096.3 1903.7L3229.06 1998.69L3234.88 1990.56L3102.11 1895.57L3096.3 1903.7ZM3250.54 1996.07L3265.3 1978.79L3257.69 1972.3L3242.93 1989.58L3250.54 1996.07ZM3099.25 1904.63C3121.53 1904.43 3142.8 1893.55 3154.69 1885.27L3148.98 1877.06C3137.89 1884.78 3118.59 1894.45 3099.16 1894.63L3099.25 1904.63ZM3262.54 1955.46L3154.78 1877.12L3148.9 1885.21L3256.66 1963.55L3262.54 1955.46ZM2990.02 2126.78L2981.09 2129.76L2984.25 2139.25L2993.18 2136.27L2990.02 2126.78ZM2973.35 2154.54L2974.78 2156.44L2982.78 2150.44L2981.35 2148.54L2973.35 2154.54ZM2996.8 2159.92L3004.15 2154.73L2998.39 2146.56L2991.04 2151.75L2996.8 2159.92ZM3045.9 2163.92L3034.5 2168.89L3038.5 2178.06L3049.9 2173.08L3045.9 2163.92ZM3030.37 2195.6L3033.82 2198.61L3040.4 2191.09L3036.95 2188.07L3030.37 2195.6ZM3052.93 2199.91C3056.99 2197.17 3061.43 2194.01 3064.74 2191.25C3066.35 2189.91 3067.91 2188.48 3069.01 2187.15C3069.53 2186.51 3070.2 2185.6 3070.63 2184.5C3071.03 2183.46 3071.61 2181.06 3069.94 2178.83L3061.94 2184.83C3060.58 2183.02 3061.17 2181.22 3061.29 2180.9C3061.44 2180.53 3061.55 2180.47 3061.28 2180.8C3060.8 2181.39 3059.83 2182.33 3058.33 2183.57C3055.42 2186 3051.31 2188.94 3047.33 2191.63L3052.93 2199.91ZM3069.94 2178.83C3070.01 2178.93 3069.97 2178.89 3069.82 2178.6C3069.69 2178.34 3069.52 2177.97 3069.32 2177.5C3068.93 2176.56 3068.48 2175.34 3068 2173.95L3058.54 2177.21C3059.06 2178.71 3059.59 2180.15 3060.1 2181.37C3060.56 2182.46 3061.18 2183.81 3061.94 2184.83L3069.94 2178.83ZM3117.43 2208.02L3100.66 2212.42L3103.19 2222.09L3119.97 2217.69L3117.43 2208.02ZM3092.1 2237.74L3104.14 2253.17L3112.02 2247.02L3099.98 2231.59L3092.1 2237.74ZM3123.4 2257.74C3128.05 2255.47 3133.14 2252.84 3136.96 2250.52C3138.82 2249.38 3140.62 2248.17 3141.92 2247C3142.52 2246.46 3143.36 2245.62 3143.95 2244.54C3144.54 2243.46 3145.48 2240.83 3143.6 2238.32L3135.6 2244.32C3134.05 2242.25 3134.94 2240.18 3135.17 2239.76C3135.4 2239.34 3135.57 2239.27 3135.23 2239.57C3134.64 2240.1 3133.49 2240.92 3131.75 2241.98C3128.35 2244.06 3123.59 2246.52 3119.02 2248.75L3123.4 2257.74ZM3143.6 2238.32C3143.77 2238.55 3143.76 2238.6 3143.57 2238.19C3143.42 2237.87 3143.21 2237.41 3142.97 2236.79C3142.47 2235.57 3141.87 2233.93 3141.2 2232.01C3139.87 2228.18 3138.31 2223.38 3136.87 2218.81L3127.33 2221.81C3128.78 2226.42 3130.37 2231.33 3131.76 2235.31C3132.46 2237.29 3133.11 2239.09 3133.69 2240.52C3133.98 2241.23 3134.26 2241.9 3134.53 2242.48C3134.77 2242.97 3135.13 2243.7 3135.6 2244.32L3143.6 2238.32ZM3176.46 2247.93L3163.03 2254.94L3167.65 2263.8L3181.09 2256.79L3176.46 2247.93ZM3157.7 2278.82L3165.12 2288.56L3173.08 2282.5L3165.65 2272.76L3157.7 2278.82ZM3188.71 2290.61L3200.21 2279.97L3193.42 2272.63L3181.92 2283.27L3188.71 2290.61ZM3201.26 2257.55L3195.78 2251.43L3188.33 2258.11L3193.81 2264.22L3201.26 2257.55ZM3240.32 2295.8L3230.84 2302.57L3236.65 2310.7L3246.13 2303.93L3240.32 2295.8ZM3230.99 2328.71L3234.73 2331.32L3240.45 2323.12L3236.71 2320.51L3230.99 2328.71ZM3254.05 2330.55L3262.34 2323.72L3255.98 2316L3247.69 2322.83L3254.05 2330.55ZM3263.48 2300.05L3260.93 2297.5L3253.86 2304.57L3256.41 2307.12L3263.48 2300.05ZM3304.69 2335.5L3287.5 2352.48L3294.53 2359.59L3311.71 2342.62L3304.69 2335.5ZM3287.12 2374.86L3294.12 2382.25L3301.38 2375.37L3294.39 2367.99L3287.12 2374.86ZM3316.02 2383.51L3334.5 2368L3328.08 2360.34L3309.59 2375.85L3316.02 2383.51ZM3335.9 2344.8L3327.61 2335.95L3320.31 2342.79L3328.6 2351.64L3335.9 2344.8ZM3380.29 2384.17L3374.21 2385.13L3375.77 2395.01L3381.85 2394.05L3380.29 2384.17ZM3361.18 2397.06L3358.25 2408.79L3367.95 2411.22L3370.88 2399.48L3361.18 2397.06ZM3369.54 2428.1L3374.14 2429.36L3376.78 2419.72L3372.18 2418.46L3369.54 2428.1ZM3393.62 2418.77L3398.04 2404.81L3388.51 2401.79L3384.09 2415.75L3393.62 2418.77ZM3454.91 2429.24H3443.63V2439.24H3454.91V2429.24ZM3427.64 2445.65L3427.9 2455.84L3437.9 2455.58L3437.63 2445.4L3427.64 2445.65ZM3443.09 2471.41L3453.98 2471.95L3454.48 2461.97L3443.59 2461.42L3443.09 2471.41ZM3470.78 2456.17L3470.91 2445.44L3460.91 2445.31L3460.78 2456.05L3470.78 2456.17ZM3508.33 2472.87L3497.55 2478.26L3502.02 2487.2L3512.8 2481.81L3508.33 2472.87ZM3489.55 2497.7L3492.39 2506.11L3501.86 2502.9L3499.02 2494.49L3489.55 2497.7ZM3512.29 2516.15C3518.89 2513.99 3526.15 2511.48 3531.58 2509.3C3534.24 2508.22 3536.68 2507.15 3538.4 2506.16C3539.16 2505.72 3540.26 2505.04 3541.1 2504.11C3541.49 2503.68 3542.34 2502.64 3542.58 2501.07C3542.88 2499.04 3541.99 2497.28 3540.75 2496.21L3534.24 2503.81C3533.22 2502.93 3532.42 2501.4 3532.68 2499.61C3532.88 2498.29 3533.57 2497.53 3533.68 2497.4C3533.97 2497.09 3534.06 2497.12 3533.42 2497.49C3532.34 2498.11 3530.44 2498.97 3527.84 2500.02C3522.73 2502.08 3515.73 2504.5 3509.18 2506.64L3512.29 2516.15ZM3540.75 2496.21C3540.86 2496.31 3540.52 2495.98 3539.59 2494.71C3538.8 2493.62 3537.8 2492.17 3536.66 2490.46C3534.4 2487.06 3531.7 2482.82 3529.19 2478.79L3520.7 2484.09C3523.24 2488.15 3526 2492.49 3528.34 2496.01C3529.51 2497.76 3530.6 2499.35 3531.52 2500.61C3532.31 2501.69 3533.31 2503.01 3534.24 2503.81L3540.75 2496.21ZM5232.37 2154.4L5217.67 2169.99L5224.94 2176.85L5239.65 2161.26L5232.37 2154.4ZM5219.52 2193.62L5234 2204.83L5240.12 2196.92L5225.63 2185.71L5219.52 2193.62ZM5255.44 2203.14L5269.6 2188.1L5262.32 2181.25L5248.16 2196.29L5255.44 2203.14ZM5268.26 2164.9L5254.33 2153.15L5247.88 2160.79L5261.82 2172.55L5268.26 2164.9ZM5269.8 2150.97L5285.76 2163.97L5292.08 2156.22L5276.12 2143.22L5269.8 2150.97ZM5307.51 2162.55L5333.22 2135.3L5325.95 2128.44L5300.23 2155.69L5307.51 2162.55ZM5332.35 2112.48L5329.42 2109.82L5322.69 2117.22L5325.62 2119.88L5332.35 2112.48ZM5306.14 2111.69L5296.07 2124.34L5303.9 2130.57L5313.96 2117.92L5306.14 2111.69ZM5268.14 2127.75L5267.74 2128.23L5275.35 2134.71L5275.76 2134.23L5268.14 2127.75ZM5288.81 2125.32C5282.35 2120.59 5273.34 2121.65 5268.14 2127.75L5275.76 2134.23C5277.55 2132.12 5280.67 2131.76 5282.91 2133.39L5288.81 2125.32ZM5296.07 2124.34C5294.31 2126.56 5291.1 2126.99 5288.81 2125.32L5282.91 2133.39C5289.53 2138.23 5298.79 2136.98 5303.9 2130.57L5296.07 2124.34ZM5329.42 2109.82C5322.58 2103.59 5311.9 2104.45 5306.14 2111.69L5313.96 2117.92C5316.12 2115.2 5320.13 2114.88 5322.69 2117.22L5329.42 2109.82ZM5333.22 2135.3C5339.37 2128.79 5338.97 2118.5 5332.35 2112.48L5325.62 2119.88C5328.11 2122.14 5328.26 2125.99 5325.95 2128.44L5333.22 2135.3ZM5285.76 2163.97C5292.26 2169.27 5301.75 2168.65 5307.51 2162.55L5300.23 2155.69C5298.08 2157.97 5294.52 2158.21 5292.08 2156.22L5285.76 2163.97ZM5276.12 2143.22C5273.52 2141.1 5273.17 2137.26 5275.35 2134.71L5267.74 2128.23C5261.93 2135.05 5262.86 2145.31 5269.8 2150.97L5276.12 2143.22ZM5269.6 2188.1C5275.89 2181.41 5275.28 2170.82 5268.26 2164.9L5261.82 2172.55C5264.45 2174.76 5264.68 2178.74 5262.32 2181.25L5269.6 2188.1ZM5234 2204.83C5240.52 2209.87 5249.8 2209.14 5255.44 2203.14L5248.16 2196.29C5246.04 2198.54 5242.56 2198.81 5240.12 2196.92L5234 2204.83ZM5217.67 2169.99C5211.18 2176.87 5212.04 2187.84 5219.52 2193.62L5225.63 2185.71C5222.83 2183.55 5222.51 2179.43 5224.94 2176.85L5217.67 2169.99ZM3492.39 2506.11C3495.16 2514.28 3503.97 2518.87 3512.29 2516.15L3509.18 2506.64C3506.19 2507.62 3502.91 2506 3501.86 2502.9L3492.39 2506.11ZM3497.55 2478.26C3490.4 2481.83 3486.99 2490.13 3489.55 2497.7L3499.02 2494.49C3498.06 2491.66 3499.34 2488.54 3502.02 2487.2L3497.55 2478.26ZM3512.8 2481.81C3515.58 2480.42 3519.02 2481.38 3520.7 2484.09L3529.19 2478.79C3524.81 2471.78 3515.79 2469.14 3508.33 2472.87L3512.8 2481.81ZM3453.98 2471.95C3463.04 2472.41 3470.66 2465.24 3470.78 2456.17L3460.78 2456.05C3460.73 2459.45 3457.88 2462.14 3454.48 2461.97L3453.98 2471.95ZM3427.9 2455.84C3428.11 2464.21 3434.74 2470.99 3443.09 2471.41L3443.59 2461.42C3440.46 2461.27 3437.98 2458.72 3437.9 2455.58L3427.9 2455.84ZM3443.63 2429.24C3434.63 2429.24 3427.41 2436.66 3427.64 2445.65L3437.63 2445.4C3437.55 2442.02 3440.26 2439.24 3443.63 2439.24V2429.24ZM3454.91 2439.24C3458.25 2439.24 3460.95 2441.97 3460.91 2445.31L3470.91 2445.44C3471.01 2436.52 3463.82 2429.24 3454.91 2429.24V2439.24ZM3374.14 2429.36C3382.42 2431.64 3391.02 2426.96 3393.62 2418.77L3384.09 2415.75C3383.11 2418.82 3379.89 2420.57 3376.78 2419.72L3374.14 2429.36ZM3358.25 2408.79C3356.14 2417.23 3361.15 2425.8 3369.54 2428.1L3372.18 2418.46C3369.04 2417.6 3367.16 2414.38 3367.95 2411.22L3358.25 2408.79ZM3381.85 2394.05C3386.26 2393.35 3389.86 2397.54 3388.51 2401.79L3398.04 2404.81C3401.63 2393.47 3392.04 2382.32 3380.29 2384.17L3381.85 2394.05ZM3334.5 2368C3341.54 2362.1 3342.17 2351.5 3335.9 2344.8L3328.6 2351.64C3330.95 2354.15 3330.71 2358.12 3328.08 2360.34L3334.5 2368ZM3294.12 2382.25C3299.93 2388.4 3309.54 2388.95 3316.02 2383.51L3309.59 2375.85C3307.16 2377.89 3303.56 2377.68 3301.38 2375.37L3294.12 2382.25ZM3230.84 2302.57C3221.84 2308.99 3221.92 2322.39 3230.99 2328.71L3236.71 2320.51C3233.3 2318.14 3233.27 2313.11 3236.65 2310.7L3230.84 2302.57ZM3246.13 2303.93C3248.52 2302.23 3251.79 2302.5 3253.86 2304.57L3260.93 2297.5C3255.4 2291.97 3246.68 2291.25 3240.32 2295.8L3246.13 2303.93ZM3200.21 2279.97C3206.63 2274.04 3207.09 2264.05 3201.26 2257.55L3193.81 2264.22C3196 2266.66 3195.83 2270.41 3193.42 2272.63L3200.21 2279.97ZM2781.32 1445.81C2777.72 1438.88 2769.68 1435.45 2762.15 1437.97L2765.33 1447.46C2768.06 1446.54 2771.06 1447.74 2772.44 1450.42L2781.32 1445.81ZM3165.12 2288.56C3170.84 2296.07 3181.78 2297.02 3188.71 2290.61L3181.92 2283.27C3179.32 2285.67 3175.22 2285.31 3173.08 2282.5L3165.12 2288.56ZM3181.09 2256.79C3183.52 2255.52 3186.5 2256.07 3188.33 2258.11L3195.78 2251.43C3190.89 2245.99 3182.94 2244.54 3176.46 2247.93L3181.09 2256.79ZM3104.14 2253.17C3108.65 2258.96 3116.64 2261.03 3123.4 2257.74L3119.02 2248.75C3116.67 2249.89 3113.75 2249.23 3112.02 2247.02L3104.14 2253.17ZM3100.66 2212.42C3089.54 2215.33 3085.03 2228.67 3092.1 2237.74L3099.98 2231.59C3097.33 2228.19 3099.02 2223.19 3103.19 2222.09L3100.66 2212.42ZM3119.97 2217.69C3123.08 2216.87 3126.34 2218.66 3127.33 2221.81L3136.87 2218.81C3134.3 2210.65 3125.78 2205.83 3117.43 2208.02L3119.97 2217.69ZM3034.5 2168.89C3023.75 2173.58 3021.54 2187.87 3030.37 2195.6L3036.95 2188.07C3033.64 2185.17 3034.47 2179.82 3038.5 2178.06L3034.5 2168.89ZM3049.9 2173.08C3053.15 2171.66 3057.23 2173.4 3058.54 2177.21L3068 2173.95C3064.94 2165.09 3054.94 2159.97 3045.9 2163.92L3049.9 2173.08ZM3004.15 2154.73C3010.8 2150.04 3012.81 2141.08 3008.81 2134.01L3000.1 2138.93C3001.57 2141.53 3000.83 2144.83 2998.39 2146.56L3004.15 2154.73ZM2974.78 2156.44C2979.97 2163.37 2989.73 2164.91 2996.8 2159.92L2991.04 2151.75C2988.39 2153.62 2984.73 2153.04 2982.78 2150.44L2974.78 2156.44ZM2981.09 2129.76C2970.73 2133.21 2966.79 2145.8 2973.35 2154.54L2981.35 2148.54C2978.89 2145.26 2980.36 2140.54 2984.25 2139.25L2981.09 2129.76ZM2993.18 2136.27C2995.83 2135.39 2998.73 2136.5 3000.1 2138.93L3008.81 2134.01C3005.08 2127.42 2997.21 2124.39 2990.02 2126.78L2993.18 2136.27ZM3265.3 1978.79C3271.36 1971.7 3270.09 1960.95 3262.54 1955.46L3256.66 1963.55C3259.49 1965.61 3259.97 1969.64 3257.69 1972.3L3265.3 1978.79ZM3279.23 1931.77C3285.38 1936.8 3294.3 1936.55 3300.16 1931.18L3293.4 1923.8C3291.21 1925.82 3287.86 1925.91 3285.56 1924.03L3279.23 1931.77ZM4791.94 2709.02C4798.22 2702.19 4797.39 2691.46 4790.13 2685.68L4783.9 2693.5C4786.62 2695.67 4786.93 2699.69 4784.58 2702.25L4791.94 2709.02ZM4745.62 2738.58C4752.19 2743.31 4761.27 2742.39 4766.75 2736.42L4759.39 2729.65C4757.33 2731.89 4753.93 2732.24 4751.46 2730.46L4745.62 2738.58ZM3861.81 1592.17C3860.46 1591.46 3859.5 1589.98 3859.42 1588.19L3849.43 1588.65C3849.66 1593.7 3852.42 1598.53 3857.14 1601.02L3861.81 1592.17ZM5016.75 2695.33C5024.94 2700.41 5035.74 2697.14 5039.74 2688.37L5030.64 2684.22C5029.14 2687.51 5025.09 2688.73 5022.02 2686.83L5016.75 2695.33ZM4883.32 2598.19C4878.68 2605.56 4880.79 2615.3 4888.08 2620.09L4893.57 2611.73C4890.84 2609.93 4890.04 2606.28 4891.79 2603.52L4883.32 2598.19ZM4893.3 2601.12C4895.08 2598.29 4898.82 2597.46 4901.63 2599.28L4907.06 2590.88C4899.57 2586.04 4889.58 2588.25 4884.83 2595.79L4893.3 2601.12ZM4878.62 2592.39C4882.62 2585.17 4880.47 2576.09 4873.66 2571.43L4868.01 2579.68C4870.57 2581.43 4871.37 2584.83 4869.87 2587.54L4878.62 2592.39ZM4042.83 1380.55C4043.46 1381.37 4043.84 1382.42 4043.88 1383.49L4053.87 1383.15C4053.76 1380.01 4052.68 1376.94 4050.74 1374.43L4042.83 1380.55ZM4854.77 2599.84C4862.56 2604.98 4873.07 2602.41 4877.59 2594.25L4868.84 2589.4C4867.14 2592.46 4863.2 2593.43 4860.28 2591.5L4854.77 2599.84ZM4827.15 2562.32C4822.22 2569.69 4824.23 2579.67 4831.64 2584.56L4837.15 2576.22C4834.37 2574.38 4833.62 2570.64 4835.47 2567.88L4827.15 2562.32ZM4836.9 2565.74C4838.75 2562.96 4842.52 2562.24 4845.27 2564.12L4850.92 2555.87C4843.57 2550.84 4833.53 2552.78 4828.58 2560.18L4836.9 2565.74ZM3239.72 839.547C3233.09 845.065 3232.39 854.981 3238.16 861.384L3245.59 854.689C3243.61 852.501 3243.86 849.114 3246.12 847.229L3239.72 839.547ZM5070.33 2854.8C5076.52 2858.87 5084.7 2858.16 5090.09 2853.08L5083.23 2845.8C5081.21 2847.7 5078.15 2847.97 5075.82 2846.44L5070.33 2854.8ZM3299.76 807.645C3294.21 802.016 3285.28 801.576 3279.21 806.634L3285.61 814.316C3287.69 812.588 3290.74 812.738 3292.63 814.662L3299.76 807.645ZM4758.9 2627.4C4751.92 2634.61 4753.22 2646.39 4761.61 2651.9L4767.1 2643.54C4763.96 2641.47 4763.47 2637.06 4766.09 2634.35L4758.9 2627.4ZM4805.24 2593.92C4807.23 2591.86 4810.4 2591.5 4812.8 2593.05L4818.23 2584.66C4811.82 2580.51 4803.37 2581.47 4798.05 2586.96L4805.24 2593.92ZM4213.63 1820.47C4215.56 1824.89 4210.94 1829.32 4206.6 1827.21L4202.22 1836.2C4214.91 1842.38 4228.44 1829.41 4222.8 1816.47L4213.63 1820.47ZM5251.77 2498.07C5254.48 2497.89 5256.92 2499.81 5257.36 2502.76L5267.25 2501.28C5266.08 2493.45 5259.27 2487.55 5251.11 2488.1L5251.77 2498.07ZM4091.7 1781.27C4092.95 1782.6 4094.44 1783.69 4096.08 1784.49L4100.46 1775.5C4099.9 1775.22 4099.39 1774.85 4098.96 1774.4L4091.7 1781.27ZM5231.59 2489.61C5221.89 2490.4 5214.52 2499.6 5216.28 2509.35L5226.12 2507.56C5225.44 2503.8 5228.42 2499.9 5232.4 2499.58L5231.59 2489.61ZM5380.77 2139.65C5382.64 2137.81 5385.5 2137.4 5387.82 2138.65L5392.57 2129.85C5386.39 2126.52 5378.76 2127.6 5373.76 2132.52L5380.77 2139.65ZM3515.63 1432.25C3515.79 1440.37 3522.3 1446.93 3530.42 1447.14L3530.68 1437.15C3527.91 1437.07 3525.69 1434.83 3525.63 1432.06L3515.63 1432.25ZM5277.01 2073.77C5280.6 2075.74 5281.2 2080.65 5278.2 2083.43L5284.99 2090.77C5293.01 2083.35 5291.4 2070.26 5281.83 2065L5277.01 2073.77ZM4060.63 2716.36C4058.58 2718.22 4055.53 2718.43 4053.24 2716.89L4047.64 2725.18C4053.75 2729.3 4061.88 2728.72 4067.34 2723.77L4060.63 2716.36ZM3969.31 1621.21C3965.14 1627.28 3965.59 1635.67 3970.97 1641.07L3978.06 1634.02C3976.25 1632.21 3975.96 1629.2 3977.55 1626.88L3969.31 1621.21ZM4899.74 1945.08C4903.28 1947.1 4903.81 1951.99 4900.79 1954.73L4907.51 1962.14C4915.56 1954.84 4914.14 1941.8 4904.7 1936.4L4899.74 1945.08ZM3919.06 1736.12C3918.12 1735.06 3917.58 1733.7 3917.55 1732.28L3907.55 1732.51C3907.64 1736.3 3909.07 1739.93 3911.58 1742.76L3919.06 1736.12ZM4302.93 1608.27C4304.85 1606.67 4307.57 1606.44 4309.74 1607.68L4314.7 1599C4308.91 1595.69 4301.68 1596.32 4296.54 1600.57L4302.93 1608.27ZM5239.65 2161.26C5241.83 2158.95 5245.45 2158.74 5247.88 2160.79L5254.33 2153.15C5247.83 2147.68 5238.2 2148.23 5232.37 2154.4L5239.65 2161.26ZM5422.34 3683.48C5426.71 3680.81 5429.43 3676.29 5429.86 3671.26L5419.9 3670.4C5419.73 3672.34 5418.72 3673.97 5417.13 3674.95L5422.34 3683.48ZM3222.99 1772.53C3222.01 1773.48 3221.34 1774.52 3220.9 1775.22C3220.36 1776.1 3220.22 1776.38 3219.93 1776.79L3228.07 1782.6C3228.38 1782.16 3228.65 1781.74 3228.86 1781.39C3229.13 1780.94 3229.2 1780.81 3229.41 1780.48C3229.74 1779.94 3229.88 1779.78 3229.93 1779.73L3222.99 1772.53ZM5839.92 2162.5C5843.51 2164.43 5844.18 2169.3 5841.24 2172.12L5848.16 2179.34C5856 2171.82 5854.22 2158.83 5844.65 2153.69L5839.92 2162.5ZM3234.73 2331.32C3240.61 2335.42 3248.51 2335.11 3254.05 2330.55L3247.69 2322.83C3245.61 2324.54 3242.65 2324.65 3240.45 2323.12L3234.73 2331.32ZM5906.73 4149.62C5909.66 4152.23 5913.44 4153.62 5917.32 4153.61L5917.29 4143.61C5915.82 4143.61 5914.44 4143.09 5913.38 4142.15L5906.73 4149.62ZM3033.82 2198.61C3039.11 2203.24 3046.94 2203.96 3052.93 2199.91L3047.33 2191.63C3045.26 2193.02 3042.42 2192.86 3040.4 2191.09L3033.82 2198.61ZM4109.26 946.388C4103.31 944.625 4096.88 946.461 4092.76 951.099L4100.23 957.742C4101.78 956.003 4104.19 955.314 4106.42 955.976L4109.26 946.388ZM4902.63 1336.39C4900 1335.07 4896.86 1334.37 4893.56 1335L4895.43 1344.82C4896.17 1344.68 4897.08 1344.79 4898.12 1345.32L4902.63 1336.39ZM3229.06 1998.69C3235.82 2003.53 3245.14 2002.39 3250.54 1996.07L3242.93 1989.58C3240.91 1991.95 3237.41 1992.37 3234.88 1990.56L3229.06 1998.69ZM5112.21 1555.31C5114.65 1555.19 5116.51 1557.21 5116.46 1559.43L5106.47 1559.25C5106.4 1562.58 5109.13 1565.47 5112.68 1565.3L5112.21 1555.31ZM4758.75 2680.73C4760.87 2678.34 4764.48 2678.03 4766.98 2680.02L4773.21 2672.2C4766.55 2666.9 4756.92 2667.73 4751.27 2674.09L4758.75 2680.73ZM5852.51 2694.04C5856.44 2694.04 5860.24 2692.59 5863.17 2689.97L5856.51 2682.51C5855.41 2683.49 5853.98 2684.04 5852.51 2684.04V2694.04ZM3856.31 1520.37C3856.2 1517.96 3857.67 1516.1 3859.53 1515.63L3857.08 1505.93C3850.15 1507.68 3846.02 1514.17 3846.32 1520.82L3856.31 1520.37ZM4945.95 2632.47C4941.21 2639.98 4943.5 2649.92 4951.05 2654.6L4956.32 2646.1C4953.49 2644.35 4952.63 2640.62 4954.41 2637.8L4945.95 2632.47ZM5793.88 2616.75C5793.08 2617.35 5792.36 2618.01 5791.7 2618.74L5799.09 2625.47C5799.35 2625.19 5799.61 2624.95 5799.9 2624.73L5793.88 2616.75ZM3979.34 1515.76C3977.35 1511.96 3973.82 1509.29 3969.75 1508.28L3967.34 1517.99C3968.73 1518.33 3969.87 1519.23 3970.49 1520.41L3979.34 1515.76ZM3481.07 2330.63C3477.81 2328.43 3477.51 2323.75 3480.46 2321.15L3473.85 2313.64C3465.99 2320.57 3466.79 2333.05 3475.47 2338.91L3481.07 2330.63ZM3705.78 3667.45C3705.23 3667.83 3704.69 3668.08 3704.08 3668.25L3706.78 3677.88C3708.47 3677.4 3709.99 3676.68 3711.41 3675.72L3705.78 3667.45ZM3374.21 2385.13C3367.87 2386.13 3362.74 2390.83 3361.18 2397.06L3370.88 2399.48C3371.47 2397.15 3373.39 2395.39 3375.77 2395.01L3374.21 2385.13ZM6130.78 2217.97C6130.61 2218.21 6130.41 2218.44 6130.21 2218.66L6137.37 2225.63C6137.94 2225.05 6138.47 2224.42 6138.94 2223.75L6130.78 2217.97ZM3682.5 1701.49C3683.74 1701.47 3685.03 1701.89 3686.17 1702.71L3692.04 1694.61C3689.29 1692.63 3685.94 1691.45 3682.38 1691.49L3682.5 1701.49ZM5982.79 4140.21C5981.76 4142.19 5979.72 4143.43 5977.49 4143.44L5977.52 4153.44C5983.47 4153.42 5988.91 4150.1 5991.66 4144.83L5982.79 4140.21ZM4954.61 2637.47C4956.35 2634.72 4959.95 2633.85 4962.75 2635.51L4967.85 2626.91C4960.39 2622.49 4950.78 2624.81 4946.16 2632.14L4954.61 2637.47ZM5040.54 2686.61C5043.93 2679.18 5041.17 2670.38 5034.14 2666.21L5029.04 2674.81C5031.68 2676.37 5032.71 2679.67 5031.44 2682.46L5040.54 2686.61ZM3951.45 1613.71C3953.74 1612.76 3955.71 1611.21 3957.17 1609.26L3949.17 1603.26C3948.76 1603.81 3948.22 1604.23 3947.63 1604.47L3951.45 1613.71ZM3287.5 2352.48C3281.31 2358.59 3281.14 2368.54 3287.12 2374.86L3294.39 2367.99C3292.14 2365.61 3292.21 2361.89 3294.53 2359.59L3287.5 2352.48ZM3749.99 1793.12C3750.35 1794.53 3750.91 1795.97 3751.76 1797.33L3760.25 1792.05C3760.02 1791.69 3759.83 1791.23 3759.68 1790.66L3749.99 1793.12ZM5996.33 4135.86C5998.51 4131.67 5997.65 4126.55 5994.22 4123.3L5987.35 4130.57C5987.53 4130.74 5987.58 4131.02 5987.46 4131.24L5996.33 4135.86ZM4931.78 2624.58C4935.84 2617.23 4933.52 2607.98 4926.46 2603.42L4921.03 2611.82C4923.68 2613.53 4924.55 2616.99 4923.03 2619.75L4931.78 2624.58ZM3311.71 2342.62C3314.12 2340.25 3318 2340.32 3320.31 2342.79L3327.61 2335.95C3321.45 2329.38 3311.09 2329.18 3304.69 2335.5L3311.71 2342.62ZM3729.64 1727.09C3732.19 1728 3733.95 1729.89 3734.48 1731.99L3744.17 1729.53C3742.69 1723.69 3738.16 1719.52 3733 1717.67L3729.64 1727.09ZM5952.5 4102.6C5954.7 4101.66 5957.24 4102.11 5958.98 4103.75L5965.85 4096.49C5961.22 4092.1 5954.42 4090.89 5948.55 4093.41L5952.5 4102.6ZM3690.73 1597.09C3688.21 1596.04 3685.49 1595.62 3682.73 1595.92L3683.83 1605.86C3684.85 1605.75 3685.87 1605.9 3686.86 1606.32L3690.73 1597.09ZM4907.54 2632.86C4915.33 2637.98 4925.83 2635.38 4930.33 2627.22L4921.57 2622.39C4919.88 2625.45 4915.95 2626.42 4913.03 2624.5L4907.54 2632.86ZM4984.61 2531.38C4986.53 2529.13 4989.82 2528.63 4992.34 2530.2L4997.63 2521.71C4990.92 2517.53 4982.16 2518.87 4977.01 2524.87L4984.61 2531.38ZM4158.61 1695.17C4159.06 1695.62 4159.42 1696.15 4159.67 1696.73L4168.84 1692.73C4168.09 1691.03 4167.05 1689.48 4165.75 1688.16L4158.61 1695.17ZM5259.92 2519.88C5260.43 2523.26 5258.01 2526.37 5254.62 2526.73L5255.66 2536.68C5264.72 2535.72 5271.16 2527.41 5269.81 2518.39L5259.92 2519.88ZM5235.6 2528.73C5232.48 2529.06 5229.63 2526.93 5229.07 2523.84L5219.23 2525.62C5220.73 2533.86 5228.32 2539.55 5236.65 2538.68L5235.6 2528.73ZM5643.95 2288.39C5651.23 2280.75 5649.25 2268.28 5639.96 2263.28L5635.21 2272.08C5638.7 2273.95 5639.44 2278.63 5636.71 2281.5L5643.95 2288.39ZM5212.19 2674.97C5217.22 2667.46 5215.03 2657.27 5207.36 2652.49L5202.07 2660.98C5204.94 2662.77 5205.76 2666.59 5203.88 2669.4L5212.19 2674.97ZM5157.19 2345.36C5149.86 2352.55 5151.12 2364.68 5159.75 2370.23L5165.16 2361.82C5161.92 2359.74 5161.45 2355.19 5164.2 2352.49L5157.19 2345.36ZM4968.66 2534.61C4962.31 2542.03 4964.02 2553.35 4972.28 2558.56L4977.61 2550.1C4974.52 2548.15 4973.87 2543.9 4976.26 2541.12L4968.66 2534.61ZM3924.85 1123.42C3918.62 1120.07 3910.93 1121.22 3905.94 1126.23L3913.03 1133.28C3914.9 1131.4 3917.79 1130.97 3920.12 1132.23L3924.85 1123.42ZM4725.91 2702.67C4719.62 2709.76 4720.83 2720.73 4728.53 2726.27L4734.37 2718.16C4731.48 2716.08 4731.03 2711.96 4733.39 2709.3L4725.91 2702.67ZM5951.22 2611.28C5954.72 2608.16 5956.63 2603.7 5956.6 2599.08L5946.6 2599.14C5946.61 2600.96 5945.86 2602.66 5944.56 2603.83L5951.22 2611.28ZM5133.58 2812.12C5141.14 2805 5140.01 2792.67 5131.29 2787.04L5125.86 2795.43C5129.13 2797.55 5129.55 2802.17 5126.72 2804.84L5133.58 2812.12ZM3262.34 2323.72C3269.63 2317.71 3270.16 2306.73 3263.48 2300.05L3256.41 2307.12C3258.92 2309.63 3258.72 2313.75 3255.98 2316L3262.34 2323.72ZM5400.73 2525.01C5407.18 2529.15 5415.67 2528.14 5420.96 2522.58L5413.72 2515.68C5411.73 2517.77 5408.55 2518.15 5406.13 2516.6L5400.73 2525.01ZM5182.63 2691.16C5189.96 2695.78 5199.63 2693.72 5204.45 2686.52L5196.14 2680.96C5194.34 2683.66 5190.71 2684.43 5187.96 2682.7L5182.63 2691.16ZM5765.68 2694.55C5766.44 2694.21 5767.27 2694.04 5768.1 2694.04V2684.04C5765.87 2684.04 5763.67 2684.5 5761.63 2685.41L5765.68 2694.55ZM3836.19 1776.03C3835.74 1775.15 3835.51 1774.17 3835.53 1773.18L3825.53 1773.01C3825.49 1775.65 3826.09 1778.25 3827.3 1780.59L3836.19 1776.03ZM3163.03 2254.94C3154.23 2259.53 3151.69 2270.93 3157.7 2278.82L3165.65 2272.76C3163.4 2269.8 3164.35 2265.52 3167.65 2263.8L3163.03 2254.94ZM3162.43 1874.19C3157.64 1873.19 3152.78 1874.42 3148.98 1877.06L3154.69 1885.27C3156.46 1884.04 3158.55 1883.6 3160.4 1883.98L3162.43 1874.19Z" fill="#7481A1"/>
<path d="M1987.71 2746.46V673.473C1987.71 640.336 2014.57 613.473 2047.71 613.473H6243.19C6276.32 613.473 6303.19 640.336 6303.19 673.473V3331.6M1987.71 3127.95V4088.66C1987.71 4121.8 2014.57 4148.66 2047.71 4148.66H6243.19C6276.32 4148.66 6303.19 4121.8 6303.19 4088.66V3711.35" stroke="#7481A1" stroke-width="10"/>
<path d="M6667.69 1741.53L6667.69 2083.36L6667.69 2815.78C6686.56 2989.01 7118.66 3154.12 7034.89 3279.78C6906.73 3472.02 6588.89 3470.58 6235.12 3443.33C6161.55 3438.29 6005.24 3412.63 5968.59 3350.33" stroke="#7481A1" stroke-width="10" stroke-dasharray="87 87"/>
<path d="M7224.18 3209.12C7231.48 3075.25 6935.12 2998.58 6864.55 2825.03C6863.29 2821.93 6862.5 2818.76 6862.06 2815.45C6827.44 2549.35 6862.71 2075.83 6862.71 2075.83M7224.18 3209.12C7271.81 3638.89 6735.63 3729.34 6208.34 3709.13M7224.18 3209.12C7214.99 3578.28 6707.88 3618.64 6208.12 3597.87M6493.31 2827.29C6492.86 2839.89 6493.81 2852.19 6495.97 2864.2M6493.31 2827.29C6493.64 2840.01 6494.55 2852.31 6495.97 2864.2M6493.31 2827.29L6493.31 2075.83M6495.97 2864.2C6533.16 3070.49 6930.01 3192.81 6825.39 3310.83M6495.97 2864.2C6527.43 3126.6 6812.18 3192.71 6825.39 3310.83M6825.39 3310.83C6781.03 3360.87 6513.27 3344.26 6208.07 3326.53" stroke="#7481A1" stroke-width="10"/>
<path d="M548.181 2852.42C752.902 2879.53 1110.19 2854.84 1468.8 2827.44C1792.62 2802.7 1969.74 2717.89 2294.36 2727.37C2556.08 2735.01 2832.23 2827.44 2957.32 2827.44M547.523 3145.46C825.367 3159.51 1092.55 3149.07 1440.21 3124.68C1762.11 3102.1 1936.57 2997.35 2258.88 3012.78C2518.86 3025.22 2877.35 3141.87 2953.91 3141.87" stroke="#7481A1" stroke-width="10"/>
<path d="M5.10938 2900.22C157.461 2967.93 431.205 2997.06 549.033 3003.16C826.877 3017.21 1094.06 3006.78 1441.72 2982.39C1763.62 2959.8 1938.08 2855.06 2260.39 2870.48C2520.37 2882.92 2875.91 3004.26 2952.48 3004.26C3220.61 3053.34 3350.81 3123.16 3657.9 3115.67" stroke="#7481A1" stroke-width="10" stroke-linecap="round" stroke-dasharray="87 87"/>
<path d="M553.086 3243.86C830.929 3257.91 1098.11 3247.48 1445.77 3223.08C1767.67 3200.5 1942.13 3095.76 2264.45 3111.18C2524.42 3123.62 2877.57 3240.35 2954.14 3240.35" stroke="#7481A1" stroke-width="10"/>
</svg>
