<svg width="9994" height="3827" viewBox="0 0 9994 3827" fill="none" xmlns="http://www.w3.org/2000/svg">
<path d="M7248.85 3096.35C7717.63 3132.46 8138.8 3134.37 8308.62 2879.64C8419.62 2713.12 7847.05 2494.34 7822.05 2264.79C7802.21 2082.61 9036.69 1852.77 9037.52 1852.61C9037.54 1852.61 9037.53 1852.61 9037.55 1852.61C9298.81 1803.61 9716.02 1646.59 9817.05 1590.76" stroke="#7481A1" stroke-width="10" stroke-dasharray="155 155"/>
<path d="M8563.92 2786C8573.69 2607.02 8065.09 2332.16 8084.95 2270.84C8119.63 2163.77 8945.85 1988.53 9044.26 1968.9M8563.92 2786C8627.04 3355.49 7916.55 3475.34 7217.85 3448.56L7217.56 3301.13M8563.92 2786C8551.75 3275.17 7879.78 3328.66 7217.56 3301.13M9044.26 1680.32C8770.82 1757.23 7606.52 1966.48 7595.46 2280.04M7595.46 2280.04C7584.75 2583.4 8182.2 2755.28 8035.5 2920.78M7595.46 2280.04C7499.19 2624.3 7968.9 2719.09 8035.5 2920.78M8035.5 2920.78C7976.72 2987.09 7621.91 2965.08 7217.49 2941.58L7217.56 3301.13M8145.91 2345.49C8203.08 2226.4 8914.6 2101.05 9044.26 2068.89" stroke="#7481A1" stroke-width="10"/>
<path d="M2537.02 2504.97C2068.24 2545.91 1647.07 2548.08 1477.25 2259.29C1366.24 2070.51 1938.82 1822.48 1963.82 1562.24C1983.66 1355.64 1215.01 1302.3 748.348 1094.96C523.469 995.046 177.715 824.535 177.715 824.535" stroke="#7481A1" stroke-width="10" stroke-dasharray="155 155"/>
<path d="M1221.94 2153.13C1212.18 1950.23 1720.77 1638.62 1700.91 1569.1C1666.24 1447.71 888.509 1320.32 746.636 1226.79M1221.94 2153.13C1158.82 2798.76 1869.31 2874.39 2568.01 2844.04L2568.31 2737.14M1221.94 2153.13C1234.11 2707.71 1906.08 2768.35 2568.31 2737.14M746.637 899.63C1231.29 1200.03 2179.34 1224.05 2190.41 1579.53M2190.41 1579.53C2201.11 1923.45 1603.66 2118.31 1750.37 2305.93M2190.41 1579.53C2286.67 1969.81 1816.97 2077.28 1750.37 2305.93M1750.37 2305.93C1809.15 2381.1 2163.95 2356.16 2568.37 2329.52L2568.31 2737.14M1639.95 1653.73C1582.78 1518.72 924.565 1427.95 728.059 1340.93" stroke="#7481A1" stroke-width="10"/>
<path d="M3704.49 1440.27L3707.65 1444.14L3709.4 1442.71L3709.49 1440.45L3704.49 1440.27ZM3745.68 1391.29L3747.05 1386.48L3745.68 1391.29ZM4044.01 1320.05L4041.53 1315.7L4041.53 1315.7L4044.01 1320.05ZM4160.89 1245.46L4158.71 1240.96L4158.43 1241.1L4158.17 1241.27L4160.89 1245.46ZM4298.92 1185.35L4300.37 1190.14L4298.92 1185.35ZM4553.83 1194.26L4548.86 1193.74L4548.84 1193.95L4548.84 1194.17L4553.83 1194.26ZM4514.87 1105.21L4515.34 1100.23L4514.87 1105.21ZM4218.77 1079.6L4217.47 1084.43L4217.47 1084.43L4218.77 1079.6ZM3957.18 1243.24L3956.87 1238.25L3956.63 1238.26L3956.39 1238.3L3957.18 1243.24ZM4640.35 1325.5L4638.37 1320.91L4638.37 1320.91L4640.35 1325.5ZM4750.11 1259L4753.72 1262.46L4753.72 1262.46L4750.11 1259ZM4765.79 1170.32L4769.55 1167.03L4769.55 1167.03L4765.79 1170.32ZM4731.15 1037.92L4736.08 1037.1L4736.08 1037.1L4731.15 1037.92ZM4216.91 821.675L4211.91 821.764L4211.91 821.77L4216.91 821.675ZM4289.05 792.75L4293.46 795.101L4284.83 790.072L4289.05 792.75ZM4334.61 878.087L4331.44 874.222L4331.39 874.266L4331.34 874.311L4334.61 878.087ZM4264.52 812.293L4266.55 816.865L4266.55 816.865L4264.52 812.293ZM4369.29 903.353L4369.16 908.351L4369.17 908.351L4369.19 908.352L4369.29 903.353ZM4397.33 903.956L4397.22 908.955L4397.41 908.959L4397.6 908.948L4397.33 903.956ZM4438.71 834.915L4442.53 831.691L4442.42 831.56L4442.3 831.436L4438.71 834.915ZM4348.29 596.626L4351.85 593.121L4351.85 593.118L4348.29 596.626ZM4273.58 664.394L4269.87 667.742L4269.93 667.808L4269.99 667.873L4273.58 664.394ZM4786.92 1042.96L4783.36 1046.46L4783.36 1046.46L4786.92 1042.96ZM4819.75 976.089L4824.52 974.583L4824.52 974.583L4819.75 976.089ZM4790.39 923.369L4795.38 923.619L4795.38 923.619L4790.39 923.369ZM4643.57 661.774L4641.46 666.305L4641.46 666.305L4643.57 661.774ZM4665.85 919.758L4662.28 923.262L4662.28 923.262L4665.85 919.758ZM4678.27 988.101L4681 983.907L4680.78 983.765L4680.54 983.647L4678.27 988.101ZM4707.06 1096.03L4702.94 1093.2L4702.94 1093.2L4707.06 1096.03ZM4708.69 981.702L4704.27 984.026L4704.27 984.026L4708.69 981.702ZM4218.2 888.865L4213.2 888.96L4213.2 888.96L4218.2 888.865ZM3918.37 253.211L3915.16 249.369L3915.16 249.369L3918.37 253.211ZM3975.89 218.409L3972.32 221.917L3972.32 221.917L3975.89 218.409ZM4786.25 829.848L4782.29 832.909L4782.29 832.909L4786.25 829.848ZM4910.83 1169.04L4907.27 1172.54L4907.27 1172.54L4910.83 1169.04ZM4971.33 1305.94L4966.75 1307.94L4966.75 1307.94L4971.33 1305.94ZM4841.83 1264.4L4839.64 1268.89L4839.64 1268.89L4841.83 1264.4ZM4575.21 984.346L4570.22 984.574L4570.22 984.574L4575.21 984.346ZM4582.76 973.747L4581.54 968.899L4581.54 968.899L4582.76 973.747ZM4685.18 1076.83L4681.18 1073.83L4681.18 1073.83L4685.18 1076.83ZM4681.26 1079.89L4679.35 1075.27L4679.35 1075.27L4681.26 1079.89ZM4797.93 937.804L4794.22 941.152L4794.22 941.152L4797.93 937.804ZM4112.91 629.725L4116.55 633.152L4116.55 633.152L4112.91 629.725ZM3537.73 965.01L3538.11 969.995L3538.11 969.995L3537.73 965.01ZM3544.77 1550.96L3542.92 1546.31L3542.92 1546.31L3544.77 1550.96ZM3213.07 1687.7L3215.19 1692.23L3213.07 1687.7ZM3000.51 1862.35L3003.77 1866.14L3000.51 1862.35ZM2861.06 1950.35L2858.41 1946.11L2858.41 1946.11L2861.06 1950.35ZM4332.58 580.674L4329.02 584.182L4329.02 584.182L4332.58 580.674ZM4559.37 406.978L4556.6 402.815L4556.6 402.815L4559.37 406.978ZM4705.34 400.946L4703.06 405.393L4703.06 405.393L4705.34 400.946ZM7018.81 1599.39L7021.82 1595.4L7021.56 1595.2L7021.28 1595.04L7018.81 1599.39ZM6827.78 1868.85L6826.08 1864.14L6826.08 1864.14L6827.78 1868.85ZM6067.09 2616.54L6070.77 2619.93L6070.77 2619.93L6067.09 2616.54ZM6131.38 2840.34L6135.5 2837.49L6135.5 2837.49L6131.38 2840.34ZM6284.04 3166.61L6289.04 3166.61L6284.04 3166.61ZM5726.39 3659.33L5731.09 3661.04L5731.09 3661.04L5726.39 3659.33ZM5870.79 2683.1L5870.15 2678.14L5870.79 2683.1ZM5688.67 2650.38L5689.88 2655.23L5688.67 2650.38ZM5506.55 2767.05L5510.14 2770.52L5510.14 2770.52L5506.55 2767.05ZM5274.63 2889.41L5274.63 2894.41L5274.63 2889.41ZM4954.5 3030.26L4957.28 3034.42L4957.28 3034.42L4954.5 3030.26ZM4674.21 3192.46L4672.43 3187.79L4674.21 3192.46ZM4502.06 3253.64L4504.45 3258.03L4504.45 3258.03L4502.06 3253.64ZM3604.57 3569.38L3600.28 3566.81L3600.28 3566.81L3604.57 3569.38ZM3001.97 3404.67L2998.18 3407.93L2998.18 3407.93L3001.97 3404.67ZM5756 3636.52L5758.83 3640.65L5758.83 3640.65L5756 3636.52ZM5268.16 2965.34L5264.11 2968.28L5264.11 2968.28L5268.16 2965.34ZM5342.14 3067.13L5338.1 3070.07L5338.1 3070.07L5342.14 3067.13ZM6022.91 2749.46L6025.98 2745.52L6025.98 2745.52L6022.91 2749.46ZM5415.08 3167.48L5411.04 3170.42L5411.04 3170.42L5415.08 3167.48ZM5459.56 3228.67L5455.52 3231.61L5455.52 3231.61L5459.56 3228.67ZM5530.3 3326L5526.25 3328.94L5526.25 3328.94L5530.3 3326ZM6230.65 3038.84L6235.18 3036.71L6235.18 3036.71L6230.65 3038.84ZM5603.87 3427.22L5599.82 3430.16L5599.82 3430.16L5603.87 3427.22ZM5685.18 3539.08L5681.13 3542.02L5681.13 3542.02L5685.18 3539.08ZM6906.09 1981.88L6901.51 1979.88L6906.09 1981.88ZM6840.65 2054.96L6838.32 2050.53L6838.26 2050.56L6838.2 2050.6L6840.65 2054.96ZM6753.39 2109.49L6749.44 2106.42L6753.39 2109.49ZM6865.25 2037.22L6861.92 2033.49L6861.92 2033.49L6865.25 2037.22ZM7036.98 2042.96L7041.98 2042.67L7036.98 2042.96ZM6312.9 3228.66L6315.62 3232.86L6315.62 3232.86L6312.9 3228.66ZM6547.56 2293.97C6545.38 2295.66 6544.99 2298.8 6546.68 2300.98C6548.37 2303.16 6551.51 2303.56 6553.7 2301.87L6547.56 2293.97ZM6006.34 941.056L6011.25 940.135L6010.8 937.707L6008.59 936.593L6006.34 941.056ZM4911.04 387.031L4913.51 382.684L4913.01 382.4L4912.46 382.237L4911.04 387.031ZM4847.38 442.117L4843.41 445.155L4843.9 445.8L4844.58 446.256L4847.38 442.117ZM4829.02 114.045L4833.02 117.045L4833.15 116.865L4833.27 116.673L4829.02 114.045ZM4740.12 258.209L4735.14 258.649L4740.12 258.209ZM6648.64 3729.06L6647.15 3724.29L6648.64 3729.06ZM6697.32 3730.17L6700.21 3726.09L6697.32 3730.17ZM6773.13 3796.38L6769.81 3800.12L6769.81 3800.12L6773.13 3796.38ZM3154.84 1728.86L3151.7 1724.96L3151.7 1724.96L3154.84 1728.86ZM4905.17 3061.01L4907.76 3065.29L4907.76 3065.29L4905.17 3061.01ZM5335.53 2866.01L5337.58 2870.57L5335.53 2866.01ZM3462.17 1584.35L3460.29 1579.72L3462.17 1584.35ZM4558.58 642.243L4557.58 647.144L4558.58 642.243ZM5106.89 2533.27L5104.11 2537.42L5104.11 2537.42L5106.89 2533.27ZM6691.96 1725.59L6695.42 1729.19L6695.42 1729.19L6691.96 1725.59ZM5367.9 2291.64L5364.51 2287.97L5364.51 2287.97L5367.9 2291.64ZM5423.91 2239.8L5420.51 2236.13L5420.51 2236.13L5423.91 2239.8ZM5854.05 2529.35L5857.51 2532.96L5857.51 2532.96L5854.05 2529.35ZM3783.41 1645.03L3780.62 1649.19L3780.62 1649.19L3783.41 1645.03ZM3820.03 1373.63L3817.17 1369.53L3820.03 1373.63ZM3727.29 1698.23L3723.29 1701.23L3727.29 1698.23ZM3806.82 1762.47L3810.82 1759.47L3806.82 1762.47ZM4236.4 2041.75L4233.15 2045.55L4236.4 2041.75ZM6123.91 1641.52L6126.86 1637.48L6123.91 1641.52ZM6109.05 1643.27L6105.24 1640.03L6109.05 1643.27ZM6139.18 1639.61L6143.09 1642.73L6139.18 1639.61ZM6124.08 1641.65L6121.13 1645.68L6124.08 1641.65ZM6166.7 1623.85L6163.34 1627.55L6166.7 1623.85ZM6150.7 1625.14L6154.61 1628.26L6150.7 1625.14ZM6171.82 1643.65L6175.45 1647.08L6171.82 1643.65ZM6171.22 1627.96L6174.58 1624.26L6171.22 1627.96ZM6127.93 1675.29L6131.09 1671.41L6127.93 1675.29ZM6142.88 1674.31L6139.25 1670.88L6142.88 1674.31ZM6109.4 1660.19L6112.56 1656.31L6109.4 1660.19ZM6107.97 1644.53L6104.17 1641.28L6107.97 1644.53ZM6103.14 1700.63L6099.5 1697.21L6103.14 1700.63ZM6102.23 1684.68L6099 1688.51L6102.23 1684.68ZM6071.94 1719.29L6075 1715.33L6071.94 1719.29ZM6086.68 1718.12L6083.04 1714.7L6086.68 1718.12ZM6053.64 1689.86L6050 1686.43L6053.64 1689.86ZM6054.91 1706.11L6051.85 1710.07L6054.91 1706.11ZM4193.09 2047.41L4188.36 2049.01L4193.09 2047.41ZM4206.7 2054.31L4208.25 2059.07L4206.7 2054.31ZM4195.01 2023.44L4192.77 2018.97L4192.77 2018.97L4195.01 2023.44ZM4189.5 2036.81L4194.24 2035.2L4189.5 2036.81ZM4208.05 2016.92L4205.81 2012.45L4208.05 2016.92ZM4222.43 2021.02L4218.18 2023.66L4218.18 2023.66L4222.43 2021.02ZM4147.41 2006.12L4147.66 2001.13L4147.41 2006.12ZM4158.96 1995.27L4153.96 1995.21L4158.96 1995.27ZM4123.5 1994.74L4118.5 1994.87L4123.5 1994.74ZM4123.17 1982.03L4118.17 1982.16L4123.17 1982.03ZM4159.12 1981.88L4164.12 1981.94L4159.12 1981.88ZM4062.27 1960.5L4063.6 1955.68L4062.27 1960.5ZM4075.67 1953.22L4070.9 1951.7L4075.67 1953.22ZM4047.91 1945.41L4043.06 1944.2L4047.91 1945.41ZM4055.67 1958.69L4054.35 1963.51L4055.67 1958.69ZM4068.92 1921.8L4069.7 1926.74L4068.92 1921.8ZM4081.13 1935.99L4085.89 1937.5L4081.13 1935.99ZM4014.49 1894.5L4017.7 1898.33L4014.49 1894.5ZM4015.44 1878.55L4019.09 1875.14L4015.44 1878.55ZM3978.13 1911.5L3981.76 1908.07L3978.13 1911.5ZM3993.19 1912.37L3989.98 1908.54L3993.19 1912.37ZM3907.45 1833.7L3904.54 1829.64L3907.45 1833.7ZM3907.55 1851.68L3904.7 1855.78L3907.55 1851.68ZM3919.3 1825.24L3922.21 1829.31L3919.3 1825.24ZM3933.47 1826.41L3929.94 1829.95L3933.47 1826.41ZM3869.23 1799.65L3872.62 1803.32L3869.23 1799.65ZM3869.95 1784.23L3873.67 1780.89L3869.95 1784.23ZM3414.87 905.429L3410.43 907.731L3414.87 905.429ZM3401.74 900.028L3403.32 904.77L3401.74 900.028ZM3839.25 1810.96L3843.23 1807.93L3839.25 1810.96ZM3855.47 1812.37L3852.08 1808.7L3855.47 1812.37ZM3849.72 1774.07L3847.41 1769.64L3849.72 1774.07ZM3863 1776.48L3859.27 1779.82L3863 1776.48ZM3773.22 1772.48L3777.16 1769.41L3773.22 1772.48ZM3786.35 1775.64L3788.53 1780.14L3786.35 1775.64ZM3764.86 1736.82L3763.59 1731.98L3764.86 1736.82ZM3758.98 1754.23L3755.03 1757.3L3758.98 1754.23ZM3785.08 1731.52L3786.35 1736.35L3785.08 1731.52ZM3798.47 1738.98L3803.24 1737.48L3798.47 1738.98ZM3694.25 1689.77L3692.25 1685.18L3694.25 1689.77ZM3691.41 1708.13L3694.7 1704.36L3691.41 1708.13ZM3708.75 1683.44L3706.75 1678.86L3708.75 1683.44ZM3724.09 1690.53L3719.35 1692.13L3724.09 1690.53ZM3657.99 1664.21L3655.1 1660.12L3657.99 1664.21ZM3661.22 1649.81L3656.87 1652.27L3661.22 1649.81ZM3633.7 1668.27L3637.7 1665.27L3633.7 1668.27ZM3648.85 1670.66L3645.96 1666.57L3648.85 1670.66ZM3630.92 1664.56L3626.92 1667.56L3630.92 1664.56ZM3647.58 1643.75L3646 1639L3647.58 1643.75ZM3660.63 1648.77L3656.28 1651.23L3660.63 1648.77ZM3939.04 1474.81L3935.24 1471.56L3939.04 1474.81ZM3937.14 1458.77L3940.08 1454.72L3937.14 1458.77ZM3961.57 1424.56L3958.41 1428.44L3961.57 1424.56ZM3975.96 1424.16L3972.58 1420.47L3975.96 1424.16ZM5587.4 2263.07L5583.72 2259.68L5587.4 2263.07ZM5586.16 2247.02L5583.05 2250.93L5586.16 2247.02ZM5544.52 2295.4L5541.6 2299.45L5544.52 2295.4ZM5559.05 2293.91L5555.36 2290.53L5559.05 2293.91ZM5837.15 2248.56L5839.78 2244.31L5837.15 2248.56ZM5852.95 2243.78L5848.4 2241.7L5852.95 2243.78ZM5693.51 2151.35L5697.75 2154.02L5693.51 2151.35ZM5696.79 2166.41L5694.04 2170.59L5696.79 2166.41ZM5696.07 2147.29L5691.84 2144.62L5696.07 2147.29ZM5711.35 2143.91L5714.07 2139.71L5711.35 2143.91ZM5679.99 2138.17L5675.61 2135.75L5679.99 2138.17ZM5676.58 2123.76L5679.4 2119.64L5676.58 2123.76ZM5662.35 2145.56L5659.59 2149.73L5659.59 2149.73L5662.35 2145.56ZM5678.03 2141.71L5682.4 2144.13L5678.03 2141.71ZM5632.76 2112.76L5628.6 2109.98L5632.76 2112.76ZM5635.84 2128.05L5633.09 2132.22L5635.84 2128.05ZM5635.28 2108.98L5631.13 2106.2L5631.13 2106.2L5635.28 2108.98ZM5650.64 2106.02L5647.82 2110.14L5650.64 2106.02ZM5894.85 2420.67L5892.1 2424.85L5894.85 2420.67ZM5908.43 2419.48L5905 2415.84L5908.43 2419.48ZM5558.22 2183.8L5561.81 2187.28L5558.22 2183.8ZM5560.08 2200.65L5562.82 2196.47L5560.08 2200.65ZM5601.72 2138.87L5598.13 2135.39L5601.72 2138.87ZM5615.6 2137.28L5612.88 2141.48L5615.6 2137.28ZM6087.59 2034.23L6087.92 2039.22L6087.59 2034.23ZM6098.45 2043.18L6093.51 2043.92L6098.45 2043.18ZM6064.79 2036L6065.19 2040.98L6064.79 2036ZM6054 2049.84L6058.92 2048.95L6054 2049.84ZM6223.14 1648.4L6219.63 1644.83L6223.14 1648.4ZM6236.07 1646.56L6233.7 1650.96L6236.07 1646.56ZM6118.11 1577.42L6120.52 1573.04L6120.52 1573.04L6118.11 1577.42ZM6120.28 1595.14L6123.68 1598.81L6120.28 1595.14ZM4804.31 2279.8L4807.67 2283.5L4804.31 2279.8ZM4790.77 2280.76L4787.97 2284.91L4790.77 2280.76ZM5710.86 1438.55L5708.37 1442.89L5710.86 1438.55ZM5712.78 1456.25L5716.14 1459.95L5712.78 1456.25ZM4644.1 1220.38L4647.84 1217.06L4644.1 1220.38ZM4641.33 1213.33L4646.33 1213.22L4641.33 1213.33ZM5059.81 1074.46L5056.62 1070.61L5059.81 1074.46ZM5072.3 1073.38L5074.78 1069.04L5072.3 1073.38ZM6070.74 1671.73L6074.38 1675.16L6070.74 1671.73ZM6085.84 1670.87L6089.06 1667.04L6085.84 1670.87ZM6268.9 3314.63L6271.51 3318.9L6268.9 3314.63ZM6274.05 3306.25L6279.03 3306.68L6274.05 3306.25ZM3900.47 1260.36L3896.93 1256.83L3900.47 1260.36ZM3898.04 1263.93L3902.11 1266.84L3898.04 1263.93ZM6725.79 1673.19L6728.16 1668.78L6725.79 1673.19ZM6728.2 1690.82L6724.74 1687.21L6728.2 1690.82ZM3913.16 1855.58L3916.02 1851.48L3913.16 1855.58ZM3926.44 1855.05L3929.62 1858.91L3926.44 1855.05ZM6798.14 3818.91L6794.82 3822.65L6798.14 3818.91ZM6805.39 3821.64L6805.38 3816.64L6805.39 3821.64ZM3696.66 1712.72L3693.37 1716.49L3696.66 1712.72ZM3709.69 1713.65L3712.47 1717.8L3709.69 1713.65ZM4851.64 369.43L4853.06 364.636L4851.64 369.43ZM5707.59 790.179L5705.33 794.642L5707.59 790.179ZM5701.7 789.227L5702.62 794.143L5701.7 789.227ZM3907.2 1496.59L3904.29 1500.66L3907.2 1496.59ZM3921.97 1494.79L3925.77 1498.04L3921.97 1494.79ZM5936.7 1027.22L5936.47 1022.23L5936.7 1027.22ZM5935.71 1026.26L5930.71 1026.18L5935.71 1026.26ZM5551.42 2232.66L5547.69 2229.34L5551.42 2232.66ZM5566.51 2231.36L5563.39 2235.27L5566.51 2231.36ZM6743.43 2243.04L6740.1 2239.31L6743.43 2243.04ZM5761.11 2188.39L5765.34 2191.06L5761.11 2188.39ZM5764.62 2203.6L5761.98 2207.85L5764.62 2203.6ZM6675.66 2172.15L6672.65 2168.16L6675.66 2172.15ZM6674.16 2173.51L6677.86 2176.88L6674.16 2173.51ZM4708.66 981.635L4713.08 979.31L4708.66 981.635ZM4171.52 1862.72L4168.72 1866.87L4171.52 1862.72ZM4170.4 1845.35L4167.1 1841.6L4170.4 1845.35ZM4421.01 3306.71L4423.82 3310.84L4421.01 3306.71ZM4417.85 3308.18L4416.5 3303.37L4416.5 3303.37L4417.85 3308.18ZM4060.38 1923.15L4059.6 1918.21L4060.38 1923.15ZM4051.42 1931.35L4046.57 1930.14L4051.42 1931.35ZM7040.56 1740.43L7044.64 1743.32L7040.56 1740.43ZM7039.5 1741.71L7043.08 1745.2L7039.5 1741.71ZM4393.19 1174.24L4393.25 1179.24L4393.19 1174.24ZM4399.84 1176.42L4402.78 1172.37L4399.84 1176.42ZM6880.97 3815.53L6885.41 3817.84L6880.97 3815.53ZM6871.25 3821.45L6871.23 3816.45L6871.25 3821.45ZM5762.26 2186.56L5758.03 2183.9L5762.26 2186.56ZM5777.17 2182.97L5779.72 2178.67L5777.17 2182.97ZM5854.55 2240.26L5859.1 2242.34L5854.55 2240.26ZM5850.16 2226.23L5847.61 2230.54L5850.16 2226.23ZM3969.68 1886.92L3973.2 1890.47L3969.68 1886.92ZM3969.42 1902.3L3973.06 1898.87L3969.42 1902.3ZM4471.08 1277.36L4475.93 1276.13L4471.08 1277.36ZM4472.25 1280.17L4467.99 1282.8L4472.25 1280.17ZM6886.25 3805.38L6881.82 3803.07L6886.25 3805.38ZM5737.39 2172.93L5733.01 2170.51L5737.39 2172.93ZM5733.73 2158.37L5731.01 2162.57L5733.73 2158.37ZM3989.49 1867.36L3985.97 1863.8L3989.49 1867.36ZM4005.25 1867.66L4008.9 1864.25L4005.25 1867.66ZM4446.16 1202.38L4444.51 1207.1L4446.16 1202.38ZM4454.17 1210.73L4459.02 1209.5L4454.17 1210.73ZM6842.12 3766.78L6844.09 3771.37L6842.12 3766.78ZM6854.01 3768.89L6850.58 3772.53L6854.01 3768.89ZM4399.54 1071.83L4401.48 1067.21L4399.54 1071.83ZM4394.03 1071.01L4393.48 1066.04L4394.03 1071.01ZM5719.3 2181.19L5716.56 2185.37L5716.56 2185.37L5719.3 2181.19ZM5734.97 2177.31L5739.35 2179.73L5734.97 2177.31ZM5795.14 2071.54L5798.94 2074.79L5795.14 2071.54ZM5809.31 2069.37L5811.96 2065.12L5809.31 2069.37ZM6101.47 2063.31L6106.41 2062.57L6101.47 2063.31ZM6091.74 2075.88L6091.22 2070.91L6091.74 2075.88ZM6069.5 2078.22L6070.02 2083.19L6069.5 2078.22ZM6057.52 2069.24L6052.6 2070.13L6057.52 2069.24ZM6507.49 1808.73L6503.86 1805.28L6507.49 1808.73ZM6504.74 1791.46L6507.11 1787.06L6504.74 1791.46ZM6040.48 2226.89L6044.63 2229.67L6040.48 2226.89ZM6037.16 2211.44L6039.8 2207.19L6037.16 2211.44ZM5988.08 1879.41L5984.57 1875.84L5988.08 1879.41ZM5989.84 1896.51L5992.54 1892.3L5989.84 1896.51ZM5784.98 2083.4L5781.18 2080.14L5784.98 2083.4ZM5787.47 2099.86L5784.8 2104.09L5787.47 2099.86ZM4651.48 559.986L4649.11 564.392L4651.48 559.986ZM4638.48 561.921L4634.93 558.395L4638.48 561.921ZM5522.85 2264.86L5519.11 2261.54L5522.85 2264.86ZM5524.65 2281.09L5527.57 2277.03L5524.65 2281.09ZM6839.04 2157.6L6842.38 2161.32L6839.04 2157.6ZM6842.76 2149.16L6837.76 2149.19L6842.76 2149.16ZM5956.7 2374.02L5960.13 2377.66L5956.7 2374.02ZM5955.13 2356.78L5952.41 2360.98L5955.13 2356.78ZM3936.65 1846.64L3933.47 1842.78L3936.65 1846.64ZM3937.43 1830.37L3933.9 1833.91L3937.43 1830.37ZM6251.53 2064.59L6254.24 2060.39L6251.53 2064.59ZM6265.45 2062.92L6261.82 2059.48L6265.45 2062.92ZM6016.14 2244.01L6013.47 2248.24L6013.47 2248.24L6016.14 2244.01ZM6031.15 2240.82L6035.3 2243.61L6031.15 2240.82ZM6640.01 2246.78L6642.03 2251.35L6640.01 2246.78ZM4553.98 1262.39L4549.53 1264.67L4553.98 1262.39ZM4552.77 1257.18L4557.77 1257.26L4552.77 1257.18ZM3830.03 1798.85L3826.05 1801.88L3830.03 1798.85ZM3829.95 1371.29L3830.98 1366.4L3829.95 1371.29ZM3820.42 1373.36L3817.54 1369.27L3820.42 1373.36ZM3709.49 1440.45C3709.84 1430.86 3712.26 1417.31 3717.99 1407.44C3720.83 1402.56 3724.3 1398.89 3728.42 1396.85C3732.42 1394.86 3737.55 1394.17 3744.3 1396.1L3747.05 1386.48C3738.22 1383.96 3730.49 1384.66 3723.97 1387.89C3717.56 1391.06 3712.82 1396.44 3709.35 1402.41C3702.47 1414.25 3699.88 1429.63 3699.49 1440.08L3709.49 1440.45ZM3828.93 1376.19C3838.66 1378.23 3852.24 1380.51 3865.6 1381.56C3878.75 1382.59 3892.45 1382.51 3901.99 1379.33L3898.83 1369.85C3891.35 1372.34 3879.42 1372.62 3866.39 1371.59C3853.56 1370.58 3840.42 1368.38 3830.98 1366.4L3828.93 1376.19ZM3901.99 1379.33C3908.97 1377.01 3914.67 1372.29 3919.43 1367.1C3924.19 1361.92 3928.35 1355.88 3932.05 1350.61C3935.89 1345.13 3939.13 1340.65 3942.3 1337.73C3945.41 1334.87 3947.45 1334.42 3949.21 1334.89L3951.79 1325.23C3945.21 1323.48 3939.73 1326.51 3935.53 1330.37C3931.4 1334.16 3927.54 1339.62 3923.87 1344.86C3920.05 1350.3 3916.29 1355.74 3912.07 1360.34C3907.86 1364.92 3903.53 1368.28 3898.83 1369.85L3901.99 1379.33ZM3949.21 1334.89C3954.08 1336.19 3961.62 1336.66 3969.99 1336.63C3978.5 1336.59 3988.37 1336.03 3998.17 1335.04C4007.97 1334.05 4017.78 1332.64 4026.19 1330.89C4034.42 1329.18 4041.85 1327.04 4046.49 1324.39L4041.53 1315.7C4038.37 1317.51 4032.3 1319.4 4024.15 1321.1C4016.17 1322.76 4006.72 1324.13 3997.17 1325.09C3987.63 1326.05 3978.09 1326.6 3969.94 1326.63C3961.65 1326.66 3955.27 1326.16 3951.79 1325.23L3949.21 1334.89ZM4046.49 1324.39C4059.11 1317.17 4129.94 1271.49 4163.61 1249.66L4158.17 1241.27C4124.3 1263.23 4053.83 1308.67 4041.53 1315.7L4046.49 1324.39ZM4300.37 1190.14C4327.37 1181.96 4371.21 1179.49 4393.25 1179.24L4393.13 1169.24C4371.04 1169.49 4325.95 1171.94 4297.47 1180.57L4300.37 1190.14ZM4396.91 1180.47C4407.63 1188.24 4427.58 1201.17 4444.51 1207.1L4447.82 1197.66C4432.31 1192.23 4413.32 1180.02 4402.78 1172.37L4396.91 1180.47ZM4449.33 1211.96L4466.24 1278.59L4475.93 1276.13L4459.02 1209.5L4449.33 1211.96ZM4467.99 1282.8C4474.78 1293.76 4487.91 1307.48 4506.44 1314.44C4525.21 1321.5 4549.02 1321.41 4576.39 1305.44L4571.35 1296.8C4546.42 1311.35 4525.75 1311.01 4509.95 1305.08C4493.91 1299.05 4482.38 1287.04 4476.5 1277.54L4467.99 1282.8ZM4578.32 1298.84L4558.43 1260.1L4549.53 1264.67L4569.42 1303.41L4578.32 1298.84ZM4557.77 1257.26L4558.83 1194.34L4548.84 1194.17L4547.77 1257.09L4557.77 1257.26ZM4558.81 1194.78C4560.33 1180.28 4560.19 1158.21 4554.63 1139.1C4549.1 1120.1 4537.58 1102.3 4515.34 1100.23L4514.41 1110.18C4530.46 1111.68 4539.91 1124.3 4545.03 1141.89C4550.11 1159.36 4550.3 1180.03 4548.86 1193.74L4558.81 1194.78ZM4515.34 1100.23C4479.25 1096.87 4426.21 1077.58 4401.48 1067.21L4397.61 1076.44C4422.41 1086.83 4476.68 1106.67 4514.41 1110.18L4515.34 1100.23ZM4393.48 1066.04C4368.14 1068.84 4330.09 1072.51 4295.56 1074.71C4278.29 1075.82 4261.96 1076.55 4248.57 1076.63C4234.96 1076.71 4225 1076.1 4220.07 1074.77L4217.47 1084.43C4223.9 1086.16 4235.19 1086.71 4248.63 1086.63C4262.3 1086.55 4278.84 1085.8 4296.2 1084.69C4330.92 1082.47 4369.14 1078.79 4394.58 1075.98L4393.48 1066.04ZM4220.07 1074.77C4211.3 1072.41 4204.18 1074.23 4198.05 1078.71C4192.32 1082.9 4187.5 1089.39 4182.72 1096.02C4172.89 1109.64 4161.85 1125.85 4140.84 1136.35L4145.31 1145.3C4168.83 1133.54 4181.17 1115.24 4190.82 1101.87C4195.78 1095 4199.72 1089.87 4203.95 1086.79C4207.76 1084 4211.78 1082.9 4217.47 1084.43L4220.07 1074.77ZM4140.84 1136.35C4129.38 1142.09 4115.28 1151.24 4099.96 1161.61C4084.52 1172.06 4067.81 1183.77 4050.73 1194.94C4033.68 1206.1 4016.49 1216.58 4000.32 1224.46C3984.07 1232.38 3969.25 1237.47 3956.87 1238.25L3957.49 1248.23C3971.83 1247.33 3988.04 1241.57 4004.7 1233.45C4021.43 1225.3 4039.03 1214.55 4056.21 1203.31C4073.36 1192.09 4090.32 1180.21 4105.56 1169.89C4120.93 1159.49 4134.52 1150.7 4145.31 1145.3L4140.84 1136.35ZM3956.39 1238.3C3937.25 1241.36 3923.79 1244.69 3914.51 1247.83C3905.42 1250.9 3899.79 1253.96 3896.93 1256.83L3904.01 1263.89C3905.16 1262.74 3908.92 1260.27 3917.71 1257.3C3926.3 1254.4 3939.18 1251.18 3957.97 1248.17L3956.39 1238.3ZM3893.97 1261.03C3885.96 1272.27 3872.98 1288.53 3858.97 1302.36C3851.97 1309.28 3844.79 1315.49 3837.93 1320.16C3830.99 1324.87 3824.76 1327.73 3819.58 1328.45L3820.95 1338.36C3828.35 1337.33 3836.09 1333.5 3843.55 1328.43C3851.09 1323.31 3858.74 1316.65 3866 1309.48C3880.52 1295.15 3893.86 1278.41 3902.11 1266.84L3893.97 1261.03ZM4570.2 1304.52C4576.39 1311.19 4587.21 1320.41 4599.9 1326.6C4612.51 1332.76 4627.86 1336.33 4642.33 1330.1L4638.37 1320.91C4627.75 1325.49 4615.71 1323.19 4604.28 1317.61C4592.93 1312.07 4583.06 1303.69 4577.54 1297.72L4570.2 1304.52ZM4642.33 1330.1C4658.05 1323.32 4671.08 1316.31 4679.48 1306.19C4688.15 1295.73 4691.39 1282.6 4689.1 1264.85L4679.18 1266.13C4681.22 1281.89 4678.25 1292.01 4671.78 1299.8C4665.04 1307.93 4654 1314.17 4638.37 1320.91L4642.33 1330.1ZM4687.88 1262.17L4647.84 1217.06L4640.36 1223.7L4680.4 1268.8L4687.88 1262.17ZM4646.33 1213.22L4644.26 1125.33L4634.27 1125.56L4636.33 1213.45L4646.33 1213.22ZM4681.93 1269.97C4689.24 1273.58 4701.38 1277.48 4714.49 1277.69C4727.68 1277.9 4742.31 1274.35 4753.72 1262.46L4746.5 1255.54C4737.58 1264.84 4725.98 1267.87 4714.65 1267.69C4703.24 1267.51 4692.56 1264.06 4686.36 1261L4681.93 1269.97ZM4221.91 821.585L4220.28 730.465L4210.29 730.643L4211.91 821.764L4221.91 821.585ZM4284.64 790.399C4277.7 803.429 4268.16 823.474 4262.16 841.252C4259.18 850.092 4256.96 858.703 4256.5 865.735C4256.27 869.243 4256.45 872.704 4257.43 875.72C4258.44 878.84 4260.4 881.714 4263.74 883.318L4268.07 874.303C4267.8 874.171 4267.34 873.86 4266.94 872.634C4266.51 871.305 4266.29 869.259 4266.48 866.389C4266.85 860.664 4268.75 853.03 4271.64 844.447C4277.4 827.379 4286.66 807.865 4293.46 795.101L4284.64 790.399ZM4263.74 883.318C4271.4 886.992 4284.09 891.414 4297.64 892.628C4311.13 893.837 4326.3 891.92 4337.89 881.863L4331.34 874.311C4322.66 881.842 4310.71 883.759 4298.53 882.668C4286.41 881.582 4274.88 877.571 4268.07 874.303L4263.74 883.318ZM4216.84 826.674C4228.48 826.833 4248.9 824.684 4266.55 816.865L4262.5 807.722C4246.54 814.79 4227.66 816.821 4216.98 816.675L4216.84 826.674ZM4266.55 816.865C4277.04 812.216 4286.96 805.383 4293.27 795.428L4284.83 790.072C4279.94 797.778 4271.93 803.541 4262.5 807.722L4266.55 816.865ZM4269.38 813.49C4273.45 796.985 4278.71 770.549 4281.31 744.737C4282.61 731.832 4283.26 718.972 4282.72 707.531C4282.19 696.201 4280.49 685.77 4276.77 678.036L4267.76 682.371C4270.6 688.283 4272.22 697.104 4272.73 707.997C4273.24 718.778 4272.63 731.112 4271.36 743.735C4268.82 768.981 4263.65 794.943 4259.67 811.096L4269.38 813.49ZM4337.78 881.952C4347.53 873.952 4362.31 858.697 4374.02 839.519L4365.48 834.308C4354.41 852.437 4340.41 866.861 4331.44 874.222L4337.78 881.952ZM4374.02 839.519C4384.18 822.887 4392.26 802.925 4392.38 781.943L4382.38 781.882C4382.27 800.4 4375.1 818.562 4365.48 834.308L4374.02 839.519ZM4364.75 836.879L4364.29 903.318L4374.29 903.387L4374.75 836.948L4364.75 836.879ZM4509.81 912.517C4485.49 903.915 4457.24 900.561 4435.27 899.324C4424.25 898.704 4414.72 898.612 4407.94 898.676C4404.55 898.708 4401.85 898.779 4399.98 898.842C4399.05 898.874 4398.33 898.904 4397.83 898.926C4397.58 898.937 4397.4 898.946 4397.27 898.952C4397.2 898.956 4397.15 898.958 4397.12 898.96C4397.1 898.961 4397.09 898.962 4397.08 898.962C4397.07 898.962 4397.07 898.963 4397.06 898.963C4397.06 898.963 4397.06 898.963 4397.06 898.963C4397.06 898.963 4397.06 898.963 4397.33 903.956C4397.6 908.948 4397.6 908.948 4397.6 908.948C4397.6 908.948 4397.6 908.948 4397.6 908.948C4397.6 908.948 4397.61 908.948 4397.61 908.948C4397.61 908.948 4397.62 908.947 4397.64 908.946C4397.66 908.945 4397.71 908.943 4397.76 908.94C4397.88 908.934 4398.05 908.926 4398.28 908.916C4398.74 908.895 4399.42 908.867 4400.32 908.837C4402.11 908.776 4404.74 908.707 4408.04 908.676C4414.64 908.614 4423.95 908.703 4434.71 909.309C4456.32 910.525 4483.47 913.808 4506.48 921.944L4509.81 912.517ZM4397.44 898.957L4369.4 898.354L4369.19 908.352L4397.22 908.955L4397.44 898.957ZM4511.97 914.007C4498.41 897.933 4481.05 877.355 4467.08 860.794C4460.1 852.514 4453.96 845.238 4449.57 840.032C4447.37 837.429 4445.61 835.344 4444.4 833.909C4443.8 833.192 4443.33 832.637 4443.01 832.262C4442.86 832.074 4442.74 831.932 4442.65 831.836C4442.61 831.788 4442.58 831.752 4442.56 831.727C4442.55 831.715 4442.54 831.706 4442.54 831.7C4442.54 831.697 4442.53 831.694 4442.53 831.693C4442.53 831.692 4442.53 831.692 4442.53 831.691C4442.53 831.691 4442.53 831.691 4438.71 834.915C4434.89 838.139 4434.89 838.139 4434.89 838.139C4434.89 838.14 4434.89 838.14 4434.89 838.141C4434.89 838.143 4434.89 838.145 4434.9 838.148C4434.9 838.154 4434.91 838.163 4434.92 838.175C4434.94 838.199 4434.97 838.235 4435.01 838.283C4435.09 838.379 4435.21 838.522 4435.37 838.71C4435.69 839.085 4436.15 839.64 4436.76 840.357C4437.97 841.792 4439.73 843.877 4441.92 846.48C4446.32 851.686 4452.45 858.961 4459.44 867.242C4473.41 883.802 4490.77 904.381 4504.32 920.454L4511.97 914.007ZM4442.3 831.436L4390.98 778.434L4383.79 785.391L4435.12 838.393L4442.3 831.436ZM4402.2 902.835C4400 893.267 4399.44 877.003 4404.47 863.419C4406.96 856.705 4410.72 850.87 4416.11 846.72C4421.44 842.612 4428.7 839.887 4438.7 839.915L4438.72 829.915C4426.77 829.881 4417.29 833.187 4410 838.8C4402.77 844.373 4398.05 851.952 4395.09 859.945C4389.23 875.774 4389.93 894.092 4392.46 905.077L4402.2 902.835ZM4753.72 1262.46C4772.08 1243.31 4780.54 1215.29 4779.01 1193.39L4769.03 1194.09C4770.38 1213.36 4762.79 1238.56 4746.5 1255.54L4753.72 1262.46ZM4779.01 1193.39C4778.29 1183.16 4775.35 1173.65 4769.55 1167.03L4762.03 1173.62C4765.87 1178.01 4768.4 1185.1 4769.03 1194.09L4779.01 1193.39ZM4390.98 778.434L4277.17 660.916L4269.99 667.873L4383.79 785.391L4390.98 778.434ZM4344.93 592.922L4270.22 660.691L4276.94 668.098L4351.65 600.329L4344.93 592.922ZM4789.63 1047.16C4797.58 1042.05 4808.75 1032.46 4816.75 1020.04C4824.77 1007.57 4829.92 991.695 4824.52 974.583L4814.98 977.594C4819.19 990.913 4815.39 1003.67 4808.34 1014.62C4801.26 1025.62 4791.22 1034.25 4784.22 1038.75L4789.63 1047.16ZM4358.5 599.886L4351.85 593.121L4344.72 600.13L4351.37 606.895L4358.5 599.886ZM4565.23 810.239L4358.5 599.886L4351.37 606.895L4558.1 817.249L4565.23 810.239ZM4568.18 723.343C4563.92 734.186 4558.26 751.667 4555.05 769.051C4553.45 777.744 4552.44 786.555 4552.57 794.577C4552.7 802.514 4553.95 810.162 4557.29 816.175L4566.03 811.313C4563.84 807.376 4562.68 801.633 4562.57 794.414C4562.45 787.281 4563.36 779.174 4564.89 770.864C4567.95 754.244 4573.41 737.388 4577.49 726.998L4568.18 723.343ZM4790.49 1039.45L4669.42 916.253L4662.28 923.262L4783.36 1046.46L4790.49 1039.45ZM4669.42 916.253L4565.23 810.239L4558.1 817.249L4662.28 923.262L4669.42 916.253ZM4678.28 813.469C4673.83 825.047 4667.66 844.169 4663.5 864.12C4659.39 883.866 4657.07 905.271 4661 920.971L4670.7 918.544C4667.36 905.196 4669.22 885.716 4673.29 866.158C4677.32 846.806 4683.33 828.203 4687.61 817.053L4678.28 813.469ZM4769.55 1167.03C4758.78 1154.73 4729.72 1125.14 4711.77 1107.09L4704.68 1114.14C4722.72 1132.29 4751.52 1161.61 4762.03 1173.62L4769.55 1167.03ZM4711.77 1107.09C4709.67 1104.98 4709.35 1101.52 4711.18 1098.87L4702.94 1093.2C4698.53 1099.61 4699.01 1108.44 4704.68 1114.14L4711.77 1107.09ZM4711.18 1098.87C4716.99 1090.42 4723.8 1079.37 4728.86 1068.45C4731.39 1062.99 4733.54 1057.45 4734.89 1052.21C4736.22 1047.03 4736.87 1041.8 4736.08 1037.1L4726.22 1038.74C4726.68 1041.51 4726.37 1045.2 4725.2 1049.72C4724.05 1054.18 4722.16 1059.12 4719.79 1064.24C4715.04 1074.49 4708.56 1085.03 4702.94 1093.2L4711.18 1098.87ZM4736.08 1037.1C4734.66 1028.56 4730.73 1017.64 4726.36 1007.3C4721.96 996.872 4716.94 986.655 4713.12 979.379L4704.27 984.026C4707.99 991.118 4712.88 1001.08 4717.15 1011.2C4721.47 1021.41 4725 1031.42 4726.22 1038.74L4736.08 1037.1ZM4713.12 979.379C4711.01 975.366 4707.35 972.523 4702.98 971.437L4700.57 981.142C4702.2 981.547 4703.5 982.568 4704.27 984.026L4713.12 979.379ZM4702.98 971.437C4690.1 968.237 4652.1 958.66 4612.17 947.305C4572.05 935.898 4530.57 922.855 4510.38 912.758L4505.91 921.703C4527.1 932.296 4569.53 945.576 4609.43 956.924C4649.52 968.323 4687.65 977.931 4700.57 981.142L4702.98 971.437ZM4369.42 898.354L4229.04 894.652L4228.77 904.649L4369.16 908.351L4369.42 898.354ZM4229.04 894.652C4225.83 894.567 4223.26 891.976 4223.2 888.769L4213.2 888.96C4213.36 897.512 4220.22 904.423 4228.77 904.649L4229.04 894.652ZM4223.2 888.769L4221.91 821.579L4211.91 821.77L4213.2 888.96L4223.2 888.769ZM3920.95 265.678C3918.67 263.148 3918.95 259.231 3921.57 257.052L3915.16 249.369C3908.19 255.182 3907.44 265.628 3913.52 272.373L3920.95 265.678ZM3921.57 257.052L3964.21 221.518L3957.8 213.835L3915.16 249.369L3921.57 257.052ZM3964.21 221.518C3966.6 219.52 3970.13 219.693 3972.32 221.917L3979.45 214.901C3973.61 208.971 3964.2 208.507 3957.8 213.835L3964.21 221.518ZM4641.46 666.305C4642.58 666.829 4645.08 668.717 4649.04 672.485C4652.82 676.078 4657.49 680.938 4662.86 686.812C4673.58 698.551 4686.89 714.129 4701.07 731.236C4729.43 765.438 4761.13 805.573 4782.29 832.909L4790.2 826.787C4768.99 799.398 4737.22 759.17 4708.77 724.853C4694.55 707.701 4681.12 691.981 4670.24 680.068C4664.8 674.116 4659.95 669.061 4655.93 665.237C4652.09 661.588 4648.5 658.555 4645.69 657.243L4641.46 666.305ZM4782.29 832.909C4783.05 833.888 4783.46 835.035 4783.51 836.305L4793.5 835.967C4793.39 832.631 4792.26 829.452 4790.2 826.787L4782.29 832.909ZM4783.36 1046.46L4907.27 1172.54L4914.4 1165.53L4790.49 1039.45L4783.36 1046.46ZM4907.27 1172.54C4907.78 1173.06 4908.19 1173.68 4908.49 1174.35L4917.65 1170.35C4916.87 1168.56 4915.77 1166.93 4914.4 1165.53L4907.27 1172.54ZM4966.75 1307.94C4968.97 1313.05 4963.63 1318.18 4958.62 1315.73L4954.24 1324.72C4967.61 1331.24 4981.86 1317.58 4975.91 1303.94L4966.75 1307.94ZM4958.62 1315.73L4844.02 1259.9L4839.64 1268.89L4954.24 1324.72L4958.62 1315.73ZM4844.02 1259.9C4843.37 1259.59 4842.79 1259.16 4842.29 1258.63L4835.03 1265.51C4836.35 1266.9 4837.91 1268.05 4839.64 1268.89L4844.02 1259.9ZM4583.56 1057.34L4580.21 984.117L4570.22 984.574L4573.57 1057.8L4583.56 1057.34ZM4580.21 984.117C4580.08 981.351 4581.77 979.153 4583.99 978.595L4581.54 968.899C4574.26 970.737 4569.9 977.558 4570.22 984.574L4580.21 984.117ZM4583.99 978.595C4613.77 971.079 4646.61 977.558 4676 992.554L4680.54 983.647C4649.67 967.895 4614.31 960.627 4581.54 968.899L4583.99 978.595ZM4675.55 992.294C4693.72 1004.09 4698.51 1019.4 4697.3 1034.18C4696.05 1049.38 4688.38 1064.23 4681.18 1073.83L4689.18 1079.83C4697.07 1069.31 4705.81 1052.69 4707.26 1035C4708.75 1016.9 4702.54 997.897 4681 983.907L4675.55 992.294ZM4681.18 1073.83C4680.69 1074.49 4680.06 1074.98 4679.35 1075.27L4683.17 1084.51C4685.58 1083.51 4687.65 1081.88 4689.18 1079.83L4681.18 1073.83ZM4679.35 1075.27C4664.49 1081.42 4646.82 1081.1 4629.79 1077.61C4612.83 1074.13 4597.04 1067.61 4586.35 1061.97L4581.69 1070.82C4593.03 1076.8 4609.71 1083.7 4627.78 1087.41C4645.79 1091.1 4665.72 1091.73 4683.17 1084.51L4679.35 1075.27ZM4586.35 1061.97C4584.76 1061.13 4583.66 1059.41 4583.56 1057.34L4573.57 1057.8C4573.82 1063.14 4576.72 1068.2 4581.69 1070.82L4586.35 1061.97ZM4824.52 974.583C4817.37 951.952 4808.06 941.574 4801.65 934.457L4794.22 941.152C4800.16 947.741 4808.44 956.878 4814.98 977.594L4824.52 974.583ZM4801.65 934.457C4796.7 928.97 4795.21 926.969 4795.38 923.619L4785.39 923.119C4784.98 931.253 4789.84 936.29 4794.22 941.152L4801.65 934.457ZM4713.12 979.379C4713.11 979.356 4713.1 979.333 4713.08 979.31L4704.23 983.96C4704.24 983.982 4704.25 984.004 4704.27 984.026L4713.12 979.379ZM4511.97 914.007L4442.53 831.691L4434.89 838.139L4504.32 920.454L4511.97 914.007ZM4277.29 661.047L4210.74 587.201L4203.31 593.896L4269.87 667.742L4277.29 661.047ZM4210.74 587.201L3920.95 265.678L3913.52 272.373L4203.31 593.896L4210.74 587.201ZM4206.02 585.651C4193.98 588.128 4174.83 593.072 4156.3 599.901C4138.02 606.64 4119.4 615.541 4109.27 626.299L4116.55 633.152C4124.93 624.255 4141.53 616.003 4159.76 609.284C4177.75 602.656 4196.4 597.839 4208.03 595.446L4206.02 585.651ZM4109.27 626.299C4103.76 632.153 4089.41 644.489 4070.5 659.927C4051.72 675.269 4028.72 693.441 4006.16 710.853C3983.61 728.268 3961.52 744.898 3944.55 757.163C3936.06 763.301 3928.9 768.313 3923.61 771.776C3920.96 773.513 3918.85 774.815 3917.32 775.665C3916.55 776.093 3916.01 776.36 3915.67 776.505C3915.11 776.743 3915.52 776.47 3916.37 776.47L3916.37 786.47C3917.75 786.47 3919.01 785.949 3919.59 785.705C3920.38 785.367 3921.26 784.917 3922.18 784.408C3924.02 783.383 3926.37 781.928 3929.09 780.14C3934.57 776.552 3941.88 771.436 3950.41 765.267C3967.5 752.919 3989.67 736.22 4012.28 718.769C4034.88 701.316 4057.95 683.087 4076.83 667.673C4095.59 652.357 4110.5 639.582 4116.55 633.152L4109.27 626.299ZM3916.37 776.47C3915.16 776.47 3913.88 776.746 3912.81 777.03C3911.65 777.339 3910.33 777.77 3908.91 778.283C3906.08 779.313 3902.59 780.767 3898.7 782.506C3890.9 785.991 3881.24 790.734 3871.43 795.819C3852.01 805.891 3831.32 817.67 3823.64 823.812L3829.89 831.621C3836.66 826.202 3856.44 814.858 3876.04 804.697C3885.74 799.665 3895.22 795.015 3902.78 791.635C3906.57 789.942 3909.81 788.596 3912.33 787.684C3913.59 787.226 3914.6 786.901 3915.37 786.695C3916.24 786.466 3916.49 786.47 3916.37 786.47L3916.37 776.47ZM3823.64 823.812C3823.08 824.264 3821.55 825.251 3818.84 826.82C3816.23 828.327 3812.79 830.227 3808.61 832.469C3800.24 836.95 3789.03 842.738 3775.89 849.381C3749.62 862.662 3715.74 879.312 3681.71 895.649C3647.67 911.988 3613.53 928 3586.74 940.011C3573.33 946.019 3561.81 951.008 3553.08 954.533C3548.7 956.297 3545.08 957.674 3542.29 958.624C3539.32 959.64 3537.79 959.99 3537.34 960.024L3538.11 969.995C3540.01 969.849 3542.68 969.058 3545.52 968.089C3548.56 967.054 3552.37 965.601 3556.82 963.806C3565.72 960.212 3577.38 955.164 3590.83 949.136C3617.73 937.076 3651.96 921.022 3686.04 904.664C3720.11 888.304 3754.06 871.624 3780.4 858.305C3793.57 851.647 3804.86 845.818 3813.33 841.283C3817.56 839.018 3821.11 837.06 3823.85 835.476C3826.48 833.953 3828.65 832.614 3829.89 831.621L3823.64 823.812ZM3537.34 960.024C3522.15 961.193 3472.96 967.284 3450.38 970.166L3451.65 980.086C3474.36 977.187 3523.24 971.139 3538.11 969.995L3537.34 960.024ZM3455.46 972.824L3419.31 903.127L3410.43 907.731L3446.58 977.428L3455.46 972.824ZM3400.15 895.286C3276.16 936.768 3116.58 993.36 2963.49 1038.27C2810.2 1083.23 2664.31 1116.19 2567.61 1110.83L2567.06 1120.82C2665.71 1126.28 2813.15 1092.78 2966.3 1047.86C3119.64 1002.89 3279.58 946.171 3403.32 904.77L3400.15 895.286ZM3446.44 977.142C3478.44 1049.76 3529.53 1160.19 3578.8 1255.48C3603.43 1303.11 3627.66 1347.05 3648.85 1380.61C3659.44 1397.39 3669.33 1411.67 3678.19 1422.55C3686.9 1433.25 3695.07 1441.27 3702.31 1444.77L3706.66 1435.76C3701.58 1433.31 3694.59 1426.86 3685.94 1416.24C3677.44 1405.79 3667.79 1391.89 3657.3 1375.27C3636.34 1342.07 3612.27 1298.42 3587.69 1250.88C3538.54 1155.84 3487.54 1045.61 3455.59 973.11L3446.44 977.142ZM2997.25 1858.56C2977.99 1875.16 2946.19 1895.27 2917.58 1912.2C2903.32 1920.64 2889.94 1928.23 2879.44 1934.15C2869.05 1940.01 2861.25 1944.34 2858.41 1946.11L2863.71 1954.59C2866.29 1952.98 2873.72 1948.85 2884.35 1942.86C2894.88 1936.93 2908.32 1929.3 2922.67 1920.81C2951.26 1903.89 2983.77 1883.39 3003.77 1866.14L2997.25 1858.56ZM2858.41 1946.11C2849.89 1951.44 2656.58 2059.19 2560.77 2112.51L2565.63 2121.25C2661.18 2068.07 2854.9 1960.1 2863.71 1954.59L2858.41 1946.11ZM3972.32 221.917L4329.02 584.182L4336.14 577.166L3979.45 214.901L3972.32 221.917ZM4329.02 584.182L4344.72 600.134L4351.85 593.118L4336.14 577.166L4329.02 584.182ZM4332.58 580.674C4335.71 584.57 4335.72 584.569 4335.72 584.568C4335.72 584.567 4335.72 584.566 4335.72 584.564C4335.73 584.56 4335.73 584.554 4335.74 584.546C4335.76 584.53 4335.79 584.507 4335.83 584.475C4335.91 584.412 4336.03 584.317 4336.18 584.193C4336.49 583.943 4336.96 583.571 4337.56 583.085C4338.78 582.111 4340.56 580.678 4342.86 578.839C4347.45 575.16 4354.09 569.857 4362.24 563.361C4378.56 550.37 4400.97 532.611 4425.36 513.539C4474.19 475.346 4530.73 432.047 4562.15 411.14L4556.6 402.815C4524.81 423.974 4467.96 467.524 4419.19 505.662C4394.78 524.757 4372.35 542.534 4356.01 555.538C4347.85 562.04 4341.21 567.349 4336.61 571.033C4334.31 572.876 4332.52 574.311 4331.3 575.287C4330.7 575.775 4330.23 576.147 4329.92 576.398C4329.76 576.524 4329.64 576.619 4329.57 576.682C4329.53 576.714 4329.5 576.738 4329.48 576.754C4329.47 576.762 4329.46 576.768 4329.45 576.773C4329.45 576.775 4329.45 576.776 4329.45 576.777C4329.45 576.778 4329.45 576.779 4332.58 580.674ZM4562.15 411.14C4574.69 402.794 4598.63 395.453 4625.5 393.248C4652.29 391.048 4680.98 394.045 4703.06 405.393L4707.63 396.499C4683.28 383.982 4652.51 380.997 4624.68 383.281C4596.93 385.559 4571.1 393.167 4556.6 402.815L4562.15 411.14ZM7015.81 1603.39C7028.26 1612.75 7045.19 1629.9 7053.11 1652.78C7060.91 1675.34 7060.2 1704.06 7036.48 1737.54L7044.64 1743.32C7070.13 1707.34 7071.47 1675.26 7062.56 1649.51C7053.76 1624.1 7035.21 1605.46 7021.82 1595.4L7015.81 1603.39ZM7035.91 1738.23C7000.57 1774.54 6963.07 1810.82 6934.4 1838.04C6920.06 1851.64 6907.94 1862.97 6899.4 1870.9C6895.13 1874.87 6891.76 1877.98 6889.46 1880.1C6888.31 1881.16 6887.42 1881.98 6886.82 1882.52C6886.53 1882.8 6886.3 1883 6886.15 1883.14C6886.07 1883.21 6886.02 1883.26 6885.98 1883.3C6885.96 1883.32 6885.95 1883.33 6885.94 1883.34C6885.93 1883.34 6885.93 1883.35 6885.93 1883.35C6885.92 1883.35 6885.92 1883.35 6885.92 1883.35C6885.92 1883.35 6885.92 1883.35 6889.3 1887.04C6892.67 1890.73 6892.67 1890.73 6892.67 1890.73C6892.67 1890.73 6892.67 1890.73 6892.67 1890.73C6892.68 1890.72 6892.68 1890.72 6892.69 1890.72C6892.7 1890.71 6892.71 1890.69 6892.73 1890.68C6892.77 1890.64 6892.83 1890.59 6892.9 1890.52C6893.06 1890.38 6893.28 1890.17 6893.59 1889.89C6894.19 1889.34 6895.08 1888.52 6896.23 1887.46C6898.55 1885.33 6901.93 1882.2 6906.21 1878.23C6914.77 1870.28 6926.92 1858.92 6941.28 1845.29C6970 1818.03 7007.6 1781.65 7043.08 1745.2L7035.91 1738.23ZM6892.78 1883.45C6887.32 1878.15 6877.65 1870.97 6865.98 1866.25C6854.31 1861.53 6840.12 1859.08 6826.08 1864.14L6829.48 1873.55C6840.4 1869.61 6851.91 1871.34 6862.23 1875.52C6872.56 1879.69 6881.16 1886.11 6885.81 1890.63L6892.78 1883.45ZM6826.08 1864.14C6809.58 1870.1 6794.69 1881.69 6782.01 1892.3C6775.55 1897.72 6769.79 1902.78 6764.36 1907.09C6758.93 1911.41 6754.33 1914.56 6750.44 1916.23L6754.38 1925.43C6759.58 1923.2 6765.05 1919.32 6770.59 1914.92C6776.13 1910.51 6782.23 1905.17 6788.43 1899.97C6801.1 1889.36 6814.8 1878.85 6829.48 1873.55L6826.08 1864.14ZM6750.44 1916.23C6746.69 1917.84 6741.48 1918.72 6734.85 1919.2C6728.26 1919.68 6720.91 1919.73 6712.85 1919.95C6697.08 1920.38 6679.02 1921.44 6663.7 1928.41L6667.84 1937.51C6681.1 1931.48 6697.27 1930.38 6713.12 1929.94C6720.88 1929.73 6728.68 1929.67 6735.58 1929.17C6742.44 1928.68 6749.03 1927.72 6754.38 1925.43L6750.44 1916.23ZM6663.7 1928.41C6656.22 1931.81 6633.87 1944.78 6604.79 1962.29C6575.55 1979.89 6539.13 2002.3 6503.26 2024.78C6467.4 2047.26 6432.06 2069.84 6404.96 2087.78C6391.42 2096.75 6379.9 2104.58 6371.39 2110.68C6367.15 2113.73 6363.61 2116.37 6360.92 2118.52C6358.42 2120.53 6356.18 2122.49 6355.01 2124.1L6363.12 2129.96C6363.12 2129.96 6363.14 2129.93 6363.19 2129.87C6363.24 2129.81 6363.31 2129.73 6363.41 2129.63C6363.61 2129.41 6363.89 2129.14 6364.25 2128.81C6364.97 2128.15 6365.94 2127.32 6367.18 2126.32C6369.66 2124.33 6373.04 2121.81 6377.22 2118.81C6385.58 2112.82 6396.98 2105.06 6410.48 2096.12C6437.48 2078.24 6472.75 2055.72 6508.58 2033.25C6544.4 2010.8 6580.76 1988.42 6609.95 1970.86C6639.29 1953.19 6661.02 1940.61 6667.84 1937.51L6663.7 1928.41ZM6355.01 2124.1C6349.43 2131.83 6279.17 2221.97 6210.08 2312.43C6175.58 2357.6 6141.42 2402.79 6115.87 2437.68C6103.1 2455.12 6092.45 2470.02 6084.99 2481.08C6081.26 2486.59 6078.28 2491.22 6076.21 2494.75C6075.19 2496.51 6074.33 2498.08 6073.73 2499.41C6073.42 2500.07 6073.14 2500.74 6072.93 2501.4C6072.74 2501.98 6072.49 2502.89 6072.49 2503.91L6082.49 2503.91C6082.49 2504.44 6082.37 2504.7 6082.45 2504.47C6082.49 2504.32 6082.6 2504.04 6082.81 2503.59C6083.22 2502.69 6083.89 2501.43 6084.85 2499.8C6086.75 2496.55 6089.59 2492.13 6093.27 2486.67C6100.63 2475.78 6111.19 2461 6123.94 2443.59C6149.42 2408.78 6183.54 2363.66 6218.03 2318.5C6286.91 2228.32 6357.44 2137.82 6363.12 2129.96L6355.01 2124.1ZM6072.49 2503.91C6072.49 2506.28 6072.88 2509.31 6073.38 2512.6C6073.9 2515.93 6074.6 2519.91 6075.32 2524.17C6076.78 2532.78 6078.37 2542.98 6079 2553.69C6080.28 2575.34 6077.58 2597.81 6063.42 2613.15L6070.77 2619.93C6087.8 2601.47 6090.3 2575.42 6088.98 2553.1C6088.31 2541.83 6086.65 2531.19 6085.18 2522.5C6084.44 2518.11 6083.77 2514.32 6083.27 2511.07C6082.76 2507.78 6082.49 2505.43 6082.49 2503.91L6072.49 2503.91ZM6063.42 2613.15C6038.71 2639.92 5987.64 2684.61 5965.1 2703.69L5971.56 2711.32C5994.06 2692.28 6045.58 2647.22 6070.77 2619.93L6063.42 2613.15ZM5721.69 3657.62C5721.81 3657.3 5721.67 3657.76 5720.16 3659.23C5718.86 3660.5 5716.98 3662.1 5714.52 3664.03C5709.61 3667.88 5702.75 3672.75 5694.45 3678.46C5686.17 3684.16 5676.53 3690.63 5666.08 3697.67C5655.63 3704.7 5644.39 3712.29 5632.93 3720.21C5610.03 3736.02 5586.18 3753.18 5566.02 3769.84C5546 3786.39 5529.12 3802.85 5520.66 3817.31L5529.29 3822.36C5536.79 3809.55 5552.44 3794.04 5572.39 3777.55C5592.21 3761.16 5615.78 3744.2 5638.61 3728.44C5650.02 3720.56 5661.22 3713 5671.66 3705.97C5682.09 3698.94 5691.78 3692.44 5700.12 3686.7C5708.44 3680.97 5715.51 3675.95 5720.69 3671.9C5723.27 3669.88 5725.46 3668.03 5727.14 3666.4C5728.61 3664.97 5730.34 3663.09 5731.09 3661.04L5721.69 3657.62ZM5970.78 2703.15C5961.57 2697.97 5945.68 2690.58 5927.57 2685.05C5909.52 2679.55 5888.8 2675.74 5870.15 2678.14L5871.43 2688.06C5888.05 2685.92 5907.2 2689.29 5924.65 2694.62C5942.04 2699.92 5957.27 2707.02 5965.87 2711.86L5970.78 2703.15ZM5687.46 2645.53C5679.7 2647.46 5666.96 2653.15 5651.91 2660.97C5636.7 2668.86 5618.71 2679.16 5600.31 2690.59C5563.61 2713.4 5524.75 2741.05 5502.96 2763.57L5510.14 2770.52C5531.04 2748.94 5569.01 2721.81 5605.58 2699.09C5623.81 2687.76 5641.57 2677.6 5656.51 2669.84C5671.61 2662.01 5683.4 2656.85 5689.88 2655.23L5687.46 2645.53ZM4672.43 3187.79C4657.6 3193.44 4618.63 3206.55 4581.18 3219.39C4562.5 3225.79 4544.24 3232.12 4529.66 3237.38C4515.29 3242.57 4503.99 3246.89 4499.66 3249.25L4504.45 3258.03C4507.94 3256.13 4518.35 3252.09 4533.05 3246.79C4547.55 3241.56 4565.75 3235.25 4584.42 3228.85C4621.67 3216.08 4660.95 3202.87 4675.99 3197.14L4672.43 3187.79ZM4499.66 3249.25C4487.13 3256.09 4440.92 3287.12 4418.2 3302.57L4423.82 3310.84C4446.81 3295.21 4492.47 3264.57 4504.45 3258.03L4499.66 3249.25ZM4416.5 3303.37C4284.37 3340.39 4085.82 3397.68 3917.87 3449.74C3833.9 3475.76 3757.53 3500.5 3700.92 3520.74C3672.63 3530.86 3649.19 3539.89 3632.18 3547.42C3623.68 3551.18 3616.68 3554.61 3611.45 3557.66C3608.84 3559.18 3606.57 3560.66 3604.75 3562.09C3603.01 3563.46 3601.35 3565.03 3600.28 3566.81L3608.85 3571.96C3608.99 3571.73 3609.53 3571.05 3610.93 3569.96C3612.26 3568.91 3614.1 3567.69 3616.49 3566.3C3621.26 3563.52 3627.87 3560.26 3636.22 3556.56C3652.9 3549.18 3676.08 3540.25 3704.29 3530.16C3760.69 3509.99 3836.9 3485.3 3920.83 3459.29C4088.66 3407.27 4287.12 3350 4419.2 3313L4416.5 3303.37ZM3600.28 3566.81C3588.39 3586.63 3576.96 3600.68 3559.69 3609.08C3542.34 3617.52 3518.34 3620.61 3480.55 3616.64L3479.51 3626.58C3518.05 3630.64 3544.26 3627.71 3564.07 3618.07C3583.97 3608.39 3596.64 3592.31 3608.85 3571.96L3600.28 3566.81ZM3480.55 3616.64C3471.57 3615.69 3457.75 3612.13 3440.11 3606.38C3422.57 3600.66 3401.57 3592.87 3378.37 3583.63C3331.97 3565.16 3276.95 3540.97 3223.52 3516.14C3170.1 3491.31 3118.33 3465.86 3078.43 3444.88C3058.48 3434.38 3041.54 3425.03 3028.87 3417.45C3022.53 3413.66 3017.31 3410.34 3013.34 3407.56C3009.25 3404.7 3006.83 3402.66 3005.77 3401.42L2998.18 3407.93C3000.13 3410.21 3003.48 3412.87 3007.61 3415.75C3011.85 3418.72 3017.29 3422.17 3023.74 3426.03C3036.63 3433.75 3053.75 3443.19 3073.78 3453.73C3113.85 3474.8 3165.77 3500.32 3219.31 3525.21C3272.84 3550.09 3328.05 3574.36 3374.67 3592.92C3397.98 3602.2 3419.2 3610.07 3437.01 3615.89C3454.73 3621.67 3469.4 3625.52 3479.51 3626.58L3480.55 3616.64ZM3005.77 3401.42C3003.07 3398.27 2996.25 3392.03 2986.55 3383.61C2976.71 3375.07 2963.59 3364 2947.98 3351.03C2916.75 3325.08 2875.5 3291.47 2830.56 3255.15C2740.66 3182.51 2635.93 3099 2566.91 3044.27L2560.7 3052.11C2629.7 3106.83 2734.41 3190.31 2824.27 3262.93C2869.21 3299.24 2910.41 3332.82 2941.59 3358.72C2957.18 3371.67 2970.24 3382.69 2979.99 3391.16C2989.88 3399.75 2996.06 3405.46 2998.18 3407.93L3005.77 3401.42ZM5274.63 2884.41C5273.58 2884.41 5272.43 2884.62 5271.43 2884.84C5270.35 2885.08 5269.08 2885.42 5267.67 2885.83C5264.84 2886.67 5261.23 2887.88 5256.96 2889.4C5248.42 2892.45 5237.05 2896.82 5223.74 2902.14L5227.45 2911.42C5240.71 2906.12 5251.95 2901.81 5260.32 2898.82C5264.51 2897.33 5267.93 2896.19 5270.51 2895.42C5271.8 2895.04 5272.82 2894.77 5273.6 2894.6C5274.45 2894.41 5274.73 2894.41 5274.63 2894.41L5274.63 2884.41ZM5223.74 2902.14C5182.76 2918.52 5122.97 2944.05 5069.4 2968.17C5016.04 2992.2 4968.27 3015.08 4951.73 3026.1L4957.28 3034.42C4972.96 3023.97 5019.83 3001.46 5073.51 2977.29C5126.98 2953.21 5186.63 2927.74 5227.45 2911.42L5223.74 2902.14ZM6266.3 3310.37C6115.03 3402.76 5843.07 3570.71 5753.17 3632.4L5758.83 3640.65C5848.46 3579.14 6120.14 3411.36 6271.51 3318.9L6266.3 3310.37ZM5753.17 3632.4C5744.11 3638.62 5736.83 3643.81 5731.69 3647.75C5729.13 3649.71 5727.02 3651.43 5725.46 3652.84C5724.69 3653.55 5723.98 3654.24 5723.4 3654.9C5722.92 3655.45 5722.13 3656.41 5721.69 3657.62L5731.09 3661.04C5730.86 3661.67 5730.59 3661.88 5730.93 3661.49C5731.16 3661.22 5731.57 3660.81 5732.19 3660.24C5733.45 3659.1 5735.3 3657.58 5737.77 3655.68C5742.71 3651.9 5749.81 3646.83 5758.83 3640.65L5753.17 3632.4ZM5221.55 2909.72L5264.11 2968.28L5272.2 2962.4L5229.64 2903.84L5221.55 2909.72ZM5870.15 2678.14C5860.54 2679.38 5847.09 2678 5831.33 2675C5815.7 2672.02 5798.29 2667.55 5780.96 2662.93L5778.38 2672.59C5795.72 2677.22 5813.43 2681.77 5829.46 2684.82C5845.38 2687.85 5860.15 2689.52 5871.43 2688.06L5870.15 2678.14ZM5270.67 2969.66L5782.18 2672.08L5777.16 2663.44L5265.65 2961.02L5270.67 2969.66ZM5264.11 2968.28L5301.68 3019.96L5309.77 3014.08L5272.2 2962.4L5264.11 2968.28ZM5308.27 3021.33L5873.33 2687.41L5868.24 2678.8L5303.18 3012.72L5308.27 3021.33ZM5301.68 3019.96L5338.1 3070.07L5346.19 3064.19L5309.77 3014.08L5301.68 3019.96ZM5344.63 3071.46L5970.82 2711.84L5965.84 2703.17L5339.65 3062.79L5344.63 3071.46ZM5965.31 2711.49C5980.11 2722.71 5999.54 2737.6 6019.84 2753.41L6025.98 2745.52C6005.65 2729.69 5986.18 2714.76 5971.35 2703.52L5965.31 2711.49ZM5338.1 3070.07L5377.66 3124.49L5385.75 3118.61L5346.19 3064.19L5338.1 3070.07ZM6020.4 2745.14L5379.19 3117.23L5384.21 3125.88L6025.42 2753.79L6020.4 2745.14ZM6019.84 2753.41C6032.98 2763.65 6046.49 2774.26 6059.32 2784.51L6065.56 2776.69C6052.69 2766.42 6039.15 2755.77 6025.98 2745.52L6019.84 2753.41ZM5377.66 3124.49L5411.04 3170.42L5419.13 3164.54L5385.75 3118.61L5377.66 3124.49ZM6059.87 2776.31L5412.52 3163.19L5417.65 3171.77L6065 2784.89L6059.87 2776.31ZM6059.32 2784.51C6078.87 2800.11 6096.81 2814.82 6109.56 2825.98L6116.15 2818.46C6103.22 2807.14 6085.14 2792.32 6065.56 2776.69L6059.32 2784.51ZM6109.56 2825.98C6114.29 2830.12 6118.26 2833.74 6121.32 2836.72C6124.47 2839.78 6126.4 2841.93 6127.27 2843.19L6135.5 2837.49C6134.02 2835.37 6131.46 2832.63 6128.3 2829.55C6125.06 2826.4 6120.94 2822.66 6116.15 2818.46L6109.56 2825.98ZM5411.04 3170.42L5455.52 3231.61L5463.61 3225.73L5419.13 3164.54L5411.04 3170.42ZM6110.21 2817.98L5456.92 3224.43L5462.2 3232.92L6115.5 2826.47L6110.21 2817.98ZM5455.52 3231.61L5488.48 3276.96L5496.57 3271.08L5463.61 3225.73L5455.52 3231.61ZM6127.27 2843.19C6129.7 2846.69 6137.07 2860.35 6147.58 2880.79L6156.47 2876.22C6146.14 2856.11 6138.39 2841.68 6135.5 2837.49L6127.27 2843.19ZM5495.1 3278.31L6154.6 2882.8L6149.45 2874.22L5489.95 3269.74L5495.1 3278.31ZM6147.58 2880.79C6154.98 2895.18 6163.82 2912.73 6173.39 2931.99L6182.34 2927.54C6172.76 2908.25 6163.9 2890.66 6156.47 2876.22L6147.58 2880.79ZM5488.48 3276.96L5526.25 3328.94L5534.34 3323.06L5496.57 3271.08L5488.48 3276.96ZM6175.25 2925.5L5527.69 3321.73L5532.91 3330.26L6180.47 2934.03L6175.25 2925.5ZM5526.25 3328.94L5561.31 3377.17L5569.4 3371.29L5534.34 3323.06L5526.25 3328.94ZM6173.39 2931.99C6182.18 2949.69 6191.57 2968.85 6201 2988.34L6210 2983.99C6200.56 2964.46 6191.15 2945.28 6182.34 2927.54L6173.39 2931.99ZM5567.95 3378.51L6208.09 2990.44L6202.91 2981.89L5562.76 3369.95L5567.95 3378.51ZM6201 2988.34C6209.49 3005.88 6218 3023.7 6226.13 3040.97L6235.18 3036.71C6227.03 3019.4 6218.5 3001.56 6210 2983.99L6201 2988.34ZM5561.31 3377.17L5599.82 3430.16L5607.91 3424.28L5569.4 3371.29L5561.31 3377.17ZM6228.02 3034.59L5601.24 3422.97L5606.5 3431.47L6233.28 3043.09L6228.02 3034.59ZM5599.82 3430.16L5636.24 3480.26L5644.33 3474.38L5607.91 3424.28L5599.82 3430.16ZM6226.13 3040.97C6235.99 3061.93 6245.27 3082.09 6253.24 3099.99L6262.38 3095.92C6254.37 3077.94 6245.06 3057.72 6235.18 3036.71L6226.13 3040.97ZM6253.24 3099.99C6261.05 3117.52 6267.57 3132.84 6272.13 3144.62C6274.41 3150.52 6276.18 3155.47 6277.36 3159.33C6278.62 3163.39 6279.04 3165.7 6279.04 3166.61L6289.04 3166.61C6289.04 3164.01 6288.15 3160.37 6286.92 3156.39C6285.63 3152.21 6283.77 3147.01 6281.45 3141.02C6276.8 3129.01 6270.21 3113.51 6262.38 3095.92L6253.24 3099.99ZM5642.9 3481.58L6260.43 3102.21L6255.19 3093.69L5637.67 3473.06L5642.9 3481.58ZM5636.24 3480.26L5681.13 3542.02L5689.22 3536.14L5644.33 3474.38L5636.24 3480.26ZM6281.4 3162.36L5682.54 3534.84L5687.82 3543.33L6286.68 3170.86L6281.4 3162.36ZM5681.13 3542.02L5716.54 3590.74L5724.63 3584.86L5689.22 3536.14L5681.13 3542.02ZM5716.54 3590.74L5751.96 3639.46L5760.05 3633.58L5724.63 3584.86L5716.54 3590.74ZM6279.04 3166.61C6279.04 3176.91 6277.19 3204.54 6274.89 3234.59L6284.86 3235.35C6287.15 3205.48 6289.04 3177.39 6289.04 3166.61L6279.04 3166.61ZM6274.89 3234.59C6272.96 3259.9 6270.72 3286.71 6269.07 3305.82L6279.03 3306.68C6280.69 3287.55 6282.92 3260.7 6284.86 3235.35L6274.89 3234.59ZM5723.26 3592.03L6282.55 3239.2L6277.21 3230.74L5717.92 3583.57L5723.26 3592.03ZM6885.51 1890.31C6891.51 1897.24 6899.7 1910.27 6904.26 1926.35C6908.8 1942.37 6909.66 1961.12 6901.51 1979.88L6910.68 1983.87C6919.97 1962.49 6918.88 1941.27 6913.88 1923.63C6908.89 1906.04 6899.96 1891.73 6893.08 1883.77L6885.51 1890.31ZM6838.2 2050.6C6824.9 2058.07 6804.56 2069.77 6786.76 2080.6C6777.86 2086.01 6769.56 2091.23 6763.07 2095.61C6759.83 2097.8 6756.99 2099.81 6754.74 2101.55C6752.61 2103.2 6750.63 2104.89 6749.44 2106.42L6757.34 2112.56C6757.67 2112.13 6758.74 2111.11 6760.87 2109.46C6762.87 2107.9 6765.51 2106.03 6768.67 2103.9C6774.96 2099.65 6783.12 2094.52 6791.96 2089.14C6809.62 2078.39 6829.86 2066.75 6843.1 2059.32L6838.2 2050.6ZM6749.44 2106.42C6748.32 2107.87 6744.66 2111.27 6738.83 2116.21C6733.19 2120.98 6725.95 2126.84 6718.12 2133.05C6702.47 2145.45 6684.58 2159.15 6672.65 2168.16L6678.67 2176.14C6690.65 2167.1 6708.6 2153.35 6724.33 2140.88C6732.19 2134.65 6739.53 2128.72 6745.29 2123.84C6750.86 2119.12 6755.44 2115 6757.34 2112.56L6749.44 2106.42ZM6670.47 2170.15L6581.72 2267.56L6589.11 2274.29L6677.86 2176.88L6670.47 2170.15ZM6587.44 2275.5L6642.03 2251.35L6637.98 2242.2L6583.39 2266.35L6587.44 2275.5ZM6644.46 2250.84H6736.1V2240.84H6644.46V2250.84ZM6746.76 2246.77L6842.38 2161.32L6835.71 2153.87L6740.1 2239.31L6746.76 2246.77ZM6901.51 1979.88C6891.47 2002.96 6875.91 2021.05 6861.92 2033.49L6868.57 2040.96C6883.33 2027.83 6899.92 2008.62 6910.68 1983.87L6901.51 1979.88ZM6861.92 2033.49C6852.42 2041.94 6843.79 2047.66 6838.32 2050.53L6842.97 2059.38C6849.27 2056.08 6858.56 2049.86 6868.57 2040.96L6861.92 2033.49ZM6847.76 2149.12C6847.65 2133.43 6848.62 2110.83 6851.9 2089.71C6853.54 2079.15 6855.73 2069.07 6858.61 2060.45C6861.51 2051.76 6864.98 2044.95 6868.95 2040.59L6861.55 2033.86C6856.23 2039.72 6852.21 2048.04 6849.13 2057.28C6846.01 2066.61 6843.71 2077.28 6842.02 2088.18C6838.64 2109.97 6837.65 2133.12 6837.76 2149.19L6847.76 2149.12ZM6907.4 1986.7C6927.83 1981.2 6958.5 1977.67 6984.29 1984.55C6997.11 1987.97 7008.47 1993.89 7016.87 2003.16C7025.21 2012.37 7030.96 2025.25 7031.99 2043.25L7041.98 2042.67C7040.83 2022.71 7034.35 2007.57 7024.28 1996.45C7014.25 1985.38 7001 1978.66 6986.87 1974.89C6958.76 1967.39 6926.17 1971.29 6904.79 1977.05L6907.4 1986.7ZM7031.99 2043.25C7034.7 2090.41 7033.08 2162.17 7029.4 2226.46C7027.56 2258.58 7025.22 2288.77 7022.65 2313.01C7020.07 2337.45 7017.31 2355.32 7014.77 2363.19L7024.29 2366.26C7027.2 2357.23 7030.04 2338.29 7032.6 2314.06C7035.18 2289.62 7037.54 2259.27 7039.38 2227.03C7043.07 2162.62 7044.72 2090.4 7041.98 2042.67L7031.99 2043.25ZM7014.77 2363.19C7008.87 2381.5 7011.57 2396.4 7017.4 2409.81C7020.27 2416.4 7023.89 2422.64 7027.52 2428.66C7031.19 2434.76 7034.82 2440.57 7038 2446.66L7046.87 2442.04C7043.51 2435.59 7039.64 2429.4 7036.09 2423.5C7032.48 2417.52 7029.16 2411.76 7026.57 2405.82C7021.49 2394.14 7019.29 2381.77 7024.29 2366.26L7014.77 2363.19ZM7038 2446.66C7041.68 2453.71 7048.45 2460.58 7054.77 2467.29C7061.34 2474.28 7067.91 2481.53 7072.55 2489.98C7077.11 2498.3 7079.77 2507.72 7078.43 2519.08C7077.07 2530.53 7071.61 2544.38 7059.13 2561.37L7067.19 2567.29C7080.34 2549.38 7086.74 2533.92 7088.36 2520.25C7089.98 2506.49 7086.7 2494.98 7081.32 2485.17C7076 2475.48 7068.6 2467.4 7062.05 2460.44C7055.24 2453.21 7049.74 2447.54 7046.87 2442.04L7038 2446.66ZM7059.13 2561.37C7033.77 2595.91 7018.38 2608.04 7008.72 2617.98C7003.76 2623.08 7000.08 2627.85 6997.82 2634.71C6995.64 2641.35 6994.9 2649.59 6994.9 2661.41L7004.9 2661.41C7004.9 2649.78 7005.66 2642.89 7007.32 2637.84C7008.91 2633.01 7011.45 2629.52 7015.89 2624.95C7025.05 2615.52 7041.29 2602.57 7067.19 2567.29L7059.13 2561.37ZM6994.9 2661.41C6994.9 2685 6994.61 2701.11 6992.26 2713.08C6989.99 2724.7 6985.86 2732.02 6978.2 2738.25L6984.51 2746.01C6994.3 2738.05 6999.44 2728.47 7002.08 2715C7004.64 2701.89 7004.9 2684.73 7004.9 2661.41L6994.9 2661.41ZM6978.2 2738.25C6974.98 2740.87 6972.84 2744.9 6971.29 2749.16C6969.7 2753.53 6968.52 2758.78 6967.58 2764.47C6965.69 2775.84 6964.63 2789.83 6963.47 2803.74C6962.3 2817.78 6961.02 2831.81 6958.73 2843.73C6956.4 2855.9 6953.19 2864.77 6948.88 2869.39L6956.19 2876.21C6962.62 2869.33 6966.2 2857.88 6968.55 2845.61C6970.96 2833.09 6972.27 2818.54 6973.44 2804.57C6974.62 2790.45 6975.64 2776.97 6977.44 2766.11C6978.34 2760.68 6979.4 2756.12 6980.69 2752.57C6982.01 2748.93 6983.37 2746.93 6984.51 2746.01L6978.2 2738.25ZM6948.88 2869.39C6943.94 2874.68 6931.2 2884.33 6913.88 2896.48C6896.75 2908.5 6875.66 2922.61 6854.47 2936.7C6833.31 2950.78 6812.03 2964.85 6794.62 2976.74C6777.36 2988.53 6763.48 2998.44 6757.39 3004.13L6764.21 3011.44C6769.62 3006.39 6782.78 2996.94 6800.26 2985C6817.61 2973.16 6838.8 2959.14 6860.01 2945.03C6881.19 2930.94 6902.38 2916.77 6919.62 2904.67C6936.67 2892.71 6950.39 2882.43 6956.19 2876.21L6948.88 2869.39ZM6757.39 3004.13C6754.95 3006.4 6749.89 3009.85 6742.41 3014.3C6735.05 3018.69 6725.7 3023.84 6714.96 3029.51C6693.49 3040.86 6666.65 3054.2 6639.52 3067.53C6612.43 3080.84 6585.01 3094.14 6562.5 3105.33C6540.09 3116.48 6522.15 3125.73 6514.18 3130.9L6519.63 3139.29C6527.01 3134.5 6544.34 3125.53 6566.95 3114.29C6589.44 3103.1 6616.77 3089.85 6643.93 3076.5C6671.07 3063.18 6698.02 3049.77 6719.63 3038.35C6730.44 3032.64 6739.96 3027.4 6747.53 3022.9C6754.97 3018.46 6760.89 3014.53 6764.21 3011.44L6757.39 3004.13ZM6514.18 3130.9C6498.53 3141.08 6479.76 3157.5 6462.34 3171.89C6453.54 3179.16 6445.04 3185.96 6437.25 3191.4C6429.39 3196.89 6422.62 3200.74 6417.25 3202.42L6420.23 3211.96C6427.13 3209.81 6434.93 3205.22 6442.98 3199.59C6451.11 3193.91 6459.87 3186.9 6468.71 3179.6C6486.56 3164.85 6504.61 3149.05 6519.63 3139.29L6514.18 3130.9ZM6417.25 3202.42C6411.6 3204.18 6403.95 3205.39 6394.93 3206.44C6390.46 3206.96 6385.74 3207.44 6380.84 3207.93C6375.96 3208.42 6370.9 3208.93 6365.83 3209.51C6345.85 3211.79 6324.35 3215.3 6310.18 3224.47L6315.62 3232.86C6327.53 3225.16 6346.68 3221.76 6366.96 3219.44C6371.96 3218.87 6376.94 3218.37 6381.84 3217.88C6386.73 3217.39 6391.53 3216.91 6396.09 3216.37C6405.15 3215.32 6413.61 3214.03 6420.23 3211.96L6417.25 3202.42ZM6310.18 3224.47C6300.16 3230.95 6293.32 3232.95 6289.13 3233.21C6284.87 3233.47 6283.9 3231.98 6284.06 3232.22L6275.7 3237.71C6278.17 3241.48 6283.29 3243.59 6289.74 3243.19C6296.27 3242.79 6304.78 3239.87 6315.62 3232.86L6310.18 3224.47ZM6582.35 2266.97L6547.56 2293.97L6553.7 2301.87L6588.48 2274.87L6582.35 2266.97ZM5936.93 1032.22C5941.95 1031.98 5964.19 1030.33 5983.4 1018.08C5993.11 1011.9 6002.15 1002.94 6007.7 990.069C6013.25 977.198 6015.13 960.834 6011.25 940.135L6001.42 941.977C6005.01 961.139 6003.13 975.42 5998.52 986.11C5993.91 996.797 5986.4 1004.32 5978.03 1009.65C5961.09 1020.45 5941.03 1022.02 5936.47 1022.23L5936.93 1032.22ZM6006.88 936.086C5989.04 934.123 5975.02 938.144 5964.2 945.764C5953.47 953.311 5946.27 964.111 5941.4 975.118C5931.72 997.029 5930.8 1021 5930.71 1026.18L5940.71 1026.35C5940.8 1021.51 5941.7 999.187 5950.55 979.159C5954.95 969.197 5961.18 960.114 5969.95 953.942C5978.62 947.842 5990.15 944.306 6005.79 946.026L6006.88 936.086ZM6008.59 936.593L5709.84 785.716L5705.33 794.642L6004.08 945.519L6008.59 936.593ZM5700.79 784.312C5693.89 785.599 5677.55 789.9 5662.96 803.436C5648.19 817.126 5635.73 839.779 5635.97 876.706L5645.97 876.639C5645.74 842.251 5657.24 822.376 5669.75 810.769C5682.44 799.008 5696.71 795.244 5702.62 794.143L5700.79 784.312ZM4703.06 405.393C4786.4 448.243 4898.87 505.426 5030.25 572.101L5034.78 563.184C4903.39 496.508 4790.95 439.335 4707.63 396.499L4703.06 405.393ZM5030.25 572.101C5617.86 870.313 6583.76 1358.36 7016.35 1603.74L7021.28 1595.04C6588.43 1349.51 5622.24 861.321 5034.78 563.184L5030.25 572.101ZM5036.83 565.111C5033.76 559.892 5033.39 551.873 5035.97 542.279C5038.51 532.844 5043.7 522.743 5050.43 514.14C5057.19 505.501 5065.21 498.752 5073.18 495.54C5080.95 492.409 5088.5 492.652 5095.43 497.6L5101.24 489.463C5091.03 482.17 5079.76 482.107 5069.44 486.265C5059.32 490.343 5049.99 498.477 5042.56 507.977C5035.09 517.513 5029.24 528.806 5026.32 539.679C5023.43 550.393 5023.17 561.597 5028.2 570.174L5036.83 565.111ZM5095.43 497.6C5102.67 502.772 5105.73 509.589 5105.73 516.899C5105.74 524.403 5102.49 532.802 5096.3 540.525C5083.95 555.947 5060.72 567.56 5033.39 562.719L5031.64 572.566C5062.79 578.082 5089.6 564.881 5104.11 546.778C5111.35 537.74 5115.74 527.2 5115.73 516.894C5115.73 506.395 5111.14 496.533 5101.24 489.463L5095.43 497.6ZM5100.8 489.185L4913.51 382.684L4908.57 391.377L5095.86 497.878L5100.8 489.185ZM4910.46 382.064C4899.29 383.353 4882.58 387.767 4868.51 396.988C4854.33 406.284 4842.38 420.826 4842.38 442.117L4852.38 442.117C4852.38 425.215 4861.65 413.438 4873.99 405.351C4886.45 397.189 4901.57 393.157 4911.61 391.998L4910.46 382.064ZM4844.58 446.256L5029.71 571.781L5035.32 563.504L4850.19 437.979L4844.58 446.256ZM4851.35 439.08L4819.53 397.459L4811.58 403.534L4843.41 445.155L4851.35 439.08ZM4850.22 374.224L4909.62 391.825L4912.46 382.237L4853.06 364.636L4850.22 374.224ZM4819.29 403.818L4843 377.148L4835.52 370.505L4811.82 397.174L4819.29 403.818ZM4843 377.148L4844.03 375.991L4836.55 369.347L4835.52 370.505L4843 377.148ZM4843.02 370.529C4830.3 356.036 4811.83 331.327 4797.91 304.52C4783.85 277.445 4775.07 249.428 4780.03 227.784L4770.28 225.55C4764.47 250.914 4774.81 281.743 4789.03 309.129C4803.4 336.783 4822.36 362.15 4835.5 377.124L4843.02 370.529ZM4780.03 227.784C4790.58 181.73 4819.77 134.716 4833.02 117.045L4825.02 111.045C4811.34 129.282 4781.27 177.589 4770.28 225.55L4780.03 227.784ZM4833.27 116.673L4900.6 7.72402L4892.09 2.46705L4824.77 111.416L4833.27 116.673ZM4819.13 396.999C4791.82 369.101 4750.21 315.748 4745.1 257.77L4735.14 258.649C4740.57 320.234 4784.31 375.718 4811.98 403.994L4819.13 396.999ZM4745.1 257.77C4743.1 235.124 4748.5 209.625 4758.06 183.505C4767.6 157.438 4781.14 131.114 4795.06 106.931C4808.98 82.7401 4823.17 60.8705 4834.05 43.5515C4839.46 34.9333 4844.09 27.38 4847.41 21.2897C4849.06 18.245 4850.44 15.4712 4851.43 13.0498C4852.38 10.7359 4853.16 8.30823 4853.25 6.09368L4843.26 5.67744C4843.24 6.10051 4843.02 7.21199 4842.18 9.2619C4841.38 11.2044 4840.19 13.6193 4838.62 16.5114C4835.48 22.2944 4831 29.6066 4825.58 38.2322C4814.79 55.4008 4800.44 77.5317 4786.39 101.943C4772.34 126.362 4758.48 153.242 4748.67 180.069C4738.87 206.844 4732.95 233.93 4735.14 258.649L4745.1 257.77ZM5618.25 9.45847C5620.99 10.8285 5893.48 133.439 6229.01 286.068C6564.67 438.762 6963.68 621.611 7219.77 743.595L7224.07 734.567C6967.89 612.54 6568.81 429.658 6233.15 276.965C6065.31 200.616 5913.31 131.811 5802.95 81.9286C5747.77 56.9873 5703 36.7768 5671.86 22.7195C5656.28 15.6907 5644.12 10.2008 5635.77 6.427C5631.59 4.53996 5628.37 3.08291 5626.16 2.07739C5625.05 1.57441 5624.19 1.18584 5623.59 0.913442C5622.93 0.6114 5622.7 0.50399 5622.72 0.514189L5618.25 9.45847ZM6521.53 3825.78C6544.1 3809.95 6573 3787.86 6597.94 3769.3C6610.44 3759.98 6621.94 3751.56 6631.23 3745.18C6635.87 3741.99 6639.91 3739.35 6643.21 3737.37C6646.61 3735.34 6648.9 3734.22 6650.14 3733.83L6647.15 3724.29C6644.68 3725.06 6641.52 3726.73 6638.07 3728.79C6634.52 3730.92 6630.29 3733.69 6625.56 3736.94C6616.11 3743.43 6604.48 3751.96 6591.96 3761.28C6566.86 3779.97 6538.2 3801.87 6515.78 3817.6L6521.53 3825.78ZM6650.14 3733.83C6655.98 3732 6665.25 3730.63 6674.25 3730.57C6678.72 3730.54 6682.98 3730.83 6686.59 3731.5C6690.29 3732.18 6692.9 3733.17 6694.43 3734.25L6700.21 3726.09C6696.97 3723.79 6692.71 3722.45 6688.4 3721.66C6683.99 3720.85 6679.08 3720.54 6674.18 3720.57C6664.44 3720.64 6654.14 3722.1 6647.15 3724.29L6650.14 3733.83ZM6694.43 3734.25C6697.5 3736.43 6708.28 3745.73 6722.58 3758.31C6736.74 3770.76 6754 3786.11 6769.81 3800.12L6776.44 3792.64C6760.65 3778.64 6743.36 3763.27 6729.19 3750.8C6715.16 3738.46 6703.83 3728.66 6700.21 3726.09L6694.43 3734.25ZM6769.81 3800.12C6774.47 3804.25 6778.89 3808.25 6783.06 3812.04C6787.23 3815.83 6791.17 3819.41 6794.82 3822.65L6801.46 3815.18C6797.86 3811.97 6793.97 3808.44 6789.79 3804.64C6785.61 3800.85 6781.15 3796.81 6776.44 3792.64L6769.81 3800.12ZM6775.1 3800.98L6844.09 3771.37L6840.15 3762.18L6771.16 3791.79L6775.1 3800.98ZM6881.82 3803.07L6876.54 3813.22L6885.41 3817.84L6890.69 3807.69L6881.82 3803.07ZM6871.23 3816.45L6805.38 3816.64L6805.41 3826.64L6871.26 3826.45L6871.23 3816.45ZM6850.58 3772.53L6852.34 3774.19L6859.21 3766.93L6857.45 3765.26L6850.58 3772.53ZM6858.71 3774.6L7225.27 3508.13L7219.39 3500.04L6852.83 3766.51L6858.71 3774.6ZM6852.34 3774.19L6881.62 3801.87L6888.49 3794.61L6859.21 3766.93L6852.34 3774.19ZM6888.72 3801.64C6888.71 3801.65 6888.77 3801.59 6888.95 3801.42C6889.12 3801.27 6889.35 3801.07 6889.64 3800.81C6890.24 3800.31 6891.04 3799.65 6892.05 3798.84C6894.07 3797.22 6896.85 3795.05 6900.31 3792.39C6907.25 3787.07 6916.86 3779.84 6928.53 3771.13C6951.88 3753.73 6983.41 3730.48 7018.11 3705.02C7087.49 3654.11 7169.49 3594.38 7223.83 3554.91L7217.96 3546.82C7163.61 3586.29 7081.6 3646.03 7012.19 3696.96C6977.49 3722.42 6945.93 3745.69 6922.55 3763.12C6910.87 3771.83 6901.21 3779.1 6894.23 3784.46C6890.74 3787.13 6887.89 3789.35 6885.79 3791.04C6883.83 3792.61 6882.18 3793.98 6881.38 3794.84L6888.72 3801.64ZM3210.96 1683.17C3197.81 1689.3 3176.13 1705.29 3151.7 1724.96L3157.97 1732.75C3182.6 1712.92 3203.34 1697.76 3215.19 1692.23L3210.96 1683.17ZM3151.91 1732.91L4951.57 3034.32L4957.43 3026.21L3157.77 1724.8L3151.91 1732.91ZM4951.73 3026.1C4942.32 3032.38 4924.7 3043.33 4902.58 3056.74L4907.76 3065.29C4929.87 3051.89 4947.67 3040.83 4957.28 3034.42L4951.73 3026.1ZM4902.58 3056.74C4864.06 3080.08 4812.16 3110.71 4767 3136.61C4744.42 3149.56 4723.54 3161.31 4706.87 3170.37C4690.06 3179.51 4677.86 3185.72 4672.43 3187.79L4675.99 3197.14C4682.18 3194.78 4695.02 3188.2 4711.64 3179.16C4728.41 3170.04 4749.36 3158.25 4771.97 3145.28C4817.21 3119.35 4869.18 3088.68 4907.76 3065.29L4902.58 3056.74ZM3151.7 1724.96C3138.31 1735.75 3123.95 1747.76 3109.49 1760.11L3115.98 1767.71C3130.4 1755.41 3144.68 1743.46 3157.97 1732.75L3151.7 1724.96ZM3109.49 1760.11C3064.41 1798.61 3017.51 1841.09 2997.25 1858.56L3003.77 1866.14C3024.73 1848.08 3070.54 1806.52 3115.98 1767.71L3109.49 1760.11ZM4908.1 3056.96L3115.67 1759.86L3109.81 1767.96L4902.24 3065.06L4908.1 3056.96ZM5502.96 2763.57C5489.56 2777.41 5462.2 2795.18 5430.29 2813.01C5398.56 2830.73 5362.92 2848.19 5333.48 2861.45L5337.58 2870.57C5367.23 2857.22 5403.14 2839.63 5435.17 2821.74C5467.01 2803.95 5495.6 2785.55 5510.14 2770.52L5502.96 2763.57ZM5333.48 2861.45C5317.92 2868.45 5304.14 2874.26 5293.61 2878.31C5288.34 2880.34 5283.93 2881.9 5280.56 2882.95C5278.87 2883.48 5277.48 2883.86 5276.41 2884.1C5275.88 2884.23 5275.45 2884.31 5275.13 2884.35C5274.97 2884.38 5274.85 2884.39 5274.76 2884.4C5274.67 2884.41 5274.63 2884.41 5274.63 2884.41L5274.63 2894.41C5276.86 2894.41 5280.11 2893.57 5283.53 2892.5C5287.2 2891.36 5291.83 2889.71 5297.2 2887.64C5307.96 2883.51 5321.92 2877.62 5337.58 2870.57L5333.48 2861.45ZM3542.92 1546.31C3528.97 1551.89 3498.04 1564.38 3460.29 1579.72L3464.06 1588.98C3501.8 1573.65 3532.71 1561.17 3546.63 1555.6L3542.92 1546.31ZM3460.29 1579.72C3369.81 1616.47 3239.78 1669.72 3210.96 1683.17L3215.19 1692.23C3243.71 1678.92 3373.39 1625.81 3464.06 1588.98L3460.29 1579.72ZM5338.35 2861.88L3465 1580.22L3459.35 1588.47L5332.71 2870.13L5338.35 2861.88ZM5780.96 2662.93C5761.44 2657.73 5741.94 2652.3 5725.56 2648.74L5723.43 2658.51C5739.52 2662.01 5758.67 2667.34 5778.38 2672.59L5780.96 2662.93ZM5725.56 2648.74C5717.63 2647.02 5710.31 2645.7 5703.97 2645.06C5697.72 2644.43 5691.99 2644.39 5687.46 2645.53L5689.88 2655.23C5692.71 2654.52 5697.05 2654.41 5702.96 2655.01C5708.77 2655.6 5715.68 2656.83 5723.43 2658.51L5725.56 2648.74ZM6728.16 1668.78L4653.84 555.58L4649.11 564.392L6723.43 1677.59L6728.16 1668.78ZM4645.69 657.243C4643.58 656.262 4639.79 655.12 4635.05 653.865C4630.15 652.57 4623.82 651.049 4616.35 649.352C4601.39 645.957 4581.73 641.826 4559.57 637.343L4557.58 647.144C4579.72 651.622 4599.29 655.735 4614.13 659.104C4621.56 660.79 4627.76 662.281 4632.49 663.533C4637.38 664.826 4640.3 665.764 4641.46 666.305L4645.69 657.243ZM4559.57 637.343C4494.98 624.275 4408.94 608.168 4355.83 598.472L4354.04 608.309C4407.13 618.001 4493.09 634.095 4557.58 647.144L4559.57 637.343ZM4908.49 1174.35L4916.13 1191.88L4925.3 1187.88L4917.65 1170.35L4908.49 1174.35ZM4916.13 1191.88L4966.75 1307.94L4975.91 1303.94L4925.3 1187.88L4916.13 1191.88ZM4923.91 1193.73L5063 1078.31L5056.62 1070.61L4917.52 1186.03L4923.91 1193.73ZM5069.81 1077.72L5708.37 1442.89L5713.34 1434.21L5074.78 1069.04L5069.81 1077.72ZM5709.42 1452.54L4800.95 2276.09L4807.67 2283.5L5716.14 1459.95L5709.42 1452.54ZM4793.56 2276.62L4174.32 1858.58L4168.72 1866.87L4787.97 2284.91L4793.56 2276.62ZM4842.29 1258.63L4839.65 1255.84L4832.38 1262.71L4835.03 1265.51L4842.29 1258.63ZM4839.65 1255.84L4777.65 1190.3L4770.39 1197.18L4832.38 1262.71L4839.65 1255.84ZM4173.71 1849.1L4839.32 1263.03L4832.71 1255.52L4167.1 1841.6L4173.71 1849.1ZM3701.33 1436.39C3677.05 1456.22 3633.01 1490.52 3594.84 1516.21L3600.43 1524.5C3638.95 1498.58 3683.25 1464.07 3707.65 1444.14L3701.33 1436.39ZM3594.84 1516.21C3574.21 1530.09 3555.64 1541.22 3542.92 1546.31L3546.63 1555.6C3560.44 1550.08 3579.78 1538.4 3600.43 1524.5L3594.84 1516.21ZM5104.11 2537.42L5488.82 2795.61L5494.39 2787.31L5109.68 2529.11L5104.11 2537.42ZM4783.51 836.305C4783.62 839.627 4783.74 843.302 4783.86 847.213L4793.86 846.894C4793.73 842.977 4793.61 839.296 4793.5 835.967L4783.51 836.305ZM4783.86 847.213C4784.76 875.138 4785.83 914.434 4785.39 923.119L4795.38 923.619C4795.84 914.402 4794.74 874.51 4793.86 846.894L4783.86 847.213ZM6120.52 1573.04L4791.27 842.671L4786.45 851.435L6115.7 1581.81L6120.52 1573.04ZM6695.42 1729.19L6731.67 1694.43L6724.74 1687.21L6688.5 1721.98L6695.42 1729.19ZM4634.93 558.395L4597.87 595.651L4604.96 602.703L4642.02 565.447L4634.93 558.395ZM4597.87 595.651L4555.03 638.717L4562.12 645.77L4604.96 602.703L4597.87 595.651ZM6694.33 1721.18L4603.79 594.776L4599.04 603.579L6689.59 1729.99L6694.33 1721.18ZM6219.63 1644.83L5984.57 1875.84L5991.58 1882.97L6226.64 1651.96L6219.63 1644.83ZM5987.14 1900.71L6248.83 2068.8L6254.24 2060.39L5992.54 1892.3L5987.14 1900.71ZM6269.07 2066.37L6511.11 1812.18L6503.86 1805.28L6261.82 2059.48L6269.07 2066.37ZM6507.11 1787.06L6238.44 1642.16L6233.7 1650.96L6502.37 1795.86L6507.11 1787.06ZM5738.69 1955.21L6123.68 1598.81L6116.89 1591.47L5731.89 1947.87L5738.69 1955.21ZM6176.34 2227.12L6695.42 1729.19L6688.5 1721.98L6169.42 2219.9L6176.34 2227.12ZM5732.65 1955.79L6170.24 2227.76L6175.52 2219.27L5737.93 1947.29L5732.65 1955.79ZM5791.35 2068.29L5781.18 2080.14L5788.78 2086.65L5798.94 2074.79L5791.35 2068.29ZM5784.8 2104.09L6013.47 2248.24L6018.81 2239.78L5790.13 2095.63L5784.8 2104.09ZM6035.3 2243.61L6044.63 2229.67L6036.32 2224.11L6026.99 2238.04L6035.3 2243.61ZM6039.8 2207.19L5811.96 2065.12L5806.67 2073.61L6034.51 2215.68L6039.8 2207.19ZM6065.19 2040.98C6072.41 2040.4 6081.03 2039.67 6087.92 2039.22L6087.27 2029.24C6080.28 2029.69 6071.54 2030.44 6064.39 2031.01L6065.19 2040.98ZM6093.51 2043.92L6096.52 2064.05L6106.41 2062.57L6103.4 2042.44L6093.51 2043.92ZM6091.22 2070.91L6068.97 2073.25L6070.02 2083.19L6092.26 2080.85L6091.22 2070.91ZM6062.44 2068.35L6058.92 2048.95L6049.08 2050.73L6052.6 2070.13L6062.44 2068.35ZM5598.13 2135.39L5554.62 2180.32L5561.81 2187.28L5605.31 2142.35L5598.13 2135.39ZM5557.33 2204.82L5892.1 2424.85L5897.59 2416.49L5562.82 2196.47L5557.33 2204.82ZM5911.86 2423.12L5960.13 2377.66L5953.27 2370.38L5905 2415.84L5911.86 2423.12ZM5957.84 2352.58L5618.31 2133.09L5612.88 2141.48L5952.41 2360.98L5957.84 2352.58ZM5631.13 2106.2L5628.6 2109.98L5636.92 2115.54L5639.44 2111.76L5631.13 2106.2ZM5633.09 2132.22L5659.59 2149.73L5665.1 2141.38L5638.6 2123.88L5633.09 2132.22ZM5682.4 2144.13L5684.36 2140.6L5675.61 2135.75L5673.66 2139.29L5682.4 2144.13ZM5679.4 2119.64L5653.46 2101.89L5647.82 2110.14L5673.75 2127.89L5679.4 2119.64ZM5691.84 2144.62L5689.28 2148.69L5697.75 2154.02L5700.3 2149.95L5691.84 2144.62ZM5694.04 2170.59L5716.56 2185.37L5722.04 2177.01L5699.53 2162.23L5694.04 2170.59ZM5739.35 2179.73L5741.77 2175.34L5733.01 2170.51L5730.59 2174.9L5739.35 2179.73ZM5736.44 2154.18L5714.07 2139.71L5708.64 2148.11L5731.01 2162.57L5736.44 2154.18ZM5758.03 2183.9L5756.88 2185.72L5765.34 2191.06L5766.49 2189.23L5758.03 2183.9ZM5761.98 2207.85L5834.51 2252.81L5839.78 2244.31L5767.25 2199.35L5761.98 2207.85ZM5857.5 2245.86L5859.1 2242.34L5850.01 2238.19L5848.4 2241.7L5857.5 2245.86ZM5852.71 2221.93L5779.72 2178.67L5774.63 2187.27L5847.61 2230.54L5852.71 2221.93ZM5547.69 2229.34L5519.11 2261.54L5526.59 2268.18L5555.16 2235.98L5547.69 2229.34ZM5521.73 2285.14L5541.6 2299.45L5547.44 2291.34L5527.57 2277.03L5521.73 2285.14ZM5562.73 2297.3L5591.09 2266.45L5583.72 2259.68L5555.36 2290.53L5562.73 2297.3ZM5589.28 2243.11L5569.62 2227.45L5563.39 2235.27L5583.05 2250.93L5589.28 2243.11ZM5365.12 2295.8L5797.68 2584.91L5803.24 2576.6L5370.68 2287.48L5365.12 2295.8ZM5727.96 2657.24L5777.97 2609.26L5771.04 2602.05L5721.04 2650.02L5727.96 2657.24ZM5777.97 2609.26L5803.92 2584.36L5797 2577.15L5771.04 2602.05L5777.97 2609.26ZM5110.29 2536.93L5344.42 2320.19L5337.63 2312.85L5103.5 2529.6L5110.29 2536.93ZM5344.42 2320.19L5371.3 2295.31L5364.51 2287.97L5337.63 2312.85L5344.42 2320.19ZM5777.28 2601.5L5343.8 2312.36L5338.25 2320.68L5771.73 2609.82L5777.28 2601.5ZM5371.3 2295.31L5427.3 2243.47L5420.51 2236.13L5364.51 2287.97L5371.3 2295.31ZM5427.3 2243.47L5738.69 1955.21L5731.89 1947.87L5420.51 2236.13L5427.3 2243.47ZM5803.92 2584.36L5857.51 2532.96L5850.59 2525.74L5797 2577.15L5803.92 2584.36ZM5857.51 2532.96L6176.34 2227.12L6169.42 2219.9L5850.59 2525.74L5857.51 2532.96ZM5421.11 2243.94L5851.26 2533.5L5856.84 2525.2L5426.7 2235.65L5421.11 2243.94ZM3897.25 1378.46L3958.41 1428.44L3964.74 1420.69L3903.57 1370.72L3897.25 1378.46ZM4163.07 1249.97C4169.03 1247.08 4176.28 1243.62 4184.34 1239.82L4180.07 1230.77C4171.99 1234.59 4164.71 1238.06 4158.71 1240.96L4163.07 1249.97ZM3979.34 1427.84L4185.58 1238.98L4178.83 1231.61L3972.58 1420.47L3979.34 1427.84ZM4184.34 1239.82C4215.7 1225.03 4259.09 1205.28 4286.46 1194.97L4282.94 1185.61C4255.14 1196.08 4211.43 1215.99 4180.07 1230.77L4184.34 1239.82ZM4286.46 1194.97C4291.84 1192.94 4296.54 1191.3 4300.37 1190.14L4297.47 1180.57C4293.35 1181.82 4288.42 1183.54 4282.94 1185.61L4286.46 1194.97ZM3594.85 1524.51L3780.62 1649.19L3786.19 1640.88L3600.42 1516.2L3594.85 1524.51ZM3780.62 1649.19L5104.11 2537.42L5109.68 2529.11L3786.19 1640.88L3780.62 1649.19ZM4281.34 1186.58L3780.05 1641.33L3786.77 1648.74L4288.06 1193.99L4281.34 1186.58ZM3744.3 1396.1C3750.6 1397.9 3756.98 1398.63 3763.26 1398.57L3763.16 1388.57C3757.73 1388.62 3752.31 1387.98 3747.05 1386.48L3744.3 1396.1ZM3760.3 1397.63L3904.29 1500.66L3910.11 1492.53L3766.12 1389.5L3760.3 1397.63ZM3925.77 1498.04L3942.84 1478.05L3935.24 1471.56L3918.17 1491.55L3925.77 1498.04ZM3763.26 1398.57C3787.19 1398.35 3810.08 1386.65 3822.89 1377.73L3817.17 1369.53C3805.17 1377.89 3784.26 1388.37 3763.16 1388.57L3763.26 1398.57ZM3822.89 1377.73C3823.03 1377.64 3823.16 1377.54 3823.3 1377.45L3817.54 1369.27C3817.42 1369.35 3817.3 1369.44 3817.17 1369.53L3822.89 1377.73ZM3940.08 1454.72L3822.97 1369.59L3817.09 1377.67L3934.2 1462.81L3940.08 1454.72ZM3646 1639L3634.66 1642.78L3637.82 1652.27L3649.16 1648.49L3646 1639ZM3626.92 1667.56L3629.7 1671.27L3637.7 1665.27L3634.92 1661.56L3626.92 1667.56ZM3651.73 1674.74L3660.87 1668.29L3655.1 1660.12L3645.96 1666.57L3651.73 1674.74ZM3665.57 1647.35L3664.99 1646.31L3656.28 1651.23L3656.87 1652.27L3665.57 1647.35ZM3706.75 1678.86L3692.25 1685.18L3696.25 1694.35L3710.75 1688.02L3706.75 1678.86ZM3688.11 1711.89L3693.37 1716.49L3699.95 1708.96L3694.7 1704.36L3688.11 1711.89ZM3712.47 1717.8C3716.92 1714.81 3721.84 1711.33 3725.51 1708.29C3727.31 1706.8 3729.02 1705.26 3730.22 1703.82C3730.79 1703.13 3731.5 1702.18 3731.95 1701.05C3732.37 1700 3733.02 1697.54 3731.29 1695.23L3723.29 1701.23C3721.92 1699.41 3722.56 1697.6 3722.66 1697.35C3722.79 1697.02 3722.87 1697.02 3722.54 1697.41C3721.95 1698.12 3720.82 1699.2 3719.14 1700.59C3715.86 1703.3 3711.26 1706.57 3706.9 1709.5L3712.47 1717.8ZM3731.29 1695.23C3731.31 1695.25 3731.01 1694.77 3730.45 1693.4C3729.96 1692.19 3729.4 1690.66 3728.83 1688.94L3719.35 1692.13C3719.96 1693.94 3720.59 1695.7 3721.19 1697.18C3721.73 1698.5 3722.44 1700.1 3723.29 1701.23L3731.29 1695.23ZM3783.81 1726.68L3763.59 1731.98L3766.13 1741.66L3786.35 1736.35L3783.81 1726.68ZM3755.03 1757.3L3769.27 1775.56L3777.16 1769.41L3762.92 1751.15L3755.03 1757.3ZM3788.53 1780.14C3793.62 1777.67 3799.26 1774.78 3803.5 1772.21C3805.58 1770.96 3807.55 1769.64 3808.96 1768.39C3809.63 1767.8 3810.51 1766.93 3811.13 1765.83C3811.73 1764.75 3812.76 1762.05 3810.82 1759.47L3802.82 1765.47C3801.24 1763.36 3802.22 1761.28 3802.41 1760.94C3802.61 1760.57 3802.73 1760.55 3802.33 1760.9C3801.62 1761.53 3800.28 1762.47 3798.32 1763.66C3794.49 1765.98 3789.18 1768.71 3784.17 1771.14L3788.53 1780.14ZM3810.82 1759.47C3810.98 1759.68 3810.95 1759.7 3810.73 1759.23C3810.55 1758.85 3810.32 1758.31 3810.04 1757.62C3809.49 1756.22 3808.81 1754.37 3808.06 1752.21C3806.56 1747.89 3804.82 1742.52 3803.24 1737.48L3793.7 1740.47C3795.29 1745.55 3797.06 1751.03 3798.61 1755.49C3799.39 1757.71 3800.12 1759.73 3800.76 1761.33C3801.08 1762.12 3801.39 1762.86 3801.69 1763.5C3801.94 1764.04 3802.33 1764.81 3802.82 1765.47L3810.82 1759.47ZM3847.41 1769.64L3831.38 1778L3836 1786.87L3852.03 1778.5L3847.41 1769.64ZM3826.05 1801.88L3835.28 1813.99L3843.23 1807.93L3834 1795.82L3826.05 1801.88ZM3858.87 1816.04L3872.62 1803.32L3865.83 1795.98L3852.08 1808.7L3858.87 1816.04ZM3873.67 1780.89L3866.72 1773.14L3859.27 1779.82L3866.22 1787.57L3873.67 1780.89ZM3916.39 1821.17L3904.54 1829.64L3910.36 1837.77L3922.21 1829.31L3916.39 1821.17ZM3904.7 1855.78L3910.3 1859.69L3916.02 1851.48L3910.41 1847.58L3904.7 1855.78ZM3929.62 1858.91L3939.83 1850.5L3933.47 1842.78L3923.26 1851.19L3929.62 1858.91ZM3940.97 1826.84L3937.01 1822.88L3929.94 1829.95L3933.9 1833.91L3940.97 1826.84ZM3985.97 1863.8L3966.17 1883.36L3973.2 1890.47L3993 1870.91L3985.97 1863.8ZM3965.79 1905.74L3974.5 1914.94L3981.76 1908.07L3973.06 1898.87L3965.79 1905.74ZM3996.4 1916.2L4017.7 1898.33L4011.27 1890.67L3989.98 1908.54L3996.4 1916.2ZM4019.09 1875.14L4008.9 1864.25L4001.6 1871.08L4011.79 1881.97L4019.09 1875.14ZM4068.14 1916.87L4059.6 1918.21L4061.16 1928.09L4069.7 1926.74L4068.14 1916.87ZM4046.57 1930.14L4043.06 1944.2L4052.76 1946.63L4056.27 1932.56L4046.57 1930.14ZM4054.35 1963.51L4060.95 1965.32L4063.6 1955.68L4056.99 1953.87L4054.35 1963.51ZM4080.44 1954.73L4085.89 1937.5L4076.36 1934.48L4070.9 1951.7L4080.44 1954.73ZM4148.12 1965.75H4134.17V1975.75H4148.12V1965.75ZM4118.17 1982.16L4118.5 1994.87L4128.49 1994.61L4128.17 1981.9L4118.17 1982.16ZM4133.69 2010.44L4147.16 2011.11L4147.66 2001.13L4134.19 2000.45L4133.69 2010.44ZM4163.96 1995.33L4164.12 1981.94L4154.12 1981.82L4153.96 1995.21L4163.96 1995.33ZM4205.81 2012.45L4192.77 2018.97L4197.24 2027.92L4210.28 2021.39L4205.81 2012.45ZM4184.77 2038.41L4188.36 2049.01L4197.83 2045.81L4194.24 2035.2L4184.77 2038.41ZM4208.25 2059.07C4215.46 2056.72 4223.5 2053.96 4229.52 2051.55C4232.49 2050.36 4235.19 2049.18 4237.07 2048.11C4237.92 2047.63 4239.07 2046.92 4239.94 2045.98C4240.34 2045.55 4241.22 2044.51 4241.48 2042.94C4241.82 2040.87 4240.94 2039.06 4239.66 2037.96L4233.15 2045.55C4232.1 2044.66 4231.32 2043.09 4231.61 2041.3C4231.83 2040.01 4232.52 2039.28 4232.61 2039.18C4232.85 2038.92 4232.86 2039 4232.14 2039.41C4230.88 2040.13 4228.72 2041.1 4225.81 2042.26C4220.09 2044.55 4212.31 2047.23 4205.15 2049.56L4208.25 2059.07ZM4239.66 2037.96C4239.73 2038.02 4239.32 2037.6 4238.28 2036.17C4237.38 2034.93 4236.25 2033.29 4234.98 2031.38C4232.44 2027.56 4229.43 2022.81 4226.67 2018.38L4218.18 2023.66C4220.96 2028.13 4224.03 2032.97 4226.65 2036.91C4227.96 2038.87 4229.17 2040.65 4230.19 2042.06C4231.08 2043.27 4232.17 2044.72 4233.15 2045.55L4239.66 2037.96ZM6067.11 1668.3L6050 1686.43L6057.27 1693.29L6074.38 1675.16L6067.11 1668.3ZM6051.85 1710.07L6068.88 1723.24L6075 1715.33L6057.97 1702.16L6051.85 1710.07ZM6090.32 1721.55L6106.79 1704.06L6099.5 1697.21L6083.04 1714.7L6090.32 1721.55ZM6105.45 1680.86L6089.06 1667.04L6082.61 1674.69L6099 1688.51L6105.45 1680.86ZM6106.24 1664.06L6124.77 1679.16L6131.09 1671.41L6112.56 1656.31L6106.24 1664.06ZM6146.52 1677.74L6175.45 1647.08L6168.18 1640.22L6139.25 1670.88L6146.52 1677.74ZM6174.58 1624.26L6170.07 1620.15L6163.34 1627.55L6167.85 1631.66L6174.58 1624.26ZM6146.78 1622.03L6135.27 1636.5L6143.09 1642.73L6154.61 1628.26L6146.78 1622.03ZM6127.03 1637.61L6126.86 1637.48L6120.96 1645.56L6121.13 1645.68L6127.03 1637.61ZM6105.24 1640.03L6104.17 1641.28L6111.78 1647.77L6112.85 1646.51L6105.24 1640.03ZM6126.86 1637.48C6120.1 1632.54 6110.67 1633.65 6105.24 1640.03L6112.85 1646.51C6114.89 1644.12 6118.42 1643.7 6120.96 1645.56L6126.86 1637.48ZM6135.27 1636.5C6133.26 1639.02 6129.63 1639.51 6127.03 1637.61L6121.13 1645.68C6128.06 1650.74 6137.75 1649.44 6143.09 1642.73L6135.27 1636.5ZM6170.07 1620.15C6163.22 1613.93 6152.54 1614.79 6146.78 1622.03L6154.61 1628.26C6156.77 1625.54 6160.77 1625.22 6163.34 1627.55L6170.07 1620.15ZM6175.45 1647.08C6181.6 1640.57 6181.21 1630.28 6174.58 1624.26L6167.85 1631.66C6170.34 1633.92 6170.49 1637.77 6168.18 1640.22L6175.45 1647.08ZM6124.77 1679.16C6131.28 1684.46 6140.76 1683.84 6146.52 1677.74L6139.25 1670.88C6137.09 1673.17 6133.53 1673.4 6131.09 1671.41L6124.77 1679.16ZM6112.56 1656.31C6109.95 1654.19 6109.6 1650.33 6111.78 1647.77L6104.17 1641.28C6098.35 1648.12 6099.29 1658.4 6106.24 1664.06L6112.56 1656.31ZM6106.79 1704.06C6113.08 1697.37 6112.47 1686.78 6105.45 1680.86L6099 1688.51C6101.63 1690.72 6101.86 1694.7 6099.5 1697.21L6106.79 1704.06ZM6068.88 1723.24C6075.4 1728.28 6084.68 1727.55 6090.32 1721.55L6083.04 1714.7C6080.92 1716.95 6077.44 1717.22 6075 1715.33L6068.88 1723.24ZM6050 1686.43C6043.51 1693.31 6044.37 1704.28 6051.85 1710.07L6057.97 1702.16C6055.16 1699.99 6054.84 1695.87 6057.27 1693.29L6050 1686.43ZM4188.36 2049.01C4191.12 2057.19 4199.93 2061.78 4208.25 2059.07L4205.15 2049.56C4202.15 2050.54 4198.88 2048.91 4197.83 2045.81L4188.36 2049.01ZM4192.77 2018.97C4185.62 2022.54 4182.21 2030.84 4184.77 2038.41L4194.24 2035.2C4193.28 2032.37 4194.56 2029.26 4197.24 2027.92L4192.77 2018.97ZM4210.28 2021.39C4213.07 2020 4216.5 2020.96 4218.18 2023.66L4226.67 2018.38C4222.29 2011.35 4213.27 2008.72 4205.81 2012.45L4210.28 2021.39ZM4147.16 2011.11C4156.22 2011.57 4163.85 2004.4 4163.96 1995.33L4153.96 1995.21C4153.92 1998.61 4151.06 2001.3 4147.66 2001.13L4147.16 2011.11ZM4118.5 1994.87C4118.71 2003.24 4125.34 2010.02 4133.69 2010.44L4134.19 2000.45C4131.06 2000.3 4128.57 1997.75 4128.49 1994.61L4118.5 1994.87ZM4134.17 1965.75C4125.17 1965.75 4117.94 1973.17 4118.17 1982.16L4128.17 1981.9C4128.08 1978.53 4130.79 1975.75 4134.17 1975.75V1965.75ZM4148.12 1975.75C4151.47 1975.75 4154.16 1978.48 4154.12 1981.82L4164.12 1981.94C4164.23 1973.03 4157.04 1965.75 4148.12 1965.75V1975.75ZM4060.95 1965.32C4069.24 1967.6 4077.84 1962.92 4080.44 1954.73L4070.9 1951.7C4069.93 1954.78 4066.7 1956.53 4063.6 1955.68L4060.95 1965.32ZM4043.06 1944.2C4040.95 1952.64 4045.96 1961.21 4054.35 1963.51L4056.99 1953.87C4053.85 1953.01 4051.97 1949.79 4052.76 1946.63L4043.06 1944.2ZM4069.7 1926.74C4074.11 1926.05 4077.71 1930.23 4076.36 1934.48L4085.89 1937.5C4089.48 1926.17 4079.89 1915.01 4068.14 1916.87L4069.7 1926.74ZM4017.7 1898.33C4024.73 1892.43 4025.37 1881.84 4019.09 1875.14L4011.79 1881.97C4014.15 1884.48 4013.91 1888.46 4011.27 1890.67L4017.7 1898.33ZM3974.5 1914.94C3980.32 1921.09 3989.92 1921.64 3996.4 1916.2L3989.98 1908.54C3987.54 1910.58 3983.94 1910.37 3981.76 1908.07L3974.5 1914.94ZM3904.54 1829.64C3895.55 1836.06 3895.62 1849.46 3904.7 1855.78L3910.41 1847.58C3907.01 1845.21 3906.98 1840.18 3910.36 1837.77L3904.54 1829.64ZM3922.21 1829.31C3924.59 1827.6 3927.86 1827.87 3929.94 1829.95L3937.01 1822.88C3931.48 1817.35 3922.76 1816.63 3916.39 1821.17L3922.21 1829.31ZM3872.62 1803.32C3879.04 1797.38 3879.5 1787.4 3873.67 1780.89L3866.22 1787.57C3868.41 1790.01 3868.24 1793.75 3865.83 1795.98L3872.62 1803.32ZM3419.31 903.127C3415.72 896.194 3407.68 892.767 3400.15 895.286L3403.32 904.77C3406.06 903.854 3409.05 905.054 3410.43 907.731L3419.31 903.127ZM3835.28 1813.99C3841 1821.5 3851.94 1822.45 3858.87 1816.04L3852.08 1808.7C3849.48 1811.1 3845.38 1810.75 3843.23 1807.93L3835.28 1813.99ZM3852.03 1778.5C3854.46 1777.23 3857.44 1777.78 3859.27 1779.82L3866.72 1773.14C3861.84 1767.7 3853.89 1766.25 3847.41 1769.64L3852.03 1778.5ZM3769.27 1775.56C3773.79 1781.35 3781.77 1783.41 3788.53 1780.14L3784.17 1771.14C3781.8 1772.28 3778.88 1771.61 3777.16 1769.41L3769.27 1775.56ZM3763.59 1731.98C3752.47 1734.9 3747.96 1748.24 3755.03 1757.3L3762.92 1751.15C3760.27 1747.75 3761.96 1742.75 3766.13 1741.66L3763.59 1731.98ZM3786.35 1736.35C3789.46 1735.54 3792.71 1737.33 3793.7 1740.47L3803.24 1737.48C3800.68 1729.31 3792.16 1724.49 3783.81 1726.68L3786.35 1736.35ZM3692.25 1685.18C3681.5 1689.88 3679.28 1704.16 3688.11 1711.89L3694.7 1704.36C3691.39 1701.47 3692.22 1696.11 3696.25 1694.35L3692.25 1685.18ZM3710.75 1688.02C3714.02 1686.6 3718.08 1688.35 3719.35 1692.13L3728.83 1688.94C3725.82 1680 3715.77 1674.92 3706.75 1678.86L3710.75 1688.02ZM3660.87 1668.29C3667.58 1663.55 3669.62 1654.5 3665.57 1647.35L3656.87 1652.27C3658.38 1654.95 3657.62 1658.35 3655.1 1660.12L3660.87 1668.29ZM3629.7 1671.27C3634.9 1678.2 3644.66 1679.74 3651.73 1674.74L3645.96 1666.57C3643.31 1668.45 3639.65 1667.87 3637.7 1665.27L3629.7 1671.27ZM3634.66 1642.78C3624.3 1646.24 3620.37 1658.82 3626.92 1667.56L3634.92 1661.56C3632.46 1658.28 3633.94 1653.56 3637.82 1652.27L3634.66 1642.78ZM3649.16 1648.49C3651.88 1647.58 3654.87 1648.73 3656.28 1651.23L3664.99 1646.31C3661.22 1639.64 3653.26 1636.58 3646 1639L3649.16 1648.49ZM3942.84 1478.05C3948.9 1470.96 3947.63 1460.21 3940.08 1454.72L3934.2 1462.81C3937.03 1464.87 3937.51 1468.9 3935.24 1471.56L3942.84 1478.05ZM3958.41 1428.44C3964.56 1433.46 3973.48 1433.21 3979.34 1427.84L3972.58 1420.47C3970.39 1422.48 3967.04 1422.58 3964.74 1420.69L3958.41 1428.44ZM5591.09 2266.45C5597.37 2259.62 5596.54 2248.89 5589.28 2243.11L5583.05 2250.93C5585.77 2253.1 5586.08 2257.12 5583.72 2259.68L5591.09 2266.45ZM5541.6 2299.45C5548.17 2304.19 5557.24 2303.26 5562.73 2297.3L5555.36 2290.53C5553.31 2292.77 5549.91 2293.11 5547.44 2291.34L5541.6 2299.45ZM4586.35 1061.97C4584.77 1061.14 4583.66 1059.4 4583.56 1057.34L4573.57 1057.8C4573.82 1063.13 4576.73 1068.2 4581.69 1070.82L4586.35 1061.97ZM5834.51 2252.81C5842.71 2257.89 5853.5 2254.63 5857.5 2245.86L5848.4 2241.7C5846.9 2244.99 5842.85 2246.22 5839.78 2244.31L5834.51 2252.81ZM5689.28 2148.69C5684.64 2156.07 5686.75 2165.81 5694.04 2170.59L5699.53 2162.23C5696.8 2160.44 5696 2156.78 5697.75 2154.02L5689.28 2148.69ZM5700.3 2149.95C5702.09 2147.13 5705.83 2146.3 5708.64 2148.11L5714.07 2139.71C5706.58 2134.88 5696.59 2137.08 5691.84 2144.62L5700.3 2149.95ZM5684.36 2140.6C5688.36 2133.38 5686.21 2124.3 5679.4 2119.64L5673.75 2127.89C5676.31 2129.64 5677.12 2133.04 5675.61 2135.75L5684.36 2140.6ZM4782.29 832.909C4783.03 833.862 4783.46 835.068 4783.51 836.305L4793.5 835.967C4793.39 832.663 4792.24 829.426 4790.2 826.787L4782.29 832.909ZM5659.59 2149.73C5667.37 2154.87 5677.88 2152.29 5682.4 2144.13L5673.66 2139.29C5671.96 2142.35 5668.02 2143.31 5665.1 2141.38L5659.59 2149.73ZM5628.6 2109.98C5623.67 2117.35 5625.68 2127.33 5633.09 2132.22L5638.6 2123.88C5635.82 2122.04 5635.07 2118.3 5636.92 2115.54L5628.6 2109.98ZM5639.44 2111.76C5641.3 2108.99 5645.06 2108.26 5647.82 2110.14L5653.46 2101.89C5646.11 2096.86 5636.07 2098.8 5631.13 2106.2L5639.44 2111.76ZM3915.16 249.369C3908.19 255.182 3907.44 265.628 3913.52 272.373L3920.95 265.678C3918.67 263.149 3918.95 259.231 3921.57 257.052L3915.16 249.369ZM5892.1 2424.85C5898.29 2428.92 5906.47 2428.2 5911.86 2423.12L5905 2415.84C5902.98 2417.75 5899.92 2418.02 5897.59 2416.49L5892.1 2424.85ZM3979.45 214.901C3973.61 208.971 3964.2 208.507 3957.8 213.835L3964.21 221.518C3966.6 219.52 3970.13 219.693 3972.32 221.917L3979.45 214.901ZM5554.62 2180.32C5547.64 2187.53 5548.95 2199.31 5557.33 2204.82L5562.82 2196.47C5559.68 2194.4 5559.19 2189.98 5561.81 2187.28L5554.62 2180.32ZM5605.31 2142.35C5607.31 2140.29 5610.48 2139.93 5612.88 2141.48L5618.31 2133.09C5611.9 2128.94 5603.44 2129.9 5598.13 2135.39L5605.31 2142.35ZM4966.75 1307.94C4968.97 1313.05 4963.63 1318.18 4958.62 1315.73L4954.24 1324.72C4967.61 1331.24 4981.86 1317.58 4975.91 1303.94L4966.75 1307.94ZM6087.92 2039.22C6090.62 2039.04 6093.07 2040.97 6093.51 2043.92L6103.4 2042.44C6102.23 2034.62 6095.43 2028.71 6087.27 2029.24L6087.92 2039.22ZM4835.03 1265.51C4836.35 1266.9 4837.91 1268.05 4839.64 1268.89L4844.02 1259.9C4843.37 1259.59 4842.79 1259.16 4842.29 1258.63L4835.03 1265.51ZM6064.39 2031.01C6054.69 2031.8 6047.31 2040.98 6049.08 2050.73L6058.92 2048.95C6058.24 2045.19 6061.21 2041.3 6065.19 2040.98L6064.39 2031.01ZM6226.64 1651.96C6228.52 1650.12 6231.38 1649.71 6233.7 1650.96L6238.44 1642.16C6232.27 1638.83 6224.64 1639.91 6219.63 1644.83L6226.64 1651.96ZM4213.2 888.96C4213.36 897.512 4220.22 904.423 4228.77 904.649L4229.04 894.652C4225.83 894.567 4223.26 891.976 4223.2 888.769L4213.2 888.96ZM6115.7 1581.81C6119.29 1583.78 6119.89 1588.69 6116.89 1591.47L6123.68 1598.81C6131.69 1591.39 6130.09 1578.3 6120.52 1573.04L6115.7 1581.81ZM4800.95 2276.09C4798.9 2277.95 4795.85 2278.17 4793.56 2276.62L4787.97 2284.91C4794.08 2289.03 4802.21 2288.45 4807.67 2283.5L4800.95 2276.09ZM4702.94 1093.2C4698.53 1099.61 4699.02 1108.45 4704.68 1114.14L4711.77 1107.09C4709.67 1104.98 4709.35 1101.52 4711.18 1098.87L4702.94 1093.2ZM5708.37 1442.89C5711.91 1444.91 5712.45 1449.8 5709.42 1452.54L5716.14 1459.95C5724.2 1452.65 5722.78 1439.61 5713.34 1434.21L5708.37 1442.89ZM4647.84 1217.06C4646.9 1216 4646.37 1214.64 4646.33 1213.22L4636.33 1213.45C4636.42 1217.24 4637.85 1220.87 4640.36 1223.7L4647.84 1217.06ZM5063 1078.31C5064.93 1076.71 5067.64 1076.48 5069.81 1077.72L5074.78 1069.04C5068.99 1065.73 5061.75 1066.35 5056.62 1070.61L5063 1078.31ZM6074.38 1675.16C6076.57 1672.84 6080.18 1672.64 6082.61 1674.69L6089.06 1667.04C6082.57 1661.57 6072.93 1662.12 6067.11 1668.3L6074.38 1675.16ZM6271.51 3318.9C6275.89 3316.23 6278.6 3311.71 6279.03 3306.68L6269.07 3305.82C6268.9 3307.76 6267.89 3309.4 6266.3 3310.37L6271.51 3318.9ZM3896.93 1256.83C3895.99 1257.78 3895.34 1258.8 3894.92 1259.49C3894.4 1260.35 3894.25 1260.64 3893.97 1261.03L3902.11 1266.84C3902.68 1266.05 3903.23 1265.07 3903.47 1264.68C3903.79 1264.14 3903.94 1263.96 3904.01 1263.89L3896.93 1256.83ZM6723.43 1677.59C6727.02 1679.52 6727.68 1684.39 6724.74 1687.21L6731.67 1694.43C6739.51 1686.9 6737.73 1673.92 6728.16 1668.78L6723.43 1677.59ZM3910.3 1859.69C3916.18 1863.79 3924.08 1863.47 3929.62 1858.91L3923.26 1851.19C3921.18 1852.9 3918.22 1853.02 3916.02 1851.48L3910.3 1859.69ZM6794.82 3822.65C6797.75 3825.26 6801.53 3826.65 6805.41 3826.64L6805.38 3816.64C6803.92 3816.64 6802.52 3816.12 6801.46 3815.18L6794.82 3822.65ZM3693.37 1716.49C3698.66 1721.12 3706.49 1721.82 3712.47 1717.8L3706.9 1709.5C3704.82 1710.9 3701.97 1710.73 3699.95 1708.96L3693.37 1716.49ZM4853.06 364.636C4847.11 362.873 4840.67 364.709 4836.55 369.347L4844.03 375.991C4845.57 374.251 4847.98 373.563 4850.22 374.224L4853.06 364.636ZM5709.84 785.716C5707.21 784.388 5704.07 783.701 5700.79 784.312L5702.62 794.143C5703.38 794.002 5704.3 794.12 5705.33 794.642L5709.84 785.716ZM3904.29 1500.66C3911.05 1505.49 3920.38 1504.35 3925.77 1498.04L3918.17 1491.55C3916.14 1493.91 3912.64 1494.34 3910.11 1492.53L3904.29 1500.66ZM5936.47 1022.23C5938.77 1022.12 5940.75 1023.99 5940.71 1026.35L5930.71 1026.18C5930.65 1029.65 5933.53 1032.37 5936.93 1032.22L5936.47 1022.23ZM5555.16 2235.98C5557.28 2233.59 5560.9 2233.28 5563.39 2235.27L5569.62 2227.45C5562.97 2222.15 5553.33 2222.98 5547.69 2229.34L5555.16 2235.98ZM6736.1 2250.84C6740.03 2250.84 6743.83 2249.39 6746.76 2246.77L6740.1 2239.31C6739 2240.29 6737.58 2240.84 6736.1 2240.84V2250.84ZM4580.21 984.117C4580.08 981.351 4581.77 979.153 4583.99 978.595L4581.54 968.899C4574.26 970.737 4569.9 977.558 4570.22 984.574L4580.21 984.117ZM5756.88 2185.72C5752.14 2193.24 5754.43 2203.17 5761.98 2207.85L5767.25 2199.35C5764.42 2197.6 5763.56 2193.87 5765.34 2191.06L5756.88 2185.72ZM6672.65 2168.16C6671.85 2168.76 6671.13 2169.42 6670.47 2170.15L6677.86 2176.88C6678.12 2176.6 6678.38 2176.36 6678.67 2176.14L6672.65 2168.16ZM4713.08 979.31C4710.98 975.312 4707.27 972.501 4702.98 971.437L4700.57 981.142C4702.19 981.543 4703.51 982.58 4704.23 983.96L4713.08 979.31ZM4174.32 1858.58C4171.06 1856.38 4170.76 1851.7 4173.71 1849.1L4167.1 1841.6C4159.24 1848.52 4160.04 1861 4168.72 1866.87L4174.32 1858.58ZM4418.2 3302.57C4417.64 3302.95 4417.11 3303.2 4416.5 3303.37L4419.2 3313C4420.88 3312.52 4422.4 3311.81 4423.82 3310.84L4418.2 3302.57ZM4059.6 1918.21C4053.26 1919.22 4048.13 1923.91 4046.57 1930.14L4056.27 1932.56C4056.86 1930.23 4058.78 1928.47 4061.16 1928.09L4059.6 1918.21ZM7036.48 1737.54C7036.32 1737.78 7036.12 1738.02 7035.91 1738.23L7043.08 1745.2C7043.64 1744.62 7044.17 1743.99 7044.64 1743.32L7036.48 1737.54ZM4393.25 1179.24C4394.49 1179.23 4395.77 1179.64 4396.91 1180.47L4402.78 1172.37C4400.03 1170.38 4396.69 1169.2 4393.13 1169.24L4393.25 1179.24ZM6876.54 3813.22C6875.51 3815.2 6873.46 3816.44 6871.23 3816.45L6871.26 3826.45C6877.21 3826.43 6882.66 3823.12 6885.41 3817.84L6876.54 3813.22ZM5766.49 2189.23C5768.22 2186.48 5771.83 2185.61 5774.63 2187.27L5779.72 2178.67C5772.27 2174.25 5762.65 2176.57 5758.03 2183.9L5766.49 2189.23ZM5859.1 2242.34C5862.5 2234.9 5859.74 2226.1 5852.71 2221.93L5847.61 2230.54C5850.24 2232.1 5851.28 2235.4 5850.01 2238.19L5859.1 2242.34ZM4683.17 1084.51C4685.58 1083.52 4687.65 1081.88 4689.18 1079.83L4681.18 1073.83C4680.69 1074.48 4680.05 1074.98 4679.35 1075.27L4683.17 1084.51ZM3966.17 1883.36C3959.98 1889.48 3959.81 1899.42 3965.79 1905.74L3973.06 1898.87C3970.81 1896.5 3970.87 1892.77 3973.2 1890.47L3966.17 1883.36ZM4466.24 1278.59C4466.59 1280.01 4467.15 1281.43 4467.99 1282.8L4476.5 1277.54C4476.27 1277.16 4476.07 1276.71 4475.93 1276.13L4466.24 1278.59ZM6890.69 3807.69C6892.96 3803.33 6892.06 3797.99 6888.49 3794.61L6881.62 3801.87C6881.95 3802.18 6882.03 3802.67 6881.82 3803.07L6890.69 3807.69ZM5741.77 2175.34C5745.83 2167.98 5743.5 2158.74 5736.44 2154.18L5731.01 2162.57C5733.66 2164.28 5734.53 2167.75 5733.01 2170.51L5741.77 2175.34ZM3993 1870.91C3995.4 1868.54 3999.29 1868.62 4001.6 1871.08L4008.9 1864.25C4002.74 1857.68 3992.38 1857.47 3985.97 1863.8L3993 1870.91ZM4444.51 1207.1C4447.04 1207.99 4448.79 1209.86 4449.33 1211.96L4459.02 1209.5C4457.54 1203.67 4453.01 1199.48 4447.82 1197.66L4444.51 1207.1ZM6844.09 3771.37C6846.29 3770.43 6848.84 3770.88 6850.58 3772.53L6857.45 3765.26C6852.81 3760.88 6846.01 3759.67 6840.15 3762.18L6844.09 3771.37ZM4401.48 1067.21C4398.96 1066.16 4396.24 1065.74 4393.48 1066.04L4394.58 1075.98C4395.6 1075.87 4396.61 1076.02 4397.61 1076.44L4401.48 1067.21ZM5716.56 2185.37C5724.35 2190.49 5734.84 2187.89 5739.35 2179.73L5730.59 2174.9C5728.9 2177.96 5724.97 2178.93 5722.04 2177.01L5716.56 2185.37ZM5798.94 2074.79C5800.87 2072.54 5804.15 2072.04 5806.67 2073.61L5811.96 2065.12C5805.25 2060.94 5796.49 2062.28 5791.35 2068.29L5798.94 2074.79ZM4907.27 1172.54C4907.78 1173.06 4908.19 1173.68 4908.49 1174.35L4917.65 1170.35C4916.87 1168.56 4915.77 1166.93 4914.4 1165.53L4907.27 1172.54ZM6096.52 2064.05C6097.03 2067.43 6094.61 2070.55 6091.22 2070.91L6092.26 2080.85C6101.32 2079.9 6107.76 2071.58 6106.41 2062.57L6096.52 2064.05ZM6068.97 2073.25C6065.85 2073.58 6063 2071.44 6062.44 2068.35L6052.6 2070.13C6054.09 2078.37 6061.69 2084.07 6070.02 2083.19L6068.97 2073.25ZM6511.11 1812.18C6518.38 1804.54 6516.4 1792.07 6507.11 1787.06L6502.37 1795.86C6505.85 1797.74 6506.59 1802.42 6503.86 1805.28L6511.11 1812.18ZM6044.63 2229.67C6049.66 2222.16 6047.47 2211.98 6039.8 2207.19L6034.51 2215.68C6037.39 2217.47 6038.21 2221.29 6036.32 2224.11L6044.63 2229.67ZM5984.57 1875.84C5977.25 1883.04 5978.5 1895.17 5987.14 1900.71L5992.54 1892.3C5989.31 1890.22 5988.84 1885.67 5991.58 1882.97L5984.57 1875.84ZM5781.18 2080.14C5774.83 2087.56 5776.54 2098.88 5784.8 2104.09L5790.13 2095.63C5787.03 2093.68 5786.39 2089.43 5788.78 2086.65L5781.18 2080.14ZM4653.84 555.58C4647.61 552.236 4639.92 553.38 4634.93 558.395L4642.02 565.447C4643.89 563.567 4646.78 563.138 4649.11 564.392L4653.84 555.58ZM5519.11 2261.54C5512.82 2268.63 5514.03 2279.6 5521.73 2285.14L5527.57 2277.03C5524.68 2274.95 5524.23 2270.84 5526.59 2268.18L5519.11 2261.54ZM6842.38 2161.32C6845.87 2158.2 6847.79 2153.75 6847.76 2149.12L6837.76 2149.19C6837.77 2151.01 6837.02 2152.7 6835.71 2153.87L6842.38 2161.32ZM5960.13 2377.66C5967.69 2370.54 5966.56 2358.22 5957.84 2352.58L5952.41 2360.98C5955.68 2363.09 5956.1 2367.71 5953.27 2370.38L5960.13 2377.66ZM3939.83 1850.5C3947.12 1844.5 3947.65 1833.52 3940.97 1826.84L3933.9 1833.91C3936.4 1836.41 3936.2 1840.53 3933.47 1842.78L3939.83 1850.5ZM6248.83 2068.8C6255.29 2072.95 6263.78 2071.93 6269.07 2066.37L6261.82 2059.48C6259.84 2061.56 6256.66 2061.94 6254.24 2060.39L6248.83 2068.8ZM6013.47 2248.24C6020.8 2252.86 6030.48 2250.81 6035.3 2243.61L6026.99 2238.04C6025.18 2240.74 6021.56 2241.51 6018.81 2239.78L6013.47 2248.24ZM6642.03 2251.35C6642.79 2251.01 6643.62 2250.84 6644.46 2250.84V2240.84C6642.23 2240.84 6640.02 2241.3 6637.98 2242.2L6642.03 2251.35ZM4558.43 1260.1C4557.98 1259.23 4557.75 1258.25 4557.77 1257.26L4547.77 1257.09C4547.72 1259.73 4548.33 1262.33 4549.53 1264.67L4558.43 1260.1ZM3831.38 1778C3822.58 1782.59 3820.04 1793.99 3826.05 1801.88L3834 1795.82C3831.75 1792.86 3832.7 1788.59 3836 1786.87L3831.38 1778ZM3830.98 1366.4C3826.2 1365.4 3821.36 1366.58 3817.54 1369.27L3823.3 1377.45C3825.02 1376.23 3827.07 1375.8 3828.93 1376.19L3830.98 1366.4Z" fill="#7481A1"/>
<rect x="2568.2" y="9.98633" width="4649.13" height="3806.71" rx="55" stroke="#7481A1" stroke-width="10"/>
</svg>
